<?xml version="1.0" encoding="UTF-8" standalone="no"?>
<svg
   width="700pt"
   height="700pt"
   version="1.1"
   viewBox="0 0 700 700"
   id="svg44774"
   sodipodi:docname="clean-noun-bush-4322941.svg"
   inkscape:version="1.2.1 (2ed6d7ae0b, 2022-08-22, custom)"
   xmlns:inkscape="http://www.inkscape.org/namespaces/inkscape"
   xmlns:sodipodi="http://sodipodi.sourceforge.net/DTD/sodipodi-0.dtd"
   xmlns="http://www.w3.org/2000/svg"
   xmlns:svg="http://www.w3.org/2000/svg">
  <sodipodi:namedview
     id="namedview44776"
     pagecolor="#ffffff"
     bordercolor="#666666"
     borderopacity="1.0"
     inkscape:showpageshadow="2"
     inkscape:pageopacity="0.0"
     inkscape:pagecheckerboard="0"
     inkscape:deskcolor="#d1d1d1"
     inkscape:document-units="pt"
     showgrid="false"
     inkscape:zoom="1.2879445"
     inkscape:cx="452.65926"
     inkscape:cy="323.77172"
     inkscape:window-width="1864"
     inkscape:window-height="1053"
     inkscape:window-x="56"
     inkscape:window-y="27"
     inkscape:window-maximized="1"
     inkscape:current-layer="svg44774" />
  <defs
     id="defs44722">
    <symbol
       id="n"
       overflow="visible">
      <path
         d="m29.312-1.75c-1.5117 0.78125-3.0898 1.3711-4.7344 1.7656-1.6367 0.40625-3.3398 0.60938-5.1094 0.60938-5.3125 0-9.5273-1.4844-12.641-4.4531-3.1055-2.9688-4.6562-7-4.6562-12.094s1.5508-9.125 4.6562-12.094c3.1133-2.9688 7.3281-4.4531 12.641-4.4531 1.7695 0 3.4727 0.19922 5.1094 0.59375 1.6445 0.39844 3.2227 0.99219 4.7344 1.7812v6.5938c-1.5312-1.0391-3.0391-1.8008-4.5156-2.2812-1.4805-0.48828-3.0391-0.73438-4.6719-0.73438-2.9375 0-5.2461 0.94531-6.9219 2.8281-1.6797 1.875-2.5156 4.4648-2.5156 7.7656 0 3.293 0.83594 5.8828 2.5156 7.7656 1.6758 1.875 3.9844 2.8125 6.9219 2.8125 1.6328 0 3.1914-0.23828 4.6719-0.71875 1.4766-0.48828 2.9844-1.2539 4.5156-2.2969z"
         id="path44680" />
    </symbol>
    <symbol
       id="h"
       overflow="visible">
      <path
         d="m21.453-17.406c-0.67969-0.3125-1.3516-0.53906-2.0156-0.6875-0.65625-0.15625-1.3203-0.23438-1.9844-0.23438-1.9688 0-3.4844 0.63281-4.5469 1.8906-1.0547 1.2617-1.5781 3.0703-1.5781 5.4219v11.016h-7.6562v-23.922h7.6562v3.9219c0.97656-1.5625 2.1016-2.7031 3.375-3.4219 1.2812-0.71875 2.8125-1.0781 4.5938-1.0781 0.25 0 0.52344 0.011719 0.82812 0.03125 0.30078 0.023438 0.73438 0.070312 1.2969 0.14062z"
         id="path44683" />
    </symbol>
    <symbol
       id="c"
       overflow="visible">
      <path
         d="m27.562-12.031v2.1875h-17.891c0.1875 1.793 0.83203 3.1367 1.9375 4.0312 1.1133 0.89844 2.6719 1.3438 4.6719 1.3438 1.6016 0 3.25-0.23438 4.9375-0.70312 1.6875-0.47656 3.4219-1.2031 5.2031-2.1719v5.8906c-1.8047 0.6875-3.6094 1.2031-5.4219 1.5469-1.8125 0.35156-3.6211 0.53125-5.4219 0.53125-4.3359 0-7.7031-1.0977-10.109-3.2969-2.3984-2.207-3.5938-5.2969-3.5938-9.2656 0-3.9062 1.1758-6.9727 3.5312-9.2031 2.3633-2.2383 5.6094-3.3594 9.7344-3.3594 3.7578 0 6.7695 1.1367 9.0312 3.4062 2.2578 2.2617 3.3906 5.2812 3.3906 9.0625zm-7.8594-2.5312c0-1.457-0.42969-2.6289-1.2812-3.5156-0.84375-0.89453-1.9492-1.3438-3.3125-1.3438-1.4922 0-2.6992 0.41797-3.625 1.25-0.91797 0.83594-1.4922 2.0391-1.7188 3.6094z"
         id="path44686" />
    </symbol>
    <symbol
       id="a"
       overflow="visible">
      <path
         d="m14.391-10.766c-1.5938 0-2.793 0.27344-3.5938 0.8125-0.80469 0.54297-1.2031 1.3398-1.2031 2.3906 0 0.96875 0.32031 1.7305 0.96875 2.2812 0.64453 0.54297 1.5469 0.8125 2.7031 0.8125 1.4375 0 2.6445-0.51562 3.625-1.5469 0.98828-1.0312 1.4844-2.3203 1.4844-3.875v-0.875zm11.688-2.8906v13.656h-7.7031v-3.5469c-1.0312 1.4492-2.1875 2.5078-3.4688 3.1719s-2.8398 1-4.6719 1c-2.4805 0-4.4961-0.72266-6.0469-2.1719-1.543-1.4453-2.3125-3.3203-2.3125-5.625 0-2.8125 0.96094-4.8672 2.8906-6.1719 1.9375-1.3125 4.9688-1.9688 9.0938-1.9688h4.5156v-0.60938c0-1.207-0.48047-2.0938-1.4375-2.6562-0.94922-0.5625-2.4375-0.84375-4.4688-0.84375-1.6367 0-3.1562 0.16797-4.5625 0.5-1.4062 0.32422-2.7188 0.8125-3.9375 1.4688v-5.8281c1.6445-0.40625 3.2891-0.70703 4.9375-0.90625 1.6562-0.20703 3.3047-0.3125 4.9531-0.3125 4.3203 0 7.4375 0.85547 9.3438 2.5625 1.9141 1.6992 2.875 4.4609 2.875 8.2812z"
         id="path44689" />
    </symbol>
    <symbol
       id="b"
       overflow="visible">
      <path
         d="m12.031-30.719v6.7969h7.875v5.4688h-7.875v10.141c0 1.1172 0.21875 1.8711 0.65625 2.2656 0.4375 0.38672 1.3125 0.57812 2.625 0.57812h3.9375v5.4688h-6.5625c-3.0234 0-5.1641-0.62891-6.4219-1.8906-1.2617-1.2578-1.8906-3.3984-1.8906-6.4219v-10.141h-3.7969v-5.4688h3.7969v-6.7969z"
         id="path44692" />
    </symbol>
    <symbol
       id="g"
       overflow="visible">
      <path
         d="m19.953-20.422v-12.812h7.6875v33.234h-7.6875v-3.4531c-1.0547 1.4062-2.2148 2.4375-3.4844 3.0938-1.2734 0.65625-2.7422 0.98438-4.4062 0.98438-2.9492 0-5.3711-1.1719-7.2656-3.5156-1.8867-2.3438-2.8281-5.3594-2.8281-9.0469s0.94141-6.7031 2.8281-9.0469c1.8945-2.3438 4.3164-3.5156 7.2656-3.5156 1.6562 0 3.1172 0.33594 4.3906 1 1.2812 0.65625 2.4453 1.6836 3.5 3.0781zm-5.0469 15.484c1.6445 0 2.8945-0.59766 3.75-1.7969 0.86328-1.1953 1.2969-2.9297 1.2969-5.2031 0-2.2812-0.43359-4.0195-1.2969-5.2188-0.85547-1.1953-2.1055-1.7969-3.75-1.7969-1.625 0-2.8711 0.60156-3.7344 1.7969-0.85547 1.1992-1.2812 2.9375-1.2812 5.2188 0 2.2734 0.42578 4.0078 1.2812 5.2031 0.86328 1.1992 2.1094 1.7969 3.7344 1.7969z"
         id="path44695" />
    </symbol>
    <symbol
       id="f"
       overflow="visible">
      <path
         d="m16.406-4.9375c1.6328 0 2.8828-0.59766 3.75-1.7969 0.86328-1.1953 1.2969-2.9297 1.2969-5.2031 0-2.2812-0.43359-4.0195-1.2969-5.2188-0.86719-1.1953-2.1172-1.7969-3.75-1.7969-1.6367 0-2.8906 0.60547-3.7656 1.8125-0.875 1.1992-1.3125 2.9336-1.3125 5.2031 0 2.2617 0.4375 3.9961 1.3125 5.2031 0.875 1.1992 2.1289 1.7969 3.7656 1.7969zm-5.0781-15.484c1.0508-1.3945 2.2188-2.4219 3.5-3.0781 1.2812-0.66406 2.7539-1 4.4219-1 2.9453 0 5.3672 1.1719 7.2656 3.5156 1.8945 2.3438 2.8438 5.3594 2.8438 9.0469s-0.94922 6.7031-2.8438 9.0469c-1.8984 2.3438-4.3203 3.5156-7.2656 3.5156-1.668 0-3.1406-0.33594-4.4219-1s-2.4492-1.6914-3.5-3.0781v3.4531h-7.6562v-33.234h7.6562z"
         id="path44698" />
    </symbol>
    <symbol
       id="e"
       overflow="visible">
      <path
         d="m0.53125-23.922h7.6562l6.4219 16.234 5.4688-16.234h7.6562l-10.062 26.188c-1.0117 2.6641-2.1953 4.5234-3.5469 5.5781-1.3438 1.0625-3.1211 1.5938-5.3281 1.5938h-4.4219v-5.0156h2.3906c1.3008 0 2.2422-0.21094 2.8281-0.625 0.59375-0.40625 1.0547-1.1484 1.3906-2.2188l0.20312-0.65625z"
         id="path44701" />
    </symbol>
    <symbol
       id="d"
       overflow="visible">
      <path
         d="m26.219-30.891v6.75c-1.7617-0.78125-3.4766-1.3672-5.1406-1.7656-1.668-0.40625-3.2422-0.60938-4.7188-0.60938-1.9609 0-3.4141 0.27344-4.3594 0.8125-0.9375 0.54297-1.4062 1.3867-1.4062 2.5312 0 0.85547 0.31641 1.5234 0.95312 2 0.63281 0.46875 1.7852 0.875 3.4531 1.2188l3.5 0.70312c3.5391 0.71875 6.0625 1.8047 7.5625 3.25 1.5 1.4492 2.25 3.5117 2.25 6.1875 0 3.5234-1.0469 6.1406-3.1406 7.8594-2.0859 1.7188-5.2734 2.5781-9.5625 2.5781-2.0234 0-4.0547-0.19531-6.0938-0.57812-2.0312-0.38281-4.0625-0.95703-6.0938-1.7188v-6.9375c2.0312 1.0859 3.9922 1.9023 5.8906 2.4531 1.9062 0.54297 3.7422 0.8125 5.5156 0.8125 1.7891 0 3.1602-0.29688 4.1094-0.89062 0.95703-0.60156 1.4375-1.457 1.4375-2.5625 0-1-0.32422-1.7695-0.96875-2.3125-0.64844-0.53906-1.9375-1.0234-3.875-1.4531l-3.1875-0.70312c-3.1875-0.6875-5.5234-1.7734-7-3.2656-1.4688-1.5-2.2031-3.5156-2.2031-6.0469 0-3.1758 1.0234-5.6172 3.0781-7.3281 2.0508-1.707 5-2.5625 8.8438-2.5625 1.75 0 3.5508 0.13281 5.4062 0.39062 1.8516 0.26172 3.7695 0.65625 5.75 1.1875z"
         id="path44704" />
    </symbol>
    <symbol
       id="m"
       overflow="visible">
      <path
         d="m1.5312-23.922h7.4375l4.0156 16.484 4.0469-16.484h6.375l4.0156 16.312 4.0469-16.312h7.4375l-6.3125 23.922h-8.3438l-4.0469-16.453-4.0156 16.453h-8.3438z"
         id="path44707" />
    </symbol>
    <symbol
       id="l"
       overflow="visible">
      <path
         d="m23.375-5.8125h-12.859l-2.0312 5.8125h-8.2656l11.812-31.891h9.7969l11.812 31.891h-8.2656zm-10.812-5.9219h8.7344l-4.3594-12.688z"
         id="path44710" />
    </symbol>
    <symbol
       id="k"
       overflow="visible">
      <path
         d="m27.734-14.562v14.562h-7.7031v-11.156c0-2.0625-0.046875-3.4844-0.14062-4.2656-0.085937-0.78125-0.24219-1.3594-0.46875-1.7344-0.30469-0.5-0.71094-0.88281-1.2188-1.1562-0.51172-0.28125-1.0938-0.42188-1.75-0.42188-1.5938 0-2.8516 0.61719-3.7656 1.8438-0.90625 1.2305-1.3594 2.9375-1.3594 5.125v11.766h-7.6562v-23.922h7.6562v3.5c1.1445-1.3945 2.3633-2.4219 3.6562-3.0781 1.3008-0.66406 2.7383-1 4.3125-1 2.7578 0 4.8516 0.85156 6.2812 2.5469 1.4375 1.6875 2.1562 4.1523 2.1562 7.3906z"
         id="path44713" />
    </symbol>
    <symbol
       id="j"
       overflow="visible">
      <path
         d="m3.4219-9.3125v-14.609h7.6875v2.3906c0 1.293-0.011719 2.918-0.03125 4.875-0.011719 1.9609-0.015625 3.2656-0.015625 3.9219 0 1.9297 0.046875 3.3125 0.14062 4.1562 0.10156 0.84375 0.28125 1.4609 0.53125 1.8438 0.3125 0.5 0.71875 0.88672 1.2188 1.1562 0.50781 0.27344 1.0938 0.40625 1.75 0.40625 1.5938 0 2.8438-0.60938 3.75-1.8281 0.91406-1.2266 1.375-2.9297 1.375-5.1094v-11.812h7.6406v23.922h-7.6406v-3.4531c-1.1562 1.3867-2.3828 2.4141-3.6719 3.0781-1.2812 0.66406-2.6992 1-4.25 1-2.7734 0-4.8828-0.84766-6.3281-2.5469-1.4375-1.6953-2.1562-4.1602-2.1562-7.3906z"
         id="path44716" />
    </symbol>
    <symbol
       id="i"
       overflow="visible">
      <path
         d="m3.6719-33.234h7.6562v18.094l8.7969-8.7812h8.8906l-11.688 10.969 12.594 12.953h-9.2656l-9.3281-9.9688v9.9688h-7.6562z"
         id="path44719" />
    </symbol>
  </defs>
  <g
     id="g44822">
    <path
       style="fill:#008000;fill-opacity:1;stroke:#000000;stroke-width:5.86908;stroke-dasharray:none;stroke-opacity:1"
       d="m 325.22298,215.21696 c -34.85941,0.10334 -68.91002,17.86976 -89.00598,46.33716 -13.4316,18.17147 -20.44623,40.52142 -21.23556,63.00494 -0.16277,3.57998 -1.47896,7.99811 -5.86826,7.93841 -23.46318,4.37236 -45.95644,16.92429 -59.33279,37.08336 -18.53513,25.58875 -20.71044,61.56496 -6.70782,89.68568 14.84014,29.27026 46.52768,49.76887 79.66102,48.868 17.60312,0.31454 35.28546,0.60953 52.84565,0.23338 4.55202,-2.09208 5.40995,-3.77507 9.8004,-0.53867 37.02619,1.29543 74.1287,0.49731 111.18399,0.73069 7.33937,-0.4748 14.95599,1.06775 22.0737,-1.01972 2.54021,-5.58277 4.28579,0.87903 8.13432,0.59294 20.80505,0.5509 41.68834,0.52228 62.46887,-0.68252 31.27617,-4.47606 58.47262,-29.97516 63.81338,-61.31064 6.02622,-29.97595 -7.65938,-62.97236 -33.91269,-78.9674 -3.83892,-3.00845 -11.47237,-4.2581 -10.51068,-10.6573 0.2707,-18.53449 -2.32199,-37.77098 -12.60942,-53.63289 -14.55641,-24.26071 -41.73524,-40.47124 -70.15631,-40.72926 -3.89904,-0.33917 -8.51431,0.31449 -10.75305,-3.70015 -14.06555,-17.24357 -32.4995,-31.23789 -53.92466,-37.85001 -11.58657,-3.7456 -23.79125,-5.54216 -35.96411,-5.386 z m -21.64605,71.46653 c 4.40612,0.77652 6.05923,6.287 9.05327,9.0631 6.21377,7.55315 11.15398,16.38443 18.31898,23.0376 5.41467,3.35831 11.4845,-1.92123 11.28445,-7.67903 1.58512,-7.41565 1.28599,-15.39284 3.79224,-22.49879 2.90362,-3.9671 9.81561,-1.22721 8.77124,3.75022 0.004,7.11476 -3.11662,14.19748 -1.59987,21.25632 3.0143,6.72713 10.64901,3.93789 16.0063,2.64775 9.59098,-1.97921 19.06454,-5.36051 28.77496,-6.31608 5.29734,0.9351 5.10531,9.77806 -0.54809,9.93143 -14.69194,4.69477 -30.11939,6.68749 -44.50765,12.47587 -5.67445,4.2178 -3.8579,12.46966 -5.57528,18.55707 -5.67546,39.36242 -10.21978,79.19853 -16.415,118.22975 -2.20821,4.49095 -10.67891,2.11947 -8.89863,-3.09511 4.06169,-39.46207 10.95517,-79.51328 14.7719,-119.36867 -0.61953,-5.47283 -5.44364,-8.3198 -8.33809,-13.16702 -10.11481,-13.83884 -21.19485,-26.90184 -30.0452,-41.52284 -0.16694,-2.78709 2.34605,-5.43067 5.15447,-5.30157 z m 151.56175,69.6862 c 3.62375,0.19591 6.3241,3.89906 4.48419,7.35334 -3.7364,17.59567 -9.77836,34.685 -13.62393,52.2074 0.26864,6.43484 7.7243,8.28266 12.8293,6.3085 11.12367,-2.0966 21.91947,-6.47052 33.22124,-7.26387 4.06922,1.88346 4.43559,8.34665 -0.18197,9.65383 -16.35995,5.12476 -33.4928,7.8806 -49.75468,13.0668 -5.783,3.62023 -4.90764,11.94094 -7.32398,17.74989 -3.68533,12.631 -6.08442,25.74468 -10.92578,37.98389 -2.05034,1.83608 -2.78652,6.55823 -5.13788,2.14883 -3.37732,-1.68949 -5.0585,-5.41563 -3.17254,-8.86796 5.33198,-21.93547 11.91786,-43.61484 17.30503,-65.48893 0.3054,-7.23839 -7.81635,-10.72389 -11.73935,-15.87642 -9.8981,-10.19781 -20.77482,-19.76203 -29.61969,-30.81561 -1.36813,-4.4658 5.0978,-8.80002 8.04668,-4.32356 10.59923,8.9516 19.41944,19.92944 30.46702,28.32619 5.40034,2.90407 10.80157,-2.24704 11.23248,-7.63086 3.56023,-10.93093 5.41316,-22.60672 10.16639,-33.04836 0.98149,-0.96097 2.34021,-1.56574 3.72747,-1.4831 z m -221.55731,12.11505 c 4.80349,0.29883 5.04421,6.66272 7.16335,9.84694 4.86711,11.35688 8.9198,23.08494 14.31134,34.20339 3.63992,5.33195 10.71666,3.05727 14.21384,-1.12371 7.43127,-6.14983 13.41316,-14.19316 21.41555,-19.53209 4.77464,-1.3738 8.40225,5.88051 3.75628,8.50738 -9.3189,10.67162 -20.23032,19.98765 -29.40868,30.6768 -3.29233,6.1564 2.67273,12.44731 4.16041,18.44706 5.22861,13.70239 11.63794,27.20071 15.61719,41.24694 -0.36331,2.86535 -3.32374,4.09924 -4.3932,6.59512 -7.15826,-6.27106 -8.82737,-16.24396 -12.84808,-24.46541 -7.6323,-18.62396 -14.66207,-37.56866 -22.54542,-56.041 -4.14471,-6.37078 -12.88697,-2.91161 -19.23418,-3.79701 -10.03214,-0.34987 -20.3515,0.71182 -30.2247,-0.64147 -4.23254,-2.58761 -1.41552,-9.87734 3.54853,-8.92896 10.25001,-0.64791 21.10747,-0.003 31.64563,-1.12977 6.17095,-1.79139 5.92637,-9.28615 3.10383,-13.87558 -1.62552,-5.48534 -5.39642,-10.88457 -5.29058,-16.62966 0.75393,-1.99495 2.84575,-3.50573 5.00889,-3.35897 z"
       id="path44808"
       transform="scale(0.75)" />
    <path
       style="fill:#008000;fill-opacity:1;stroke:#000000;stroke-width:5.86908;stroke-dasharray:none;stroke-opacity:1"
       d="m 588.26627,191.89067 c -31.172,0.20229 -59.31856,21.93077 -71.95029,49.70826 -4.92343,9.78663 -7.07237,20.73078 -9.45365,31.16946 -2.74081,3.47166 -8.70648,1.8321 -10.2134,6.89386 -2.10071,7.36659 5.89631,11.81636 8.45633,17.88685 9.88907,16.14864 12.98362,35.25673 13.84786,53.87691 1.76433,7.08294 10.17971,8.67244 14.61411,13.8187 20.00905,16.24418 31.98807,41.78764 31.16499,67.6004 0.44883,23.05632 -10.49975,45.16915 -26.34829,61.46838 -4.94096,3.76235 -4.08289,12.66552 2.56251,13.78173 10.88069,0.61274 21.9687,0.85121 32.77856,0.0606 7.5228,-1.76096 5.02962,-10.95486 5.94138,-16.65984 3.32478,-57.05508 6.84338,-114.09867 10.28317,-171.14692 -0.99589,-7.34277 -8.82115,-10.87262 -13.09179,-16.32524 -11.07685,-11.37789 -23.1789,-22.06751 -33.19685,-34.31868 -1.72446,-4.728 5.45394,-9.02572 8.33147,-4.30828 9.56121,8.11876 17.44385,18.19857 27.40567,25.78715 5.76624,2.69731 11.34023,-3.09147 10.36545,-8.884 0.8754,-17.02044 -0.43854,-34.18361 0.95338,-51.13133 1.8596,-4.45302 9.75779,-2.96357 8.84503,2.20971 0.87166,22.7204 -0.15764,45.75579 1.36685,68.55622 1.42627,6.21243 9.7037,6.85673 13.5005,2.41493 12.91047,-9.50549 24.857,-20.35596 38.24135,-29.18815 4.47509,-0.4585 6.58063,5.64248 11.39065,4.2109 7.01254,-0.81141 7.39074,-9.24395 5.52566,-14.50747 -6.03983,-31.69077 -28.73785,-61.47131 -60.54506,-70.33852 -6.74838,-1.8853 -13.77073,-2.76896 -20.77559,-2.63562 z"
       id="path44810"
       transform="scale(0.75)" />
    <path
       style="fill:#008000;fill-opacity:1;stroke:#000000;stroke-width:5.86908;stroke-dasharray:none;stroke-opacity:1"
       d="m 663.10845,279.68954 c -6.02829,1.23289 -9.46148,7.313 -14.45952,10.34725 -15.6165,12.89359 -31.97423,25.30741 -47.53967,38.4051 -4.13314,5.60477 -1.86373,13.37646 -3.06791,19.93244 -2.86946,50.89113 -6.13923,101.77998 -8.70551,152.67589 0.50709,7.44102 9.1745,7.59012 14.80172,7.38635 10.38009,-0.22685 20.91953,0.37033 31.19362,-0.68586 6.61527,-2.08335 6.86975,-10.67074 10.05843,-15.9481 8.04341,-19.38135 16.95895,-38.46075 24.30485,-58.09918 -0.23703,-8.33292 -5.8346,-15.42891 -8.90477,-22.94542 -3.82528,-8.51176 -9.23308,-16.54186 -11.67216,-25.55726 -0.26814,-4.91886 8.03914,-6.17784 9.02449,-1.07214 7.5464,12.71219 13.0065,26.61711 20.6757,39.35901 4.88546,4.92154 12.86053,1.90743 19.1265,2.83022 13.03495,0.38991 26.20034,-0.37164 39.15567,0.9406 4.59386,1.87737 2.91053,10.31533 -2.53465,8.90822 -16.95146,0.50544 -33.98689,-0.16106 -50.89347,0.41694 -7.3385,1.49632 -7.57794,10.72331 -10.86011,16.19095 -6.41851,15.57038 -13.57529,30.89142 -19.50414,46.63283 -0.99929,6.43086 5.99428,9.62775 11.41399,8.9813 28.07428,0.0978 56.18453,0.31207 84.23867,-0.80906 17.58,-2.52921 32.7549,-14.96991 41.49357,-30.08822 16.06017,-28.02441 11.3021,-67.35325 -13.67702,-88.72544 -10.06771,-10.07153 -24.46704,-13.76492 -38.33481,-13.93766 -3.31533,-0.14409 -9.0285,-0.48342 -8.29048,-5.33815 -0.30001,-13.96229 -1.9661,-28.30539 -9.10858,-40.61324 -8.62604,-16.83202 -25.24104,-29.38644 -44.03448,-32.22417 -4.00502,0.15089 -5.95417,-3.43731 -5.38952,-7.02579 0.45564,-5.03063 -2.92425,-10.50573 -8.51041,-9.93741 z"
       id="path44812"
       transform="scale(0.75)" />
    <g
       id="g44806">
      <path
         d="m 560,268.62 c -0.29297,-12.953 -4.6875,-25.477 -12.547,-35.777 -7.8633,-10.297 -18.785,-17.836 -31.203,-21.535 -1.0508,-44.363 -34.039,-80.062 -74.375,-80.062 -16.891,0.67578 -33.078,6.9336 -46.031,17.797 -12.953,10.8634 -21.938,25.715 -25.543,42.227 -6.6758,-1.4492 -13.57,-1.5977 -20.301,-0.4375 -9.6836,-4.5 -20.207,-6.918 -30.887,-7.0859 -18.168,-22.238 -45.398,-35.098 -74.113,-35 -24.387,-0.0625 -47.891,9.1367 -65.754,25.738 -17.867,16.598 -28.766,39.359 -30.496,63.688 -25.453,5.7305 -46.414,23.699 -55.973,47.977 -9.5547,24.273 -6.4688,51.707 8.2422,73.254 14.711,21.547 39.141,34.41 65.23,34.344 h 389.38 c 31.324,0 56.875,-28.086 56.875,-62.648 0.61328,-15.086 -4.4336,-29.855 -14.145,-41.41 -9.7109,-11.559 -23.391,-19.07 -38.355,-21.066 z M 315,376.24 H 166.25 c -20.895,-0.10156 -40.297,-10.848 -51.465,-28.508 -11.172,-17.656 -12.57,-39.793 -3.707,-58.715 8.8594,-18.922 26.754,-32.023 47.473,-34.754 4.4609,-0.83984 7.6953,-4.7344 7.6992,-9.2734 0,-20.887 8.2969,-40.918 23.066,-55.684 14.766,-14.77 34.797,-23.066 55.684,-23.066 24.891,-0.0781 48.324,11.723 63.086,31.762 1.7969,2.4141 4.7031,3.7344 7.7031,3.5 h 2.4492 c 15.332,0.0234 30.035,6.1055 40.902,16.926 10.867,10.816 17.016,25.492 17.109,40.824 v 9.1875 c -0.0234,3.3984 1.9219,6.5039 4.9883,7.9648 14.391,6.9023 24.863,19.977 28.453,35.527 3.5898,15.555 -0.0898,31.895 -10.004,44.406 -9.9102,12.516 -24.977,19.836 -40.938,19.902 z m 113.75,-52.5 c -0.0273,-24.984 -13.363,-48.059 -35,-60.551 v -3.9375 c 0.008,-17.625 -6.1875,-34.695 -17.5,-48.211 2.2383,0.34766 4.5234,-0.24609 6.3125,-1.6367 1.7891,-1.3906 2.9219,-3.457 3.1367,-5.7148 4.1992,-31.324 28.352,-54.949 56.176,-54.949 30.102,0 54.773,26.863 56.699,60.637 -0.0898,-1.7422 -0.69922,-3.418 -1.75,-4.8125 -3.0039,-3.7539 -8.4766,-4.3789 -12.25,-1.3984 l -29.574,23.625 v -51.801 c 0,-4.832 -3.918,-8.75 -8.75,-8.75 -4.832,0 -8.75,3.918 -8.75,8.75 v 40.164 l -20.039,-20.125 c -3.4297,-3.4336 -8.9922,-3.4336 -12.422,0 -3.4336,3.4297 -3.4336,8.9922 0,12.422 l 32.461,32.203 -8.2266,136.59 h -24.41 c 15.137,-13.254 23.84,-32.379 23.887,-52.5 z m 126.88,52.5 h -61.25 l 18.727,-43.75 h 38.148 c 4.832,0 8.75,-3.918 8.75,-8.75 0,-4.832 -3.918,-8.75 -8.75,-8.75 h -38.324 l -15.137,-30.188 c -2.3633,-3.9258 -7.3555,-5.3672 -11.445,-3.2969 -4.0898,2.0664 -5.8945,6.9414 -4.1328,11.172 l 15.664,31.062 -22.398,52.5 h -28.703 l 7.4375,-126.44 41.211,-32.988 h 0.004 c 1.7734,-1.4062 2.9336,-3.4453 3.2383,-5.6875 v 2.3633 5.25 c -0.0234,4.5117 3.3867,8.3008 7.875,8.75 20.125,1.9258 35.875,21.699 35.875,44.887 v 4.9023 c 0,2.3203 0.92188,4.543 2.5625,6.1875 1.6406,1.6406 3.8672,2.5625 6.1875,2.5625 h 4.375 c 21.961,-0.0898 39.461,20.211 39.461,45.062 0,24.848 -17.5,45.148 -39.375,45.148 z"
         id="path44724" />
      <path
         d="m 218.14,364.26 -15.398,-38.414 22.227,-22.137 h -0.004 c 3.4336,-3.4297 3.4336,-8.9922 0,-12.422 -3.4297,-3.4336 -8.9922,-3.4336 -12.422,0 L 195.742,308.174 183.14,276.76 c -1.7891,-4.4922 -6.8789,-6.6875 -11.375,-4.8984 -4.4922,1.7891 -6.6875,6.8789 -4.8984,11.375 l 5.6875,14.262 h -23.801 c -4.832,0 -8.75,3.918 -8.75,8.75 0,4.832 3.918,8.75 8.75,8.75 h 30.801 l 4.8125,12.074 17.5,43.75 c 1.3555,3.2969 4.5742,5.4453 8.1367,5.4258 1.1094,0.004 2.207,-0.20703 3.2383,-0.61328 2.1602,-0.85547 3.8906,-2.5352 4.8086,-4.6719 0.91797,-2.1328 0.95312,-4.543 0.0899,-6.7031 z"
         id="path44726" />
      <path
         d="m 295.4,227.5 -26.25,6.5625 2.1016,-14.176 c 0.62891,-4.832 -2.7812,-9.2578 -7.6133,-9.8867 -4.8321,-0.6289 -9.2578,2.7812 -9.8867,7.6133 l -2.3633,18.637 -16.887,-22.75 c -2.8984,-3.8672 -8.3828,-4.6484 -12.25,-1.75 -3.8672,2.8984 -4.6484,8.3828 -1.75,12.25 l 26.25,35 c 0.40234,0.45312 0.875,0.83594 1.3984,1.1367 l -11.898,88.727 c -0.32031,2.3242 0.30078,4.6797 1.7344,6.5391 1.4297,1.8594 3.5508,3.0664 5.8789,3.3477 h 1.1367 c 4.4219,0.0391 8.1758,-3.2305 8.75,-7.6133 l 13.125,-98.176 32.727,-7.9609 c 4.832,-1.1602 7.8086,-6.0156 6.6484,-10.852 -1.1602,-4.832 -6.0156,-7.8086 -10.852,-6.6484 z"
         id="path44728" />
      <path
         d="m 323.75,369.77 9.8867,-37.273 h 0.96094 l 35,-8.75 h 0.004 c 4.832,-1.1602 7.8086,-6.0156 6.6484,-10.852 -1.1602,-4.832 -6.0156,-7.8086 -10.852,-6.6484 l -26.25,6.6484 10.852,-39.375 c 1.2578,-4.832 -1.6406,-9.7656 -6.4766,-11.023 -4.832,-1.2578 -9.7656,1.6406 -11.023,6.4766 l -7.3516,26.688 -21.789,-21.875 h 0.004 c -3.4336,-3.4336 -8.9961,-3.4336 -12.426,0 -3.4297,3.4297 -3.4297,8.9922 0,12.422 l 26.25,26.25 c 0.83203,0.79687 1.8125,1.4219 2.8867,1.8398 l -13.824,50.926 c -1.2305,4.6328 1.5039,9.3945 6.125,10.672 0.84375,0.28906 1.7344,0.40625 2.625,0.35156 4.0664,0.14062 7.6953,-2.543 8.75,-6.4766 z"
         id="path44730" />
    </g>
  </g>
</svg>
