<?xml version="1.0" encoding="UTF-8" standalone="no"?>
<svg
   width="700pt"
   height="700pt"
   version="1.1"
   viewBox="0 0 700 700"
   id="svg55620"
   sodipodi:docname="clean-noun-coast-3819238.svg"
   inkscape:version="1.2.1 (2ed6d7ae0b, 2022-08-22, custom)"
   xmlns:inkscape="http://www.inkscape.org/namespaces/inkscape"
   xmlns:sodipodi="http://sodipodi.sourceforge.net/DTD/sodipodi-0.dtd"
   xmlns:xlink="http://www.w3.org/1999/xlink"
   xmlns="http://www.w3.org/2000/svg"
   xmlns:svg="http://www.w3.org/2000/svg">
  <sodipodi:namedview
     id="namedview55622"
     pagecolor="#ffffff"
     bordercolor="#666666"
     borderopacity="1.0"
     inkscape:showpageshadow="2"
     inkscape:pageopacity="0.0"
     inkscape:pagecheckerboard="0"
     inkscape:deskcolor="#d1d1d1"
     inkscape:document-units="pt"
     showgrid="false"
     inkscape:zoom="0.91071429"
     inkscape:cx="449.09804"
     inkscape:cy="469.96078"
     inkscape:window-width="1864"
     inkscape:window-height="1053"
     inkscape:window-x="56"
     inkscape:window-y="27"
     inkscape:window-maximized="1"
     inkscape:current-layer="svg55620" />
  <defs
     id="defs55530">
    <linearGradient
       inkscape:collect="always"
       id="linearGradient56478">
      <stop
         style="stop-color:#ffa700;stop-opacity:1;"
         offset="0"
         id="stop56474" />
      <stop
         style="stop-color:#0cf3f3;stop-opacity:1;"
         offset="1"
         id="stop56476" />
    </linearGradient>
    <linearGradient
       inkscape:collect="always"
       id="linearGradient56418">
      <stop
         style="stop-color:#0b82f4;stop-opacity:1;"
         offset="0"
         id="stop56414" />
      <stop
         style="stop-color:#000d82;stop-opacity:1;"
         offset="1"
         id="stop56416" />
    </linearGradient>
    <symbol
       id="w"
       overflow="visible">
      <path
         d="m0.03125 0h-0.015625-0.015625v-0.015625-0.015625h0.015625 0.015625-0.015625v0.015625 0.015625h0.015625v-0.015625z"
         id="path55461" />
    </symbol>
    <symbol
       id="e"
       overflow="visible">
      <path
         d="m0.015625-0.015625v0.015625h-0.015625v-0.03125h0.015625v0.015625-0.015625z"
         id="path55464" />
    </symbol>
    <symbol
       id="b"
       overflow="visible">
      <path
         d="m0.03125-0.015625h-0.015625v0.015625c0.0078125 0 0.015625-0.0039062 0.015625-0.015625v0.015625h-0.015625-0.015625v-0.015625l0.015625-0.015625v0.015625h0.015625z"
         id="path55467" />
    </symbol>
    <symbol
       id="a"
       overflow="visible">
      <path
         d="m0.015625-0.015625v0.015625-0.015625zm0.015625 0v0.015625h-0.015625-0.015625v-0.015625h0.015625-0.015625v-0.015625h0.015625v0.015625h0.015625z"
         id="path55470" />
    </symbol>
    <symbol
       id="d"
       overflow="visible">
      <path
         d="m0.015625-0.03125v0.015625 0.015625h-0.015625v-0.015625-0.015625z"
         id="path55473" />
    </symbol>
    <symbol
       id="l"
       overflow="visible">
      <path
         d="m0.015625-0.015625v-0.015625h0.015625v0.03125h-0.015625-0.015625v-0.015625l0.015625-0.015625v0.015625zm0 0.015625v-0.015625 0.015625z"
         id="path55476" />
    </symbol>
    <symbol
       id="k"
       overflow="visible">
      <path
         d="m0.015625 0v-0.015625 0.015625zm0-0.015625v-0.015625c0.0078125 0 0.015625 0.0078125 0.015625 0.015625v0.015625h-0.015625-0.015625v-0.03125h0.015625z"
         id="path55479" />
    </symbol>
    <symbol
       id="j"
       overflow="visible">
      <path
         d="m0-0.03125h0.015625v0.015625-0.015625h0.015625l-0.015625 0.03125v0.015625h-0.015625v-0.015625h0.015625z"
         id="path55482" />
    </symbol>
    <symbol
       id="i"
       overflow="visible">
      <path
         d="m0.015625-0.03125v0.015625 0.015625h0.015625v-0.015625c0-0.0078125-0.0078125-0.015625-0.015625-0.015625zm0 0h0.015625v0.015625 0.015625h-0.015625-0.015625v-0.015625-0.015625h0.015625z"
         id="path55485" />
    </symbol>
    <symbol
       id="v"
       overflow="visible">
      <path
         d="m0-0.03125h0.015625v0.03125h-0.015625z"
         id="path55488" />
    </symbol>
    <symbol
       id="f"
       overflow="visible">
      <path
         d="m0.03125-0.015625v0.015625h-0.015625v-0.015625 0.015625h-0.015625v-0.03125h0.015625v0.015625-0.015625c0.0078125 0 0.015625 0.0078125 0.015625 0.015625z"
         id="path55491" />
    </symbol>
    <symbol
       id="h"
       overflow="visible">
      <path
         d="m0-0.03125h0.015625 0.015625v0.015625h-0.015625v0.015625h-0.015625zm0.015625 0v0.015625-0.015625z"
         id="path55494" />
    </symbol>
    <symbol
       id="g"
       overflow="visible">
      <path
         d="m0.03125-0.03125v0.015625h-0.015625c0.0078125 0 0.015625 0.0078125 0.015625 0.015625h-0.015625-0.015625 0.015625v-0.015625h-0.015625l0.015625-0.015625h0.015625z"
         id="path55497" />
    </symbol>
    <symbol
       id="c"
       overflow="visible">
      <path
         d="m0.015625-0.015625v0.015625-0.015625zm0-0.015625v0.015625h0.015625c0 0.011719-0.0078125 0.015625-0.015625 0.015625h-0.015625v-0.015625l0.015625-0.015625z"
         id="path55500" />
    </symbol>
    <symbol
       id="u"
       overflow="visible">
      <path
         d="m0-0.03125h0.015625v0.015625-0.015625h0.015625l-0.015625 0.03125z"
         id="path55503" />
    </symbol>
    <symbol
       id="t"
       overflow="visible">
      <path
         d="m0-0.03125h0.015625v0.015625-0.015625h0.015625l-0.015625 0.015625 0.015625 0.015625h-0.015625v-0.015625 0.015625h-0.015625z"
         id="path55506" />
    </symbol>
    <symbol
       id="s"
       overflow="visible">
      <path
         d="m0.015625-0.03125v0.03125h-0.015625v-0.03125h0.015625z"
         id="path55509" />
    </symbol>
    <symbol
       id="r"
       overflow="visible">
      <path
         d="m0.03125-0.015625v-0.015625c0.0078125 0 0.015625 0.0078125 0.015625 0.015625v0.015625h-0.015625v-0.015625 0.015625h-0.015625v-0.015625 0.015625h-0.015625v-0.03125h0.015625v0.015625-0.015625 0.015625h0.015625z"
         id="path55512" />
    </symbol>
    <symbol
       id="q"
       overflow="visible">
      <path
         d="m0.03125-0.015625v0.015625h-0.015625v-0.015625 0.015625h-0.015625v-0.03125h0.015625v0.015625-0.015625c0.0078125 0 0.015625 0.0078125 0.015625 0.015625z"
         id="path55515" />
    </symbol>
    <symbol
       id="p"
       overflow="visible">
      <path
         d="m0-0.03125h0.015625l0.015625 0.015625v-0.015625 0.03125l-0.015625-0.015625v0.015625h-0.015625z"
         id="path55518" />
    </symbol>
    <symbol
       id="o"
       overflow="visible">
      <path
         d="m0-0.015625v-0.015625h0.015625v0.015625 0.015625-0.015625-0.015625h0.015625v0.03125h-0.015625-0.015625v-0.015625z"
         id="path55521" />
    </symbol>
    <symbol
       id="n"
       overflow="visible">
      <path
         d="m0-0.03125h0.015625v0.03125h-0.015625v0.015625zm0 0h0.015625z"
         id="path55524" />
    </symbol>
    <symbol
       id="m"
       overflow="visible">
      <path
         d="m0.03125-0.03125v0.015625h-0.015625v0.015625h0.015625-0.015625-0.015625v-0.015625l0.015625-0.015625h0.015625z"
         id="path55527" />
    </symbol>
    <linearGradient
       inkscape:collect="always"
       xlink:href="#linearGradient56418"
       id="linearGradient56420"
       x1="295.59973"
       y1="549.9884"
       x2="293.82715"
       y2="301.40805"
       gradientUnits="userSpaceOnUse" />
    <linearGradient
       inkscape:collect="always"
       xlink:href="#linearGradient56478"
       id="linearGradient56480"
       x1="381.935"
       y1="294.71979"
       x2="382.78857"
       y2="-4.0282702"
       gradientUnits="userSpaceOnUse" />
  </defs>
  <g
     id="g56673">
    <rect
       style="display:inline;fill:url(#linearGradient56480);fill-opacity:1;stroke:none;stroke-width:5.6693;stroke-dasharray:none;stroke-opacity:1"
       id="rect56192"
       width="721.61304"
       height="325.25488"
       x="-6.1188679"
       y="-30.037624" />
    <rect
       style="display:inline;fill:url(#linearGradient56420);fill-opacity:1;stroke:none;stroke-width:5.6693;stroke-dasharray:none;stroke-opacity:1"
       id="rect56194"
       width="722.7655"
       height="254.61285"
       x="-8.4427347"
       y="294.71677" />
    <path
       style="fill:none;stroke:#000000;stroke-width:0.75px;stroke-linecap:butt;stroke-linejoin:miter;stroke-opacity:1"
       d="m 141.76704,548.64762 c -3.16431,-0.64287 -5.57487,-1.26003 -8.75636,-1.47214 -1.14246,-0.0762 -2.2929,0.0816 -3.43498,0 -1.15368,-0.0824 -2.28177,-0.40202 -3.43499,-0.49073 -0.97853,-0.0753 -1.96688,0.0888 -2.94427,0 -0.83063,-0.0755 -1.62239,-0.42142 -2.45355,-0.49068 -1.14104,-0.0951 -2.29337,0.0878 -3.43499,0 -0.99203,-0.0763 -1.95612,-0.37447 -2.94428,-0.49073 -1.79431,-0.2111 -3.61571,-0.19371 -5.39782,-0.49073 -1.17461,-0.19577 -2.2673,-0.74787 -3.43499,-0.98141 -4.68104,-0.93621 -2.96432,-0.0394 -7.360693,-0.9814 -1.823595,-0.39077 -3.588525,-1.0198 -5.397825,-1.47215 -0.654285,-0.16358 -1.29363,-0.40707 -1.962847,-0.49073 -0.649223,-0.0811 -1.308563,0 -1.96284,0 -1.799288,0 -3.598568,0 -5.397855,0 -3.107835,0 -6.215678,0 -9.323513,0 -1.308571,0 -2.620468,-0.0932 -3.925713,0 -0.992428,0.0709 -1.953384,0.40065 -2.944254,0.49073 -1.971858,0.17927 -4.840707,0 -6.869966,0 -0.981426,0 -1.976206,-0.16135 -2.944279,0 -0.51022,0.085 -0.974781,0.34863 -1.472139,0.49073 -0.648467,0.18528 -1.304487,0.34438 -1.962843,0.49068 -0.814196,0.18093 -1.672623,0.19788 -2.453574,0.49074 -0.55221,0.20707 -0.930064,0.74908 -1.472139,0.9814 -0.644671,0.27629 -3.932337,0.87385 -4.416393,0.98141 -6.237372,1.38607 2.984117,-0.49863 -4.416418,0.98146 -2.300321,0.46006 -4.569645,1.01208 -6.869966,1.47214 -0.817848,0.16357 -1.624605,0.39858 -2.453549,0.49068 -1.463137,0.16256 -2.951585,-0.14649 -4.416418,0 -0.829916,0.083 -1.623657,0.40773 -2.453574,0.49073 -1.790345,0.17904 -3.604767,-0.14943 -5.397827,0 -0.991519,0.0826 -1.952734,0.4081 -2.944253,0.49073 -3.086642,0.25723 -6.235192,-0.23755 -9.3235402,0 -0.9920316,0.0763 -1.9608859,0.33939 -2.9442784,0.49067 -1.1431708,0.17588 -2.2941017,0.30058 -3.4349832,0.49074 -2.9591214,0.49321 -1.77033685,0.3934 -4.4163927,0.98141 -5.6040565,1.24532 0.3683146,-0.21476 -4.416418,0.98141 -0.6542828,0.16356 -1.3465523,0.21682 -1.9628438,0.49073 -0.8715717,0.38737 -1.6489097,0.96007 -2.4535737,1.47213 -5.583809,3.55335 -0.453264,0.32965 -5.397827,3.92569 -1.907851,1.38753 -4.076281,2.41547 -5.888557,3.92569 -1.066247,0.88854 -1.924392,2.00287 -2.944254,2.94428 -1.108116,1.02288 -2.289988,1.96285 -3.434983,2.94428 -1.799284,1.63572 -3.620169,3.24798 -5.397852,4.90715 -0.676437,0.63133 -1.260314,1.36064 -1.962844,1.96282 -0.447786,0.38381 -1.103713,0.52092 -1.472139,0.98145 -0.323118,0.4039 -0.224589,1.02856 -0.490705,1.4721 -1.582771,2.63797 -0.48978,-0.98352 -1.962844,2.45359 -0.265665,0.61988 -0.305427,1.31436 -0.490705,1.96282 -1.05e-4,3.7e-4 -0.981358,2.9439 -0.981434,2.94428 -0.06415,0.32079 0.07934,0.66404 0,0.98141 -0.08871,0.35484 -0.375041,0.63447 -0.490705,0.98146 -0.05172,0.15516 0.07315,0.34439 0,0.49068 -0.103459,0.2069 -0.417574,0.27127 -0.490729,0.49073 -0.103453,0.31035 0.103447,0.67106 0,0.98141 -0.07315,0.21946 -0.434602,0.26631 -0.490705,0.49072 -0.119013,0.47607 0.134806,1.00032 0,1.47215 -0.200959,0.70336 -0.780449,1.2595 -0.98141,1.96286 -0.134804,0.47182 0.0694,0.98633 0,1.47209 -0.09538,0.66766 -0.379851,1.29763 -0.49073,1.96288 -0.137847,0.82705 -0.04412,5.44732 0,5.88855 0.06711,0.67107 0.344429,1.30447 0.49073,1.96282 0.180935,0.8142 0.327135,1.63573 0.490705,2.4536 0.584546,2.92278 1.019876,6.0039 1.962844,8.83278 0.231328,0.69398 0.709757,1.28367 0.981434,1.96287 0.384206,0.96053 0.553327,2.0025 0.98141,2.94429 0.394671,0.86827 1.015423,1.61623 1.472139,2.45354 0.52543,0.96329 0.907597,2.00338 1.472139,2.94428 0.841568,1.4026 2.036952,2.5647 2.944279,3.92569 2.846628,4.74435 0.08208,0.32754 2.944278,4.41642 1.851772,2.6454 2.340836,3.73761 4.416393,6.37923 0.931708,1.18581 2.024804,2.23968 2.944278,3.43501 0.719168,0.93492 1.207727,2.03814 1.962845,2.94428 3.592464,4.31092 2.104271,1.50542 5.397826,5.39782 1.056569,1.24868 1.828205,2.7299 2.944279,3.92569 1.186399,1.27114 2.589928,2.32183 3.925688,3.43496 9.47158562,7.89301 0.3264347,0.1319 9.8142449,7.3607 21.7040001,16.53635 -10.0082049,-6.71133 10.7956791,7.85137 1.527863,1.0695 2.877203,2.38187 4.416393,3.43501 1.574309,1.07717 3.282543,1.94454 4.907122,2.94428 2.628428,1.61749 5.239721,3.2627 7.851401,4.90709 9.011816,5.67411 2.438451,1.85948 14.721368,8.34211 2.782582,1.46858 5.497026,3.07291 8.342105,4.41642 3.049208,1.4399 6.205417,2.64176 9.323515,3.92569 8.705918,3.58479 6.658066,2.71006 16.193503,5.88856 2.944275,0.98142 5.86017,2.05248 8.832818,2.94427 16.004335,4.80131 5.461177,1.20188 21.100625,5.39783 3.29879,0.88504 6.49166,2.15319 9.81425,2.94428 3.55808,0.84717 7.21929,1.1965 10.79565,1.96287 3.29724,0.70655 6.5285,1.69531 9.81424,2.45355 9.44051,2.17855 19.00893,3.76177 28.46128,5.88856 26.79077,6.02793 -5.26858,-1.02075 19.62849,4.90709 3.7453,0.89173 7.53212,1.60031 11.28638,2.45355 9.56542,2.17394 11.74458,2.9806 21.59136,4.90714 7.49507,1.46643 15.04742,2.62323 22.57272,3.92569 20.52185,3.55187 7.71472,1.433 27.47991,4.41643 4.25467,0.64222 8.48771,1.43835 12.75848,1.96282 5.05639,0.62093 10.14568,0.93885 15.21207,1.4721 4.25754,0.4482 8.49166,1.12388 12.75852,1.47218 3.7532,0.30637 7.52984,0.2286 11.28639,0.49072 3.27976,0.22883 6.54283,0.6543 9.81424,0.98138 4.08927,0.16357 8.18323,0.2355 12.2678,0.49072 20.84015,1.30253 1.49807,1.0473 26.98918,1.47218 8.66804,0.14445 17.33992,-0.15758 26.00773,0 4.90903,0.0892 9.81229,0.40305 14.72135,0.49065 4.25216,0.076 8.5087,-0.16035 12.75851,0 4.42537,0.16702 8.82838,0.72142 13.24926,0.98152 3.92231,0.2307 7.85124,0.33038 11.77706,0.49065 15.06646,0.61493 8.40817,0.49073 21.59136,0.49073 2.61713,0 5.23532,0.075 7.85138,0 3.21773,-0.0919 11.33129,-0.5502 15.21207,-0.98138 4.92027,-0.54675 9.80903,-1.34887 14.72134,-1.9629 5.55652,-0.69457 11.11632,-1.36635 16.68422,-1.9629 3.91689,-0.41962 7.86021,-0.56175 11.7771,-0.98137 7.38473,-0.79125 14.69208,-2.1798 22.08204,-2.94428 2.72184,-0.28155 11.96235,-0.86205 14.23067,-0.98145 11.15809,-0.58725 8.23335,-0.49072 17.17489,-0.49072 2.78072,0 5.56143,0 8.34216,0 5.21732,0 9.17949,0.23092 14.23061,-0.49065 1.4929,-0.2133 2.95339,-0.61571 4.41642,-0.98147 1.15525,-0.28881 2.33575,-0.52341 3.43495,-0.98141 0.88042,-0.36683 1.60051,-1.04559 2.4536,-1.47214 0.46265,-0.23132 1.05123,-0.19008 1.47214,-0.49073 0.75294,-0.53781 1.30855,-1.30854 1.96282,-1.96282 0.54568,-0.54568 4.90638,-4.90653 4.9071,-4.90714 0.93682,-0.80298 9.08909,-6.71014 9.32351,-6.86997 7.1226,-4.85633 4.01293,-2.42497 12.2679,-6.86996 6.39108,-3.44136 5.59136,-3.40185 11.77701,-7.36065 3.25022,-2.08014 7.58687,-4.5056 10.79565,-6.86997 5.63674,-4.15339 3.85218,-3.25896 8.83283,-7.36069 1.43965,-1.1856 2.97677,-2.24942 4.41642,-3.43501 11.08179,-9.12612 -3.03903,1.94881 7.85138,-6.37924 1.48147,-1.1329 2.85061,-2.42185 4.41642,-3.435 1.22832,-0.79479 2.68509,-1.18743 3.92574,-1.96283 1.38706,-0.86691 2.56466,-2.03695 3.92563,-2.94427 1.09729,-0.73153 2.34834,-1.21575 3.43506,-1.96287 1.53684,-1.05657 2.94429,-2.28997 4.41642,-3.43496 7.5e-4,-6.1e-4 8.83192,-6.8693 8.83274,-6.86997 1.34222,-1.10536 2.57623,-2.33854 3.92573,-3.43501 1.26951,-1.03146 2.72994,-1.8282 3.92574,-2.94427 1.27114,-1.1864 2.24327,-2.65952 3.43496,-3.92569 11.61963,-12.34588 -2.46381,3.32379 8.34206,-8.83279 2.61715,-2.94429 5.31401,-5.8196 7.85146,-8.83284 1.34925,-1.60226 2.74778,-3.17492 3.92565,-4.90709 1.60898,-2.36611 3.04628,-4.84876 4.41645,-7.36069 5.77343,-10.58472 10.5108,-21.74387 13.73993,-33.36843 0,-0.003 4.90628,-19.62519 4.9071,-19.62849 0.6951,-2.93491 1.23135,-5.90679 1.9629,-8.83284 0.74115,-2.96449 1.77262,-5.85387 2.45347,-8.83278 0.62918,-2.75268 0.98146,-5.5614 1.47218,-8.3421 0.49072,-2.7807 1.14217,-5.53779 1.4721,-8.34211 0.546,-4.64079 0.615,-12.57561 0.49072,-17.17494 -0.0841,-3.11101 0.008,-6.25151 -0.49072,-9.32351 -0.48907,-3.01636 -1.73355,-5.8631 -2.45348,-8.83284 -2.5194,-10.39256 -0.13687,-5.00108 -4.41645,-16.19348 -2.48054,-6.48747 -3.93277,-8.62102 -6.87,-14.72139 -1.9842,-4.12105 -4.11945,-9.29453 -6.3792,-13.2492 -1.35067,-2.36368 -3.02655,-4.52914 -4.41645,-6.86997 -6.53047,-10.99872 -3.49432,-7.0986 -10.305,-18.64706 -1.86723,-3.1662 -3.96204,-6.19301 -5.88852,-9.32354 -1.99949,-3.24915 -3.83456,-6.59927 -5.88856,-9.81425 -1.7099,-2.67636 -3.71453,-5.15817 -5.39778,-7.85137 -5.18847,-8.30159 -3.99635,-7.81733 -8.83283,-16.68421 -1.37016,-2.51194 -3.04061,-4.85185 -4.41642,-7.36069 -1.40693,-2.56559 -2.55288,-5.26736 -3.92564,-7.85139 -1.40875,-2.65179 -2.94428,-5.23426 -4.41642,-7.85139 -1.47214,-2.61714 -2.8165,-5.31037 -4.41642,-7.8514 -1.18541,-1.88271 -2.65522,-3.57147 -3.92573,-5.39783 -1.34717,-1.93656 -2.63697,-3.9126 -3.92564,-5.88856 -1.16503,-1.78638 -2.15543,-3.69166 -3.43506,-5.39783 -1.18179,-1.5757 -2.65692,-2.90979 -3.92564,-4.41639 -3.88021,-4.60776 -7.50451,-9.46737 -11.77711,-13.73996 -2.65861,-2.6586 -6.41283,-5.52281 -9.32352,-7.85137 -1.15599,-0.92481 -7.88993,-6.34877 -9.32351,-7.3607 -1.2607,-0.88989 -2.67004,-1.55662 -3.92574,-2.45355 -1.03957,-0.74254 -1.89391,-1.72639 -2.94428,-2.45357 -1.08425,-0.75065 -2.28557,-1.31632 -3.43496,-1.96284 -2.12333,-1.19438 -7.13627,-4.03222 -9.32351,-4.90712 -1.58558,-0.63424 -3.29673,-0.90379 -4.9071,-1.47215 -1.17472,-0.4146 -2.27235,-1.02493 -3.43506,-1.47211 -0.96556,-0.37137 -2.00249,-0.55335 -2.94427,-0.98144 -0.86827,-0.39466 -1.58195,-1.08478 -2.4535,-1.47214 -0.61631,-0.27391 -1.31443,-0.30542 -1.96292,-0.4907 -1.41524,-0.40434 -1.29507,-0.40221 -2.4535,-0.98143 -0.32715,-0.16358 -0.62662,-0.402 -0.98146,-0.49071 -0.63474,-0.15868 -1.32808,0.15868 -1.96282,0 -0.35484,-0.0887 -0.63447,-0.37504 -0.98146,-0.49071 -0.51554,-0.17184 -1.41485,0 -1.96282,0 -1.30858,0 -2.61716,0 -3.92574,0 -0.49071,0 -0.9881,0.0807 -1.47214,0 -0.51021,-0.085 -0.96192,-0.40569 -1.47213,-0.49072 -0.96807,-0.16136 -1.97621,0.16134 -2.94429,0 -0.51021,-0.085 -0.96492,-0.38927 -1.47213,-0.49071 -0.29891,-0.0598 -3.35388,0.0811 -3.43496,0 -0.11567,-0.11565 0.11342,-0.37284 0,-0.4907 -0.21829,-0.22686 -0.62965,0 -0.94447,0 -0.67154,0 -3.46416,0.15386 -3.92574,0 -0.21945,-0.0731 -0.28378,-0.38727 -0.49068,-0.49073 -0.24351,-0.12178 -4.29094,0 -5.13429,0 -0.43446,0 -0.8381,-0.20826 -0.8381,0.29578"
       id="path56248" />
    <path
       style="fill:#ffeeaa;fill-opacity:1;stroke:none;stroke-width:8.30014;stroke-dasharray:none;stroke-opacity:1"
       d="m 793.65932,389.6152 c -5.78019,6.82892 -1.15953,16.93783 -5.44946,24.72304 -7.20716,17.28355 -27.70288,22.21499 -44.63357,23.20251 -24.25027,3.14255 -50.51663,0.97802 -73.46784,11.38358 -9.85653,4.03489 -12.44435,15.80192 -9.21752,25.0769 3.7979,15.20813 13.92892,28.39156 16.15105,43.98376 1.19335,7.34042 -2.76523,14.32245 -9.92526,16.72579 -17.95295,7.84322 -38.37651,6.66908 -57.43165,4.84205 -7.57524,-2.2592 -11.51905,5.56821 -11.16916,12.0589 -0.35604,5.23667 -2.75457,11.12859 -0.0717,16.0295 -15.68344,-1.12309 -31.24805,-3.68938 -46.98192,-4.13694 2.81335,-6.2132 5.56372,-13.7431 4.25382,-20.66078 -2.92325,-7.89179 -11.70781,-3.31259 -17.60419,-3.20816 -20.96792,1.97443 -42.83867,0.21265 -64.18483,1.20447 -9.9241,3.07651 -20.97847,10.1564 -20.76933,21.87954 -1.68513,17.2277 13.92433,28.41005 25.60232,38.11827 5.31967,3.92484 11.55387,12.65679 5.77328,18.61305 -12.74501,10.01447 -32.42238,9.44575 -42.09007,23.57781 -5.32667,9.80134 4.58538,18.75895 12.85907,22.35754 15.3465,8.78686 35.59334,9.68436 47.3508,24.06893 6.86523,7.73047 0.76748,18.27794 -7.18015,22.06588 -23.16076,11.61384 -49.85614,11.83174 -75.11275,14.51041 -59.48059,3.30969 -119.33385,1.62742 -178.97823,2.06745 -18.0849,-0.47981 -36.56659,0.87286 -54.42373,-1.21175 -10.2755,-5.67773 -22.76809,-3.07367 -33.95694,-5.32847 -15.91368,-1.60167 -30.98199,-6.87978 -47.16927,-5.81251 -13.301574,0.53724 -27.20364,-0.63717 -40.009819,3.49545 -14.014966,5.22939 -29.799141,5.3745 -44.333162,6.7903 -17.4975414,0.99194 -36.720113,1.94124 -50.413465,14.43489 -10.290698,8.73365 -21.813669,16.65874 -29.923713,27.54749 -6.446115,14.2083 -10.428883,30.40984 -5.581923,45.7733 4.579441,18.96941 16.875001,34.92027 28.789495,49.92527 26.2511359,30.14034 60.736362,51.79777 95.852886,70.15345 56.056451,27.12902 118.695531,35.20765 178.464961,49.78157 73.98009,18.52151 149.82306,29.18561 225.99969,32.49001 44.21206,1.9969 88.4971,1.7763 132.70314,3.8781 31.3057,0.2098 62.74836,0.044 93.74187,-4.8561 28.20736,-2.7285 56.11529,-7.6946 84.27035,-7.3632 18.21526,-1.1404 37.51954,1.1482 54.77454,-5.9451 9.50584,-5.65017 16.34601,-14.87592 26.03125,-20.43167 16.66928,-10.07827 34.08798,-19.05824 49.4113,-31.25399 14.79792,-11.66432 29.13372,-23.93353 45.33265,-33.67746 23.31461,-17.09957 44.99183,-37.05432 61.93466,-60.57529 13.4695,-21.68338 22.6122,-45.74968 28.0526,-70.64523 6.3233,-26.04318 14.5907,-52.19262 13.0103,-79.33792 -0.2193,-30.13345 -13.5234,-58.20426 -27.258,-84.36244 -14.1664,-24.82626 -27.95649,-49.91696 -44.01169,-73.60938 -22.59604,-41.42884 -43.37248,-85.73456 -79.73867,-117.21353 -17.35793,-15.10242 -36.75519,-28.11905 -58.7522,-35.38176 -15.31325,-5.87585 -32.29317,-8.05299 -48.47363,-6.39076 l -1.0475,0.32928 z m -89.35509,174.68903 c 8.29424,0.25575 17.2172,6.38953 18.8747,14.66912 -0.77166,8.54692 -11.94724,9.65125 -18.62527,9.83218 -7.41538,0.40303 -17.94104,-0.93428 -20.46665,-9.07728 1.07821,-9.12282 11.63288,-15.38776 20.21722,-15.42402 z M 644,611.64645 c 9.76139,-0.46158 20.38597,3.86195 25.36857,12.41298 0.81357,5.342 -6.40854,7.00598 -10.37133,8.26103 -13.28114,1.96757 -28.59133,3.81343 -39.92187,-4.91329 -2.41757,-5.8917 5.3665,-9.35937 9.10386,-12.31005 4.8003,-2.68204 10.39417,-3.45717 15.82077,-3.45067 z"
       id="path56321"
       transform="scale(0.75)" />
    <path
       style="fill:#ffff00;fill-opacity:1;stroke:none;stroke-width:8.30014;stroke-dasharray:none;stroke-opacity:1"
       d="m 335.79841,310.60784 c -46.30786,-0.10429 -90.21116,33.53875 -102.30209,78.15809 0.39832,9.5567 11.17755,7.74307 17.80444,7.81248 60.52078,0.37138 121.04322,0.17378 181.56475,0.22551 9.42515,-1.17297 6.99863,-11.95959 3.77879,-17.92892 -13.09859,-33.77819 -43.91822,-60.07278 -79.73867,-66.40349 -6.95148,-1.31468 -14.03301,-1.93865 -21.10722,-1.86367 z"
       id="path56323"
       transform="scale(0.75)" />
    <path
       style="fill:#ffff00;fill-opacity:1;stroke:none;stroke-width:8.30014;stroke-dasharray:none;stroke-opacity:1"
       d="m 500.14185,488.68321 c -8.89624,0.96201 -18.84417,9.69602 -17.01317,19.25 4.45068,10.42299 18.90997,11.20093 28.25735,7.73346 6.71366,-2.08503 12.97879,-9.42979 7.08676,-15.88217 -3.57089,-6.49219 -10.85222,-11.16984 -18.33094,-11.10129 z"
       id="path56394"
       transform="scale(0.75)" />
    <path
       style="fill:#ffff00;fill-opacity:1;stroke:none;stroke-width:8.30014;stroke-dasharray:none;stroke-opacity:1"
       d="m 643.04136,608.42739 c -10.09261,0.4946 -21.93954,4.48909 -26.79687,13.94853 -2.63196,8.70428 7.49076,12.14119 14.10294,13.35447 12.73204,2.19919 27.34947,2.56677 38.64369,-4.50796 6.70827,-5.65367 1.08669,-14.90157 -5.64032,-17.42494 -6.08405,-3.72067 -13.18443,-5.58265 -20.30944,-5.3701 z"
       id="path56396"
       transform="scale(0.75)" />
    <path
       style="fill:#ffff00;fill-opacity:1;stroke:none;stroke-width:8.30014;stroke-dasharray:none;stroke-opacity:1"
       d="m 703.13542,561.46691 c -9.54262,0.65868 -19.4419,7.4754 -22.28462,16.69577 0.43991,10.46219 13.39279,14.27696 22.23522,13.70478 8.76503,-0.0323 22.1318,-2.07457 22.96882,-13.02494 -0.83858,-10.31944 -13.40157,-17.61138 -22.91942,-17.37561 z"
       id="path56398"
       transform="scale(0.75)" />
    <path
       style="fill:#ffff00;fill-opacity:1;stroke:none;stroke-width:8.30014;stroke-dasharray:none;stroke-opacity:1"
       d="m 602.66697,483.22733 c -9.41048,2.2096 -18.77858,5.16866 -28.6155,4.44148 -9.43786,2.2305 -7.74148,14.34244 -10.79206,21.62998 -3.65533,16.51228 -9.52346,32.59196 -11.93435,49.33938 1.17838,9.35875 12.65905,7.7506 19.50085,9.29076 8.63691,0.0509 18.13897,4.48183 26.30154,0.55085 5.08596,-5.69544 3.20442,-14.557 5.3782,-22.09347 2.51553,-19.22941 6.87117,-38.382 8.00415,-57.70953 -1.37224,-3.28358 -4.02249,-5.97781 -7.84283,-5.44945 z"
       id="path56400"
       transform="scale(0.75)" />
    <path
       style="fill:#ffff00;fill-opacity:1;stroke:none;stroke-width:8.30014;stroke-dasharray:none;stroke-opacity:1"
       d="m 610.22457,414.44761 c -7.58608,3.02664 -15.95417,2.85718 -23.72453,4.60878 -7.16268,4.23765 -5.16186,14.82767 -7.84528,21.93193 -2.44974,14.34611 -6.91752,28.51283 -7.91456,43.02608 1.51523,9.36301 12.80314,7.65536 19.40655,5.46232 8.92259,-3.02919 21.7068,-5.45456 23.28615,-16.68934 2.44718,-16.75737 5.1808,-33.61446 6.00491,-50.52482 -0.21094,-4.7061 -4.4421,-8.5749 -9.21324,-7.81495 z"
       id="path56402"
       transform="scale(0.75)" />
    <path
       style="fill:#ffff00;fill-opacity:1;stroke:none;stroke-width:8.30014;stroke-dasharray:none;stroke-opacity:1"
       d="m 613.02543,360.322 c -7.04332,4.68292 -17.38937,2.99404 -23.08821,9.2914 -3.61375,14.18352 -3.20496,29.37756 -6.23287,43.38017 -0.69388,8.8505 9.27908,8.96883 15.5334,7.38817 9.31796,-1.60213 22.79904,-5.62152 22.30359,-17.3957 0.41138,-13.07941 2.54461,-26.46945 0.88959,-39.37005 -1.3774,-3.52925 -6.05116,-4.77666 -9.4055,-3.29399 z"
       id="path56404"
       transform="scale(0.75)" />
    <path
       style="fill:#ffff00;fill-opacity:1;stroke:none;stroke-width:8.30014;stroke-dasharray:none;stroke-opacity:1"
       d="m 609.16085,305.79749 c -5.98728,5.23348 -17.69427,3.44473 -19.37654,12.58027 0.45556,14.99916 -0.90639,30.28729 0.68111,45.10647 3.3957,8.31247 13.87299,3.60916 20.15376,1.20848 6.73249,-2.2879 13.3401,-7.649 11.99694,-15.56128 -0.7497,-13.11737 -0.74354,-26.61343 -3.76171,-39.37324 -1.26837,-4.16904 -5.91588,-5.42137 -9.69356,-3.9607 z"
       id="path56406"
       transform="scale(0.75)" />
    <path
       style="fill:#ffff00;fill-opacity:1;stroke:none;stroke-width:8.30014;stroke-dasharray:none;stroke-opacity:1"
       d="m 603.34467,251.17862 c -6.58504,2.44447 -14.80389,4.77011 -18.1348,11.45863 0.32005,15.51416 2.72389,31.16321 4.6615,46.49731 3.44746,9.39308 14.30814,3.02371 20.2138,-0.55766 7.40564,-3.88501 8.35624,-12.66288 6.3532,-19.94596 -1.79872,-11.1635 -2.70772,-22.59724 -5.7956,-33.4848 -1.95266,-2.39201 -3.93474,-4.45841 -7.2981,-3.96752 z"
       id="path56408"
       transform="scale(0.75)" />
    <path
       style="fill:#ffff00;fill-opacity:1;stroke:none;stroke-width:8.30014;stroke-dasharray:none;stroke-opacity:1"
       d="m 593.24357,205.46415 c -7.68219,2.7897 -18.37715,9.36849 -15.10448,19.11918 2.34135,10.40588 2.66629,21.22628 5.74755,31.33487 5.06715,7.48273 14.08396,1.29897 18.95405,-3.01961 8.8056,-5.06978 3.88601,-15.81951 2.9839,-23.59575 -2.46135,-7.6764 -1.04758,-17.90208 -7.99156,-23.26822 -1.53404,-0.28896 -3.00286,-1.02638 -4.58946,-0.57047 z"
       id="path56410"
       transform="scale(0.75)" />
    <path
       style="fill:#ffff00;fill-opacity:1;stroke:none;stroke-width:8.30014;stroke-dasharray:none;stroke-opacity:1"
       d="m 578.51225,157.16759 c -6.20247,-1.04945 -13.06046,3.79622 -10.81525,10.60723 3.05677,14.13315 4.41965,28.86267 8.60048,42.62293 5.26514,6.9624 13.80315,0.70926 17.4565,-4.59904 8.80843,-8.91417 1.81446,-21.8917 0.4803,-32.2395 -1.35566,-6.62203 -1.99435,-17.56447 -11.37705,-16.40235 -1.44831,0.005 -2.89675,-0.0112 -4.34498,0.0107 z"
       id="path56412"
       transform="scale(0.75)" />
    <g
       id="g55764">
      <path
         d="m 105.39,300.43 c -2.0625,0 -3.7344,-1.6719 -3.7344,-3.7344 0,-2.0625 1.6719,-3.7344 3.7344,-3.7344 h 66.531 c 4.5273,-17.852 14.816,-33.402 28.773,-44.551 14.238,-11.375 32.285,-18.176 51.914,-18.176 19.516,0 37.473,6.7266 51.68,17.988 14.078,11.16 24.461,26.785 29.016,44.738 h 89.82 c 2.0625,0 17.2989,1.95686 17.2989,4.01936 0,2.0625 -15.2364,3.44944 -17.2989,3.44944 z m 138.37,227.65 c 2.4922,0.0117 4.9844,0.0195 7.4766,0.0234 l 0.0117,-7.4648 c -2.4844,-0.004 -4.9727,-0.0117 -7.457,-0.0234 z m -59.754,-0.59375 c 2.4883,0.0234 4.9727,0.0508 7.4609,0.082 l 0.0898,-7.4648 c -2.4922,-0.0312 -4.9805,-0.0586 -7.4727,-0.082 l -0.0742,7.4648 z m 29.859,0.35156 c 2.4922,0.0273 4.9805,0.0547 7.4727,0.0781 l 0.0742,-7.46479 c -2.4883,-0.0234 -4.9727,-0.0508 -7.4609,-0.0781 l -0.082,7.4648 z m 223.83,-422.92 c 0.62109,0.15234 0.95313,0.23047 1.2812,0.30859 26.191,6.2812 62.203,14.914 70.398,64.992 0.33203,2.0312 -1.0469,3.9414 -3.0781,4.2734 -2.0312,0.33203 -3.9414,-1.0469 -4.2734,-3.0781 -1.6367,-10.004 -4.5391,-18.184 -8.332,-24.918 -0.74219,3.0938 -2.1641,6.207 -4.3359,9.1055 -1.2305,1.6445 -3.5625,1.9766 -5.207,0.74219 -1.6445,-1.2305 -1.9766,-3.5625 -0.74219,-5.207 2.4141,-3.2227 3.5039,-6.7539 3.4688,-9.9766 -0.0234,-2.4727 -0.71875,-4.7422 -1.9805,-6.4766 -2.2227,-2.2891 -4.582,-4.3242 -7.0352,-6.1406 0.80859,5.0039 0.0625,10.75 -2.6836,16.48 -0.88672,1.8516 -3.1055,2.6367 -4.957,1.75 -1.8516,-0.88672 -2.6367,-3.1055 -1.75,-4.957 2.1914,-4.5703 2.6914,-9.0625 1.9023,-12.82 -0.77344,-3.6758 -2.7891,-6.5898 -5.6289,-8.0195 l -0.0312,-0.0156 c -6.5703,-2.9375 -13.348,-4.957 -19.781,-6.6133 15.797,72.97999 23.773,111.40999 24.785,150.95999 1.0234,39.87901 -5.0742,80.41001 -17.406,158.3 11.191,0.96875 22.125,1.3164 28.699,-0.37891 1.9883,-0.50781 4.0117,0.69531 4.5195,2.6836 0.50781,1.9883 -0.69531,4.01171 -2.6836,4.5195 -12.184,3.1445 -35.453,0.33984 -52.129,-1.668 -6.4766,-0.78125 -11.941,-1.4375 -15.039,-1.5625 -4.1484,-0.16406 -11.09,-0.0898 -17.062,1.6055 -3.5469,1.0078 -6.6836,2.5703 -8.4062,4.9727 -1.1914,1.6758 -3.5156,2.0664 -5.1914,0.875 -1.6758,-1.1914 -2.0664,-3.5156 -0.875,-5.1914 2.8555,-3.9922 7.4453,-6.4062 12.461,-7.832 4.4141,-1.2539 9.2031,-1.7461 13.301,-1.8867 40.645,-149.23 35.203,-178 12.492,-297.84 -0.46875,-2.4805 -0.94531,-4.9961 -1.4297,-7.55469 -0.32422,0.0703 -0.64844,0.14061 -0.97266,0.21093 -0.41016,0.17578 -0.80078,0.35547 -1.1719,0.53907 -5.543,2.74609 -9.6992,7.46089 -11.758,13.21499 -2.082,5.8281 -2.0156,12.742 0.92969,19.809 0.29687,0.71094 0.61328,1.40621 0.94531,2.0781 0.91016,1.8438 0.15234,4.07811 -1.6914,4.98831 -1.8438,0.91015 -4.0781,0.15234 -4.9883,-1.6914 -0.42578,-0.85938 -0.80859,-1.6992 -1.1484,-2.5156 -3.707,-8.8906 -3.7539,-17.688 -1.0742,-25.176 0.94531,-2.6406 2.2305,-5.1172 3.8125,-7.375 -5.3555,1.4492 -10.766,3.1094 -16.117,5.082 -0.13281,0.0742 -0.27344,0.14453 -0.41797,0.20312 -0.40625,0.16797 -0.78125,0.33984 -1.1289,0.51172 -4.293,2.1289 -7.5156,5.7812 -9.1094,10.24199 -1.6211,4.5352 -1.5664,9.9219 0.73438,15.441 0.23438,0.5625 0.48047,1.1094 0.74219,1.6328 0.91016,1.8438 0.15234,4.0781 -1.6914,4.98831 -1.8438,0.91015 -4.0781,0.15234 -4.9883,-1.6914 -0.35156,-0.71094 -0.66797,-1.4023 -0.94531,-2.0703 -3.0586,-7.3398 -3.0938,-14.613 -0.87891,-20.809 0.0742,-0.20703 0.14844,-0.41016 0.22656,-0.61328 -5.2695,2.875 -10.352,6.19139 -15.125,10.066 -2.4492,2.3906 -3.9805,5.5156 -4.3789,8.9062 -0.45703,3.9023 0.57812,8.1875 3.4336,12.172 0.28516,0.39844 0.58594,0.78906 0.89844,1.1758 1.3047,1.5938 1.0703,3.9453 -0.52344,5.25 -1.5938,1.3047 -3.9453,1.0703 -5.25,-0.52344 -0.42188,-0.51562 -0.82031,-1.0312 -1.1914,-1.5547 -3.1445,-4.3906 -4.707,-9.1172 -4.9062,-13.688 -7.9062,9.4648 -14.297,21.309 -18.328,36.285 -0.53125,1.9883 -2.5742,3.1719 -4.5664,2.6406 -1.9883,-0.53125 -3.1719,-2.5742 -2.6406,-4.5664 15.449,-57.414 62.023,-71.836 100.16,-80.102 0.13672,-0.0391 0.27344,-0.0664 0.41016,-0.0898 2.2578,-0.48828 4.4883,-0.95703 6.6797,-1.4102 -1.8203,-2.1133 -3.6953,-4.2891 -5.6367,-6.492199 -0.3125,-0.24219 -0.59375,-0.44922 -0.84375,-0.62109 -4.3086,-2.9648 -9.5039,-4.0938 -14.602,-3.2461 -5.1641,0.85938 -10.258,3.7656 -14.285,8.874999 -0.44141,0.55859 -0.82812,1.082 -1.1641,1.5703 -1.168,1.6914 -3.4844,2.1172 -5.1758,0.94922 -1.6914,-1.168 -2.1172,-3.4844 -0.94922,-5.1758 0.50391,-0.73047 0.98047,-1.3828 1.4297,-1.949199 5.2461,-6.6562 12,-10.465 18.922,-11.617 1.9922,-0.33203 4,-0.44141 5.9844,-0.33594 -3.0664,-3.1055 -6.2891,-6.1602 -9.6836,-9.0742 -0.10547,-0.06641 -0.20703,-0.14062 -0.30859,-0.21875 -0.33203,-0.26172 -0.61328,-0.47266 -0.84375,-0.62891 -3.3164,-2.2812 -7.3125,-3.1484 -11.234,-2.4961 -3.9922,0.66406 -7.9336,2.918 -11.059,6.8828 -0.35156,0.44922 -0.66016,0.85938 -0.91406,1.2305 -1.168,1.6914 -3.4844,2.1172 -5.1758,0.94922 -1.6914,-1.16798 -2.1172,-3.4844 -0.94922,-5.1758 0.42188,-0.61328 0.8125,-1.1484 1.1758,-1.6094 4.1562,-5.2734 9.4648,-8.3906 14.949,-9.4883 -4.0664,-2.4883 -8.3477,-4.6875 -12.875,-6.4922 -2.707,-0.77734 -5.5586,-0.61328 -8.1484,0.45703 -3.0273,1.25 -5.7344,3.7578 -7.4922,7.4805 -0.16797,0.35547 -0.33203,0.73438 -0.48828,1.1328 -0.75,1.918 -2.9102,2.8633 -4.8281,2.1133 -1.9179,-0.75 -2.8633,-2.9102 -2.1133,-4.8281 0.21094,-0.53906 0.44531,-1.0703 0.69141,-1.6016 1.8281,-3.8711 4.4141,-6.8828 7.4219,-8.9961 -10.121,-1.7461 -21.312,-1.4844 -33.766,1.6367 -1.9961,0.5 -4.0234,-0.71484 -4.5195,-2.7109 -0.5,-1.9961 0.71484,-4.0234 2.7109,-4.5195 50.238,-12.59 80.91,16.684 103.34,42.152 0.10547,0.10547 0.20312,0.21875 0.29297,0.33203 0.36328,0.41016 0.72266,0.82422 1.0781,1.2344 -4.4688,-27.984 -3.6758,-60.418 28.316,-86.344 1.5938,-1.2969 3.9375,-1.0547 5.2344,0.53906 1.2969,1.59376 1.0547,3.9375 -0.53906,5.2344 -8.8047,7.1367 -15,14.887 -19.246,22.949 3.0469,-0.85156 6.4453,-0.99609 10.031,-0.25781 0.49219,0.10156 1.0117,0.22656 1.5547,0.375 1.9805,0.53906 3.1484,2.582 2.6094,4.5664 -0.53906,1.9805 -2.582,3.1484 -4.5664,2.6094 -0.34375,-0.09375 -0.70703,-0.17969 -1.0859,-0.25781 -3.5938,-0.74219 -6.8281,-0.15234 -9.3477,1.3398 -2.082,1.2344 -3.6836,3.0938 -4.5859,5.3281 -1.1094,4.0586 -1.8438,8.1484 -2.2734,12.242 3.7891,-3.1289 8.8125,-5.1016 14.695,-5.2383 0.62109,-0.01563 1.2305,-0.0078 1.8281,0.01563 2.0547,0.08203 3.6523,1.8125 3.5742,3.8633 -0.082,2.0547 -1.8125,3.6523 -3.8633,3.5742 -0.49219,-0.01953 -0.95312,-0.02734 -1.3906,-0.01563 -4.5078,0.10547 -8.2383,1.7148 -10.859,4.2148 -2.5625,2.4414 -4.082,5.7539 -4.2305,9.3359 -0.0156,0.33594 -0.0195,0.65234 -0.0117,0.94922 v 0.17578 c 0.375,5.8477 1.1602,11.598 2.1289,17.145 1.6797,-1.9453 3.3984,-3.9297 5.1562,-5.9297 0.0898,-0.11719 0.1875,-0.22656 0.29297,-0.33203 27.34,-31.051 64.727,-66.746 125.84,-51.434 1.9961,0.5 3.2109,2.5234 2.7109,4.5195 -0.5,1.9961 -2.5234,3.2109 -4.5195,2.7109 -16.27,-4.0781 -30.789,-4.2109 -43.844,-1.6445 4.3242,2.5156 8.0664,6.4805 10.598,11.84 0.29687,0.62891 0.57031,1.2656 0.82812,1.9062 0.75,1.918 -0.19922,4.0781 -2.1133,4.8281 -1.918,0.75 -4.0781,-0.19922 -4.8281,-2.1133 -0.19922,-0.50391 -0.40625,-0.98438 -0.62109,-1.4414 -2.2461,-4.7617 -5.7227,-7.9766 -9.6211,-9.5859 -3.4414,-1.4219 -7.2422,-1.6055 -10.828,-0.50391 -6.2422,2.5039 -12.105,5.6172 -17.633,9.1523 0.44141,0.05078 0.87891,0.11328 1.3203,0.1875 6.8438,1.1406 13.523,4.9062 18.715,11.488 0.44531,0.5625 0.91406,1.2031 1.4102,1.9297 1.168,1.6914 0.74219,4.0078 -0.94922,5.1758 -1.69141,1.168 -4.0078,0.74219 -5.1758,-0.94922 -0.33203,-0.48047 -0.71484,-1 -1.1484,-1.5508 -3.9688,-5.0352 -8.9844,-7.8984 -14.074,-8.7461 -5.0195,-0.83594 -10.137,0.27734 -14.383,3.1992 -0.30859,0.21094 -0.66797,0.48047 -1.0742,0.80078 -0.12891,0.10156 -0.26172,0.19141 -0.39844,0.27344 -4.7695,4.0977 -9.2656,8.4219 -13.516,12.812 3.0977,-0.37891 6.2539,-0.31641 9.3867,0.20312 8.2852,1.3789 16.375,5.9414 22.664,13.926 0.55078,0.69531 1.1211,1.480499 1.7188,2.347699 1.168,1.6914 0.74219,4.0078 -0.94922,5.1758 -1.6914,1.168 -4.0078,0.74219 -5.1758,-0.94922 -0.42969,-0.625 -0.91797,-1.2852 -1.457,-1.9688 -5.0703,-6.433599 -11.5,-10.097999 -18.027,-11.183999 -6.457,-1.0742 -13.043,0.35938 -18.508,4.1172 -0.34375,0.23828 -0.72266,0.51562 -1.1328,0.83203 -2.3477,2.668 -4.6172,5.296899 -6.8164,7.855499 z m -0.82422,7.4492 -0.12891,-0.0312 c 0.20703,0.95703 0.41406,1.9062 0.62109,2.8438 0.28516,1.3047 0.56641,2.5859 0.83984,3.8477 0.43359,2.0117 -0.84375,4 -2.8594,4.4336 -2.0117,0.43359 -4,-0.84375 -4.4336,-2.8594 -0.27344,-1.2617 -0.55469,-2.543 -0.83984,-3.8477 -0.29687,-1.3516 -0.59766,-2.7227 -0.89844,-4.1172 l -0.91406,0.1875 c 0.49609,2.6133 0.98047,5.1836 1.4609,7.7109 2.4219,12.781 4.6484,24.527 6.6484,35.512 0.92187,-0.5625 1.8125,-1.2383 2.668,-1.9922 2.1211,-1.8789 3.9609,-4.2188 5.3711,-6.6406 -2.2852,-10.77 -4.7969,-22.395 -7.5352,-35.047 z m -4.7578,250.71 c 3.1562,0.52734 6.6055,0.22656 10.047,-0.64062 4.5742,-1.1562 9.0781,-3.3047 12.891,-5.8945 2.207,-15.535 3.9258,-29.184 5.1445,-41.688 -2.6445,1.1836 -5.4102,2.1445 -8.1562,2.8008 -3.6406,0.86719 -7.3047,1.207 -10.688,0.83203 -2.3438,13.535 -5.3984,28.219 -9.2422,44.59 z m 21.574,2.8984 c -3.0859,1.5664 -6.3828,2.8477 -9.7188,3.6914 -4.5547,1.1523 -9.2109,1.4961 -13.59,0.67969 -3.6172,14.98 -7.8672,31.355 -12.797,49.504 3.543,0.24219 8.3984,0.82812 14.008,1.5039 4.1172,0.49609 8.6523,1.043 13.297,1.5352 3.418,-21.598 6.3594,-40.305 8.7969,-56.91 z m -11.113,-54.855 c 2.3711,0.20312 5.0273,-0.082 7.7461,-0.73047 3.6953,-0.87891 7.4102,-2.4023 10.66,-4.2812 0.91406,-11.227 1.3906,-21.605 1.4023,-31.73 -2.0859,1.1758 -4.2734,2.1641 -6.5,2.8867 -3.0938,1.0078 -6.2773,1.5078 -9.3945,1.3164 -0.79688,10.285 -2.0859,21.008 -3.9141,32.539 z m 4.4102,-39.977 c 2.125,0.125 4.3672,-0.24219 6.5977,-0.96875 3.0391,-0.98828 6.0273,-2.6289 8.6992,-4.5938 l -0.004,-0.10156 c -0.26953,-10.59 -1.0625,-21.137 -2.3867,-32.359 -1.9766,1.3633 -4.082,2.5391 -6.2539,3.4336 -2.1094,0.86719 -4.2852,1.4688 -6.4766,1.7305 0.48438,10.855 0.44922,21.645 -0.17578,32.859 z m -0.23438,-40.312 c 1.3438,-0.20313 2.7109,-0.60547 4.0586,-1.1602 2.8555,-1.1719 5.6055,-3.0078 7.9844,-5.1328 -1.3828,-10.059 -3.1719,-20.758 -5.375,-32.562 -1.25,1.0742 -2.5781,2.0586 -3.957,2.918 -1.9688,1.2266 -4.0586,2.207 -6.2188,2.832 1.6133,11.531 2.8008,22.406 3.5078,33.105 z m -4.5977,-40.582 c 1.1367,-0.42578 2.2695,-1 3.3711,-1.6836 2.3164,-1.4453 4.4492,-3.3555 6.2109,-5.418 -1.5781,-8.1016 -3.3359,-16.727 -5.2773,-26.004 -0.78906,0.875 -1.625,1.707 -2.4961,2.4766 -1.8984,1.6797 -3.9883,3.0898 -6.2188,4.0898 1.6602,9.3438 3.1367,18.129 4.4102,26.539 z m -262.54,102.71 h 145.96 c -4.3711,-15.574 -13.594,-29.121 -25.934,-38.902 -12.914,-10.238 -29.262,-16.355 -47.043,-16.355 -17.883,0 -34.316,6.1875 -47.273,16.539 -12.23,9.7695 -21.363,23.242 -25.707,38.719 z m 348.19,125.27 c 4.9297,0 9.3984,1.9688 12.801,4.6484 4.3008,3.3828 7.0234,8.1367 7.0234,11.742 0,3.8242 -2.5703,7.082 -6.7266,9.2617 -3.4258,1.7969 -8.0625,2.9102 -13.098,2.9102 -5.0355,0 -9.6719,-1.1133 -13.098,-2.9102 -4.1562,-2.1797 -6.7266,-5.4375 -6.7266,-9.2617 0,-3.6016 2.7227,-8.3594 7.0234,-11.742 3.4062,-2.6797 7.8711,-4.6484 12.801,-4.6484 z m 8.1953,10.512 c -2.2305,-1.7539 -5.1016,-3.043 -8.1953,-3.043 -3.0937,0 -5.9648,1.2891 -8.1953,3.043 -2.5508,2.0039 -4.1641,4.3711 -4.1641,5.8789 0,0.83594 1.0312,1.7969 2.6992,2.6719 2.3945,1.2578 5.8047,2.0352 9.6562,2.0352 3.8516,0 7.2617,-0.77734 9.6562,-2.0352 1.668,-0.875 2.6992,-1.8359 2.6992,-2.6719 0,-1.5078 -1.6133,-3.875 -4.1641,-5.8789 z m -52.984,24.777 c 5.832,0 11.168,1.7227 15.27,4.0703 5.5273,3.1641 9.0312,7.7969 9.0312,11.426 0,3.8789 -3.2227,7.043 -8.4297,9.0312 -4.125,1.5703 -9.7383,2.543 -15.871,2.543 -6.1328,0 -11.746,-0.97266 -15.871,-2.543 -5.207,-1.9844 -8.4297,-5.1523 -8.4297,-9.0312 0,-3.6289 3.5,-8.2617 9.0312,-11.426 4.1016,-2.3438 9.4375,-4.0703 15.27,-4.0703 z m 11.566,10.547 c -3.1016,-1.7734 -7.1445,-3.0781 -11.566,-3.0781 -4.4215,0 -8.4648,1.3047 -11.566,3.0781 -3.2266,1.8438 -5.2656,3.8281 -5.2656,4.9492 0,0.45312 1.3828,1.207 3.6172,2.0586 3.3203,1.2656 7.9883,2.0508 13.215,2.0508 5.2266,0 9.8945,-0.78125 13.215,-2.0508 2.2344,-0.85156 3.6172,-1.6055 3.6172,-2.0586 0,-1.125 -2.043,-3.1055 -5.2656,-4.9492 z m -118.52,-100.27 c 4.3047,0 8.1719,1.918 11.098,4.5234 3.5781,3.1875 5.8477,7.6289 5.8477,10.973 0,3.5781 -2.1797,6.6602 -5.707,8.7539 -2.9375,1.7422 -6.9141,2.8203 -11.238,2.8203 -4.3242,0 -8.3008,-1.0781 -11.238,-2.8203 -3.5273,-2.0938 -5.707,-5.1758 -5.707,-8.7539 0,-3.3438 2.2656,-7.7852 5.8477,-10.973 2.9258,-2.6055 6.793,-4.5234 11.098,-4.5234 z m 6.1406,10.094 c -1.6992,-1.5117 -3.8594,-2.625 -6.1406,-2.625 -2.2812,0 -4.4414,1.1133 -6.1406,2.625 -2.043,1.8203 -3.3359,3.9922 -3.3359,5.4023 0,0.75391 0.77734,1.5898 2.0312,2.3359 1.8438,1.0938 4.4727,1.7734 7.4453,1.7734 2.9727,0 5.6016,-0.67578 7.4453,-1.7734 1.2539,-0.74609 2.0312,-1.582 2.0312,-2.3359 0,-1.4102 -1.293,-3.582 -3.3359,-5.4023 z m 103.34,-1.2969 c -0.59375,-1.1367 -0.15234,-2.543 0.98437,-3.1367 1.1367,-0.59375 2.543,-0.15234 3.1367,0.98438 3.3711,6.4414 4.8008,11.773 3.5898,15.871 -1.3125,4.4375 -5.3477,7.1562 -12.824,7.9258 -1.2773,0.12891 -2.4219,-0.80078 -2.5508,-2.0781 -0.12891,-1.2773 0.80078,-2.4219 2.0781,-2.5508 5.332,-0.54688 8.0977,-2.125 8.832,-4.6094 0.83594,-2.8242 -0.42969,-7.0352 -3.2422,-12.406 z m 4.7305,-72.168 c -2.0625,0 -24.46054,-0.69047 -24.46054,-2.75297 0,-2.0625 22.39804,-4.71583 24.46054,-4.71583 h 101.43 c 0.17969,0 0.35156,0.0117 0.52344,0.0352 1.5859,0.12891 3.0117,0.82422 4.0664,1.8789 1.1875,1.1875 1.9297,2.8164 1.9297,4.6016 v 0.0156 c 0,0.125 -0.008,0.25 -0.0195,0.375 -0.15625,12.438 -5.2031,20.699 -13.812,26.039 -8.1875,5.0781 -19.535,7.2656 -32.859,7.8203 -32.012,1.332 -46.57,4.3867 -50.922,10.535 -3.8477,5.4375 0.96484,15.551 8.2109,30.582 6.7812,14.059 5.0898,22.832 -2.2812,28.457 -6.582,5.0234 -17.785,6.7969 -31.383,7.4805 -2.0547,0.0977 -21.87031,-0.51526 -21.96791,-2.56996 -0.0977,-2.0547 19.56171,-4.76994 21.61641,-4.86754 12.219,-0.61328 22.086,-2.0547 27.211,-5.9609 4.332,-3.3047 4.9727,-9.1836 0.0937,-19.301 -8.3867,-17.387 -13.934,-29.117 -7.5703,-38.105 5.8555,-8.2773 22.074,-12.246 56.695,-13.688 12.121,-0.50391 22.27,-2.3906 29.242,-6.7148 6.2578,-3.8789 9.9883,-9.957 10.27,-19.148 h -100.48 z m -95.16,102.53 c 2.0547,0.0234 19.59744,1.95235 19.57404,4.00705 -0.0234,2.0547 -17.60524,3.45385 -19.65994,3.43045 l -28.383,-0.42578 c -7.4297,-0.11328 -13.121,1.1562 -16.934,3.4844 -3.418,2.0859 -5.2422,5.1094 -5.3242,8.7578 -0.23828,10.656 7.0273,16.191 13.5,21.113 6.168,4.6953 11.762,8.9531 12.238,16.555 0.29688,4.7148 -2.1133,8.1289 -6.9102,10.988 -3.8711,2.3086 -9.375,4.2422 -16.395,6.3672 -4.1523,1.2578 -7.4141,3.0234 -9.4648,5.0508 -1.1758,1.1641 -1.8984,2.3516 -2.0781,3.4961 -0.16016,1.0352 0.12891,2.1797 0.94922,3.3828 1.2148,1.7812 3.4531,3.6094 6.8906,5.3906 2.3867,1.2344 4.9727,2.4102 7.6953,3.5 2.7695,1.1055 5.707,2.1367 8.7578,3.0703 10.156,3.1094 17.473,7.707 21.336,12.809 2.4336,3.2109 3.582,6.6562 3.3359,10.148 -0.24609,3.4883 -1.8633,6.8516 -4.9648,9.8906 -5.0234,4.918 -14.254,9.1133 -28.238,11.527 -12.578,2.168 -28.848,3.6133 -46.84,4.5547 -17.812,0.93359 -37.434,1.3711 -56.871,1.5312 -27.566,0.22656 -54.652,-0.10547 -75.668,-0.36719 -13.23,-0.16406 -24.051,-0.29687 -31.02,-0.24219 -2.0547,0.0156 -3.7305,-1.6367 -3.7461,-3.6914 -0.0156,-2.0547 1.6367,-3.7305 3.6914,-3.7461 7.0586,-0.0547 17.906,0.0781 31.164,0.24219 20.992,0.25781 48.043,0.59375 75.523,0.36719 19.215,-0.16016 38.695,-0.59375 56.551,-1.5312 17.672,-0.92578 33.637,-2.3438 45.965,-4.4688 12.387,-2.1367 20.273,-5.5703 24.273,-9.4844 1.7383,-1.7031 2.6328,-3.4219 2.75,-5.0781 0.11719,-1.6523 -0.52344,-3.4062 -1.8516,-5.1602 -2.9609,-3.9102 -8.9609,-7.5547 -17.543,-10.184 -3.2539,-0.99609 -6.3906,-2.0977 -9.3398,-3.2773 -3.0352,-1.2109 -5.8477,-2.4844 -8.3672,-3.7891 -4.6016,-2.3828 -7.75,-5.0469 -9.6328,-7.8125 -1.9453,-2.8555 -2.5977,-5.8125 -2.1484,-8.7188 0.4375,-2.8008 1.8867,-5.3984 4.1797,-7.6641 2.8984,-2.8672 7.2305,-5.2773 12.559,-6.8906 6.5391,-1.9805 11.562,-3.7227 14.73,-5.6094 2.2422,-1.3359 3.3867,-2.6445 3.293,-4.1328 -0.26562,-4.207 -4.5703,-7.4844 -9.3242,-11.102 -7.8828,-6 -16.738,-12.742 -16.414,-27.184 0.14062,-6.3242 3.1836,-11.492 8.8828,-14.969 4.9727,-3.0352 12.012,-4.6992 20.898,-4.5664 l 28.383,0.42578 z"
         id="path55532"
         sodipodi:nodetypes="cssccsccssccccccccccccccccccccccscccccccccsccscccccscccccsccccccccccsccccccccccsccccccccsccccccccccccccscccccccsccscccccccsccccccccccscccccccccccccccccccccccscccccccccccccsccscscccccsccccccccccccccccccccccccccccccccccscccccccccccsccccccsscccccccccccccsccccscccscscssscsscscscscsccccscscsccccscssscsccccscscsccccscscscsccscccscccccssscssscccccccsccccccccccsccccccccccccccccccccccscccccccsccscccccccccccc" />
      <use
         x="70"
         y="560.14062"
         xlink:href="#w"
         id="use55534" />
      <use
         x="70.035156"
         y="560.14062"
         xlink:href="#e"
         id="use55536" />
      <use
         x="70.058594"
         y="560.14062"
         xlink:href="#b"
         id="use55538" />
      <use
         x="70.089844"
         y="560.14062"
         xlink:href="#a"
         id="use55540" />
      <use
         x="70.121094"
         y="560.14062"
         xlink:href="#d"
         id="use55542" />
      <use
         x="70.144531"
         y="560.14062"
         xlink:href="#b"
         id="use55544" />
      <use
         x="70.175781"
         y="560.14062"
         xlink:href="#l"
         id="use55546" />
      <use
         x="70.222656"
         y="560.14062"
         xlink:href="#k"
         id="use55548" />
      <use
         x="70.257812"
         y="560.14062"
         xlink:href="#j"
         id="use55550" />
      <use
         x="70.304688"
         y="560.14062"
         xlink:href="#i"
         id="use55552" />
      <use
         x="70.34375"
         y="560.14062"
         xlink:href="#v"
         id="use55554" />
      <use
         x="70.359375"
         y="560.14062"
         xlink:href="#b"
         id="use55556" />
      <use
         x="70.390625"
         y="560.14062"
         xlink:href="#f"
         id="use55558" />
      <use
         x="70.425781"
         y="560.14062"
         xlink:href="#a"
         id="use55560" />
      <use
         x="70.472656"
         y="560.14062"
         xlink:href="#h"
         id="use55562" />
      <use
         x="70.507812"
         y="560.14062"
         xlink:href="#a"
         id="use55564" />
      <use
         x="70.539062"
         y="560.14062"
         xlink:href="#f"
         id="use55566" />
      <use
         x="70.570312"
         y="560.14062"
         xlink:href="#a"
         id="use55568" />
      <use
         x="70.601562"
         y="560.14062"
         xlink:href="#g"
         id="use55570" />
      <use
         x="70.628906"
         y="560.14062"
         xlink:href="#c"
         id="use55572" />
      <use
         x="70.664062"
         y="560.14062"
         xlink:href="#u"
         id="use55574" />
      <use
         x="70.691406"
         y="560.14062"
         xlink:href="#g"
         id="use55576" />
      <use
         x="70.722656"
         y="560.14062"
         xlink:href="#t"
         id="use55578" />
      <use
         x="70.75"
         y="560.14062"
         xlink:href="#a"
         id="use55580" />
      <use
         x="70"
         y="560.1875"
         xlink:href="#s"
         id="use55582" />
      <use
         x="70.019531"
         y="560.1875"
         xlink:href="#e"
         id="use55584" />
      <use
         x="70.042969"
         y="560.1875"
         xlink:href="#c"
         id="use55586" />
      <use
         x="70.074219"
         y="560.1875"
         xlink:href="#r"
         id="use55588" />
      <use
         x="70.140625"
         y="560.1875"
         xlink:href="#d"
         id="use55590" />
      <use
         x="70.164062"
         y="560.1875"
         xlink:href="#q"
         id="use55592" />
      <use
         x="70.195312"
         y="560.1875"
         xlink:href="#b"
         id="use55594" />
      <use
         x="70.242188"
         y="560.1875"
         xlink:href="#p"
         id="use55596"
         inkscape:label="use55596" />
      <use
         x="70.28125"
         y="560.1875"
         xlink:href="#c"
         id="use55598" />
      <use
         x="70.316406"
         y="560.1875"
         xlink:href="#o"
         id="use55600" />
      <use
         x="70.347656"
         y="560.1875"
         xlink:href="#f"
         id="use55602" />
      <use
         x="70.398438"
         y="560.1875"
         xlink:href="#h"
         id="use55604" />
      <use
         x="70.433594"
         y="560.1875"
         xlink:href="#e"
         id="use55606" />
      <use
         x="70.453125"
         y="560.1875"
         xlink:href="#c"
         id="use55608" />
      <use
         x="70.488281"
         y="560.1875"
         xlink:href="#n"
         id="use55610" />
      <use
         x="70.503906"
         y="560.1875"
         xlink:href="#b"
         id="use55612" />
      <use
         x="70.535156"
         y="560.1875"
         xlink:href="#m"
         id="use55614" />
      <use
         x="70.5625"
         y="560.1875"
         xlink:href="#d"
         id="use55616" />
    </g>
  </g>
</svg>
