<?xml version="1.0" encoding="UTF-8" standalone="no"?>
<!-- Created with Inkscape (http://www.inkscape.org/) -->

<svg
   xmlns:dc="http://purl.org/dc/elements/1.1/"
   xmlns:cc="http://creativecommons.org/ns#"
   xmlns:rdf="http://www.w3.org/1999/02/22-rdf-syntax-ns#"
   xmlns:svg="http://www.w3.org/2000/svg"
   xmlns="http://www.w3.org/2000/svg"
   xmlns:xlink="http://www.w3.org/1999/xlink"
   xmlns:sodipodi="http://sodipodi.sourceforge.net/DTD/sodipodi-0.dtd"
   xmlns:inkscape="http://www.inkscape.org/namespaces/inkscape"
   width="64mm"
   height="64mm"
   viewBox="0 0 64 64"
   version="1.1"
   id="svg8462"
   inkscape:version="0.92.5 (2060ec1f9f, 2020-04-08)"
   sodipodi:docname="icon-noun-bush-4322941.svg"
   enable-background="new">
  <defs
     id="defs8456">
    <linearGradient
       inkscape:collect="always"
       id="linearGradient9757">
      <stop
         style="stop-color:#119704;stop-opacity:1"
         offset="0"
         id="stop9753" />
      <stop
         id="stop9761"
         offset="0.68651402"
         style="stop-color:#c5c06c;stop-opacity:1" />
      <stop
         style="stop-color:#1197bc;stop-opacity:1"
         offset="1"
         id="stop9755" />
    </linearGradient>
    <symbol
       overflow="visible"
       id="n">
      <path
         id="path9431"
         d="m29.312-1.75c-1.5117 0.78125-3.0898 1.3711-4.7344 1.7656-1.6367 0.40625-3.3398 0.60938-5.1094 0.60938-5.3125 0-9.5273-1.4844-12.641-4.4531-3.1055-2.9688-4.6562-7-4.6562-12.094s1.5508-9.125 4.6562-12.094c3.1133-2.9688 7.3281-4.4531 12.641-4.4531 1.7695 0 3.4727 0.19922 5.1094 0.59375 1.6445 0.39844 3.2227 0.99219 4.7344 1.7812v6.5938c-1.5312-1.0391-3.0391-1.8008-4.5156-2.2812-1.4805-0.48828-3.0391-0.73438-4.6719-0.73438-2.9375 0-5.2461 0.94531-6.9219 2.8281-1.6797 1.875-2.5156 4.4648-2.5156 7.7656 0 3.293 0.83594 5.8828 2.5156 7.7656 1.6758 1.875 3.9844 2.8125 6.9219 2.8125 1.6328 0 3.1914-0.23828 4.6719-0.71875 1.4766-0.48828 2.9844-1.2539 4.5156-2.2969z" />
    </symbol>
    <symbol
       overflow="visible"
       id="h">
      <path
         id="path9434"
         d="m21.453-17.406c-0.67969-0.3125-1.3516-0.53906-2.0156-0.6875-0.65625-0.15625-1.3203-0.23438-1.9844-0.23438-1.9688 0-3.4844 0.63281-4.5469 1.8906-1.0547 1.2617-1.5781 3.0703-1.5781 5.4219v11.016h-7.6562v-23.922h7.6562v3.9219c0.97656-1.5625 2.1016-2.7031 3.375-3.4219 1.2812-0.71875 2.8125-1.0781 4.5938-1.0781 0.25 0 0.52344 0.011719 0.82812 0.03125 0.30078 0.023438 0.73438 0.070312 1.2969 0.14062z" />
    </symbol>
    <symbol
       overflow="visible"
       id="c">
      <path
         id="path9437"
         d="m27.562-12.031v2.1875h-17.891c0.1875 1.793 0.83203 3.1367 1.9375 4.0312 1.1133 0.89844 2.6719 1.3438 4.6719 1.3438 1.6016 0 3.25-0.23438 4.9375-0.70312 1.6875-0.47656 3.4219-1.2031 5.2031-2.1719v5.8906c-1.8047 0.6875-3.6094 1.2031-5.4219 1.5469-1.8125 0.35156-3.6211 0.53125-5.4219 0.53125-4.3359 0-7.7031-1.0977-10.109-3.2969-2.3984-2.207-3.5938-5.2969-3.5938-9.2656 0-3.9062 1.1758-6.9727 3.5312-9.2031 2.3633-2.2383 5.6094-3.3594 9.7344-3.3594 3.7578 0 6.7695 1.1367 9.0312 3.4062 2.2578 2.2617 3.3906 5.2812 3.3906 9.0625zm-7.8594-2.5312c0-1.457-0.42969-2.6289-1.2812-3.5156-0.84375-0.89453-1.9492-1.3438-3.3125-1.3438-1.4922 0-2.6992 0.41797-3.625 1.25-0.91797 0.83594-1.4922 2.0391-1.7188 3.6094z" />
    </symbol>
    <symbol
       overflow="visible"
       id="a">
      <path
         id="path9440"
         d="m14.391-10.766c-1.5938 0-2.793 0.27344-3.5938 0.8125-0.80469 0.54297-1.2031 1.3398-1.2031 2.3906 0 0.96875 0.32031 1.7305 0.96875 2.2812 0.64453 0.54297 1.5469 0.8125 2.7031 0.8125 1.4375 0 2.6445-0.51562 3.625-1.5469 0.98828-1.0312 1.4844-2.3203 1.4844-3.875v-0.875zm11.688-2.8906v13.656h-7.7031v-3.5469c-1.0312 1.4492-2.1875 2.5078-3.4688 3.1719s-2.8398 1-4.6719 1c-2.4805 0-4.4961-0.72266-6.0469-2.1719-1.543-1.4453-2.3125-3.3203-2.3125-5.625 0-2.8125 0.96094-4.8672 2.8906-6.1719 1.9375-1.3125 4.9688-1.9688 9.0938-1.9688h4.5156v-0.60938c0-1.207-0.48047-2.0938-1.4375-2.6562-0.94922-0.5625-2.4375-0.84375-4.4688-0.84375-1.6367 0-3.1562 0.16797-4.5625 0.5-1.4062 0.32422-2.7188 0.8125-3.9375 1.4688v-5.8281c1.6445-0.40625 3.2891-0.70703 4.9375-0.90625 1.6562-0.20703 3.3047-0.3125 4.9531-0.3125 4.3203 0 7.4375 0.85547 9.3438 2.5625 1.9141 1.6992 2.875 4.4609 2.875 8.2812z" />
    </symbol>
    <symbol
       overflow="visible"
       id="b">
      <path
         id="path9443"
         d="m12.031-30.719v6.7969h7.875v5.4688h-7.875v10.141c0 1.1172 0.21875 1.8711 0.65625 2.2656 0.4375 0.38672 1.3125 0.57812 2.625 0.57812h3.9375v5.4688h-6.5625c-3.0234 0-5.1641-0.62891-6.4219-1.8906-1.2617-1.2578-1.8906-3.3984-1.8906-6.4219v-10.141h-3.7969v-5.4688h3.7969v-6.7969z" />
    </symbol>
    <symbol
       overflow="visible"
       id="g">
      <path
         id="path9446"
         d="m19.953-20.422v-12.812h7.6875v33.234h-7.6875v-3.4531c-1.0547 1.4062-2.2148 2.4375-3.4844 3.0938-1.2734 0.65625-2.7422 0.98438-4.4062 0.98438-2.9492 0-5.3711-1.1719-7.2656-3.5156-1.8867-2.3438-2.8281-5.3594-2.8281-9.0469s0.94141-6.7031 2.8281-9.0469c1.8945-2.3438 4.3164-3.5156 7.2656-3.5156 1.6562 0 3.1172 0.33594 4.3906 1 1.2812 0.65625 2.4453 1.6836 3.5 3.0781zm-5.0469 15.484c1.6445 0 2.8945-0.59766 3.75-1.7969 0.86328-1.1953 1.2969-2.9297 1.2969-5.2031 0-2.2812-0.43359-4.0195-1.2969-5.2188-0.85547-1.1953-2.1055-1.7969-3.75-1.7969-1.625 0-2.8711 0.60156-3.7344 1.7969-0.85547 1.1992-1.2812 2.9375-1.2812 5.2188 0 2.2734 0.42578 4.0078 1.2812 5.2031 0.86328 1.1992 2.1094 1.7969 3.7344 1.7969z" />
    </symbol>
    <symbol
       overflow="visible"
       id="f">
      <path
         id="path9449"
         d="m16.406-4.9375c1.6328 0 2.8828-0.59766 3.75-1.7969 0.86328-1.1953 1.2969-2.9297 1.2969-5.2031 0-2.2812-0.43359-4.0195-1.2969-5.2188-0.86719-1.1953-2.1172-1.7969-3.75-1.7969-1.6367 0-2.8906 0.60547-3.7656 1.8125-0.875 1.1992-1.3125 2.9336-1.3125 5.2031 0 2.2617 0.4375 3.9961 1.3125 5.2031 0.875 1.1992 2.1289 1.7969 3.7656 1.7969zm-5.0781-15.484c1.0508-1.3945 2.2188-2.4219 3.5-3.0781 1.2812-0.66406 2.7539-1 4.4219-1 2.9453 0 5.3672 1.1719 7.2656 3.5156 1.8945 2.3438 2.8438 5.3594 2.8438 9.0469s-0.94922 6.7031-2.8438 9.0469c-1.8984 2.3438-4.3203 3.5156-7.2656 3.5156-1.668 0-3.1406-0.33594-4.4219-1s-2.4492-1.6914-3.5-3.0781v3.4531h-7.6562v-33.234h7.6562z" />
    </symbol>
    <symbol
       overflow="visible"
       id="e">
      <path
         id="path9452"
         d="m0.53125-23.922h7.6562l6.4219 16.234 5.4688-16.234h7.6562l-10.062 26.188c-1.0117 2.6641-2.1953 4.5234-3.5469 5.5781-1.3438 1.0625-3.1211 1.5938-5.3281 1.5938h-4.4219v-5.0156h2.3906c1.3008 0 2.2422-0.21094 2.8281-0.625 0.59375-0.40625 1.0547-1.1484 1.3906-2.2188l0.20312-0.65625z" />
    </symbol>
    <symbol
       overflow="visible"
       id="d">
      <path
         id="path9455"
         d="m26.219-30.891v6.75c-1.7617-0.78125-3.4766-1.3672-5.1406-1.7656-1.668-0.40625-3.2422-0.60938-4.7188-0.60938-1.9609 0-3.4141 0.27344-4.3594 0.8125-0.9375 0.54297-1.4062 1.3867-1.4062 2.5312 0 0.85547 0.31641 1.5234 0.95312 2 0.63281 0.46875 1.7852 0.875 3.4531 1.2188l3.5 0.70312c3.5391 0.71875 6.0625 1.8047 7.5625 3.25 1.5 1.4492 2.25 3.5117 2.25 6.1875 0 3.5234-1.0469 6.1406-3.1406 7.8594-2.0859 1.7188-5.2734 2.5781-9.5625 2.5781-2.0234 0-4.0547-0.19531-6.0938-0.57812-2.0312-0.38281-4.0625-0.95703-6.0938-1.7188v-6.9375c2.0312 1.0859 3.9922 1.9023 5.8906 2.4531 1.9062 0.54297 3.7422 0.8125 5.5156 0.8125 1.7891 0 3.1602-0.29688 4.1094-0.89062 0.95703-0.60156 1.4375-1.457 1.4375-2.5625 0-1-0.32422-1.7695-0.96875-2.3125-0.64844-0.53906-1.9375-1.0234-3.875-1.4531l-3.1875-0.70312c-3.1875-0.6875-5.5234-1.7734-7-3.2656-1.4688-1.5-2.2031-3.5156-2.2031-6.0469 0-3.1758 1.0234-5.6172 3.0781-7.3281 2.0508-1.707 5-2.5625 8.8438-2.5625 1.75 0 3.5508 0.13281 5.4062 0.39062 1.8516 0.26172 3.7695 0.65625 5.75 1.1875z" />
    </symbol>
    <symbol
       overflow="visible"
       id="m">
      <path
         id="path9458"
         d="m1.5312-23.922h7.4375l4.0156 16.484 4.0469-16.484h6.375l4.0156 16.312 4.0469-16.312h7.4375l-6.3125 23.922h-8.3438l-4.0469-16.453-4.0156 16.453h-8.3438z" />
    </symbol>
    <symbol
       overflow="visible"
       id="l">
      <path
         id="path9461"
         d="m23.375-5.8125h-12.859l-2.0312 5.8125h-8.2656l11.812-31.891h9.7969l11.812 31.891h-8.2656zm-10.812-5.9219h8.7344l-4.3594-12.688z" />
    </symbol>
    <symbol
       overflow="visible"
       id="k">
      <path
         id="path9464"
         d="m27.734-14.562v14.562h-7.7031v-11.156c0-2.0625-0.046875-3.4844-0.14062-4.2656-0.085937-0.78125-0.24219-1.3594-0.46875-1.7344-0.30469-0.5-0.71094-0.88281-1.2188-1.1562-0.51172-0.28125-1.0938-0.42188-1.75-0.42188-1.5938 0-2.8516 0.61719-3.7656 1.8438-0.90625 1.2305-1.3594 2.9375-1.3594 5.125v11.766h-7.6562v-23.922h7.6562v3.5c1.1445-1.3945 2.3633-2.4219 3.6562-3.0781 1.3008-0.66406 2.7383-1 4.3125-1 2.7578 0 4.8516 0.85156 6.2812 2.5469 1.4375 1.6875 2.1562 4.1523 2.1562 7.3906z" />
    </symbol>
    <symbol
       overflow="visible"
       id="j">
      <path
         id="path9467"
         d="m3.4219-9.3125v-14.609h7.6875v2.3906c0 1.293-0.011719 2.918-0.03125 4.875-0.011719 1.9609-0.015625 3.2656-0.015625 3.9219 0 1.9297 0.046875 3.3125 0.14062 4.1562 0.10156 0.84375 0.28125 1.4609 0.53125 1.8438 0.3125 0.5 0.71875 0.88672 1.2188 1.1562 0.50781 0.27344 1.0938 0.40625 1.75 0.40625 1.5938 0 2.8438-0.60938 3.75-1.8281 0.91406-1.2266 1.375-2.9297 1.375-5.1094v-11.812h7.6406v23.922h-7.6406v-3.4531c-1.1562 1.3867-2.3828 2.4141-3.6719 3.0781-1.2812 0.66406-2.6992 1-4.25 1-2.7734 0-4.8828-0.84766-6.3281-2.5469-1.4375-1.6953-2.1562-4.1602-2.1562-7.3906z" />
    </symbol>
    <symbol
       overflow="visible"
       id="i">
      <path
         id="path9470"
         d="m3.6719-33.234h7.6562v18.094l8.7969-8.7812h8.8906l-11.688 10.969 12.594 12.953h-9.2656l-9.3281-9.9688v9.9688h-7.6562z" />
    </symbol>
    <clipPath
       clipPathUnits="userSpaceOnUse"
       id="clipPath9749">
      <circle
         r="32.000004"
         cy="32.000004"
         cx="32.000004"
         id="circle9751"
         style="opacity:1;fill:#1197bc;fill-opacity:1;stroke:none;stroke-width:2.58200002;stroke-miterlimit:4;stroke-dasharray:none;stroke-dashoffset:0;stroke-opacity:1" />
    </clipPath>
    <linearGradient
       inkscape:collect="always"
       xlink:href="#linearGradient9757"
       id="linearGradient9759"
       x1="98.907745"
       y1="179.13243"
       x2="98.462807"
       y2="116.1994"
       gradientUnits="userSpaceOnUse" />
  </defs>
  <sodipodi:namedview
     id="base"
     pagecolor="#ffffff"
     bordercolor="#666666"
     borderopacity="1.0"
     inkscape:pageopacity="0.0"
     inkscape:pageshadow="2"
     inkscape:zoom="1.4"
     inkscape:cx="170.08776"
     inkscape:cy="82.870984"
     inkscape:document-units="mm"
     inkscape:current-layer="layer1"
     showgrid="false"
     fit-margin-top="0"
     fit-margin-left="0"
     fit-margin-right="0"
     fit-margin-bottom="-2.7755576e-17"
     inkscape:window-width="1864"
     inkscape:window-height="1053"
     inkscape:window-x="56"
     inkscape:window-y="27"
     inkscape:window-maximized="1" />
  <metadata
     id="metadata8459">
    <rdf:RDF>
      <cc:Work
         rdf:about="">
        <dc:format>image/svg+xml</dc:format>
        <dc:type
           rdf:resource="http://purl.org/dc/dcmitype/StillImage" />
        <dc:title></dc:title>
      </cc:Work>
    </rdf:RDF>
  </metadata>
  <g
     inkscape:label="Layer 1"
     inkscape:groupmode="layer"
     id="layer1"
     transform="translate(-66.023819,-115.9494)">
    <circle
       style="opacity:0.87999998;fill:url(#linearGradient9759);fill-opacity:1;stroke:none;stroke-width:2.58200002;stroke-miterlimit:4;stroke-dasharray:none;stroke-dashoffset:0;stroke-opacity:1"
       id="path8464"
       cx="98.023819"
       cy="147.9494"
       r="32" />
  </g>
  <g
     inkscape:groupmode="layer"
     id="layer2"
     inkscape:label="Layer 2">
    <path
       inkscape:connector-curvature="0"
       d="m 15.569375,45.565359 -1.910327,-4.765768 2.757555,-2.746389 h -4.92e-4 c 0.425984,-0.4255 0.425984,-1.115603 0,-1.541115 -0.4255,-0.425984 -1.115602,-0.425984 -1.541115,0 L 12.790609,38.607144 11.227163,34.70982 C 11.005201,34.152502 10.373744,33.880146 9.8159425,34.102107 9.2586251,34.324069 8.9862689,34.955526 9.208231,35.513328 l 0.7056098,1.769391 H 6.9610102 c -0.5994741,0 -1.0855541,0.48608 -1.0855541,1.085553 0,0.599474 0.48608,1.085554 1.0855541,1.085554 h 3.8212738 l 0.597055,1.497941 2.171108,5.42777 c 0.168167,0.409024 0.56749,0.675562 1.009466,0.673142 0.137635,4.93e-4 0.273807,-0.02568 0.401754,-0.07608 0.268002,-0.106132 0.482681,-0.314525 0.596571,-0.57961 0.113886,-0.264603 0.118247,-0.563621 0.01115,-0.831609 z"
       id="path9477"
       style="stroke-width:0.12406331" />
    <path
       inkscape:connector-curvature="0"
       d="m 25.154504,28.59846 -3.25666,0.814166 0.260732,-1.758722 c 0.07803,-0.599474 -0.345045,-1.148553 -0.944532,-1.226576 -0.599486,-0.07802 -1.148553,0.345045 -1.226576,0.944531 l -0.293199,2.312168 -2.095057,-2.82244 c -0.359585,-0.479778 -1.039998,-0.576696 -1.519776,-0.217111 -0.479777,0.359585 -0.576695,1.039998 -0.21711,1.519775 l 3.256661,4.342217 c 0.04992,0.05621 0.108556,0.103709 0.173491,0.141022 l -1.476106,11.007765 c -0.03974,0.288348 0.03731,0.580579 0.215176,0.811263 0.177373,0.230683 0.440523,0.380427 0.729355,0.415326 h 0.141023 c 0.548595,0.0048 1.014317,-0.400786 1.085554,-0.94453 l 1.628331,-12.18004 4.060221,-0.987655 c 0.599473,-0.143939 0.968761,-0.746316 0.82482,-1.346336 -0.143937,-0.599474 -0.746315,-0.96876 -1.346334,-0.824823 z"
       id="path9479"
       style="stroke-width:0.12406331" />
    <path
       inkscape:connector-curvature="0"
       d="m 28.671699,46.248948 1.226578,-4.624212 h 0.119218 l 4.342215,-1.085554 h 3.52e-4 c 0.599477,-0.143938 0.968761,-0.746315 0.824823,-1.346335 -0.143937,-0.599474 -0.746315,-0.968761 -1.346334,-0.824822 l -3.256662,0.824822 1.346333,-4.884993 c 0.156049,-0.599474 -0.203535,-1.211553 -0.803508,-1.36755 -0.599473,-0.156046 -1.211551,0.203539 -1.36755,0.803508 L 28.8451,37.054814 26.141886,34.34093 h 3.52e-4 c -0.425985,-0.425984 -1.116085,-0.425984 -1.541611,0 -0.4255,0.4255 -0.4255,1.115601 0,1.541114 l 3.256662,3.256662 c 0.103224,0.09886 0.224865,0.176405 0.358133,0.228252 l -1.715051,6.318047 c -0.15266,0.574761 0.186581,1.165513 0.75989,1.324005 0.104676,0.03586 0.215176,0.0504 0.325665,0.04362 0.504489,0.01745 0.954704,-0.315493 1.085552,-0.803508 z"
       id="path9481"
       style="stroke-width:0.12406331" />
    <path
       inkscape:connector-curvature="0"
       d="m 57.981657,33.699944 c -0.03634,-1.606992 -0.581544,-3.160761 -1.556621,-4.438613 -0.975548,-1.27748 -2.33053,-2.212794 -3.871149,-2.671704 -0.130363,-5.50382 -4.222991,-9.932756 -9.227207,-9.932756 -2.095553,0.08384 -4.103769,0.860205 -5.71076,2.207954 -1.606992,1.34775 -2.721698,3.190289 -3.168948,5.238822 -0.828221,-0.179793 -1.683539,-0.198216 -2.518609,-0.05428 -1.20138,-0.558285 -2.506947,-0.858271 -3.831945,-0.879101 -2.25398,-2.758919 -5.632225,-4.354373 -9.194703,-4.342215 -3.025531,-0.0078 -5.941516,1.133529 -8.157658,3.193141 -2.2166398,2.059203 -3.5688055,4.883008 -3.7834355,7.901344 -3.1577831,0.710945 -5.7582742,2.940176 -6.94419569,5.952185 -1.18538771,3.01139 -0.8025405,6.414943 1.02255489,9.088135 1.8250953,2.673191 4.8559624,4.269018 8.0926497,4.26083 H 57.439402 c 3.886159,0 7.056102,-3.484442 7.056102,-7.772318 0.0761,-1.87162 -0.550045,-3.703911 -1.754871,-5.137462 -1.204769,-1.434048 -2.901973,-2.365887 -4.758455,-2.613518 z M 27.586148,47.051637 H 9.1317296 C 6.5394268,47.039037 4.13235,45.705799 2.7468113,43.51484 1.3607764,41.324379 1.1873354,38.577989 2.2869083,36.230463 c 1.0991268,-2.347526 3.3191898,-3.972879 5.8896578,-4.311696 0.5534336,-0.104194 0.9547043,-0.587366 0.9551881,-1.150488 0,-2.591311 1.0293408,-5.076423 2.8616448,-6.908342 1.831919,-1.832415 4.317031,-2.861645 6.908341,-2.861645 3.08806,-0.0097 5.995237,1.454395 7.826657,3.9405 0.222931,0.2995 0.583482,0.463302 0.955674,0.434221 h 0.303855 c 1.902139,0.003 3.726242,0.757468 5.074439,2.099896 1.348194,1.341868 2.111059,3.162621 2.122598,5.06476 v 1.139832 c -0.0028,0.421616 0.238435,0.806895 0.618864,0.988139 1.785397,0.856322 3.084588,2.478413 3.529975,4.407597 0.445361,1.929805 -0.01114,3.957 -1.24113,5.509156 -1.229492,1.552776 -3.098729,2.46092 -5.078905,2.469108 z m 14.112201,-6.513324 c -0.0035,-3.099597 -1.657858,-5.962359 -4.342216,-7.512157 v -0.488499 c 0.0011,-2.186616 -0.76764,-4.304377 -2.171107,-5.981216 0.27769,0.04313 0.561186,-0.03053 0.783149,-0.203054 0.221961,-0.172523 0.3625,-0.428888 0.389147,-0.708998 0.520969,-3.886159 3.517444,-6.817154 6.969382,-6.817154 3.734556,0 6.795322,3.332712 7.034268,7.522826 -0.01115,-0.216143 -0.08675,-0.424048 -0.217114,-0.597055 -0.372671,-0.465721 -1.051633,-0.543261 -1.519773,-0.17349 l -3.669049,2.930996 v -6.426604 c 0,-0.599474 -0.486082,-1.085554 -1.085555,-1.085554 -0.599474,0 -1.085552,0.48608 -1.085552,1.085554 v 4.98288 l -2.486107,-2.496775 c -0.425499,-0.425984 -1.115603,-0.425984 -1.541113,0 -0.425984,0.4255 -0.425984,1.115602 0,1.541114 l 4.02722,3.995211 -1.020622,16.945808 h -3.028384 c 1.877947,-1.644335 2.957669,-4.017046 2.9635,-6.513323 z M 57.4395,47.051637 h -7.598878 l 2.323334,-5.427769 h 4.732768 c 0.599473,0 1.085556,-0.48608 1.085556,-1.085555 0,-0.599474 -0.486083,-1.085554 -1.085556,-1.085554 h -4.7546 l -1.877948,-3.745222 c -0.293198,-0.487049 -0.912548,-0.665873 -1.419904,-0.409025 -0.507394,0.256365 -0.731291,0.861173 -0.512729,1.386035 l 1.943328,3.853655 -2.778771,6.513323 h -3.560989 l 0.922722,-15.686565 5.112772,-4.0926 h 3.51e-4 c 0.220016,-0.174458 0.363953,-0.427435 0.401755,-0.70561 v 0.293199 0.651333 c -0.0028,0.559736 0.420164,1.029825 0.977,1.085553 2.496773,0.238922 4.45077,2.69205 4.45077,5.56883 v 0.608196 c 0,0.287864 0.114373,0.56362 0.317911,0.767641 0.20354,0.203539 0.479777,0.317913 0.767642,0.317913 h 0.542779 c 2.724552,-0.01114 4.895658,2.507443 4.895658,5.590541 0,3.082725 -2.171106,5.60121 -4.884988,5.60121 z"
       id="path9475"
       style="stroke-width:0.12406331"
       clip-path="url(#clipPath9749)" />
    <g
       transform="translate(-66.023819,-115.9494)"
       id="g9657"
       inkscape:groupmode="layer"
       inkscape:label="Layer 1 copy" />
  </g>
</svg>
