<?xml version="1.0" encoding="UTF-8" standalone="no"?>
<!-- Created with Inkscape (http://www.inkscape.org/) -->

<svg
   width="69.236938mm"
   height="69.512177mm"
   viewBox="0 0 69.236938 69.512177"
   version="1.1"
   id="svg8462"
   inkscape:version="1.2.1 (2ed6d7ae0b, 2022-08-22, custom)"
   sodipodi:docname="icon2-noun-bush-4322941.svg"
   enable-background="new"
   xmlns:inkscape="http://www.inkscape.org/namespaces/inkscape"
   xmlns:sodipodi="http://sodipodi.sourceforge.net/DTD/sodipodi-0.dtd"
   xmlns:xlink="http://www.w3.org/1999/xlink"
   xmlns="http://www.w3.org/2000/svg"
   xmlns:svg="http://www.w3.org/2000/svg"
   xmlns:rdf="http://www.w3.org/1999/02/22-rdf-syntax-ns#"
   xmlns:cc="http://creativecommons.org/ns#"
   xmlns:dc="http://purl.org/dc/elements/1.1/">
  <defs
     id="defs8456">
    <linearGradient
       inkscape:collect="always"
       id="linearGradient9757">
      <stop
         style="stop-color:#119704;stop-opacity:1"
         offset="0"
         id="stop9753" />
      <stop
         id="stop9761"
         offset="0.68651402"
         style="stop-color:#c5c06c;stop-opacity:1" />
      <stop
         style="stop-color:#1197bc;stop-opacity:1"
         offset="1"
         id="stop9755" />
    </linearGradient>
    <symbol
       overflow="visible"
       id="n">
      <path
         id="path9431"
         d="m 29.312,-1.75 c -1.5117,0.78125 -3.0898,1.3711 -4.7344,1.7656 -1.6367,0.40625 -3.3398,0.60938 -5.1094,0.60938 -5.3125,0 -9.5273,-1.4844 -12.641,-4.4531 -3.1055,-2.9688 -4.6562,-7 -4.6562,-12.094 0,-5.094 1.5508,-9.125 4.6562,-12.094 3.1133,-2.9688 7.3281,-4.4531 12.641,-4.4531 1.7695,0 3.4727,0.19922 5.1094,0.59375 1.6445,0.39844 3.2227,0.99219 4.7344,1.7812 v 6.5938 c -1.5312,-1.0391 -3.0391,-1.8008 -4.5156,-2.2812 -1.4805,-0.48828 -3.0391,-0.73438 -4.6719,-0.73438 -2.9375,0 -5.2461,0.94531 -6.9219,2.8281 -1.6797,1.875 -2.5156,4.4648 -2.5156,7.7656 0,3.293 0.83594,5.8828 2.5156,7.7656 1.6758,1.875 3.9844,2.8125 6.9219,2.8125 1.6328,0 3.1914,-0.23828 4.6719,-0.71875 1.4766,-0.48828 2.9844,-1.2539 4.5156,-2.2969 z" />
    </symbol>
    <symbol
       overflow="visible"
       id="h">
      <path
         id="path9434"
         d="m 21.453,-17.406 c -0.67969,-0.3125 -1.3516,-0.53906 -2.0156,-0.6875 -0.65625,-0.15625 -1.3203,-0.23438 -1.9844,-0.23438 -1.9688,0 -3.4844,0.63281 -4.5469,1.8906 -1.0547,1.2617 -1.5781,3.0703 -1.5781,5.4219 V 6.2e-4 H 3.6718 v -23.922 h 7.6562 v 3.9219 c 0.97656,-1.5625 2.1016,-2.7031 3.375,-3.4219 1.2812,-0.71875 2.8125,-1.0781 4.5938,-1.0781 0.25,0 0.52344,0.01172 0.82812,0.03125 0.30078,0.02344 0.73438,0.07031 1.2969,0.14062 z" />
    </symbol>
    <symbol
       overflow="visible"
       id="c">
      <path
         id="path9437"
         d="m 27.562,-12.031 v 2.1875 H 9.671 c 0.1875,1.793 0.83203,3.1367 1.9375,4.0312 1.1133,0.89844 2.6719,1.3438 4.6719,1.3438 1.6016,0 3.25,-0.23438 4.9375,-0.70312 1.6875,-0.47656 3.4219,-1.2031 5.2031,-2.1719 v 5.8906 c -1.8047,0.6875 -3.6094,1.2031 -5.4219,1.5469 -1.8125,0.35156 -3.6211,0.53125 -5.4219,0.53125 -4.3359,0 -7.7031,-1.0977 -10.109,-3.2969 -2.3984,-2.207 -3.5938,-5.2969 -3.5938,-9.2656 0,-3.9062 1.1758,-6.9727 3.5312,-9.2031 2.3633,-2.2383 5.6094,-3.3594 9.7344,-3.3594 3.7578,0 6.7695,1.1367 9.0312,3.4062 2.2578,2.2617 3.3906,5.2812 3.3906,9.0625 z m -7.8594,-2.5312 c 0,-1.457 -0.42969,-2.6289 -1.2812,-3.5156 -0.84375,-0.89453 -1.9492,-1.3438 -3.3125,-1.3438 -1.4922,0 -2.6992,0.41797 -3.625,1.25 -0.91797,0.83594 -1.4922,2.0391 -1.7188,3.6094 z" />
    </symbol>
    <symbol
       overflow="visible"
       id="a">
      <path
         id="path9440"
         d="m 14.391,-10.766 c -1.5938,0 -2.793,0.27344 -3.5938,0.8125 -0.80469,0.54297 -1.2031,1.3398 -1.2031,2.3906 0,0.96875 0.32031,1.7305 0.96875,2.2812 0.64453,0.54297 1.5469,0.8125 2.7031,0.8125 1.4375,0 2.6445,-0.51562 3.625,-1.5469 0.98828,-1.0312 1.4844,-2.3203 1.4844,-3.875 v -0.875 z m 11.688,-2.8906 V -6e-4 h -7.7031 v -3.5469 c -1.0312,1.4492 -2.1875,2.5078 -3.4688,3.1719 -1.2813,0.6641 -2.8398,1 -4.6719,1 -2.4805,0 -4.4961,-0.72266 -6.0469,-2.1719 -1.543,-1.4453 -2.3125,-3.3203 -2.3125,-5.625 0,-2.8125 0.96094,-4.8672 2.8906,-6.1719 1.9375,-1.3125 4.9688,-1.9688 9.0938,-1.9688 h 4.5156 v -0.60938 c 0,-1.207 -0.48047,-2.0938 -1.4375,-2.6562 -0.94922,-0.5625 -2.4375,-0.84375 -4.4688,-0.84375 -1.6367,0 -3.1562,0.16797 -4.5625,0.5 -1.4062,0.32422 -2.7188,0.8125 -3.9375,1.4688 v -5.8281 c 1.6445,-0.40625 3.2891,-0.70703 4.9375,-0.90625 1.6562,-0.20703 3.3047,-0.3125 4.9531,-0.3125 4.3203,0 7.4375,0.85547 9.3438,2.5625 1.9141,1.6992 2.875,4.4609 2.875,8.2812 z" />
    </symbol>
    <symbol
       overflow="visible"
       id="b">
      <path
         id="path9443"
         d="m 12.031,-30.719 v 6.7969 h 7.875 v 5.4688 h -7.875 v 10.141 c 0,1.1172 0.21875,1.8711 0.65625,2.2656 0.4375,0.38672 1.3125,0.57812 2.625,0.57812 h 3.9375 v 5.4688 h -6.5625 c -3.0234,0 -5.1641,-0.62891 -6.4219,-1.8906 -1.2617,-1.2578 -1.8906,-3.3984 -1.8906,-6.4219 v -10.141 h -3.7969 v -5.4688 h 3.7969 v -6.7969 z" />
    </symbol>
    <symbol
       overflow="visible"
       id="g">
      <path
         id="path9446"
         d="m 19.953,-20.422 v -12.812 h 7.6875 V 0 H 19.953 v -3.4531 c -1.0547,1.4062 -2.2148,2.4375 -3.4844,3.0938 -1.2734,0.65625 -2.7422,0.98438 -4.4062,0.98438 -2.9492,0 -5.3711,-1.1719 -7.2656,-3.5156 -1.8867,-2.3438 -2.8281,-5.3594 -2.8281,-9.0469 0,-3.6875 0.94141,-6.7031 2.8281,-9.0469 1.8945,-2.3438 4.3164,-3.5156 7.2656,-3.5156 1.6562,0 3.1172,0.33594 4.3906,1 1.2812,0.65625 2.4453,1.6836 3.5,3.0781 z m -5.0469,15.484 c 1.6445,0 2.8945,-0.59766 3.75,-1.7969 0.86328,-1.1953 1.2969,-2.9297 1.2969,-5.2031 0,-2.2812 -0.43359,-4.0195 -1.2969,-5.2188 -0.85547,-1.1953 -2.1055,-1.7969 -3.75,-1.7969 -1.625,0 -2.8711,0.60156 -3.7344,1.7969 -0.85547,1.1992 -1.2812,2.9375 -1.2812,5.2188 0,2.2734 0.42578,4.0078 1.2812,5.2031 0.86328,1.1992 2.1094,1.7969 3.7344,1.7969 z" />
    </symbol>
    <symbol
       overflow="visible"
       id="f">
      <path
         id="path9449"
         d="m 16.406,-4.9375 c 1.6328,0 2.8828,-0.59766 3.75,-1.7969 0.86328,-1.1953 1.2969,-2.9297 1.2969,-5.2031 0,-2.2812 -0.43359,-4.0195 -1.2969,-5.2188 -0.86719,-1.1953 -2.1172,-1.7969 -3.75,-1.7969 -1.6367,0 -2.8906,0.60547 -3.7656,1.8125 -0.875,1.1992 -1.3125,2.9336 -1.3125,5.2031 0,2.2617 0.4375,3.9961 1.3125,5.2031 0.875,1.1992 2.1289,1.7969 3.7656,1.7969 z m -5.0781,-15.484 c 1.0508,-1.3945 2.2188,-2.4219 3.5,-3.0781 1.2812,-0.66406 2.7539,-1 4.4219,-1 2.9453,0 5.3672,1.1719 7.2656,3.5156 1.8945,2.3438 2.8438,5.3594 2.8438,9.0469 0,3.6875 -0.94922,6.7031 -2.8438,9.0469 -1.8984,2.3438 -4.3203,3.5156 -7.2656,3.5156 -1.668,0 -3.1406,-0.33594 -4.4219,-1 -1.2813,-0.66406 -2.4492,-1.6914 -3.5,-3.0781 V 4e-4 H 3.6717 v -33.234 h 7.6562 z" />
    </symbol>
    <symbol
       overflow="visible"
       id="e">
      <path
         id="path9452"
         d="m 0.53125,-23.922 h 7.6562 l 6.4219,16.234 5.4688,-16.234 h 7.6562 l -10.062,26.188 c -1.0117,2.6641 -2.1953,4.5234 -3.5469,5.5781 -1.3438,1.0625 -3.1211,1.5938 -5.3281,1.5938 H 4.37545 V 4.4223 h 2.3906 c 1.3008,0 2.2422,-0.21094 2.8281,-0.625 0.59375,-0.40625 1.0547,-1.1484 1.3906,-2.2188 l 0.20312,-0.65625 z" />
    </symbol>
    <symbol
       overflow="visible"
       id="d">
      <path
         id="path9455"
         d="m 26.219,-30.891 v 6.75 c -1.7617,-0.78125 -3.4766,-1.3672 -5.1406,-1.7656 -1.668,-0.40625 -3.2422,-0.60938 -4.7188,-0.60938 -1.9609,0 -3.4141,0.27344 -4.3594,0.8125 -0.9375,0.54297 -1.4062,1.3867 -1.4062,2.5312 0,0.85547 0.31641,1.5234 0.95312,2 0.63281,0.46875 1.7852,0.875 3.4531,1.2188 l 3.5,0.70312 c 3.5391,0.71875 6.0625,1.8047 7.5625,3.25 1.5,1.4492 2.25,3.5117 2.25,6.1875 0,3.5234 -1.0469,6.1406 -3.1406,7.8594 -2.0859,1.7188 -5.2734,2.5781 -9.5625,2.5781 -2.0234,0 -4.0547,-0.19531 -6.0938,-0.57812 -2.0312,-0.38281 -4.0625,-0.95703 -6.0938,-1.7188 v -6.9375 c 2.0312,1.0859 3.9922,1.9023 5.8906,2.4531 1.9062,0.54297 3.7422,0.8125 5.5156,0.8125 1.7891,0 3.1602,-0.29688 4.1094,-0.89062 0.95703,-0.60156 1.4375,-1.457 1.4375,-2.5625 0,-1 -0.32422,-1.7695 -0.96875,-2.3125 -0.64844,-0.53906 -1.9375,-1.0234 -3.875,-1.4531 l -3.1875,-0.70312 c -3.1875,-0.6875 -5.5234,-1.7734 -7,-3.2656 -1.4688,-1.5 -2.2031,-3.5156 -2.2031,-6.0469 0,-3.1758 1.0234,-5.6172 3.0781,-7.3281 2.0508,-1.707 5,-2.5625 8.8438,-2.5625 1.75,0 3.5508,0.13281 5.4062,0.39062 1.8516,0.26172 3.7695,0.65625 5.75,1.1875 z" />
    </symbol>
    <symbol
       overflow="visible"
       id="m">
      <path
         id="path9458"
         d="m 1.5312,-23.922 h 7.4375 l 4.0156,16.484 4.0469,-16.484 h 6.375 l 4.0156,16.312 4.0469,-16.312 h 7.4375 L 32.5937,0 H 24.2499 L 20.203,-16.453 16.1874,0 H 7.8436 Z" />
    </symbol>
    <symbol
       overflow="visible"
       id="l">
      <path
         id="path9461"
         d="M 23.375,-5.8125 H 10.516 L 8.4848,0 H 0.2192 l 11.812,-31.891 h 9.7969 L 33.6401,0 h -8.2656 z m -10.812,-5.9219 h 8.7344 l -4.3594,-12.688 z" />
    </symbol>
    <symbol
       overflow="visible"
       id="k">
      <path
         id="path9464"
         d="M 27.734,-14.562 V 0 h -7.7031 v -11.156 c 0,-2.0625 -0.04687,-3.4844 -0.14062,-4.2656 -0.08594,-0.78125 -0.24219,-1.3594 -0.46875,-1.7344 -0.30469,-0.5 -0.71094,-0.88281 -1.2188,-1.1562 -0.51172,-0.28125 -1.0938,-0.42188 -1.75,-0.42188 -1.5938,0 -2.8516,0.61719 -3.7656,1.8438 -0.90625,1.2305 -1.3594,2.9375 -1.3594,5.125 v 11.766 h -7.6562 v -23.922 h 7.6562 v 3.5 c 1.1445,-1.3945 2.3633,-2.4219 3.6562,-3.0781 1.3008,-0.66406 2.7383,-1 4.3125,-1 2.7578,0 4.8516,0.85156 6.2812,2.5469 1.4375,1.6875 2.1562,4.1523 2.1562,7.3906 z" />
    </symbol>
    <symbol
       overflow="visible"
       id="j">
      <path
         id="path9467"
         d="m 3.4219,-9.3125 v -14.609 h 7.6875 v 2.3906 c 0,1.293 -0.01172,2.918 -0.03125,4.875 -0.01172,1.9609 -0.01563,3.2656 -0.01563,3.9219 0,1.9297 0.04687,3.3125 0.14062,4.1562 0.10156,0.84375 0.28125,1.4609 0.53125,1.8438 0.3125,0.5 0.71875,0.88672 1.2188,1.1562 0.50781,0.27344 1.0938,0.40625 1.75,0.40625 1.5938,0 2.8438,-0.60938 3.75,-1.8281 0.91406,-1.2266 1.375,-2.9297 1.375,-5.1094 v -11.812 h 7.6406 v 23.922 h -7.6406 v -3.4531 c -1.1562,1.3867 -2.3828,2.4141 -3.6719,3.0781 -1.2812,0.66406 -2.6992,1 -4.25,1 -2.7734,0 -4.8828,-0.84766 -6.3281,-2.5469 -1.4375,-1.6953 -2.1562,-4.1602 -2.1562,-7.3906 z" />
    </symbol>
    <symbol
       overflow="visible"
       id="i">
      <path
         id="path9470"
         d="m 3.6719,-33.234 h 7.6562 v 18.094 l 8.7969,-8.7812 h 8.8906 l -11.688,10.969 12.594,12.953 H 20.656 L 11.3279,-9.968 V 8e-4 H 3.6717 Z" />
    </symbol>
    <linearGradient
       inkscape:collect="always"
       xlink:href="#linearGradient9757"
       id="linearGradient9759"
       x1="98.907745"
       y1="179.13243"
       x2="98.462807"
       y2="116.1994"
       gradientUnits="userSpaceOnUse" />
    <clipPath
       clipPathUnits="userSpaceOnUse"
       id="clipPath1971">
      <circle
         r="32.000004"
         cy="32.000004"
         cx="32.000004"
         id="circle1973"
         style="display:inline;opacity:1;fill:#000000;fill-opacity:1;stroke:none;stroke-width:2.582;stroke-miterlimit:4;stroke-dasharray:none;stroke-dashoffset:0;stroke-opacity:1" />
    </clipPath>
    <filter
       style="color-interpolation-filters:sRGB"
       inkscape:label="Drop Shadow"
       id="filter2897"
       x="-0.030625"
       y="-0.030625"
       width="1.0818272"
       height="1.0861277">
      <feFlood
         flood-opacity="0.498039"
         flood-color="rgb(0,0,0)"
         result="flood"
         id="feFlood2887" />
      <feComposite
         in="flood"
         in2="SourceGraphic"
         operator="in"
         result="composite1"
         id="feComposite2889" />
      <feGaussianBlur
         in="composite1"
         stdDeviation="0.4"
         result="blur"
         id="feGaussianBlur2891" />
      <feOffset
         dx="1.31694"
         dy="1.59217"
         result="offset"
         id="feOffset2893" />
      <feComposite
         in="SourceGraphic"
         in2="offset"
         operator="over"
         result="composite2"
         id="feComposite2895" />
    </filter>
  </defs>
  <sodipodi:namedview
     id="base"
     pagecolor="#ffffff"
     bordercolor="#666666"
     borderopacity="1.0"
     inkscape:pageopacity="0.0"
     inkscape:pageshadow="2"
     inkscape:zoom="2.8"
     inkscape:cx="96.428571"
     inkscape:cy="99.642857"
     inkscape:document-units="mm"
     inkscape:current-layer="layer1"
     showgrid="false"
     fit-margin-top="0"
     fit-margin-left="0"
     fit-margin-right="0"
     fit-margin-bottom="-2.7755576e-17"
     inkscape:window-width="1867"
     inkscape:window-height="1053"
     inkscape:window-x="53"
     inkscape:window-y="27"
     inkscape:window-maximized="1"
     inkscape:showpageshadow="2"
     inkscape:pagecheckerboard="0"
     inkscape:deskcolor="#d1d1d1" />
  <metadata
     id="metadata8459">
    <rdf:RDF>
      <cc:Work
         rdf:about="">
        <dc:format>image/svg+xml</dc:format>
        <dc:type
           rdf:resource="http://purl.org/dc/dcmitype/StillImage" />
      </cc:Work>
    </rdf:RDF>
  </metadata>
  <g
     inkscape:label="Layer 1"
     inkscape:groupmode="layer"
     id="layer1"
     transform="translate(-64.063819,-113.9894)"
     style="display:inline;filter:url(#filter2897)">
    <circle
       style="opacity:1;fill:url(#linearGradient9759);fill-opacity:1;stroke:#000000;stroke-width:2;stroke-miterlimit:4;stroke-dasharray:none;stroke-dashoffset:0;stroke-opacity:1"
       id="path8464"
       cx="98.023819"
       cy="147.9494"
       r="32" />
  </g>
  <g
     inkscape:groupmode="layer"
     id="layer2"
     inkscape:label="Layer 2"
     transform="translate(1.9600001,1.9599982)">
    <g
       id="g1965"
       clip-path="url(#clipPath1971)"
       style="stroke:#000000;stroke-width:0.2;stroke-dasharray:none;stroke-opacity:1">
      <path
         inkscape:connector-curvature="0"
         d="m 15.569375,45.565359 -1.910327,-4.765768 2.757555,-2.746389 h -4.92e-4 c 0.425984,-0.4255 0.425984,-1.115603 0,-1.541115 -0.4255,-0.425984 -1.115602,-0.425984 -1.541115,0 L 12.790609,38.607144 11.227163,34.70982 C 11.005201,34.152502 10.373744,33.880146 9.8159425,34.102107 9.2586251,34.324069 8.9862689,34.955526 9.208231,35.513328 l 0.7056098,1.769391 H 6.9610102 c -0.5994741,0 -1.0855541,0.48608 -1.0855541,1.085553 0,0.599474 0.48608,1.085554 1.0855541,1.085554 h 3.8212738 l 0.597055,1.497941 2.171108,5.42777 c 0.168167,0.409024 0.56749,0.675562 1.009466,0.673142 0.137635,4.93e-4 0.273807,-0.02568 0.401754,-0.07608 0.268002,-0.106132 0.482681,-0.314525 0.596571,-0.57961 0.113886,-0.264603 0.118247,-0.563621 0.01115,-0.831609 z"
         id="path9477"
         style="display:inline;stroke:#000000;stroke-width:0.2;stroke-dasharray:none;stroke-opacity:1" />
      <path
         inkscape:connector-curvature="0"
         d="m 25.154504,28.59846 -3.25666,0.814166 0.260732,-1.758722 c 0.07803,-0.599474 -0.345045,-1.148553 -0.944532,-1.226576 -0.599486,-0.07802 -1.148553,0.345045 -1.226576,0.944531 l -0.293199,2.312168 -2.095057,-2.82244 c -0.359585,-0.479778 -1.039998,-0.576696 -1.519776,-0.217111 -0.479777,0.359585 -0.576695,1.039998 -0.21711,1.519775 l 3.256661,4.342217 c 0.04992,0.05621 0.108556,0.103709 0.173491,0.141022 l -1.476106,11.007765 c -0.03974,0.288348 0.03731,0.580579 0.215176,0.811263 0.177373,0.230683 0.440523,0.380427 0.729355,0.415326 h 0.141023 c 0.548595,0.0048 1.014317,-0.400786 1.085554,-0.94453 l 1.628331,-12.18004 4.060221,-0.987655 c 0.599473,-0.143939 0.968761,-0.746316 0.82482,-1.346336 -0.143937,-0.599474 -0.746315,-0.96876 -1.346334,-0.824823 z"
         id="path9479"
         style="display:inline;stroke:#000000;stroke-width:0.2;stroke-dasharray:none;stroke-opacity:1" />
      <path
         inkscape:connector-curvature="0"
         d="m 28.671699,46.248948 1.226578,-4.624212 h 0.119218 l 4.342215,-1.085554 h 3.52e-4 c 0.599477,-0.143938 0.968761,-0.746315 0.824823,-1.346335 -0.143937,-0.599474 -0.746315,-0.968761 -1.346334,-0.824822 l -3.256662,0.824822 1.346333,-4.884993 c 0.156049,-0.599474 -0.203535,-1.211553 -0.803508,-1.36755 -0.599473,-0.156046 -1.211551,0.203539 -1.36755,0.803508 L 28.8451,37.054814 26.141886,34.34093 h 3.52e-4 c -0.425985,-0.425984 -1.116085,-0.425984 -1.541611,0 -0.4255,0.4255 -0.4255,1.115601 0,1.541114 l 3.256662,3.256662 c 0.103224,0.09886 0.224865,0.176405 0.358133,0.228252 l -1.715051,6.318047 c -0.15266,0.574761 0.186581,1.165513 0.75989,1.324005 0.104676,0.03586 0.215176,0.0504 0.325665,0.04362 0.504489,0.01745 0.954704,-0.315493 1.085552,-0.803508 z"
         id="path9481"
         style="display:inline;stroke:#000000;stroke-width:0.2;stroke-dasharray:none;stroke-opacity:1" />
      <path
         inkscape:connector-curvature="0"
         d="m 57.981657,33.699944 c -0.03634,-1.606992 -0.581544,-3.160761 -1.556621,-4.438613 -0.975548,-1.27748 -2.33053,-2.212794 -3.871149,-2.671704 -0.130363,-5.50382 -4.222991,-9.932756 -9.227207,-9.932756 -2.095553,0.08384 -4.103769,0.860205 -5.71076,2.207954 -1.606992,1.34775 -2.721698,3.190289 -3.168948,5.238822 -0.828221,-0.179793 -1.683539,-0.198216 -2.518609,-0.05428 -1.20138,-0.558285 -2.506947,-0.858271 -3.831945,-0.879101 -2.25398,-2.758919 -5.632225,-4.354373 -9.194703,-4.342215 -3.025531,-0.0078 -5.941516,1.133529 -8.157658,3.193141 -2.2166398,2.059203 -3.5688055,4.883008 -3.7834355,7.901344 -3.1577831,0.710945 -5.7582742,2.940176 -6.94419569,5.952185 -1.18538771,3.01139 -0.8025405,6.414943 1.02255489,9.088135 1.8250953,2.673191 4.8559624,4.269018 8.0926497,4.26083 H 57.439402 c 3.886159,0 7.056102,-3.484442 7.056102,-7.772318 0.0761,-1.87162 -0.550045,-3.703911 -1.754871,-5.137462 -1.204769,-1.434048 -2.901973,-2.365887 -4.758455,-2.613518 z M 27.586148,47.051637 H 9.1317296 C 6.5394268,47.039037 4.13235,45.705799 2.7468113,43.51484 1.3607764,41.324379 1.1873354,38.577989 2.2869083,36.230463 c 1.0991268,-2.347526 3.3191898,-3.972879 5.8896578,-4.311696 0.5534336,-0.104194 0.9547043,-0.587366 0.9551881,-1.150488 0,-2.591311 1.0293408,-5.076423 2.8616448,-6.908342 1.831919,-1.832415 4.317031,-2.861645 6.908341,-2.861645 3.08806,-0.0097 5.995237,1.454395 7.826657,3.9405 0.222931,0.2995 0.583482,0.463302 0.955674,0.434221 h 0.303855 c 1.902139,0.003 3.726242,0.757468 5.074439,2.099896 1.348194,1.341868 2.111059,3.162621 2.122598,5.06476 v 1.139832 c -0.0028,0.421616 0.238435,0.806895 0.618864,0.988139 1.785397,0.856322 3.084588,2.478413 3.529975,4.407597 0.445361,1.929805 -0.01114,3.957 -1.24113,5.509156 -1.229492,1.552776 -3.098729,2.46092 -5.078905,2.469108 z m 14.112201,-6.513324 c -0.0035,-3.099597 -1.657858,-5.962359 -4.342216,-7.512157 v -0.488499 c 0.0011,-2.186616 -0.76764,-4.304377 -2.171107,-5.981216 0.27769,0.04313 0.561186,-0.03053 0.783149,-0.203054 0.221961,-0.172523 0.3625,-0.428888 0.389147,-0.708998 0.520969,-3.886159 3.517444,-6.817154 6.969382,-6.817154 3.734556,0 6.795322,3.332712 7.034268,7.522826 -0.01115,-0.216143 -0.08675,-0.424048 -0.217114,-0.597055 -0.372671,-0.465721 -1.051633,-0.543261 -1.519773,-0.17349 l -3.669049,2.930996 v -6.426604 c 0,-0.599474 -0.486082,-1.085554 -1.085555,-1.085554 -0.599474,0 -1.085552,0.48608 -1.085552,1.085554 v 4.98288 l -2.486107,-2.496775 c -0.425499,-0.425984 -1.115603,-0.425984 -1.541113,0 -0.425984,0.4255 -0.425984,1.115602 0,1.541114 l 4.02722,3.995211 -1.020622,16.945808 h -3.028384 c 1.877947,-1.644335 2.957669,-4.017046 2.9635,-6.513323 z M 57.4395,47.051637 h -7.598878 l 2.323334,-5.427769 h 4.732768 c 0.599473,0 1.085556,-0.48608 1.085556,-1.085555 0,-0.599474 -0.486083,-1.085554 -1.085556,-1.085554 h -4.7546 l -1.877948,-3.745222 c -0.293198,-0.487049 -0.912548,-0.665873 -1.419904,-0.409025 -0.507394,0.256365 -0.731291,0.861173 -0.512729,1.386035 l 1.943328,3.853655 -2.778771,6.513323 h -3.560989 l 0.922722,-15.686565 5.112772,-4.0926 h 3.51e-4 c 0.220016,-0.174458 0.363953,-0.427435 0.401755,-0.70561 v 0.293199 0.651333 c -0.0028,0.559736 0.420164,1.029825 0.977,1.085553 2.496773,0.238922 4.45077,2.69205 4.45077,5.56883 v 0.608196 c 0,0.287864 0.114373,0.56362 0.317911,0.767641 0.20354,0.203539 0.479777,0.317913 0.767642,0.317913 h 0.542779 c 2.724552,-0.01114 4.895658,2.507443 4.895658,5.590541 0,3.082725 -2.171106,5.60121 -4.884988,5.60121 z"
         id="path9475"
         style="display:inline;fill:#000000;stroke:#000000;stroke-width:0.2;stroke-dasharray:none;stroke-opacity:1"
         clip-path="none" />
      <path
         style="opacity:1;fill:#008000;stroke:#000000;stroke-width:0.755906;stroke-dasharray:none;stroke-opacity:1"
         d="m 27.73211,176.75943 c -5.713871,-1.4039 -11.22627,-4.88952 -15.07947,-9.53508 -2.2487,-2.71112 -4.8048643,-7.68748 -5.7288229,-11.15292 -0.8725606,-3.27266 -0.8684651,-10.39147 0.00791,-13.75 1.8366475,-7.03859 5.9539489,-12.901 11.7675459,-16.7552 3.403247,-2.25623 6.31005,-3.49942 10.143596,-4.33824 4.869091,-1.06542 5.566356,-1.88906 5.934764,-7.01038 0.417752,-5.80725 1.663792,-10.19467 4.30581,-15.161147 5.182393,-9.741891 14.253524,-16.500146 25.20227,-18.776426 4.414933,-0.917879 11.960854,-0.74365 16.134082,0.372521 7.340022,1.963162 12.651161,5.217331 18.287261,11.204715 l 3.748804,3.982453 3.86135,0.258058 c 4.7639,0.318376 7.66214,1.041219 11.36136,2.8336 5.32276,2.579036 9.6541,6.914746 12.30622,12.318616 1.96889,4.01174 2.5636,6.68644 2.83227,12.73804 0.26799,6.03622 0.27894,6.05916 3.77112,7.89708 1.31593,0.69258 3.36068,2.3281 5.22575,4.17989 4.90632,4.87143 7.13079,10.13771 7.17508,16.98651 0.0449,6.93902 -2.18549,12.30809 -7.19316,17.31576 -3.4945,3.4945 -6.59682,5.3171 -10.94209,6.42843 -2.44038,0.62415 -3.97351,0.70429 -13.47315,0.70429 H 106.6612 l 0.79813,-0.84956 c 0.58271,-0.62028 1.44995,-3.29509 3.21327,-9.91072 l 2.41516,-9.06115 8.69611,-2.20827 c 8.70594,-2.21076 10.10836,-2.77604 10.99877,-4.4333 0.67102,-1.24891 0.32329,-3.76186 -0.66631,-4.81524 -1.68168,-1.79007 -2.72906,-1.7895 -9.67358,0.005 -6.76806,1.74919 -6.85499,1.76711 -6.6057,1.36224 0.0907,-0.14733 1.31886,-4.48405 2.72923,-9.63716 2.31132,-8.44497 2.5238,-9.49203 2.15375,-10.61331 -1.00559,-3.04696 -4.5449,-4.06306 -6.91229,-1.98446 -1.05474,0.92607 -1.36947,1.62886 -2.35905,5.26785 -0.62806,2.30957 -1.465,5.30479 -1.85988,6.65604 l -0.71795,2.45681 -5.62135,-5.5818 -5.621342,-5.58182 h -1.706943 c -1.465036,0 -1.879025,0.17208 -2.921225,1.21428 -0.990789,0.99079 -1.214286,1.48707 -1.214286,2.69631 0,0.81511 0.225975,1.91601 0.502168,2.44643 0.276189,0.53043 3.554514,3.97679 7.285164,7.65859 l 6.783004,6.69419 -3.17803,11.62545 C 101.43011,167.30068 100,173.15543 100,173.91724 c 0,0.96907 0.27772,1.71515 0.9246,2.48393 L 101.84921,177.5 H 79.685368 57.521525 l 0.882096,-1.29984 c 0.48515,-0.71491 0.882093,-1.76036 0.882093,-2.32322 0,-0.56286 -1.665575,-5.18356 -3.701275,-10.26821 l -3.701275,-9.24482 5.326543,-5.32655 c 5.694857,-5.69485 6.569829,-7.04183 5.968654,-9.18845 -0.50909,-1.8178 -2.190422,-3.0632 -4.135447,-3.0632 -1.645639,0 -1.699271,0.0387 -6.155082,4.44443 l -4.494975,4.44442 -3.013253,-7.56942 c -3.426961,-8.60867 -4.059515,-9.5345 -6.512846,-9.53238 -2.174764,0.002 -3.720436,1.03456 -4.264003,2.84883 -0.441121,1.47233 -0.178705,2.4354 2.361755,8.6677 0.236402,0.57994 -0.160748,0.625 -5.509199,0.625 -4.173592,0 -6.099153,0.14005 -6.978776,0.50757 -2.101586,0.8781 -2.951177,3.69093 -1.791918,5.93269 1.011604,1.95623 1.856857,2.13116 10.297142,2.13116 h 7.660087 l 5.2346,13.125 c 2.879029,7.21875 5.551925,13.56697 5.939768,14.10715 L 52.521382,177.5 41.52855,177.47414 c -9.59297,-0.0226 -11.349856,-0.11358 -13.79644,-0.71471 z m 46.278526,-7.81875 c 0.490975,-0.3862 1.073025,-1.14959 1.29345,-1.69643 0.220425,-0.54684 1.7801,-11.35806 3.465943,-24.02494 1.685842,-12.66688 3.094214,-23.05125 3.129714,-23.07637 0.0355,-0.0251 3.600257,-0.89073 7.921686,-1.92357 4.321428,-1.03285 8.146992,-2.02928 8.501253,-2.21429 0.980557,-0.51209 2.031628,-2.47177 2.033128,-3.79067 0.003,-2.42615 -1.863606,-4.36892 -4.17736,-4.3484 -0.549932,0.005 -3.777646,0.71113 -7.172696,1.56945 -5.180036,1.30959 -6.145647,1.46612 -6.003883,0.97327 0.464686,-1.61549 0.96354,-6.35038 0.774965,-7.35558 -0.117868,-0.62828 -0.704997,-1.61244 -1.304736,-2.18702 -0.903111,-0.86524 -1.391979,-1.044701 -2.845825,-1.044701 -1.491764,0 -1.923871,0.168475 -2.877193,1.121791 -1.035603,1.03561 -1.162125,1.43349 -1.646732,5.17858 -0.288718,2.23122 -0.6319,4.34434 -0.762625,4.6958 -0.184518,0.49609 -1.115907,-0.54248 -4.163704,-4.64285 -4.638946,-6.241032 -5.65836,-7.017911 -8.095082,-6.16916 -0.99546,0.34674 -1.814575,0.96253 -2.367889,1.78012 -1.560954,2.30651 -1.254064,2.94284 6.251825,12.96299 l 6.742686,9.0013 -2.817643,20.9958 c -1.559057,11.61739 -2.713943,21.40896 -2.585489,21.92076 0.127682,0.50873 0.6937,1.38652 1.257817,1.95063 0.852743,0.85274 1.323243,1.02567 2.79069,1.02567 1.214096,0 2.04366,-0.21918 2.6577,-0.70218 z"
         id="path1948"
         transform="scale(0.26458333)" />
      <path
         style="opacity:1;fill:#008000;stroke:#000000;stroke-width:0.755906;stroke-dasharray:none;stroke-opacity:1"
         d="m 149.34765,175.04638 c 5.59328,-6.04126 9.01932,-15.89155 8.33875,-23.97495 -0.50378,-5.98347 -2.77367,-12.35171 -6.02683,-16.9084 -1.8628,-2.60922 -6.71724,-7.33523 -8.7164,-8.4858 l -1.41839,-0.81632 -0.2323,-3.59319 c -0.42985,-6.64868 -2.4744,-12.84189 -5.91211,-17.90859 -1.55081,-2.28567 -1.72014,-2.69513 -1.18425,-2.86356 2.45689,-0.772208 3.00736,-1.533674 3.64308,-5.039487 2.51054,-13.844796 13.49438,-24.027512 25.91787,-24.027512 7.32971,0 14.22605,3.417801 19.29416,9.562112 3.1739,3.847865 5.98943,10.133393 6.73351,15.032247 l 0.23675,1.558644 -1.10958,-0.933644 c -1.34112,-1.12848 -3.23643,-1.234 -4.81993,-0.268346 -0.59763,0.364445 -3.9318,2.935272 -7.40927,5.712946 -3.47747,2.77768 -6.40368,5.05033 -6.50269,5.05033 -0.099,0 -0.18002,-5.55263 -0.18002,-12.339167 0,-13.544019 -0.0507,-13.900373 -2.13117,-14.976219 -1.79022,-0.925761 -3.42002,-0.700771 -4.92765,0.680253 l -1.33404,1.222012 -0.11055,9.891042 -0.11056,9.891039 -4.91165,-4.834285 c -3.95599,-3.893677 -5.1649,-4.881795 -6.2132,-5.078459 -1.83549,-0.344339 -3.81723,0.682579 -4.66488,2.417295 -1.21114,2.47859 -0.94271,2.878914 7.88479,11.758779 l 8.04883,8.09657 -1.9114,31.81414 -1.91139,31.81414 h -5.31558 -5.31557 z"
         id="path1950"
         transform="scale(0.26458333)" />
      <path
         style="opacity:1;fill:#008000;stroke:#000000;stroke-width:0.755906;stroke-dasharray:none;stroke-opacity:1"
         d="m 167.91717,149.19643 c 0.92586,-15.56697 1.6929,-28.79591 1.70454,-29.39766 0.0192,-0.99546 0.86625,-1.76764 9.39615,-8.56603 5.15625,-4.10957 9.81696,-7.93333 10.35714,-8.49725 l 0.98214,-1.02532 v 1.99643 c 0,2.89295 1.05618,3.96033 4.64286,4.69213 3.97054,0.81012 6.22044,2.05162 9.32259,5.1442 4.28945,4.27623 5.93137,8.31665 6.36494,15.66281 0.23057,3.90669 0.27141,4.0609 1.36553,5.15502 1.07522,1.07522 1.2995,1.1393 4.80526,1.37305 2.20325,0.1469 4.48884,0.53508 5.70163,0.96835 7.46219,2.66587 12.78479,10.95278 12.78479,19.90498 0,8.35466 -4.42409,15.97272 -11.21826,19.31731 l -2.83782,1.39698 -16.18004,0.10305 c -8.89903,0.0567 -16.18013,-0.0237 -16.18023,-0.17858 -1e-4,-0.15489 1.87567,-4.66108 4.16839,-10.01376 L 197.26535,157.5 h 9.25978 c 7.53493,0 9.47233,-0.10086 10.40087,-0.54149 2.17725,-1.03317 2.99733,-3.80462 1.75041,-5.91549 -1.16686,-1.97533 -1.97027,-2.11445 -12.2109,-2.11445 h -9.3194 l -3.74763,-7.48876 c -4.00161,-7.99629 -4.47892,-8.58267 -6.98635,-8.58267 -2.17808,0 -4.26927,2.08355 -4.26927,4.25365 0,0.41407 1.70006,4.15002 3.77791,8.30214 2.20802,4.41221 3.70699,7.82053 3.60723,8.20202 -0.0939,0.359 -2.39176,5.88 -5.10639,12.26889 L 179.48591,177.5 h -6.62606 -6.62606 z"
         id="path1952"
         transform="scale(0.26458333)" />
    </g>
  </g>
</svg>
