<?xml version="1.0" encoding="UTF-8" standalone="no"?>
<!-- Created with Inkscape (http://www.inkscape.org/) -->

<svg
   width="69.599998mm"
   height="69.599998mm"
   viewBox="0 0 69.599998 69.599998"
   version="1.1"
   id="svg8462"
   inkscape:version="1.2.1 (2ed6d7ae0b, 2022-08-22, custom)"
   sodipodi:docname="icon-noun-dinosaur-13787.svg"
   xml:space="preserve"
   inkscape:export-filename="../98aa3d3/icon-dinosaur.png"
   inkscape:export-xdpi="96"
   inkscape:export-ydpi="96"
   xmlns:inkscape="http://www.inkscape.org/namespaces/inkscape"
   xmlns:sodipodi="http://sodipodi.sourceforge.net/DTD/sodipodi-0.dtd"
   xmlns:xlink="http://www.w3.org/1999/xlink"
   xmlns="http://www.w3.org/2000/svg"
   xmlns:svg="http://www.w3.org/2000/svg"
   xmlns:rdf="http://www.w3.org/1999/02/22-rdf-syntax-ns#"
   xmlns:cc="http://creativecommons.org/ns#"
   xmlns:dc="http://purl.org/dc/elements/1.1/"><defs
     id="defs8456"><linearGradient
       inkscape:collect="always"
       id="linearGradient28533"><stop
         style="stop-color:#486a0a;stop-opacity:1;"
         offset="0"
         id="stop28529" /><stop
         style="stop-color:#18930d;stop-opacity:1;"
         offset="0.25484604"
         id="stop28537" /><stop
         style="stop-color:#9e9e0e;stop-opacity:1;"
         offset="0.52263802"
         id="stop28539" /><stop
         style="stop-color:#56ceef;stop-opacity:1;"
         offset="1"
         id="stop28531" /></linearGradient><symbol
       id="u"
       overflow="visible"><path
         d="m 18.766,-1.125 c -0.96875,0.5 -1.9805,0.875 -3.0312,1.125 -1.043,0.25781 -2.1367,0.39062 -3.2812,0.39062 -3.3984,0 -6.0898,-0.94531 -8.0781,-2.8438 -1.9922,-1.9062 -2.9844,-4.4844 -2.9844,-7.7344 0,-3.2578 0.99219,-5.8359 2.9844,-7.7344 1.9883,-1.9062 4.6797,-2.8594 8.0781,-2.8594 1.1445,0 2.2383,0.13281 3.2812,0.39062 1.0508,0.25 2.0625,0.625 3.0312,1.125 v 4.2188 c -0.98047,-0.65625 -1.9453,-1.1406 -2.8906,-1.4531 -0.94922,-0.3125 -1.9492,-0.46875 -3,-0.46875 -1.875,0 -3.3516,0.60547 -4.4219,1.8125 -1.0742,1.1992 -1.6094,2.8555 -1.6094,4.9688 0,2.1055 0.53516,3.7617 1.6094,4.9688 1.0703,1.1992 2.5469,1.7969 4.4219,1.7969 1.0508,0 2.0508,-0.14844 3,-0.45312 0.94531,-0.3125 1.9102,-0.80078 2.8906,-1.4688 z"
         id="path24847" /></symbol><symbol
       id="d"
       overflow="visible"><path
         d="m 13.734,-11.141 c -0.4375,-0.19531 -0.87109,-0.34375 -1.2969,-0.4375 -0.41797,-0.10156 -0.83984,-0.15625 -1.2656,-0.15625 -1.2617,0 -2.2305,0.40625 -2.9062,1.2188 -0.67969,0.80469 -1.0156,1.9531 -1.0156,3.4531 v 7.0625 H 2.3591 v -15.312 h 4.8906 v 2.5156 c 0.625,-1 1.3438,-1.7266 2.1562,-2.1875 0.82031,-0.46875 1.8008,-0.70312 2.9375,-0.70312 0.16406,0 0.34375,0.01172 0.53125,0.03125 0.19531,0.01172 0.47656,0.03906 0.84375,0.07813 z"
         id="path24850" /></symbol><symbol
       id="a"
       overflow="visible"><path
         d="m 17.641,-7.7031 v 1.4062 H 6.188 c 0.125,1.1484 0.53906,2.0078 1.25,2.5781 0.70703,0.57422 1.7031,0.85938 2.9844,0.85938 1.0312,0 2.082,-0.14844 3.1562,-0.45312 1.082,-0.3125 2.1914,-0.77344 3.3281,-1.3906 v 3.7656 c -1.1562,0.4375 -2.3125,0.76562 -3.4688,0.98438 -1.1562,0.22656 -2.3125,0.34375 -3.4688,0.34375 -2.7734,0 -4.9297,-0.70312 -6.4688,-2.1094 -1.5312,-1.4062 -2.2969,-3.3789 -2.2969,-5.9219 0,-2.5 0.75391,-4.4609 2.2656,-5.8906 1.5078,-1.4375 3.582,-2.1562 6.2188,-2.1562 2.4062,0 4.332,0.73047 5.7812,2.1875 1.4453,1.4492 2.1719,3.3828 2.1719,5.7969 z m -5.0312,-1.625 c 0,-0.92578 -0.27344,-1.6719 -0.8125,-2.2344 -0.54297,-0.57031 -1.25,-0.85938 -2.125,-0.85938 -0.94922,0 -1.7188,0.26562 -2.3125,0.79688 -0.5937,0.53126 -0.96484,1.2969 -1.1094,2.2969 z"
         id="path24853" /></symbol><symbol
       id="c"
       overflow="visible"><path
         d="m 9.2188,-6.8906 c -1.0234,0 -1.793,0.17188 -2.3125,0.51562 -0.51172,0.34375 -0.76562,0.85547 -0.76562,1.5312 0,0.625 0.20703,1.1172 0.625,1.4688 0.41406,0.34375 0.98828,0.51562 1.7188,0.51562 0.92578,0 1.7031,-0.32812 2.3281,-0.98438 0.63281,-0.66406 0.95312,-1.4922 0.95312,-2.4844 v -0.5625 z m 7.4688,-1.8438 V 0 h -4.9219 v -2.2656 c -0.65625,0.92969 -1.3984,1.6055 -2.2188,2.0312 -0.82422,0.41406 -1.8242,0.625 -3,0.625 -1.5859,0 -2.8711,-0.45703 -3.8594,-1.375 -0.99219,-0.92578 -1.4844,-2.1289 -1.4844,-3.6094 0,-1.7891 0.61328,-3.1016 1.8438,-3.9375 1.2383,-0.84375 3.1797,-1.2656 5.8281,-1.2656 h 2.8906 v -0.39062 c 0,-0.76953 -0.30859,-1.332 -0.92188,-1.6875 -0.61719,-0.36328 -1.5703,-0.54688 -2.8594,-0.54688 -1.0547,0 -2.0312,0.10547 -2.9375,0.3125 -0.89844,0.21094 -1.7305,0.52344 -2.5,0.9375 v -3.7344 c 1.0391,-0.25 2.0859,-0.44141 3.1406,-0.57812 1.0625,-0.13281 2.125,-0.20312 3.1875,-0.20312 2.7578,0 4.75,0.54688 5.9688,1.6406 1.2266,1.0859 1.8438,2.8555 1.8438,5.3125 z"
         id="path24856" /></symbol><symbol
       id="b"
       overflow="visible"><path
         d="m 7.7031,-19.656 v 4.3438 H 12.75 v 3.5 H 7.7031 v 6.5 c 0,0.71094 0.14062,1.1875 0.42188,1.4375 0.28126,0.25 0.83594,0.375 1.6719,0.375 h 2.5156 v 3.5 h -4.1875 c -1.9375,0 -3.3125,-0.39844 -4.125,-1.2031 -0.80469,-0.8125 -1.2031,-2.1797 -1.2031,-4.1094 v -6.5 h -2.4219 v -3.5 h 2.4219 v -4.3438 z"
         id="path24859" /></symbol><symbol
       id="k"
       overflow="visible"><path
         d="m 12.766,-13.078 v -8.2031 h 4.9219 V -10e-5 H 12.766 v -2.2188 c -0.66797,0.90625 -1.4062,1.5703 -2.2188,1.9844 -0.8126,0.4141 -1.7578,0.625 -2.8281,0.625 -1.8867,0 -3.4336,-0.75 -4.6406,-2.25 -1.2109,-1.5 -1.8125,-3.4258 -1.8125,-5.7812 0,-2.3633 0.60156,-4.2969 1.8125,-5.7969 1.207,-1.5 2.7539,-2.25 4.6406,-2.25 1.0625,0 2,0.21484 2.8125,0.64062 0.82031,0.42969 1.5664,1.0859 2.2344,1.9688 z m -3.2188,9.9219 c 1.0391,0 1.8359,-0.37891 2.3906,-1.1406 0.55078,-0.76953 0.82812,-1.8828 0.82812,-3.3438 0,-1.457 -0.27734,-2.5664 -0.82812,-3.3281 -0.55469,-0.76953 -1.3516,-1.1562 -2.3906,-1.1562 -1.043,0 -1.8398,0.38672 -2.3906,1.1562 -0.55469,0.76172 -0.82812,1.8711 -0.82812,3.3281 0,1.4609 0.27344,2.5742 0.82812,3.3438 0.55078,0.76172 1.3477,1.1406 2.3906,1.1406 z"
         id="path24862" /></symbol><symbol
       id="j"
       overflow="visible"><path
         d="m 10.5,-3.1562 c 1.0508,0 1.8516,-0.37891 2.4062,-1.1406 0.55078,-0.76953 0.82812,-1.8828 0.82812,-3.3438 0,-1.457 -0.27734,-2.5664 -0.82812,-3.3281 -0.55469,-0.76953 -1.3555,-1.1562 -2.4062,-1.1562 -1.0547,0 -1.8594,0.38672 -2.4219,1.1562 -0.55469,0.77344 -0.82812,1.8828 -0.82812,3.3281 0,1.4492 0.27344,2.5586 0.82812,3.3281 0.5625,0.77344 1.3672,1.1562 2.4219,1.1562 z m -3.25,-9.9219 c 0.67578,-0.88281 1.4219,-1.5391 2.2344,-1.9688 0.82031,-0.42578 1.7656,-0.64062 2.8281,-0.64062 1.8945,0 3.4453,0.75 4.6562,2.25 1.207,1.5 1.8125,3.4336 1.8125,5.7969 0,2.3555 -0.60547,4.2812 -1.8125,5.7812 -1.2109,1.5 -2.7617,2.25 -4.6562,2.25 -1.0625,0 -2.0078,-0.21094 -2.8281,-0.625 C 8.6719,-0.6602 7.9258,-1.32032 7.25,-2.21882 V -2e-5 H 2.3594 v -21.281 H 7.25 Z"
         id="path24865" /></symbol><symbol
       id="i"
       overflow="visible"><path
         d="m 0.34375,-15.312 h 4.8906 l 4.125,10.391 3.5,-10.391 h 4.8906 l -6.4375,16.766 c -0.64844,1.6953 -1.4023,2.8828 -2.2656,3.5625 -0.86719,0.6875 -2,1.0312 -3.4062,1.0312 H 2.79685 V 2.8289 h 1.5312 c 0.83203,0 1.4375,-0.13672 1.8125,-0.40625 C 6.52336,2.16093 6.82024,1.69218 7.03117,1.01645 L 7.17179,0.59457 Z"
         id="path24868" /></symbol><symbol
       id="h"
       overflow="visible"><path
         d="m 2.5781,-20.406 h 5.25 V -1.984 C 7.8281,0.5551 7.13279,2.4574 5.75,3.7191 4.375,4.9769 2.2891,5.6097 -0.5,5.6097 H -1.5781 V 1.6253 h 0.82812 c 1.0938,0 1.9219,-0.30859 2.4844,-0.92188 0.5625,-0.60547 0.84375,-1.5 0.84375,-2.6875 z"
         id="path24871" /></symbol><symbol
       id="g"
       overflow="visible"><path
         d="M 17.75,-9.3281 V 0 h -4.9219 v -7.1406 c 0,-1.3203 -0.03125,-2.2344 -0.09375,-2.7344 -0.0625,-0.5 -0.16797,-0.86719 -0.3125,-1.1094 -0.1875,-0.3125 -0.44922,-0.55469 -0.78125,-0.73438 -0.32422,-0.17578 -0.69531,-0.26562 -1.1094,-0.26562 -1.0234,0 -1.8242,0.39844 -2.4062,1.1875 -0.58594,0.78125 -0.875,1.8711 -0.875,3.2656 V -1e-4 H 2.3594 v -15.312 H 7.25 v 2.2344 c 0.73828,-0.88281 1.5195,-1.5391 2.3438,-1.9688 0.83203,-0.42578 1.75,-0.64062 2.75,-0.64062 1.7695,0 3.1133,0.54688 4.0312,1.6406 0.91406,1.0859 1.375,2.6562 1.375,4.7188 z"
         id="path24874" /></symbol><symbol
       id="t"
       overflow="visible"><path
         d="m 2.5781,-20.406 h 6.6875 l 4.6562,10.922 4.6719,-10.922 h 6.6875 V 0 H 20.2968 V -14.938 L 15.5937,-3.922 H 12.2656 L 7.5625,-14.938 V 0 H 2.5781 Z"
         id="path24877" /></symbol><symbol
       id="f"
       overflow="visible"><path
         d="m 14.312,-14.828 v 3.7188 c -1.043,-0.4375 -2.0547,-0.76562 -3.0312,-0.98438 -0.98047,-0.21875 -1.9023,-0.32812 -2.7656,-0.32812 -0.92969,0 -1.6211,0.11719 -2.0781,0.34375 -0.44922,0.23047 -0.67188,0.58984 -0.67188,1.0781 0,0.38672 0.17188,0.68359 0.51562,0.89062 0.34375,0.21094 0.95703,0.36719 1.8438,0.46875 l 0.85938,0.125 c 2.5078,0.32422 4.1953,0.85156 5.0625,1.5781 0.86328,0.73047 1.2969,1.8711 1.2969,3.4219 0,1.6367 -0.60547,2.8672 -1.8125,3.6875 -1.1992,0.8125 -2.9922,1.2188 -5.375,1.2188 -1.0234,0 -2.0742,-0.078125 -3.1562,-0.23438 -1.0742,-0.15625 -2.1797,-0.39453 -3.3125,-0.71875 v -3.7188 c 0.96875,0.48047 1.9609,0.83984 2.9844,1.0781 1.0312,0.23047 2.0781,0.34375 3.1406,0.34375 0.95703,0 1.6758,-0.12891 2.1562,-0.39062 0.47656,-0.26953 0.71875,-0.66406 0.71875,-1.1875 0,-0.4375 -0.16797,-0.75781 -0.5,-0.96875 -0.33594,-0.21875 -0.99609,-0.38281 -1.9844,-0.5 L 7.34339,-6.01551 c -2.1797,-0.26953 -3.7031,-0.77344 -4.5781,-1.5156 -0.875,-0.73828 -1.3125,-1.8594 -1.3125,-3.3594 0,-1.625 0.55078,-2.8281 1.6562,-3.6094 1.1133,-0.78906 2.8203,-1.1875 5.125,-1.1875 0.89453,0 1.8359,0.07422 2.8281,0.21875 1,0.13672 2.082,0.35156 3.25,0.64062 z"
         id="path24880" /></symbol><symbol
       id="s"
       overflow="visible"><path
         d="m 12.422,-21.281 v 3.2188 H 9.7189 c -0.6875,0 -1.1719,0.125 -1.4531,0.375 -0.27344,0.25 -0.40625,0.6875 -0.40625,1.3125 v 1.0625 h 4.1875 v 3.5 H 7.85955 V -2e-4 h -4.8906 v -11.812 h -2.4375 v -3.5 h 2.4375 v -1.0625 c 0,-1.6641 0.46094,-2.8984 1.3906,-3.7031 0.92578,-0.80078 2.3672,-1.2031 4.3281,-1.2031 z"
         id="path24883" /></symbol><symbol
       id="e"
       overflow="visible"><path
         d="m 9.6406,-12.188 c -1.0859,0 -1.9141,0.39062 -2.4844,1.1719 -0.57422,0.78125 -0.85938,1.9062 -0.85938,3.375 0,1.4688 0.28516,2.5938 0.85938,3.375 0.57031,0.77344 1.3984,1.1562 2.4844,1.1562 1.0625,0 1.875,-0.38281 2.4375,-1.1562 0.57031,-0.78125 0.85938,-1.9062 0.85938,-3.375 0,-1.4688 -0.28906,-2.5938 -0.85938,-3.375 -0.5625,-0.78125 -1.375,-1.1719 -2.4375,-1.1719 z m 0,-3.5 c 2.6328,0 4.6914,0.71484 6.1719,2.1406 1.4766,1.418 2.2188,3.3867 2.2188,5.9062 0,2.5117 -0.74219,4.4805 -2.2188,5.9062 C 14.332,-0.317 12.2734,0.39 9.6406,0.39 6.9922,0.39 4.9258,-0.31703 3.4375,-1.735 1.9453,-3.1608 1.2031,-5.1295 1.2031,-7.6412 c 0,-2.5195 0.74219,-4.4883 2.2344,-5.9062 1.4883,-1.4258 3.5547,-2.1406 6.2031,-2.1406 z"
         id="path24886" /></symbol><symbol
       id="r"
       overflow="visible"><path
         d="m 16.547,-12.766 c 0.61328,-0.94531 1.3477,-1.6719 2.2031,-2.1719 0.85156,-0.5 1.7891,-0.75 2.8125,-0.75 1.7578,0 3.0977,0.54688 4.0156,1.6406 0.92578,1.0859 1.3906,2.6562 1.3906,4.7188 V -4e-4 h -4.9219 v -7.9844 -0.35938 c 0.0078,-0.13281 0.01563,-0.32031 0.01563,-0.5625 0,-1.082 -0.16406,-1.8633 -0.48438,-2.3438 -0.3125,-0.48828 -0.82422,-0.73438 -1.5312,-0.73438 -0.92969,0 -1.6484,0.38672 -2.1562,1.1562 -0.51172,0.76172 -0.77344,1.8672 -0.78125,3.3125 v 7.5156 h -4.9219 v -7.9844 c 0,-1.6953 -0.14844,-2.7852 -0.4375,-3.2656 -0.29297,-0.48828 -0.8125,-0.73438 -1.5625,-0.73438 -0.9375,0 -1.6641,0.38672 -2.1719,1.1562 -0.51172,0.76172 -0.76562,1.8594 -0.76562,3.2969 v 7.5312 h -4.9219 v -15.312 h 4.9219 v 2.2344 c 0.60156,-0.86328 1.2891,-1.5156 2.0625,-1.9531 0.78125,-0.4375 1.6406,-0.65625 2.5781,-0.65625 1.0625,0 2,0.25781 2.8125,0.76562 0.8125,0.51172 1.4258,1.2305 1.8438,2.1562 z"
         id="path24889" /></symbol><symbol
       id="q"
       overflow="visible"><path
         d="M 17.75,-9.3281 V 0 h -4.9219 v -7.1094 c 0,-1.3438 -0.03125,-2.2656 -0.09375,-2.7656 -0.0625,-0.5 -0.16797,-0.86719 -0.3125,-1.1094 -0.1875,-0.3125 -0.44922,-0.55469 -0.78125,-0.73438 -0.32422,-0.17578 -0.69531,-0.26562 -1.1094,-0.26562 -1.0234,0 -1.8242,0.39844 -2.4062,1.1875 -0.58594,0.78125 -0.875,1.8711 -0.875,3.2656 V -1e-4 H 2.3594 v -21.281 H 7.25 v 8.2031 c 0.73828,-0.88281 1.5195,-1.5391 2.3438,-1.9688 0.83203,-0.42578 1.75,-0.64062 2.75,-0.64062 1.7695,0 3.1133,0.54688 4.0312,1.6406 0.91406,1.0859 1.375,2.6562 1.375,4.7188 z"
         id="path24892" /></symbol><symbol
       id="p"
       overflow="visible"><path
         d="m 2.5781,-20.406 h 5.875 l 7.4219,14 v -14 h 4.9844 V 0 h -5.875 L 7.5625,-14 V 0 H 2.5781 Z"
         id="path24895" /></symbol><symbol
       id="o"
       overflow="visible"><path
         d="m 2.1875,-5.9688 v -9.3438 h 4.9219 v 1.5312 c 0,0.83594 -0.00781,1.875 -0.015625,3.125 -0.011719,1.25 -0.015625,2.0859 -0.015625,2.5 0,1.2422 0.03125,2.1328 0.09375,2.6719 0.070313,0.54297 0.17969,0.93359 0.32812,1.1719 0.20703,0.32422 0.47266,0.57422 0.79688,0.75 0.32031,0.16797 0.69141,0.25 1.1094,0.25 1.0195,0 1.8203,-0.39062 2.4062,-1.1719 0.58203,-0.78125 0.875,-1.8672 0.875,-3.2656 v -7.5625 h 4.8906 V -6e-4 H 12.6875 V -2.2194 C 11.94531,-1.32096 11.1641,-0.6608 10.3437,-0.235 9.51948,0.17906 8.6093,0.39 7.6093,0.39 5.8476,0.39 4.5038,-0.14906 3.5781,-1.235 2.64841,-2.317 2.1875,-3.8952 2.1875,-5.9694 Z"
         id="path24898" /></symbol><symbol
       id="n"
       overflow="visible"><path
         d="m 2.5781,-20.406 h 8.7344 c 2.5938,0 4.582,0.57812 5.9688,1.7344 1.3945,1.1484 2.0938,2.7891 2.0938,4.9219 0,2.1367 -0.69922,3.7812 -2.0938,4.9375 -1.3867,1.1562 -3.375,1.7344 -5.9688,1.7344 H 7.8281 V 3e-4 h -5.25 z m 5.25,3.8125 v 5.7031 H 10.75 c 1.0195,0 1.8047,-0.25 2.3594,-0.75 0.5625,-0.5 0.84375,-1.2031 0.84375,-2.1094 0,-0.91406 -0.28125,-1.6172 -0.84375,-2.1094 -0.55469,-0.48828 -1.3398,-0.73438 -2.3594,-0.73438 z"
         id="path24901" /></symbol><symbol
       id="m"
       overflow="visible"><path
         d="M 2.3594,-15.312 H 7.25 v 15.031 c 0,2.0508 -0.49609,3.6172 -1.4844,4.7031 -0.98047,1.082 -2.4062,1.625 -4.2812,1.625 H -0.9375 V 2.8283 h 0.85938 c 0.92578,0 1.5625,-0.21094 1.9062,-0.625 0.35156,-0.41797 0.53125,-1.2461 0.53125,-2.4844 z m 0,-5.9688 H 7.25 v 4 H 2.3594 Z"
         id="path24904" /></symbol><symbol
       id="l"
       overflow="visible"><path
         d="m 14.719,-14.828 v 3.9844 c -0.65625,-0.45703 -1.3242,-0.79688 -2,-1.0156 -0.66797,-0.21875 -1.3594,-0.32812 -2.0781,-0.32812 -1.3672,0 -2.4336,0.40234 -3.2031,1.2031 -0.76172,0.79297 -1.1406,1.9062 -1.1406,3.3438 0,1.4297 0.37891,2.543 1.1406,3.3438 0.76953,0.79297 1.8359,1.1875 3.2031,1.1875 0.75781,0 1.4844,-0.10938 2.1719,-0.32812 0.6875,-0.22656 1.3203,-0.56641 1.9062,-1.0156 v 4 c -0.76172,0.28125 -1.5391,0.48828 -2.3281,0.625 -0.78125,0.14453 -1.5742,0.21875 -2.375,0.21875 -2.7617,0 -4.9219,-0.70703 -6.4844,-2.125 -1.5547,-1.4141 -2.3281,-3.3828 -2.3281,-5.9062 0,-2.5312 0.77344,-4.5039 2.3281,-5.9219 1.5625,-1.4141 3.7227,-2.125 6.4844,-2.125 0.80078,0 1.5938,0.07422 2.375,0.21875 0.78125,0.13672 1.5547,0.35156 2.3281,0.64062 z"
         id="path24907" /></symbol><linearGradient
       inkscape:collect="always"
       xlink:href="#linearGradient28533"
       id="linearGradient28535"
       x1="98.798737"
       y1="180.41776"
       x2="97.413513"
       y2="115.02284"
       gradientUnits="userSpaceOnUse" /><filter
       style="color-interpolation-filters:sRGB"
       inkscape:label="Drop Shadow"
       id="filter28915"
       x="-0.034375"
       y="-0.034375"
       width="1.0875"
       height="1.0875"><feFlood
         flood-opacity="0.498039"
         flood-color="rgb(0,0,0)"
         result="flood"
         id="feFlood28905" /><feComposite
         in="flood"
         in2="SourceGraphic"
         operator="in"
         result="composite1"
         id="feComposite28907" /><feGaussianBlur
         in="composite1"
         stdDeviation="0.5"
         result="blur"
         id="feGaussianBlur28909" /><feOffset
         dx="1.2"
         dy="1.2"
         result="offset"
         id="feOffset28911" /><feComposite
         in="SourceGraphic"
         in2="offset"
         operator="over"
         result="composite2"
         id="feComposite28913" /></filter></defs><sodipodi:namedview
     id="base"
     pagecolor="#ffffff"
     bordercolor="#666666"
     borderopacity="1.0"
     inkscape:pageopacity="0.0"
     inkscape:pageshadow="2"
     inkscape:zoom="0.98994949"
     inkscape:cx="-79.296975"
     inkscape:cy="103.03556"
     inkscape:document-units="mm"
     inkscape:current-layer="layer1"
     showgrid="false"
     fit-margin-top="0"
     fit-margin-left="0"
     fit-margin-right="0"
     fit-margin-bottom="-2.7755576e-17"
     inkscape:window-width="1875"
     inkscape:window-height="1053"
     inkscape:window-x="45"
     inkscape:window-y="27"
     inkscape:window-maximized="1"
     inkscape:showpageshadow="2"
     inkscape:pagecheckerboard="0"
     inkscape:deskcolor="#d1d1d1" /><metadata
     id="metadata8459"><rdf:RDF><cc:Work
         rdf:about=""><dc:format>image/svg+xml</dc:format><dc:type
           rdf:resource="http://purl.org/dc/dcmitype/StillImage" /></cc:Work></rdf:RDF></metadata><g
     inkscape:label="Layer 1"
     inkscape:groupmode="layer"
     id="layer1"
     transform="translate(-63.823819,-113.7494)"
     style="display:inline"><circle
       style="display:inline;opacity:1;fill:url(#linearGradient28535);fill-opacity:1;stroke:#000000;stroke-width:2;stroke-miterlimit:4;stroke-dasharray:none;stroke-dashoffset:0;stroke-opacity:1;filter:url(#filter28915)"
       id="path8464"
       cx="98.023819"
       cy="147.9494"
       r="32" /></g><g
     inkscape:groupmode="layer"
     id="layer2"
     inkscape:label="Layer 2"
     style="display:inline"
     transform="translate(2.2000001,2.1999982)"><g
       id="g27757"
       transform="matrix(0.10221883,0,0,0.10221883,-2.5299199,6.3565385)"><path
         style="fill:#778a00;fill-opacity:1;stroke:none;stroke-width:11.7382;stroke-dasharray:none;stroke-opacity:1"
         d="m 427.67699,220.37295 c -62.53653,-1.54962 -122.67602,24.95569 -170.71139,63.6799 -48.30139,38.43593 -93.10573,86.43568 -111.89193,146.5032 -10.71646,34.22117 -5.44241,72.35357 10.54311,104.02578 17.30315,28.31417 40.63915,54.33111 71.94725,67.1552 18.10001,8.29281 38.82869,12.2232 58.45482,9.88411 9.44681,-4.96136 -0.324,-14.66624 -5.50283,-18.89494 -25.84314,-25.31891 -60.60637,-43.79441 -75.13486,-78.73192 -8.42045,-16.49408 -0.19936,-35.49072 12.51923,-47.12598 8.78268,-11.30229 22.74145,-17.13817 36.98128,-15.62845 18.92037,-0.94203 39.92478,9.20964 43.86835,29.22534 5.21145,17.17799 -4.49448,35.30281 1.07669,52.19071 7.94141,12.49387 25.39389,9.1444 37.99356,9.86614 17.99573,-1.10037 36.91152,-0.4382 53.95588,-6.9727 9.05042,-7.89087 4.00081,-21.92946 5.23413,-32.41244 1.19009,-4.78587 -3.20114,-14.70018 4.80185,-14.97715 8.50779,-1.40416 19.95735,-5.56908 27.19328,0.84316 7.75638,14.89356 2.10624,37.82263 19.41683,46.88914 22.69361,10.34809 48.31209,2.33632 71.73283,-0.74905 10.97363,-1.06202 23.82124,-6.93354 24.47183,-19.49881 2.97847,-16.86535 4.32527,-34.14386 10.34231,-50.23752 16.79254,-17.82942 40.5938,-26.76295 61.42903,-38.8822 28.4423,-13.73227 55.52331,-31.51293 86.25662,-39.72234 17.7044,-2.88055 34.38836,7.54317 52.23884,5.05291 22.61415,0.59415 45.01833,-4.49422 64.9434,-15.26751 9.22888,-1.64673 15.96813,-10.91222 8.27573,-18.79309 -11.10708,-25.69566 -34.55964,-47.98745 -63.67104,-49.31781 -29.63168,-1.9832 -60.25534,15.72325 -88.78913,1.81066 C 634.97028,291.33023 599.20682,263.04479 557.23481,246.5593 516.3754,229.15129 472.23259,219.0332 427.67699,220.37295 Z m 347.18292,111.72114 c 5.68231,-0.009 4.31162,9.13218 -0.92808,6.71794 -2.30842,-1.08682 -1.65169,-6.50791 0.92808,-6.71794 z"
         id="path25045"
         transform="scale(0.75)" /><path
         style="fill:#ac8700;fill-opacity:1;stroke:none;stroke-width:11.7382;stroke-dasharray:none;stroke-opacity:1"
         d="m 596.40817,163.5661 c -18.68684,13.52645 -41.41647,22.74771 -56.17902,41.02043 -5.18464,8.74623 -9.34271,19.10483 -9.01085,29.27994 8.76143,8.0901 21.99638,9.14926 32.39827,14.91 18.80652,7.44466 35.96848,18.50455 54.27994,26.7716 12.01792,1.68079 13.00953,-13.99564 11.53268,-22.3984 -3.2985,-29.89572 -14.69178,-58.22458 -23.33885,-86.67859 -1.34366,-3.75511 -6.47905,-4.78406 -9.68217,-2.90498 z"
         id="path26501"
         transform="scale(0.75)" /><path
         style="fill:#c79200;fill-opacity:1;stroke:none;stroke-width:11.7382;stroke-dasharray:none;stroke-opacity:1"
         d="m 470.78407,137.5314 c -12.79996,6.48027 -20.90994,19.7949 -30.74189,29.95614 -11.67624,11.66493 -14.3188,29.03236 -15.24042,44.76928 3.16089,10.7299 17.27667,6.86189 25.77994,8.98961 22.36615,1.86468 44.54234,6.00323 66.39091,10.64257 11.69277,-0.90902 8.85676,-14.93483 6.34793,-22.51044 -3.25517,-15.77978 -10.38935,-30.33963 -21.51866,-42.06982 -9.2491,-9.87322 -16.35136,-22.96595 -28.23964,-29.72881 -0.91264,0.18365 -1.86532,-0.22884 -2.77817,-0.0485 z"
         id="path26503"
         transform="scale(0.75)" /><path
         style="fill:#ac8700;fill-opacity:1;stroke:none;stroke-width:11.7382;stroke-dasharray:none;stroke-opacity:1"
         d="m 365.56251,139.54224 c -11.39953,2.00143 -9.95754,16.60302 -15.07672,24.52733 -7.96074,20.15726 -18.33667,41.61612 -14.98572,63.80686 4.85346,10.80422 16.81425,1.61955 24.77019,0.87467 16.82451,-4.40211 34.65609,-6.48188 52.04188,-8.44488 11.58028,-5.96246 3.3108,-20.32789 1.0312,-29.37093 -6.59595,-21.60488 -24.10728,-37.80179 -42.15777,-50.20718 -1.74666,-0.82342 -3.68165,-1.31934 -5.62306,-1.18587 z"
         id="path26505"
         transform="scale(0.75)" /><path
         style="fill:#778a00;fill-opacity:1;stroke:none;stroke-width:11.7382;stroke-dasharray:none;stroke-opacity:1"
         d="m 248.0606,190.25895 c -12.22061,2.47506 -7.07205,18.43849 -7.73398,27.11443 0.45726,20.94064 5.92811,43.07915 19.4684,59.21802 10.82201,0.60085 18.32612,-10.17016 27.70888,-14.49742 13.84703,-9.70297 29.99584,-15.72396 43.63481,-25.58886 5.8318,-9.10376 -5.29525,-17.43264 -10.36353,-24.15428 -15.1137,-15.21185 -38.77559,-10.81097 -57.367,-18.49329 -5.05382,-1.31093 -10.08773,-3.40498 -15.34758,-3.5986 z"
         id="path26507"
         transform="scale(0.75)" /><path
         style="fill:#ac8700;fill-opacity:1;stroke:none;stroke-width:11.7382;stroke-dasharray:none;stroke-opacity:1"
         d="m 190.98989,263.83185 c -7.20554,7.05777 -0.38484,17.85704 0.5247,26.42292 3.51583,10.71556 7.08478,23.71492 17.31805,29.8016 10.22713,0.55047 16.06309,-10.88939 23.9723,-15.89257 5.5806,-7.30541 20.56941,-12.00645 17.00566,-23.00783 -11.48643,-14.49887 -31.62781,-12.18767 -47.7022,-16.91675 -3.76291,-0.82863 -7.30495,-1.66186 -11.11851,-0.40737 z"
         id="path26578"
         transform="scale(0.75)" /><path
         style="fill:#ac8700;fill-opacity:1;stroke:none;stroke-width:11.7382;stroke-dasharray:none;stroke-opacity:1"
         d="m 149.31132,387.52095 c -8.64808,2.90222 -20.02983,4.89862 -24.62439,13.60574 -1.26196,8.74534 7.45751,15.81111 14.31241,19.69587 10.97968,1.96533 13.55997,-12.16833 17.33018,-19.64431 3.14698,-5.79518 1.12831,-14.65691 -7.0182,-13.6573 z"
         id="path26580"
         transform="scale(0.75)" /><path
         style="fill:#c79200;fill-opacity:1;stroke:none;stroke-width:11.7382;stroke-dasharray:none;stroke-opacity:1"
         d="m 247.7755,190.32871 c -11.38658,3.73707 -6.90422,18.59767 -7.73398,27.68765 0.6685,19.88729 5.96729,40.52015 18.00653,56.57634 9.08111,5.96673 17.26796,-6.00968 25.13318,-9.43062 14.96167,-10.86283 32.61689,-17.77613 47.91502,-28.62966 5.85998,-9.08118 -5.39169,-17.43564 -10.26345,-24.32716 -15.28824,-14.52771 -38.29647,-11.32024 -56.95364,-18.36534 -5.30377,-1.26971 -10.59394,-3.55064 -16.10366,-3.51121 z"
         id="path26582"
         transform="scale(0.75)" /><path
         style="fill:#c79200;fill-opacity:1;stroke:none;stroke-width:11.7382;stroke-dasharray:none;stroke-opacity:1"
         d="m 178.25763,325.07891 c -10.23154,1.44407 -23.14233,-0.95103 -31.13912,6.75434 -4.57438,10.3027 7.24439,18.71087 11.70712,26.83843 3.55822,6.20276 12.09091,14.58739 18.42507,6.70279 7.56395,-9.20346 15.93522,-18.04496 21.93417,-28.3549 1.98839,-11.33082 -13.31901,-12.41684 -20.92724,-11.94066 z"
         id="path26584"
         transform="scale(0.75)" /><path
         style="fill:#c79200;fill-opacity:1;stroke:none;stroke-width:11.7382;stroke-dasharray:none;stroke-opacity:1"
         d="m 130.32819,442.18654 c -7.86035,5.79439 -20.5162,11.30101 -20.65428,22.40125 3.71151,7.98744 15.12224,9.87962 23.08669,8.70148 9.93457,-4.22442 7.13734,-17.71942 7.48321,-26.10053 -0.3377,-4.8514 -5.89059,-6.71181 -9.91562,-5.0022 z"
         id="path26586"
         transform="scale(0.75)" /><g
         id="g25042"
         style="display:inline"><path
           d="m 616.6,250.93 c -8.6562,-10.602 -22.512,-19.656 -34.453,-22.535 -11.832,-2.8516 -23.301,-0.68359 -34.391,1.4102 -6.8828,1.3008 -13.379,2.5312 -19.992,2.6602 -18.211,0.35937 -34.922,-10.77 -50.98,-21.539 l -0.55859,-0.37109 c 0.19531,-1.625 0.37891,-3.2539 0.52734,-4.8672 1.2109,-13.934 0.65625,-25.465 -1.7422,-36.289 -1.5391,-6.9727 -4.1602,-13.832 -6.6992,-20.473 -4.793,-12.516 -9.3203,-24.344 -7.1719,-36.797 l 1.7188,-10 -7.582,6.7461 c -9.4258,8.3828 -19.383,14.527 -29.922,21.035 -4.1289,2.543 -8.293,5.1172 -12.477,7.8555 -7.6992,5.0352 -12.324,11.312 -15.227,18.133 -1.9258,-11.355 -6.0664,-22.902 -14.934,-33.188 -2.7109,-3.1484 -5.5664,-6.0352 -8.332,-8.8438 -6.1484,-6.2383 -11.957,-12.129 -15.664,-20.074 l -2.3086,-4.9336 -3.5898,4.0898 c -3.9648,4.5312 -8.4453,8.8828 -12.785,13.094 -5.6055,5.4414 -11.395,11.07 -16.352,17.305 -4.1094,5.1641 -6.6797,10.656 -8.2383,16.297 -2.2695,-6.8984 -5.6172,-13.637 -10.793,-19.684 -7.1172,-8.3398 -16.16,-14.957 -24.91,-21.352 -2.8242,-2.0664 -5.6328,-4.1211 -8.3477,-6.2109 l -4.8438,-3.7422 -0.83984,6.0664 c -1.4688,10.566 -5.6719,20.457 -9.7344,30.016 -4.3281,10.199 -8.7695,20.637 -9.8164,31.875 -1.3594,-1.4727 -2.8398,-2.7891 -4.4414,-3.9688 -7.293,-5.375 -15.602,-6.5625 -23.633,-7.7109 -2.043,-0.29297 -4.0898,-0.58203 -6.1211,-0.94531 -4.832,-0.875 -9.4648,-2.3281 -14.363,-3.8633 -4.8203,-1.5195 -9.8047,-3.0859 -14.996,-4.0391 -1.6914,-0.3125 -3.3867,0.27344 -4.6211,1.6172 -6.0273,6.5469 -2.207,41.652 -1.8359,43.02 1.9414,7.1406 4.918,13.859 8.0117,20.355 -4.8203,-2.8828 -10.035,-4.3242 -15.211,-4.168 -4.5586,0.11328 -9.0312,-1.1406 -13.797,-2.5156 -5.2031,-1.5 -10.613,-3.0469 -16.32,-2.7227 l -2.043,0.27344 -0.98047,1.5 c -2.9453,4.5078 3.9258,30.996 4.0156,31.238 2.2695,6.1094 5.4922,11.531 8.9492,16.711 -2.5469,-1.2812 -5.332,-2.3398 -8.5977,-2.8945 -0.4375,-0.13281 -35.996,2.25 -39.336,6.6523 l -1.332,1.9141 0.91406,1.9414 c 6.7383,14.34 13.094,23.855 22.176,33.012 -0.39062,0.57812 -0.78516,1.1484 -1.1641,1.7422 -13.586,1.332 -23.969,5.3828 -36.484,14.125 l -2.8789,2.0117 1.9766,2.9062 c 5.9023,8.6406 11.137,15.059 19.652,21.41 -0.0352,0.14062 -0.0664,0.28516 -0.10547,0.42578 -12.621,5.2266 -23.48,10 -29.559,25.977 l -1.1797,3.3945 3.375,1.2383 c 8.5078,3.1133 16.598,6.0664 24.512,6.1719 1.5469,15.688 6.3164,35.605 15.547,48.137 l 1.2891,1.7539 c 9.9453,13.52 20.234,27.508 35.543,36.688 10.992,6.5859 32.418,15.59 49.629,15.59 1.4609,0 2.8906,-0.0625 4.2773,-0.20313 0.93359,-0.0937 2.0234,-0.13281 3.168,-0.19531 5.9141,-0.28125 14.84,-0.70703 15.535,-7.8906 0.42969,-4.4258 -25.938,-26.461 -26.207,-26.656 l -5.0625,-3.8477 c -9.2383,-6.9492 -17.965,-13.52 -24.785,-22.383 -7.4531,-9.6992 -15.211,-23.234 -14.621,-30.031 0.69531,-8.0039 13.66,-22.98 21.594,-26.723 7.5781,-3.5742 24.84,-3.6172 32.109,1.2266 14.699,9.7812 12.5,24.465 10.176,40.012 -2.6055,17.398 3.0781,20.266 13.457,23.871 9.1562,3.1602 27.895,2.2227 36.523,1.2812 11.07,-1.2031 29.988,-3.9883 32.285,-9.1211 3.1641,-7.1016 2.2773,-16.352 1.5625,-23.801 -0.32422,-3.3477 -0.76172,-7.9414 -0.51562,-8.7539 2.2344,-2.1094 13.52,-2.4141 15.52,-0.96875 1.5273,1.9805 3.1797,13.531 3.8906,18.457 0.35156,2.457 0.66016,4.625 0.93359,6.1211 2.9844,16.156 26.402,20.469 69.621,12.848 19.305,-3.4062 20.777,-9.8516 22.281,-24.098 0.25781,-2.418 0.54297,-5.1172 0.94141,-7.9531 0,0 3.4883,-17.566 4.2734,-21.391 4.832,-6.3047 10.383,-9.957 13.406,-11.945 0.65625,-0.4375 1.2109,-0.8125 1.6406,-1.1133 4.5039,-3.2188 8.2656,-5.0195 12.617,-7.1055 2.6328,-1.25 5.3828,-2.5664 8.4727,-4.2852 7.0156,-3.8867 14.363,-7.5273 21.48,-11.055 9.8281,-4.8711 19.98,-9.918 29.586,-15.754 12.191,-7.4023 22.348,-11.121 35.281,-6.7695 13.473,4.5195 30.844,4.1758 42.594,2.3477 9.5703,-1.4844 17.809,-5.2305 25.766,-8.8477 4.8281,-2.1992 9.8125,-4.4688 14.984,-6.1602 1.4336,-0.47656 2.5195,-1.6289 2.9609,-3.1523 1.9805,-6.8086 -11.738,-28.441 -11.898,-28.621 z M 331.07,386.16 c -0.24219,-4 -2.4375,-19.539 -6.6289,-23.93 -4.457,-4.6211 -25.07,-2.7539 -29.676,1.6055 -2.7422,2.5977 -2.3398,7.3086 -1.7344,14.438 0.53906,6.25 1.1914,13.973 -0.78516,19.137 -4.3281,2.2188 -26.969,5.1172 -31.125,5.1953 l -1.5508,0.0234 c -8.9375,0.16797 -20.066,0.37109 -27.082,-2.0508 -5.3945,-1.875 -5.3945,-6.0156 -3.0781,-21.531 2.8633,-19.102 -3.4883,-34.508 -16.984,-41.211 -9.3359,-4.6484 -29.109,-6.3633 -38.871,-1.7578 -8.6875,4.082 -25.543,19.48 -26.812,34.352 -1.1914,13.945 6.3828,25.316 14.934,36.695 7.168,9.5312 18.211,17.875 27.961,25.25 l 4.4531,3.375 c 1.7539,1.3594 14.297,12.801 19.887,18.457 -3.4609,0.41406 -8.9141,0.14453 -11.699,0.0117 -1.2812,-0.0664 -2.5039,-0.11719 -3.6055,-0.15234 -11.641,-0.35156 -25.066,-5.1797 -41.031,-14.738 -14.152,-8.4727 -23.492,-21.164 -33.383,-34.598 -8.8242,-11.996 -13.883,-32.492 -14.98,-47.5 l -0.1875,-2.1719 c -0.11719,-2.3008 -0.13281,-4.5117 -0.0547,-6.5703 0.21875,-5.4414 1.1484,-11.672 2.7734,-18.508 l 0.20703,-0.90234 c 0.15234,-0.65625 0.30078,-1.3086 0.48047,-1.9766 l 1.3789,-4.793 c 3.375,-11.172 8.2656,-22.328 13.746,-31.414 l 1.2812,-2.0781 c 0.47656,-0.75 0.98438,-1.4961 1.4961,-2.2305 l 3.0117,-4.4844 c 6.7188,-9.9453 14.285,-19.629 22.484,-28.75 l 2.5938,-2.957 c 0.3125,-0.35938 0.62109,-0.72266 0.95312,-1.0742 l 1.6914,-1.707 c 9.6445,-10.168 20.379,-19.953 31.922,-29.074 l 5.2734,-4.1836 c 8.9023,-6.7305 18.066,-12.926 27.234,-18.402 8.4297,-5.0391 17.246,-9.4297 26.246,-13.074 l 4.1602,-1.5977 c 18.492,-6.9648 38.176,-10.91 58.531,-11.703 l 2.3867,-0.11719 -0.043,-1.875 h 0.16016 l 0.10156,1.8711 1.668,-0.0234 c 18.148,-0.33594 37.273,1.7539 56.844,6.2109 5.0586,1.1523 10.891,2.8047 17.617,4.9961 l 3.5664,1.2148 c 20.113,6.8828 41.293,16.52 56.648,25.777 3.4609,2.0781 7.3086,4.5117 11.387,7.0938 l 5.3984,3.4062 c 18.195,11.445 38.746,23.66 52.516,23.66 h 0.0117 c 9.6836,-0.004 18.473,-1.7695 26.977,-3.4766 10.488,-2.1016 20.402,-4.0938 29.5,-1.8828 10.719,2.5742 21.539,9.2734 28.234,17.465 1.8359,2.3789 10.266,16.391 11.672,21.461 -2.0156,0.91406 -4,1.8438 -5.9766,2.7656 -12.129,5.707 -23.582,11.082 -43.773,11.82 -11.531,0.44922 -16.84,-0.92969 -28.684,-4.3125 -14.078,-4.0273 -32.262,4.3398 -49.789,13.996 -7.8867,4.3398 -15.656,8.2773 -23.184,12.078 -7.8359,3.9648 -15.941,8.0547 -24.207,12.633 l -2.1836,1.2148 c -6.7812,3.7617 -11.676,6.4805 -18.426,11.316 -0.39844,0.28516 -0.78906,0.54297 -1.1992,0.80469 -2.1797,1.4219 -4.8789,3.1914 -10.477,9.6445 -0.64453,0.75 -0.64453,0.75 -5.7969,24.91 -0.28125,2.6367 -0.50391,5 -0.70703,7.1133 -1.4492,15.488 -1.4492,15.488 -23.684,18.879 l -3.2656,0.51953 c -10.496,1.7188 -32.336,5.2812 -41.875,-2.3281 -2.9805,-2.4141 -4.5664,-5.75 -4.8477,-10.254 z M 145.29,201.67 c 1.668,0.12891 3.3477,0.4375 5.0469,0.83594 1.6953,0.39062 3.4141,0.875 5.1797,1.3789 1.1367,0.32031 2.2773,0.64453 3.4375,0.94531 0.48047,0.125 0.97266,0.23047 1.457,0.34766 0.72656,0.17188 1.4492,0.35156 2.1914,0.50391 0.48047,0.10156 0.98438,0.16406 1.4766,0.24609 0.75781,0.125 1.5117,0.25391 2.2852,0.33594 0.50391,0.0547 1.0234,0.0625 1.5391,0.0937 0.61719,0.0391 1.2227,0.11328 1.8477,0.11328 l 0.99219,-0.0156 h 0.004 c 0.46484,-0.0273 0.98047,0.11719 1.4727,0.17188 0.53125,0.0664 1.0547,0.0899 1.6016,0.25391 0.60547,0.17188 1.2539,0.49219 1.8984,0.78516 0.39062,0.17969 0.77344,0.29297 1.1875,0.51562 1.0195,0.55859 2.0703,1.2695 3.1641,2.1016 0.0859,0.0625 0.15625,0.10156 0.24219,0.16406 1.1992,0.92969 2.4414,2.0117 3.7227,3.2656 -9.3672,7.6211 -18.117,15.59 -26.086,23.766 -3.3281,-5.3125 -6.6758,-10.754 -8.418,-15.438 -0.10156,-0.28516 -0.23438,-0.72656 -0.39062,-1.3008 -1.0898,-4.0117 -3.3086,-14.18 -3.8516,-19.07 z m 41.164,-21.91 c -0.12891,-0.49219 -0.28125,-1.2812 -0.4375,-2.3086 -0.32422,-2.1211 -0.67578,-5.2461 -0.98438,-8.7148 -0.72266,-8.125 -1.1602,-18.176 -0.21094,-21.973 3.8867,0.82812 7.4922,1.9609 11.277,3.1523 4.418,1.3906 8.9805,2.8242 14.051,3.7305 2.4414,0.44141 4.8203,0.72656 7.1523,1.0078 6.4531,0.77734 12.023,1.4453 17.266,5.3047 4.8203,3.5547 8.0469,8.2695 11.434,14.895 -8.2031,3.4102 -16.094,7.3633 -23.492,11.789 -8.9492,5.3555 -17.664,11.133 -25.949,17.219 -0.46484,-0.98437 -0.93359,-1.9766 -1.3945,-2.9609 -0.90234,-1.9023 -1.7852,-3.7734 -2.6367,-5.6172 -2.5508,-5.5234 -4.7852,-10.754 -6.0742,-15.523 z m 78.859,-50.336 c 3.125,-7.043 6.332,-14.285 8.2305,-22.488 9.2461,7.2461 17.543,14.242 24.664,22.574 5.9961,7.0117 9.4297,20.352 11.555,31.164 -18.762,0.96875 -36.73,4.4023 -53.535,10.227 -1.7656,-16.996 3.5156,-28.914 9.0859,-41.477 z m 59.41,17.379 c 1.3164,-6.3008 3.2773,-12.23 6.3555,-16.094 4.4961,-5.6562 9.3203,-10.359 14.426,-15.344 2.9805,-2.9023 6.0312,-5.8789 9.0312,-9.0898 4.7227,6.6484 9.7031,12.18 14.934,17.992 2.1406,2.375 4.3047,4.7773 6.4688,7.2852 9.2578,10.734 12.48,25.512 13.934,38.328 -1.1641,-0.32031 -2.3359,-0.62891 -3.5,-0.92578 -15.047,-3.7734 -29.785,-6.2109 -44.133,-7.4805 -6.5898,-0.58203 -13.125,-0.99609 -19.516,-1.043 0.42578,-4.3203 1.0469,-9.0703 2,-13.629 z m 92.188,0.76172 c 4.1367,-2.7109 8.1406,-5.1562 12.051,-7.5547 7.6055,-4.6484 14.875,-9.1016 22.203,-14.844 0.78516,10.375 4.3906,20.203 7.9062,29.766 2.457,6.6875 4.7812,12.996 6.2109,19.492 1.7344,7.8281 2.0508,16.016 1.8594,23.172 -0.0742,2.3906 -0.19141,4.6641 -0.33984,6.7773 -1.1875,-0.75 -2.3516,-1.4844 -3.5273,-2.1953 -20.457,-12.324 -40.84,-21.879 -60.637,-28.422 0.66016,-2.8672 1.3555,-5.5898 2.1562,-8.1523 2.4141,-7.6797 5.7617,-13.883 12.117,-18.039 z m -293.07,120.17 c -0.86719,-1.0469 -1.6367,-2.1094 -2.4453,-3.1641 -0.58203,-0.76562 -1.2148,-1.5234 -1.7734,-2.2969 -0.66406,-0.92578 -1.2383,-1.8672 -1.8594,-2.8008 -0.62109,-0.92969 -1.2812,-1.8555 -1.8633,-2.8008 -0.37891,-0.62109 -0.70703,-1.2656 -1.0742,-1.8867 -0.74609,-1.2812 -1.5117,-2.5586 -2.1953,-3.8711 6.5,-1.2812 21.039,-2.9805 25.793,-2.9844 2.3242,0.39062 4.7383,1.4492 7.4219,2.9023 -6.1367,7.1523 -11.918,14.633 -17.242,22.301 -1.6836,-1.8008 -3.2695,-3.5977 -4.7617,-5.3984 z m -8.3906,26.516 c -3.2422,6.2109 -6.0742,12.691 -8.3828,19.145 -3.7422,-3.5352 -7.0898,-7.1055 -10.246,-11.312 5.8477,-3.668 11.852,-6.2031 18.629,-7.832 z m -15.312,52.258 c -0.0625,1.4609 -0.0742,3.0469 -0.0352,4.7812 -4.261696,-0.51562 -8.898396,-1.5742 -13.858996,-3.1797 3.3281,-6.3438 8.2031,-9.5469 14.995996,-12.422 -0.58984,3.7539 -0.96094,7.375 -1.1016,10.82 z"
           id="path24914" /><path
           d="m 588.95,251.78 c 0,4.0898 -3.3164,7.4023 -7.4062,7.4023 -4.0859,0 -7.4023,-3.3125 -7.4023,-7.4023 0,-4.0898 3.3164,-7.4023 7.4023,-7.4023 4.0898,0 7.4062,3.3125 7.4062,7.4023"
           id="path24916" /></g></g></g></svg>
