<?xml version="1.0" encoding="UTF-8" standalone="no"?>
<!-- Created with Inkscape (http://www.inkscape.org/) -->

<svg
   width="69.599998mm"
   height="69.599998mm"
   viewBox="0 0 69.599998 69.599998"
   version="1.1"
   id="svg8462"
   inkscape:version="1.2.1 (2ed6d7ae0b, 2022-08-22, custom)"
   sodipodi:docname="icon-noun-fish-5105641.svg"
   xml:space="preserve"
   inkscape:export-filename="../7af33372/icon-fish.png"
   inkscape:export-xdpi="96"
   inkscape:export-ydpi="96"
   xmlns:inkscape="http://www.inkscape.org/namespaces/inkscape"
   xmlns:sodipodi="http://sodipodi.sourceforge.net/DTD/sodipodi-0.dtd"
   xmlns:xlink="http://www.w3.org/1999/xlink"
   xmlns="http://www.w3.org/2000/svg"
   xmlns:svg="http://www.w3.org/2000/svg"
   xmlns:rdf="http://www.w3.org/1999/02/22-rdf-syntax-ns#"
   xmlns:cc="http://creativecommons.org/ns#"
   xmlns:dc="http://purl.org/dc/elements/1.1/"><defs
     id="defs8456"><linearGradient
       inkscape:collect="always"
       id="linearGradient31654"><stop
         style="stop-color:#0500b2;stop-opacity:1;"
         offset="0"
         id="stop31650" /><stop
         style="stop-color:#6ccdff;stop-opacity:1;"
         offset="1"
         id="stop31652" /></linearGradient><linearGradient
       inkscape:collect="always"
       id="linearGradient30493"><stop
         style="stop-color:#0076b2;stop-opacity:1;"
         offset="0"
         id="stop30489" /><stop
         style="stop-color:#00cbb3;stop-opacity:1;"
         offset="1"
         id="stop30491" /></linearGradient><symbol
       id="u"
       overflow="visible"><path
         d="m 18.766,-1.125 c -0.96875,0.5 -1.9805,0.875 -3.0312,1.125 -1.043,0.25781 -2.1367,0.39062 -3.2812,0.39062 -3.3984,0 -6.0898,-0.94531 -8.0781,-2.8438 -1.9922,-1.9062 -2.9844,-4.4844 -2.9844,-7.7344 0,-3.2578 0.99219,-5.8359 2.9844,-7.7344 1.9883,-1.9062 4.6797,-2.8594 8.0781,-2.8594 1.1445,0 2.2383,0.13281 3.2812,0.39062 1.0508,0.25 2.0625,0.625 3.0312,1.125 v 4.2188 c -0.98047,-0.65625 -1.9453,-1.1406 -2.8906,-1.4531 -0.94922,-0.3125 -1.9492,-0.46875 -3,-0.46875 -1.875,0 -3.3516,0.60547 -4.4219,1.8125 -1.0742,1.1992 -1.6094,2.8555 -1.6094,4.9688 0,2.1055 0.53516,3.7617 1.6094,4.9688 1.0703,1.1992 2.5469,1.7969 4.4219,1.7969 1.0508,0 2.0508,-0.14844 3,-0.45312 0.94531,-0.3125 1.9102,-0.80078 2.8906,-1.4688 z"
         id="path30204" /></symbol><symbol
       id="d"
       overflow="visible"><path
         d="m 13.734,-11.141 c -0.4375,-0.19531 -0.87109,-0.34375 -1.2969,-0.4375 -0.41797,-0.10156 -0.83984,-0.15625 -1.2656,-0.15625 -1.2617,0 -2.2305,0.40625 -2.9062,1.2188 -0.67969,0.80469 -1.0156,1.9531 -1.0156,3.4531 v 7.0625 H 2.3591 v -15.312 h 4.8906 v 2.5156 c 0.625,-1 1.3438,-1.7266 2.1562,-2.1875 0.82031,-0.46875 1.8008,-0.70312 2.9375,-0.70312 0.16406,0 0.34375,0.01172 0.53125,0.03125 0.19531,0.01172 0.47656,0.03906 0.84375,0.07813 z"
         id="path30207" /></symbol><symbol
       id="a"
       overflow="visible"><path
         d="m 17.641,-7.7031 v 1.4062 H 6.188 c 0.125,1.1484 0.53906,2.0078 1.25,2.5781 0.70703,0.57422 1.7031,0.85938 2.9844,0.85938 1.0312,0 2.082,-0.14844 3.1562,-0.45312 1.082,-0.3125 2.1914,-0.77344 3.3281,-1.3906 v 3.7656 c -1.1562,0.4375 -2.3125,0.76562 -3.4688,0.98438 -1.1562,0.22656 -2.3125,0.34375 -3.4688,0.34375 -2.7734,0 -4.9297,-0.70312 -6.4688,-2.1094 -1.5312,-1.4062 -2.2969,-3.3789 -2.2969,-5.9219 0,-2.5 0.75391,-4.4609 2.2656,-5.8906 1.5078,-1.4375 3.582,-2.1562 6.2188,-2.1562 2.4062,0 4.332,0.73047 5.7812,2.1875 1.4453,1.4492 2.1719,3.3828 2.1719,5.7969 z m -5.0312,-1.625 c 0,-0.92578 -0.27344,-1.6719 -0.8125,-2.2344 -0.54297,-0.57031 -1.25,-0.85938 -2.125,-0.85938 -0.94922,0 -1.7188,0.26562 -2.3125,0.79688 -0.5937,0.53126 -0.96484,1.2969 -1.1094,2.2969 z"
         id="path30210" /></symbol><symbol
       id="c"
       overflow="visible"><path
         d="m 9.2188,-6.8906 c -1.0234,0 -1.793,0.17188 -2.3125,0.51562 -0.51172,0.34375 -0.76562,0.85547 -0.76562,1.5312 0,0.625 0.20703,1.1172 0.625,1.4688 0.41406,0.34375 0.98828,0.51562 1.7188,0.51562 0.92578,0 1.7031,-0.32812 2.3281,-0.98438 0.63281,-0.66406 0.95312,-1.4922 0.95312,-2.4844 v -0.5625 z m 7.4688,-1.8438 V 0 h -4.9219 v -2.2656 c -0.65625,0.92969 -1.3984,1.6055 -2.2188,2.0312 -0.82422,0.41406 -1.8242,0.625 -3,0.625 -1.5859,0 -2.8711,-0.45703 -3.8594,-1.375 -0.99219,-0.92578 -1.4844,-2.1289 -1.4844,-3.6094 0,-1.7891 0.61328,-3.1016 1.8438,-3.9375 1.2383,-0.84375 3.1797,-1.2656 5.8281,-1.2656 h 2.8906 v -0.39062 c 0,-0.76953 -0.30859,-1.332 -0.92188,-1.6875 -0.61719,-0.36328 -1.5703,-0.54688 -2.8594,-0.54688 -1.0547,0 -2.0312,0.10547 -2.9375,0.3125 -0.89844,0.21094 -1.7305,0.52344 -2.5,0.9375 v -3.7344 c 1.0391,-0.25 2.0859,-0.44141 3.1406,-0.57812 1.0625,-0.13281 2.125,-0.20312 3.1875,-0.20312 2.7578,0 4.75,0.54688 5.9688,1.6406 1.2266,1.0859 1.8438,2.8555 1.8438,5.3125 z"
         id="path30213" /></symbol><symbol
       id="b"
       overflow="visible"><path
         d="m 7.7031,-19.656 v 4.3438 H 12.75 v 3.5 H 7.7031 v 6.5 c 0,0.71094 0.14062,1.1875 0.42188,1.4375 0.28126,0.25 0.83594,0.375 1.6719,0.375 h 2.5156 v 3.5 h -4.1875 c -1.9375,0 -3.3125,-0.39844 -4.125,-1.2031 -0.80469,-0.8125 -1.2031,-2.1797 -1.2031,-4.1094 v -6.5 h -2.4219 v -3.5 h 2.4219 v -4.3438 z"
         id="path30216" /></symbol><symbol
       id="f"
       overflow="visible"><path
         d="m 12.766,-13.078 v -8.2031 h 4.9219 V -10e-5 H 12.766 v -2.2188 c -0.66797,0.90625 -1.4062,1.5703 -2.2188,1.9844 -0.8126,0.4141 -1.7578,0.625 -2.8281,0.625 -1.8867,0 -3.4336,-0.75 -4.6406,-2.25 -1.2109,-1.5 -1.8125,-3.4258 -1.8125,-5.7812 0,-2.3633 0.60156,-4.2969 1.8125,-5.7969 1.207,-1.5 2.7539,-2.25 4.6406,-2.25 1.0625,0 2,0.21484 2.8125,0.64062 0.82031,0.42969 1.5664,1.0859 2.2344,1.9688 z m -3.2188,9.9219 c 1.0391,0 1.8359,-0.37891 2.3906,-1.1406 0.55078,-0.76953 0.82812,-1.8828 0.82812,-3.3438 0,-1.457 -0.27734,-2.5664 -0.82812,-3.3281 -0.55469,-0.76953 -1.3516,-1.1562 -2.3906,-1.1562 -1.043,0 -1.8398,0.38672 -2.3906,1.1562 -0.55469,0.76172 -0.82812,1.8711 -0.82812,3.3281 0,1.4609 0.27344,2.5742 0.82812,3.3438 0.55078,0.76172 1.3477,1.1406 2.3906,1.1406 z"
         id="path30219" /></symbol><symbol
       id="l"
       overflow="visible"><path
         d="m 10.5,-3.1562 c 1.0508,0 1.8516,-0.37891 2.4062,-1.1406 0.55078,-0.76953 0.82812,-1.8828 0.82812,-3.3438 0,-1.457 -0.27734,-2.5664 -0.82812,-3.3281 -0.55469,-0.76953 -1.3555,-1.1562 -2.4062,-1.1562 -1.0547,0 -1.8594,0.38672 -2.4219,1.1562 -0.55469,0.77344 -0.82812,1.8828 -0.82812,3.3281 0,1.4492 0.27344,2.5586 0.82812,3.3281 0.5625,0.77344 1.3672,1.1562 2.4219,1.1562 z m -3.25,-9.9219 c 0.67578,-0.88281 1.4219,-1.5391 2.2344,-1.9688 0.82031,-0.42578 1.7656,-0.64062 2.8281,-0.64062 1.8945,0 3.4453,0.75 4.6562,2.25 1.207,1.5 1.8125,3.4336 1.8125,5.7969 0,2.3555 -0.60547,4.2812 -1.8125,5.7812 -1.2109,1.5 -2.7617,2.25 -4.6562,2.25 -1.0625,0 -2.0078,-0.21094 -2.8281,-0.625 C 8.6719,-0.6602 7.9258,-1.32032 7.25,-2.21882 V -2e-5 H 2.3594 v -21.281 H 7.25 Z"
         id="path30222" /></symbol><symbol
       id="k"
       overflow="visible"><path
         d="m 0.34375,-15.312 h 4.8906 l 4.125,10.391 3.5,-10.391 h 4.8906 l -6.4375,16.766 c -0.64844,1.6953 -1.4023,2.8828 -2.2656,3.5625 -0.86719,0.6875 -2,1.0312 -3.4062,1.0312 H 2.79685 V 2.8289 h 1.5312 c 0.83203,0 1.4375,-0.13672 1.8125,-0.40625 C 6.52336,2.16093 6.82024,1.69218 7.03117,1.01645 L 7.17179,0.59457 Z"
         id="path30225" /></symbol><symbol
       id="j"
       overflow="visible"><path
         d="m 1.5781,-20.406 h 17.156 v 3.1719 l -10.953,13.25 h 11.266 V 3e-4 H 1.2661 v -3.1875 l 10.938,-13.25 H 1.5791 Z"
         id="path30228" /></symbol><symbol
       id="i"
       overflow="visible"><path
         d="M 2.3594,-15.312 H 7.25 v 15.031 c 0,2.0508 -0.49609,3.6172 -1.4844,4.7031 -0.98047,1.082 -2.4062,1.625 -4.2812,1.625 H -0.9375 V 2.8283 h 0.85938 c 0.92578,0 1.5625,-0.21094 1.9062,-0.625 0.35156,-0.41797 0.53125,-1.2461 0.53125,-2.4844 z m 0,-5.9688 H 7.25 v 4 H 2.3594 Z"
         id="path30231" /></symbol><symbol
       id="h"
       overflow="visible"><path
         d="m 2.5781,-20.406 h 5.875 l 7.4219,14 v -14 h 4.9844 V 0 h -5.875 L 7.5625,-14 V 0 H 2.5781 Z"
         id="path30234" /></symbol><symbol
       id="t"
       overflow="visible"><path
         d="M 2.3594,-21.281 H 7.25 v 11.594 l 5.625,-5.625 h 5.6875 L 11.0937,-8.2808 19.1562,4e-4 H 13.2187 L 7.2499,-6.3902 V 4e-4 H 2.3593 Z"
         id="path30237" /></symbol><symbol
       id="g"
       overflow="visible"><path
         d="M 17.75,-9.3281 V 0 h -4.9219 v -7.1094 c 0,-1.3438 -0.03125,-2.2656 -0.09375,-2.7656 -0.0625,-0.5 -0.16797,-0.86719 -0.3125,-1.1094 -0.1875,-0.3125 -0.44922,-0.55469 -0.78125,-0.73438 -0.32422,-0.17578 -0.69531,-0.26562 -1.1094,-0.26562 -1.0234,0 -1.8242,0.39844 -2.4062,1.1875 -0.58594,0.78125 -0.875,1.8711 -0.875,3.2656 V -1e-4 H 2.3594 v -21.281 H 7.25 v 8.2031 c 0.73828,-0.88281 1.5195,-1.5391 2.3438,-1.9688 0.83203,-0.42578 1.75,-0.64062 2.75,-0.64062 1.7695,0 3.1133,0.54688 4.0312,1.6406 0.91406,1.0859 1.375,2.6562 1.375,4.7188 z"
         id="path30240" /></symbol><symbol
       id="s"
       overflow="visible"><path
         d="M 2.3594,-15.312 H 7.25 V 0 H 2.3594 Z m 0,-5.9688 H 7.25 v 4 H 2.3594 Z"
         id="path30243" /></symbol><symbol
       id="r"
       overflow="visible"><path
         d="m 12.422,-21.281 v 3.2188 H 9.7189 c -0.6875,0 -1.1719,0.125 -1.4531,0.375 -0.27344,0.25 -0.40625,0.6875 -0.40625,1.3125 v 1.0625 h 4.1875 v 3.5 H 7.85955 V -2e-4 h -4.8906 v -11.812 h -2.4375 v -3.5 h 2.4375 v -1.0625 c 0,-1.6641 0.46094,-2.8984 1.3906,-3.7031 0.92578,-0.80078 2.3672,-1.2031 4.3281,-1.2031 z"
         id="path30246" /></symbol><symbol
       id="e"
       overflow="visible"><path
         d="m 9.6406,-12.188 c -1.0859,0 -1.9141,0.39062 -2.4844,1.1719 -0.57422,0.78125 -0.85938,1.9062 -0.85938,3.375 0,1.4688 0.28516,2.5938 0.85938,3.375 0.57031,0.77344 1.3984,1.1562 2.4844,1.1562 1.0625,0 1.875,-0.38281 2.4375,-1.1562 0.57031,-0.78125 0.85938,-1.9062 0.85938,-3.375 0,-1.4688 -0.28906,-2.5938 -0.85938,-3.375 -0.5625,-0.78125 -1.375,-1.1719 -2.4375,-1.1719 z m 0,-3.5 c 2.6328,0 4.6914,0.71484 6.1719,2.1406 1.4766,1.418 2.2188,3.3867 2.2188,5.9062 0,2.5117 -0.74219,4.4805 -2.2188,5.9062 C 14.332,-0.317 12.2734,0.39 9.6406,0.39 6.9922,0.39 4.9258,-0.31703 3.4375,-1.735 1.9453,-3.1608 1.2031,-5.1295 1.2031,-7.6412 c 0,-2.5195 0.74219,-4.4883 2.2344,-5.9062 1.4883,-1.4258 3.5547,-2.1406 6.2031,-2.1406 z"
         id="path30249" /></symbol><symbol
       id="q"
       overflow="visible"><path
         d="m 16.547,-12.766 c 0.61328,-0.94531 1.3477,-1.6719 2.2031,-2.1719 0.85156,-0.5 1.7891,-0.75 2.8125,-0.75 1.7578,0 3.0977,0.54688 4.0156,1.6406 0.92578,1.0859 1.3906,2.6562 1.3906,4.7188 V -4e-4 h -4.9219 v -7.9844 -0.35938 c 0.0078,-0.13281 0.01563,-0.32031 0.01563,-0.5625 0,-1.082 -0.16406,-1.8633 -0.48438,-2.3438 -0.3125,-0.48828 -0.82422,-0.73438 -1.5312,-0.73438 -0.92969,0 -1.6484,0.38672 -2.1562,1.1562 -0.51172,0.76172 -0.77344,1.8672 -0.78125,3.3125 v 7.5156 h -4.9219 v -7.9844 c 0,-1.6953 -0.14844,-2.7852 -0.4375,-3.2656 -0.29297,-0.48828 -0.8125,-0.73438 -1.5625,-0.73438 -0.9375,0 -1.6641,0.38672 -2.1719,1.1562 -0.51172,0.76172 -0.76562,1.8594 -0.76562,3.2969 v 7.5312 h -4.9219 v -15.312 h 4.9219 v 2.2344 c 0.60156,-0.86328 1.2891,-1.5156 2.0625,-1.9531 0.78125,-0.4375 1.6406,-0.65625 2.5781,-0.65625 1.0625,0 2,0.25781 2.8125,0.76562 0.8125,0.51172 1.4258,1.2305 1.8438,2.1562 z"
         id="path30252" /></symbol><symbol
       id="p"
       overflow="visible"><path
         d="m 2.1875,-5.9688 v -9.3438 h 4.9219 v 1.5312 c 0,0.83594 -0.00781,1.875 -0.015625,3.125 -0.011719,1.25 -0.015625,2.0859 -0.015625,2.5 0,1.2422 0.03125,2.1328 0.09375,2.6719 0.070313,0.54297 0.17969,0.93359 0.32812,1.1719 0.20703,0.32422 0.47266,0.57422 0.79688,0.75 0.32031,0.16797 0.69141,0.25 1.1094,0.25 1.0195,0 1.8203,-0.39062 2.4062,-1.1719 0.58203,-0.78125 0.875,-1.8672 0.875,-3.2656 v -7.5625 h 4.8906 V -6e-4 H 12.6875 V -2.2194 C 11.94531,-1.32096 11.1641,-0.6608 10.3437,-0.235 9.51948,0.17906 8.6093,0.39 7.6093,0.39 5.8476,0.39 4.5038,-0.14906 3.5781,-1.235 2.64841,-2.317 2.1875,-3.8952 2.1875,-5.9694 Z"
         id="path30255" /></symbol><symbol
       id="o"
       overflow="visible"><path
         d="M 17.75,-9.3281 V 0 h -4.9219 v -7.1406 c 0,-1.3203 -0.03125,-2.2344 -0.09375,-2.7344 -0.0625,-0.5 -0.16797,-0.86719 -0.3125,-1.1094 -0.1875,-0.3125 -0.44922,-0.55469 -0.78125,-0.73438 -0.32422,-0.17578 -0.69531,-0.26562 -1.1094,-0.26562 -1.0234,0 -1.8242,0.39844 -2.4062,1.1875 -0.58594,0.78125 -0.875,1.8711 -0.875,3.2656 V -1e-4 H 2.3594 v -15.312 H 7.25 v 2.2344 c 0.73828,-0.88281 1.5195,-1.5391 2.3438,-1.9688 0.83203,-0.42578 1.75,-0.64062 2.75,-0.64062 1.7695,0 3.1133,0.54688 4.0312,1.6406 0.91406,1.0859 1.375,2.6562 1.375,4.7188 z"
         id="path30258" /></symbol><symbol
       id="n"
       overflow="visible"><path
         d="m 2.5781,-20.406 h 8.7344 c 2.5938,0 4.582,0.57812 5.9688,1.7344 1.3945,1.1484 2.0938,2.7891 2.0938,4.9219 0,2.1367 -0.69922,3.7812 -2.0938,4.9375 -1.3867,1.1562 -3.375,1.7344 -5.9688,1.7344 H 7.8281 V 3e-4 h -5.25 z m 5.25,3.8125 v 5.7031 H 10.75 c 1.0195,0 1.8047,-0.25 2.3594,-0.75 0.5625,-0.5 0.84375,-1.2031 0.84375,-2.1094 0,-0.91406 -0.28125,-1.6172 -0.84375,-2.1094 -0.55469,-0.48828 -1.3398,-0.73438 -2.3594,-0.73438 z"
         id="path30261" /></symbol><symbol
       id="m"
       overflow="visible"><path
         d="m 14.719,-14.828 v 3.9844 c -0.65625,-0.45703 -1.3242,-0.79688 -2,-1.0156 -0.66797,-0.21875 -1.3594,-0.32812 -2.0781,-0.32812 -1.3672,0 -2.4336,0.40234 -3.2031,1.2031 -0.76172,0.79297 -1.1406,1.9062 -1.1406,3.3438 0,1.4297 0.37891,2.543 1.1406,3.3438 0.76953,0.79297 1.8359,1.1875 3.2031,1.1875 0.75781,0 1.4844,-0.10938 2.1719,-0.32812 0.6875,-0.22656 1.3203,-0.56641 1.9062,-1.0156 v 4 c -0.76172,0.28125 -1.5391,0.48828 -2.3281,0.625 -0.78125,0.14453 -1.5742,0.21875 -2.375,0.21875 -2.7617,0 -4.9219,-0.70703 -6.4844,-2.125 -1.5547,-1.4141 -2.3281,-3.3828 -2.3281,-5.9062 0,-2.5312 0.77344,-4.5039 2.3281,-5.9219 1.5625,-1.4141 3.7227,-2.125 6.4844,-2.125 0.80078,0 1.5938,0.07422 2.375,0.21875 0.78125,0.13672 1.5547,0.35156 2.3281,0.64062 z"
         id="path30264" /></symbol><radialGradient
       inkscape:collect="always"
       xlink:href="#linearGradient30493"
       id="radialGradient30497"
       cx="423.17346"
       cy="351.88412"
       fx="423.17346"
       fy="351.88412"
       r="250.77847"
       gradientTransform="matrix(1,0,0,0.73221889,0,94.812321)"
       gradientUnits="userSpaceOnUse" /><clipPath
       clipPathUnits="userSpaceOnUse"
       id="clipPath31615"><circle
         style="display:inline;opacity:1;fill:#1197bc;fill-opacity:0.977419;stroke:none;stroke-width:26.5746;stroke-miterlimit:4;stroke-dasharray:none;stroke-dashoffset:0;stroke-opacity:1"
         id="circle31617"
         cx="340.28671"
         cy="276.43167"
         r="329.35205" /></clipPath><linearGradient
       inkscape:collect="always"
       xlink:href="#linearGradient31654"
       id="linearGradient31648"
       x1="97.921333"
       y1="180.62714"
       x2="97.779388"
       y2="114.55069"
       gradientUnits="userSpaceOnUse" /><filter
       style="color-interpolation-filters:sRGB"
       inkscape:label="Drop Shadow"
       id="filter31666"
       x="-0.034375"
       y="-0.034375"
       width="1.0875"
       height="1.0875"><feFlood
         flood-opacity="0.498039"
         flood-color="rgb(0,0,0)"
         result="flood"
         id="feFlood31656" /><feComposite
         in="flood"
         in2="SourceGraphic"
         operator="in"
         result="composite1"
         id="feComposite31658" /><feGaussianBlur
         in="composite1"
         stdDeviation="0.5"
         result="blur"
         id="feGaussianBlur31660" /><feOffset
         dx="1.2"
         dy="1.2"
         result="offset"
         id="feOffset31662" /><feComposite
         in="SourceGraphic"
         in2="offset"
         operator="over"
         result="composite2"
         id="feComposite31664" /></filter></defs><sodipodi:namedview
     id="base"
     pagecolor="#ffffff"
     bordercolor="#666666"
     borderopacity="1.0"
     inkscape:pageopacity="0.0"
     inkscape:pageshadow="2"
     inkscape:zoom="1.4"
     inkscape:cx="3.9285714"
     inkscape:cy="154.28571"
     inkscape:document-units="mm"
     inkscape:current-layer="layer1"
     showgrid="false"
     fit-margin-top="0"
     fit-margin-left="0"
     fit-margin-right="0"
     fit-margin-bottom="-2.7755576e-17"
     inkscape:window-width="1875"
     inkscape:window-height="1053"
     inkscape:window-x="45"
     inkscape:window-y="27"
     inkscape:window-maximized="1"
     inkscape:showpageshadow="2"
     inkscape:pagecheckerboard="0"
     inkscape:deskcolor="#d1d1d1" /><metadata
     id="metadata8459"><rdf:RDF><cc:Work
         rdf:about=""><dc:format>image/svg+xml</dc:format><dc:type
           rdf:resource="http://purl.org/dc/dcmitype/StillImage" /></cc:Work></rdf:RDF></metadata><g
     inkscape:label="Layer 1"
     inkscape:groupmode="layer"
     id="layer1"
     transform="translate(-63.823819,-113.7494)"
     style="display:inline"><circle
       style="opacity:1;fill:url(#linearGradient31648);fill-opacity:1;stroke:#000000;stroke-width:2;stroke-miterlimit:4;stroke-dasharray:none;stroke-dashoffset:0;stroke-opacity:1;filter:url(#filter31666)"
       id="circle3172"
       cx="98.023819"
       cy="147.9494"
       r="32" /></g><g
     inkscape:groupmode="layer"
     id="layer2"
     inkscape:label="Layer 2"
     style="display:inline"
     transform="translate(2.2000001,2.1999982)"><g
       id="g31585"
       transform="matrix(0.09716048,0,0,0.09716048,-1.0624167,5.1417683)"
       clip-path="url(#clipPath31615)"><path
         style="fill:#e7b600;fill-opacity:1;stroke:none;stroke-width:11.7382;stroke-dasharray:none;stroke-opacity:1"
         d="m 670.89399,260.01036 c -17.30712,12.72007 -29.53664,31.53182 -39.26739,50.40735 -23.44106,50.15444 -16.81998,114.52389 19.91727,156.59945 9.00637,7.02964 19.71966,-2.94041 28.69058,-5.58942 45.44886,-20.38631 88.3593,-52.1969 111.56439,-97.27858 2.0263,-10.04761 -8.3548,-17.33564 -12.45988,-25.83281 -25.3881,-35.82312 -62.93426,-61.88923 -102.79129,-79.03155 -2.10017,-0.4229 -3.84173,-0.62838 -5.65368,0.72556 z m 11.21579,63.80685 c 7.6081,0.4531 8.74074,12.63281 1.47704,15.24959 -8.0372,5.16072 -16.6247,-8.72357 -8.64083,-14.07281 1.60667,-2.15291 4.96514,-0.79202 7.16379,-1.17678 z"
         id="path30485"
         transform="scale(0.75)" /><path
         style="fill:url(#radialGradient30497);fill-opacity:1;stroke:none;stroke-width:11.7382;stroke-dasharray:none;stroke-opacity:1"
         d="m 445.82303,170.44176 c -11.71755,3.31925 -4.72106,17.4091 -3.88215,25.65256 1.89722,13.13146 8.38918,25.71579 8.57712,38.91253 -8.28563,10.07794 -23.61822,8.67832 -34.78291,13.89901 -43.11599,13.54245 -82.82219,37.27899 -115.14712,68.85458 -3.89643,5.08203 -10.36155,6.86479 -15.16163,1.54073 -37.0959,-31.34872 -82.50951,-52.608 -130.06129,-62.03562 -9.95301,-0.71702 -10.8263,11.38757 -6.11743,17.53946 12.48633,30.32663 32.54782,56.52396 52.88527,81.89527 6.64361,8.36999 -5.82641,15.58373 -9.76938,21.91285 -18.81297,23.02627 -35.68325,48.48029 -45.53617,76.66658 -0.71436,10.94872 13.05079,10.51828 20.18794,7.68532 43.32639,-11.36676 85.30668,-30.39996 118.98732,-60.39164 8.66686,-8.27531 16.42831,5.28692 22.78946,9.91467 28.80764,27.82623 65.27156,46.61233 102.14313,60.50096 10.63253,2.44198 4.75606,13.55462 2.56586,20.16293 -3.91601,13.15858 -11.75922,26.1581 -10.89429,40.16818 6.26311,10.28615 17.79084,-0.53818 25.86703,-2.57077 25.56679,-10.78427 49.78333,-24.48442 73.23103,-39.25945 38.42728,0.61484 77.11098,-0.2459 114.72678,-8.96231 7.62444,0.0543 16.38295,-6.18404 11.8891,-14.48227 -11.71436,-21.69836 -22.72715,-44.35403 -25.77386,-69.16909 -7.82621,-50.367 8.16811,-104.16274 43.98056,-140.76753 6.24359,-10.39636 -8.30872,-13.19543 -15.614,-14.42355 -29.16034,-8.4652 -59.54181,-10.17092 -89.39222,-14.20128 -25.25553,-20.28707 -51.91584,-38.87007 -80.98158,-53.34709 -4.73918,-2.10599 -9.36053,-5.61204 -14.71657,-5.69503 z"
         id="path30487"
         transform="scale(0.75)" /><g
         id="g30414"
         inkscape:label="fish"><path
           d="m 413.79,155.79 c -23.082,-19.699 -52.621,-37.41 -87.875,-52.672 -3.375,-1.4609 -7.2656,-1.1719 -10.387,0.78125 -3.1211,1.9531 -5.0859,5.3164 -5.2539,8.9922 -0.67188,15 1.8086,32.531 7.5664,53.344 -39.547,10.906 -74.082,29.762 -99.156,54.117 -2.0078,-1.6367 -4.1172,-3.2734 -6.3281,-4.918 -24.605,-18.359 -55.48,-31.977 -89.316,-39.391 -8.125,-1.7578 -16.094,-3.1211 -23.684,-4.0469 -3.5859,-0.4375 -7.1602,0.87891 -9.6016,3.5391 -2.4453,2.6562 -3.457,6.332 -2.7188,9.8633 5.9727,28.664 21.75,58.75 44.766,85.609 -23.012,26.863 -38.789,56.941 -44.762,85.609 -0.73438,3.5312 0.27734,7.207 2.7188,9.8633 2.4375,2.6562 5.9922,3.9609 9.6016,3.5391 7.6094,-0.92969 15.578,-2.2891 23.711,-4.0508 33.812,-7.4141 64.688,-21.031 89.273,-39.379 2.1797,-1.6172 4.2695,-3.25 6.293,-4.9062 19.41,18.871 44.438,34.438 73.383,45.637 -6.4727,16.75 -10.148,32.461 -11.184,47.73 -0.25,3.668 1.3203,7.2305 4.1992,9.5195 2.0078,1.5977 4.4727,2.4375 6.9766,2.4375 1.0898,0 2.1836,-0.16016 3.2461,-0.48047 29.32,-8.8828 57.676,-22.121 86.578,-40.438 5.7109,0.31641 11.48,0.47656 17.207,0.47656 98.25,0 183.93,-44.602 213.2,-110.98 1.2656,-2.875 1.2695,-6.1484 0.004,-9.0234 -27.383,-62.352 -106.83,-106.55 -198.46,-110.77 z m -14.742,208.38 c -6.4688,0 -12.996,-0.22266 -19.402,-0.66016 -2.3945,-0.15234 -4.8047,0.45703 -6.832,1.7656 -22.582,14.578 -44.711,25.832 -67.18,34.148 2.3008,-10.777 6.1055,-22.047 11.48,-34.066 1.2891,-2.8828 1.3008,-6.1719 0.0312,-9.0625 -1.2695,-2.8906 -3.6953,-5.1133 -6.6875,-6.1211 -34.215,-11.516 -62.867,-29.309 -82.867,-51.461 -2.0195,-2.2383 -4.8555,-3.5664 -7.8711,-3.6875 -0.14844,-0.004 -0.29688,-0.008 -0.44141,-0.008 -2.8555,0 -5.6094,1.0898 -7.6953,3.0625 -3.8984,3.6836 -8.0156,7.1328 -12.621,10.551 -22.062,16.465 -49.961,28.727 -80.656,35.457 -1.625,0.35156 -3.2422,0.68359 -4.8477,1 7.8438,-22.57 22.223,-45.664 41.559,-66.445 4.0039,-4.2969 4.0039,-10.961 0.004,-15.258 -19.34,-20.785 -33.719,-43.875 -41.562,-66.445 1.5977,0.3125 3.2031,0.64453 4.8164,0.99609 30.715,6.7305 58.617,18.992 80.699,35.469 4.7734,3.5508 8.9102,6.9961 12.66,10.543 2.1914,2.0742 5.1836,3.1523 8.1367,3.0586 3.0156,-0.12109 5.8555,-1.4492 7.875,-3.6875 24.625,-27.285 62.539,-47.941 106.76,-58.168 3.0391,-0.70703 5.6484,-2.6445 7.1992,-5.3555 1.5508,-2.7109 1.8984,-5.9453 0.96094,-8.9219 -4.7539,-15.109 -7.793,-28.25 -9.1602,-39.703 27.363,13.195 50.383,27.977 68.594,44.055 1.9492,1.7227 4.4414,2.7109 7.0391,2.8008 25.688,0.85156 50.328,5.0352 72.875,12 -23.312,24.035 -36.371,55.988 -36.371,90.219 0,27.18 8.3906,53.285 23.898,75.125 -22.133,5.7031 -45.922,8.8008 -70.395,8.8008 z m 93.223,-15.809 c -15.73,-19.184 -24.32,-43.105 -24.32,-68.121 0,-31.773 13.594,-61.188 37.512,-81.625 38.738,16.48 69.008,41.809 84.18,72.441 -16.828,33.801 -52.492,61.191 -97.371,77.305 z"
           id="path30269" /><path
           d="m 510.29,237.53 h -0.4375 c -6.1836,0 -10.98,5.0156 -10.98,11.199 0,6.1836 5.2344,11.199 11.418,11.199 6.1836,0 11.199,-5.0156 11.199,-11.199 0.004,-6.1836 -5.0117,-11.199 -11.199,-11.199 z"
           id="path30271" /><path
           d="m 98,54.602 c 21.797,0 32.164,6.9141 44.164,14.918 13.133,8.7539 28.016,18.68 56.602,18.68 28.59,0 43.477,-9.9258 56.609,-18.68 12.008,-8.0078 22.379,-14.918 44.188,-14.918 21.809,0 32.18,6.9141 44.191,14.918 13.133,8.7578 28.02,18.68 56.609,18.68 28.598,0 43.484,-9.9258 56.625,-18.68 12.008,-8.0078 22.383,-14.918 44.195,-14.918 21.812,0 32.188,6.9141 44.195,14.918 13.137,8.7578 28.027,18.68 56.621,18.68 6.1836,0 11.199,-5.0156 11.199,-11.199 0,-6.1834 -5.0156,-11.199 -11.199,-11.199 -21.816,0 -32.188,-6.9141 -44.195,-14.918 C 544.667,42.1262 529.777,32.2 501.183,32.2 c -28.594,0 -43.484,9.9219 -56.621,18.68 -12.008,8.0039 -22.383,14.922 -44.199,14.922 -21.809,0 -32.18,-6.9141 -44.188,-14.918 C 343.042,42.1262 328.155,32.2 299.562,32.2 c -28.59,0 -43.48,9.9258 -56.613,18.68 -12.008,8.0078 -22.379,14.922 -44.184,14.922 -21.801,0 -32.168,-6.9141 -44.168,-14.918 C 141.464,42.1262 126.581,32.2 97.999,32.2 91.8154,32.2 86.8,37.2156 86.8,43.399 c 0,6.1875 5.0156,11.203 11.199,11.203 z"
           id="path30273" /><path
           d="m 499.1,420.7 c -29.527,0 -53.551,24.023 -53.551,53.551 0,29.528 24.023,53.551 53.551,53.551 29.528,0 53.551,-24.023 53.551,-53.551 0,-29.528 -24.023,-53.551 -53.551,-53.551 z m 0,84.699 c -17.176,0 -31.148,-13.973 -31.148,-31.148 0,-17.175 13.973,-31.148 31.148,-31.148 17.176,0 31.148,13.973 31.148,31.148 0,17.175 -13.973,31.148 -31.148,31.148 z"
           id="path30275" /><path
           d="m 183.25,362.25 c -20.543,0 -37.254,16.711 -37.254,37.254 0,20.539 16.711,37.254 37.254,37.254 20.539,0 37.254,-16.711 37.254,-37.254 0,-20.539 -16.711,-37.254 -37.254,-37.254 z m 0,52.109 c -8.1914,0 -14.855,-6.6641 -14.855,-14.852 0,-8.1914 6.6641,-14.855 14.855,-14.855 8.1875,0 14.852,6.6641 14.852,14.855 0.004,8.1875 -6.6602,14.852 -14.852,14.852 z"
           id="path30277" /><path
           d="m 458.3,105.45 c -2.1289,2.1289 -3.3047,4.9844 -3.3047,7.9531 0,2.9687 1.1758,5.8242 3.3047,7.8945 2.0703,2.1328 4.9258,3.3086 7.8945,3.3086 2.9687,0 5.8242,-1.1758 7.9531,-3.3047 2.0742,-2.0703 3.25,-4.9258 3.25,-7.8945 0,-2.9687 -1.1758,-5.8242 -3.25,-7.9531 -4.1992,-4.1445 -11.707,-4.1445 -15.848,-0.004 z"
           id="path30279" /><path
           d="m 227.3,151.7 c -2.1289,2.0742 -3.3047,4.9258 -3.3047,7.8984 0,2.9688 1.1758,5.8242 3.3047,7.8945 2.0703,2.1289 4.9258,3.3047 7.8945,3.3047 2.9687,0 5.8242,-1.1758 7.8945,-3.25 2.1289,-2.1289 3.3047,-4.9844 3.3047,-7.9531 0,-2.9687 -1.1758,-5.8242 -3.3047,-7.9531 -4.1406,-4.1406 -11.648,-4.1406 -15.789,0.0586 z"
           id="path30281" /></g></g></g></svg>
