<?xml version="1.0" encoding="UTF-8" standalone="no"?>
<!-- Created with Inkscape (http://www.inkscape.org/) -->

<svg
   width="69.599998mm"
   height="69.599998mm"
   viewBox="0 0 69.599998 69.599998"
   version="1.1"
   id="svg8462"
   inkscape:version="1.2.1 (2ed6d7ae0b, 2022-08-22, custom)"
   sodipodi:docname="icon-noun-hill-4943633.svg"
   xml:space="preserve"
   inkscape:export-filename="../98debe9e/icon-hill.png"
   inkscape:export-xdpi="96"
   inkscape:export-ydpi="96"
   xmlns:inkscape="http://www.inkscape.org/namespaces/inkscape"
   xmlns:sodipodi="http://sodipodi.sourceforge.net/DTD/sodipodi-0.dtd"
   xmlns="http://www.w3.org/2000/svg"
   xmlns:svg="http://www.w3.org/2000/svg"
   xmlns:rdf="http://www.w3.org/1999/02/22-rdf-syntax-ns#"
   xmlns:cc="http://creativecommons.org/ns#"
   xmlns:dc="http://purl.org/dc/elements/1.1/"><defs
     id="defs8456"><symbol
       id="j"
       overflow="visible"><path
         d="m 18.766,-1.125 c -0.96875,0.5 -1.9805,0.875 -3.0312,1.125 -1.043,0.25781 -2.1367,0.39062 -3.2812,0.39062 -3.3984,0 -6.0898,-0.94531 -8.0781,-2.8438 -1.9922,-1.9062 -2.9844,-4.4844 -2.9844,-7.7344 0,-3.2578 0.99219,-5.8359 2.9844,-7.7344 1.9883,-1.9062 4.6797,-2.8594 8.0781,-2.8594 1.1445,0 2.2383,0.13281 3.2812,0.39062 1.0508,0.25 2.0625,0.625 3.0312,1.125 v 4.2188 c -0.98047,-0.65625 -1.9453,-1.1406 -2.8906,-1.4531 -0.94922,-0.3125 -1.9492,-0.46875 -3,-0.46875 -1.875,0 -3.3516,0.60547 -4.4219,1.8125 -1.0742,1.1992 -1.6094,2.8555 -1.6094,4.9688 0,2.1055 0.53516,3.7617 1.6094,4.9688 1.0703,1.1992 2.5469,1.7969 4.4219,1.7969 1.0508,0 2.0508,-0.14844 3,-0.45312 0.94531,-0.3125 1.9102,-0.80078 2.8906,-1.4688 z"
         id="path50973" /></symbol><symbol
       id="c"
       overflow="visible"><path
         d="m 13.734,-11.141 c -0.4375,-0.19531 -0.87109,-0.34375 -1.2969,-0.4375 -0.41797,-0.10156 -0.83984,-0.15625 -1.2656,-0.15625 -1.2617,0 -2.2305,0.40625 -2.9062,1.2188 -0.67969,0.80469 -1.0156,1.9531 -1.0156,3.4531 v 7.0625 H 2.3591 v -15.312 h 4.8906 v 2.5156 c 0.625,-1 1.3438,-1.7266 2.1562,-2.1875 0.82031,-0.46875 1.8008,-0.70312 2.9375,-0.70312 0.16406,0 0.34375,0.01172 0.53125,0.03125 0.19531,0.01172 0.47656,0.03906 0.84375,0.07813 z"
         id="path50976" /></symbol><symbol
       id="b"
       overflow="visible"><path
         d="m 17.641,-7.7031 v 1.4062 H 6.188 c 0.125,1.1484 0.53906,2.0078 1.25,2.5781 0.70703,0.57422 1.7031,0.85938 2.9844,0.85938 1.0312,0 2.082,-0.14844 3.1562,-0.45312 1.082,-0.3125 2.1914,-0.77344 3.3281,-1.3906 v 3.7656 c -1.1562,0.4375 -2.3125,0.76562 -3.4688,0.98438 -1.1562,0.22656 -2.3125,0.34375 -3.4688,0.34375 -2.7734,0 -4.9297,-0.70312 -6.4688,-2.1094 -1.5312,-1.4062 -2.2969,-3.3789 -2.2969,-5.9219 0,-2.5 0.75391,-4.4609 2.2656,-5.8906 1.5078,-1.4375 3.582,-2.1562 6.2188,-2.1562 2.4062,0 4.332,0.73047 5.7812,2.1875 1.4453,1.4492 2.1719,3.3828 2.1719,5.7969 z m -5.0312,-1.625 c 0,-0.92578 -0.27344,-1.6719 -0.8125,-2.2344 -0.54297,-0.57031 -1.25,-0.85938 -2.125,-0.85938 -0.94922,0 -1.7188,0.26562 -2.3125,0.79688 -0.5937,0.53126 -0.96484,1.2969 -1.1094,2.2969 z"
         id="path50979" /></symbol><symbol
       id="a"
       overflow="visible"><path
         d="m 9.2188,-6.8906 c -1.0234,0 -1.793,0.17188 -2.3125,0.51562 -0.51172,0.34375 -0.76562,0.85547 -0.76562,1.5312 0,0.625 0.20703,1.1172 0.625,1.4688 0.41406,0.34375 0.98828,0.51562 1.7188,0.51562 0.92578,0 1.7031,-0.32812 2.3281,-0.98438 0.63281,-0.66406 0.95312,-1.4922 0.95312,-2.4844 v -0.5625 z m 7.4688,-1.8438 V 0 h -4.9219 v -2.2656 c -0.65625,0.92969 -1.3984,1.6055 -2.2188,2.0312 -0.82422,0.41406 -1.8242,0.625 -3,0.625 -1.5859,0 -2.8711,-0.45703 -3.8594,-1.375 -0.99219,-0.92578 -1.4844,-2.1289 -1.4844,-3.6094 0,-1.7891 0.61328,-3.1016 1.8438,-3.9375 1.2383,-0.84375 3.1797,-1.2656 5.8281,-1.2656 h 2.8906 v -0.39062 c 0,-0.76953 -0.30859,-1.332 -0.92188,-1.6875 -0.61719,-0.36328 -1.5703,-0.54688 -2.8594,-0.54688 -1.0547,0 -2.0312,0.10547 -2.9375,0.3125 -0.89844,0.21094 -1.7305,0.52344 -2.5,0.9375 v -3.7344 c 1.0391,-0.25 2.0859,-0.44141 3.1406,-0.57812 1.0625,-0.13281 2.125,-0.20312 3.1875,-0.20312 2.7578,0 4.75,0.54688 5.9688,1.6406 1.2266,1.0859 1.8438,2.8555 1.8438,5.3125 z"
         id="path50982" /></symbol><symbol
       id="d"
       overflow="visible"><path
         d="m 7.7031,-19.656 v 4.3438 H 12.75 v 3.5 H 7.7031 v 6.5 c 0,0.71094 0.14062,1.1875 0.42188,1.4375 0.28126,0.25 0.83594,0.375 1.6719,0.375 h 2.5156 v 3.5 h -4.1875 c -1.9375,0 -3.3125,-0.39844 -4.125,-1.2031 -0.80469,-0.8125 -1.2031,-2.1797 -1.2031,-4.1094 v -6.5 h -2.4219 v -3.5 h 2.4219 v -4.3438 z"
         id="path50985" /></symbol><symbol
       id="l"
       overflow="visible"><path
         d="m 12.766,-13.078 v -8.2031 h 4.9219 V -10e-5 H 12.766 v -2.2188 c -0.66797,0.90625 -1.4062,1.5703 -2.2188,1.9844 -0.8126,0.4141 -1.7578,0.625 -2.8281,0.625 -1.8867,0 -3.4336,-0.75 -4.6406,-2.25 -1.2109,-1.5 -1.8125,-3.4258 -1.8125,-5.7812 0,-2.3633 0.60156,-4.2969 1.8125,-5.7969 1.207,-1.5 2.7539,-2.25 4.6406,-2.25 1.0625,0 2,0.21484 2.8125,0.64062 0.82031,0.42969 1.5664,1.0859 2.2344,1.9688 z m -3.2188,9.9219 c 1.0391,0 1.8359,-0.37891 2.3906,-1.1406 0.55078,-0.76953 0.82812,-1.8828 0.82812,-3.3438 0,-1.457 -0.27734,-2.5664 -0.82812,-3.3281 -0.55469,-0.76953 -1.3516,-1.1562 -2.3906,-1.1562 -1.043,0 -1.8398,0.38672 -2.3906,1.1562 -0.55469,0.76172 -0.82812,1.8711 -0.82812,3.3281 0,1.4609 0.27344,2.5742 0.82812,3.3438 0.55078,0.76172 1.3477,1.1406 2.3906,1.1406 z"
         id="path50988" /></symbol><symbol
       id="k"
       overflow="visible"><path
         d="m 10.5,-3.1562 c 1.0508,0 1.8516,-0.37891 2.4062,-1.1406 0.55078,-0.76953 0.82812,-1.8828 0.82812,-3.3438 0,-1.457 -0.27734,-2.5664 -0.82812,-3.3281 -0.55469,-0.76953 -1.3555,-1.1562 -2.4062,-1.1562 -1.0547,0 -1.8594,0.38672 -2.4219,1.1562 -0.55469,0.77344 -0.82812,1.8828 -0.82812,3.3281 0,1.4492 0.27344,2.5586 0.82812,3.3281 0.5625,0.77344 1.3672,1.1562 2.4219,1.1562 z m -3.25,-9.9219 c 0.67578,-0.88281 1.4219,-1.5391 2.2344,-1.9688 0.82031,-0.42578 1.7656,-0.64062 2.8281,-0.64062 1.8945,0 3.4453,0.75 4.6562,2.25 1.207,1.5 1.8125,3.4336 1.8125,5.7969 0,2.3555 -0.60547,4.2812 -1.8125,5.7812 -1.2109,1.5 -2.7617,2.25 -4.6562,2.25 -1.0625,0 -2.0078,-0.21094 -2.8281,-0.625 C 8.6719,-0.6602 7.9258,-1.32032 7.25,-2.21882 V -2e-5 H 2.3594 v -21.281 H 7.25 Z"
         id="path50991" /></symbol><symbol
       id="h"
       overflow="visible"><path
         d="m 0.34375,-15.312 h 4.8906 l 4.125,10.391 3.5,-10.391 h 4.8906 l -6.4375,16.766 c -0.64844,1.6953 -1.4023,2.8828 -2.2656,3.5625 -0.86719,0.6875 -2,1.0312 -3.4062,1.0312 H 2.79685 V 2.8289 h 1.5312 c 0.83203,0 1.4375,-0.13672 1.8125,-0.40625 C 6.52336,2.16093 6.82024,1.69218 7.03117,1.01645 L 7.17179,0.59457 Z"
         id="path50994" /></symbol><symbol
       id="g"
       overflow="visible"><path
         d="M 17.75,-9.3281 V 0 h -4.9219 v -7.1094 c 0,-1.3438 -0.03125,-2.2656 -0.09375,-2.7656 -0.0625,-0.5 -0.16797,-0.86719 -0.3125,-1.1094 -0.1875,-0.3125 -0.44922,-0.55469 -0.78125,-0.73438 -0.32422,-0.17578 -0.69531,-0.26562 -1.1094,-0.26562 -1.0234,0 -1.8242,0.39844 -2.4062,1.1875 -0.58594,0.78125 -0.875,1.8711 -0.875,3.2656 V -1e-4 H 2.3594 v -21.281 H 7.25 v 8.2031 c 0.73828,-0.88281 1.5195,-1.5391 2.3438,-1.9688 0.83203,-0.42578 1.75,-0.64062 2.75,-0.64062 1.7695,0 3.1133,0.54688 4.0312,1.6406 0.91406,1.0859 1.375,2.6562 1.375,4.7188 z"
         id="path50997" /></symbol><symbol
       id="u"
       overflow="visible"><path
         d="m 2.5781,-20.406 h 5.25 v 7.4375 l 7.5938,-7.4375 h 6.1094 l -9.8281,9.6562 10.844,10.75 H 15.9534 L 7.8284,-8.0467 V 2e-4 h -5.25 z"
         id="path51000" /></symbol><symbol
       id="i"
       overflow="visible"><path
         d="m 2.1875,-5.9688 v -9.3438 h 4.9219 v 1.5312 c 0,0.83594 -0.00781,1.875 -0.015625,3.125 -0.011719,1.25 -0.015625,2.0859 -0.015625,2.5 0,1.2422 0.03125,2.1328 0.09375,2.6719 0.070313,0.54297 0.17969,0.93359 0.32812,1.1719 0.20703,0.32422 0.47266,0.57422 0.79688,0.75 0.32031,0.16797 0.69141,0.25 1.1094,0.25 1.0195,0 1.8203,-0.39062 2.4062,-1.1719 0.58203,-0.78125 0.875,-1.8672 0.875,-3.2656 v -7.5625 h 4.8906 V -6e-4 H 12.6875 V -2.2194 C 11.94531,-1.32096 11.1641,-0.6608 10.3437,-0.235 9.51948,0.17906 8.6093,0.39 7.6093,0.39 5.8476,0.39 4.5038,-0.14906 3.5781,-1.235 2.64841,-2.317 2.1875,-3.8952 2.1875,-5.9694 Z"
         id="path51003" /></symbol><symbol
       id="f"
       overflow="visible"><path
         d="M 17.75,-9.3281 V 0 h -4.9219 v -7.1406 c 0,-1.3203 -0.03125,-2.2344 -0.09375,-2.7344 -0.0625,-0.5 -0.16797,-0.86719 -0.3125,-1.1094 -0.1875,-0.3125 -0.44922,-0.55469 -0.78125,-0.73438 -0.32422,-0.17578 -0.69531,-0.26562 -1.1094,-0.26562 -1.0234,0 -1.8242,0.39844 -2.4062,1.1875 -0.58594,0.78125 -0.875,1.8711 -0.875,3.2656 V -1e-4 H 2.3594 v -15.312 H 7.25 v 2.2344 c 0.73828,-0.88281 1.5195,-1.5391 2.3438,-1.9688 0.83203,-0.42578 1.75,-0.64062 2.75,-0.64062 1.7695,0 3.1133,0.54688 4.0312,1.6406 0.91406,1.0859 1.375,2.6562 1.375,4.7188 z"
         id="path51006" /></symbol><symbol
       id="t"
       overflow="visible"><path
         d="M 2.3594,-15.312 H 7.25 V 0 H 2.3594 Z m 0,-5.9688 H 7.25 v 4 H 2.3594 Z"
         id="path51009" /></symbol><symbol
       id="s"
       overflow="visible"><path
         d="m 0.98438,-15.312 h 4.7656 l 2.5625,10.547 2.5781,-10.547 h 4.0938 l 2.5781,10.438 2.5781,-10.438 h 4.75 L 20.85938,0 h -5.3438 L 12.93748,-10.531 10.35938,0 h -5.3438 z"
         id="path51012" /></symbol><symbol
       id="r"
       overflow="visible"><path
         d="m 12.422,-21.281 v 3.2188 H 9.7189 c -0.6875,0 -1.1719,0.125 -1.4531,0.375 -0.27344,0.25 -0.40625,0.6875 -0.40625,1.3125 v 1.0625 h 4.1875 v 3.5 H 7.85955 V -2e-4 h -4.8906 v -11.812 h -2.4375 v -3.5 h 2.4375 v -1.0625 c 0,-1.6641 0.46094,-2.8984 1.3906,-3.7031 0.92578,-0.80078 2.3672,-1.2031 4.3281,-1.2031 z"
         id="path51015" /></symbol><symbol
       id="e"
       overflow="visible"><path
         d="m 9.6406,-12.188 c -1.0859,0 -1.9141,0.39062 -2.4844,1.1719 -0.57422,0.78125 -0.85938,1.9062 -0.85938,3.375 0,1.4688 0.28516,2.5938 0.85938,3.375 0.57031,0.77344 1.3984,1.1562 2.4844,1.1562 1.0625,0 1.875,-0.38281 2.4375,-1.1562 0.57031,-0.78125 0.85938,-1.9062 0.85938,-3.375 0,-1.4688 -0.28906,-2.5938 -0.85938,-3.375 -0.5625,-0.78125 -1.375,-1.1719 -2.4375,-1.1719 z m 0,-3.5 c 2.6328,0 4.6914,0.71484 6.1719,2.1406 1.4766,1.418 2.2188,3.3867 2.2188,5.9062 0,2.5117 -0.74219,4.4805 -2.2188,5.9062 C 14.332,-0.317 12.2734,0.39 9.6406,0.39 6.9922,0.39 4.9258,-0.31703 3.4375,-1.735 1.9453,-3.1608 1.2031,-5.1295 1.2031,-7.6412 c 0,-2.5195 0.74219,-4.4883 2.2344,-5.9062 1.4883,-1.4258 3.5547,-2.1406 6.2031,-2.1406 z"
         id="path51018" /></symbol><symbol
       id="q"
       overflow="visible"><path
         d="m 16.547,-12.766 c 0.61328,-0.94531 1.3477,-1.6719 2.2031,-2.1719 0.85156,-0.5 1.7891,-0.75 2.8125,-0.75 1.7578,0 3.0977,0.54688 4.0156,1.6406 0.92578,1.0859 1.3906,2.6562 1.3906,4.7188 V -4e-4 h -4.9219 v -7.9844 -0.35938 c 0.0078,-0.13281 0.01563,-0.32031 0.01563,-0.5625 0,-1.082 -0.16406,-1.8633 -0.48438,-2.3438 -0.3125,-0.48828 -0.82422,-0.73438 -1.5312,-0.73438 -0.92969,0 -1.6484,0.38672 -2.1562,1.1562 -0.51172,0.76172 -0.77344,1.8672 -0.78125,3.3125 v 7.5156 h -4.9219 v -7.9844 c 0,-1.6953 -0.14844,-2.7852 -0.4375,-3.2656 -0.29297,-0.48828 -0.8125,-0.73438 -1.5625,-0.73438 -0.9375,0 -1.6641,0.38672 -2.1719,1.1562 -0.51172,0.76172 -0.76562,1.8594 -0.76562,3.2969 v 7.5312 h -4.9219 v -15.312 h 4.9219 v 2.2344 c 0.60156,-0.86328 1.2891,-1.5156 2.0625,-1.9531 0.78125,-0.4375 1.6406,-0.65625 2.5781,-0.65625 1.0625,0 2,0.25781 2.8125,0.76562 0.8125,0.51172 1.4258,1.2305 1.8438,2.1562 z"
         id="path51021" /></symbol><symbol
       id="p"
       overflow="visible"><path
         d="m 2.5781,-20.406 h 5.875 l 7.4219,14 v -14 h 4.9844 V 0 h -5.875 L 7.5625,-14 V 0 H 2.5781 Z"
         id="path51024" /></symbol><symbol
       id="o"
       overflow="visible"><path
         d="m 2.5781,-20.406 h 8.7344 c 2.5938,0 4.582,0.57812 5.9688,1.7344 1.3945,1.1484 2.0938,2.7891 2.0938,4.9219 0,2.1367 -0.69922,3.7812 -2.0938,4.9375 -1.3867,1.1562 -3.375,1.7344 -5.9688,1.7344 H 7.8281 V 3e-4 h -5.25 z m 5.25,3.8125 v 5.7031 H 10.75 c 1.0195,0 1.8047,-0.25 2.3594,-0.75 0.5625,-0.5 0.84375,-1.2031 0.84375,-2.1094 0,-0.91406 -0.28125,-1.6172 -0.84375,-2.1094 -0.55469,-0.48828 -1.3398,-0.73438 -2.3594,-0.73438 z"
         id="path51027" /></symbol><symbol
       id="n"
       overflow="visible"><path
         d="M 2.3594,-15.312 H 7.25 v 15.031 c 0,2.0508 -0.49609,3.6172 -1.4844,4.7031 -0.98047,1.082 -2.4062,1.625 -4.2812,1.625 H -0.9375 V 2.8283 h 0.85938 c 0.92578,0 1.5625,-0.21094 1.9062,-0.625 0.35156,-0.41797 0.53125,-1.2461 0.53125,-2.4844 z m 0,-5.9688 H 7.25 v 4 H 2.3594 Z"
         id="path51030" /></symbol><symbol
       id="m"
       overflow="visible"><path
         d="m 14.719,-14.828 v 3.9844 c -0.65625,-0.45703 -1.3242,-0.79688 -2,-1.0156 -0.66797,-0.21875 -1.3594,-0.32812 -2.0781,-0.32812 -1.3672,0 -2.4336,0.40234 -3.2031,1.2031 -0.76172,0.79297 -1.1406,1.9062 -1.1406,3.3438 0,1.4297 0.37891,2.543 1.1406,3.3438 0.76953,0.79297 1.8359,1.1875 3.2031,1.1875 0.75781,0 1.4844,-0.10938 2.1719,-0.32812 0.6875,-0.22656 1.3203,-0.56641 1.9062,-1.0156 v 4 c -0.76172,0.28125 -1.5391,0.48828 -2.3281,0.625 -0.78125,0.14453 -1.5742,0.21875 -2.375,0.21875 -2.7617,0 -4.9219,-0.70703 -6.4844,-2.125 -1.5547,-1.4141 -2.3281,-3.3828 -2.3281,-5.9062 0,-2.5312 0.77344,-4.5039 2.3281,-5.9219 1.5625,-1.4141 3.7227,-2.125 6.4844,-2.125 0.80078,0 1.5938,0.07422 2.375,0.21875 0.78125,0.13672 1.5547,0.35156 2.3281,0.64062 z"
         id="path51033" /></symbol><clipPath
       clipPathUnits="userSpaceOnUse"
       id="clipPath53622"><circle
         style="display:inline;opacity:1;fill:#1197bc;fill-opacity:1;stroke:none;stroke-width:25.8156;stroke-miterlimit:4;stroke-dasharray:none;stroke-dashoffset:0;stroke-opacity:1"
         id="circle53624"
         cx="340.38589"
         cy="227.74014"
         r="319.9458" /></clipPath><filter
       style="color-interpolation-filters:sRGB"
       inkscape:label="Drop Shadow"
       id="filter54070"
       x="-0.034375"
       y="-0.034375"
       width="1.0875"
       height="1.0875"><feFlood
         flood-opacity="0.498039"
         flood-color="rgb(0,0,0)"
         result="flood"
         id="feFlood54060" /><feComposite
         in="flood"
         in2="SourceGraphic"
         operator="in"
         result="composite1"
         id="feComposite54062" /><feGaussianBlur
         in="composite1"
         stdDeviation="0.5"
         result="blur"
         id="feGaussianBlur54064" /><feOffset
         dx="1.2"
         dy="1.2"
         result="offset"
         id="feOffset54066" /><feComposite
         in="SourceGraphic"
         in2="offset"
         operator="over"
         result="composite2"
         id="feComposite54068" /></filter></defs><sodipodi:namedview
     id="base"
     pagecolor="#ffffff"
     bordercolor="#666666"
     borderopacity="1.0"
     inkscape:pageopacity="0.0"
     inkscape:pageshadow="2"
     inkscape:zoom="1.4"
     inkscape:cx="159.28571"
     inkscape:cy="140.71429"
     inkscape:document-units="mm"
     inkscape:current-layer="g53657"
     showgrid="false"
     fit-margin-top="0"
     fit-margin-left="0"
     fit-margin-right="0"
     fit-margin-bottom="-2.7755576e-17"
     inkscape:window-width="1864"
     inkscape:window-height="1053"
     inkscape:window-x="56"
     inkscape:window-y="27"
     inkscape:window-maximized="1"
     inkscape:showpageshadow="2"
     inkscape:pagecheckerboard="0"
     inkscape:deskcolor="#d1d1d1" /><metadata
     id="metadata8459"><rdf:RDF><cc:Work
         rdf:about=""><dc:format>image/svg+xml</dc:format><dc:type
           rdf:resource="http://purl.org/dc/dcmitype/StillImage" /></cc:Work></rdf:RDF></metadata><g
     inkscape:label="Layer 1 copy"
     inkscape:groupmode="layer"
     id="g53657"
     transform="translate(-63.823819,-113.7494)"
     style="display:inline"><circle
       style="opacity:1;fill:#1197bc;fill-opacity:0.998897;stroke:#000000;stroke-width:2;stroke-miterlimit:4;stroke-dasharray:none;stroke-dashoffset:0;stroke-opacity:1;filter:url(#filter54070)"
       id="circle53655"
       cx="98.023819"
       cy="147.9494"
       r="32" /></g><g
     inkscape:groupmode="layer"
     id="layer2"
     inkscape:label="Layer 2"
     style="display:inline"
     transform="translate(2.2000001,2.1999982)"><g
       id="g52889"
       transform="matrix(0.10001695,0,0,0.10001695,-2.0443573,9.2221283)"
       clip-path="url(#clipPath53622)"><path
         style="fill:#97aa00;fill-opacity:1;stroke:#000000;stroke-width:12.4502;stroke-dasharray:none;stroke-opacity:1"
         d="m 469.98927,428.25495 c -61.41564,-0.82418 -114.71226,28.66407 -170.41359,46.47346 -89.12746,28.56746 -182.45518,38.54857 -276.981376,39.39805 -12.85968,4.73346 -4.204775,20.55478 -6.744903,30.09743 4.724595,11.31368 22.657327,3.93742 33.237252,6.04244 209.362787,0 418.725557,0 628.088347,0 13.06113,-4.09249 4.54559,-19.62602 6.97572,-28.79046 -1.09495,-20.5173 2.21812,-41.78718 -1.66082,-61.82918 -14.03244,-5.82999 -32.18839,-3.16616 -47.77617,-6.42225 C 579.41095,447.29256 526.501,428.02646 469.98927,428.25495 Z"
         id="path51321" /><path
         style="fill:#a19800;fill-opacity:1;stroke:#000000;stroke-width:12.4502;stroke-dasharray:none;stroke-opacity:1"
         d="m 83.982353,381.48156 c -22.141972,0.9576 -45.67543,-0.4539 -66.602739,5.77216 -3.58536,25.07342 -0.513761,51.12941 -1.530213,76.58201 1.273567,15.46952 -2.5944,31.8168 2.008937,46.71784 19.106646,4.3091 39.908512,-0.0375 59.646999,-0.19933 94.510313,-4.9152 189.175453,-21.6449 274.849883,-57.42601 8.31827,-5.04788 24.459,-5.54394 26.0991,-15.80586 -5.3226,-10.52952 -22.74247,-8.42927 -33.15455,-12.86835 -65.21489,-17.5575 -130.74512,-36.71305 -199.45061,-40.40105 -20.56957,-1.58013 -41.21173,-2.50579 -61.866807,-2.37141 z"
         id="path51323" /><path
         style="fill:#a19800;fill-opacity:1;stroke:#000000;stroke-width:12.4502;stroke-dasharray:none;stroke-opacity:1"
         d="m 674.02909,406.07711 c -22.06476,11.54376 -47.39781,15.63723 -69.88543,26.05063 -9.36889,6.09693 0.54279,15.84078 9.68992,15.54669 22.3456,2.8504 45.90986,8.19491 68.1415,4.25414 5.10304,-12.67294 0.69757,-27.11128 2.17564,-40.45696 -0.67164,-4.29675 -5.37306,-7.08904 -10.12163,-5.3945 z"
         id="path51325" /><path
         style="fill:#6c7c00;fill-opacity:1;stroke:#000000;stroke-width:12.4502;stroke-dasharray:none;stroke-opacity:1"
         d="m 18.170372,250.99151 c -5.47896,15.10305 -0.73561,32.22952 -2.320971,48.10257 0.553234,25.84014 -1.11484,52.05954 0.830409,77.66205 7.143217,8.93399 23.747194,1.90485 34.734491,3.77635 79.266419,-3.2946 159.050599,3.81343 234.675859,25.3558 40.34354,10.39498 80.59479,23.53653 122.69061,27.05399 37.09407,-7.11853 75.74338,-9.90606 113.25873,-3.0709 20.22843,4.25729 42.49508,8.43603 63.22195,1.80789 12.27672,-4.01747 28.99967,-3.00155 37.65083,-12.31026 -0.12183,-12.85959 -19.63034,-7.26757 -29.07714,-9.02587 -42.35145,0.23405 -84.31681,-0.20618 -125.20438,-11.7572 C 415.86458,386.56428 370.1571,359.62498 328.24581,330.29755 240.03626,274.61291 129.15807,249.47133 21.095999,250.09249 l -2.062521,0.6338 z"
         id="path51327" /><path
         style="fill:#09793d;fill-opacity:1;stroke:#000000;stroke-width:12.4502;stroke-dasharray:none;stroke-opacity:1"
         d="m 676.91,277.93443 c -88.50364,-0.0562 -177.71739,16.22982 -255.68032,53.27268 -13.14914,7.24321 -29.78456,11.84922 -39.40717,22.8169 -1.44568,11.40792 16.5405,13.95329 24.82535,19.50093 46.06008,21.40485 98.33095,32.30444 150.35834,34.17526 40.50968,-0.63923 81.68196,-1.44867 121.01086,-10.66454 9.29397,-7.7745 3.6363,-21.39073 5.83747,-31.5115 0.0216,-27.72344 1.29793,-55.81931 -0.53422,-83.30489 -0.27798,-3.03996 -3.74757,-3.47814 -6.41031,-4.28484 z"
         id="path51329" /><path
         style="fill:#ffffff;fill-opacity:1;stroke:#000000;stroke-width:16.6003;stroke-dasharray:none;stroke-opacity:1"
         d="m 692.25368,179.71385 c -12.91152,0.71013 -35.13653,-2.45482 -38.04535,14.94791 2.09366,15.06149 -17.19815,15.94248 -27.93137,15.75 -12.52644,-1.7142 -31.82645,2.58173 -30.93811,18.52513 0.94632,13.85294 15.7985,16.52711 27.00031,15.19619 14.08638,1.91224 31.04139,-3.99477 43.3128,4.50846 5.05586,14.46033 23.33689,9.39896 35.18444,10.78738 28.09534,-0.29436 56.61285,1.16833 84.43196,-0.7132 16.9397,-7.43602 21.23392,-34.83398 3.47551,-44.05763 -13.39142,-7.74959 -32.51412,0.33685 -43.95588,-10.61152 -3.84784,-9.87836 -6.11694,-25.55332 -20.4038,-23.59069 -10.69344,-0.69667 -21.41792,-0.78411 -32.13051,-0.74203 z"
         id="path51331"
         transform="scale(0.75)" /><path
         style="fill:#ffffff;fill-opacity:1;stroke:#000000;stroke-width:16.6003;stroke-dasharray:none;stroke-opacity:1"
         d="m 239.76716,83.425245 c -14.48072,1.29639 -29.92504,-1.803701 -43.68995,2.818015 -4.61205,9.779227 -4.73918,26.95713 -19.79474,26.37439 -14.57762,2.99134 -39.35964,-2.92652 -43.63848,16.81372 -0.59363,13.94007 15.02752,19.86916 26.84599,18.03297 14.28791,1.67698 31.10419,-3.17065 44.02901,3.86777 2.94439,17.85881 23.24288,9.95849 35.74633,11.58946 28.53036,-1.2848 58.03866,2.74634 86.00735,-3.54289 20.49082,-9.37046 13.78639,-44.83846 -9.11029,-45.10111 -12.05444,-1.74489 -32.3946,2.82845 -36.75429,-12.34007 2.26475,-14.158432 -13.18895,-19.806668 -24.72304,-18.48652 -4.97189,-0.120254 -9.94545,-0.08409 -14.91789,-0.02573 z"
         id="path51333"
         transform="scale(0.75)" /><path
         style="fill:#ffff00;fill-opacity:1;stroke:#000000;stroke-width:16.6003;stroke-dasharray:none;stroke-opacity:1"
         d="m 562.41912,91.780637 c -35.625,-0.798687 -61.3594,43.191393 -43.0766,73.838853 12.08295,21.77194 39.91046,33.35091 63.22304,22.65134 29.94623,-10.64594 42.64342,-53.2671 20.55393,-77.28737 -9.50083,-12.629574 -24.9836,-19.604681 -40.70037,-19.202823 z"
         id="path51335"
         transform="scale(0.75)" /><g
         id="g51319"><path
           d="m 685.57872,270.7928 c -1.48961,0 -170.39359,-10.95639 -314.74449,77.99006 -5.21106,-3.22355 -11.15903,-7.09003 -16.36969,-10.95638 C 205.64918,230.83385 16.653666,243.08102 14.421436,243.08102 c -3.721447,0 -6.6954955,3.22355 -6.6954955,6.44711 V 552.4558 c 0,3.86647 2.9740485,6.44711 7.4428945,6.44711 H 684.83797 c 4.46366,0 7.44289,-2.57615 7.44289,-6.44711 l -0.005,-84.44109 V 399.696 397.76277 397.11986 277.23785 c 0,-3.22356 -2.97923,-6.44711 -6.70068,-6.44711 z m -8.18511,177.88944 c -31.99264,-0.64291 -59.52747,-5.15679 -85.56617,-10.31347 30.50848,-6.44711 58.77941,-15.4698 85.56617,-27.71236 z m 0,-165.64343 v 108.92621 c -28.27624,6.44711 -168.90543,34.80215 -293.16626,-35.45014 122.03391,-73.47607 261.17096,-74.1183 293.16626,-73.47607 z m -331.85826,65.09607 c 6.6955,4.51388 13.39073,9.02315 19.34467,12.88939 0.74221,0.6429 1.48962,1.29032 2.97405,1.93324 69.94455,42.53993 146.58313,53.49573 206.85336,53.49573 24.55453,0 46.87816,-1.93323 64.73335,-4.51387 -26.04535,9.02314 -52.83211,15.4698 -81.85111,19.33696 -45.38868,-9.66607 -90.03595,-17.40338 -150.30351,-2.57615 C 372.31455,423.54339 336.60019,415.16281 300.13777,404.207 172.89797,365.53308 54.592416,373.91423 22.597113,377.13687 l 0.01063,-121.8156 c 34.97161,-0.6429 193.459967,0 322.929337,92.81304 z M 22.606015,397.12123 v -7.09002 c 27.529514,-3.22356 145.094975,-12.88939 273.076195,26.42675 28.27624,8.38023 55.80576,15.4698 83.33527,20.62717 -10.41681,3.22355 -20.83415,7.73294 -31.99264,12.24716 -129.4707,56.06809 -289.445886,58.00167 -324.417496,57.3583 z M 677.39361,545.36243 H 22.606015 v -25.77877 c 37.203841,0 199.412585,-1.93324 330.370105,-58.65311 89.28789,-38.67392 142.86275,-29.65054 201.64482,-16.75655 h 0.7422 c 2.97405,0.64291 5.21106,1.29032 8.18511,1.93324 34.22488,7.09002 69.19649,14.82297 113.83844,15.4698 z"
           id="path51038"
           style="stroke-width:1" /><path
           d="m 422.8,151.2 c 24.641,0 44.801,-20.16 44.801,-44.801 0,-24.641 -20.16,-44.801 -44.801,-44.801 -24.641,0 -44.801,20.16 -44.801,44.801 0,24.641 20.16,44.801 44.801,44.801 z m 0,-78.398 c 18.48,0 33.602,15.121 33.602,33.602 0,18.48 -15.121,33.602 -33.602,33.602 -18.481,0 -33.602,-15.121 -33.602,-33.602 0,-18.48 15.121,-33.602 33.602,-33.602 z"
           id="path51040" /><path
           d="m 422.8,50.398 c 3.3594,0 5.6016,-2.2383 5.6016,-5.6016 l -0.004,-16.797 c 0,-3.3594 -2.2383,-5.6016 -5.6016,-5.6016 -3.3594,0 -5.6016,2.2383 -5.6016,5.6016 v 16.801 c 0.004,3.3594 2.2461,5.5977 5.6055,5.5977 z"
           id="path51042" /><path
           d="m 417.2,168 v 16.801 c 0,3.3594 2.2383,5.6016 5.6016,5.6016 3.3594,0 5.6016,-2.2383 5.6016,-5.6016 V 168 c 0,-3.3594 -2.2383,-5.6016 -5.6016,-5.6016 -3.3594,0 -5.6016,2.2422 -5.6016,5.6016 z"
           id="path51044" /><path
           d="m 478.8,106.4 c 0,3.3594 2.2383,5.6016 5.6016,5.6016 h 16.801 c 3.3594,0 5.6016,-2.2383 5.6016,-5.6016 0,-3.3594 -2.2383,-5.6016 -5.6016,-5.6016 h -16.801 c -3.3633,0.004 -5.6016,2.2422 -5.6016,5.6016 z"
           id="path51046" /><path
           d="m 344.4,112 h 16.801 c 3.3594,0 5.6016,-2.2383 5.6016,-5.6016 0,-3.3594 -2.2383,-5.6016 -5.6016,-5.6016 H 344.4 c -3.3594,0 -5.6016,2.2383 -5.6016,5.6016 0.004,3.3633 2.2422,5.6016 5.6016,5.6016 z"
           id="path51048" /><path
           d="m 465.92,68.879 c 1.6797,0 2.8008,-0.55859 3.9219,-1.6797 l 12.32,-12.32 c 2.2383,-2.2383 2.2383,-5.6016 0,-7.8398 -2.2383,-2.2383 -5.6016,-2.2383 -7.8398,0 l -12.324,12.32 c -2.2383,2.2383 -2.2383,5.6016 0,7.8398 1.1211,1.1211 2.8008,1.6797 3.9219,1.6797 z"
           id="path51050" /><path
           d="m 375.76,145.6 -12.32,12.32 c -2.2383,2.2383 -2.2383,5.6016 0,7.8398 1.1211,1.1211 2.8008,1.6797 3.9219,1.6797 1.1211,0 2.8008,-0.55859 3.9219,-1.6797 l 12.32,-12.32 c 2.2383,-2.2383 2.2383,-5.6016 0,-7.8398 -2.2461,-2.2422 -5.6055,-2.2422 -7.8438,0 z"
           id="path51052" /><path
           d="m 375.76,67.199 c 1.1211,1.1211 2.8008,1.6797 3.9219,1.6797 1.1211,0 2.8008,-0.55859 3.9219,-1.6797 2.2383,-2.2383 2.2383,-5.6016 0,-7.8398 l -12.32,-12.32 c -2.2383,-2.2383 -5.6016,-2.2383 -7.8398,0 -2.2383,2.2383 -2.2383,5.6016 0,7.8398 z"
           id="path51054" /><path
           d="m 112,117.6 h 35.281 c 0,6.1602 5.0391,11.199 11.199,11.199 h 76.719 c 14,0 25.199,-11.199 25.199,-25.199 0,-14 -11.199,-25.203 -25.199,-25.203 h -14 c -3.3594,0 -5.6016,-2.2383 -5.6016,-5.6016 0,-9.5195 -7.2812,-16.801 -16.801,-16.801 h -44.801 c -9.5195,0 -16.801,7.2812 -16.801,16.801 0,3.3594 -2.2383,5.6016 -5.6016,5.6016 h -19.594 c -10.641,0 -19.602,8.9609 -19.602,19.602 0,10.6411 8.9609,19.602 19.602,19.602 z m 0,-28 h 19.602 c 9.5195,0 16.801,-7.2812 16.801,-16.801 0,-3.3594 2.2383,-5.6016 5.6016,-5.6016 h 44.801 c 3.3594,0 5.6016,2.2383 5.6016,5.6016 0,9.5195 7.2812,16.801 16.801,16.801 h 14 c 7.8398,0 14,6.1602 14,14 -0.008,7.8398 -6.168,14 -14.008,14 h -76.719 c 0,-6.1602 -5.0391,-11.199 -11.199,-11.199 l -35.281,-0.004 c -4.4805,0 -8.3984,-3.918 -8.3984,-8.398396 0,-4.4804 3.918,-8.3984 8.3984,-8.3984 z"
           id="path51056" /><path
           d="m 484.4,145.6 c 0,3.3594 -2.2383,5.6016 -5.6016,5.6016 h -19.602 c -10.641,0 -19.602,8.9609 -19.602,19.602 0,10.641 8.9609,19.602 19.602,19.602 h 35.281 c 0,6.1602 5.0391,11.199 11.199,11.199 h 76.719 c 14,0 25.199,-11.199 25.199,-25.199 0.008,-14.008 -11.195,-25.207 -25.195,-25.207 h -14 c -3.3594,0 -5.6016,-2.2383 -5.6016,-5.6016 0,-9.5195 -7.2812,-16.801 -16.801,-16.801 h -44.801 c -9.5156,0.004 -16.797,7.2812 -16.797,16.805 z m 67.203,0 c 0,9.5195 7.2812,16.801 16.801,16.801 h 14 c 7.8398,0 14,6.1602 14,14 -0.004,7.8359 -6.1641,13.996 -14.004,13.996 h -76.719 c 0,-6.1602 -5.0391,-11.199 -11.199,-11.199 h -35.281 c -4.4805,0 -8.3984,-3.9219 -8.3984,-8.3984 0,-4.4805 3.9219,-8.3984 8.3984,-8.3984 l 19.602,-0.004 c 9.5195,0 16.801,-7.2812 16.801,-16.801 0,-3.3594 2.2383,-5.6016 5.6016,-5.6016 h 44.801 c 3.3555,0.004 5.5977,2.2422 5.5977,5.6055 z"
           id="path51058" /></g></g></g><g
     inkscape:label="Layer 1"
     inkscape:groupmode="layer"
     id="layer1"
     transform="translate(-63.823818,-113.7494)"
     style="display:inline"><circle
       style="opacity:1;fill:none;fill-opacity:0.998897;stroke:#000000;stroke-width:2;stroke-miterlimit:4;stroke-dasharray:none;stroke-dashoffset:0;stroke-opacity:1"
       id="circle3172"
       cx="98.023819"
       cy="147.9494"
       r="32" /></g></svg>
