<?xml version="1.0" encoding="UTF-8" standalone="no"?>
<svg
   xmlns:dc="http://purl.org/dc/elements/1.1/"
   xmlns:cc="http://creativecommons.org/ns#"
   xmlns:rdf="http://www.w3.org/1999/02/22-rdf-syntax-ns#"
   xmlns:svg="http://www.w3.org/2000/svg"
   xmlns="http://www.w3.org/2000/svg"
   xmlns:xlink="http://www.w3.org/1999/xlink"
   xmlns:sodipodi="http://sodipodi.sourceforge.net/DTD/sodipodi-0.dtd"
   xmlns:inkscape="http://www.inkscape.org/namespaces/inkscape"
   width="700pt"
   height="700pt"
   version="1.1"
   viewBox="0 0 700 700"
   id="svg8563"
   sodipodi:docname="icon2-noun-aquatic-plant-2123381.svg"
   inkscape:version="0.92.5 (2060ec1f9f, 2020-04-08)">
  <metadata
     id="metadata8567">
    <rdf:RDF>
      <cc:Work
         rdf:about="">
        <dc:format>image/svg+xml</dc:format>
        <dc:type
           rdf:resource="http://purl.org/dc/dcmitype/StillImage" />
        <dc:title></dc:title>
      </cc:Work>
    </rdf:RDF>
  </metadata>
  <sodipodi:namedview
     pagecolor="#ffffff"
     bordercolor="#666666"
     borderopacity="1"
     objecttolerance="10"
     gridtolerance="10"
     guidetolerance="10"
     inkscape:pageopacity="0"
     inkscape:pageshadow="2"
     inkscape:window-width="1867"
     inkscape:window-height="1053"
     id="namedview8565"
     showgrid="false"
     inkscape:zoom="0.68098178"
     inkscape:cx="533.32388"
     inkscape:cy="578.79477"
     inkscape:window-x="53"
     inkscape:window-y="27"
     inkscape:window-maximized="1"
     inkscape:current-layer="svg8563" />
  <defs
     id="defs8499">
    <linearGradient
       id="linearGradient31141"
       inkscape:collect="always">
      <stop
         id="stop31137"
         offset="0"
         style="stop-color:#1e1fd1;stop-opacity:1" />
      <stop
         id="stop31139"
         offset="1"
         style="stop-color:#1197bc;stop-opacity:0.97741938" />
    </linearGradient>
    <linearGradient
       inkscape:collect="always"
       id="linearGradient25551-6-7-5-3">
      <stop
         style="stop-color:#000000;stop-opacity:1;"
         offset="0"
         id="stop25547" />
      <stop
         style="stop-color:#000000;stop-opacity:0;"
         offset="1"
         id="stop25549" />
    </linearGradient>
    <symbol
       id="r"
       overflow="visible">
      <path
         d="m27.578-1.6562c-1.418 0.74219-2.8984 1.2969-4.4375 1.6719-1.543 0.375-3.1523 0.5625-4.8281 0.5625-5 0-8.9648-1.3945-11.891-4.1875-2.918-2.7891-4.375-6.582-4.375-11.375 0-4.7891 1.457-8.582 4.375-11.375 2.9258-2.8008 6.8906-4.2031 11.891-4.2031 1.6758 0 3.2852 0.1875 4.8281 0.5625 1.5391 0.375 3.0195 0.93359 4.4375 1.6719v6.2188c-1.4297-0.97656-2.8398-1.6953-4.2344-2.1562-1.3984-0.45703-2.8672-0.6875-4.4062-0.6875-2.7617 0-4.9336 0.88672-6.5156 2.6562-1.5859 1.7734-2.375 4.2109-2.375 7.3125 0 3.1055 0.78906 5.543 2.375 7.3125 1.582 1.7617 3.7539 2.6406 6.5156 2.6406 1.5391 0 3.0078-0.22266 4.4062-0.67188 1.3945-0.45703 2.8047-1.1758 4.2344-2.1562z"
         id="path8445" />
    </symbol>
    <symbol
       id="f"
       overflow="visible">
      <path
         d="m20.188-16.391c-0.63672-0.28906-1.2656-0.50391-1.8906-0.64062-0.61719-0.14453-1.2422-0.21875-1.875-0.21875-1.8438 0-3.2656 0.59375-4.2656 1.7812s-1.5 2.8867-1.5 5.0938v10.375h-7.2031v-22.516h7.2031v3.7031c0.92578-1.4766 1.9883-2.5547 3.1875-3.2344 1.1953-0.67578 2.6328-1.0156 4.3125-1.0156 0.23828 0 0.5 0.011719 0.78125 0.03125 0.28125 0.023438 0.6875 0.070312 1.2188 0.14062z"
         id="path8448" />
    </symbol>
    <symbol
       id="e"
       overflow="visible">
      <path
         d="m25.938-11.312v2.0469h-16.828c0.17578 1.6875 0.78516 2.9531 1.8281 3.7969 1.0391 0.84375 2.5 1.2656 4.375 1.2656 1.5195 0 3.0703-0.22266 4.6562-0.67188 1.5938-0.44531 3.2266-1.1289 4.9062-2.0469v5.5625c-1.7109 0.63672-3.418 1.1172-5.125 1.4375-1.6992 0.33203-3.3984 0.5-5.0938 0.5-4.0742 0-7.2422-1.0312-9.5-3.0938-2.2617-2.0703-3.3906-4.9766-3.3906-8.7188 0-3.6758 1.1094-6.5664 3.3281-8.6719 2.2188-2.1016 5.2695-3.1562 9.1562-3.1562 3.5391 0 6.375 1.0703 8.5 3.2031 2.125 2.125 3.1875 4.9766 3.1875 8.5469zm-7.4062-2.3906c0-1.375-0.40234-2.4766-1.2031-3.3125-0.79297-0.84375-1.8281-1.2656-3.1094-1.2656-1.3984 0-2.5312 0.39844-3.4062 1.1875-0.86719 0.78125-1.4062 1.9141-1.625 3.3906z"
         id="path8451" />
    </symbol>
    <symbol
       id="i"
       overflow="visible">
      <path
         d="m13.547-10.125c-1.5 0-2.6328 0.25781-3.3906 0.76562-0.75 0.5-1.125 1.25-1.125 2.25 0 0.90625 0.30078 1.6211 0.90625 2.1406 0.61328 0.51172 1.4609 0.76562 2.5469 0.76562 1.3516 0 2.4883-0.48438 3.4062-1.4531 0.92578-0.96875 1.3906-2.1875 1.3906-3.6562v-0.8125zm11-2.7188v12.844h-7.2656v-3.3438c-0.96094 1.375-2.043 2.375-3.25 3-1.2109 0.61328-2.6797 0.92188-4.4062 0.92188-2.3359 0-4.2305-0.67578-5.6875-2.0312-1.4492-1.3633-2.1719-3.1289-2.1719-5.2969 0-2.6445 0.90625-4.582 2.7188-5.8125 1.8203-1.2383 4.6758-1.8594 8.5625-1.8594h4.2344v-0.5625c0-1.1328-0.44922-1.9688-1.3438-2.5-0.89844-0.53125-2.2969-0.79688-4.2031-0.79688-1.543 0-2.9766 0.15625-4.2969 0.46875-1.3242 0.3125-2.5586 0.77734-3.7031 1.3906v-5.4844c1.5391-0.375 3.0859-0.66016 4.6406-0.85938 1.5625-0.19531 3.1172-0.29688 4.6719-0.29688 4.0625 0 6.9922 0.80469 8.7969 2.4062 1.8008 1.6055 2.7031 4.2109 2.7031 7.8125z"
         id="path8454" />
    </symbol>
    <symbol
       id="a"
       overflow="visible">
      <path
         d="m11.312-28.906v6.3906h7.4219v5.1406h-7.4219v9.5625c0 1.043 0.20703 1.75 0.625 2.125 0.41406 0.36719 1.2422 0.54688 2.4844 0.54688h3.6875v5.1406h-6.1719c-2.8438 0-4.8594-0.59375-6.0469-1.7812-1.1797-1.1875-1.7656-3.1953-1.7656-6.0312v-9.5625h-3.5781v-5.1406h3.5781v-6.3906z"
         id="path8457" />
    </symbol>
    <symbol
       id="h"
       overflow="visible">
      <path
         d="m18.781-19.219v-12.062h7.2344v31.281h-7.2344v-3.25c-1 1.3242-2.1016 2.293-3.2969 2.9062-1.1875 0.61328-2.5625 0.92188-4.125 0.92188-2.7734 0-5.0547-1.0977-6.8438-3.2969-1.7812-2.207-2.6719-5.0469-2.6719-8.5156s0.89062-6.3047 2.6719-8.5156c1.7891-2.207 4.0703-3.3125 6.8438-3.3125 1.5508 0 2.9258 0.3125 4.125 0.9375 1.1953 0.625 2.2969 1.5938 3.2969 2.9062zm-4.75 14.578c1.5391 0 2.7188-0.5625 3.5312-1.6875s1.2188-2.7578 1.2188-4.9062c0-2.1445-0.40625-3.7812-1.2188-4.9062s-1.9922-1.6875-3.5312-1.6875c-1.5312 0-2.7031 0.5625-3.5156 1.6875-0.80469 1.125-1.2031 2.7617-1.2031 4.9062 0 2.1484 0.39844 3.7812 1.2031 4.9062 0.8125 1.125 1.9844 1.6875 3.5156 1.6875z"
         id="path8460" />
    </symbol>
    <symbol
       id="d"
       overflow="visible">
      <path
         d="m15.438-4.6406c1.5391 0 2.7188-0.5625 3.5312-1.6875s1.2188-2.7578 1.2188-4.9062c0-2.1445-0.40625-3.7812-1.2188-4.9062s-1.9922-1.6875-3.5312-1.6875c-1.543 0-2.7266 0.57031-3.5469 1.7031-0.82422 1.125-1.2344 2.7578-1.2344 4.8906 0 2.125 0.41016 3.7578 1.2344 4.8906 0.82031 1.1367 2.0039 1.7031 3.5469 1.7031zm-4.7812-14.578c0.98828-1.3125 2.0859-2.2812 3.2969-2.9062 1.207-0.625 2.5938-0.9375 4.1562-0.9375 2.7812 0 5.0625 1.1055 6.8438 3.3125 1.7812 2.2109 2.6719 5.0469 2.6719 8.5156s-0.89062 6.3086-2.6719 8.5156c-1.7812 2.1992-4.0625 3.2969-6.8438 3.2969-1.5625 0-2.9492-0.30859-4.1562-0.92188-1.2109-0.625-2.3086-1.5938-3.2969-2.9062v3.25h-7.2031v-31.281h7.2031z"
         id="path8463" />
    </symbol>
    <symbol
       id="c"
       overflow="visible">
      <path
         d="m0.5-22.516h7.2031l6.0469 15.281 5.1406-15.281h7.2031l-9.4688 24.641c-0.94922 2.5078-2.0586 4.2656-3.3281 5.2656-1.2617 1-2.9336 1.5-5.0156 1.5h-4.1562v-4.7344h2.25c1.2188 0 2.1016-0.19531 2.6562-0.57812 0.5625-0.38672 0.99219-1.0859 1.2969-2.0938l0.20312-0.625z"
         id="path8466" />
    </symbol>
    <symbol
       id="b"
       overflow="visible">
      <path
         d="m3.7812-30.016h12.844c3.8203 0 6.7539 0.85156 8.7969 2.5469 2.0391 1.6992 3.0625 4.1172 3.0625 7.25 0 3.1484-1.0234 5.5703-3.0625 7.2656-2.043 1.6992-4.9766 2.5469-8.7969 2.5469h-5.1094v10.406h-7.7344zm7.7344 5.6094v8.3906h4.2812c1.5 0 2.6562-0.36328 3.4688-1.0938 0.82031-0.73828 1.2344-1.7734 1.2344-3.1094 0-1.3438-0.41406-2.375-1.2344-3.0938-0.8125-0.72656-1.9688-1.0938-3.4688-1.0938z"
         id="path8469" />
    </symbol>
    <symbol
       id="g"
       overflow="visible">
      <path
         d="m14.172-17.906c-1.5938 0-2.8125 0.57422-3.6562 1.7188-0.83594 1.1484-1.25 2.7969-1.25 4.9531s0.41406 3.8086 1.25 4.9531c0.84375 1.1484 2.0625 1.7188 3.6562 1.7188 1.5703 0 2.7695-0.57031 3.5938-1.7188 0.83203-1.1445 1.25-2.7969 1.25-4.9531s-0.41797-3.8047-1.25-4.9531c-0.82422-1.1445-2.0234-1.7188-3.5938-1.7188zm0-5.1562c3.875 0 6.8984 1.0469 9.0781 3.1406 2.1758 2.0938 3.2656 4.9922 3.2656 8.6875 0 3.6992-1.0898 6.5938-3.2656 8.6875-2.1797 2.0859-5.2031 3.125-9.0781 3.125-3.8867 0-6.9297-1.0391-9.125-3.125-2.1875-2.0938-3.2812-4.9883-3.2812-8.6875 0-3.6953 1.0938-6.5938 3.2812-8.6875 2.1953-2.0938 5.2383-3.1406 9.125-3.1406z"
         id="path8472" />
    </symbol>
    <symbol
       id="q"
       overflow="visible">
      <path
         d="m24.672-29.062v6.3438c-1.6562-0.73828-3.2734-1.2969-4.8438-1.6719-1.5625-0.375-3.0391-0.5625-4.4219-0.5625-1.8555 0-3.2266 0.25781-4.1094 0.76562-0.88672 0.51172-1.3281 1.3047-1.3281 2.375 0 0.80469 0.29688 1.4297 0.89062 1.875 0.60156 0.44922 1.6875 0.83594 3.25 1.1562l3.2969 0.67188c3.3438 0.66797 5.7188 1.6875 7.125 3.0625 1.4062 1.3672 2.1094 3.3047 2.1094 5.8125 0 3.3125-0.98438 5.7773-2.9531 7.3906-1.9609 1.6172-4.9531 2.4219-8.9844 2.4219-1.9062 0-3.8203-0.18359-5.7344-0.54688-1.918-0.35156-3.8359-0.88281-5.75-1.5938v-6.5469c1.9141 1.0234 3.7656 1.793 5.5469 2.3125 1.7891 0.51172 3.5195 0.76562 5.1875 0.76562 1.6875 0 2.9766-0.28125 3.875-0.84375 0.89453-0.5625 1.3438-1.3633 1.3438-2.4062 0-0.9375-0.30859-1.6602-0.92188-2.1719-0.60547-0.50781-1.8203-0.96875-3.6406-1.375l-2.9844-0.65625c-3.0117-0.64453-5.2109-1.6719-6.5938-3.0781-1.3867-1.4062-2.0781-3.3008-2.0781-5.6875 0-2.9883 0.96094-5.2852 2.8906-6.8906 1.9375-1.6133 4.7109-2.4219 8.3281-2.4219 1.6445 0 3.3359 0.125 5.0781 0.375 1.75 0.25 3.5547 0.625 5.4219 1.125z"
         id="path8475" />
    </symbol>
    <symbol
       id="p"
       overflow="visible">
      <path
         d="m24.328-18.781c0.90625-1.3945 1.9844-2.457 3.2344-3.1875 1.2578-0.72656 2.6406-1.0938 4.1406-1.0938 2.582 0 4.5508 0.79688 5.9062 2.3906 1.3516 1.5938 2.0312 3.918 2.0312 6.9688v13.703h-7.2344v-11.734c0.007812-0.17578 0.019531-0.35938 0.03125-0.54688 0.007812-0.1875 0.015625-0.45703 0.015625-0.8125 0-1.5938-0.23438-2.7422-0.70312-3.4531-0.46875-0.71875-1.2305-1.0781-2.2812-1.0781-1.3672 0-2.4219 0.5625-3.1719 1.6875-0.74219 1.125-1.1211 2.75-1.1406 4.875v11.062h-7.25v-11.734c0-2.5-0.21484-4.1016-0.64062-4.8125-0.42969-0.71875-1.1875-1.0781-2.2812-1.0781-1.3867 0-2.4531 0.57031-3.2031 1.7031-0.75 1.125-1.125 2.7422-1.125 4.8438v11.078h-7.2344v-22.516h7.2344v3.2969c0.88281-1.2695 1.8984-2.2266 3.0469-2.875 1.1445-0.64453 2.4062-0.96875 3.7812-0.96875 1.5625 0 2.9375 0.375 4.125 1.125 1.1953 0.75 2.1016 1.8047 2.7188 3.1562z"
         id="path8478" />
    </symbol>
    <symbol
       id="o"
       overflow="visible"
       style="fill-opacity:1;fill:url(#linearGradient25553);stroke:none">
      <path
         d="m3.4531-31.281h7.2031v31.281h-7.2031z"
         id="path8481"
         style="fill-opacity:1;fill:url(#linearGradient25553);stroke:none" />
    </symbol>
    <symbol
       id="n"
       overflow="visible">
      <path
         d="m21.047-21.812v5.4688c-1.543-0.64453-3.0312-1.1289-4.4688-1.4531-1.4297-0.32031-2.7773-0.48438-4.0469-0.48438-1.375 0-2.3984 0.17188-3.0625 0.51562-0.65625 0.34375-0.98438 0.87109-0.98438 1.5781 0 0.58594 0.25 1.0312 0.75 1.3438 0.5 0.30469 1.3984 0.52734 2.7031 0.67188l1.2656 0.1875c3.6875 0.46875 6.1641 1.2422 7.4375 2.3125 1.2812 1.0625 1.9219 2.7422 1.9219 5.0312 0 2.4062-0.88672 4.2148-2.6562 5.4219-1.7734 1.1992-4.4141 1.7969-7.9219 1.7969-1.4922 0-3.0312-0.12109-4.625-0.35938-1.5859-0.22656-3.2148-0.57812-4.8906-1.0469v-5.4688c1.4375 0.69922 2.9062 1.2266 4.4062 1.5781 1.5078 0.34375 3.0469 0.51562 4.6094 0.51562 1.4062 0 2.4609-0.19141 3.1719-0.57812 0.70703-0.39453 1.0625-0.97266 1.0625-1.7344 0-0.64453-0.24609-1.125-0.73438-1.4375-0.49219-0.3125-1.4648-0.55469-2.9219-0.73438l-1.2656-0.15625c-3.2109-0.40625-5.4609-1.1484-6.75-2.2344-1.2812-1.082-1.9219-2.7266-1.9219-4.9375 0-2.3828 0.81641-4.1562 2.4531-5.3125 1.6328-1.1562 4.1445-1.7344 7.5312-1.7344 1.3203 0 2.7109 0.10547 4.1719 0.3125 1.457 0.19922 3.0469 0.51172 4.7656 0.9375z"
         id="path8484" />
    </symbol>
    <symbol
       id="m"
       overflow="visible">
      <path
         d="m18.281-31.281v4.7188h-3.9844c-1.0234 0-1.7344 0.1875-2.1406 0.5625-0.39844 0.36719-0.59375 1.0078-0.59375 1.9219v1.5625h6.1562v5.1406h-6.1562v17.375h-7.2031v-17.375h-3.5781v-5.1406h3.5781v-1.5625c0-2.457 0.67969-4.2695 2.0469-5.4375 1.375-1.1758 3.4922-1.7656 6.3594-1.7656z"
         id="path8487" />
    </symbol>
    <symbol
       id="l"
       overflow="visible">
      <path
         d="m26.094-13.703v13.703h-7.2344v-10.453c0-1.9688-0.046875-3.3203-0.14062-4.0625-0.085938-0.73828-0.23047-1.2812-0.4375-1.625-0.28125-0.46875-0.66797-0.83203-1.1562-1.0938-0.48047-0.25781-1.0273-0.39062-1.6406-0.39062-1.5 0-2.6836 0.57812-3.5469 1.7344-0.85547 1.1562-1.2812 2.7617-1.2812 4.8125v11.078h-7.2031v-31.281h7.2031v12.062c1.082-1.3125 2.2344-2.2812 3.4531-2.9062s2.5664-0.9375 4.0469-0.9375c2.5938 0 4.5625 0.79688 5.9062 2.3906 1.3516 1.5938 2.0312 3.918 2.0312 6.9688z"
         id="path8490" />
    </symbol>
    <symbol
       id="k"
       overflow="visible">
      <path
         d="m3.7812-30.016h8.6406l10.922 20.594v-20.594h7.3281v30.016h-8.6406l-10.906-20.594v20.594h-7.3438z"
         id="path8493" />
    </symbol>
    <symbol
       id="j"
       overflow="visible">
      <path
         d="m3.4531-22.516h7.2031v22.109c0 3.0195-0.72656 5.3203-2.1719 6.9062-1.4492 1.5938-3.5469 2.3906-6.2969 2.3906h-3.5469v-4.7344h1.2344c1.375 0 2.3125-0.30859 2.8125-0.92188 0.50781-0.61719 0.76562-1.8281 0.76562-3.6406zm0-8.7656h7.2031v5.875h-7.2031z"
         id="path8496" />
    </symbol>
    <clipPath
       clipPathUnits="userSpaceOnUse"
       id="clipPath12939">
      <use
         height="100%"
         width="100%"
         id="use12941"
         xlink:href="#g12858"
         y="0"
         x="0"
         style="fill:#000000;fill-opacity:1" />
    </clipPath>
    <linearGradient
       inkscape:collect="always"
       xlink:href="#linearGradient25551-6-7-5-3"
       id="linearGradient25553" />
    <linearGradient
       inkscape:collect="always"
       xlink:href="#linearGradient31141"
       id="linearGradient31099"
       gradientUnits="userSpaceOnUse"
       x1="-609.68921"
       y1="339.21613"
       x2="-72.229881"
       y2="341.41882" />
    <clipPath
       clipPathUnits="userSpaceOnUse"
       id="clipPath36151">
      <g
         id="g36169"
         transform="rotate(90,-33.040532,-37.445937)"
         clip-path="none">
        <g
           clip-path="url(#clipPath12939)"
           id="g36161">
          <path
             inkscape:connector-curvature="0"
             id="path36153"
             d="m 613.53,274.23 c -11.531,0 -17.293,-4.9414 -23.883,-11.531 -22.234,-20.59 -46.117,-21.41 -70,0 -14.824,13.176 -28.824,13.176 -38.707,6.5898 40.352,-31.293 52.707,-84 53.531,-86.469 0.82422,-4.1172 -1.6484,-8.2344 -5.7656,-9.8828 -1.6484,-0.82422 -25.531,-7.4102 -54.352,-6.5898 2.4688,-26.352 -1.6484,-46.941 -1.6484,-48.59 -0.82422,-4.1172 -4.9414,-7.4102 -9.0586,-6.5898 -1.6484,0 -34.59,4.1172 -66.707,23.059 -11.531,-26.352 -29.648,-46.941 -39.531,-57.648 l -0.82422,-0.82422 c -1.6445,-0.81641 -4.1172,-1.6406 -6.5859,-1.6406 -2.4687,0 -4.9414,0.82422 -6.5898,2.4688 l -0.82422,0.82422 c -10.707,10.707 -28.824,31.293 -39.531,57.648 -32.117,-18.117 -65.059,-22.234 -66.707,-22.234 -4.1172,-0.82422 -8.2344,2.4688 -9.0586,6.5898 0,0.82422 -4.1172,21.41 -1.6484,48.59 -29.648,-0.82422 -52.707,6.5898 -54.352,6.5898 -4.1172,1.6484 -6.5898,5.7656 -5.7656,9.8828 0,1.6484 8.2344,34.59 32.117,64.234 -14,1.6484 -22.234,9.0586 -28.824,14.824 -16.469,14.824 -30.469,15.648 -47.766,0 -7.4102,-6.5898 -17.293,-15.648 -34.59,-15.648 -4.9414,0 -8.2344,3.293 -8.2344,8.2344 0,4.9414 3.293,8.2344 8.2344,8.2344 11.531,0 16.469,4.9414 23.883,11.531 22.234,20.59 46.117,21.41 70,0 6.5898,-6.5898 12.352,-11.531 23.883,-11.531 11.531,0 16.469,4.9414 23.883,11.531 23.059,21.41 46.941,21.41 70,0 44.469,-40.352 60.117,51.883 116.94,0 18.117,-16.469 32.117,-14 46.117,-0.82422 0.82422,0.82422 32.941,36.234 70.824,0.82422 16.469,-14.824 30.469,-15.648 47.766,0 7.4102,6.5898 17.293,15.648 34.59,15.648 4.9414,0 8.2344,-3.293 8.2344,-8.2344 0.008,-4.9492 -4.1133,-9.0664 -9.0508,-9.0664 z M 457.88,130.11 c 0.82422,8.2344 1.6484,22.234 0,37.883 -18.117,2.4688 -35.41,7.4102 -51.059,16.469 0,-12.352 -1.6484,-23.059 -4.1172,-33.766 20.586,-12.352 42.824,-18.113 55.176,-20.586 z M 350,93.876 c 17.293,18.941 46.941,58.469 38.707,104.59 C 368.941,216.583 356.59,239.642 350,256.114 343.4102,239.645 331.059,216.583 311.293,198.466 302.2344,153.169 331.883,113.642 350,93.876 Z M 242.12,130.11 c 11.531,2.4688 33.766,8.2344 55.176,20.59 -3.293,10.707 -4.9414,22.234 -4.1172,33.766 -15.648,-9.8828 -32.117,-14.824 -50.234,-16.469 -2.4727,-15.652 -1.6484,-29.652 -0.82422,-37.887 z m 43.648,133.41 c -30.469,27.176 -44.469,-2.4688 -62.59,-10.707 -23.059,-21.41 -34.59,-50.234 -39.531,-64.234 74.117,-15.648 117.77,9.8828 144.12,60.941 -18.113,-4.1211 -29.645,2.4688 -41.996,14 z m 116.94,0 c -15.648,14 -29.648,13.176 -40.352,5.7656 26.352,-70.824 78.234,-97.176 154,-81.531 -4.9414,15.648 -18.941,50.234 -47.766,71.648 -18.941,-15.648 -42.824,-16.473 -65.883,4.1172 z" />
          <path
             inkscape:connector-curvature="0"
             id="path36155"
             d="m 613.53,339.29 c -11.531,0 -17.293,-4.9414 -23.883,-11.531 -22.234,-20.59 -46.117,-21.41 -70,0 -16.469,14.824 -30.469,15.648 -47.766,0 -22.234,-20.59 -46.117,-21.41 -70,0 -16.469,14.824 -30.469,15.648 -47.766,0 -58.469,-53.531 -71.648,41.176 -116.94,0 -23.059,-21.41 -46.941,-21.41 -70,0 -16.469,14.824 -30.469,15.648 -47.766,0 -5.7617,-6.5859 -14.82,-14.82 -32.941,-14.82 -4.9414,0 -8.2344,3.293 -8.2344,8.2344 0,4.9414 3.293,8.2344 8.2344,8.2344 11.531,0 16.469,4.9414 23.883,11.531 22.234,20.59 46.117,21.41 70,0 16.469,-14.824 30.469,-15.648 47.766,0 23.059,21.41 46.941,21.41 70,0 16.469,-15.648 30.469,-15.648 47.766,0 22.234,20.59 46.117,21.41 70,0 16.469,-14.824 30.469,-15.648 47.766,0 22.234,20.59 46.117,21.41 70,0 16.469,-14.824 30.469,-15.648 47.766,0 7.4102,6.5898 17.293,15.648 34.59,15.648 4.9414,0 8.2344,-3.293 8.2344,-8.2344 -0.004,-4.9453 -5.7695,-9.0625 -10.707,-9.0625 z" />
          <path
             inkscape:connector-curvature="0"
             id="path36157"
             d="m 613.53,404.35 c -11.531,0 -17.293,-4.9414 -23.883,-11.531 -22.234,-20.59 -46.117,-21.41 -70,0 -16.469,14.824 -30.469,15.648 -47.766,0 -22.234,-20.59 -46.117,-21.41 -70,0 -16.469,14.824 -30.469,15.648 -47.766,0 -58.469,-53.531 -71.648,41.176 -116.94,0 -23.059,-21.41 -46.941,-21.41 -70,0 -16.469,14.824 -30.469,15.648 -47.766,0 -7.4102,-6.5898 -17.293,-15.648 -34.59,-15.648 -4.9414,0 -8.2344,3.293 -8.2344,8.2344 0,4.9414 3.293,8.2344 8.2344,8.2344 11.531,0 16.469,4.9414 23.883,11.531 22.234,20.59 46.117,21.41 70,0 16.469,-14.824 30.469,-15.648 47.766,0 23.059,21.41 46.941,21.41 70,0 16.469,-15.648 30.469,-15.648 47.766,0 22.234,20.59 46.117,21.41 70,0 16.469,-14.824 30.469,-15.648 47.766,0 22.234,20.59 46.117,21.41 70,0 16.469,-14.824 30.469,-15.648 47.766,0 7.4102,6.5898 17.293,15.648 34.59,15.648 4.9414,0 8.2344,-3.293 8.2344,-8.2344 0,-4.9375 -4.1211,-8.2344 -9.0586,-8.2344 z" />
          <path
             inkscape:connector-curvature="0"
             id="path36159"
             d="m 613.53,469.41 c -11.531,0 -17.293,-4.9414 -23.883,-11.531 -22.234,-20.59 -46.117,-21.41 -70,0 -16.469,14.824 -30.469,15.648 -47.766,0 -22.234,-20.59 -46.117,-21.41 -70,0 -16.469,14.824 -30.469,15.648 -47.766,0 -23.059,-21.41 -46.941,-21.41 -70,0 -16.469,15.648 -30.469,15.648 -47.766,0 -23.059,-21.41 -46.941,-21.41 -70,0 -16.469,14.824 -30.469,15.648 -47.766,0 -7.4102,-6.5898 -17.293,-15.648 -34.59,-15.648 -4.9414,0 -8.2344,3.293 -8.2344,8.2344 0,4.9414 3.293,8.2344 8.2344,8.2344 11.531,0 16.469,4.9414 23.883,11.531 22.234,20.59 46.117,21.41 70,0 16.469,-14.824 30.469,-15.648 47.766,0 23.059,21.41 46.941,21.41 70,0 16.469,-15.648 30.469,-15.648 47.766,0 22.234,20.59 46.117,21.41 70,0 16.469,-14.824 30.469,-15.648 47.766,0 22.234,20.59 46.117,21.41 70,0 16.469,-14.824 30.469,-15.648 47.766,0 7.4102,6.5898 17.293,15.648 34.59,15.648 4.9414,0 8.2344,-3.293 8.2344,-8.2344 0,-4.9375 -3.2969,-8.2344 -8.2344,-8.2344 z" />
        </g>
        <g
           style="fill:none;fill-opacity:1"
           clip-path="none"
           id="g36167">
          <g
             style="fill:none;fill-opacity:1"
             id="g36165"
             inkscape:label="Clip">
            <ellipse
               style="fill:none;fill-opacity:1;stroke:#000000;stroke-width:14.63811016;stroke-miterlimit:4;stroke-dasharray:none;stroke-dashoffset:0;stroke-opacity:1"
               id="ellipse36163"
               cx="349.1283"
               cy="273.77716"
               rx="263.16052"
               ry="262.05917" />
          </g>
        </g>
      </g>
    </clipPath>
    <linearGradient
       inkscape:collect="always"
       xlink:href="#linearGradient31141"
       id="linearGradient36404"
       gradientUnits="userSpaceOnUse"
       x1="-609.68921"
       y1="339.21613"
       x2="-72.229881"
       y2="341.41882" />
    <filter
       style="color-interpolation-filters:sRGB;"
       inkscape:label="Drop Shadow"
       id="filter37076">
      <feFlood
         flood-opacity="0.498039"
         flood-color="rgb(0,0,0)"
         result="flood"
         id="feFlood37066" />
      <feComposite
         in="flood"
         in2="SourceGraphic"
         operator="in"
         result="composite1"
         id="feComposite37068" />
      <feGaussianBlur
         in="composite1"
         stdDeviation="8.5"
         result="blur"
         id="feGaussianBlur37070" />
      <feOffset
         dx="9.1"
         dy="5.88235"
         result="offset"
         id="feOffset37072" />
      <feComposite
         in="SourceGraphic"
         in2="offset"
         operator="over"
         result="composite2"
         id="feComposite37074" />
    </filter>
  </defs>
  <g
     inkscape:groupmode="layer"
     id="layer1"
     inkscape:label="Layer 1"
     style="display:inline">
    <rect
       style="display:inline;opacity:0.81999966;fill:url(#linearGradient36404);fill-opacity:1;stroke:none;stroke-width:14.63811111;stroke-miterlimit:4;stroke-dasharray:none;stroke-dashoffset:0;stroke-opacity:1"
       id="rect23640-2"
       width="640.98633"
       height="614.55396"
       x="-671.36487"
       y="31.939156"
       transform="rotate(-90)"
       clip-path="url(#clipPath36151)" />
  </g>
  <g
     id="g23509"
     transform="translate(-4.4054047,70.486469)"
     clip-path="none"
     style="filter:url(#filter37076)">
    <g
       clip-path="url(#clipPath12939)"
       id="g12819">
      <path
         inkscape:connector-curvature="0"
         id="path8501"
         d="m 613.53,274.23 c -11.531,0 -17.293,-4.9414 -23.883,-11.531 -22.234,-20.59 -46.117,-21.41 -70,0 -14.824,13.176 -28.824,13.176 -38.707,6.5898 40.352,-31.293 52.707,-84 53.531,-86.469 0.82422,-4.1172 -1.6484,-8.2344 -5.7656,-9.8828 -1.6484,-0.82422 -25.531,-7.4102 -54.352,-6.5898 2.4688,-26.352 -1.6484,-46.941 -1.6484,-48.59 -0.82422,-4.1172 -4.9414,-7.4102 -9.0586,-6.5898 -1.6484,0 -34.59,4.1172 -66.707,23.059 -11.531,-26.352 -29.648,-46.941 -39.531,-57.648 l -0.82422,-0.82422 c -1.6445,-0.81641 -4.1172,-1.6406 -6.5859,-1.6406 -2.4687,0 -4.9414,0.82422 -6.5898,2.4688 l -0.82422,0.82422 c -10.707,10.707 -28.824,31.293 -39.531,57.648 -32.117,-18.117 -65.059,-22.234 -66.707,-22.234 -4.1172,-0.82422 -8.2344,2.4688 -9.0586,6.5898 0,0.82422 -4.1172,21.41 -1.6484,48.59 -29.648,-0.82422 -52.707,6.5898 -54.352,6.5898 -4.1172,1.6484 -6.5898,5.7656 -5.7656,9.8828 0,1.6484 8.2344,34.59 32.117,64.234 -14,1.6484 -22.234,9.0586 -28.824,14.824 -16.469,14.824 -30.469,15.648 -47.766,0 -7.4102,-6.5898 -17.293,-15.648 -34.59,-15.648 -4.9414,0 -8.2344,3.293 -8.2344,8.2344 0,4.9414 3.293,8.2344 8.2344,8.2344 11.531,0 16.469,4.9414 23.883,11.531 22.234,20.59 46.117,21.41 70,0 6.5898,-6.5898 12.352,-11.531 23.883,-11.531 11.531,0 16.469,4.9414 23.883,11.531 23.059,21.41 46.941,21.41 70,0 44.469,-40.352 60.117,51.883 116.94,0 18.117,-16.469 32.117,-14 46.117,-0.82422 0.82422,0.82422 32.941,36.234 70.824,0.82422 16.469,-14.824 30.469,-15.648 47.766,0 7.4102,6.5898 17.293,15.648 34.59,15.648 4.9414,0 8.2344,-3.293 8.2344,-8.2344 0.008,-4.9492 -4.1133,-9.0664 -9.0508,-9.0664 z M 457.88,130.11 c 0.82422,8.2344 1.6484,22.234 0,37.883 -18.117,2.4688 -35.41,7.4102 -51.059,16.469 0,-12.352 -1.6484,-23.059 -4.1172,-33.766 20.586,-12.352 42.824,-18.113 55.176,-20.586 z M 350,93.876 c 17.293,18.941 46.941,58.469 38.707,104.59 C 368.941,216.583 356.59,239.642 350,256.114 343.4102,239.645 331.059,216.583 311.293,198.466 302.2344,153.169 331.883,113.642 350,93.876 Z M 242.12,130.11 c 11.531,2.4688 33.766,8.2344 55.176,20.59 -3.293,10.707 -4.9414,22.234 -4.1172,33.766 -15.648,-9.8828 -32.117,-14.824 -50.234,-16.469 -2.4727,-15.652 -1.6484,-29.652 -0.82422,-37.887 z m 43.648,133.41 c -30.469,27.176 -44.469,-2.4688 -62.59,-10.707 -23.059,-21.41 -34.59,-50.234 -39.531,-64.234 74.117,-15.648 117.77,9.8828 144.12,60.941 -18.113,-4.1211 -29.645,2.4688 -41.996,14 z m 116.94,0 c -15.648,14 -29.648,13.176 -40.352,5.7656 26.352,-70.824 78.234,-97.176 154,-81.531 -4.9414,15.648 -18.941,50.234 -47.766,71.648 -18.941,-15.648 -42.824,-16.473 -65.883,4.1172 z" />
      <path
         inkscape:connector-curvature="0"
         id="path8503"
         d="m 613.53,339.29 c -11.531,0 -17.293,-4.9414 -23.883,-11.531 -22.234,-20.59 -46.117,-21.41 -70,0 -16.469,14.824 -30.469,15.648 -47.766,0 -22.234,-20.59 -46.117,-21.41 -70,0 -16.469,14.824 -30.469,15.648 -47.766,0 -58.469,-53.531 -71.648,41.176 -116.94,0 -23.059,-21.41 -46.941,-21.41 -70,0 -16.469,14.824 -30.469,15.648 -47.766,0 -5.7617,-6.5859 -14.82,-14.82 -32.941,-14.82 -4.9414,0 -8.2344,3.293 -8.2344,8.2344 0,4.9414 3.293,8.2344 8.2344,8.2344 11.531,0 16.469,4.9414 23.883,11.531 22.234,20.59 46.117,21.41 70,0 16.469,-14.824 30.469,-15.648 47.766,0 23.059,21.41 46.941,21.41 70,0 16.469,-15.648 30.469,-15.648 47.766,0 22.234,20.59 46.117,21.41 70,0 16.469,-14.824 30.469,-15.648 47.766,0 22.234,20.59 46.117,21.41 70,0 16.469,-14.824 30.469,-15.648 47.766,0 7.4102,6.5898 17.293,15.648 34.59,15.648 4.9414,0 8.2344,-3.293 8.2344,-8.2344 -0.004,-4.9453 -5.7695,-9.0625 -10.707,-9.0625 z" />
      <path
         inkscape:connector-curvature="0"
         id="path8505"
         d="m 613.53,404.35 c -11.531,0 -17.293,-4.9414 -23.883,-11.531 -22.234,-20.59 -46.117,-21.41 -70,0 -16.469,14.824 -30.469,15.648 -47.766,0 -22.234,-20.59 -46.117,-21.41 -70,0 -16.469,14.824 -30.469,15.648 -47.766,0 -58.469,-53.531 -71.648,41.176 -116.94,0 -23.059,-21.41 -46.941,-21.41 -70,0 -16.469,14.824 -30.469,15.648 -47.766,0 -7.4102,-6.5898 -17.293,-15.648 -34.59,-15.648 -4.9414,0 -8.2344,3.293 -8.2344,8.2344 0,4.9414 3.293,8.2344 8.2344,8.2344 11.531,0 16.469,4.9414 23.883,11.531 22.234,20.59 46.117,21.41 70,0 16.469,-14.824 30.469,-15.648 47.766,0 23.059,21.41 46.941,21.41 70,0 16.469,-15.648 30.469,-15.648 47.766,0 22.234,20.59 46.117,21.41 70,0 16.469,-14.824 30.469,-15.648 47.766,0 22.234,20.59 46.117,21.41 70,0 16.469,-14.824 30.469,-15.648 47.766,0 7.4102,6.5898 17.293,15.648 34.59,15.648 4.9414,0 8.2344,-3.293 8.2344,-8.2344 0,-4.9375 -4.1211,-8.2344 -9.0586,-8.2344 z" />
      <path
         inkscape:connector-curvature="0"
         id="path8507"
         d="m 613.53,469.41 c -11.531,0 -17.293,-4.9414 -23.883,-11.531 -22.234,-20.59 -46.117,-21.41 -70,0 -16.469,14.824 -30.469,15.648 -47.766,0 -22.234,-20.59 -46.117,-21.41 -70,0 -16.469,14.824 -30.469,15.648 -47.766,0 -23.059,-21.41 -46.941,-21.41 -70,0 -16.469,15.648 -30.469,15.648 -47.766,0 -23.059,-21.41 -46.941,-21.41 -70,0 -16.469,14.824 -30.469,15.648 -47.766,0 -7.4102,-6.5898 -17.293,-15.648 -34.59,-15.648 -4.9414,0 -8.2344,3.293 -8.2344,8.2344 0,4.9414 3.293,8.2344 8.2344,8.2344 11.531,0 16.469,4.9414 23.883,11.531 22.234,20.59 46.117,21.41 70,0 16.469,-14.824 30.469,-15.648 47.766,0 23.059,21.41 46.941,21.41 70,0 16.469,-15.648 30.469,-15.648 47.766,0 22.234,20.59 46.117,21.41 70,0 16.469,-14.824 30.469,-15.648 47.766,0 22.234,20.59 46.117,21.41 70,0 16.469,-14.824 30.469,-15.648 47.766,0 7.4102,6.5898 17.293,15.648 34.59,15.648 4.9414,0 8.2344,-3.293 8.2344,-8.2344 0,-4.9375 -3.2969,-8.2344 -8.2344,-8.2344 z" />
    </g>
    <g
       style="fill:none;fill-opacity:1"
       clip-path="none"
       id="g12860">
      <g
         style="fill:none;fill-opacity:1"
         id="g12858"
         inkscape:label="Clip">
        <ellipse
           style="fill:none;fill-opacity:1;stroke:#000000;stroke-width:14.63811016;stroke-miterlimit:4;stroke-dasharray:none;stroke-dashoffset:0;stroke-opacity:1"
           id="path12777"
           cx="349.1283"
           cy="273.77716"
           rx="263.16052"
           ry="262.05917" />
      </g>
    </g>
  </g>
</svg>
