<?xml version="1.0" encoding="UTF-8" standalone="no"?>
<!-- Created with Inkscape (http://www.inkscape.org/) -->

<svg
   width="69.599998mm"
   height="69.599998mm"
   viewBox="0 0 69.599998 69.599998"
   version="1.1"
   id="svg8462"
   inkscape:version="1.2.1 (2ed6d7ae0b, 2022-08-22, custom)"
   sodipodi:docname="icon-noun-aquatic-plant-2123381.svg"
   xml:space="preserve"
   inkscape:export-filename="../2a5b22ce/icon-aquatic-plant.png"
   inkscape:export-xdpi="96"
   inkscape:export-ydpi="96"
   xmlns:inkscape="http://www.inkscape.org/namespaces/inkscape"
   xmlns:sodipodi="http://sodipodi.sourceforge.net/DTD/sodipodi-0.dtd"
   xmlns:xlink="http://www.w3.org/1999/xlink"
   xmlns="http://www.w3.org/2000/svg"
   xmlns:svg="http://www.w3.org/2000/svg"
   xmlns:rdf="http://www.w3.org/1999/02/22-rdf-syntax-ns#"
   xmlns:cc="http://creativecommons.org/ns#"
   xmlns:dc="http://purl.org/dc/elements/1.1/"><defs
     id="defs8456"><linearGradient
       inkscape:collect="always"
       id="linearGradient40589"><stop
         style="stop-color:#1197bc;stop-opacity:1;"
         offset="0"
         id="stop40585" /><stop
         style="stop-color:#71d6f2;stop-opacity:1;"
         offset="1"
         id="stop40587" /></linearGradient><symbol
       id="r"
       overflow="visible"><path
         d="m 27.578,-1.6562 c -1.418,0.74219 -2.8984,1.2969 -4.4375,1.6719 -1.543,0.375 -3.1523,0.5625 -4.8281,0.5625 -5,0 -8.9648,-1.3945 -11.891,-4.1875 -2.918,-2.7891 -4.375,-6.582 -4.375,-11.375 0,-4.7891 1.457,-8.582 4.375,-11.375 2.9258,-2.8008 6.8906,-4.2031 11.891,-4.2031 1.6758,0 3.2852,0.1875 4.8281,0.5625 1.5391,0.375 3.0195,0.93359 4.4375,1.6719 v 6.2188 c -1.4297,-0.97656 -2.8398,-1.6953 -4.2344,-2.1562 -1.3984,-0.45703 -2.8672,-0.6875 -4.4062,-0.6875 -2.7617,0 -4.9336,0.88672 -6.5156,2.6562 -1.5859,1.7734 -2.375,4.2109 -2.375,7.3125 0,3.1055 0.78906,5.543 2.375,7.3125 1.582,1.7617 3.7539,2.6406 6.5156,2.6406 1.5391,0 3.0078,-0.22266 4.4062,-0.67188 1.3945,-0.45703 2.8047,-1.1758 4.2344,-2.1562 z"
         id="path32243" /></symbol><symbol
       id="f"
       overflow="visible"><path
         d="m 20.188,-16.391 c -0.63672,-0.28906 -1.2656,-0.50391 -1.8906,-0.64062 -0.61719,-0.14453 -1.2422,-0.21875 -1.875,-0.21875 -1.8438,0 -3.2656,0.59375 -4.2656,1.7812 -1,1.18745 -1.5,2.8867 -1.5,5.0938 v 10.375 H 3.4537 v -22.516 h 7.2031 v 3.7031 c 0.92578,-1.4766 1.9883,-2.5547 3.1875,-3.2344 1.1953,-0.67578 2.6328,-1.0156 4.3125,-1.0156 0.23828,0 0.5,0.01172 0.78125,0.03125 0.28125,0.02344 0.6875,0.07031 1.2188,0.14062 z"
         id="path32246" /></symbol><symbol
       id="e"
       overflow="visible"><path
         d="m 25.938,-11.312 v 2.0469 H 9.11 c 0.17578,1.6875 0.78516,2.9531 1.8281,3.7969 1.0391,0.84375 2.5,1.2656 4.375,1.2656 1.5195,0 3.0703,-0.22266 4.6562,-0.67188 1.5938,-0.44531 3.2266,-1.1289 4.9062,-2.0469 v 5.5625 c -1.7109,0.63672 -3.418,1.1172 -5.125,1.4375 -1.6992,0.33203 -3.3984,0.5 -5.0938,0.5 -4.0742,0 -7.2422,-1.0312 -9.5,-3.0938 -2.2617,-2.0703 -3.3906,-4.9766 -3.3906,-8.7188 0,-3.6758 1.1094,-6.5664 3.3281,-8.6719 2.2188,-2.1016 5.2695,-3.1562 9.1562,-3.1562 3.5391,0 6.375,1.0703 8.5,3.2031 2.125,2.125 3.1875,4.9766 3.1875,8.5469 z m -7.4062,-2.3906 c 0,-1.375 -0.40234,-2.4766 -1.2031,-3.3125 -0.79297,-0.84375 -1.8281,-1.2656 -3.1094,-1.2656 -1.3984,0 -2.5312,0.39844 -3.4062,1.1875 -0.86719,0.78125 -1.4062,1.9141 -1.625,3.3906 z"
         id="path32249" /></symbol><symbol
       id="i"
       overflow="visible"><path
         d="m 13.547,-10.125 c -1.5,0 -2.6328,0.25781 -3.3906,0.76562 -0.75,0.5 -1.125,1.25 -1.125,2.25 0,0.90625 0.30078,1.6211 0.90625,2.1406 0.61328,0.51172 1.4609,0.76562 2.5469,0.76562 1.3516,0 2.4883,-0.48438 3.4062,-1.4531 0.92578,-0.96875 1.3906,-2.1875 1.3906,-3.6562 v -0.8125 z m 11,-2.7188 V 2e-4 h -7.2656 v -3.3438 c -0.96094,1.375 -2.043,2.375 -3.25,3 -1.2109,0.61328 -2.6797,0.92188 -4.4062,0.92188 -2.3359,0 -4.2305,-0.67578 -5.6875,-2.0312 -1.4492,-1.3633 -2.1719,-3.1289 -2.1719,-5.2969 0,-2.6445 0.90625,-4.582 2.7188,-5.8125 1.8203,-1.2383 4.6758,-1.8594 8.5625,-1.8594 h 4.2344 v -0.5625 c 0,-1.1328 -0.44922,-1.9688 -1.3438,-2.5 -0.89844,-0.53125 -2.2969,-0.79688 -4.2031,-0.79688 -1.543,0 -2.9766,0.15625 -4.2969,0.46875 -1.3242,0.3125 -2.5586,0.77734 -3.7031,1.3906 v -5.4844 c 1.5391,-0.375 3.0859,-0.66016 4.6406,-0.85938 1.5625,-0.19531 3.1172,-0.29688 4.6719,-0.29688 4.0625,0 6.9922,0.80469 8.7969,2.4062 1.8008,1.6055 2.7031,4.2109 2.7031,7.8125 z"
         id="path32252" /></symbol><symbol
       id="a"
       overflow="visible"><path
         d="m 11.312,-28.906 v 6.3906 h 7.4219 v 5.1406 H 11.312 v 9.5625 c 0,1.043 0.20703,1.75 0.625,2.125 0.41406,0.36719 1.2422,0.54688 2.4844,0.54688 h 3.6875 V 1.8e-4 H 11.937 c -2.8438,0 -4.8594,-0.59375 -6.0469,-1.7812 -1.1797,-1.1875 -1.7656,-3.1953 -1.7656,-6.0312 v -9.5625 H 0.5464 v -5.1406 h 3.5781 v -6.3906 z"
         id="path32255" /></symbol><symbol
       id="h"
       overflow="visible"><path
         d="m 18.781,-19.219 v -12.062 h 7.2344 V 0 H 18.781 v -3.25 c -1,1.3242 -2.1016,2.293 -3.2969,2.9062 -1.1875,0.61328 -2.5625,0.92188 -4.125,0.92188 -2.7734,0 -5.0547,-1.0977 -6.8438,-3.2969 -1.7812,-2.207 -2.6719,-5.0469 -2.6719,-8.5156 0,-3.4687 0.89062,-6.3047 2.6719,-8.5156 1.7891,-2.207 4.0703,-3.3125 6.8438,-3.3125 1.5508,0 2.9258,0.3125 4.125,0.9375 1.1953,0.625 2.2969,1.5938 3.2969,2.9062 z m -4.75,14.578 c 1.5391,0 2.7188,-0.5625 3.5312,-1.6875 0.8124,-1.125 1.2188,-2.7578 1.2188,-4.9062 0,-2.1445 -0.40625,-3.7812 -1.2188,-4.9062 -0.81255,-1.125 -1.9922,-1.6875 -3.5312,-1.6875 -1.5312,0 -2.7031,0.5625 -3.5156,1.6875 -0.80469,1.125 -1.2031,2.7617 -1.2031,4.9062 0,2.1484 0.39844,3.7812 1.2031,4.9062 0.8125,1.125 1.9844,1.6875 3.5156,1.6875 z"
         id="path32258" /></symbol><symbol
       id="d"
       overflow="visible"><path
         d="m 15.438,-4.6406 c 1.5391,0 2.7188,-0.5625 3.5312,-1.6875 0.8124,-1.125 1.2188,-2.7578 1.2188,-4.9062 0,-2.1445 -0.40625,-3.7812 -1.2188,-4.9062 -0.81255,-1.125 -1.9922,-1.6875 -3.5312,-1.6875 -1.543,0 -2.7266,0.57031 -3.5469,1.7031 -0.82422,1.125 -1.2344,2.7578 -1.2344,4.8906 0,2.125 0.41016,3.7578 1.2344,4.8906 0.82031,1.1367 2.0039,1.7031 3.5469,1.7031 z m -4.7812,-14.578 c 0.98828,-1.3125 2.0859,-2.2812 3.2969,-2.9062 1.207,-0.625 2.5938,-0.9375 4.1562,-0.9375 2.7812,0 5.0625,1.1055 6.8438,3.3125 1.7812,2.2109 2.6719,5.0469 2.6719,8.5156 0,3.4687 -0.89062,6.3086 -2.6719,8.5156 -1.7812,2.1992 -4.0625,3.2969 -6.8438,3.2969 -1.5625,0 -2.9492,-0.30859 -4.1562,-0.92188 -1.2109,-0.625 -2.3086,-1.5938 -3.2969,-2.9062 v 3.25 H 3.4537 v -31.281 h 7.2031 z"
         id="path32261" /></symbol><symbol
       id="c"
       overflow="visible"><path
         d="m 0.5,-22.516 h 7.2031 l 6.0469,15.281 5.1406,-15.281 h 7.2031 L 16.6249,2.125 c -0.94922,2.5078 -2.0586,4.2656 -3.3281,5.2656 -1.2617,1 -2.9336,1.5 -5.0156,1.5 H 4.125 V 4.1562 h 2.25 c 1.2188,0 2.1016,-0.19531 2.6562,-0.57812 0.5625,-0.38672 0.99219,-1.0859 1.2969,-2.0938 l 0.20312,-0.625 z"
         id="path32264" /></symbol><symbol
       id="b"
       overflow="visible"><path
         d="m 3.7812,-30.016 h 12.844 c 3.8203,0 6.7539,0.85156 8.7969,2.5469 2.0391,1.6992 3.0625,4.1172 3.0625,7.25 0,3.1484 -1.0234,5.5703 -3.0625,7.2656 -2.043,1.6992 -4.9766,2.5469 -8.7969,2.5469 H 11.5158 V -6e-4 H 3.7814 Z m 7.7344,5.6094 v 8.3906 h 4.2812 c 1.5,0 2.6562,-0.36328 3.4688,-1.0938 0.82031,-0.73828 1.2344,-1.7734 1.2344,-3.1094 0,-1.3438 -0.41406,-2.375 -1.2344,-3.0938 -0.8125,-0.72656 -1.9688,-1.0938 -3.4688,-1.0938 z"
         id="path32267" /></symbol><symbol
       id="g"
       overflow="visible"><path
         d="m 14.172,-17.906 c -1.5938,0 -2.8125,0.57422 -3.6562,1.7188 -0.83594,1.1484 -1.25,2.7969 -1.25,4.9531 0,2.1562 0.41406,3.8086 1.25,4.9531 0.84375,1.1484 2.0625,1.7188 3.6562,1.7188 1.5703,0 2.7695,-0.57031 3.5938,-1.7188 0.83203,-1.1445 1.25,-2.7969 1.25,-4.9531 0,-2.1562 -0.41797,-3.8047 -1.25,-4.9531 -0.82422,-1.1445 -2.0234,-1.7188 -3.5938,-1.7188 z m 0,-5.1562 c 3.875,0 6.8984,1.0469 9.0781,3.1406 2.1758,2.0938 3.2656,4.9922 3.2656,8.6875 0,3.6992 -1.0898,6.5938 -3.2656,8.6875 -2.1797,2.0859 -5.2031,3.125 -9.0781,3.125 -3.8867,0 -6.9297,-1.0391 -9.125,-3.125 -2.1875,-2.0938 -3.2812,-4.9883 -3.2812,-8.6875 0,-3.6953 1.0938,-6.5938 3.2812,-8.6875 2.1953,-2.0938 5.2383,-3.1406 9.125,-3.1406 z"
         id="path32270" /></symbol><symbol
       id="q"
       overflow="visible"><path
         d="m 24.672,-29.062 v 6.3438 c -1.6562,-0.73828 -3.2734,-1.2969 -4.8438,-1.6719 -1.5625,-0.375 -3.0391,-0.5625 -4.4219,-0.5625 -1.8555,0 -3.2266,0.25781 -4.1094,0.76562 -0.88672,0.51172 -1.3281,1.3047 -1.3281,2.375 0,0.80469 0.29688,1.4297 0.89062,1.875 0.60156,0.44922 1.6875,0.83594 3.25,1.1562 l 3.2969,0.67188 c 3.3438,0.66797 5.7188,1.6875 7.125,3.0625 1.4062,1.3672 2.1094,3.3047 2.1094,5.8125 0,3.3125 -0.98438,5.7773 -2.9531,7.3906 -1.9609,1.6172 -4.9531,2.4219 -8.9844,2.4219 -1.9062,0 -3.8203,-0.18359 -5.7344,-0.54688 -1.918,-0.35156 -3.8359,-0.88281 -5.75,-1.5938 v -6.5469 c 1.9141,1.0234 3.7656,1.793 5.5469,2.3125 1.7891,0.51172 3.5195,0.76562 5.1875,0.76562 1.6875,0 2.9766,-0.28125 3.875,-0.84375 0.89453,-0.5625 1.3438,-1.3633 1.3438,-2.4062 0,-0.9375 -0.30859,-1.6602 -0.92188,-2.1719 -0.60547,-0.50781 -1.8203,-0.96875 -3.6406,-1.375 l -2.9844,-0.65625 c -3.0117,-0.64453 -5.2109,-1.6719 -6.5938,-3.0781 -1.3867,-1.4062 -2.0781,-3.3008 -2.0781,-5.6875 0,-2.9883 0.96094,-5.2852 2.8906,-6.8906 1.9375,-1.6133 4.7109,-2.4219 8.3281,-2.4219 1.6445,0 3.3359,0.125 5.0781,0.375 1.75,0.25 3.5547,0.625 5.4219,1.125 z"
         id="path32273" /></symbol><symbol
       id="p"
       overflow="visible"><path
         d="m 24.328,-18.781 c 0.90625,-1.3945 1.9844,-2.457 3.2344,-3.1875 1.2578,-0.72656 2.6406,-1.0938 4.1406,-1.0938 2.582,0 4.5508,0.79688 5.9062,2.3906 1.3516,1.5938 2.0312,3.918 2.0312,6.9688 V 10e-5 H 32.406 v -11.734 c 0.0078,-0.17578 0.01953,-0.35938 0.03125,-0.54688 0.0078,-0.1875 0.01563,-0.45703 0.01563,-0.8125 0,-1.5938 -0.23438,-2.7422 -0.70312,-3.4531 -0.46875,-0.71875 -1.2305,-1.0781 -2.2812,-1.0781 -1.3672,0 -2.4219,0.5625 -3.1719,1.6875 -0.74219,1.125 -1.1211,2.75 -1.1406,4.875 V 2e-5 h -7.25 v -11.734 c 0,-2.5 -0.21484,-4.1016 -0.64062,-4.8125 -0.42969,-0.71875 -1.1875,-1.0781 -2.2812,-1.0781 -1.3867,0 -2.4531,0.57031 -3.2031,1.7031 -0.75,1.125 -1.125,2.7422 -1.125,4.8438 v 11.078 h -7.2344 v -22.516 h 7.2344 v 3.2969 c 0.88281,-1.2695 1.8984,-2.2266 3.0469,-2.875 1.1445,-0.64453 2.4062,-0.96875 3.7812,-0.96875 1.5625,0 2.9375,0.375 4.125,1.125 1.1953,0.75 2.1016,1.8047 2.7188,3.1562 z"
         id="path32276" /></symbol><symbol
       id="o"
       overflow="visible"><path
         d="m 3.4531,-31.281 h 7.2031 V 0 H 3.4531 Z"
         id="path32279" /></symbol><symbol
       id="n"
       overflow="visible"><path
         d="m 21.047,-21.812 v 5.4688 c -1.543,-0.64453 -3.0312,-1.1289 -4.4688,-1.4531 -1.4297,-0.32031 -2.7773,-0.48438 -4.0469,-0.48438 -1.375,0 -2.3984,0.17188 -3.0625,0.51562 -0.65625,0.34375 -0.98438,0.87109 -0.98438,1.5781 0,0.58594 0.25,1.0312 0.75,1.3438 0.5,0.30469 1.3984,0.52734 2.7031,0.67188 l 1.2656,0.1875 c 3.6875,0.46875 6.1641,1.2422 7.4375,2.3125 1.2812,1.0625 1.9219,2.7422 1.9219,5.0312 0,2.4062 -0.88672,4.2148 -2.6562,5.4219 -1.7734,1.1992 -4.4141,1.7969 -7.9219,1.7969 -1.4922,0 -3.0312,-0.12109 -4.625,-0.35938 -1.5859,-0.22656 -3.2148,-0.57812 -4.8906,-1.0469 v -5.4688 c 1.4375,0.69922 2.9062,1.2266 4.4062,1.5781 1.5078,0.34375 3.0469,0.51562 4.6094,0.51562 1.4062,0 2.4609,-0.19141 3.1719,-0.57812 0.70703,-0.39453 1.0625,-0.97266 1.0625,-1.7344 0,-0.64453 -0.24609,-1.125 -0.73438,-1.4375 -0.49219,-0.3125 -1.4648,-0.55469 -2.9219,-0.73438 l -1.2656,-0.15625 c -3.2109,-0.40625 -5.4609,-1.1484 -6.75,-2.2344 -1.2812,-1.082 -1.9219,-2.7266 -1.9219,-4.9375 0,-2.3828 0.81641,-4.1562 2.4531,-5.3125 1.6328,-1.1562 4.1445,-1.7344 7.5312,-1.7344 1.3203,0 2.7109,0.10547 4.1719,0.3125 1.457,0.19922 3.0469,0.51172 4.7656,0.9375 z"
         id="path32282" /></symbol><symbol
       id="m"
       overflow="visible"><path
         d="m 18.281,-31.281 v 4.7188 h -3.9844 c -1.0234,0 -1.7344,0.1875 -2.1406,0.5625 -0.39844,0.36719 -0.59375,1.0078 -0.59375,1.9219 v 1.5625 h 6.1562 v 5.1406 h -6.1562 V 3e-4 h -7.2031 v -17.375 h -3.5781 v -5.1406 h 3.5781 v -1.5625 c 0,-2.457 0.67969,-4.2695 2.0469,-5.4375 1.375,-1.1758 3.4922,-1.7656 6.3594,-1.7656 z"
         id="path32285" /></symbol><symbol
       id="l"
       overflow="visible"><path
         d="M 26.094,-13.703 V 0 h -7.2344 v -10.453 c 0,-1.9688 -0.04687,-3.3203 -0.14062,-4.0625 -0.08594,-0.73828 -0.23047,-1.2812 -0.4375,-1.625 -0.28125,-0.46875 -0.66797,-0.83203 -1.1562,-1.0938 -0.48047,-0.25781 -1.0273,-0.39062 -1.6406,-0.39062 -1.5,0 -2.6836,0.57812 -3.5469,1.7344 -0.85547,1.1562 -1.2812,2.7617 -1.2812,4.8125 V -2e-5 h -7.2031 v -31.281 h 7.2031 v 12.062 c 1.082,-1.3125 2.2344,-2.2812 3.4531,-2.9062 1.2187,-0.625 2.5664,-0.9375 4.0469,-0.9375 2.5938,0 4.5625,0.79688 5.9062,2.3906 1.3516,1.5938 2.0312,3.918 2.0312,6.9688 z"
         id="path32288" /></symbol><symbol
       id="k"
       overflow="visible"><path
         d="m 3.7812,-30.016 h 8.6406 l 10.922,20.594 v -20.594 h 7.3281 V 0 H 22.0313 L 11.1253,-20.594 V 0 H 3.7815 Z"
         id="path32291" /></symbol><symbol
       id="j"
       overflow="visible"><path
         d="m 3.4531,-22.516 h 7.2031 v 22.109 c 0,3.0195 -0.72656,5.3203 -2.1719,6.9062 C 7.0351,8.093 4.9374,8.8898 2.1874,8.8898 H -1.3595 V 4.1554 h 1.2344 c 1.375,0 2.3125,-0.30859 2.8125,-0.92188 0.50781,-0.61719 0.76562,-1.8281 0.76562,-3.6406 z m 0,-8.7656 h 7.2031 v 5.875 H 3.4531 Z"
         id="path32294" /></symbol><clipPath
       clipPathUnits="userSpaceOnUse"
       id="clipPath40558"><circle
         style="display:inline;opacity:1;fill:#1197bc;fill-opacity:0.977419;stroke:none;stroke-width:22.295;stroke-miterlimit:4;stroke-dasharray:none;stroke-dashoffset:0;stroke-opacity:1"
         id="circle40560"
         cx="351.27866"
         cy="235.54787"
         r="276.31351" /></clipPath><linearGradient
       inkscape:collect="always"
       xlink:href="#linearGradient40589"
       id="linearGradient40593"
       x1="97.837776"
       y1="153.79248"
       x2="98.152634"
       y2="115.41908"
       gradientUnits="userSpaceOnUse" /><filter
       style="color-interpolation-filters:sRGB"
       inkscape:label="Drop Shadow"
       id="filter44481"
       x="-0.034375"
       y="-0.034375"
       width="1.0875"
       height="1.0875"><feFlood
         flood-opacity="0.498039"
         flood-color="rgb(0,0,0)"
         result="flood"
         id="feFlood44471" /><feComposite
         in="flood"
         in2="SourceGraphic"
         operator="in"
         result="composite1"
         id="feComposite44473" /><feGaussianBlur
         in="composite1"
         stdDeviation="0.5"
         result="blur"
         id="feGaussianBlur44475" /><feOffset
         dx="1.2"
         dy="1.2"
         result="offset"
         id="feOffset44477" /><feComposite
         in="SourceGraphic"
         in2="offset"
         operator="over"
         result="composite2"
         id="feComposite44479" /></filter></defs><sodipodi:namedview
     id="base"
     pagecolor="#ffffff"
     bordercolor="#666666"
     borderopacity="1.0"
     inkscape:pageopacity="0.0"
     inkscape:pageshadow="2"
     inkscape:zoom="0.98994949"
     inkscape:cx="77.781746"
     inkscape:cy="153.54319"
     inkscape:document-units="mm"
     inkscape:current-layer="layer1"
     showgrid="false"
     fit-margin-top="0"
     fit-margin-left="0"
     fit-margin-right="0"
     fit-margin-bottom="-2.7755576e-17"
     inkscape:window-width="1864"
     inkscape:window-height="1053"
     inkscape:window-x="56"
     inkscape:window-y="27"
     inkscape:window-maximized="1"
     inkscape:showpageshadow="2"
     inkscape:pagecheckerboard="0"
     inkscape:deskcolor="#d1d1d1" /><metadata
     id="metadata8459"><rdf:RDF><cc:Work
         rdf:about=""><dc:format>image/svg+xml</dc:format><dc:type
           rdf:resource="http://purl.org/dc/dcmitype/StillImage" /></cc:Work></rdf:RDF></metadata><g
     inkscape:label="Layer 1"
     inkscape:groupmode="layer"
     id="layer1"
     transform="translate(-63.823819,-113.7494)"
     style="display:inline"><circle
       style="display:inline;opacity:1;fill:url(#linearGradient40593);fill-opacity:1;stroke:#000000;stroke-width:2;stroke-miterlimit:4;stroke-dasharray:none;stroke-dashoffset:0;stroke-opacity:1;filter:url(#filter44481)"
       id="circle3172"
       cx="98.023819"
       cy="147.9494"
       r="32"
       inkscape:label="circle3172" /><path
       style="fill:#2b50c5;fill-opacity:1;stroke:#000000;stroke-width:5.39933;stroke-dasharray:none;stroke-opacity:1"
       d="m 5.2315849,131.12444 c -4.82304869,0.91617 -2.0608121,6.75313 -1.8777903,9.95257 1.5148587,5.23425 1.041455,11.88859 5.2246094,15.86914 7.778068,2.11076 12.10485,11.23241 20.690569,11.19559 10.380735,0.75099 15.660413,-11.73281 26.022601,-11.36719 9.083477,-0.72035 14.324065,8.09799 22.16239,10.78962 9.87335,2.49264 16.822393,-6.89466 25.013946,-10.3962 8.69627,-3.65606 15.89545,4.24926 22.37863,8.74581 6.2434,4.29125 14.74603,1.87585 19.85989,-3.09231 4.17449,-3.57502 9.22913,-6.59369 14.96712,-5.67443 10.29775,-0.84971 15.11924,12.75057 25.64034,10.87054 9.38825,-0.62849 14.53766,-11.68843 24.36245,-11.13839 7.64897,-0.74146 13.17023,5.57734 18.59909,9.73237 4.27698,0.97774 4.55665,-5.29363 5.98936,-8.18662 1.08605,-4.5475 3.38364,-9.08113 3.11942,-13.76534 -3.39801,-2.38084 -8.29441,-2.03579 -11.5625,-5.06418 -5.305,-4.31342 -11.5332,-9.9307 -18.96066,-7.41071 -8.0161,2.39778 -12.99466,11.73034 -22.21261,10.66825 -8.38783,0.79045 -13.53782,-6.79266 -20.23856,-10.24833 -7.85032,-3.82243 -15.06751,2.79195 -20.81892,7.34654 -5.80175,4.53964 -14.21207,4.19462 -19.84235,-0.43387 -6.3172,-4.1761 -14.3405,-10.69607 -22.15821,-6.06306 -6.883214,4.04267 -13.483843,11.47839 -22.278178,9.54241 -8.999482,-1.65169 -13.988868,-12.70712 -23.899276,-11.39648 -9.505444,0.44537 -14.480914,11.83613 -24.30385,11.55692 -10.582072,0.63913 -15.906303,-11.13553 -25.8775111,-12.03265 z"
       id="path40664"
       transform="matrix(0.26458333,0,0,0.26458333,66.023819,115.9494)" /><path
       style="fill:#2b50c5;fill-opacity:1;stroke:#000000;stroke-width:5.39933;stroke-dasharray:none;stroke-opacity:1"
       d="m 108.26311,159.84933 c -10.294546,0.28291 -15.589917,12.60144 -26.219304,11.85407 -10.91311,0.27084 -16.780314,-13.72015 -28.030134,-11.46484 -8.53378,2.15165 -13.767836,11.91676 -23.309152,11.17606 -6.169304,0.68925 -10.595588,-4.05464 -15.63337,-6.54018 -4.381773,-0.58916 -3.639171,4.8524 -1.944755,7.19308 4.449932,8.42746 8.939662,17.28667 15.905413,23.91881 4.991016,2.33945 9.777098,-2.57775 13.582636,-5.32791 5.620887,-5.28976 14.492857,-7.48532 21.305757,-3.09983 6.344162,3.43625 12.450763,11.07875 20.503627,8.51842 7.780015,-2.83275 13.651601,-9.92911 21.905692,-11.40625 11.15909,-0.41812 17.04239,13.78268 28.51284,11.96987 8.65915,-1.83341 13.83204,-11.5478 23.238,-11.33371 9.11739,-0.45357 14.58727,8.22167 22.50418,11.03097 9.47343,2.72276 15.7294,-6.70454 23.52958,-9.98884 4.75352,-1.74544 10.04485,-1.03216 14.55907,0.85991 4.04191,-0.74224 4.74666,-6.45881 7.22882,-9.37805 2.39255,-3.05583 3.5395,-8.09481 -0.45279,-10.42717 -5.09991,-4.79724 -12.60413,-10.02465 -19.70703,-6.04771 -7.57868,3.94511 -14.56138,12.42868 -23.99973,9.89816 -8.99158,-2.11951 -14.68546,-13.23134 -24.85351,-10.92076 -8.48392,2.25909 -13.78305,12.03237 -23.35798,11.08817 -10.04842,0.83385 -15.55538,-11.21873 -25.26786,-11.57227 z"
       id="path44461"
       transform="matrix(0.26458333,0,0,0.26458333,66.023819,115.9494)" /><path
       style="fill:#2b50c5;fill-opacity:1;stroke:#000000;stroke-width:5.39933;stroke-dasharray:none;stroke-opacity:1"
       d="m 106.45368,188.13058 c -9.349098,0.30918 -14.055281,11.87086 -23.730466,11.50391 -8.203679,0.90948 -13.958075,-5.7543 -20.186942,-9.81725 -6.445884,-3.51833 -14.233015,-0.55239 -19.186663,4.20201 -2.645402,2.78667 -7.406078,3.43045 -8.999721,7.04799 0.866385,4.49125 5.905057,6.83014 8.722099,10.15346 2.473528,3.07366 6.399927,3.67056 9.980469,2.45676 9.134137,-1.41894 15.271914,6.42256 22.377231,10.48409 6.641888,3.07348 13.920101,-0.28733 18.616072,-5.1981 6.275081,-5.83954 16.578071,-7.47696 23.387281,-1.54297 5.56321,4.11304 12.15017,10.34344 19.62332,6.91964 7.98295,-3.29445 14.1078,-12.26054 23.7235,-10.23856 7.97995,0.47419 12.27134,8.60414 19.59542,10.3418 13.72377,-8.28068 26.55426,-18.8187 35.7952,-32.02009 1.02303,-4.89559 -5.69668,-4.48689 -8.78348,-3.84487 -8.70712,2.55169 -14.49638,12.76955 -24.55071,10.98241 -10.04446,-0.82268 -15.60253,-13.32387 -26.35052,-11.10796 -8.71773,1.95652 -14.22591,12.06872 -23.87566,11.09971 -10.73499,0.52621 -15.46541,-12.19392 -26.15643,-11.42198 z"
       id="path44463"
       transform="matrix(0.26458333,0,0,0.26458333,66.023819,115.9494)" /><path
       style="fill:#2b50c5;fill-opacity:1;stroke:#000000;stroke-width:5.39933;stroke-dasharray:none;stroke-opacity:1"
       d="m 106.60575,216.50809 c -8.251283,0.44691 -13.025635,8.32366 -20.277625,11.23605 -3.186056,0.99509 -4.630992,5.80209 -0.735212,6.94755 18.273627,6.49163 38.226737,6.37774 57.200057,3.53097 10.50244,-2.06003 20.9477,-5.29212 30.43073,-10.14971 2.8821,-3.48392 -3.01054,-5.82393 -5.21729,-8.01854 -5.91418,-4.87012 -14.94877,-4.10982 -20.32096,1.21914 -5.49363,5.01815 -13.3318,8.88935 -20.77836,5.83722 -7.22318,-2.7071 -11.9587,-10.76083 -20.30134,-10.60268 z"
       id="path44465"
       transform="matrix(0.26458333,0,0,0.26458333,66.023819,115.9494)" /><path
       style="display:inline;fill:#2b50c5;fill-opacity:1;stroke:#000000;stroke-width:0.337458;stroke-dasharray:none;stroke-opacity:1"
       d="m 56.623012,216.28453 c -1.228596,-0.0144 -2.3647,0.98533 -2.485338,2.21053 -0.137654,1.00204 0.423469,1.99938 1.280296,2.50647 3.550372,2.35173 7.251032,4.47328 11.035539,6.42383 1.032309,0.53161 2.40241,0.23206 3.102296,-0.69807 0.759646,-0.93748 0.66751,-2.40007 -0.164587,-3.26372 -0.68033,-0.66062 -1.422875,-1.25598 -2.120971,-1.89863 -2.53449,-2.21794 -5.417433,-4.20443 -8.741702,-4.98365 -0.626436,-0.13579 -1.261909,-0.28756 -1.905533,-0.29676 z"
       id="path44467"
       transform="matrix(0.26458333,0,0,0.26458333,66.023819,115.9494)" /></g><g
     inkscape:groupmode="layer"
     id="layer2"
     inkscape:label="Layer 2"
     style="display:inline"
     transform="translate(2.2000001,2.1999982)"><g
       id="g39867"
       transform="matrix(0.11581049,0,0,0.11581049,-8.6817494,4.7210891)"
       clip-path="url(#clipPath40558)"><path
         style="fill:#ffffff;fill-opacity:1;stroke:none;stroke-width:11.7382;stroke-dasharray:none;stroke-opacity:1"
         d="m 319.96539,167.83344 c -7.86396,7.25832 -2.36314,19.7367 -3.96819,29.30117 0.54505,11.27721 -2.98329,29.27677 11.45953,33.23185 21.01361,2.76848 41.10478,10.29277 59.91456,19.53341 11.14218,1.63943 8.68208,-12.98714 9.96423,-20.12483 -0.27038,-10.55439 6.16845,-21.38931 2.78726,-31.59103 -11.69876,-11.72778 -29.00979,-15.66719 -44.00273,-21.75274 -11.78753,-3.23753 -23.92923,-8.99421 -36.15466,-8.59783 z"
         id="path33260"
         transform="scale(0.75)" /><path
         style="fill:#ffffff;fill-opacity:1;stroke:none;stroke-width:11.7382;stroke-dasharray:none;stroke-opacity:1"
         d="m 295.04984,239.22263 c -17.82329,0.67587 -36.31886,1.75535 -53.18833,7.25857 -7.25726,6.93403 2.13011,17.08579 4.08545,25.02753 14.1372,31.50898 33.72831,62.17899 63.43349,81.02126 13.81326,11.73779 31.37135,23.59892 50.41038,18.19154 23.37384,-5.88572 36.91708,-33.61349 62.51787,-32.65257 7.28337,0.0324 22.18136,0.43926 18.58278,-10.89733 -20.29539,-40.33928 -56.95036,-73.95055 -101.93387,-83.45419 -14.37157,-3.34304 -29.16723,-4.68277 -43.90777,-4.49481 z"
         id="path33256"
         transform="scale(0.75)" /><path
         style="fill:#ffffff;fill-opacity:1;stroke:none;stroke-width:11.7382;stroke-dasharray:none;stroke-opacity:1"
         d="m 630.73188,238.61908 c -45.69646,-0.24751 -91.34834,20.23009 -119.26404,56.8402 -13.54431,17.87631 -25.99279,37.50805 -32.48878,59.08155 -1.28452,14.28592 16.75443,18.55037 27.88479,16.9086 26.71807,-0.28647 41.17596,-28.40661 66.53952,-33.04987 17.66007,-4.89595 35.48544,3.01708 49.79476,12.67715 9.41848,1.76391 14.72271,-9.93387 21.67935,-14.87603 22.47842,-23.13205 39.5156,-51.92275 48.45718,-82.89917 -0.78106,-11.66319 -15.90157,-10.91459 -24.34232,-12.64734 -12.69497,-1.38279 -25.48622,-2.20214 -38.26046,-2.03509 z"
         id="path33258"
         transform="scale(0.75)" /><path
         style="fill:#ffffff;fill-opacity:1;stroke:none;stroke-width:11.7382;stroke-dasharray:none;stroke-opacity:1"
         d="m 608.68549,167.3785 c -25.49308,5.99272 -51.2528,13.91593 -73.5911,27.81807 -7.97198,8.79625 0.0236,21.11266 -0.15771,31.39692 2.25751,7.83692 -1.59923,20.86631 8.51648,24.16642 13.5053,-3.71902 25.96247,-11.40671 39.89883,-14.40483 9.60741,-3.80616 20.49057,-3.92382 29.83437,-7.71436 7.27161,-9.00838 2.63366,-22.21339 4.0884,-32.84363 -1.86776,-8.55882 5.50462,-28.84272 -8.58927,-28.41859 z"
         id="path33262"
         transform="scale(0.75)" /><path
         style="fill:#e0dd57;fill-opacity:1;stroke:none;stroke-width:11.7382;stroke-dasharray:none;stroke-opacity:1"
         d="m 463.35945,120.60157 c -33.05255,33.19097 -57.10032,78.60644 -56.74315,126.26102 -0.46365,11.71713 3.42185,23.21659 12.5854,30.90836 17.8497,18.41385 29.64673,41.34996 41.88608,63.54932 7.26742,7.10692 13.98137,-2.44857 16.35661,-8.96536 11.45803,-24.31744 27.60507,-46.1102 46.37962,-65.26265 3.94918,-12.05613 1.3191,-25.60437 1.04939,-38.2271 -4.08219,-40.90972 -26.18954,-78.26306 -53.86056,-107.60374 -2.42796,-2.44991 -4.73309,-1.23181 -7.65339,-0.65985 z"
         id="path33264"
         transform="scale(0.75)" /><g
         id="g33212"><path
           d="m 613.53,274.23 c -11.531,0 -17.293,-4.9414 -23.883,-11.531 -22.234,-20.59 -46.117,-21.41 -70,0 -14.824,13.176 -28.824,13.176 -38.707,6.5898 40.352,-31.293 52.707,-84 53.531,-86.469 0.82422,-4.1172 -1.6484,-8.2344 -5.7656,-9.8828 -1.6484,-0.82422 -25.531,-7.4102 -54.352,-6.5898 2.4688,-26.352 -1.6484,-46.941 -1.6484,-48.59 -0.82422,-4.1172 -4.9414,-7.4102 -9.0586,-6.5898 -1.6484,0 -34.59,4.1172 -66.707,23.059 -11.531,-26.352 -29.648,-46.941 -39.531,-57.648 l -0.82422,-0.82422 c -1.6445,-0.81641 -4.1172,-1.6406 -6.5859,-1.6406 -2.4687,0 -4.9414,0.82422 -6.5898,2.4688 l -0.82422,0.82422 c -10.707,10.707 -28.824,31.293 -39.531,57.648 -32.117,-18.117 -65.059,-22.234 -66.707,-22.234 -4.1172,-0.82422 -8.2344,2.4688 -9.0586,6.5898 0,0.82422 -4.1172,21.41 -1.6484,48.59 -29.648,-0.82422 -52.707,6.5898 -54.352,6.5898 -4.1172,1.6484 -6.5898,5.7656 -5.7656,9.8828 0,1.6484 8.2344,34.59 32.117,64.234 -14,1.6484 -22.234,9.0586 -28.824,14.824 -16.469,14.824 -30.469,15.648 -47.766,0 -7.4102,-6.5898 -17.293,-15.648 -34.59,-15.648 -4.9414,0 -8.2344,3.293 -8.2344,8.2344 0,4.9414 3.293,8.2344 8.2344,8.2344 11.531,0 16.469,4.9414 23.883,11.531 22.234,20.59 46.117,21.41 70,0 6.5898,-6.5898 12.352,-11.531 23.883,-11.531 11.531,0 16.469,4.9414 23.883,11.531 23.059,21.41 46.941,21.41 70,0 44.469,-40.352 60.117,51.883 116.94,0 18.117,-16.469 32.117,-14 46.117,-0.82422 0.82422,0.82422 32.941,36.234 70.824,0.82422 16.469,-14.824 30.469,-15.648 47.766,0 7.4102,6.5898 17.293,15.648 34.59,15.648 4.9414,0 8.2344,-3.293 8.2344,-8.2344 0.008,-4.9492 -4.1133,-9.0664 -9.0508,-9.0664 z M 457.88,130.11 c 0.82422,8.2344 1.6484,22.234 0,37.883 -18.117,2.4688 -35.41,7.4102 -51.059,16.469 0,-12.352 -1.6484,-23.059 -4.1172,-33.766 20.586,-12.352 42.824,-18.113 55.176,-20.586 z M 350,93.876 c 17.293,18.941 46.941,58.469 38.707,104.59 C 368.941,216.583 356.59,239.642 350,256.114 343.4102,239.645 331.059,216.583 311.293,198.466 302.2344,153.169 331.883,113.642 350,93.876 Z M 242.12,130.11 c 11.531,2.4688 33.766,8.2344 55.176,20.59 -3.293,10.707 -4.9414,22.234 -4.1172,33.766 -15.648,-9.8828 -32.117,-14.824 -50.234,-16.469 -2.4727,-15.652 -1.6484,-29.652 -0.82422,-37.887 z m 43.648,133.41 c -30.469,27.176 -44.469,-2.4688 -62.59,-10.707 -23.059,-21.41 -34.59,-50.234 -39.531,-64.234 74.117,-15.648 117.77,9.8828 144.12,60.941 -18.113,-4.1211 -29.645,2.4688 -41.996,14 z m 116.94,0 c -15.648,14 -29.648,13.176 -40.352,5.7656 26.352,-70.824 78.234,-97.176 154,-81.531 -4.9414,15.648 -18.941,50.234 -47.766,71.648 -18.941,-15.648 -42.824,-16.473 -65.883,4.1172 z"
           id="path32299" /><path
           d="m 613.53,339.29 c -11.531,0 -17.293,-4.9414 -23.883,-11.531 -22.234,-20.59 -46.117,-21.41 -70,0 -16.469,14.824 -30.469,15.648 -47.766,0 -22.234,-20.59 -46.117,-21.41 -70,0 -16.469,14.824 -30.469,15.648 -47.766,0 -58.469,-53.531 -71.648,41.176 -116.94,0 -23.059,-21.41 -46.941,-21.41 -70,0 -16.469,14.824 -30.469,15.648 -47.766,0 -5.7617,-6.5859 -14.82,-14.82 -32.941,-14.82 -4.9414,0 -8.2344,3.293 -8.2344,8.2344 0,4.9414 3.293,8.2344 8.2344,8.2344 11.531,0 16.469,4.9414 23.883,11.531 22.234,20.59 46.117,21.41 70,0 16.469,-14.824 30.469,-15.648 47.766,0 23.059,21.41 46.941,21.41 70,0 16.469,-15.648 30.469,-15.648 47.766,0 22.234,20.59 46.117,21.41 70,0 16.469,-14.824 30.469,-15.648 47.766,0 22.234,20.59 46.117,21.41 70,0 16.469,-14.824 30.469,-15.648 47.766,0 7.4102,6.5898 17.293,15.648 34.59,15.648 4.9414,0 8.2344,-3.293 8.2344,-8.2344 -0.004,-4.9453 -5.7695,-9.0625 -10.707,-9.0625 z"
           id="path32301" /><path
           d="m 613.53,404.35 c -11.531,0 -17.293,-4.9414 -23.883,-11.531 -22.234,-20.59 -46.117,-21.41 -70,0 -16.469,14.824 -30.469,15.648 -47.766,0 -22.234,-20.59 -46.117,-21.41 -70,0 -16.469,14.824 -30.469,15.648 -47.766,0 -58.469,-53.531 -71.648,41.176 -116.94,0 -23.059,-21.41 -46.941,-21.41 -70,0 -16.469,14.824 -30.469,15.648 -47.766,0 -7.4102,-6.5898 -17.293,-15.648 -34.59,-15.648 -4.9414,0 -8.2344,3.293 -8.2344,8.2344 0,4.9414 3.293,8.2344 8.2344,8.2344 11.531,0 16.469,4.9414 23.883,11.531 22.234,20.59 46.117,21.41 70,0 16.469,-14.824 30.469,-15.648 47.766,0 23.059,21.41 46.941,21.41 70,0 16.469,-15.648 30.469,-15.648 47.766,0 22.234,20.59 46.117,21.41 70,0 16.469,-14.824 30.469,-15.648 47.766,0 22.234,20.59 46.117,21.41 70,0 16.469,-14.824 30.469,-15.648 47.766,0 7.4102,6.5898 17.293,15.648 34.59,15.648 4.9414,0 8.2344,-3.293 8.2344,-8.2344 0,-4.9375 -4.1211,-8.2344 -9.0586,-8.2344 z"
           id="path32303" /><path
           d="m 613.53,469.41 c -11.531,0 -17.293,-4.9414 -23.883,-11.531 -22.234,-20.59 -46.117,-21.41 -70,0 -16.469,14.824 -30.469,15.648 -47.766,0 -22.234,-20.59 -46.117,-21.41 -70,0 -16.469,14.824 -30.469,15.648 -47.766,0 -23.059,-21.41 -46.941,-21.41 -70,0 -16.469,15.648 -30.469,15.648 -47.766,0 -23.059,-21.41 -46.941,-21.41 -70,0 -16.469,14.824 -30.469,15.648 -47.766,0 -7.4102,-6.5898 -17.293,-15.648 -34.59,-15.648 -4.9414,0 -8.2344,3.293 -8.2344,8.2344 0,4.9414 3.293,8.2344 8.2344,8.2344 11.531,0 16.469,4.9414 23.883,11.531 22.234,20.59 46.117,21.41 70,0 16.469,-14.824 30.469,-15.648 47.766,0 23.059,21.41 46.941,21.41 70,0 16.469,-15.648 30.469,-15.648 47.766,0 22.234,20.59 46.117,21.41 70,0 16.469,-14.824 30.469,-15.648 47.766,0 22.234,20.59 46.117,21.41 70,0 16.469,-14.824 30.469,-15.648 47.766,0 7.4102,6.5898 17.293,15.648 34.59,15.648 4.9414,0 8.2344,-3.293 8.2344,-8.2344 0,-4.9375 -3.2969,-8.2344 -8.2344,-8.2344 z"
           id="path32305" /></g></g></g></svg>
