<?xml version="1.0" encoding="UTF-8" standalone="no"?>
<!-- Created with Inkscape (http://www.inkscape.org/) -->

<svg
   width="70.182007mm"
   height="70.182007mm"
   viewBox="0 0 70.182007 70.182007"
   version="1.1"
   id="svg8462"
   inkscape:version="1.2.1 (2ed6d7ae0b, 2022-08-22, custom)"
   sodipodi:docname="icon-noun-lizard-4892083.svg"
   xml:space="preserve"
   inkscape:export-filename="../f21d9747/icon-lizard.png"
   inkscape:export-xdpi="96"
   inkscape:export-ydpi="96"
   xmlns:inkscape="http://www.inkscape.org/namespaces/inkscape"
   xmlns:sodipodi="http://sodipodi.sourceforge.net/DTD/sodipodi-0.dtd"
   xmlns:xlink="http://www.w3.org/1999/xlink"
   xmlns="http://www.w3.org/2000/svg"
   xmlns:svg="http://www.w3.org/2000/svg"
   xmlns:rdf="http://www.w3.org/1999/02/22-rdf-syntax-ns#"
   xmlns:cc="http://creativecommons.org/ns#"
   xmlns:dc="http://purl.org/dc/elements/1.1/"><defs
     id="defs8456"><linearGradient
       inkscape:collect="always"
       id="linearGradient18220"><stop
         style="stop-color:#8c7b0e;stop-opacity:1;"
         offset="0"
         id="stop18216" /><stop
         style="stop-color:#9aca12;stop-opacity:1;"
         offset="1"
         id="stop18218" /></linearGradient><symbol
       id="v"
       overflow="visible"><path
         d="M 4.6406,-0.28125 C 4.39841,-0.15625 4.14841,-0.0625 3.8906,0 3.6406,0.0625 3.37498,0.09375 3.09372,0.09375 c -0.84375,0 -1.5156,-0.23438 -2.0156,-0.70312 -0.49219,-0.46875 -0.73438,-1.1094 -0.73438,-1.9219 0,-0.80078 0.24219,-1.4375 0.73438,-1.9062 0.5,-0.47656 1.1719,-0.71875 2.0156,-0.71875 0.28125,0 0.54688,0.039062 0.79688,0.10938 0.25781,0.0625 0.50781,0.15625 0.75,0.28125 v 1.0469 C 4.39841,-3.88275 4.16013,-4.00385 3.92185,-4.07807 c -0.23047,-0.082031 -0.47656,-0.125 -0.73438,-0.125 -0.46094,0 -0.82422,0.15234 -1.0938,0.45312 -0.27344,0.29297 -0.40625,0.69922 -0.40625,1.2188 0,0.53125 0.13281,0.94922 0.40625,1.25 0.26953,0.29297 0.63281,0.4375 1.0938,0.4375 0.25781,0 0.50391,-0.035156 0.73438,-0.10938 0.23828,-0.082031 0.47656,-0.20703 0.71875,-0.375 z"
         id="path3270" /></symbol><symbol
       id="d"
       overflow="visible"><path
         d="M 3.4062,-2.7656 C 3.28901,-2.804663 3.17964,-2.835913 3.07808,-2.85935 2.97261,-2.8906 2.86714,-2.906225 2.76558,-2.906225 c -0.3125,0 -0.55469,0.10156 -0.71875,0.29688 -0.16797,0.19922 -0.25,0.48438 -0.25,0.85938 v 1.75 h -1.2188 v -3.7969 h 1.2188 v 0.625 c 0.15625,-0.25 0.33203,-0.42969 0.53125,-0.54688 0.20703,-0.11328 0.45312,-0.17188 0.73438,-0.17188 0.039062,0 0.082031,0.00781 0.125,0.015625 0.050781,0 0.11719,0.00781 0.20312,0.015625 z"
         id="path3273" /></symbol><symbol
       id="b"
       overflow="visible"><path
         d="m 4.375,-1.9062 v 0.34375 H 1.5312 c 0.03125,0.28125 0.13281,0.49609 0.3125,0.64062 0.17578,0.14844 0.42188,0.21875 0.73438,0.21875 0.25781,0 0.51953,-0.035156 0.78125,-0.10938 0.26953,-0.082031 0.54688,-0.20312 0.82812,-0.35938 v 0.9375 c -0.28125,0.11719 -0.57031,0.19922 -0.85938,0.25 -0.28125,0.050781 -0.57031,0.078125 -0.85938,0.078125 -0.6875,0 -1.2266,-0.17188 -1.6094,-0.51562 -0.375,-0.35156 -0.5625,-0.84375 -0.5625,-1.4688 0,-0.62505 0.1875,-1.1133 0.5625,-1.4688 0.375,-0.35156 0.89062,-0.53125 1.5469,-0.53125 0.59375,0 1.0664,0.18359 1.4219,0.54688 0.36328,0.35547 0.54688,0.83594 0.54688,1.4375 z m -1.25,-0.40625 c 0,-0.22656 -0.070312,-0.41016 -0.20312,-0.54688 -0.13672,-0.14453 -0.3125,-0.21875 -0.53125,-0.21875 -0.23047,0 -0.41797,0.070313 -0.5625,0.20312 -0.14844,0.125 -0.24219,0.3125 -0.28125,0.5625 z"
         id="path3276" /></symbol><symbol
       id="l"
       overflow="visible"><path
         d="m 2.2812,-1.7031 c -0.25,0 -0.44531,0.042969 -0.57812,0.125 -0.125,0.085937 -0.1875,0.21094 -0.1875,0.375 0,0.15625 0.050781,0.28125 0.15625,0.375 0.10156,0.085937 0.25,0.125 0.4375,0.125 0.22656,0 0.41406,-0.082031 0.5625,-0.25 0.15625,-0.16406 0.23438,-0.36719 0.23438,-0.60938 V -1.7031 Z M 4.1406,-2.17185 V 5e-5 H 2.9062 v -0.5625 c -0.15625,0.23047 -0.33984,0.39844 -0.54688,0.5 C 2.1601,0.03911 1.91401,0.0938 1.62494,0.0938 1.2265,0.0938 0.90619,-0.01948 0.65619,-0.24995 0.414,-0.47651 0.29681,-0.77339 0.29681,-1.14057 c 0,-0.44531 0.14844,-0.76953 0.45312,-0.96875 0.3125,-0.20703 0.79688,-0.3125 1.4531,-0.3125 H 2.90615 V -2.5312 c 0,-0.1875 -0.078125,-0.32031 -0.23438,-0.40625 -0.14844,-0.09375 -0.375,-0.14062 -0.6875,-0.14062 -0.26172,0 -0.50781,0.027344 -0.73438,0.078125 -0.21875,0.054688 -0.42969,0.13281 -0.625,0.23438 v -0.92188 c 0.25781,-0.0625 0.51953,-0.10938 0.78125,-0.14062 0.26953,-0.039063 0.53516,-0.0625 0.79688,-0.0625 0.67578,0 1.1641,0.13672 1.4688,0.40625 0.3125,0.27344 0.46875,0.71094 0.46875,1.3125 z"
         id="path3279" /></symbol><symbol
       id="a"
       overflow="visible"><path
         d="m 1.9062,-4.875 v 1.0781 h 1.25 v 0.875 h -1.25 v 1.6094 c 0,0.17969 0.03125,0.29688 0.09375,0.35938 0.070312,0.054687 0.21094,0.078125 0.42188,0.078125 h 0.625 V 5e-6 h -1.0312 c -0.48047,0 -0.82422,-0.097656 -1.0312,-0.29688 -0.19922,-0.19531 -0.29688,-0.53516 -0.29688,-1.0156 v -1.6094 H 0.0938 v -0.875 h 0.59375 v -1.0781 z"
         id="path3282" /></symbol><symbol
       id="f"
       overflow="visible"><path
         d="M 3.1562,-3.2344 V -5.2656 H 4.3906 V 0 H 3.1562 V -0.54688 C 2.98823,-0.32813 2.80464,-0.16407 2.60932,-0.0625 2.4101,0.03906 2.17573,0.09375 1.9062,0.09375 c -0.46094,0 -0.83984,-0.17969 -1.1406,-0.54688 -0.30469,-0.375 -0.45312,-0.85156 -0.45312,-1.4375 0,-0.58203 0.14844,-1.0625 0.45312,-1.4375 0.30078,-0.375 0.67969,-0.5625 1.1406,-0.5625 0.26953,0 0.50391,0.054687 0.70312,0.15625 0.19531,0.10547 0.37891,0.27344 0.54688,0.5 z m -0.79688,2.4531 c 0.25781,0 0.45703,-0.09375 0.59375,-0.28125 0.13281,-0.19531 0.20312,-0.47266 0.20312,-0.82812 0,-0.36328 -0.070312,-0.64062 -0.20312,-0.82812 -0.13672,-0.1875 -0.33594,-0.28125 -0.59375,-0.28125 -0.25,0 -0.44922,0.09375 -0.59375,0.28125 -0.13672,0.1875 -0.20312,0.46484 -0.20312,0.82812 0,0.35547 0.066406,0.63281 0.20312,0.82812 0.14453,0.1875 0.34375,0.28125 0.59375,0.28125 z"
         id="path3285" /></symbol><symbol
       id="k"
       overflow="visible"><path
         d="m 2.6094,-0.78125 c 0.25,0 0.44141,-0.09375 0.57812,-0.28125 0.14453,-0.19531 0.21875,-0.47266 0.21875,-0.82812 0,-0.36328 -0.074219,-0.64062 -0.21875,-0.82812 C 3.0508,-2.90624 2.8594,-2.99999 2.6094,-2.99999 c -0.26172,0 -0.46484,0.09375 -0.60938,0.28125 -0.13672,0.1875 -0.20312,0.46484 -0.20312,0.82812 0,0.35547 0.066406,0.63281 0.20312,0.82812 0.14453,0.1875 0.34766,0.28125 0.60938,0.28125 z m -0.8125,-2.4531 c 0.16406,-0.22656 0.34766,-0.39453 0.54688,-0.5 0.20703,-0.10156 0.44141,-0.15625 0.70312,-0.15625 0.46875,0 0.85156,0.1875 1.1562,0.5625 0.30078,0.375 0.45312,0.85547 0.45312,1.4375 0,0.58594 -0.15234,1.0625 -0.45312,1.4375 C 3.89841,-0.08591 3.5156,0.09378 3.0469,0.09378 2.78518,0.09378 2.55081,0.039092 2.34378,-0.06247 2.14456,-0.16403 1.96097,-0.32809 1.7969,-0.54685 V 3e-5 H 0.5781 v -5.2656 h 1.2188 z"
         id="path3288" /></symbol><symbol
       id="e"
       overflow="visible"><path
         d="m 0.078125,-3.7969 h 1.2188 l 1.0156,2.5781 0.875,-2.5781 h 1.2031 l -1.5938,4.1562 c -0.15625,0.42578 -0.34375,0.72266 -0.5625,0.89062 -0.21094,0.16406 -0.49219,0.25 -0.84375,0.25 H 0.687455 V 0.70304 h 0.39062 c 0.19531,0 0.34375,-0.039063 0.4375,-0.10938 0.09375,-0.0625 0.16406,-0.17969 0.21875,-0.34375 L 1.7812,0.14053 Z"
         id="path3291" /></symbol><symbol
       id="j"
       overflow="visible"><path
         d="M 3.7031,-0.92188 H 1.6719 L 1.34378,0 h -1.3125 l 1.875,-5.0625 h 1.5625 L 5.32818,0 h -1.2969 z m -1.7188,-0.9375 h 1.3906 l -0.6875,-2.0156 z"
         id="path3294" /></symbol><symbol
       id="i"
       overflow="visible"><path
         d="m 4.0938,-3.1562 c 0.15625,-0.23828 0.33594,-0.42188 0.54688,-0.54688 0.21875,-0.125 0.45312,-0.1875 0.70312,-0.1875 0.4375,0 0.76953,0.13672 1,0.40625 0.22656,0.27344 0.34375,0.66406 0.34375,1.1719 V 7e-5 h -1.2344 v -1.9844 c 0.00781,-0.019531 0.015625,-0.046875 0.015625,-0.078125 v -0.14062 c 0,-0.26953 -0.042969,-0.46094 -0.125,-0.57812 -0.074219,-0.125 -0.19922,-0.1875 -0.375,-0.1875 -0.23047,0 -0.40625,0.09375 -0.53125,0.28125 -0.125,0.1875 -0.19531,0.46484 -0.20312,0.82812 v 1.8594 h -1.2188 v -1.9844 c 0,-0.41406 -0.039063,-0.67969 -0.10938,-0.79688 -0.074219,-0.125 -0.19922,-0.1875 -0.375,-0.1875 -0.24219,0 -0.42188,0.10156 -0.54688,0.29688 -0.125,0.1875 -0.1875,0.46094 -0.1875,0.8125 v 1.8594 h -1.2188 v -3.7969 h 1.2188 v 0.5625 c 0.14453,-0.21875 0.3125,-0.37891 0.5,-0.48438 0.19531,-0.11328 0.41406,-0.17188 0.65625,-0.17188 0.25781,0 0.48828,0.070313 0.6875,0.20312 0.19531,0.125 0.34766,0.30469 0.45312,0.53125 z"
         id="path3297" /></symbol><symbol
       id="h"
       overflow="visible"><path
         d="M 4.3906,-2.3125 V 0 H 3.1718 v -1.7656 c 0,-0.33203 -0.00781,-0.55469 -0.015625,-0.67188 C 3.144456,-2.56248 3.117113,-2.65623 3.07805,-2.71873 3.035081,-2.800761 2.97258,-2.86326 2.89055,-2.90623 2.804613,-2.945292 2.71086,-2.96873 2.6093,-2.96873 c -0.25,0 -0.44922,0.10156 -0.59375,0.29688 -0.14844,0.1875 -0.21875,0.46094 -0.21875,0.8125 V 5e-5 H 0.578 v -5.2656 h 1.2188 v 2.0312 c 0.17578,-0.22656 0.36719,-0.39453 0.57812,-0.5 0.20703,-0.10156 0.4375,-0.15625 0.6875,-0.15625 0.4375,0 0.76562,0.13672 0.98438,0.40625 0.22656,0.27344 0.34375,0.66406 0.34375,1.1719 z"
         id="path3300" /></symbol><symbol
       id="u"
       overflow="visible"><path
         d="m 3.5469,-3.6719 v 0.92188 c -0.26172,-0.11328 -0.51172,-0.19531 -0.75,-0.25 -0.24219,-0.050781 -0.46875,-0.078125 -0.6875,-0.078125 -0.23047,0 -0.40234,0.03125 -0.51562,0.09375 -0.11719,0.054687 -0.17188,0.13672 -0.17188,0.25 0,0.10547 0.039063,0.18359 0.125,0.23438 0.09375,0.054688 0.25,0.089844 0.46875,0.10938 l 0.20312,0.03125 c 0.625,0.085937 1.0391,0.21484 1.25,0.39062 0.21875,0.17969 0.32812,0.46094 0.32812,0.84375 0,0.40625 -0.15234,0.71484 -0.45312,0.92188 -0.29297,0.19922 -0.73438,0.29688 -1.3281,0.29688 -0.25,0 -0.51172,-0.023438 -0.78125,-0.0625 C 0.9727,-5e-6 0.70317,-0.054693 0.42192,-0.140635 v -0.92188 c 0.23828,0.11719 0.48438,0.20312 0.73438,0.26562 0.25781,0.0625 0.51953,0.09375 0.78125,0.09375 0.23828,0 0.41406,-0.03125 0.53125,-0.09375 0.125,-0.070313 0.1875,-0.17188 0.1875,-0.29688 0,-0.11328 -0.042969,-0.19531 -0.125,-0.25 -0.085938,-0.050781 -0.25,-0.09375 -0.5,-0.125 L 1.81255,-1.4844 C 1.2813,-1.554713 0.9063,-1.67971 0.68755,-1.8594 0.4688,-2.0469 0.35943,-2.32815 0.35943,-2.70315 c 0,-0.39453 0.13281,-0.69141 0.40625,-0.89062 0.28125,-0.19531 0.70703,-0.29688 1.2812,-0.29688 0.21875,0 0.44531,0.023437 0.6875,0.0625 0.25,0.03125 0.51953,0.085937 0.8125,0.15625 z"
         id="path3303" /></symbol><symbol
       id="t"
       overflow="visible"><path
         d="m 4.1562,-4.8906 v 1.0625 C 3.87495,-3.9531 3.60151,-4.04685 3.3437,-4.10935 3.08198,-4.17185 2.83198,-4.2031 2.5937,-4.2031 c -0.3125,0 -0.54297,0.042969 -0.6875,0.125 -0.14844,0.085937 -0.21875,0.21875 -0.21875,0.40625 0,0.13672 0.046875,0.24219 0.14062,0.3125 0.10156,0.074219 0.28516,0.14062 0.54688,0.20312 l 0.5625,0.10938 c 0.5625,0.11719 0.95703,0.28906 1.1875,0.51562 0.23828,0.23047 0.35938,0.55469 0.35938,0.96875 0,0.5625 -0.16797,0.98047 -0.5,1.25 C 3.66011,-0.03904 3.15621,0.09377 2.46873,0.09377 2.15623,0.09377 1.83592,0.06252 1.51561,2e-5 1.19139,-0.050761 0.86717,-0.1406 0.54686,-0.2656 v -1.0938 c 0.32031,0.16797 0.63281,0.29688 0.9375,0.39062 0.30078,0.085938 0.58594,0.125 0.85938,0.125 0.28906,0 0.50781,-0.046875 0.65625,-0.14062 0.15625,-0.09375 0.23438,-0.22656 0.23438,-0.40625 0,-0.15625 -0.054687,-0.27344 -0.15625,-0.35938 C 2.97265,-1.84378 2.76953,-1.92191 2.46874,-1.98441 l -0.51562,-0.125 c -0.5,-0.10156 -0.87109,-0.27344 -1.1094,-0.51562 -0.23047,-0.23828 -0.34375,-0.55469 -0.34375,-0.95312 0,-0.50781 0.16016,-0.89844 0.48438,-1.1719 0.32031,-0.26953 0.78906,-0.40625 1.4062,-0.40625 0.28125,0 0.56641,0.023438 0.85938,0.0625 0.28906,0.042969 0.59375,0.10938 0.90625,0.20312 z"
         id="path3306" /></symbol><symbol
       id="g"
       overflow="visible"><path
         d="m 0.54688,-1.4844 v -2.3125 h 1.2188 v 0.375 c 0,0.21094 -0.00781,0.46875 -0.015625,0.78125 v 0.625 c 0,0.30469 0.00391,0.52344 0.015625,0.65625 0.019531,0.13672 0.050781,0.23438 0.09375,0.29688 0.050781,0.074219 0.11328,0.13672 0.1875,0.1875 0.082031,0.042969 0.17578,0.0625 0.28125,0.0625 0.25,0 0.44531,-0.097656 0.59375,-0.29688 0.14453,-0.19531 0.21875,-0.46875 0.21875,-0.8125 v -1.875 h 1.2188 V 0 H 3.14068 V -0.54688 C 2.96099,-0.32813 2.76959,-0.16407 2.56256,-0.0625 2.35162,0.03906 2.12897,0.09375 1.89068,0.09375 c -0.4375,0 -0.77344,-0.12891 -1,-0.39062 C 0.66021,-0.5664 0.54693,-0.96093 0.54693,-1.48437 Z"
         id="path3309" /></symbol><symbol
       id="s"
       overflow="visible"><path
         d="m 0.57812,-3.7969 h 1.2188 V 0 h -1.2188 z m 0,-1.4688 h 1.2188 v 0.98438 h -1.2188 z"
         id="path3312" /></symbol><symbol
       id="c"
       overflow="visible"><path
         d="m 2.3906,-3.0156 c -0.27344,0 -0.48047,0.10156 -0.625,0.29688 -0.13672,0.1875 -0.20312,0.46484 -0.20312,0.82812 0,0.36719 0.066406,0.64844 0.20312,0.84375 0.14453,0.1875 0.35156,0.28125 0.625,0.28125 0.25781,0 0.45703,-0.09375 0.59375,-0.28125 C 3.12888,-1.24216 3.2031,-1.52341 3.2031,-1.8906 3.2031,-2.25388 3.128881,-2.53122 2.98435,-2.71872 2.84763,-2.91403 2.64841,-3.0156 2.3906,-3.0156 Z m 0,-0.875 c 0.64453,0 1.1484,0.17969 1.5156,0.53125 0.375,0.35547 0.5625,0.84375 0.5625,1.4688 0,0.62505 -0.1875,1.1172 -0.5625,1.4688 -0.36719,0.34375 -0.87109,0.51562 -1.5156,0.51562 -0.65625,0 -1.1719,-0.17188 -1.5469,-0.51562 -0.36719,-0.35156 -0.54688,-0.84375 -0.54688,-1.4688 0,-0.62505 0.17969,-1.1133 0.54688,-1.4688 0.375,-0.35156 0.89062,-0.53125 1.5469,-0.53125 z"
         id="path3315" /></symbol><symbol
       id="r"
       overflow="visible"><path
         d="m 3.0781,-5.2656 v 0.79688 H 2.40622 c -0.16797,0 -0.28906,0.03125 -0.35938,0.09375 -0.0625,0.0625 -0.09375,0.16797 -0.09375,0.3125 v 0.26562 h 1.0312 v 0.875 H 1.95309 V 5e-5 h -1.2188 v -2.9219 H 0.12491 v -0.875 h 0.60938 v -0.26562 c 0,-0.40625 0.11328,-0.70703 0.34375,-0.90625 0.22656,-0.19531 0.58594,-0.29688 1.0781,-0.29688 z"
         id="path3318" /></symbol><symbol
       id="q"
       overflow="visible"><path
         d="m 0.64062,-5.0625 h 1.4531 l 1.8438,3.4688 v -3.4688 h 1.2344 V 0 H 3.71882 L 1.87502,-3.4688 V 0 h -1.2344 z"
         id="path3321" /></symbol><symbol
       id="p"
       overflow="visible"><path
         d="M 4.3906,-2.3125 V 0 H 3.1718 v -1.7656 c 0,-0.33203 -0.00781,-0.55469 -0.015625,-0.67188 C 3.144456,-2.56248 3.117113,-2.65623 3.07805,-2.71873 3.035081,-2.800761 2.97258,-2.86326 2.89055,-2.90623 2.804613,-2.945292 2.71086,-2.96873 2.6093,-2.96873 c -0.25,0 -0.44922,0.10156 -0.59375,0.29688 -0.14844,0.1875 -0.21875,0.46094 -0.21875,0.8125 V 5e-5 H 0.578 v -3.7969 h 1.2188 v 0.5625 c 0.17578,-0.22656 0.36719,-0.39453 0.57812,-0.5 0.20703,-0.10156 0.4375,-0.15625 0.6875,-0.15625 0.4375,0 0.76562,0.13672 0.98438,0.40625 0.22656,0.27344 0.34375,0.66406 0.34375,1.1719 z"
         id="path3324" /></symbol><symbol
       id="o"
       overflow="visible"><path
         d="m 0.64062,-5.0625 h 2.1562 c 0.64453,0 1.1406,0.14844 1.4844,0.4375 0.34375,0.28125 0.51562,0.6875 0.51562,1.2188 0,0.5313 -0.17188,0.94531 -0.51562,1.2344 -0.34375,0.28125 -0.83984,0.42188 -1.4844,0.42188 H 1.93744 v 1.75 h -1.2969 z m 1.2969,0.95312 v 1.4062 h 0.71875 c 0.25781,0 0.45703,-0.054687 0.59375,-0.17188 0.13281,-0.125 0.20312,-0.30078 0.20312,-0.53125 0,-0.22656 -0.070313,-0.39844 -0.20312,-0.51562 -0.13672,-0.125 -0.33594,-0.1875 -0.59375,-0.1875 z"
         id="path3327" /></symbol><symbol
       id="n"
       overflow="visible"><path
         d="m 0.57812,-3.7969 h 1.2188 v 3.7344 c 0,0.5 -0.125,0.88281 -0.375,1.1562 C 1.17973,1.36323 0.83208,1.49995 0.37502,1.49995 H -0.23436 V 0.70307 h 0.21875 c 0.22656,0 0.38281,-0.054687 0.46875,-0.15625 0.082031,-0.10547 0.125,-0.30859 0.125,-0.60938 z m 0,-1.4688 h 1.2188 v 0.98438 h -1.2188 z"
         id="path3330" /></symbol><symbol
       id="m"
       overflow="visible"><path
         d="m 3.6406,-3.6719 v 0.98438 C 3.48435,-2.8008 3.32029,-2.88283 3.15622,-2.93752 2.98825,-2.988301 2.81638,-3.015645 2.6406,-3.015645 c -0.34375,0 -0.60938,0.10156 -0.79688,0.29688 -0.1875,0.19922 -0.28125,0.47656 -0.28125,0.82812 0,0.35547 0.09375,0.63281 0.28125,0.82812 0.1875,0.19922 0.45312,0.29688 0.79688,0.29688 0.1875,0 0.36328,-0.023437 0.53125,-0.078125 0.17578,-0.0625 0.33203,-0.14844 0.46875,-0.26562 v 1 c -0.1875,0.074219 -0.38281,0.125 -0.57812,0.15625 -0.1875,0.03125 -0.38281,0.046875 -0.57812,0.046875 -0.6875,0 -1.2266,-0.17188 -1.6094,-0.51562 -0.38672,-0.35156 -0.57812,-0.84375 -0.57812,-1.4688 0,-0.62505 0.19141,-1.1133 0.57812,-1.4688 0.38281,-0.35156 0.92188,-0.53125 1.6094,-0.53125 0.19531,0 0.39062,0.023437 0.57812,0.0625 0.19531,0.03125 0.39062,0.085937 0.57812,0.15625 z"
         id="path3333" /></symbol><filter
       style="color-interpolation-filters:sRGB"
       inkscape:label="Drop Shadow"
       id="filter19073"
       x="-0.0384375"
       y="-0.0384375"
       width="1.095625"
       height="1.095625"><feFlood
         flood-opacity="0.498039"
         flood-color="rgb(0,0,0)"
         result="flood"
         id="feFlood19063" /><feComposite
         in="flood"
         in2="SourceGraphic"
         operator="in"
         result="composite1"
         id="feComposite19065" /><feGaussianBlur
         in="composite1"
         stdDeviation="0.40000000000000002"
         result="blur"
         id="feGaussianBlur19067" /><feOffset
         dx="1.2"
         dy="1.2"
         result="offset"
         id="feOffset19069" /><feComposite
         in="SourceGraphic"
         in2="offset"
         operator="over"
         result="composite2"
         id="feComposite19071" /></filter><linearGradient
       inkscape:collect="always"
       xlink:href="#linearGradient18220"
       id="linearGradient23939"
       x1="97.523758"
       y1="180.27065"
       x2="98.245415"
       y2="115.31488"
       gradientUnits="userSpaceOnUse" /></defs><sodipodi:namedview
     id="base"
     pagecolor="#ffffff"
     bordercolor="#666666"
     borderopacity="1.0"
     inkscape:pageopacity="0.0"
     inkscape:pageshadow="2"
     inkscape:zoom="1.979899"
     inkscape:cx="58.841386"
     inkscape:cy="159.09903"
     inkscape:document-units="mm"
     inkscape:current-layer="svg8462"
     showgrid="false"
     fit-margin-top="0"
     fit-margin-left="0"
     fit-margin-right="0"
     fit-margin-bottom="-2.7755576e-17"
     inkscape:window-width="1875"
     inkscape:window-height="1053"
     inkscape:window-x="45"
     inkscape:window-y="27"
     inkscape:window-maximized="1"
     inkscape:showpageshadow="2"
     inkscape:pagecheckerboard="0"
     inkscape:deskcolor="#d1d1d1" /><metadata
     id="metadata8459"><rdf:RDF><cc:Work
         rdf:about=""><dc:format>image/svg+xml</dc:format><dc:type
           rdf:resource="http://purl.org/dc/dcmitype/StillImage" /></cc:Work></rdf:RDF></metadata><g
     inkscape:label="Layer 1"
     inkscape:groupmode="layer"
     id="layer1"
     transform="translate(-63.532819,-113.4584)"
     style="display:inline;filter:url(#filter19073)"><circle
       style="opacity:1;fill:url(#linearGradient23939);fill-opacity:1;stroke:#000000;stroke-width:2;stroke-miterlimit:4;stroke-dasharray:none;stroke-dashoffset:0;stroke-opacity:1"
       id="circle3172"
       cx="98.023819"
       cy="147.9494"
       r="32" /></g><g
     inkscape:groupmode="layer"
     id="layer2"
     inkscape:label="Layer 2"
     style="display:inline"
     transform="translate(2.491,2.4909981)"><g
       id="g15080"
       transform="matrix(0.07649212,0,0,0.07649212,3.5126778,13.084859)"><path
         style="opacity:1;fill:#008000;fill-opacity:1;stroke:none;stroke-width:0.586908;stroke-dasharray:none;stroke-opacity:1"
         d="m 191.49184,100.05799 c -21.94922,0.28163 -42.77833,8.41826 -63.30922,15.33794 -32.991367,12.38633 -65.766103,26.27391 -95.419356,45.50271 -12.249673,7.34933 -21.512788,19.72607 -23.8070114,33.95369 -0.8524014,9.05887 -1.3724583,19.21995 3.3513914,27.32066 6.051963,6.56047 15.655501,1.99119 23.178969,1.73799 25.53833,-3.61902 51.439889,-2.8988 76.695537,-0.77503 22.38557,3.01447 44.69783,7.44941 66.01579,14.44873 1.85213,0.89336 5.40912,1.53413 6.28631,2.94666 -6.93175,-0.50058 -13.53304,-4.21736 -20.4202,-5.60921 -31.82209,-8.67164 -64.857973,-13.21936 -97.869855,-11.94885 -13.054941,0.41427 -26.309484,1.00839 -39.037309,4.0524 -6.490516,2.3717 -5.50165,11.66023 0.239602,14.31394 16.517849,11.13326 37.422,10.01858 56.445969,11.34467 17.399773,1.26575 34.918583,0.56093 52.064813,4.20366 25.79792,6.57927 46.58886,26.02402 73.04517,30.51738 15.13754,1.83178 30.17223,-2.46805 44.78429,-5.35616 -1.64375,2.13841 -5.93723,2.42313 -8.46334,3.45321 -18.99371,4.6214 -40.23117,6.49652 -58.02462,-3.23029 -20.05427,-9.10943 -38.84456,-22.7421 -61.26526,-25.69198 -6.63954,-1.81363 -12.35199,6.77726 -7.56717,11.95583 11.44537,12.61156 23.25986,24.95557 33.24558,38.81266 21.86141,28.35725 40.04494,59.75953 65.33689,85.33743 9.92637,10.24376 23.46382,16.28751 37.55378,17.88066 22.32643,3.19928 44.79248,-1.94219 65.74035,-9.4491 3.43711,-2.22412 5.83531,-0.0385 7.9768,2.72471 13.7021,13.63322 28.49129,26.5246 45.09969,36.38565 6.58708,2.17316 11.59229,-4.70323 17.02067,-7.52994 10.69076,-7.96317 22.85522,-16.04056 28.13805,-28.80074 3.13521,-10.26556 -5.41382,-19.32641 -12.46536,-25.61009 -4.3666,-4.34547 -10.89265,-6.49842 -15.03729,-10.59707 3.98013,0.28389 7.97741,3.66264 11.58884,5.84143 9.24409,6.54727 19.56795,16.2476 17.89734,28.64303 -3.9427,13.14867 -15.81167,21.69669 -26.22994,29.68818 -20.15051,14.05462 -41.89841,25.92052 -64.55031,35.4107 -25.37895,9.09664 -52.48711,10.26187 -78.94127,13.90848 -19.70002,2.77352 -40.40762,3.7012 -58.56587,12.58116 -6.8599,3.00986 -11.08589,12.31798 -5.62002,18.52365 8.04275,9.63425 21.94925,7.95014 33.15147,8.31524 12.72561,0.34932 25.39665,-1.76577 37.77216,-3.97361 0.30466,2.08249 -4.02448,3.04914 -5.44715,4.39776 -19.59381,11.07731 -39.54349,23.08672 -54.00441,40.67922 -5.61742,6.36436 -8.12063,16.99518 -1.27535,23.46884 6.95037,6.5277 17.49461,3.57934 25.6389,1.25412 27.81084,-9.85964 52.45729,-26.7888 76.10995,-44.09279 5.67235,-3.85279 10.74444,-9.11712 16.87979,-12.0089 -3.13762,13.20251 -8.22105,25.8819 -11.57973,39.02476 -0.51821,5.88533 5.57023,9.08324 10.72914,7.84096 6.32033,-1.02277 15.1999,1.07164 18.61449,-5.93476 9.72549,-18.80715 19.01553,-39.48674 36.58627,-52.47431 21.23867,-12.92674 44.6707,-21.72691 66.6403,-33.29999 26.38055,-13.78485 53.85253,-27.94456 73.49184,-50.93973 10.19486,-11.65916 15.30112,-28.74325 8.97142,-43.48469 -8.94902,-21.02357 -28.06177,-35.49464 -46.79159,-47.41838 -17.67247,-11.09571 -36.97745,-19.19787 -56.28872,-26.90062 0.64744,-2.08553 5.41313,1.52473 7.24798,1.48632 29.18074,11.26099 58.14762,25.5847 80.61762,47.79885 10.84096,11.18234 20.77136,25.71267 19.19217,42.03796 0.12765,13.76707 -9.33582,25.20878 -18.36721,34.66037 -4.23453,5.11388 -11.56018,8.36209 -12.9294,15.32239 -0.11229,6.42149 6.82748,8.52145 12.06653,7.50045 15.5186,-1.31746 31.17408,-3.05977 46.26629,-6.84259 7.27849,-2.94631 4.47269,-12.23906 5.70344,-18.41117 1.5198,-17.91172 2.63559,-36.00108 6.31415,-53.6101 2.06141,1.15673 -0.33024,5.62071 -0.0308,7.94601 -4.77204,33.92977 -6.92912,68.4849 -3.30544,102.62868 1.83103,10.8127 5.77559,23.4116 16.7888,28.03947 13.72185,6.09196 28.42985,10.19653 43.16916,12.67712 17.32162,-3.30442 34.40248,-8.75042 50.72938,-15.53757 5.33517,-1.7809 11.93973,-6.77856 8.57973,-13.08974 -4.21319,-6.07824 -13.04785,-6.87171 -16.90557,-13.53751 -9.00709,-13.34267 -4.72264,-30.46449 -0.45342,-44.69179 5.23368,-15.57163 12.04286,-30.87231 21.35488,-44.40972 1.21011,0.26863 -1.5677,4.08804 -1.91833,5.34402 -10.80654,19.89942 -21.22873,41.0945 -22.89409,64.01916 -0.62498,10.1589 3.75409,21.01728 13.34642,25.58432 6.51057,3.35472 15.30714,8.9152 21.93417,2.78877 6.74403,-6.94133 7.48536,-17.06432 6.80894,-26.22426 0.4678,-5.18704 -2.96333,-10.07763 -3.75933,-14.62025 2.65693,0.15377 2.70544,4.54672 3.78663,6.43437 4.89,14.97518 0.70181,32.74093 -11.85575,42.71834 -12.09613,10.78173 -28.08841,14.91566 -42.74919,20.80949 -5.90612,3.76314 -2.75765,11.22545 1.01149,15.25868 7.88806,9.9538 11.18192,22.4568 13.29638,34.73315 1.43643,6.12456 8.56923,6.49753 13.44347,4.5949 35.29936,-9.09979 71.35109,-20.22758 100.64183,-42.7401 13.91936,-10.49065 24.52001,-26.19115 25.65562,-43.93052 2.44847,-29.56063 -12.69775,-57.12146 -30.14588,-79.81923 -32.80697,-41.95407 -74.91053,-75.58601 -118.63015,-105.51879 -27.04245,-17.85961 -54.43153,-35.81328 -84.55364,-48.08867 -31.12095,-10.48068 -64.12661,-13.20999 -96.4363,-17.98524 -22.06399,-3.48831 -46.09012,-4.77184 -65.61703,-17.39299 -9.70619,-5.2671 -18.21656,-12.40549 -27.4245,-18.3719 -6.01861,-2.50916 -11.68017,4.3202 -9.38274,10.05174 5.00532,26.36672 9.02108,53.5185 5.61115,80.34077 -3.52051,22.08897 -9.41009,43.68358 -19.42898,63.728 -2.18254,2.63625 -0.48406,-2.88254 0.15771,-3.65014 8.83212,-20.72398 16.24277,-42.48529 18.30789,-65.02896 2.3417,-37.09904 -4.03061,-74.43013 -16.12873,-109.45722 -4.30813,-11.31474 -9.50753,-24.71617 -22.20713,-28.7143 -24.34035,-8.75161 -50.90628,-9.04566 -74.01874,-21.05614 -17.31562,-10.85405 -28.91582,-29.81367 -48.44656,-37.39758 -5.96792,-2.38034 -12.35972,-3.182719 -18.75415,-3.05872 z m -12.54876,50.19354 c 9.49117,-0.95278 18.78504,6.97878 20.14777,16.18979 0.17714,5.92088 0.80257,12.40707 -3.67136,17.083 -7.63126,10.32676 -25.28929,11.02639 -32.82089,0.13497 -8.50974,-10.02239 -4.2476,-27.12657 7.99633,-31.93528 2.55474,-1.55614 5.46374,-1.50075 8.34815,-1.47248 z M 77.612769,177.35382 c 0.392836,1.78478 -4.183265,2.66068 -5.521456,3.83363 -4.160672,1.74118 -8.597369,4.57311 -12.738321,5.25304 -0.380466,-1.97596 4.010298,-2.15155 5.167806,-3.40153 4.291241,-2.0495 8.631202,-4.04083 13.091971,-5.68514 z"
         id="path4245"
         transform="scale(0.75)" /><path
         style="opacity:1;fill:#008000;fill-opacity:1;stroke:none;stroke-width:0.830014;stroke-dasharray:none;stroke-opacity:1"
         d="m 790.68903,531.36949 c -7.40463,7.44816 -15.42019,14.39508 -22.94945,21.73345 -4.65037,5.6972 1.11996,12.48816 7.19087,13.39951 14.7722,4.34025 32.36084,10.25383 37.30975,26.66605 5.4852,16.91967 3.07834,35.1545 4.36301,52.64814 0.86041,11.0085 -0.43348,22.48705 2.37534,33.19194 4.9573,9.4882 18.84029,5.06572 22.28677,-3.45068 8.14195,-15.55184 9.57773,-33.59761 11.67524,-50.63848 1.98516,-2.09499 3.7046,4.01387 5.42372,4.68812 10.01008,12.24045 20.77266,24.87411 34.95496,32.2935 7.94898,3.46922 14.52756,-5.99397 11.33425,-13.07781 -5.88337,-18.28799 -18.46716,-33.4316 -28.68627,-49.27881 6.83741,0.4206 14.16837,4.53571 21.40747,5.60172 8.59286,1.44776 20.60974,4.81327 26.5331,-3.68015 3.99549,-8.80885 -6.17224,-15.1653 -11.31925,-20.68688 -19.61351,-16.33974 -43.17588,-27.16693 -66.40581,-37.34914 -16.56568,-7.06632 -34.58329,-10.31082 -52.28429,-12.53477 -1.0698,0.1581 -2.13961,0.31619 -3.20941,0.47429 z"
         id="path4248"
         transform="scale(0.75)" /><path
         style="opacity:1;fill:#008000;fill-opacity:1;stroke:none;stroke-width:0.830014;stroke-dasharray:none;stroke-opacity:1"
         d="m 565.30362,550.95619 c -8.22737,2.16164 -17.48168,1.83153 -25.57016,4.87684 -8.05368,5.72083 -0.6526,15.36207 1.9767,21.9939 3.8729,7.82319 4.27101,16.63763 5.73841,24.92569 4.84912,7.07236 14.6994,2.06091 21.91436,2.28953 11.95137,-1.58866 24.12215,-2.28146 35.87757,-4.953 7.93436,-4.92091 2.59213,-14.94971 1.02298,-21.90931 -4.43425,-11.5031 -10.53166,-23.64694 -21.20374,-30.36765 -6.64534,0.0468 -13.17922,2.22207 -19.75612,3.144 z"
         id="path4251"
         transform="scale(0.75)" /><path
         style="opacity:1;fill:#008000;fill-opacity:1;stroke:none;stroke-width:0.830014;stroke-dasharray:none;stroke-opacity:1"
         d="m 478.65717,564.36642 c -12.10216,0.94498 -24.71186,1.17602 -36.28,4.62169 -7.34975,6.15618 1.83473,14.80978 2.0542,22.4068 1.7766,6.87935 -1.2565,18.15735 8.28248,19.52666 16.03345,-0.22835 32.43981,0.52697 48.1772,-2.25473 7.88752,-3.85907 3.04251,-14.09321 0.59547,-20.32799 -4.74671,-8.94242 -9.48826,-20.08437 -19.63389,-23.78156 -1.0534,-0.19176 -2.12855,-0.1988 -3.19546,-0.19087 z"
         id="path4253"
         transform="scale(0.75)" /><path
         style="opacity:1;fill:#008000;fill-opacity:1;stroke:none;stroke-width:0.643067;stroke-dasharray:none;stroke-opacity:1"
         d="m 286.74671,430.58524 c -22.83102,1.33977 -45.6742,2.85661 -68.4808,4.449 -6.48885,-0.26996 -9.26244,8.78208 -2.78235,11.01148 19.58527,4.88373 39.96044,6.53583 60.03902,8.88255 7.74743,0.13344 15.8657,2.70431 23.43831,0.66203 6.50989,-3.75868 1.57594,-11.25484 -0.19739,-16.29526 -1.75359,-5.18449 -5.65954,-9.54754 -12.01679,-8.7098 z"
         id="path4255" /><path
         style="opacity:1;fill:#00ff00;fill-opacity:1;stroke:none;stroke-width:0.830014;stroke-dasharray:none;stroke-opacity:1"
         d="m 425.46875,569.66789 c -8.20768,1.28577 -17.03866,0.59427 -24.67371,4.04259 -5.61708,7.85909 3.61389,16.02403 3.678,24.47855 -0.73592,6.97256 4.4973,13.21704 11.75665,11.69748 7.63463,-0.46776 15.60644,1.85372 23.03318,0.01 8.14563,-5.12819 3.85669,-16.35039 1.84865,-23.73009 -2.56459,-7.05155 -6.52889,-17.01026 -15.64277,-16.49847 z"
         id="path4326"
         transform="scale(0.75)" /><path
         style="opacity:1;fill:#00ff00;fill-opacity:1;stroke:none;stroke-width:0.830014;stroke-dasharray:none;stroke-opacity:1"
         d="m 510.98499,559.56679 c -6.43845,1.18775 -17.19818,0.29929 -17.24265,9.52635 3.50018,8.84593 10.44625,16.34816 12.12561,26.07843 0.81222,5.91648 1.64104,15.00647 9.76659,14.02857 8.47173,-1.0458 17.49805,0.005 25.61086,-2.95167 6.86128,-5.41255 2.45341,-15.18563 0.84498,-22.12807 -3.65434,-9.68389 -8.34725,-20.16808 -17.38634,-25.82751 -4.58488,-0.39649 -9.15465,0.91851 -13.71905,1.2739 z"
         id="path4328"
         transform="scale(0.75)" /><path
         style="opacity:1;fill:#00ff00;fill-opacity:1;stroke:none;stroke-width:0.830014;stroke-dasharray:none;stroke-opacity:1"
         d="m 628.11275,537.88051 c -9.60347,2.95606 -20.42256,3.40066 -29.22074,8.31803 -6.72249,6.65277 2.13868,14.70161 4.72024,20.98278 4.82783,8.45232 6.07162,18.21291 9.09578,27.22677 5.14664,7.88866 15.0765,1.59472 22.25858,1.36771 7.39552,-2.42159 18.8659,-0.009 21.97824,-8.84596 -1.24569,-18.86812 -9.36715,-39.27667 -26.21783,-49.16084 -0.87142,0.0372 -1.74285,0.0743 -2.61427,0.11151 z"
         id="path4330"
         transform="scale(0.75)" /><path
         style="opacity:1;fill:#abff38;fill-opacity:1;stroke:none;stroke-width:0.830014;stroke-dasharray:none;stroke-opacity:1"
         d="m 291.39859,100.65717 c -10.70434,3.53309 -18.43654,12.82232 -26.82261,19.99418 -4.93665,4.24756 -11.9436,12.23813 -5.11489,18.07261 9.98795,5.84918 21.60973,9.35621 33.06128,10.74877 9.87948,-0.66211 9.66339,-12.41707 9.77512,-19.79687 -0.61774,-8.94096 0.73563,-19.32133 -4.82323,-26.92984 -1.59106,-1.55725 -3.87182,-2.30282 -6.07567,-2.08885 z"
         id="path7368"
         transform="scale(0.75)" /><path
         style="opacity:1;fill:#abff38;fill-opacity:1;stroke:none;stroke-width:0.830014;stroke-dasharray:none;stroke-opacity:1"
         d="m 388.0046,152.62531 c -12.30877,2.33732 -24.82773,6.49537 -35.04933,13.87346 -6.71502,6.74155 1.44231,15.53034 3.39062,22.67494 5.50752,12.80856 17.86131,20.78136 28.43605,28.92567 7.54595,4.08585 11.6846,-5.37819 11.61665,-11.61439 2.01239,-16.09022 3.15911,-32.88546 -0.51042,-48.78554 -1.26715,-3.12793 -4.50205,-5.23963 -7.88357,-5.07414 z"
         id="path7370"
         transform="scale(0.75)" /><path
         style="opacity:1;fill:#abff38;fill-opacity:1;stroke:none;stroke-width:0.830014;stroke-dasharray:none;stroke-opacity:1"
         d="m 499.32476,200.60447 c -10.50066,3.53142 -18.08628,12.87728 -25.06833,21.08579 -4.07667,6.77981 -12.33404,13.99852 -9.64696,22.61541 4.36414,6.99199 14.04987,4.19817 21.02566,6.34344 8.91538,0.41696 18.09452,4.40767 26.85966,2.42534 7.82839,-5.19398 2.85978,-16.034 2.51266,-23.49094 -2.47854,-9.39087 -3.41037,-20.51684 -10.45414,-27.74803 -1.53214,-1.04243 -3.3977,-1.45227 -5.22855,-1.23101 z"
         id="path7372"
         transform="scale(0.75)" /><path
         style="opacity:1;fill:#abff38;fill-opacity:1;stroke:none;stroke-width:0.830014;stroke-dasharray:none;stroke-opacity:1"
         d="m 610.68566,240.09099 c -11.64339,2.69417 -21.49863,10.89561 -29.63204,19.36796 -5.54548,5.37571 -1.8878,14.46956 5.18995,16.21109 10.40021,4.32125 19.35874,12.8078 30.64215,14.4954 9.79226,-1.08664 8.71015,-13.03679 7.83854,-20.23009 -1.64957,-9.43739 -1.9213,-20.26097 -8.29748,-27.91207 -1.56004,-1.36821 -3.67673,-2.06475 -5.74112,-1.93229 z"
         id="path7374"
         transform="scale(0.75)" /><path
         style="opacity:1;fill:#abff38;fill-opacity:1;stroke:none;stroke-width:0.830014;stroke-dasharray:none;stroke-opacity:1"
         d="m 712.6875,315.32169 c -10.48826,2.18008 -22.6691,4.27057 -29.97518,12.73254 -4.42308,8.33083 6.28236,13.42748 11.22118,18.13854 6.54387,4.52661 12.18364,11.32565 19.69181,13.97057 9.50211,1.47163 10.17395,-10.35284 11.21756,-16.97721 0.60126,-8.43759 2.76013,-17.22895 0.56859,-25.50108 -3.33931,-4.21261 -8.09002,-3.09409 -12.72396,-2.36336 z"
         id="path7376"
         transform="scale(0.75)" /><path
         style="opacity:1;fill:#abff38;fill-opacity:1;stroke:none;stroke-width:0.830014;stroke-dasharray:none;stroke-opacity:1"
         d="m 774.29136,401.69792 c -7.29674,-1.05368 -12.89388,7.51512 -8.06373,13.44669 7.88994,11.48094 15.55929,23.13973 23.18536,34.78768 5.79713,6.73957 14.10204,0.0713 16.46201,-6.26869 4.54152,-9.3883 9.31455,-19.90307 7.60263,-30.51133 -8.01234,-7.04517 -19.58552,-8.53874 -29.82291,-10.68444 -3.09891,-0.45007 -6.22568,-0.83702 -9.36336,-0.76991 z"
         id="path7378"
         transform="scale(0.75)" /><path
         style="opacity:1;fill:#00ff00;fill-opacity:1;stroke:none;stroke-width:0.830014;stroke-dasharray:none;stroke-opacity:1"
         d="m 346.83885,113.93444 c -13.35845,4.15115 -24.55285,13.89147 -34.2837,23.70864 -5.35905,4.15312 -5.83537,13.54885 1.45833,15.93872 8.54752,3.42373 17.62638,5.38569 26.08272,9.06526 9.62112,1.23862 10.08645,-10.51999 11.55512,-17.13217 0.92869,-9.1916 4.77107,-18.95747 1.88943,-28.02469 -1.5305,-2.22252 -3.95608,-3.69655 -6.7019,-3.55576 z"
         id="path7380"
         transform="scale(0.75)" /><path
         style="opacity:1;fill:#00ff00;fill-opacity:1;stroke:none;stroke-width:0.830014;stroke-dasharray:none;stroke-opacity:1"
         d="m 442.97733,184.12531 c -17.95922,6.94237 -33.76218,19.98259 -44.77272,35.68558 -4.14293,8.66747 7.28589,12.2397 13.24269,15.55124 12.78782,5.43773 26.7684,9.94073 40.71076,9.59785 9.22843,-2.15447 5.49916,-13.49809 5.97196,-20.50825 -0.79828,-12.81626 -3.12046,-25.9941 -8.5666,-37.64566 -1.57761,-1.96362 -4.10519,-2.90512 -6.58609,-2.68076 z"
         id="path7382"
         transform="scale(0.75)" /><path
         style="opacity:1;fill:#00ff00;fill-opacity:1;stroke:none;stroke-width:0.830014;stroke-dasharray:none;stroke-opacity:1"
         d="m 556.30913,216.80484 c -12.42255,6.64575 -23.26553,16.75509 -30.75368,28.66483 -3.73824,6.84739 3.48642,12.56979 9.90805,12.82705 10.42099,2.19166 20.52118,5.4122 30.86309,7.75046 9.84473,-1.58141 7.1962,-13.86614 6.28799,-20.80698 -1.83378,-9.55835 -3.21786,-19.88644 -8.82935,-27.99571 -2.61769,-1.02083 -4.79092,-1.7042 -7.4761,-0.43965 z"
         id="path7384"
         transform="scale(0.75)" /><path
         style="opacity:1;fill:#00ff00;fill-opacity:1;stroke:none;stroke-width:0.830014;stroke-dasharray:none;stroke-opacity:1"
         d="m 665.08793,275.70864 c -12.03582,1.67633 -24.82628,5.38968 -33.80545,13.91207 -5.30246,6.20281 1.33015,12.97649 6.74573,16.03037 10.38359,6.95629 20.20958,15.43315 31.5636,20.48324 9.24431,0.14707 9.07999,-11.82275 9.21518,-18.71551 -0.79465,-10.13638 -0.0647,-22.43649 -7.76777,-30.14246 -1.72265,-1.20911 -3.86921,-1.67827 -5.95129,-1.56771 z"
         id="path7386"
         transform="scale(0.75)" /><path
         style="opacity:1;fill:#00ff00;fill-opacity:1;stroke:none;stroke-width:0.830014;stroke-dasharray:none;stroke-opacity:1"
         d="m 751.64859,356.64614 c -8.55412,0.88996 -18.383,1.93093 -24.93107,7.93076 -4.38273,8.20706 5.62876,13.63004 10.00647,19.13031 6.02433,4.76301 10.45298,13.40618 18.71198,14.154 8.82506,-2.19857 10.06644,-13.20742 12.60171,-20.52175 1.32688,-6.90475 4.33251,-18.34446 -5.39013,-19.80742 -3.63429,-0.63553 -7.30513,-1.03811 -10.99896,-0.8859 z"
         id="path7388"
         transform="scale(0.75)" /><path
         style="opacity:1;fill:#008000;fill-opacity:1;stroke:none;stroke-width:1.66003;stroke-dasharray:none;stroke-opacity:1"
         d="m 322.60049,413.21446 c -11.20532,18.98421 -30.51509,35.35733 -53.84163,33.30414 -24.73474,2.15554 -50.65046,-4.91017 -74.66756,2.44218 -12.25991,4.99648 -6.20433,20.99273 4.79963,22.98591 34.08527,11.82293 71.22206,4.65078 105.92218,-0.5147 20.89832,-4.30474 41.88222,-12.14376 59.0239,-24.77023 3.45139,-12.40707 -13.31105,-17.20968 -19.88308,-25.07232 -6.33161,-3.83923 -13.34691,-15.28816 -21.35344,-8.37498 z"
         id="path15082"
         transform="scale(0.75)" /><path
         style="opacity:1;fill:#fff075;fill-opacity:1;stroke:none;stroke-width:0.830014;stroke-dasharray:none;stroke-opacity:1"
         d="m 178.50429,151.59375 c -14.85822,-0.25855 -23.85731,18.93586 -14.96293,30.53493 6.20832,8.93747 19.82992,10.63355 27.83272,3.04105 12.3402,-9.4492 5.85288,-31.63013 -9.43198,-33.38511 -1.13648,-0.17257 -2.28923,-0.2358 -3.43781,-0.19087 z"
         id="path12638"
         transform="scale(0.75)" /><g
         inkscape:groupmode="layer"
         id="layer3"
         inkscape:label="icon"><path
           d="m 134.19,107.38 c -11.418,0 -20.703,9.2891 -20.703,20.703 0,11.414 9.2891,20.703 20.703,20.703 11.4139,0 20.703,-9.2891 20.703,-20.703 0,-11.414 -9.2891,-20.703 -20.703,-20.703 z m 0,30.297 c -5.2891,0 -9.5938,-4.3047 -9.5938,-9.5938 0,-5.2891 4.3047,-9.5938 9.5938,-9.5938 5.2891,0 9.5938,4.3047 9.5938,9.5938 -0.004,5.293 -4.3047,9.5938 -9.5938,9.5938 z m -71.066,-6.7148 c 1.3125,2.7734 0.12891,6.0859 -2.6445,7.3984 l -13.242,6.2734 c -0.76953,0.36328 -1.5781,0.53516 -2.375,0.53516 -2.082,0 -4.0781,-1.1719 -5.0234,-3.1797 -1.3125,-2.7734 -0.12891,-6.0859 2.6445,-7.3984 l 13.242,-6.2734 c 2.7734,-1.3125 6.0859,-0.12891 7.3984,2.6445 z m 609.4,288.38 c -15.457,-9.2734 -33.816,-17.391 -45.16,-21.32 -5.418,-1.8789 -13.902,-3.5352 -26.195,-5.5273 0.64063,-1.4492 1.207,-2.9219 1.6836,-4.4297 4.2383,-13.367 2.9531,-27.211 -1.9844,-40.91 10.875,-10.629 16.262,-23.656 15.984,-38.789 -0.0391,-2.082 -1.2344,-3.9648 -3.0977,-4.8828 -12.438,-6.1289 -24.199,-8.875 -35.125,-8.2305 4.1875,-8.4883 5.668,-17.711 4.3789,-27.559 -0.30078,-2.2969 -1.9961,-4.1719 -4.2578,-4.6914 -11.031,-2.5508 -21.027,-2.2031 -29.895,0.98438 2.4336,-10.133 2.6367,-20.031 0.59766,-29.562 -0.52734,-2.4609 -2.6406,-4.2578 -5.1523,-4.3867 -10.656,-0.53906 -20.398,1.4023 -29.129,5.7539 1.4844,-10.809 -0.4375,-21.641 -5.7891,-32.367 -0.93359,-1.8711 -2.8359,-3.0586 -4.9258,-3.0781 -11.613,-0.10547 -21.473,2.4766 -29.48,7.6797 0.29297,-11.336 -2.2109,-22.277 -7.5195,-32.684 -1.1367,-2.2266 -3.6094,-3.4141 -6.0586,-2.9219 -10.031,2.043 -18.539,6.3789 -25.461,12.934 -0.88281,-9.7109 -3.7383,-19.23 -8.5586,-28.441 -1.3047,-2.4883 -4.2539,-3.6211 -6.8906,-2.6211 -10.832,4.1016 -19.996,10.934 -27.398,20.371 -1.6797,-11.43 -5.0195,-21.758 -10.008,-30.844 -1.4531,-2.6445 -4.7539,-3.6484 -7.4297,-2.2617 -10.387,5.3906 -19.086,12.812 -26.031,22.156 -1.0547,-10.312 -3.8047,-20.449 -8.2578,-30.312 -1.1602,-2.5742 -4.0664,-3.8672 -6.7539,-3.0078 -11.059,3.5352 -21.098,9.543 -30.02,17.938 1.3125,-12.27 0.43359,-24.57 -2.6523,-36.77 -0.67969,-2.6836 -3.2422,-4.4531 -5.9883,-4.1602 -9.6016,1.0469 -18.586,3.5703 -26.871,7.4688 2.4297,-10.16 3.5273,-21.172 3.2109,-32.949 -0.0469,-1.7109 -0.87891,-3.3086 -2.2578,-4.3242 -1.3789,-1.0156 -3.1484,-1.3398 -4.8008,-0.875 -11.766,3.3086 -22.48,9.6016 -32.027,18.75 0.0352,-8.4336 -1.6094,-16.867 -4.9492,-25.23 -1.1367,-2.8477 -4.3672,-4.2305 -7.2109,-3.1016 -13.078,5.2031 -24.121,13.938 -32.895,26.004 -1.5312,-1.4297 -3.0547,-2.918 -4.5977,-4.4414 -9.5312,-9.3984 -20.336,-20.051 -40.598,-20.051 -29.395,0 -122.52,38.547 -135.78,59.691 -12.844,20.496 -8.0312,45.734 11.188,58.715 11.719,7.9102 31.879,8.4258 51.379,8.9258 0.89062,0.0234 1.7695,0.0469 2.6484,0.0703 21.148,15.488 38.578,40.395 53.98,62.445 17.191,24.605 32.035,45.852 49.512,52.082 21.855,7.7891 44.43,3.3242 57.727,-0.83203 -2.7734,5.0156 -7.4102,10.953 -15.07,15.668 -6.8164,4.1953 -23.133,3.3711 -37.531,2.6367 -23.02,-1.168 -44.773,-2.2734 -48.125,13.34 -0.97266,4.5234 0.0742,8.7695 3.0273,12.277 2.9531,3.5117 7.7969,6.0117 13.426,7.7891 -10.715,3.4609 -17.461,8.5938 -17.461,17.102 0,4.9922 2.0469,9.2656 5.9141,12.367 6.5664,5.2617 18.156,6.3945 29.176,5.9883 -12.816,8.7422 -26.398,20.371 -28.531,31.477 -0.99219,5.1641 0.34766,10 3.8672,13.988 3.2656,3.6914 7.8086,5.543 13.688,5.543 5.9648,0 13.309,-1.9102 22.074,-5.7305 45.633,14.527 104.38,22.094 167.01,22.094 31.383,0 63.746,-1.8984 95.914,-5.7695 34.98,-4.207 86.168,-13.133 121.99,-31.336 18.918,3.8867 30.648,7.6914 34.844,11.32 9.168,7.9336 8.6602,26.832 8.2188,43.504 -0.48828,18.297 -0.94922,35.578 12.879,37.742 0.82813,0.12891 1.6484,0.19531 2.457,0.19531 3.5586,0 6.918,-1.2422 9.832,-3.6562 7.9688,-6.5977 11.547,-21.734 13.152,-33.191 10.066,11.543 25.188,25.125 36.023,18.172 2.6992,-1.7305 4.4141,-4.4219 4.957,-7.7812 1.4219,-8.7461 -6.2344,-22.617 -13.332,-33.23 7.3203,1.6094 15.406,2.2461 20.961,-0.60547 3.5352,-1.8164 5.8633,-4.8242 6.7305,-8.6953 2.0664,-9.2031 -6.5703,-19.25 -27.176,-31.613 z m -66.836,-107.37 c -0.48047,9.1719 -3.6562,17.117 -9.6133,24.074 -5.0312,-10.066 -11.785,-19.965 -19.508,-29.438 8.8516,-1.1094 18.598,0.67578 29.121,5.3633 z m -33.363,-38.918 c 0.29297,7.832 -1.7422,14.973 -6.1523,21.625 -5.8633,-6.3242 -12.035,-12.387 -18.262,-18.109 6.9922,-3.8633 15.051,-5.0273 24.414,-3.5156 z m -35.742,-6.5 c -0.28906,-0.24609 -0.57812,-0.49609 -0.86719,-0.73828 -6.9492,-5.8867 -14.02,-11.52 -21.059,-16.855 7.2461,-5.0352 15.395,-7.6406 24.672,-7.8828 1.0625,8.2266 0.13281,16.645 -2.7461,25.477 z m -35.691,-55.027 c 4.1016,9.668 4.7695,19.16 2.0156,28.777 -9.457,-6.7773 -18.699,-12.957 -27.359,-18.434 6.25,-6.4141 14.605,-9.8281 25.344,-10.344 z m -41.477,-27.164 c 4.0977,9.6172 5.3945,19.523 3.9297,30.012 -9.9805,-5.9414 -18.742,-10.691 -25.602,-14.062 5.4375,-7.957 12.582,-13.223 21.672,-15.949 z m -39.648,-17.652 c 4.0391,9.2148 5.7891,18.52 5.2969,28.172 -8.168,-2.8047 -17.684,-5.0117 -27.711,-6.8555 5.8789,-9.7695 13.273,-16.809 22.414,-21.316 z m -43.906,-12.473 c 4.1016,9.1641 6.4922,19.699 7.1719,31.41 -7.9375,-1.1992 -15.93,-2.2461 -23.586,-3.25 -2.582,-0.33984 -5.1406,-0.67188 -7.6602,-1.0078 5.8086,-11.703 13.742,-20.664 24.074,-27.152 z m -42.629,-11.512 c 4.6797,12.047 6.5117,24.184 5.5586,36.828 -8.8359,-1.3516 -16.441,-2.8008 -21.512,-4.5586 -4.6875,-1.6211 -9.8047,-4.3125 -14.914,-7.5117 8.8164,-11.656 19.164,-19.965 30.867,-24.758 z m -41.926,17.09 c -7.0547,-5.3203 -13.41,-10.863 -17.789,-15.027 -2.1133,-6.2422 -4.4023,-11.719 -6.7734,-16.043 7.7461,-4.8438 16.16,-8.0117 25.523,-9.6016 2.6875,13.504 2.3555,27.137 -0.96094,40.672 z m -30.125,-69.93 c -0.30078,10.051 -1.7695,19.383 -4.3672,27.906 -5.7539,-3.3047 -13.789,-5.3516 -22.539,-7.1992 8.0312,-9.6914 16.918,-16.539 26.906,-20.707 z m -41.324,-10.008 c 2.7695,9.3477 3.0039,18.559 0.73047,27.902 -8.3789,-1.7852 -16.41,-3.8203 -22.082,-6.8398 -0.54297,-0.28906 -1.0664,-0.60156 -1.5898,-0.91797 6.3438,-8.8164 14.027,-15.57 22.941,-20.145 z m -75.441,266.63 c -0.73438,-0.87109 -0.91406,-1.6289 -0.66406,-2.7891 1.3672,-6.3672 21.789,-5.3359 36.699,-4.5781 17.566,0.89062 34.16,1.7344 43.918,-4.2734 11.746,-7.2305 17.891,-16.852 21.035,-23.98 5.5469,5.4883 14.395,13.422 25.867,21.074 -6.3477,3.5156 -13.59,7.2422 -21.824,11.168 -12.746,6.0742 -34.672,8.5469 -55.879,10.938 -1.1992,0.13281 -2.3906,0.26953 -3.5781,0.40234 -15.715,0.59766 -40.121,-1.4727 -45.574,-7.9609 z m 6.2188,88.512 c -1.2422,-1.4023 -1.625,-2.7578 -1.2852,-4.5352 2.207,-11.492 29.496,-29.156 46.18,-37.594 2.5,-1.2656 3.668,-4.1914 2.7266,-6.832 -0.94531,-2.6367 -3.707,-4.1562 -6.4375,-3.5508 -15.191,3.3867 -39.836,5.5508 -47.074,-0.25391 -1.2461,-1 -1.7539,-2.0703 -1.7539,-3.6992 0,-2.6133 4.8203,-5.375 13.223,-7.5781 10.133,-2.6562 23.961,-4.2148 38.598,-5.8672 22.117,-2.4922 44.984,-5.0703 59.414,-11.949 44.098,-21.016 66.457,-39.012 66.457,-53.492 0,-16.684 -22.117,-27.574 -24.637,-28.762 -2.7734,-1.3047 -6.0781,-0.11719 -7.3867,2.6562 -1.3086,2.7695 -0.125,6.082 2.6445,7.3945 4.7383,2.2461 18.266,10.508 18.266,18.715 0,4.7773 -7.7188,13.789 -27.531,26.008 -21.32,-13.172 -34.625,-28.832 -34.762,-28.992 -1.6289,-1.9414 -4.3711,-2.5312 -6.6562,-1.4414 -0.32031,0.15234 -32.246,15.109 -61.008,4.8633 -14.133,-5.0352 -28.707,-25.898 -44.133,-47.98 -13,-18.609 -27.395,-39.191 -44.578,-55.141 1.9023,0.1875 3.7188,0.41406 5.4141,0.69531 10.137,1.6875 20.059,7.0664 29.652,12.27 10.094,5.4727 19.629,10.641 29.367,11.676 18.68,1.9844 35.914,-4.4883 36.641,-4.7656 2.8633,-1.0938 4.2969,-4.2969 3.207,-7.1641 -1.0898,-2.8672 -4.293,-4.3008 -7.1641,-3.2188 -0.15234,0.0586 -15.543,5.7969 -31.508,4.0977 -7.5547,-0.80469 -16.145,-5.4648 -25.246,-10.395 -10.398,-5.6367 -21.148,-11.469 -33.121,-13.461 -8.0391,-1.3398 -17.789,-1.5898 -28.113,-1.8516 -17.07,-0.4375 -36.418,-0.93359 -45.445,-7.0273 -1.3633,-0.92187 -2.5938,-1.9414 -3.7578,-3.0078 38.32,-6.0898 77.086,-2.5234 115.37,10.66 0.60156,0.20703 1.2109,0.30469 1.8086,0.30469 2.3047,0 4.4609,-1.4453 5.2539,-3.7461 1,-2.9023 -0.54297,-6.0625 -3.4414,-7.0625 -41.859,-14.414 -84.301,-17.812 -126.22,-10.172 -4.0977,-9.3008 -3.3086,-20.512 3,-30.57 10.215,-16.293 98.781,-54.48 126.36,-54.48 15.707,0 23.625,7.8086 32.797,16.848 5.1992,5.125 10.574,10.422 17.535,14.129 8.7188,4.6406 20.703,7.0625 32.297,9.4023 11.199,2.2617 23.887,4.8242 28.016,8.9531 8.0352,8.0352 20.348,49.453 20.348,85.316 0,23.695 -9.4727,47.629 -15.117,59.785 -1.293,2.7812 -0.0859,6.0859 2.6992,7.3789 0.75781,0.35156 1.5547,0.51953 2.3359,0.51953 2.0977,0 4.1016,-1.1914 5.043,-3.2148 6.0312,-12.988 16.152,-38.633 16.152,-64.465 0,-15.859 -2.3906,-33.969 -6.1055,-50.16 9.6328,7.7891 22.738,17.102 34.691,21.238 9.8125,3.3945 25.824,5.4922 44.363,7.918 22.484,2.9414 47.965,6.2812 65.238,12.59 15.586,5.6953 64.094,33.383 105.29,68.285 35.504,30.086 75.387,73.66 63.734,110.42 -6.875,21.68 -40.664,40.297 -93.555,52.637 -0.92188,-12.734 -5.5625,-23.699 -13.852,-32.75 11.25,-3.4141 20.641,-7.1133 27.027,-11.082 24.742,-15.387 20.445,-38.324 14.715,-48.297 -1.5195,-2.6523 -4.8945,-3.5586 -7.5508,-2.0547 -2.6602,1.5039 -3.5938,4.8906 -2.1016,7.5586 0.91016,1.6328 7.1484,13.766 -1.793,25.367 -6.418,-1.7734 -13.297,-4.9688 -15.332,-8.6562 -7.9883,-14.461 9.1055,-47.582 16.363,-59.125 1.6367,-2.5977 0.85547,-6.0273 -1.7422,-7.6602 -2.5977,-1.6328 -6.0234,-0.85547 -7.6602,1.7422 -3.0312,4.8125 -29.254,47.672 -16.688,70.418 3.1016,5.6133 9.4922,9.3242 15.246,11.664 -8.2031,4.8906 -22.555,9.668 -41.301,14.191 -25.355,-5.3438 -33.199,-9.7734 -35.297,-12.559 -11.41,-15.129 -5.0508,-73.602 -1.6406,-94.852 0.48828,-3.0312 -1.5742,-5.8789 -4.6016,-6.3672 -3.0273,-0.48047 -5.8789,1.5742 -6.3672,4.6016 -0.69922,4.3516 -4.1133,26.59 -4.8594,49.879 -6.8672,1.4844 -21.801,4.3242 -39.809,5.4219 15.242,-11.809 26.031,-25.234 26.031,-40.223 0,-44.105 -80.137,-71.359 -83.551,-72.496 -2.9219,-0.97656 -6.0547,0.60156 -7.0273,3.5078 -0.97266,2.9102 0.59766,6.0586 3.5078,7.0312 21.129,7.0625 75.957,31.965 75.957,61.957 0,27.105 -54.371,52.352 -86.855,67.434 -11.535,5.3555 -20.641,9.582 -25.164,12.848 -14.68,10.59 -25.453,33.715 -29.125,42.418 -4.2578,0.28906 -8.5078,0.56641 -12.738,0.82812 l 9.0195,-28.332 c 0.74609,-2.3398 -0.13672,-4.8945 -2.1641,-6.2773 -2.0312,-1.3789 -4.7266,-1.2695 -6.6328,0.28125 -33.328,27.086 -74.27,50.125 -82.102,41.254 z m 241.56,-11.75 c 7.5117,7.4883 11.391,16.602 11.785,27.68 -6.2031,0.46484 -12.395,0.85547 -18.57,1.1758 -1.0039,-9.7852 -4.7344,-18.605 -11.148,-26.363 1.0273,-0.13672 2.0742,-0.26953 3.0938,-0.41016 4.8242,-0.64844 9.793,-1.3438 14.84,-2.082 z m -134.38,3.1016 c 4.5039,-9.625 12.914,-25.199 23.051,-32.512 3.6641,-2.6406 12.785,-6.8789 23.344,-11.781 15.301,-7.1055 33.816,-15.703 50.309,-25.754 0.87109,0.008 1.7422,0.0234 2.6055,0.0234 23.371,0 43.781,-3.4766 54.02,-5.5859 0.19922,17.266 2.3672,33.59 8.7266,42.027 3.2188,4.2695 9.3594,7.793 19.805,11.141 -48.867,9.5625 -115.98,17.57 -181.86,22.441 z m 70.359,26.621 c -6.5234,-0.14453 -12.984,-0.37891 -19.387,-0.69531 -0.47266,-6.6328 -2.2695,-12.832 -5.3711,-18.551 6.0508,-0.57031 12.07,-1.1641 18.051,-1.7812 4.6445,6.1328 6.8594,13.066 6.707,21.027 z m 144.3,-44.941 c 9.6836,8.3125 14.684,18.742 15.227,31.695 -7.7422,1.6016 -15.828,3.0859 -24.277,4.4258 -1.1211,-11.527 -5.3984,-21.922 -12.758,-31.059 7.5977,-1.5938 14.93,-3.2812 21.809,-5.0625 z m -251.86,20.738 c -6.5508,0.36719 -13.047,0.69531 -19.473,0.99219 9.0898,-5.6211 17.676,-11.613 24.43,-16.562 z m 70.379,6.0938 c 3.7305,5.0859 5.8984,10.633 6.5664,16.777 -29.859,-1.9492 -58.102,-5.7617 -83.531,-11.371 25.344,-1.3086 51.328,-3.1406 76.965,-5.4062 z m 48.281,18.27 c 0.14062,-8.1953 -1.6641,-15.723 -5.4258,-22.504 9.043,-0.99219 17.961,-2.0312 26.711,-3.1211 8.0586,7.207 12.578,15.469 13.719,25.094 -11.781,0.44141 -23.465,0.61328 -35.004,0.53125 z m 100.39,-5.6719 c -8.1992,0.98438 -16.402,1.8359 -24.602,2.5625 -0.48828,-10.918 -3.8164,-20.527 -9.918,-28.723 10.941,-1.707 22.07,-3.6016 32.898,-5.6719 8.6602,8.6914 13.387,18.621 14.367,30.164 -4.1836,0.58203 -8.418,1.1445 -12.746,1.668 z m 249.2,1.043 c -0.14453,0.64453 -0.37109,0.93359 -0.96094,1.2383 -4.9727,2.5625 -19.84,-1.5508 -28.312,-5.1367 -2.3516,-0.99609 -5.0664,-0.26953 -6.6016,1.7656 -1.5352,2.0312 -1.4922,4.8477 0.10156,6.832 0.0664,0.082 6.7578,8.4258 12.656,17.895 9.6133,15.422 8.7422,20.242 8.5703,20.84 -3.4141,1.9219 -17.336,-9.3477 -29.742,-26.43 -1.3945,-1.9219 -3.8555,-2.7383 -6.125,-2.0469 -2.2695,0.69531 -3.8477,2.7539 -3.9258,5.1289 -0.39844,12.129 -3.5781,33.477 -10.398,39.125 -1.1289,0.93359 -2.1719,1.2461 -3.4844,1.0391 -4.1797,-0.65234 -3.7812,-15.574 -3.4922,-26.465 0.50781,-19.137 1.0859,-40.828 -12.055,-52.203 -4.6992,-4.0664 -13.566,-7.6211 -28.012,-11.156 7.1523,-4.8438 13.238,-10.223 17.871,-16.188 11.285,1.7734 23.031,3.7812 28.766,5.7656 10.797,3.7422 28.309,11.484 43.078,20.348 19.047,11.418 22.395,18.18 22.066,19.648 z"
           id="path3338"
           inkscape:label="icon-path" /></g></g></g></svg>
