<?xml version="1.0" encoding="UTF-8" standalone="no"?>
<!-- Created with Inkscape (http://www.inkscape.org/) -->

<svg
   width="69.599998mm"
   height="69.599998mm"
   viewBox="0 0 69.599998 69.599998"
   version="1.1"
   id="svg8462"
   inkscape:version="1.2.1 (2ed6d7ae0b, 2022-08-22, custom)"
   sodipodi:docname="icon-noun-forest-1338205.svg"
   xml:space="preserve"
   inkscape:export-filename="../4905c3d0/icon-forest.png"
   inkscape:export-xdpi="96"
   inkscape:export-ydpi="96"
   xmlns:inkscape="http://www.inkscape.org/namespaces/inkscape"
   xmlns:sodipodi="http://sodipodi.sourceforge.net/DTD/sodipodi-0.dtd"
   xmlns:xlink="http://www.w3.org/1999/xlink"
   xmlns="http://www.w3.org/2000/svg"
   xmlns:svg="http://www.w3.org/2000/svg"
   xmlns:rdf="http://www.w3.org/1999/02/22-rdf-syntax-ns#"
   xmlns:cc="http://creativecommons.org/ns#"
   xmlns:dc="http://purl.org/dc/elements/1.1/"><defs
     id="defs8456"><linearGradient
       inkscape:collect="always"
       id="linearGradient48908"><stop
         style="stop-color:#0d5212;stop-opacity:1;"
         offset="0"
         id="stop48904" /><stop
         style="stop-color:#167a4e;stop-opacity:1;"
         offset="0.48014012"
         id="stop49102" /><stop
         style="stop-color:#8fe1ed;stop-opacity:1;"
         offset="1"
         id="stop48906" /></linearGradient><symbol
       id="s"
       overflow="visible"><path
         d="m 18.766,-1.125 c -0.96875,0.5 -1.9805,0.875 -3.0312,1.125 -1.043,0.25781 -2.1367,0.39062 -3.2812,0.39062 -3.3984,0 -6.0898,-0.94531 -8.0781,-2.8438 -1.9922,-1.9062 -2.9844,-4.4844 -2.9844,-7.7344 0,-3.2578 0.99219,-5.8359 2.9844,-7.7344 1.9883,-1.9062 4.6797,-2.8594 8.0781,-2.8594 1.1445,0 2.2383,0.13281 3.2812,0.39062 1.0508,0.25 2.0625,0.625 3.0312,1.125 v 4.2188 c -0.98047,-0.65625 -1.9453,-1.1406 -2.8906,-1.4531 -0.94922,-0.3125 -1.9492,-0.46875 -3,-0.46875 -1.875,0 -3.3516,0.60547 -4.4219,1.8125 -1.0742,1.1992 -1.6094,2.8555 -1.6094,4.9688 0,2.1055 0.53516,3.7617 1.6094,4.9688 1.0703,1.1992 2.5469,1.7969 4.4219,1.7969 1.0508,0 2.0508,-0.14844 3,-0.45312 0.94531,-0.3125 1.9102,-0.80078 2.8906,-1.4688 z"
         id="path45753" /></symbol><symbol
       id="d"
       overflow="visible"><path
         d="m 13.734,-11.141 c -0.4375,-0.19531 -0.87109,-0.34375 -1.2969,-0.4375 -0.41797,-0.10156 -0.83984,-0.15625 -1.2656,-0.15625 -1.2617,0 -2.2305,0.40625 -2.9062,1.2188 -0.67969,0.80469 -1.0156,1.9531 -1.0156,3.4531 v 7.0625 H 2.3591 v -15.312 h 4.8906 v 2.5156 c 0.625,-1 1.3438,-1.7266 2.1562,-2.1875 0.82031,-0.46875 1.8008,-0.70312 2.9375,-0.70312 0.16406,0 0.34375,0.01172 0.53125,0.03125 0.19531,0.01172 0.47656,0.03906 0.84375,0.07813 z"
         id="path45756" /></symbol><symbol
       id="a"
       overflow="visible"><path
         d="m 17.641,-7.7031 v 1.4062 H 6.188 c 0.125,1.1484 0.53906,2.0078 1.25,2.5781 0.70703,0.57422 1.7031,0.85938 2.9844,0.85938 1.0312,0 2.082,-0.14844 3.1562,-0.45312 1.082,-0.3125 2.1914,-0.77344 3.3281,-1.3906 v 3.7656 c -1.1562,0.4375 -2.3125,0.76562 -3.4688,0.98438 -1.1562,0.22656 -2.3125,0.34375 -3.4688,0.34375 -2.7734,0 -4.9297,-0.70312 -6.4688,-2.1094 -1.5312,-1.4062 -2.2969,-3.3789 -2.2969,-5.9219 0,-2.5 0.75391,-4.4609 2.2656,-5.8906 1.5078,-1.4375 3.582,-2.1562 6.2188,-2.1562 2.4062,0 4.332,0.73047 5.7812,2.1875 1.4453,1.4492 2.1719,3.3828 2.1719,5.7969 z m -5.0312,-1.625 c 0,-0.92578 -0.27344,-1.6719 -0.8125,-2.2344 -0.54297,-0.57031 -1.25,-0.85938 -2.125,-0.85938 -0.94922,0 -1.7188,0.26562 -2.3125,0.79688 -0.5937,0.53126 -0.96484,1.2969 -1.1094,2.2969 z"
         id="path45759" /></symbol><symbol
       id="j"
       overflow="visible"><path
         d="m 9.2188,-6.8906 c -1.0234,0 -1.793,0.17188 -2.3125,0.51562 -0.51172,0.34375 -0.76562,0.85547 -0.76562,1.5312 0,0.625 0.20703,1.1172 0.625,1.4688 0.41406,0.34375 0.98828,0.51562 1.7188,0.51562 0.92578,0 1.7031,-0.32812 2.3281,-0.98438 0.63281,-0.66406 0.95312,-1.4922 0.95312,-2.4844 v -0.5625 z m 7.4688,-1.8438 V 0 h -4.9219 v -2.2656 c -0.65625,0.92969 -1.3984,1.6055 -2.2188,2.0312 -0.82422,0.41406 -1.8242,0.625 -3,0.625 -1.5859,0 -2.8711,-0.45703 -3.8594,-1.375 -0.99219,-0.92578 -1.4844,-2.1289 -1.4844,-3.6094 0,-1.7891 0.61328,-3.1016 1.8438,-3.9375 1.2383,-0.84375 3.1797,-1.2656 5.8281,-1.2656 h 2.8906 v -0.39062 c 0,-0.76953 -0.30859,-1.332 -0.92188,-1.6875 -0.61719,-0.36328 -1.5703,-0.54688 -2.8594,-0.54688 -1.0547,0 -2.0312,0.10547 -2.9375,0.3125 -0.89844,0.21094 -1.7305,0.52344 -2.5,0.9375 v -3.7344 c 1.0391,-0.25 2.0859,-0.44141 3.1406,-0.57812 1.0625,-0.13281 2.125,-0.20312 3.1875,-0.20312 2.7578,0 4.75,0.54688 5.9688,1.6406 1.2266,1.0859 1.8438,2.8555 1.8438,5.3125 z"
         id="path45762" /></symbol><symbol
       id="c"
       overflow="visible"><path
         d="m 7.7031,-19.656 v 4.3438 H 12.75 v 3.5 H 7.7031 v 6.5 c 0,0.71094 0.14062,1.1875 0.42188,1.4375 0.28126,0.25 0.83594,0.375 1.6719,0.375 h 2.5156 v 3.5 h -4.1875 c -1.9375,0 -3.3125,-0.39844 -4.125,-1.2031 -0.80469,-0.8125 -1.2031,-2.1797 -1.2031,-4.1094 v -6.5 h -2.4219 v -3.5 h 2.4219 v -4.3438 z"
         id="path45765" /></symbol><symbol
       id="i"
       overflow="visible"><path
         d="m 12.766,-13.078 v -8.2031 h 4.9219 V -10e-5 H 12.766 v -2.2188 c -0.66797,0.90625 -1.4062,1.5703 -2.2188,1.9844 -0.8126,0.4141 -1.7578,0.625 -2.8281,0.625 -1.8867,0 -3.4336,-0.75 -4.6406,-2.25 -1.2109,-1.5 -1.8125,-3.4258 -1.8125,-5.7812 0,-2.3633 0.60156,-4.2969 1.8125,-5.7969 1.207,-1.5 2.7539,-2.25 4.6406,-2.25 1.0625,0 2,0.21484 2.8125,0.64062 0.82031,0.42969 1.5664,1.0859 2.2344,1.9688 z m -3.2188,9.9219 c 1.0391,0 1.8359,-0.37891 2.3906,-1.1406 0.55078,-0.76953 0.82812,-1.8828 0.82812,-3.3438 0,-1.457 -0.27734,-2.5664 -0.82812,-3.3281 -0.55469,-0.76953 -1.3516,-1.1562 -2.3906,-1.1562 -1.043,0 -1.8398,0.38672 -2.3906,1.1562 -0.55469,0.76172 -0.82812,1.8711 -0.82812,3.3281 0,1.4609 0.27344,2.5742 0.82812,3.3438 0.55078,0.76172 1.3477,1.1406 2.3906,1.1406 z"
         id="path45768" /></symbol><symbol
       id="h"
       overflow="visible"><path
         d="m 10.5,-3.1562 c 1.0508,0 1.8516,-0.37891 2.4062,-1.1406 0.55078,-0.76953 0.82812,-1.8828 0.82812,-3.3438 0,-1.457 -0.27734,-2.5664 -0.82812,-3.3281 -0.55469,-0.76953 -1.3555,-1.1562 -2.4062,-1.1562 -1.0547,0 -1.8594,0.38672 -2.4219,1.1562 -0.55469,0.77344 -0.82812,1.8828 -0.82812,3.3281 0,1.4492 0.27344,2.5586 0.82812,3.3281 0.5625,0.77344 1.3672,1.1562 2.4219,1.1562 z m -3.25,-9.9219 c 0.67578,-0.88281 1.4219,-1.5391 2.2344,-1.9688 0.82031,-0.42578 1.7656,-0.64062 2.8281,-0.64062 1.8945,0 3.4453,0.75 4.6562,2.25 1.207,1.5 1.8125,3.4336 1.8125,5.7969 0,2.3555 -0.60547,4.2812 -1.8125,5.7812 -1.2109,1.5 -2.7617,2.25 -4.6562,2.25 -1.0625,0 -2.0078,-0.21094 -2.8281,-0.625 C 8.6719,-0.6602 7.9258,-1.32032 7.25,-2.21882 V -2e-5 H 2.3594 v -21.281 H 7.25 Z"
         id="path45771" /></symbol><symbol
       id="g"
       overflow="visible"><path
         d="m 0.34375,-15.312 h 4.8906 l 4.125,10.391 3.5,-10.391 h 4.8906 l -6.4375,16.766 c -0.64844,1.6953 -1.4023,2.8828 -2.2656,3.5625 -0.86719,0.6875 -2,1.0312 -3.4062,1.0312 H 2.79685 V 2.8289 h 1.5312 c 0.83203,0 1.4375,-0.13672 1.8125,-0.40625 C 6.52336,2.16093 6.82024,1.69218 7.03117,1.01645 L 7.17179,0.59457 Z"
         id="path45774" /></symbol><symbol
       id="f"
       overflow="visible"><path
         d="M 14.953,-3.7188 H 6.7342 L 5.4217,0 H 0.1405 L 7.703,-20.406 h 6.2656 L 21.5311,0 H 16.2499 Z M 8.0468,-7.5 h 5.5781 l -2.7812,-8.125 z"
         id="path45777" /></symbol><symbol
       id="b"
       overflow="visible"><path
         d="m 9.6406,-12.188 c -1.0859,0 -1.9141,0.39062 -2.4844,1.1719 -0.57422,0.78125 -0.85938,1.9062 -0.85938,3.375 0,1.4688 0.28516,2.5938 0.85938,3.375 0.57031,0.77344 1.3984,1.1562 2.4844,1.1562 1.0625,0 1.875,-0.38281 2.4375,-1.1562 0.57031,-0.78125 0.85938,-1.9062 0.85938,-3.375 0,-1.4688 -0.28906,-2.5938 -0.85938,-3.375 -0.5625,-0.78125 -1.375,-1.1719 -2.4375,-1.1719 z m 0,-3.5 c 2.6328,0 4.6914,0.71484 6.1719,2.1406 1.4766,1.418 2.2188,3.3867 2.2188,5.9062 0,2.5117 -0.74219,4.4805 -2.2188,5.9062 C 14.332,-0.317 12.2734,0.39 9.6406,0.39 6.9922,0.39 4.9258,-0.31703 3.4375,-1.735 1.9453,-3.1608 1.2031,-5.1295 1.2031,-7.6412 c 0,-2.5195 0.74219,-4.4883 2.2344,-5.9062 1.4883,-1.4258 3.5547,-2.1406 6.2031,-2.1406 z"
         id="path45780" /></symbol><symbol
       id="e"
       overflow="visible"><path
         d="m 16.547,-12.766 c 0.61328,-0.94531 1.3477,-1.6719 2.2031,-2.1719 0.85156,-0.5 1.7891,-0.75 2.8125,-0.75 1.7578,0 3.0977,0.54688 4.0156,1.6406 0.92578,1.0859 1.3906,2.6562 1.3906,4.7188 V -4e-4 h -4.9219 v -7.9844 -0.35938 c 0.0078,-0.13281 0.01563,-0.32031 0.01563,-0.5625 0,-1.082 -0.16406,-1.8633 -0.48438,-2.3438 -0.3125,-0.48828 -0.82422,-0.73438 -1.5312,-0.73438 -0.92969,0 -1.6484,0.38672 -2.1562,1.1562 -0.51172,0.76172 -0.77344,1.8672 -0.78125,3.3125 v 7.5156 h -4.9219 v -7.9844 c 0,-1.6953 -0.14844,-2.7852 -0.4375,-3.2656 -0.29297,-0.48828 -0.8125,-0.73438 -1.5625,-0.73438 -0.9375,0 -1.6641,0.38672 -2.1719,1.1562 -0.51172,0.76172 -0.76562,1.8594 -0.76562,3.2969 v 7.5312 h -4.9219 v -15.312 h 4.9219 v 2.2344 c 0.60156,-0.86328 1.2891,-1.5156 2.0625,-1.9531 0.78125,-0.4375 1.6406,-0.65625 2.5781,-0.65625 1.0625,0 2,0.25781 2.8125,0.76562 0.8125,0.51172 1.4258,1.2305 1.8438,2.1562 z"
         id="path45783" /></symbol><symbol
       id="r"
       overflow="visible"><path
         d="m 12.422,-21.281 v 3.2188 H 9.7189 c -0.6875,0 -1.1719,0.125 -1.4531,0.375 -0.27344,0.25 -0.40625,0.6875 -0.40625,1.3125 v 1.0625 h 4.1875 v 3.5 H 7.85955 V -2e-4 h -4.8906 v -11.812 h -2.4375 v -3.5 h 2.4375 v -1.0625 c 0,-1.6641 0.46094,-2.8984 1.3906,-3.7031 0.92578,-0.80078 2.3672,-1.2031 4.3281,-1.2031 z"
         id="path45786" /></symbol><symbol
       id="q"
       overflow="visible"><path
         d="M 17.75,-9.3281 V 0 h -4.9219 v -7.1094 c 0,-1.3438 -0.03125,-2.2656 -0.09375,-2.7656 -0.0625,-0.5 -0.16797,-0.86719 -0.3125,-1.1094 -0.1875,-0.3125 -0.44922,-0.55469 -0.78125,-0.73438 -0.32422,-0.17578 -0.69531,-0.26562 -1.1094,-0.26562 -1.0234,0 -1.8242,0.39844 -2.4062,1.1875 -0.58594,0.78125 -0.875,1.8711 -0.875,3.2656 V -1e-4 H 2.3594 v -21.281 H 7.25 v 8.2031 c 0.73828,-0.88281 1.5195,-1.5391 2.3438,-1.9688 0.83203,-0.42578 1.75,-0.64062 2.75,-0.64062 1.7695,0 3.1133,0.54688 4.0312,1.6406 0.91406,1.0859 1.375,2.6562 1.375,4.7188 z"
         id="path45789" /></symbol><symbol
       id="p"
       overflow="visible"><path
         d="m 2.5781,-20.406 h 5.875 l 7.4219,14 v -14 h 4.9844 V 0 h -5.875 L 7.5625,-14 V 0 H 2.5781 Z"
         id="path45792" /></symbol><symbol
       id="o"
       overflow="visible"><path
         d="m 2.1875,-5.9688 v -9.3438 h 4.9219 v 1.5312 c 0,0.83594 -0.00781,1.875 -0.015625,3.125 -0.011719,1.25 -0.015625,2.0859 -0.015625,2.5 0,1.2422 0.03125,2.1328 0.09375,2.6719 0.070313,0.54297 0.17969,0.93359 0.32812,1.1719 0.20703,0.32422 0.47266,0.57422 0.79688,0.75 0.32031,0.16797 0.69141,0.25 1.1094,0.25 1.0195,0 1.8203,-0.39062 2.4062,-1.1719 0.58203,-0.78125 0.875,-1.8672 0.875,-3.2656 v -7.5625 h 4.8906 V -6e-4 H 12.6875 V -2.2194 C 11.94531,-1.32096 11.1641,-0.6608 10.3437,-0.235 9.51948,0.17906 8.6093,0.39 7.6093,0.39 5.8476,0.39 4.5038,-0.14906 3.5781,-1.235 2.64841,-2.317 2.1875,-3.8952 2.1875,-5.9694 Z"
         id="path45795" /></symbol><symbol
       id="n"
       overflow="visible"><path
         d="M 17.75,-9.3281 V 0 h -4.9219 v -7.1406 c 0,-1.3203 -0.03125,-2.2344 -0.09375,-2.7344 -0.0625,-0.5 -0.16797,-0.86719 -0.3125,-1.1094 -0.1875,-0.3125 -0.44922,-0.55469 -0.78125,-0.73438 -0.32422,-0.17578 -0.69531,-0.26562 -1.1094,-0.26562 -1.0234,0 -1.8242,0.39844 -2.4062,1.1875 -0.58594,0.78125 -0.875,1.8711 -0.875,3.2656 V -1e-4 H 2.3594 v -15.312 H 7.25 v 2.2344 c 0.73828,-0.88281 1.5195,-1.5391 2.3438,-1.9688 0.83203,-0.42578 1.75,-0.64062 2.75,-0.64062 1.7695,0 3.1133,0.54688 4.0312,1.6406 0.91406,1.0859 1.375,2.6562 1.375,4.7188 z"
         id="path45798" /></symbol><symbol
       id="m"
       overflow="visible"><path
         d="m 2.5781,-20.406 h 8.7344 c 2.5938,0 4.582,0.57812 5.9688,1.7344 1.3945,1.1484 2.0938,2.7891 2.0938,4.9219 0,2.1367 -0.69922,3.7812 -2.0938,4.9375 -1.3867,1.1562 -3.375,1.7344 -5.9688,1.7344 H 7.8281 V 3e-4 h -5.25 z m 5.25,3.8125 v 5.7031 H 10.75 c 1.0195,0 1.8047,-0.25 2.3594,-0.75 0.5625,-0.5 0.84375,-1.2031 0.84375,-2.1094 0,-0.91406 -0.28125,-1.6172 -0.84375,-2.1094 -0.55469,-0.48828 -1.3398,-0.73438 -2.3594,-0.73438 z"
         id="path45801" /></symbol><symbol
       id="l"
       overflow="visible"><path
         d="M 2.3594,-15.312 H 7.25 v 15.031 c 0,2.0508 -0.49609,3.6172 -1.4844,4.7031 -0.98047,1.082 -2.4062,1.625 -4.2812,1.625 H -0.9375 V 2.8283 h 0.85938 c 0.92578,0 1.5625,-0.21094 1.9062,-0.625 0.35156,-0.41797 0.53125,-1.2461 0.53125,-2.4844 z m 0,-5.9688 H 7.25 v 4 H 2.3594 Z"
         id="path45804" /></symbol><symbol
       id="k"
       overflow="visible"><path
         d="m 14.719,-14.828 v 3.9844 c -0.65625,-0.45703 -1.3242,-0.79688 -2,-1.0156 -0.66797,-0.21875 -1.3594,-0.32812 -2.0781,-0.32812 -1.3672,0 -2.4336,0.40234 -3.2031,1.2031 -0.76172,0.79297 -1.1406,1.9062 -1.1406,3.3438 0,1.4297 0.37891,2.543 1.1406,3.3438 0.76953,0.79297 1.8359,1.1875 3.2031,1.1875 0.75781,0 1.4844,-0.10938 2.1719,-0.32812 0.6875,-0.22656 1.3203,-0.56641 1.9062,-1.0156 v 4 c -0.76172,0.28125 -1.5391,0.48828 -2.3281,0.625 -0.78125,0.14453 -1.5742,0.21875 -2.375,0.21875 -2.7617,0 -4.9219,-0.70703 -6.4844,-2.125 -1.5547,-1.4141 -2.3281,-3.3828 -2.3281,-5.9062 0,-2.5312 0.77344,-4.5039 2.3281,-5.9219 1.5625,-1.4141 3.7227,-2.125 6.4844,-2.125 0.80078,0 1.5938,0.07422 2.375,0.21875 0.78125,0.13672 1.5547,0.35156 2.3281,0.64062 z"
         id="path45807" /></symbol><clipPath
       clipPathUnits="userSpaceOnUse"
       id="clipPath46622"><circle
         style="display:inline;opacity:1;fill:#1197bc;fill-opacity:1;stroke:none;stroke-width:25.6561;stroke-miterlimit:4;stroke-dasharray:none;stroke-dashoffset:0;stroke-opacity:1"
         id="circle46624"
         cx="350.06332"
         cy="302.1416"
         r="317.9693" /></clipPath><linearGradient
       inkscape:collect="always"
       xlink:href="#linearGradient48908"
       id="linearGradient48910"
       x1="97.86393"
       y1="180.92091"
       x2="97.572289"
       y2="113.89252"
       gradientUnits="userSpaceOnUse" /><filter
       style="color-interpolation-filters:sRGB"
       inkscape:label="Drop Shadow"
       id="filter49477"
       x="-0.034375"
       y="-0.034375"
       width="1.0875"
       height="1.0875"><feFlood
         flood-opacity="0.498039"
         flood-color="rgb(0,0,0)"
         result="flood"
         id="feFlood49467" /><feComposite
         in="flood"
         in2="SourceGraphic"
         operator="in"
         result="composite1"
         id="feComposite49469" /><feGaussianBlur
         in="composite1"
         stdDeviation="0.5"
         result="blur"
         id="feGaussianBlur49471" /><feOffset
         dx="1.2"
         dy="1.2"
         result="offset"
         id="feOffset49473" /><feComposite
         in="SourceGraphic"
         in2="offset"
         operator="over"
         result="composite2"
         id="feComposite49475" /></filter></defs><sodipodi:namedview
     id="base"
     pagecolor="#ffffff"
     bordercolor="#666666"
     borderopacity="1.0"
     inkscape:pageopacity="0.0"
     inkscape:pageshadow="2"
     inkscape:zoom="0.98994949"
     inkscape:cx="92.934034"
     inkscape:cy="137.38075"
     inkscape:document-units="mm"
     inkscape:current-layer="layer1"
     showgrid="false"
     fit-margin-top="0"
     fit-margin-left="0"
     fit-margin-right="0"
     fit-margin-bottom="-2.7755576e-17"
     inkscape:window-width="1864"
     inkscape:window-height="1053"
     inkscape:window-x="56"
     inkscape:window-y="27"
     inkscape:window-maximized="1"
     inkscape:showpageshadow="2"
     inkscape:pagecheckerboard="0"
     inkscape:deskcolor="#d1d1d1" /><metadata
     id="metadata8459"><rdf:RDF><cc:Work
         rdf:about=""><dc:format>image/svg+xml</dc:format><dc:type
           rdf:resource="http://purl.org/dc/dcmitype/StillImage" /></cc:Work></rdf:RDF></metadata><g
     inkscape:label="Layer 1"
     inkscape:groupmode="layer"
     id="layer1"
     transform="translate(-63.823819,-113.7494)"
     style="display:inline"><circle
       style="opacity:1;fill:url(#linearGradient48910);fill-opacity:1;stroke:#000000;stroke-width:2;stroke-miterlimit:4;stroke-dasharray:none;stroke-dashoffset:0;stroke-opacity:1;filter:url(#filter49477)"
       id="circle3172"
       cy="147.9494"
       cx="98.023819"
       r="32" /></g><g
     inkscape:groupmode="layer"
     id="layer2"
     inkscape:label="Layer 2"
     style="display:inline"
     transform="translate(2.2000001,2.1999982)"><g
       id="g45931"
       transform="matrix(0.10063866,0,0,0.10063866,-3.2299019,1.5928773)"
       clip-path="url(#clipPath46622)"><path
         style="fill:#008000;fill-opacity:1;stroke:#000000;stroke-width:16.6003;stroke-dasharray:none;stroke-opacity:1"
         d="M 462.70772,66.474265 C 428.16312,110.614 396.96351,157.50004 365.3511,203.81066 c -2.69169,14.04892 17.38694,14.30664 25.24633,21.97794 11.24354,7.32492 -3.64585,19.88038 -6.00184,28.05951 -29.30775,55.33753 -63.38405,108.25026 -90.10233,164.88658 -4.02129,13.21426 14.2033,16.12843 21.10294,23.54778 13.10197,5.78563 1.0164,19.69335 -2.32475,28.09436 -22.9847,42.33326 -49.13573,83.29686 -71.80066,125.49706 0.69079,15.01546 22.57685,6.02419 32.67872,8.45944 59.30311,-0.56373 119.04896,1.1189 178.07841,-0.8333 10.26949,-7.1176 2.60515,-23.73717 4.96816,-34.71572 -0.55796,-33.24153 1.11533,-66.92285 -0.8333,-99.89029 -13.14453,-14.51566 -32.46556,-24.02427 -47.98977,-36.61474 -12.973,-10.72527 -29.91109,-18.75339 -38.9686,-33.10342 1.86203,-6.93864 8.45952,-10.12666 14.08579,-4.73957 21.86661,12.73196 41.1438,29.47815 62.81556,42.48037 14.87801,1.25558 8.85004,-17.83014 10.45759,-26.88361 0.7185,-46.46746 0.33161,-92.9426 0.43273,-139.41356 3.5831,-6.35142 10.73678,-8.88486 15.4898,-2.16324 3.485,24.86597 -0.99748,52.48779 3.21975,78.18959 7.30794,12.09679 19.61081,-2.53884 27.47244,-6.67403 8.11214,-4.49351 16.21196,-13.95802 25.52083,-13.7598 6.0469,2.7175 8.61547,10.68491 1.67707,14.1973 -17.35716,16.76387 -40.45573,27.45269 -56.53615,44.98959 0.2504,40.39659 -1.10792,80.92448 1.14524,121.26042 6.98935,12.57876 19.16943,-2.50362 26.8986,-6.73098 17.90434,-11.83781 34.7857,-26.90023 54.10751,-35.758 5.52069,2.13953 11.99577,9.19316 3.72305,13.50246 -25.9126,23.89671 -57.43175,41.26591 -84.21172,63.72292 -4.18342,17.6563 -0.53027,37.47178 -1.76132,55.93761 4.74104,13.10659 22.73619,4.56141 33.35294,7 59.4236,-0.71014 119.12649,1.5032 178.39276,-1.63419 10.61387,-9.60428 -5.5785,-21.42061 -8.6256,-31.34129 -21.45549,-39.87808 -47.8551,-77.30771 -66.16117,-118.76409 -3.74003,-10.25683 12.00416,-12.28959 17.0668,-18.16054 7.50526,-4.08293 15.67236,-12.8706 8.44546,-21.16299 -32.14567,-60.64849 -68.61541,-119.60335 -99.52267,-180.49021 3.88032,-14.25973 26.91782,-12.44334 29.62991,-27.57536 -12.0046,-24.00576 -30.37539,-44.92289 -45.06294,-67.54781 -17.16018,-23.34395 -32.773,-48.322816 -50.92603,-70.6275 -2.20947,-2.754983 -5.05083,-0.968376 -7.82292,-0.555085 z"
         id="path45920"
         transform="scale(0.75)" /><path
         style="fill:#008000;fill-opacity:1;stroke:#000000;stroke-width:16.6003;stroke-dasharray:none;stroke-opacity:1"
         d="m 233.4663,380.77083 c -15.43427,17.80478 -29.09705,37.88759 -41.60021,57.63306 -3.67538,10.09285 18.65391,12.47648 9.69702,23.24011 -14.40805,31.48707 -34.15695,60.57006 -49.03285,91.53626 -2.01862,10.43636 20.56201,14.86158 10.46434,25.83789 -10.29172,20.79586 -23.1809,40.21536 -33.46886,60.99287 -0.17298,14.92207 19.09142,8.07568 28.4628,9.97406 61.56863,0.24025 123.5718,1.45306 184.86867,-0.3674 11.37332,-6.46671 -3.20492,-23.5556 -10.93625,-27.44121 -38.91745,-1.71529 -78.45875,0.54515 -116.88113,-3.83885 -4.00267,-10.83737 7.49036,-20.30226 10.71644,-30.02875 23.48204,-43.38565 50.2094,-85.461 73.05623,-129.3199 -1.19906,-16.18001 -24.26777,-17.71163 -30.3848,-31.45711 0.39076,-15.48992 -13.24269,-27.31538 -20.65258,-39.96691 -3.31583,-4.47842 -7.94497,-10.45433 -14.30882,-6.79412 z"
         id="path45922"
         transform="scale(0.75)" /><path
         style="fill:#008000;fill-opacity:1;stroke:#000000;stroke-width:16.6003;stroke-dasharray:none;stroke-opacity:1"
         d="m 692.75123,380.70221 c -14.46829,8.81085 -21.5367,26.5024 -28.75491,41.25367 -0.74567,16.60771 -21.13595,18.93626 -29.28676,30.42341 -0.62111,15.37436 12.27358,28.01306 18.01357,41.64331 22.16926,39.80083 46.74362,78.61082 66.8314,119.37814 -6.49343,14.22495 -24.89532,5.1363 -37.07598,7.67769 -28.03735,0.55765 -56.51629,-1.12518 -84.27755,0.8333 -6.15711,4.67389 -15.53978,18.03585 -8.7619,25.37013 17.25957,4.96356 36.97297,1.49933 55.10108,2.94472 51.64924,-0.11509 103.72702,1.24553 155.10134,-0.6089 12.18343,-7.19736 -4.74869,-20.43431 -7.53977,-29.32795 -8.53039,-16.08072 -19.85754,-31.50705 -25.1042,-48.97049 3.5124,-8.67417 19.29873,-13.64783 10.09083,-24.38971 -15.624,-30.41148 -36.11055,-58.70297 -48.2434,-90.74142 0.25588,-8.44624 18.13344,-11.75752 9.13978,-21.87966 -13.29205,-17.4647 -23.94117,-37.46454 -39.97067,-52.60686 -1.54122,-1.22969 -3.46703,-0.96216 -5.26286,-0.99938 z"
         id="path45924"
         transform="scale(0.75)" /><g
         id="g45918"
         inkscape:label="forest"><path
           d="m 442.92,482.68 7.2383,-12.445 h 83.195 c 3.918,0 7.5391,-2.0898 9.4961,-5.4844 1.957,-3.3906 1.9492,-7.5664 -0.0195,-10.949 l -64.906,-111.61 19.41,-12.98 c 0.89062,-0.59375 1.6641,-1.3008 2.3164,-2.0859 0.0117,-0.0117 0.0195,-0.0234 0.0273,-0.0352 0.20703,-0.24609 0.39844,-0.50391 0.57812,-0.76562 0.0195,-0.0273 0.0391,-0.0547 0.0586,-0.0859 0.16797,-0.25 0.32812,-0.5 0.47266,-0.76172 0.0195,-0.0391 0.0391,-0.0742 0.0586,-0.11328 0.14062,-0.25391 0.26953,-0.51172 0.38672,-0.77344 0.0195,-0.0469 0.0391,-0.0937 0.0586,-0.13672 0.10938,-0.25781 0.21094,-0.51953 0.30469,-0.78516 0.0156,-0.0508 0.0312,-0.10156 0.0508,-0.15625 0.082,-0.26172 0.16016,-0.52734 0.22656,-0.79688 0.0156,-0.0547 0.0234,-0.10938 0.0351,-0.16016 0.0625,-0.26953 0.11719,-0.53906 0.15625,-0.8125 0.008,-0.0547 0.0156,-0.10938 0.0234,-0.16797 0.0352,-0.26953 0.0625,-0.54297 0.0781,-0.82031 0.004,-0.0547 0.008,-0.11328 0.0117,-0.16797 0.0117,-0.27734 0.0117,-0.55469 0.004,-0.83203 -0.004,-0.0547 -0.004,-0.10938 -0.008,-0.16406 -0.0117,-0.28125 -0.0391,-0.55859 -0.0742,-0.83984 -0.004,-0.0508 -0.0117,-0.10547 -0.0195,-0.15625 -0.0391,-0.28516 -0.0898,-0.56641 -0.15625,-0.84766 -0.008,-0.0469 -0.0195,-0.0937 -0.0273,-0.14062 -0.0703,-0.28906 -0.15234,-0.57422 -0.24609,-0.86328 -0.0117,-0.0352 -0.0234,-0.0742 -0.0352,-0.11719 -0.10156,-0.29297 -0.21484,-0.58984 -0.34375,-0.87891 -0.0117,-0.0234 -0.0195,-0.0508 -0.0312,-0.0781 -0.0273,-0.0625 -0.0508,-0.125 -0.0781,-0.1875 l 19.883,-28.105 30.93,43.719 -4.5039,2.2734 c -2.6719,1.3516 -4.6719,3.7305 -5.5391,6.5898 -0.87109,2.8633 -0.52734,5.9531 0.94531,8.5547 l 38.523,68.082 -6.3359,4.2383 c -4.8047,3.207 -6.2812,9.5898 -3.3789,14.582 l 27.484,47.262 z m -186.68,0 H 99.99 l 27.484,-47.262 c 2.9023,-4.9922 1.4219,-11.375 -3.3789,-14.582 l -6.3398,-4.2383 38.523,-68.082 c 1.4766,-2.6016 1.8164,-5.6914 0.94922,-8.5547 -0.86719,-2.8594 -2.8711,-5.2383 -5.543,-6.5898 l -4.5,-2.2734 30.926,-43.719 19.883,28.105 c -0.004,0.0117 -0.008,0.0234 -0.0156,0.0352 -0.10938,0.24219 -0.20703,0.48437 -0.30078,0.72656 -0.0274,0.0703 -0.0547,0.14062 -0.082,0.21094 -0.0859,0.24219 -0.16016,0.48437 -0.22656,0.72656 -0.0234,0.0781 -0.0469,0.15234 -0.0664,0.23047 -0.0625,0.23828 -0.11328,0.48047 -0.15625,0.72656 -0.0156,0.0781 -0.0312,0.15625 -0.043,0.23828 -0.0391,0.24219 -0.0703,0.48438 -0.0899,0.72656 -0.008,0.082 -0.0156,0.16406 -0.0234,0.24219 -0.0156,0.24219 -0.0234,0.48438 -0.0234,0.72656 -0.004,0.082 -0.004,0.16406 0,0.24609 0.004,0.24219 0.0156,0.48047 0.0351,0.71875 0.008,0.082 0.0156,0.16406 0.0234,0.24609 0.0274,0.23828 0.0625,0.47656 0.10156,0.71484 l 0.0469,0.23438 c 0.0469,0.23828 0.0977,0.47656 0.16016,0.71094 0.0195,0.0742 0.043,0.14844 0.0664,0.22266 0.0664,0.23438 0.14063,0.46875 0.22266,0.69922 0.0273,0.0703 0.0586,0.14062 0.082,0.21094 0.0898,0.23047 0.1875,0.45703 0.28906,0.68359 0.0312,0.0664 0.0664,0.12891 0.0977,0.19531 0.11328,0.22656 0.22656,0.44922 0.35547,0.66797 0.0312,0.0586 0.0703,0.11328 0.10547,0.17188 0.13672,0.21875 0.27344,0.4375 0.42188,0.64844 0.0352,0.0508 0.0742,0.0976 0.10938,0.14453 0.15625,0.21875 0.32031,0.42969 0.49609,0.63672 0.0274,0.0312 0.0625,0.0625 0.0899,0.0937 0.1875,0.21875 0.38672,0.42969 0.59375,0.63281 0,0.004 0.004,0.004 0.004,0.004 0.46875,0.45703 0.98437,0.88281 1.5469,1.2578 l 19.414,12.98 -64.906,111.61 c -1.9688,3.3828 -1.9766,7.5586 -0.0234,10.949 1.957,3.3945 5.5781,5.4844 9.5,5.4844 h 83.199 z m 44.484,-311.2 c -0.86719,-2.8594 -2.8711,-5.2422 -5.543,-6.5898 l -18.617,-9.4023 73.008,-103.2 73.012,103.2 -18.617,9.4023 c -2.6719,1.3477 -4.6758,3.7305 -5.543,6.5898 -0.86719,2.8633 -0.52734,5.9531 0.94531,8.5547 l 77.324,136.64 -19.512,13.051 c -4.8047,3.2109 -6.2812,9.5938 -3.3789,14.582 l 60.508,104.04 h -153.78 v -40.293 l 62.184,-44.684 c 4.9102,-3.5273 6.0273,-10.367 2.4922,-15.27 -3.5352,-4.9023 -10.383,-6.0195 -15.297,-2.4883 l -49.379,35.48 v -92.309 l 40.863,-29.363 c 4.9141,-3.5312 6.0312,-10.367 2.4961,-15.273 -3.5352,-4.9023 -10.383,-6.0195 -15.297,-2.4883 l -28.062,20.164 v -57.039 c 0,-6.043 -4.9062,-10.941 -10.961,-10.941 -6.0508,0 -10.957,4.8984 -10.957,10.941 v 121.14 l -48.562,-34.895 c -4.9141,-3.5312 -11.762,-2.418 -15.297,2.4883 -3.5352,4.9023 -2.418,11.742 2.4922,15.27 l 61.367,44.098 v 95.465 h -153.77 l 60.508,-104.04 c 2.9023,-4.9883 1.4258,-11.371 -3.3789,-14.582 l -19.52,-13.055 77.324,-136.63 c 1.4727,-2.6016 1.8125,-5.6914 0.94531,-8.5547 z m 326.96,316.64 -31.883,-54.824 6.2383,-4.1719 c 4.7617,-3.1836 6.2617,-9.4922 3.4453,-14.473 l -37.879,-66.934 5.5938,-2.8242 c 2.8438,-1.4375 4.9219,-4.0352 5.6875,-7.125 0.76953,-3.0859 0.15625,-6.3516 -1.6836,-8.9492 l -47.203,-66.727 c -2.0547,-2.9023 -5.3945,-4.6289 -8.9531,-4.6289 -3.5586,0 -6.8984,1.7266 -8.9492,4.6289 l -22.844,32.285 -65.156,-115.14 19.711,-9.9531 c 2.8438,-1.4336 4.9219,-4.0352 5.6875,-7.1211 0.76953,-3.0859 0.15625,-6.3555 -1.6797,-8.9531 l -89.289,-126.21 c -0.0312,-0.04297 -0.0664,-0.08203 -0.0977,-0.125 -0.13672,-0.18359 -0.27734,-0.35938 -0.42188,-0.53516 -0.0976,-0.11719 -0.19141,-0.23438 -0.29297,-0.34375 -0.12891,-0.14062 -0.26172,-0.27734 -0.39453,-0.41016 -0.13672,-0.13672 -0.27344,-0.26953 -0.41406,-0.39844 -0.11328,-0.09766 -0.22656,-0.19531 -0.34375,-0.28906 -0.17578,-0.14844 -0.35547,-0.28906 -0.53906,-0.42188 -0.043,-0.03125 -0.082,-0.07031 -0.125,-0.09766 -0.0664,-0.04688 -0.13281,-0.08594 -0.19922,-0.12891 -0.19531,-0.12891 -0.38672,-0.25391 -0.58594,-0.37109 -0.12891,-0.07422 -0.25781,-0.14453 -0.38672,-0.21484 -0.17969,-0.09375 -0.35937,-0.18359 -0.53906,-0.26953 -0.16016,-0.07422 -0.32422,-0.14453 -0.48828,-0.21094 -0.15234,-0.0625 -0.30859,-0.12109 -0.46484,-0.17578 -0.19141,-0.06641 -0.37891,-0.12891 -0.57031,-0.18359 -0.14062,-0.04297 -0.28125,-0.07813 -0.42578,-0.11719 -0.20312,-0.05078 -0.40625,-0.09375 -0.60938,-0.13281 -0.14453,-0.02734 -0.28516,-0.05078 -0.42578,-0.07422 -0.20312,-0.02734 -0.40625,-0.05469 -0.60547,-0.07422 -0.16016,-0.01172 -0.3125,-0.02344 -0.46875,-0.03125 -0.1875,-0.0078 -0.37109,-0.01562 -0.55859,-0.01562 -0.17578,0 -0.35547,0.0078 -0.53125,0.01562 -0.16406,0.0078 -0.32812,0.01953 -0.49219,0.03516 -0.19531,0.01563 -0.39062,0.04297 -0.58203,0.07031 -0.15234,0.02344 -0.30078,0.04687 -0.44922,0.07422 -0.19922,0.03906 -0.39453,0.08203 -0.59375,0.13281 -0.14453,0.03516 -0.29297,0.07422 -0.44141,0.11719 -0.1875,0.05469 -0.37109,0.11719 -0.55469,0.17969 -0.16016,0.05859 -0.32031,0.12109 -0.48047,0.18359 -0.16016,0.06641 -0.31641,0.13281 -0.47656,0.20703 -0.18359,0.08594 -0.36328,0.17578 -0.54297,0.27344 -0.12891,0.06641 -0.25781,0.13672 -0.38672,0.21094 -0.19531,0.11719 -0.39062,0.23828 -0.58203,0.37109 -0.0664,0.04297 -0.14062,0.08203 -0.20312,0.12891 -0.043,0.02734 -0.082,0.06641 -0.12891,0.09766 -0.17969,0.13281 -0.35938,0.27344 -0.53516,0.41797 -0.11719,0.09766 -0.23438,0.19531 -0.34375,0.29297 -0.14062,0.12891 -0.27734,0.26172 -0.41016,0.39844 -0.13672,0.13281 -0.26953,0.26953 -0.39844,0.41016 -0.10156,0.10938 -0.19531,0.22656 -0.29297,0.34375 -0.14453,0.17578 -0.28906,0.35156 -0.42188,0.53516 -0.0312,0.04297 -0.0664,0.08203 -0.0976,0.125 l -89.289,126.21 c -1.8359,2.5977 -2.4531,5.8672 -1.6797,8.9531 0.76562,3.0859 2.8438,5.6875 5.6875,7.1211 l 19.707,9.9531 -65.148,115.13 -22.832,-32.277 c -2.0547,-2.9023 -5.3945,-4.6289 -8.9531,-4.6289 -3.5586,0 -6.8984,1.7266 -8.9492,4.6289 l -47.207,66.727 c -1.8398,2.5977 -2.4531,5.8633 -1.6836,8.9492 0.76953,3.0898 2.8477,5.6875 5.6875,7.125 l 5.5938,2.8242 -37.875002,66.934 c -2.8203,4.9805 -1.3203,11.289 3.4414,14.473 l 6.238302,4.1719 -31.879002,54.824 c -1.9727,3.3828 -1.9805,7.5586 -0.02344,10.949 1.957,3.3945 5.5781,5.4844 9.4961,5.4844 H 167.161 v 27.566 c 0,6.043 4.9062,10.941 10.957,10.941 6.0547,0 10.961,-4.8984 10.961,-10.941 v -27.566 h 86.199 c 3.9219,0 7.543,-2.0898 9.4961,-5.4844 1.957,-3.3906 1.9492,-7.5664 -0.0195,-10.949 l -10.406,-17.895 h 64.27 v 61.895 c 0,6.043 4.9062,10.941 10.957,10.941 6.0547,0 10.961,-4.8984 10.961,-10.941 v -61.895 h 64.281 l -10.406,17.895 c -1.9688,3.3828 -1.9766,7.5586 -0.0195,10.949 1.957,3.3945 5.5781,5.4844 9.4961,5.4844 h 86.203 v 27.566 c 0,6.043 4.9062,10.941 10.957,10.941 6.0547,0 10.961,-4.8984 10.961,-10.941 v -27.566 h 86.199 c 3.918,0 7.543,-2.0898 9.4961,-5.4844 1.957,-3.3906 1.9492,-7.5664 -0.0195,-10.949 z"
           fill-rule="evenodd"
           id="path45812" /></g></g></g></svg>
