<?xml version="1.0" encoding="UTF-8"?>
<svg width="700pt" height="700pt" version="1.1" viewBox="0 0 700 700" xmlns="http://www.w3.org/2000/svg" xmlns:xlink="http://www.w3.org/1999/xlink">
 <defs>
  <symbol id="w" overflow="visible">
   <path d="m0.03125 0h-0.015625-0.015625v-0.015625-0.015625h0.015625 0.015625-0.015625v0.015625 0.015625h0.015625v-0.015625z"/>
  </symbol>
  <symbol id="e" overflow="visible">
   <path d="m0.015625-0.015625v0.015625h-0.015625v-0.03125h0.015625v0.015625-0.015625z"/>
  </symbol>
  <symbol id="b" overflow="visible">
   <path d="m0.03125-0.015625h-0.015625v0.015625c0.0078125 0 0.015625-0.0039062 0.015625-0.015625v0.015625h-0.015625-0.015625v-0.015625l0.015625-0.015625v0.015625h0.015625z"/>
  </symbol>
  <symbol id="a" overflow="visible">
   <path d="m0.015625-0.015625v0.015625-0.015625zm0.015625 0v0.015625h-0.015625-0.015625v-0.015625h0.015625-0.015625v-0.015625h0.015625v0.015625h0.015625z"/>
  </symbol>
  <symbol id="d" overflow="visible">
   <path d="m0.015625-0.03125v0.015625 0.015625h-0.015625v-0.015625-0.015625z"/>
  </symbol>
  <symbol id="l" overflow="visible">
   <path d="m0.015625-0.015625v-0.015625h0.015625v0.03125h-0.015625-0.015625v-0.015625l0.015625-0.015625v0.015625zm0 0.015625v-0.015625 0.015625z"/>
  </symbol>
  <symbol id="k" overflow="visible">
   <path d="m0.015625 0v-0.015625 0.015625zm0-0.015625v-0.015625c0.0078125 0 0.015625 0.0078125 0.015625 0.015625v0.015625h-0.015625-0.015625v-0.03125h0.015625z"/>
  </symbol>
  <symbol id="j" overflow="visible">
   <path d="m0-0.03125h0.015625v0.015625-0.015625h0.015625l-0.015625 0.03125v0.015625h-0.015625v-0.015625h0.015625z"/>
  </symbol>
  <symbol id="i" overflow="visible">
   <path d="m0.015625-0.03125v0.015625 0.015625h0.015625v-0.015625c0-0.0078125-0.0078125-0.015625-0.015625-0.015625zm0 0h0.015625v0.015625 0.015625h-0.015625-0.015625v-0.015625-0.015625h0.015625z"/>
  </symbol>
  <symbol id="v" overflow="visible">
   <path d="m0-0.03125h0.015625v0.03125h-0.015625z"/>
  </symbol>
  <symbol id="f" overflow="visible">
   <path d="m0.03125-0.015625v0.015625h-0.015625v-0.015625 0.015625h-0.015625v-0.03125h0.015625v0.015625-0.015625c0.0078125 0 0.015625 0.0078125 0.015625 0.015625z"/>
  </symbol>
  <symbol id="h" overflow="visible">
   <path d="m0-0.03125h0.015625 0.015625v0.015625h-0.015625v0.015625h-0.015625zm0.015625 0v0.015625-0.015625z"/>
  </symbol>
  <symbol id="g" overflow="visible">
   <path d="m0.03125-0.03125v0.015625h-0.015625c0.0078125 0 0.015625 0.0078125 0.015625 0.015625h-0.015625-0.015625 0.015625v-0.015625h-0.015625l0.015625-0.015625h0.015625z"/>
  </symbol>
  <symbol id="c" overflow="visible">
   <path d="m0.015625-0.015625v0.015625-0.015625zm0-0.015625v0.015625h0.015625c0 0.011719-0.0078125 0.015625-0.015625 0.015625h-0.015625v-0.015625l0.015625-0.015625z"/>
  </symbol>
  <symbol id="u" overflow="visible">
   <path d="m0-0.03125h0.015625v0.015625-0.015625h0.015625l-0.015625 0.03125z"/>
  </symbol>
  <symbol id="t" overflow="visible">
   <path d="m0-0.03125h0.015625v0.015625-0.015625h0.015625l-0.015625 0.015625 0.015625 0.015625h-0.015625v-0.015625 0.015625h-0.015625z"/>
  </symbol>
  <symbol id="s" overflow="visible">
   <path d="m0.015625-0.03125v0.03125h-0.015625v-0.03125h0.015625z"/>
  </symbol>
  <symbol id="r" overflow="visible">
   <path d="m0.03125-0.015625v-0.015625c0.0078125 0 0.015625 0.0078125 0.015625 0.015625v0.015625h-0.015625v-0.015625 0.015625h-0.015625v-0.015625 0.015625h-0.015625v-0.03125h0.015625v0.015625-0.015625 0.015625h0.015625z"/>
  </symbol>
  <symbol id="q" overflow="visible">
   <path d="m0.03125-0.015625v0.015625h-0.015625v-0.015625 0.015625h-0.015625v-0.03125h0.015625v0.015625-0.015625c0.0078125 0 0.015625 0.0078125 0.015625 0.015625z"/>
  </symbol>
  <symbol id="p" overflow="visible">
   <path d="m0-0.03125h0.015625l0.015625 0.015625v-0.015625 0.03125l-0.015625-0.015625v0.015625h-0.015625z"/>
  </symbol>
  <symbol id="o" overflow="visible">
   <path d="m0-0.015625v-0.015625h0.015625v0.015625 0.015625-0.015625-0.015625h0.015625v0.03125h-0.015625-0.015625v-0.015625z"/>
  </symbol>
  <symbol id="n" overflow="visible">
   <path d="m0-0.03125h0.015625v0.03125h-0.015625v0.015625zm0 0h0.015625z"/>
  </symbol>
  <symbol id="m" overflow="visible">
   <path d="m0.03125-0.03125v0.015625h-0.015625v0.015625h0.015625-0.015625-0.015625v-0.015625l0.015625-0.015625h0.015625z"/>
  </symbol>
 </defs>
 <g>
  <path d="m105.39 300.43c-2.0625 0-3.7344-1.6719-3.7344-3.7344s1.6719-3.7344 3.7344-3.7344h66.531c4.5273-17.852 14.816-33.402 28.773-44.551 14.238-11.375 32.285-18.176 51.914-18.176 19.516 0 37.473 6.7266 51.68 17.988 14.078 11.16 24.461 26.785 29.016 44.738h89.82c2.0625 0 3.7344 1.6719 3.7344 3.7344s-1.6719 3.7344-3.7344 3.7344zm138.37 227.65c2.4922 0.011719 4.9844 0.019531 7.4766 0.023438l0.011719-7.4648c-2.4844-0.003906-4.9727-0.011719-7.457-0.023437zm-59.754-0.59375c2.4883 0.023438 4.9727 0.050781 7.4609 0.082031l0.089844-7.4648c-2.4922-0.03125-4.9805-0.058594-7.4727-0.082031l-0.074219 7.4648zm29.859 0.35156c2.4922 0.027344 4.9805 0.054687 7.4727 0.078125l0.074218-7.4648c-2.4883-0.023437-4.9727-0.050781-7.4609-0.078125l-0.082031 7.4648zm223.83-422.92c0.62109 0.15234 0.95313 0.23047 1.2812 0.30859 26.191 6.2812 62.203 14.914 70.398 64.992 0.33203 2.0312-1.0469 3.9414-3.0781 4.2734-2.0312 0.33203-3.9414-1.0469-4.2734-3.0781-1.6367-10.004-4.5391-18.184-8.332-24.918-0.74219 3.0938-2.1641 6.207-4.3359 9.1055-1.2305 1.6445-3.5625 1.9766-5.207 0.74219-1.6445-1.2305-1.9766-3.5625-0.74219-5.207 2.4141-3.2227 3.5039-6.7539 3.4688-9.9766-0.023438-2.4727-0.71875-4.7422-1.9805-6.4766-2.2227-2.2891-4.582-4.3242-7.0352-6.1406 0.80859 5.0039 0.0625 10.75-2.6836 16.48-0.88672 1.8516-3.1055 2.6367-4.957 1.75-1.8516-0.88672-2.6367-3.1055-1.75-4.957 2.1914-4.5703 2.6914-9.0625 1.9023-12.82-0.77344-3.6758-2.7891-6.5898-5.6289-8.0195l-0.03125-0.015625c-6.5703-2.9375-13.348-4.957-19.781-6.6133 15.797 72.98 23.773 111.41 24.785 150.96 1.0234 39.879-5.0742 80.41-17.406 158.3 11.191 0.96875 22.125 1.3164 28.699-0.37891 1.9883-0.50781 4.0117 0.69531 4.5195 2.6836 0.50781 1.9883-0.69531 4.0117-2.6836 4.5195-12.184 3.1445-35.453 0.33984-52.129-1.668-6.4766-0.78125-11.941-1.4375-15.039-1.5625-4.1484-0.16406-11.09-0.089843-17.062 1.6055-3.5469 1.0078-6.6836 2.5703-8.4062 4.9727-1.1914 1.6758-3.5156 2.0664-5.1914 0.875s-2.0664-3.5156-0.875-5.1914c2.8555-3.9922 7.4453-6.4062 12.461-7.832 4.4141-1.2539 9.2031-1.7461 13.301-1.8867 40.645-149.23 35.203-178 12.492-297.84-0.46875-2.4805-0.94531-4.9961-1.4297-7.5547-0.32422 0.070312-0.64844 0.14062-0.97266 0.21094-0.41016 0.17578-0.80078 0.35547-1.1719 0.53906-5.543 2.7461-9.6992 7.4609-11.758 13.215-2.082 5.8281-2.0156 12.742 0.92969 19.809 0.29687 0.71094 0.61328 1.4062 0.94531 2.0781 0.91016 1.8438 0.15234 4.0781-1.6914 4.9883-1.8438 0.91016-4.0781 0.15234-4.9883-1.6914-0.42578-0.85938-0.80859-1.6992-1.1484-2.5156-3.707-8.8906-3.7539-17.688-1.0742-25.176 0.94531-2.6406 2.2305-5.1172 3.8125-7.375-5.3555 1.4492-10.766 3.1094-16.117 5.082-0.13281 0.074219-0.27344 0.14453-0.41797 0.20312-0.40625 0.16797-0.78125 0.33984-1.1289 0.51172-4.293 2.1289-7.5156 5.7812-9.1094 10.242-1.6211 4.5352-1.5664 9.9219 0.73438 15.441 0.23438 0.5625 0.48047 1.1094 0.74219 1.6328 0.91016 1.8438 0.15234 4.0781-1.6914 4.9883-1.8438 0.91016-4.0781 0.15234-4.9883-1.6914-0.35156-0.71094-0.66797-1.4023-0.94531-2.0703-3.0586-7.3398-3.0938-14.613-0.87891-20.809 0.074219-0.20703 0.14844-0.41016 0.22656-0.61328-5.2695 2.875-10.352 6.1914-15.125 10.066-2.4492 2.3906-3.9805 5.5156-4.3789 8.9062-0.45703 3.9023 0.57812 8.1875 3.4336 12.172 0.28516 0.39844 0.58594 0.78906 0.89844 1.1758 1.3047 1.5938 1.0703 3.9453-0.52344 5.25-1.5938 1.3047-3.9453 1.0703-5.25-0.52344-0.42188-0.51562-0.82031-1.0312-1.1914-1.5547-3.1445-4.3906-4.707-9.1172-4.9062-13.688-7.9062 9.4648-14.297 21.309-18.328 36.285-0.53125 1.9883-2.5742 3.1719-4.5664 2.6406-1.9883-0.53125-3.1719-2.5742-2.6406-4.5664 15.449-57.414 62.023-71.836 100.16-80.102 0.13672-0.039063 0.27344-0.066407 0.41016-0.089844 2.2578-0.48828 4.4883-0.95703 6.6797-1.4102-1.8203-2.1133-3.6953-4.2891-5.6367-6.4922-0.3125-0.24219-0.59375-0.44922-0.84375-0.62109-4.3086-2.9648-9.5039-4.0938-14.602-3.2461-5.1641 0.85938-10.258 3.7656-14.285 8.875-0.44141 0.55859-0.82812 1.082-1.1641 1.5703-1.168 1.6914-3.4844 2.1172-5.1758 0.94922-1.6914-1.168-2.1172-3.4844-0.94922-5.1758 0.50391-0.73047 0.98047-1.3828 1.4297-1.9492 5.2461-6.6562 12-10.465 18.922-11.617 1.9922-0.33203 4-0.44141 5.9844-0.33594-3.0664-3.1055-6.2891-6.1602-9.6836-9.0742-0.10547-0.066406-0.20703-0.14062-0.30859-0.21875-0.33203-0.26172-0.61328-0.47266-0.84375-0.62891-3.3164-2.2812-7.3125-3.1484-11.234-2.4961-3.9922 0.66406-7.9336 2.918-11.059 6.8828-0.35156 0.44922-0.66016 0.85938-0.91406 1.2305-1.168 1.6914-3.4844 2.1172-5.1758 0.94922s-2.1172-3.4844-0.94922-5.1758c0.42188-0.61328 0.8125-1.1484 1.1758-1.6094 4.1562-5.2734 9.4648-8.3906 14.949-9.4883-4.0664-2.4883-8.3477-4.6875-12.875-6.4922-2.707-0.77734-5.5586-0.61328-8.1484 0.45703-3.0273 1.25-5.7344 3.7578-7.4922 7.4805-0.16797 0.35547-0.33203 0.73438-0.48828 1.1328-0.75 1.918-2.9102 2.8633-4.8281 2.1133s-2.8633-2.9102-2.1133-4.8281c0.21094-0.53906 0.44531-1.0703 0.69141-1.6016 1.8281-3.8711 4.4141-6.8828 7.4219-8.9961-10.121-1.7461-21.312-1.4844-33.766 1.6367-1.9961 0.5-4.0234-0.71484-4.5195-2.7109-0.5-1.9961 0.71484-4.0234 2.7109-4.5195 50.238-12.59 80.91 16.684 103.34 42.152 0.10547 0.10547 0.20312 0.21875 0.29297 0.33203 0.36328 0.41016 0.72266 0.82422 1.0781 1.2344-4.4688-27.984-3.6758-60.418 28.316-86.344 1.5938-1.2969 3.9375-1.0547 5.2344 0.53906s1.0547 3.9375-0.53906 5.2344c-8.8047 7.1367-15 14.887-19.246 22.949 3.0469-0.85156 6.4453-0.99609 10.031-0.25781 0.49219 0.10156 1.0117 0.22656 1.5547 0.375 1.9805 0.53906 3.1484 2.582 2.6094 4.5664-0.53906 1.9805-2.582 3.1484-4.5664 2.6094-0.34375-0.09375-0.70703-0.17969-1.0859-0.25781-3.5938-0.74219-6.8281-0.15234-9.3477 1.3398-2.082 1.2344-3.6836 3.0938-4.5859 5.3281-1.1094 4.0586-1.8438 8.1484-2.2734 12.242 3.7891-3.1289 8.8125-5.1016 14.695-5.2383 0.62109-0.015625 1.2305-0.007812 1.8281 0.015625 2.0547 0.082031 3.6523 1.8125 3.5742 3.8633-0.082031 2.0547-1.8125 3.6523-3.8633 3.5742-0.49219-0.019531-0.95312-0.027343-1.3906-0.015625-4.5078 0.10547-8.2383 1.7148-10.859 4.2148-2.5625 2.4414-4.082 5.7539-4.2305 9.3359-0.015625 0.33594-0.019531 0.65234-0.011719 0.94922v0.17578c0.375 5.8477 1.1602 11.598 2.1289 17.145 1.6797-1.9453 3.3984-3.9297 5.1562-5.9297 0.089843-0.11719 0.1875-0.22656 0.29297-0.33203 27.34-31.051 64.727-66.746 125.84-51.434 1.9961 0.5 3.2109 2.5234 2.7109 4.5195-0.5 1.9961-2.5234 3.2109-4.5195 2.7109-16.27-4.0781-30.789-4.2109-43.844-1.6445 4.3242 2.5156 8.0664 6.4805 10.598 11.84 0.29687 0.62891 0.57031 1.2656 0.82812 1.9062 0.75 1.918-0.19922 4.0781-2.1133 4.8281-1.918 0.75-4.0781-0.19922-4.8281-2.1133-0.19922-0.50391-0.40625-0.98438-0.62109-1.4414-2.2461-4.7617-5.7227-7.9766-9.6211-9.5859-3.4414-1.4219-7.2422-1.6055-10.828-0.50391-6.2422 2.5039-12.105 5.6172-17.633 9.1523 0.44141 0.050781 0.87891 0.11328 1.3203 0.1875 6.8438 1.1406 13.523 4.9062 18.715 11.488 0.44531 0.5625 0.91406 1.2031 1.4102 1.9297 1.168 1.6914 0.74219 4.0078-0.94922 5.1758s-4.0078 0.74219-5.1758-0.94922c-0.33203-0.48047-0.71484-1-1.1484-1.5508-3.9688-5.0352-8.9844-7.8984-14.074-8.7461-5.0195-0.83594-10.137 0.27734-14.383 3.1992-0.30859 0.21094-0.66797 0.48047-1.0742 0.80078-0.12891 0.10156-0.26172 0.19141-0.39844 0.27344-4.7695 4.0977-9.2656 8.4219-13.516 12.812 3.0977-0.37891 6.2539-0.31641 9.3867 0.20312 8.2852 1.3789 16.375 5.9414 22.664 13.926 0.55078 0.69531 1.1211 1.4805 1.7188 2.3477 1.168 1.6914 0.74219 4.0078-0.94922 5.1758-1.6914 1.168-4.0078 0.74219-5.1758-0.94922-0.42969-0.625-0.91797-1.2852-1.457-1.9688-5.0703-6.4336-11.5-10.098-18.027-11.184-6.457-1.0742-13.043 0.35938-18.508 4.1172-0.34375 0.23828-0.72266 0.51562-1.1328 0.83203-2.3477 2.668-4.6172 5.2969-6.8164 7.8555zm-0.82422 7.4492-0.12891-0.03125c0.20703 0.95703 0.41406 1.9062 0.62109 2.8438 0.28516 1.3047 0.56641 2.5859 0.83984 3.8477 0.43359 2.0117-0.84375 4-2.8594 4.4336-2.0117 0.43359-4-0.84375-4.4336-2.8594-0.27344-1.2617-0.55469-2.543-0.83984-3.8477-0.29687-1.3516-0.59766-2.7227-0.89844-4.1172l-0.91406 0.1875c0.49609 2.6133 0.98047 5.1836 1.4609 7.7109 2.4219 12.781 4.6484 24.527 6.6484 35.512 0.92187-0.5625 1.8125-1.2383 2.668-1.9922 2.1211-1.8789 3.9609-4.2188 5.3711-6.6406-2.2852-10.77-4.7969-22.395-7.5352-35.047zm-4.7578 250.71c3.1562 0.52734 6.6055 0.22656 10.047-0.64062 4.5742-1.1562 9.0781-3.3047 12.891-5.8945 2.207-15.535 3.9258-29.184 5.1445-41.688-2.6445 1.1836-5.4102 2.1445-8.1562 2.8008-3.6406 0.86719-7.3047 1.207-10.688 0.83203-2.3438 13.535-5.3984 28.219-9.2422 44.59zm21.574 2.8984c-3.0859 1.5664-6.3828 2.8477-9.7188 3.6914-4.5547 1.1523-9.2109 1.4961-13.59 0.67969-3.6172 14.98-7.8672 31.355-12.797 49.504 3.543 0.24219 8.3984 0.82812 14.008 1.5039 4.1172 0.49609 8.6523 1.043 13.297 1.5352 3.418-21.598 6.3594-40.305 8.7969-56.91zm-11.113-54.855c2.3711 0.20312 5.0273-0.082031 7.7461-0.73047 3.6953-0.87891 7.4102-2.4023 10.66-4.2812 0.91406-11.227 1.3906-21.605 1.4023-31.73-2.0859 1.1758-4.2734 2.1641-6.5 2.8867-3.0938 1.0078-6.2773 1.5078-9.3945 1.3164-0.79688 10.285-2.0859 21.008-3.9141 32.539zm4.4102-39.977c2.125 0.125 4.3672-0.24219 6.5977-0.96875 3.0391-0.98828 6.0273-2.6289 8.6992-4.5938l-0.003906-0.10156c-0.26953-10.59-1.0625-21.137-2.3867-32.359-1.9766 1.3633-4.082 2.5391-6.2539 3.4336-2.1094 0.86719-4.2852 1.4688-6.4766 1.7305 0.48438 10.855 0.44922 21.645-0.17578 32.859zm-0.23438-40.312c1.3438-0.20313 2.7109-0.60547 4.0586-1.1602 2.8555-1.1719 5.6055-3.0078 7.9844-5.1328-1.3828-10.059-3.1719-20.758-5.375-32.562-1.25 1.0742-2.5781 2.0586-3.957 2.918-1.9688 1.2266-4.0586 2.207-6.2188 2.832 1.6133 11.531 2.8008 22.406 3.5078 33.105zm-4.5977-40.582c1.1367-0.42578 2.2695-1 3.3711-1.6836 2.3164-1.4453 4.4492-3.3555 6.2109-5.418-1.5781-8.1016-3.3359-16.727-5.2773-26.004-0.78906 0.875-1.625 1.707-2.4961 2.4766-1.8984 1.6797-3.9883 3.0898-6.2188 4.0898 1.6602 9.3438 3.1367 18.129 4.4102 26.539zm-262.54 102.71h145.96c-4.3711-15.574-13.594-29.121-25.934-38.902-12.914-10.238-29.262-16.355-47.043-16.355-17.883 0-34.316 6.1875-47.273 16.539-12.23 9.7695-21.363 23.242-25.707 38.719zm348.19 125.27c4.9297 0 9.3984 1.9688 12.801 4.6484 4.3008 3.3828 7.0234 8.1367 7.0234 11.742 0 3.8242-2.5703 7.082-6.7266 9.2617-3.4258 1.7969-8.0625 2.9102-13.098 2.9102s-9.6719-1.1133-13.098-2.9102c-4.1562-2.1797-6.7266-5.4375-6.7266-9.2617 0-3.6016 2.7227-8.3594 7.0234-11.742 3.4062-2.6797 7.8711-4.6484 12.801-4.6484zm8.1953 10.512c-2.2305-1.7539-5.1016-3.043-8.1953-3.043s-5.9648 1.2891-8.1953 3.043c-2.5508 2.0039-4.1641 4.3711-4.1641 5.8789 0 0.83594 1.0312 1.7969 2.6992 2.6719 2.3945 1.2578 5.8047 2.0352 9.6562 2.0352 3.8516 0 7.2617-0.77734 9.6562-2.0352 1.668-0.875 2.6992-1.8359 2.6992-2.6719 0-1.5078-1.6133-3.875-4.1641-5.8789zm-52.984 24.777c5.832 0 11.168 1.7227 15.27 4.0703 5.5273 3.1641 9.0312 7.7969 9.0312 11.426 0 3.8789-3.2227 7.043-8.4297 9.0312-4.125 1.5703-9.7383 2.543-15.871 2.543-6.1328 0-11.746-0.97266-15.871-2.543-5.207-1.9844-8.4297-5.1523-8.4297-9.0312 0-3.6289 3.5-8.2617 9.0312-11.426 4.1016-2.3438 9.4375-4.0703 15.27-4.0703zm11.566 10.547c-3.1016-1.7734-7.1445-3.0781-11.566-3.0781s-8.4648 1.3047-11.566 3.0781c-3.2266 1.8438-5.2656 3.8281-5.2656 4.9492 0 0.45312 1.3828 1.207 3.6172 2.0586 3.3203 1.2656 7.9883 2.0508 13.215 2.0508 5.2266 0 9.8945-0.78125 13.215-2.0508 2.2344-0.85156 3.6172-1.6055 3.6172-2.0586 0-1.125-2.043-3.1055-5.2656-4.9492zm-118.52-100.27c4.3047 0 8.1719 1.918 11.098 4.5234 3.5781 3.1875 5.8477 7.6289 5.8477 10.973 0 3.5781-2.1797 6.6602-5.707 8.7539-2.9375 1.7422-6.9141 2.8203-11.238 2.8203-4.3242 0-8.3008-1.0781-11.238-2.8203-3.5273-2.0938-5.707-5.1758-5.707-8.7539 0-3.3438 2.2656-7.7852 5.8477-10.973 2.9258-2.6055 6.793-4.5234 11.098-4.5234zm6.1406 10.094c-1.6992-1.5117-3.8594-2.625-6.1406-2.625s-4.4414 1.1133-6.1406 2.625c-2.043 1.8203-3.3359 3.9922-3.3359 5.4023 0 0.75391 0.77734 1.5898 2.0312 2.3359 1.8438 1.0938 4.4727 1.7734 7.4453 1.7734 2.9727 0 5.6016-0.67578 7.4453-1.7734 1.2539-0.74609 2.0312-1.582 2.0312-2.3359 0-1.4102-1.293-3.582-3.3359-5.4023zm103.34-1.2969c-0.59375-1.1367-0.15234-2.543 0.98437-3.1367 1.1367-0.59375 2.543-0.15234 3.1367 0.98438 3.3711 6.4414 4.8008 11.773 3.5898 15.871-1.3125 4.4375-5.3477 7.1562-12.824 7.9258-1.2773 0.12891-2.4219-0.80078-2.5508-2.0781-0.12891-1.2773 0.80078-2.4219 2.0781-2.5508 5.332-0.54688 8.0977-2.125 8.832-4.6094 0.83594-2.8242-0.42969-7.0352-3.2422-12.406zm4.7305-72.168c-2.0625 0-3.7344-1.6719-3.7344-3.7344s1.6719-3.7344 3.7344-3.7344h101.43c0.17969 0 0.35156 0.011718 0.52344 0.035156 1.5859 0.12891 3.0117 0.82422 4.0664 1.8789 1.1875 1.1875 1.9297 2.8164 1.9297 4.6016v0.015625c0 0.125-0.007813 0.25-0.019531 0.375-0.15625 12.438-5.2031 20.699-13.812 26.039-8.1875 5.0781-19.535 7.2656-32.859 7.8203-32.012 1.332-46.57 4.3867-50.922 10.535-3.8477 5.4375 0.96484 15.551 8.2109 30.582 6.7812 14.059 5.0898 22.832-2.2812 28.457-6.582 5.0234-17.785 6.7969-31.383 7.4805-2.0547 0.097656-3.7969-1.4883-3.8945-3.543-0.097657-2.0547 1.4883-3.7969 3.543-3.8945 12.219-0.61328 22.086-2.0547 27.211-5.9609 4.332-3.3047 4.9727-9.1836 0.09375-19.301-8.3867-17.387-13.934-29.117-7.5703-38.105 5.8555-8.2773 22.074-12.246 56.695-13.688 12.121-0.50391 22.27-2.3906 29.242-6.7148 6.2578-3.8789 9.9883-9.957 10.27-19.148h-100.48zm-95.16 102.53c2.0547 0.023437 3.6992 1.707 3.6758 3.7617-0.023437 2.0547-1.707 3.6992-3.7617 3.6758l-28.383-0.42578c-7.4297-0.11328-13.121 1.1562-16.934 3.4844-3.418 2.0859-5.2422 5.1094-5.3242 8.7578-0.23828 10.656 7.0273 16.191 13.5 21.113 6.168 4.6953 11.762 8.9531 12.238 16.555 0.29688 4.7148-2.1133 8.1289-6.9102 10.988-3.8711 2.3086-9.375 4.2422-16.395 6.3672-4.1523 1.2578-7.4141 3.0234-9.4648 5.0508-1.1758 1.1641-1.8984 2.3516-2.0781 3.4961-0.16016 1.0352 0.12891 2.1797 0.94922 3.3828 1.2148 1.7812 3.4531 3.6094 6.8906 5.3906 2.3867 1.2344 4.9727 2.4102 7.6953 3.5 2.7695 1.1055 5.707 2.1367 8.7578 3.0703 10.156 3.1094 17.473 7.707 21.336 12.809 2.4336 3.2109 3.582 6.6562 3.3359 10.148-0.24609 3.4883-1.8633 6.8516-4.9648 9.8906-5.0234 4.918-14.254 9.1133-28.238 11.527-12.578 2.168-28.848 3.6133-46.84 4.5547-17.812 0.93359-37.434 1.3711-56.871 1.5312-27.566 0.22656-54.652-0.10547-75.668-0.36719-13.23-0.16406-24.051-0.29687-31.02-0.24219-2.0547 0.015625-3.7305-1.6367-3.7461-3.6914-0.015625-2.0547 1.6367-3.7305 3.6914-3.7461 7.0586-0.054687 17.906 0.078125 31.164 0.24219 20.992 0.25781 48.043 0.59375 75.523 0.36719 19.215-0.16016 38.695-0.59375 56.551-1.5312 17.672-0.92578 33.637-2.3438 45.965-4.4688 12.387-2.1367 20.273-5.5703 24.273-9.4844 1.7383-1.7031 2.6328-3.4219 2.75-5.0781 0.11719-1.6523-0.52344-3.4062-1.8516-5.1602-2.9609-3.9102-8.9609-7.5547-17.543-10.184-3.2539-0.99609-6.3906-2.0977-9.3398-3.2773-3.0352-1.2109-5.8477-2.4844-8.3672-3.7891-4.6016-2.3828-7.75-5.0469-9.6328-7.8125-1.9453-2.8555-2.5977-5.8125-2.1484-8.7188 0.4375-2.8008 1.8867-5.3984 4.1797-7.6641 2.8984-2.8672 7.2305-5.2773 12.559-6.8906 6.5391-1.9805 11.562-3.7227 14.73-5.6094 2.2422-1.3359 3.3867-2.6445 3.293-4.1328-0.26562-4.207-4.5703-7.4844-9.3242-11.102-7.8828-6-16.738-12.742-16.414-27.184 0.14062-6.3242 3.1836-11.492 8.8828-14.969 4.9727-3.0352 12.012-4.6992 20.898-4.5664l28.383 0.42578z"/>
  <use x="70" y="560.140625" xlink:href="#w"/>
  <use x="70.035156" y="560.140625" xlink:href="#e"/>
  <use x="70.058594" y="560.140625" xlink:href="#b"/>
  <use x="70.089844" y="560.140625" xlink:href="#a"/>
  <use x="70.121094" y="560.140625" xlink:href="#d"/>
  <use x="70.144531" y="560.140625" xlink:href="#b"/>
  <use x="70.175781" y="560.140625" xlink:href="#l"/>
  <use x="70.222656" y="560.140625" xlink:href="#k"/>
  <use x="70.257812" y="560.140625" xlink:href="#j"/>
  <use x="70.304688" y="560.140625" xlink:href="#i"/>
  <use x="70.34375" y="560.140625" xlink:href="#v"/>
  <use x="70.359375" y="560.140625" xlink:href="#b"/>
  <use x="70.390625" y="560.140625" xlink:href="#f"/>
  <use x="70.425781" y="560.140625" xlink:href="#a"/>
  <use x="70.472656" y="560.140625" xlink:href="#h"/>
  <use x="70.507812" y="560.140625" xlink:href="#a"/>
  <use x="70.539062" y="560.140625" xlink:href="#f"/>
  <use x="70.570312" y="560.140625" xlink:href="#a"/>
  <use x="70.601562" y="560.140625" xlink:href="#g"/>
  <use x="70.628906" y="560.140625" xlink:href="#c"/>
  <use x="70.664062" y="560.140625" xlink:href="#u"/>
  <use x="70.691406" y="560.140625" xlink:href="#g"/>
  <use x="70.722656" y="560.140625" xlink:href="#t"/>
  <use x="70.75" y="560.140625" xlink:href="#a"/>
  <use x="70" y="560.1875" xlink:href="#s"/>
  <use x="70.019531" y="560.1875" xlink:href="#e"/>
  <use x="70.042969" y="560.1875" xlink:href="#c"/>
  <use x="70.074219" y="560.1875" xlink:href="#r"/>
  <use x="70.140625" y="560.1875" xlink:href="#d"/>
  <use x="70.164062" y="560.1875" xlink:href="#q"/>
  <use x="70.195312" y="560.1875" xlink:href="#b"/>
  <use x="70.242188" y="560.1875" xlink:href="#p"/>
  <use x="70.28125" y="560.1875" xlink:href="#c"/>
  <use x="70.316406" y="560.1875" xlink:href="#o"/>
  <use x="70.347656" y="560.1875" xlink:href="#f"/>
  <use x="70.398438" y="560.1875" xlink:href="#h"/>
  <use x="70.433594" y="560.1875" xlink:href="#e"/>
  <use x="70.453125" y="560.1875" xlink:href="#c"/>
  <use x="70.488281" y="560.1875" xlink:href="#n"/>
  <use x="70.503906" y="560.1875" xlink:href="#b"/>
  <use x="70.535156" y="560.1875" xlink:href="#m"/>
  <use x="70.5625" y="560.1875" xlink:href="#d"/>
 </g>
</svg>
