<?xml version="1.0" encoding="UTF-8"?>
<svg width="700pt" height="700pt" version="1.1" viewBox="0 0 700 700" xmlns="http://www.w3.org/2000/svg" xmlns:xlink="http://www.w3.org/1999/xlink">
 <defs>
  <symbol id="v" overflow="visible">
   <path d="m3.9375-0.23438c-0.21094 0.10547-0.42188 0.18359-0.64062 0.23438s-0.44922 0.078125-0.6875 0.078125c-0.71094 0-1.2734-0.19531-1.6875-0.59375-0.41797-0.39453-0.625-0.9375-0.625-1.625s0.20703-1.2266 0.625-1.625c0.41406-0.39453 0.97656-0.59375 1.6875-0.59375 0.23828 0 0.46875 0.027344 0.6875 0.078125 0.21875 0.054688 0.42969 0.13281 0.64062 0.23438v0.89062c-0.21094-0.13281-0.41406-0.23438-0.60938-0.29688-0.19922-0.070313-0.40625-0.10938-0.625-0.10938-0.39844 0-0.71094 0.13281-0.9375 0.39062-0.21875 0.25-0.32812 0.59375-0.32812 1.0312 0 0.44922 0.10938 0.79688 0.32812 1.0469 0.22656 0.25 0.53906 0.375 0.9375 0.375 0.21875 0 0.42578-0.03125 0.625-0.09375 0.19531-0.0625 0.39844-0.16406 0.60938-0.3125z"/>
  </symbol>
  <symbol id="d" overflow="visible">
   <path d="m2.875-2.3438c-0.085938-0.039062-0.17188-0.070312-0.26562-0.09375-0.085937-0.019531-0.17188-0.03125-0.26562-0.03125-0.26172 0-0.46484 0.089844-0.60938 0.26562-0.14844 0.16797-0.21875 0.40625-0.21875 0.71875v1.4844h-1.0156v-3.2188h1.0156v0.53125c0.13281-0.20703 0.28516-0.35938 0.45312-0.45312 0.17578-0.10156 0.38281-0.15625 0.625-0.15625 0.03125 0 0.066406 0.007813 0.10938 0.015625 0.039063 0 0.097656 0.007812 0.17188 0.015625z"/>
  </symbol>
  <symbol id="b" overflow="visible">
   <path d="m3.7031-1.6094v0.28125h-2.4062c0.03125 0.24219 0.11719 0.42188 0.26562 0.54688 0.14453 0.125 0.35156 0.1875 0.625 0.1875 0.21875 0 0.4375-0.03125 0.65625-0.09375 0.22656-0.070312 0.46094-0.17188 0.70312-0.29688v0.79688c-0.24219 0.085938-0.48438 0.14844-0.73438 0.1875-0.24219 0.050781-0.48047 0.078125-0.71875 0.078125-0.58594 0-1.0391-0.14453-1.3594-0.4375-0.32422-0.28906-0.48438-0.70703-0.48438-1.25 0-0.51953 0.15625-0.92969 0.46875-1.2344 0.32031-0.30078 0.75781-0.45312 1.3125-0.45312 0.50781 0 0.91406 0.15625 1.2188 0.46875 0.30078 0.30469 0.45312 0.71094 0.45312 1.2188zm-1.0625-0.34375c0-0.19531-0.058594-0.35156-0.17188-0.46875-0.11719-0.125-0.26172-0.1875-0.4375-0.1875-0.19922 0-0.35938 0.058594-0.48438 0.17188-0.125 0.11719-0.20312 0.27734-0.23438 0.48438z"/>
  </symbol>
  <symbol id="l" overflow="visible">
   <path d="m1.9375-1.4531c-0.21875 0-0.38672 0.039063-0.5 0.10938-0.10547 0.074219-0.15625 0.18359-0.15625 0.32812 0 0.125 0.039062 0.23047 0.125 0.3125 0.09375 0.074219 0.21875 0.10938 0.375 0.10938 0.19531 0 0.35938-0.066406 0.48438-0.20312 0.13281-0.14453 0.20312-0.32031 0.20312-0.53125v-0.125zm1.5625-0.375v1.8281h-1.0312v-0.46875c-0.13672 0.1875-0.29297 0.32812-0.46875 0.42188-0.16797 0.082031-0.375 0.125-0.625 0.125-0.33594 0-0.60547-0.09375-0.8125-0.28125-0.21094-0.19531-0.3125-0.45312-0.3125-0.76562 0-0.375 0.12891-0.64844 0.39062-0.82812 0.25781-0.17578 0.66406-0.26562 1.2188-0.26562h0.60938v-0.078125c0-0.15625-0.070312-0.26953-0.20312-0.34375-0.125-0.082031-0.32422-0.125-0.59375-0.125-0.21875 0-0.42188 0.027344-0.60938 0.078125-0.1875 0.042969-0.36719 0.10547-0.53125 0.1875v-0.78125c0.21875-0.050781 0.4375-0.09375 0.65625-0.125 0.22656-0.03125 0.45312-0.046875 0.67188-0.046875 0.58203 0 1 0.11719 1.25 0.34375 0.25781 0.23047 0.39062 0.60547 0.39062 1.125z"/>
  </symbol>
  <symbol id="a" overflow="visible">
   <path d="m1.6094-4.125v0.90625h1.0625v0.73438h-1.0625v1.375c0 0.14844 0.03125 0.24609 0.09375 0.29688 0.0625 0.054688 0.17969 0.078125 0.35938 0.078125h0.51562v0.73438h-0.875c-0.40625 0-0.69531-0.082031-0.85938-0.25-0.16797-0.16406-0.25-0.45312-0.25-0.85938v-1.375h-0.51562v-0.73438h0.51562v-0.90625z"/>
  </symbol>
  <symbol id="f" overflow="visible">
   <path d="m2.6719-2.75v-1.7188h1.0469v4.4688h-1.0469v-0.46875c-0.13672 0.1875-0.29297 0.32812-0.46875 0.42188-0.16797 0.082031-0.35938 0.125-0.57812 0.125-0.39844 0-0.72656-0.15625-0.98438-0.46875-0.25-0.3125-0.375-0.71875-0.375-1.2188 0-0.48828 0.125-0.89062 0.375-1.2031 0.25781-0.32031 0.58594-0.48438 0.98438-0.48438 0.21875 0 0.41016 0.046875 0.57812 0.14062 0.17578 0.085938 0.33203 0.21875 0.46875 0.40625zm-0.67188 2.0938c0.21875 0 0.38281-0.078125 0.5-0.23438 0.11328-0.16406 0.17188-0.40625 0.17188-0.71875 0-0.30078-0.058594-0.53125-0.17188-0.6875-0.11719-0.16406-0.28125-0.25-0.5-0.25s-0.38672 0.085937-0.5 0.25c-0.11719 0.15625-0.17188 0.38672-0.17188 0.6875 0 0.3125 0.054687 0.55469 0.17188 0.71875 0.11328 0.15625 0.28125 0.23438 0.5 0.23438z"/>
  </symbol>
  <symbol id="k" overflow="visible">
   <path d="m2.2031-0.65625c0.21875 0 0.38281-0.078125 0.5-0.23438 0.11328-0.16406 0.17188-0.40625 0.17188-0.71875 0-0.30078-0.058594-0.53125-0.17188-0.6875-0.11719-0.16406-0.28125-0.25-0.5-0.25s-0.39062 0.085937-0.51562 0.25c-0.11719 0.15625-0.17188 0.38672-0.17188 0.6875 0 0.3125 0.054687 0.55469 0.17188 0.71875 0.125 0.15625 0.29688 0.23438 0.51562 0.23438zm-0.6875-2.0938c0.14453-0.1875 0.30078-0.32031 0.46875-0.40625 0.17578-0.09375 0.375-0.14062 0.59375-0.14062 0.39453 0 0.71875 0.16406 0.96875 0.48438 0.25781 0.3125 0.39062 0.71484 0.39062 1.2031 0 0.5-0.13281 0.90625-0.39062 1.2188-0.25 0.3125-0.57422 0.46875-0.96875 0.46875-0.21875 0-0.41797-0.042969-0.59375-0.125-0.16797-0.09375-0.32422-0.23438-0.46875-0.42188v0.46875h-1.0156v-4.4688h1.0156z"/>
  </symbol>
  <symbol id="e" overflow="visible">
   <path d="m0.078125-3.2188h1.0156l0.875 2.1875 0.73438-2.1875h1.0156l-1.3438 3.5156c-0.13672 0.36328-0.29688 0.61328-0.48438 0.75-0.17969 0.14453-0.41406 0.21875-0.70312 0.21875h-0.59375v-0.67188h0.3125c0.17578 0 0.30078-0.03125 0.375-0.09375 0.082031-0.054688 0.14453-0.14844 0.1875-0.28125l0.03125-0.09375z"/>
  </symbol>
  <symbol id="j" overflow="visible">
   <path d="m3.1406-0.78125h-1.7344l-0.26562 0.78125h-1.1094l1.5781-4.2812h1.3281l1.5781 4.2812h-1.1094zm-1.4531-0.79688h1.1719l-0.57812-1.7031z"/>
  </symbol>
  <symbol id="i" overflow="visible">
   <path d="m3.4688-2.6719c0.13281-0.20703 0.28906-0.36328 0.46875-0.46875 0.17578-0.10156 0.375-0.15625 0.59375-0.15625 0.36328 0 0.64062 0.11719 0.82812 0.34375 0.19531 0.23047 0.29688 0.5625 0.29688 1v1.9531h-1.0312v-1.6719-0.078125-0.125c0-0.21875-0.039062-0.37891-0.10938-0.48438-0.0625-0.10156-0.16797-0.15625-0.3125-0.15625-0.19922 0-0.35156 0.085937-0.45312 0.25-0.10547 0.15625-0.15625 0.38672-0.15625 0.6875v1.5781h-1.0312v-1.6719c0-0.35156-0.03125-0.58203-0.09375-0.6875-0.0625-0.10156-0.17188-0.15625-0.32812-0.15625-0.19922 0-0.35547 0.085937-0.46875 0.25-0.10547 0.15625-0.15625 0.38672-0.15625 0.6875v1.5781h-1.0312v-3.2188h1.0312v0.46875c0.125-0.17578 0.26953-0.3125 0.4375-0.40625 0.16406-0.09375 0.34766-0.14062 0.54688-0.14062 0.21875 0 0.41016 0.058594 0.57812 0.17188 0.17578 0.10547 0.30469 0.25781 0.39062 0.45312z"/>
  </symbol>
  <symbol id="h" overflow="visible">
   <path d="m3.7188-1.9531v1.9531h-1.0312v-1.4844c0-0.28125-0.007812-0.47266-0.015625-0.57812-0.011719-0.11328-0.03125-0.19141-0.0625-0.23438-0.042969-0.070313-0.10156-0.125-0.17188-0.15625-0.0625-0.039063-0.14062-0.0625-0.23438-0.0625-0.21094 0-0.375 0.085937-0.5 0.25-0.125 0.16797-0.1875 0.39844-0.1875 0.6875v1.5781h-1.0156v-4.4688h1.0156v1.7188c0.15625-0.1875 0.32031-0.32031 0.5-0.40625 0.17578-0.09375 0.36719-0.14062 0.57812-0.14062 0.36328 0 0.64062 0.11719 0.82812 0.34375 0.19531 0.23047 0.29688 0.5625 0.29688 1z"/>
  </symbol>
  <symbol id="u" overflow="visible">
   <path d="m3-3.1094v0.78125c-0.21875-0.09375-0.43359-0.16016-0.64062-0.20312-0.19922-0.050781-0.39062-0.078125-0.57812-0.078125s-0.33594 0.027344-0.4375 0.078125c-0.09375 0.042969-0.14062 0.11719-0.14062 0.21875 0 0.085938 0.035156 0.15234 0.10938 0.20312 0.070312 0.042969 0.20312 0.074219 0.39062 0.09375l0.1875 0.015625c0.51953 0.074219 0.86719 0.1875 1.0469 0.34375 0.1875 0.14844 0.28125 0.38281 0.28125 0.70312 0 0.34375-0.125 0.60547-0.375 0.78125-0.25 0.16797-0.63281 0.25-1.1406 0.25-0.21094 0-0.42969-0.015625-0.65625-0.046875-0.21875-0.03125-0.44922-0.082031-0.6875-0.15625v-0.76562c0.19531 0.09375 0.40625 0.16797 0.625 0.21875 0.21875 0.054687 0.4375 0.078125 0.65625 0.078125 0.19531 0 0.34766-0.023438 0.45312-0.078125 0.10156-0.0625 0.15625-0.14453 0.15625-0.25 0-0.09375-0.039062-0.16016-0.10938-0.20312-0.074219-0.050781-0.21484-0.085938-0.42188-0.10938l-0.17188-0.03125c-0.46094-0.050781-0.78125-0.15625-0.96875-0.3125s-0.28125-0.39062-0.28125-0.70312c0-0.34375 0.11328-0.59766 0.34375-0.76562 0.23828-0.16406 0.60156-0.25 1.0938-0.25 0.1875 0 0.38281 0.015625 0.59375 0.046875 0.20703 0.03125 0.42969 0.078125 0.67188 0.14062z"/>
  </symbol>
  <symbol id="t" overflow="visible">
   <path d="m3.5156-4.1406v0.90625c-0.23047-0.11328-0.46094-0.19531-0.6875-0.25-0.21875-0.050781-0.42969-0.078125-0.625-0.078125-0.27344 0-0.46875 0.039062-0.59375 0.10938-0.125 0.074219-0.1875 0.1875-0.1875 0.34375 0 0.11719 0.039063 0.20312 0.125 0.26562 0.082031 0.0625 0.23828 0.12109 0.46875 0.17188l0.46875 0.09375c0.47656 0.09375 0.81641 0.24219 1.0156 0.4375 0.19531 0.1875 0.29688 0.46484 0.29688 0.82812 0 0.46875-0.14062 0.82031-0.42188 1.0469-0.28125 0.23047-0.71094 0.34375-1.2812 0.34375-0.27344 0-0.54297-0.027344-0.8125-0.078125-0.27344-0.050781-0.54688-0.125-0.82812-0.21875v-0.9375c0.28125 0.14844 0.54688 0.25781 0.79688 0.32812 0.25781 0.074219 0.50391 0.10938 0.73438 0.10938 0.25 0 0.4375-0.035156 0.5625-0.10938 0.125-0.082031 0.1875-0.20312 0.1875-0.35938 0-0.125-0.046875-0.22266-0.14062-0.29688-0.085938-0.070313-0.25781-0.14062-0.51562-0.20312l-0.42188-0.09375c-0.42969-0.09375-0.74219-0.23828-0.9375-0.4375-0.19922-0.19531-0.29688-0.46875-0.29688-0.8125 0-0.42578 0.13281-0.75391 0.40625-0.98438 0.28125-0.22656 0.67578-0.34375 1.1875-0.34375 0.23828 0 0.48438 0.023437 0.73438 0.0625 0.25 0.03125 0.50391 0.085937 0.76562 0.15625z"/>
  </symbol>
  <symbol id="g" overflow="visible">
   <path d="m0.45312-1.25v-1.9688h1.0312v0.32812 0.65625 0.53125c0 0.25 0.003906 0.43359 0.015625 0.54688 0.019531 0.11719 0.046875 0.19922 0.078125 0.25 0.039063 0.074219 0.09375 0.13281 0.15625 0.17188 0.070313 0.03125 0.14844 0.046875 0.23438 0.046875 0.21875 0 0.38281-0.082031 0.5-0.25 0.125-0.16406 0.1875-0.39453 0.1875-0.6875v-1.5938h1.0312v3.2188h-1.0312v-0.46875c-0.14844 0.1875-0.30859 0.32812-0.48438 0.42188-0.17969 0.082031-0.37109 0.125-0.57812 0.125-0.36719 0-0.64844-0.10938-0.84375-0.32812-0.19922-0.22656-0.29688-0.5625-0.29688-1z"/>
  </symbol>
  <symbol id="s" overflow="visible">
   <path d="m0.5-3.2188h1.0156v3.2188h-1.0156zm0-1.25h1.0156v0.84375h-1.0156z"/>
  </symbol>
  <symbol id="c" overflow="visible">
   <path d="m2.0156-2.5625c-0.21875 0-0.39062 0.085938-0.51562 0.25-0.11719 0.16797-0.17188 0.40234-0.17188 0.70312 0 0.3125 0.054687 0.55469 0.17188 0.71875 0.125 0.15625 0.29688 0.23438 0.51562 0.23438 0.22656 0 0.39844-0.078125 0.51562-0.23438 0.125-0.16406 0.1875-0.40625 0.1875-0.71875 0-0.30078-0.0625-0.53516-0.1875-0.70312-0.11719-0.16406-0.28906-0.25-0.51562-0.25zm0-0.73438c0.55078 0 0.98438 0.15234 1.2969 0.45312 0.3125 0.30469 0.46875 0.71484 0.46875 1.2344 0 0.53125-0.15625 0.94922-0.46875 1.25-0.3125 0.29297-0.74609 0.4375-1.2969 0.4375-0.55469 0-0.98438-0.14453-1.2969-0.4375-0.3125-0.30078-0.46875-0.71875-0.46875-1.25 0-0.51953 0.15625-0.92969 0.46875-1.2344 0.3125-0.30078 0.74219-0.45312 1.2969-0.45312z"/>
  </symbol>
  <symbol id="r" overflow="visible">
   <path d="m2.6094-4.4688v0.67188h-0.5625c-0.14844 0-0.25 0.03125-0.3125 0.09375-0.054687 0.054687-0.078125 0.14062-0.078125 0.26562v0.21875h0.875v0.73438h-0.875v2.4844h-1.0312v-2.4844h-0.51562v-0.73438h0.51562v-0.21875c0-0.35156 0.09375-0.61328 0.28125-0.78125 0.19531-0.16406 0.50391-0.25 0.92188-0.25z"/>
  </symbol>
  <symbol id="q" overflow="visible">
   <path d="m0.54688-4.2812h1.2188l1.5625 2.9375v-2.9375h1.0469v4.2812h-1.2344l-1.5469-2.9375v2.9375h-1.0469z"/>
  </symbol>
  <symbol id="p" overflow="visible">
   <path d="m3.7188-1.9531v1.9531h-1.0312v-1.5c0-0.26953-0.007812-0.45703-0.015625-0.5625-0.011719-0.11328-0.03125-0.19141-0.0625-0.23438-0.042969-0.070313-0.10156-0.125-0.17188-0.15625-0.0625-0.039063-0.14062-0.0625-0.23438-0.0625-0.21094 0-0.375 0.085937-0.5 0.25-0.125 0.16797-0.1875 0.39844-0.1875 0.6875v1.5781h-1.0156v-3.2188h1.0156v0.46875c0.15625-0.1875 0.32031-0.32031 0.5-0.40625 0.17578-0.09375 0.36719-0.14062 0.57812-0.14062 0.36328 0 0.64062 0.11719 0.82812 0.34375 0.19531 0.23047 0.29688 0.5625 0.29688 1z"/>
  </symbol>
  <symbol id="o" overflow="visible">
   <path d="m0.54688-4.2812h1.8281c0.53906 0 0.95703 0.12109 1.25 0.35938 0.28906 0.24219 0.4375 0.58594 0.4375 1.0312 0 0.44922-0.14844 0.79688-0.4375 1.0469-0.29297 0.24219-0.71094 0.35938-1.25 0.35938h-0.73438v1.4844h-1.0938zm1.0938 0.79688v1.2031h0.60938c0.21875 0 0.38281-0.050781 0.5-0.15625 0.11328-0.10156 0.17188-0.25391 0.17188-0.45312 0-0.1875-0.058594-0.33203-0.17188-0.4375-0.11719-0.10156-0.28125-0.15625-0.5-0.15625z"/>
  </symbol>
  <symbol id="n" overflow="visible">
   <path d="m0.5-3.2188h1.0156v3.1562c0 0.4375-0.10547 0.76562-0.3125 0.98438-0.19922 0.22656-0.49609 0.34375-0.89062 0.34375h-0.5v-0.67188h0.17188c0.19531 0 0.33203-0.046875 0.40625-0.14062 0.070313-0.085937 0.10938-0.25781 0.10938-0.51562zm0-1.25h1.0156v0.84375h-1.0156z"/>
  </symbol>
  <symbol id="m" overflow="visible">
   <path d="m3.0938-3.1094v0.82812c-0.14844-0.09375-0.29297-0.16016-0.4375-0.20312-0.13672-0.050781-0.27734-0.078125-0.42188-0.078125-0.29297 0-0.51562 0.089844-0.67188 0.26562-0.15625 0.16797-0.23438 0.39844-0.23438 0.6875 0 0.30469 0.078125 0.53906 0.23438 0.70312 0.15625 0.16797 0.37891 0.25 0.67188 0.25 0.15625 0 0.30469-0.019531 0.45312-0.0625 0.14453-0.050781 0.28125-0.125 0.40625-0.21875v0.84375c-0.16797 0.0625-0.33594 0.10156-0.5 0.125-0.15625 0.03125-0.32031 0.046875-0.48438 0.046875-0.58594 0-1.043-0.14453-1.375-0.4375-0.32422-0.30078-0.48438-0.71875-0.48438-1.25 0-0.51953 0.16016-0.92969 0.48438-1.2344 0.33203-0.30078 0.78906-0.45312 1.375-0.45312 0.16406 0 0.32812 0.015625 0.48438 0.046875 0.16406 0.03125 0.33203 0.078125 0.5 0.14062z"/>
  </symbol>
 </defs>
 <g>
  <path d="m294.01 104.89c6.457 0 12.789-0.81641 18.527-2.3711 7.0586 9.2773 19.656 15.102 33.191 15.102 13.285 0 25.332-5.3555 32.516-14.223 5.8281 2.6992 12.383 4.1133 19.203 4.1133 11.117 0 21.629-3.8672 28.977-10.512 5.7891 3.8359 12.891 5.9062 20.43 5.9062 0.71875 0 1.4258-0.039062 2.1367-0.078125-1.0508 3.4336-1.6094 7.0234-1.6094 10.668 0 0.58984 0.015625 1.1836 0.042969 1.7734-2.9531-0.39844-5.9727-0.59766-9.0352-0.59766-23.906 0-42.633 12.031-42.633 27.391 0 15.367 18.727 27.402 42.633 27.402 12.691 0 24.422-3.4648 32.41-9.4258 8.7227 7.7266 21.812 12.23 36.02 12.23 11.828 0 23.062-3.1836 31.57-8.8398 5.8672 6.2852 14.113 9.9219 22.859 9.9219 9.6797 0 18.852-4.582 24.734-12.168 5.4062 1.5586 11.301 2.375 17.25 2.375 23.91 0 42.645-12.445 42.645-28.332 0-10.754-8.8008-20.332-22.758-25.141 0.03125-0.57812 0.050781-1.1523 0.050781-1.7227 0-17.254-14.035-31.289-31.289-31.289-2.8477 0-5.6406 0.37891-8.3438 1.1367-4.3398-21.367-23.32-37.32-45.688-37.32-22.207 0-41.234 15.91-45.656 37.16-4.0508-0.95703-8.2852-1.1914-12.434-0.73047 0.054688-0.64453 0.089844-1.293 0.089844-1.9453 0-14.508-13.52-26.434-30.598-27.461-0.125-15.094-14.879-27.336-32.992-27.336-3.1797 0-6.3125 0.38281-9.3594 1.1406-6.2852-13.16-19.355-21.723-33.793-21.723-18.383 0-33.645 13.418-37 31.492-3.0156-0.70703-6.168-1.0742-9.3281-1.0742-17.668 0-32.043 11.141-32.043 24.832v0.17969c-0.24219-0.003907-0.48438-0.003907-0.73047-0.003907-23.887 0-42.594 10.859-42.594 24.727 0 13.875 18.711 24.742 42.598 24.742zm180.84-16.895c6.2227-2.1992 13.23-2.0078 19.391 0.5625 1.3906 0.57812 2.9727 0.46094 4.2578-0.32812 1.2852-0.78516 2.1172-2.1406 2.2305-3.6445 1.4961-19.238 17.797-34.309 37.117-34.309 19.562 0 35.879 15.273 37.148 34.777 0.10156 1.582 0.99609 3.0039 2.3711 3.7812 1.3789 0.78125 3.0586 0.8125 4.4648 0.085937 3.1641-1.6328 6.543-2.4609 10.047-2.4609 12.074 0 21.898 9.8242 21.898 21.898 0 1.3672-0.13672 2.7773-0.41016 4.1836-0.46875 2.4258 1.0273 4.8008 3.418 5.4297 11.781 3.0938 19.695 10.027 19.695 17.25 0 10.266-15.227 18.938-33.25 18.938-6.1758 0-12.238-1.0195-17.531-2.9453-2.1211-0.76953-4.4883 0.074219-5.6406 2.0078-4.0039 6.7188-11.035 10.727-18.812 10.727-7.2812 0-14.066-3.6016-18.148-9.6406-0.74609-1.1055-1.9297-1.8398-3.25-2.0234-0.21484-0.03125-0.42578-0.042968-0.64062-0.042968-1.1055 0-2.1836 0.39062-3.0391 1.1133-7.1289 6.043-17.828 9.5117-29.355 9.5117-13.254 0-25.605-4.7227-32.234-12.328-0.85547-0.98438-2.0859-1.5664-3.3867-1.6055-1.2891-0.042969-2.5664 0.46094-3.4844 1.3867-5.9648 6.0117-17.199 9.7422-29.32 9.7422-18.02 0-33.238-8.25-33.238-18.012 0-9.7578 15.223-18 33.238-18 4.668 0 9.207 0.53906 13.488 1.5977 1.5977 0.39844 3.2852-0.070313 4.4492-1.2344 1.1641-1.1641 1.6367-2.8516 1.2422-4.4492-0.52344-2.125-0.79297-4.3086-0.79297-6.4805 0-5.0703 1.4102-10.004 4.0742-14.266 0-0.003906 0.003906-0.003906 0.003906-0.007812 3.2539-5.1992 8.2188-9.1875 14-11.215zm-180.84-23.18c1.9258 0 3.875 0.085938 5.9648 0.26563 1.6094 0.14062 3.1562-0.55078 4.1289-1.8242 0.97266-1.2734 1.2305-2.957 0.68359-4.4609-0.4375-1.1914-0.65625-2.3867-0.65625-3.5469 0-8.3672 10.371-15.438 22.648-15.438 4.0469 0 8.0469 0.76953 11.566 2.2266 1.4219 0.58594 3.0391 0.44141 4.3359-0.39062 1.2969-0.83203 2.0977-2.2461 2.1523-3.7852 0.5625-15.969 12.98-28.473 28.273-28.473 11.918 0 22.621 7.8828 26.637 19.613 0.41406 1.2031 1.2969 2.1914 2.4492 2.7305 1.1523 0.53906 2.4727 0.58984 3.6641 0.13672 3.3164-1.2617 6.8164-1.9023 10.398-1.9023 13.012 0 23.602 8.1367 23.602 18.141 0 1.1602-0.14062 2.2969-0.41797 3.3789-0.375 1.4648-0.023438 3.0195 0.94922 4.1797 0.97266 1.1602 2.4219 1.7812 3.9492 1.668 0.96094-0.070313 1.7617-0.10547 2.5195-0.10547 13.012 0 23.598 8.1367 23.598 18.141 0 1.5586-0.26172 3.0938-0.76953 4.582-6.3047 2.6562-11.766 7.0742-15.703 12.695-2.2891 0.5625-4.6758 0.86328-7.1289 0.86328-6.7773 0-13.258-2.293-17.777-6.2891-0.94531-0.83594-2.1797-1.2617-3.4453-1.1641-1.2578 0.089844-2.4297 0.68359-3.2461 1.6445-5.5312 6.5195-14.855 10.41-24.938 10.41-6.6758 0-12.988-1.668-18.25-4.8242-1.0703-0.64062-2.3477-0.83203-3.5547-0.52734s-2.2461 1.0742-2.8867 2.1406c-4.8516 8.0938-15.457 13.32-27.027 13.32-11.723 0-22.387-5.3281-27.168-13.57-1.1211-1.9336-3.4492-2.8125-5.5742-2.0898-5.6406 1.918-12.203 2.9336-18.977 2.9336-19.566 0-33.203-8.0859-33.203-15.344 0-7.2539 13.637-15.336 33.203-15.336z"/>
  <path d="m62.09 30.766c5.2266-5.0625 12.824-7.9648 20.84-7.9648 13.648 0 25.324 8.4141 27.16 19.57 0.20703 1.2617 0.91797 2.3828 1.9688 3.1055 1.0508 0.72266 2.3516 0.98828 3.6016 0.73438 2.0977-0.42969 4.2617-0.64453 6.4336-0.64453 15.109 0 27.406 10.148 27.406 22.625 0 3.5469-0.98047 6.957-2.9102 10.137-1.043 1.7188-0.87891 3.9102 0.41016 5.4531s3.4141 2.0938 5.293 1.3711c4.1914-1.6133 8.9844-2.4688 13.855-2.4688 14.855 0 27.402 8.0117 27.402 17.492 0 9.4844-12.547 17.492-27.402 17.492-8.3594 0-16.191-2.4648-21.484-6.7656-1.0547-0.85547-2.4258-1.2148-3.7695-0.98047-1.3398 0.23438-2.5117 1.0352-3.2148 2.2031-4.3555 7.2227-13.031 11.711-22.641 11.711-7.668 0-14.844-2.8711-19.684-7.8789-1.7656-1.8242-4.6562-1.918-6.5352-0.21094-4.9297 4.4844-11.551 6.9492-18.633 6.9492-3.3867 0-6.6797-0.5625-9.7812-1.6758-2.4414-0.87109-5.1289 0.39844-6.0039 2.8398s0.39844 5.1289 2.8398 6.0039c4.1211 1.4766 8.4805 2.2227 12.945 2.2227 7.9258 0 15.453-2.3594 21.609-6.7109 6.3359 5.0273 14.586 7.8477 23.242 7.8477 11.047 0 21.266-4.582 27.766-12.207 6.5156 3.875 14.766 6.043 23.344 6.043 20.633 0 36.797-11.809 36.797-26.887s-16.164-26.887-36.797-26.887c-2.6445 0-5.2773 0.20703-7.8438 0.60938 0.39062-1.8789 0.58984-3.793 0.58984-5.707 0-17.656-16.508-32.02-36.797-32.02-1.293 0-2.5859 0.058593-3.8672 0.17969-4.5508-13.348-18.898-22.938-35.305-22.938-10.43 0-20.406 3.8672-27.371 10.609-1.8633 1.8047-1.9102 4.7773-0.10938 6.6406 1.8086 1.8633 4.7812 1.9102 6.6445 0.10547z"/>
  <path d="m631.04 225.21c-0.11719-1.7305-1.1797-3.2539-2.7656-3.9648-1.582-0.71094-3.4297-0.48828-4.8008 0.57031-7.3867 5.7227-13.312 12.5-17.73 20.25-2.0273-5.4414-5-10.703-8.8945-15.738-1.0625-1.375-2.7969-2.0469-4.5117-1.7539-1.7109 0.29688-3.1211 1.5117-3.6641 3.1641-2.7539 8.3945-7.4766 15.34-14.352 21.059-1.5586-9.5234-5.8086-18.738-12.695-27.488-1.1211-1.4219-2.957-2.0742-4.7227-1.6758-1.7656 0.39844-3.1484 1.7773-3.5469 3.543-2.3633 10.418-7.1328 19.535-14.211 27.172-4.4375-6.6797-6.4922-14.352-6.2656-23.312 0.046875-1.9023-1.0547-3.6445-2.7969-4.4141s-3.7734-0.41406-5.1484 0.90234c-6.8672 6.5703-12.102 12.914-15.785 19.148-2.1016-5.7773-4.9492-11.301-8.5234-16.527-0.99219-1.4492-2.707-2.2227-4.4453-2.0117-1.7422 0.21094-3.2188 1.3789-3.832 3.0234-3.3359 8.957-7.625 16.426-13.039 22.668-3.6367-6.6484-5.7031-13.934-6.1562-21.723-0.10156-1.7812-1.207-3.3516-2.8516-4.0508-1.6406-0.69922-3.543-0.40625-4.8945 0.75781-6.1367 5.2617-11.07 11.414-14.754 18.387-2.6289-6.5664-6.1523-12.699-10.539-18.332-1.1133-1.4258-2.9492-2.0898-4.7188-1.6992s-3.1562 1.7617-3.5625 3.5312c-2.0977 9.0781-5.5156 16.977-10.188 23.555-5.8594-7.0586-8.6328-15.113-8.4492-24.484 0.035156-1.8477-1.0156-3.543-2.6836-4.3359-1.6719-0.79297-3.6484-0.53125-5.0547 0.66797-9.2773 7.8984-15.832 16.355-19.844 25.641-3.4805-6.5039-5.4922-13.84-6.1133-22.203-0.14062-1.8984-1.4141-3.5234-3.2188-4.1133-1.8086-0.58984-3.793-0.035156-5.0312 1.4102-6.5273 7.6367-11.582 15.824-15.094 24.438-3.3242-5.6484-5.4805-11.848-6.4414-18.52-0.25781-1.7969-1.5273-3.2852-3.2617-3.8203s-3.6211-0.023438-4.8477 1.3164c-6.4453 7.043-10.957 14.066-13.637 21.27-3.9219-5.4766-6.5078-11.32-7.8438-17.688-0.35938-1.6992-1.6211-3.0625-3.2891-3.5469-1.6641-0.48438-3.4648-0.007812-4.6758 1.2383-5.1172 5.2617-9.1328 11.02-12.004 17.203-2.8555-6.3633-4.4883-13.172-4.8672-20.34-0.097656-1.8594-1.2852-3.4844-3.0273-4.1445-1.7422-0.66016-3.7109-0.22656-5.0117 1.1016-4.5781 4.6641-8.6875 9.9023-12.305 15.68-0.39453-3.0664-0.96875-6.168-1.7266-9.3008-0.46094-1.9141-2.0703-3.3398-4.0273-3.5625-1.9453-0.22656-3.8438 0.79297-4.7305 2.5508-4.2656 8.4648-10.16 16.02-17.578 22.523-1.5898-7.3516-2.2266-14.82-1.8828-22.285 0.085937-1.8672-0.94531-3.6055-2.6211-4.4297-1.6797-0.82422-3.6836-0.57422-5.1094 0.63672-6.2734 5.3242-11.715 11.539-16.277 18.574-1.2852-7.4609-3.3047-14.785-6.0391-21.891-0.69922-1.8125-2.4414-3.0078-4.3828-3.0078h-0.011718c-1.9453 0.003907-3.6875 1.207-4.3789 3.0273-4.4414 11.691-9.7227 21.012-16.031 28.262-1.457-8.4805-1.832-18.543-1.1445-30.492 0.11328-1.9883-1.0391-3.8359-2.8789-4.6055-1.8398-0.76953-3.9609-0.29297-5.2969 1.1875-6.1562 6.8281-11.238 14.785-15.199 23.781-1.9336-6.9727-4.7383-13.617-8.3945-19.883-0.95312-1.6328-2.7852-2.5391-4.668-2.2891-1.875 0.24609-3.418 1.5938-3.918 3.4141-2.9297 10.688-7.2031 20.285-12.746 28.633-2.7578-8.1055-4.2773-16.852-4.625-26.516-0.070313-1.9336-1.3164-3.625-3.1445-4.2656-1.8281-0.63672-3.8555-0.09375-5.1133 1.375-5.6289 6.5664-10.395 14.293-14.242 23.09-2.5664-12.055-3.9375-24.598-4.0898-37.465-0.023438-2.1211-1.4688-3.9609-3.5234-4.4922-2.0547-0.53125-4.2109 0.38672-5.2578 2.2305-5.9961 10.57-10.828 21.887-14.438 33.809-2.0703-7.0625-4.7617-13.98-8.0547-20.703-0.96094-1.957-3.1367-3-5.2617-2.5117-2.125 0.48438-3.6367 2.3633-3.6523 4.543-0.12109 15.75-3.2656 28.152-9.6211 37.926-0.49609 0.76172-0.75781 1.6523-0.75781 2.5586v297.86c0 2.5938 2.1016 4.6953 4.6953 4.6953h582.36c2.5938 0 4.6953-2.1016 4.6953-4.6953l0.011719-297.86c0-1.3008-0.53906-2.543-1.4922-3.4336-8.1875-7.6484-12.555-17.07-13.348-28.797zm-246.3 98.781c1.125-1.5156 3.0469-2.2148 4.8789-1.7734 10.234 2.4727 17.957 5.6641 23.742 9.8633 2.9258-5.2969 7.0508-10.027 12.488-14.332 1.707-1.3555 4.125-1.3555 5.8359 0 5.4297 4.3047 9.5508 9.0312 12.477 14.332 5.7812-4.1953 13.504-7.3906 23.738-9.8633 1.832-0.44141 3.7539 0.25391 4.8789 1.7695 1.125 1.5156 1.2305 3.5547 0.26953 5.1797-6.5234 11.062-9.8359 20.758-10.117 29.641-0.082031 2.5391-2.168 4.5469-4.6914 4.5469-0.050781 0-0.10156 0-0.15234-0.003906-2.5938-0.082031-4.625-2.25-4.543-4.8438 0.24219-7.5742 2.2539-15.488 6.1094-23.988-6.082 2.3242-10.613 5.1172-13.73 8.4531-1.1172 1.1953-2.7773 1.7227-4.3789 1.3906-1.6016-0.32813-2.918-1.4727-3.4688-3.0156-1.8281-5.1055-4.8867-9.6289-9.3047-13.742-4.4258 4.1172-7.4883 8.6406-9.3164 13.742-0.55469 1.543-1.8672 2.6836-3.4727 3.0156-1.5977 0.33203-3.2617-0.19531-4.3789-1.3945-3.1719-3.3945-7.6406-6.168-13.734-8.4766 3.8594 8.4883 5.875 16.414 6.1289 24.008 0.085937 2.5938-1.9453 4.7617-4.5391 4.8477-2.6211 0.12891-4.7617-1.9453-4.8516-4.5391-0.29297-8.9141-3.6094-18.609-10.129-29.641-0.96484-1.6211-0.85938-3.6602 0.26172-5.1758zm-151.96-0.003906c1.1211-1.5156 3.043-2.2109 4.8789-1.7695 10.234 2.4727 17.957 5.668 23.738 9.8633 2.9258-5.3008 7.0469-10.031 12.477-14.332 1.707-1.3555 4.125-1.3555 5.8359 0 5.4375 4.3086 9.5625 9.0352 12.488 14.332 5.7852-4.1992 13.508-7.3945 23.742-9.8633 1.832-0.44141 3.7539 0.25391 4.8789 1.7734 1.1211 1.5156 1.2266 3.5586 0.26953 5.1836-6.5234 11.039-9.832 20.73-10.113 29.637-0.082031 2.5391-2.168 4.5469-4.6914 4.5469-0.050782 0-0.10156 0-0.15234-0.003906-2.5938-0.082031-4.625-2.25-4.543-4.8438 0.24219-7.5938 2.2539-15.52 6.1172-24.012-6.0938 2.3086-10.562 5.082-13.734 8.4766-1.1172 1.1953-2.7734 1.7227-4.3789 1.3906-1.6016-0.33203-2.918-1.4727-3.4688-3.0156-1.8281-5.1016-4.8906-9.6211-9.3164-13.742-4.4141 4.1133-7.4727 8.6367-9.3047 13.742-0.55469 1.543-1.8672 2.6836-3.4688 3.0156-1.6055 0.32812-3.2656-0.19531-4.3789-1.3906-3.1172-3.3359-7.6523-6.1328-13.73-8.4531 3.8594 8.5 5.8711 16.414 6.1094 23.988 0.082031 2.5938-1.9531 4.7617-4.543 4.8438-2.6523 0.089844-4.7617-1.9531-4.8438-4.543-0.28125-8.8828-3.5938-18.582-10.117-29.641-0.98047-1.625-0.875-3.668 0.25-5.1836zm-151.96 0c1.1211-1.5156 3.0469-2.2109 4.8789-1.7695 10.227 2.4727 17.949 5.668 23.738 9.8672 2.9258-5.3008 7.0469-10.031 12.477-14.336 1.707-1.3555 4.125-1.3555 5.8359 0 5.4375 4.3086 9.5625 9.0352 12.488 14.332 5.7852-4.1992 13.508-7.3945 23.742-9.8633 1.832-0.44141 3.7539 0.25391 4.8789 1.7734 1.1211 1.5156 1.2266 3.5586 0.26953 5.1836-6.5195 11.031-9.832 20.73-10.129 29.641-0.085938 2.5391-2.168 4.543-4.6914 4.543-0.050781 0-0.10547 0-0.16016-0.003906-2.5938-0.085937-4.625-2.2578-4.5391-4.8477 0.25391-7.5938 2.2695-15.52 6.1289-24.008-6.0938 2.3125-10.562 5.082-13.734 8.4766-1.1172 1.1953-2.7773 1.7266-4.3789 1.3945-1.6055-0.33203-2.918-1.4727-3.4727-3.0156-1.8281-5.1016-4.8906-9.6211-9.3164-13.742-4.4141 4.1133-7.4727 8.6367-9.3047 13.742-0.55469 1.5391-1.8672 2.6836-3.4688 3.0156-1.6016 0.32812-3.2617-0.19531-4.3789-1.3906-3.1797-3.3984-7.6523-6.168-13.746-8.4805 3.8594 8.4961 5.8711 16.418 6.125 24.008 0.085937 2.5938-1.9453 4.7617-4.5391 4.8477-2.5977 0.12891-4.7656-1.9453-4.8516-4.5391-0.29297-8.9062-3.6055-18.602-10.117-29.645-0.96484-1.6289-0.85938-3.668 0.26562-5.1836zm88.301 170.06c-6.5195 11.047-9.8359 20.75-10.129 29.656-0.085937 2.5391-2.168 4.543-4.6914 4.543-0.050781 0-0.10547 0-0.15625-0.003906-2.5938-0.085938-4.625-2.2578-4.5391-4.8477 0.25-7.5859 2.2656-15.504 6.1211-23.996-6.0742 2.3203-10.605 5.1172-13.73 8.457-1.1172 1.1953-2.7773 1.7188-4.3789 1.3906-1.6016-0.33203-2.918-1.4727-3.4688-3.0117-1.832-5.1055-4.8945-9.6289-9.3164-13.742-4.4141 4.1094-7.4727 8.6328-9.3047 13.742-0.55469 1.5391-1.8672 2.6797-3.4688 3.0117-1.6016 0.32812-3.2617-0.19531-4.3789-1.3867-3.1328-3.3398-7.668-6.1406-13.742-8.4609 3.8516 8.4961 5.8672 16.414 6.1172 23.996 0.085937 2.5938-1.9453 4.7617-4.5391 4.8477-2.5977 0.09375-4.7617-1.9453-4.8477-4.5391-0.29297-8.8984-3.6016-18.602-10.117-29.66-0.95703-1.625-0.85156-3.6641 0.27344-5.1797s3.0469-2.2109 4.8789-1.7695c10.223 2.4727 17.941 5.668 23.738 9.8711 2.9258-5.3086 7.0508-10.035 12.477-14.34 1.707-1.3555 4.125-1.3555 5.8359 0 5.4336 4.3047 9.5586 9.0352 12.488 14.336 5.7891-4.2031 13.512-7.3984 23.742-9.8672 1.832-0.44531 3.7539 0.25391 4.875 1.7695 1.1133 1.5156 1.2188 3.5586 0.26172 5.1836zm61.008-48.25c-2.5938-0.085938-4.625-2.2578-4.5391-4.8477 0.25-7.5859 2.2617-15.504 6.1172-23.992-6.0703 2.3164-10.605 5.1172-13.738 8.4648-1.1172 1.1953-2.7773 1.7188-4.3789 1.3906-1.6016-0.33203-2.918-1.4727-3.4688-3.0156-1.832-5.1133-4.8906-9.6406-9.3047-13.754-4.4141 4.1094-7.4727 8.6406-9.3164 13.758-0.55469 1.5391-1.8711 2.6797-3.4727 3.0078-1.6055 0.32812-3.2617-0.19922-4.3789-1.3945-3.1289-3.3477-7.6602-6.1445-13.727-8.4648 3.8555 8.4844 5.8672 16.402 6.1211 23.992 0.085938 2.5938-1.9453 4.7617-4.5391 4.8477-2.6172 0.082031-4.7617-1.9492-4.8477-4.5391-0.29297-8.9102-3.6055-18.609-10.125-29.641-0.96094-1.625-0.85547-3.6641 0.26562-5.1797 1.1211-1.5156 3.0352-2.2148 4.875-1.7734 10.23 2.4609 17.957 5.6523 23.75 9.8633 2.9336-5.3125 7.0586-10.043 12.484-14.344 1.707-1.3555 4.125-1.3555 5.8359 0 5.4297 4.3047 9.5508 9.0352 12.477 14.344 5.7969-4.2109 13.52-7.4023 23.742-9.8633 1.832-0.44141 3.7539 0.25781 4.875 1.7734s1.2266 3.5547 0.26953 5.1797c-6.5156 11.043-9.8242 20.742-10.117 29.645-0.082031 2.5391-2.168 4.543-4.6914 4.543-0.0625 0.003906-0.11328 0.003906-0.16797 0zm90.953 48.25c-6.5234 11.055-9.832 20.75-10.117 29.652-0.082031 2.543-2.168 4.5469-4.6914 4.5469-0.050781 0-0.10156 0-0.15234-0.003906-2.5938-0.082031-4.625-2.25-4.543-4.8438 0.24219-7.5859 2.25-15.504 6.1094-24-6.0703 2.3203-10.605 5.1172-13.73 8.457-1.1172 1.1953-2.7773 1.7188-4.3789 1.3906-1.6016-0.33203-2.9141-1.4727-3.4688-3.0117-1.832-5.1055-4.8945-9.6289-9.3164-13.742-4.4141 4.1094-7.4688 8.6328-9.3047 13.742-0.55469 1.5391-1.8672 2.6797-3.4688 3.0117-1.6016 0.32812-3.2617-0.19531-4.3789-1.3906-3.125-3.3398-7.6602-6.1367-13.738-8.457 3.8633 8.5078 5.8711 16.43 6.1133 24 0.082032 2.5938-1.9531 4.7617-4.543 4.8438-2.6523 0.074219-4.7617-1.9531-4.8438-4.5469-0.28125-8.8789-3.5938-18.578-10.117-29.656-0.95703-1.625-0.85156-3.6641 0.27344-5.1797 1.125-1.5156 3.043-2.2109 4.8789-1.7695 10.23 2.4727 17.949 5.668 23.738 9.8672 2.9258-5.3047 7.0508-10.035 12.477-14.336 1.707-1.3555 4.125-1.3555 5.8359 0 5.4336 4.3047 9.5586 9.0352 12.488 14.336 5.7891-4.2031 13.512-7.3984 23.742-9.8672 1.832-0.44531 3.7539 0.25391 4.875 1.7695 1.1172 1.5195 1.2227 3.5625 0.26172 5.1875zm61.012-48.25c-2.5938-0.085938-4.625-2.2578-4.5391-4.8477 0.25-7.5859 2.2617-15.504 6.1172-23.992-6.0703 2.3164-10.602 5.1172-13.738 8.4648-1.1172 1.1953-2.7734 1.7188-4.3789 1.3906-1.6016-0.33203-2.9141-1.4727-3.4688-3.0156-1.832-5.1133-4.8906-9.6406-9.3047-13.754-4.4141 4.1133-7.4727 8.6367-9.3047 13.754-0.55469 1.5391-1.8672 2.6836-3.4688 3.0156-1.6055 0.32813-3.2617-0.19531-4.3789-1.3906-3.1367-3.3477-7.668-6.1484-13.738-8.4648 3.8516 8.4883 5.8672 16.406 6.1172 23.992 0.085938 2.5938-1.9453 4.7617-4.5391 4.8477-2.5977 0.082031-4.7656-1.9492-4.8477-4.5391-0.29297-8.9062-3.6016-18.602-10.117-29.645-0.95703-1.625-0.85156-3.6641 0.26953-5.1797s3.0391-2.2148 4.875-1.7734c10.223 2.4609 17.945 5.6523 23.742 9.8633 2.9258-5.3086 7.0508-10.039 12.477-14.344 1.707-1.3555 4.125-1.3555 5.8359 0 5.4297 4.3047 9.5508 9.0352 12.477 14.344 5.7969-4.2109 13.52-7.4023 23.742-9.8633 1.8359-0.44141 3.7539 0.25781 4.875 1.7734 1.1211 1.5156 1.2266 3.5547 0.26953 5.1797-6.5156 11.043-9.8242 20.742-10.117 29.645-0.082031 2.5391-2.168 4.543-4.6914 4.543-0.058594 0-0.10938 0-0.16406-0.003906zm90.957 48.246c-6.5273 11.078-9.8359 20.777-10.117 29.656-0.082031 2.543-2.168 4.5469-4.6914 4.5469-0.050781 0-0.10156 0-0.15234-0.003906-2.5938-0.082031-4.625-2.25-4.543-4.8438 0.24219-7.5703 2.2539-15.492 6.1172-24.004-6.0781 2.3242-10.613 5.1211-13.738 8.457-1.1172 1.1953-2.7773 1.7188-4.3789 1.3906-1.6016-0.33203-2.9141-1.4727-3.4688-3.0117-1.832-5.1094-4.8906-9.6328-9.3047-13.742-4.4219 4.1172-7.4844 8.6406-9.3164 13.742-0.55469 1.5391-1.8672 2.6836-3.4688 3.0117-1.5977 0.32812-3.2578-0.19531-4.3789-1.3906-3.125-3.3398-7.6602-6.1367-13.73-8.457 3.8555 8.4922 5.8711 16.41 6.1211 23.996 0.085937 2.5938-1.9453 4.7617-4.5391 4.8477-2.6211 0.09375-4.7617-1.9453-4.8477-4.5391-0.29297-8.9062-3.6094-18.609-10.129-29.656-0.96094-1.625-0.85547-3.6641 0.26953-5.1797 1.1211-1.5156 3.0469-2.2148 4.875-1.7695 10.23 2.4688 17.953 5.6641 23.742 9.8672 2.9297-5.3008 7.0547-10.027 12.488-14.336 1.707-1.3555 4.125-1.3555 5.8359 0 5.4297 4.3047 9.5508 9.0312 12.477 14.336 5.7891-4.1992 13.508-7.3945 23.738-9.8672 1.832-0.44141 3.7539 0.25391 4.8789 1.7695 1.1094 1.5156 1.2188 3.5547 0.26172 5.1797zm61.008-48.246c-2.5938-0.085938-4.625-2.2578-4.5391-4.8477 0.25-7.5898 2.2656-15.508 6.1211-23.992-6.0703 2.3164-10.602 5.1172-13.727 8.4609-1.1172 1.1953-2.7773 1.7227-4.3789 1.3945-1.6016-0.32812-2.918-1.4688-3.4727-3.0078-1.8438-5.1172-4.9062-9.6484-9.3203-13.758-4.4141 4.1133-7.4727 8.6406-9.3047 13.754-0.55469 1.5391-1.8672 2.6836-3.4688 3.0156-1.6016 0.32812-3.2617-0.19531-4.3789-1.3906-3.1328-3.3477-7.668-6.1484-13.738-8.4648 3.8516 8.4883 5.8672 16.406 6.1172 23.992 0.085937 2.5938-1.9453 4.7617-4.5391 4.8477-2.6328 0.082031-4.7617-1.9453-4.8477-4.5391-0.29297-8.9062-3.6055-18.602-10.117-29.645-0.95703-1.625-0.85156-3.6641 0.26953-5.1797 1.1211-1.5156 3.0391-2.2148 4.875-1.7734 10.223 2.4609 17.945 5.6523 23.742 9.8633 2.9258-5.3086 7.0508-10.039 12.477-14.344 1.707-1.3555 4.125-1.3555 5.8359 0 5.4258 4.3008 9.5508 9.0352 12.484 14.344 5.793-4.2109 13.52-7.4062 23.75-9.8633 1.8398-0.44141 3.7539 0.25781 4.875 1.7734 1.1211 1.5156 1.2266 3.5547 0.26562 5.1797-6.5195 11.035-9.832 20.73-10.129 29.645-0.085938 2.5391-2.168 4.543-4.6914 4.543-0.054688-0.003906-0.10938-0.003906-0.16016-0.007812zm90.957 48.246c-6.5156 11.059-9.8242 20.762-10.117 29.66-0.082031 2.5391-2.168 4.543-4.6914 4.543-0.050781 0-0.10547 0-0.15625-0.003906-2.5938-0.085938-4.625-2.2578-4.5391-4.8477 0.25-7.582 2.2617-15.5 6.1172-23.996-6.0742 2.3203-10.609 5.1211-13.742 8.4609-1.1172 1.1914-2.7773 1.7148-4.3789 1.3867-1.6016-0.33203-2.9141-1.4727-3.4688-3.0117-1.8359-5.1094-4.8945-9.6328-9.3047-13.742-4.4219 4.1172-7.4844 8.6406-9.3164 13.742-0.55469 1.5391-1.8672 2.6836-3.4688 3.0117-1.5977 0.32812-3.2578-0.19531-4.3789-1.3906-3.125-3.3398-7.6602-6.1367-13.73-8.457 3.8555 8.4922 5.8711 16.41 6.1211 23.996 0.085937 2.5938-1.9453 4.7617-4.5391 4.8477-2.6016 0.09375-4.7656-1.9492-4.8477-4.5391-0.29297-8.9062-3.6055-18.605-10.129-29.656-0.95703-1.625-0.85156-3.6641 0.26953-5.1797 1.1211-1.5156 3.043-2.2148 4.8789-1.7695 10.23 2.4688 17.949 5.6641 23.742 9.8672 2.9297-5.3008 7.0547-10.027 12.488-14.336 1.707-1.3555 4.125-1.3555 5.8359 0 5.4297 4.3047 9.5508 9.0312 12.477 14.34 5.793-4.2031 13.516-7.3984 23.738-9.8711 1.8281-0.44141 3.7539 0.25391 4.875 1.7695 1.1133 1.5117 1.2227 3.5508 0.26562 5.1758zm0-164.88c-6.5156 11.043-9.8242 20.742-10.117 29.645-0.082031 2.5391-2.168 4.543-4.6914 4.543-0.050781 0-0.10547 0-0.15625-0.003906-2.5938-0.085938-4.625-2.2578-4.5391-4.8477 0.25-7.5898 2.2656-15.512 6.1211-24.008-6.0938 2.3125-10.566 5.0859-13.746 8.4805-1.1172 1.1953-2.7773 1.7188-4.3789 1.3906-1.6016-0.33203-2.918-1.4727-3.4688-3.0156-1.832-5.1055-4.8906-9.6289-9.3047-13.742-4.4258 4.1172-7.4883 8.6406-9.3164 13.742-0.55469 1.543-1.8672 2.6836-3.4727 3.0156-1.6016 0.33203-3.2617-0.19531-4.3789-1.3945-3.1719-3.3945-7.6406-6.168-13.734-8.4766 3.8594 8.4922 5.875 16.414 6.1289 24.008 0.085937 2.5938-1.9453 4.7617-4.5391 4.8477-2.6016 0.10156-4.7656-1.9492-4.8477-4.5391-0.29297-8.9102-3.6055-18.605-10.129-29.641-0.96094-1.625-0.85547-3.6641 0.26953-5.1836 1.125-1.5156 3.0391-2.2148 4.8789-1.7734 10.234 2.4727 17.957 5.6641 23.742 9.8633 2.9258-5.2969 7.0508-10.027 12.488-14.332 1.707-1.3555 4.125-1.3555 5.8359 0 5.4297 4.3047 9.5508 9.0352 12.477 14.336 5.7891-4.1992 13.512-7.3945 23.738-9.8672 1.8281-0.44141 3.7539 0.25391 4.875 1.7695 1.1133 1.5195 1.2227 3.5625 0.26562 5.1836z"/>
  <use x="54.125" y="577.613281" xlink:href="#v"/>
  <use x="58.433594" y="577.613281" xlink:href="#d"/>
  <use x="61.328125" y="577.613281" xlink:href="#b"/>
  <use x="65.308594" y="577.613281" xlink:href="#l"/>
  <use x="69.273438" y="577.613281" xlink:href="#a"/>
  <use x="72.078125" y="577.613281" xlink:href="#b"/>
  <use x="76.058594" y="577.613281" xlink:href="#f"/>
  <use x="82.304688" y="577.613281" xlink:href="#k"/>
  <use x="86.507812" y="577.613281" xlink:href="#e"/>
  <use x="92.378906" y="577.613281" xlink:href="#j"/>
  <use x="96.921875" y="577.613281" xlink:href="#i"/>
  <use x="103.039062" y="577.613281" xlink:href="#b"/>
  <use x="107.019531" y="577.613281" xlink:href="#a"/>
  <use x="109.828125" y="577.613281" xlink:href="#h"/>
  <use x="114.007812" y="577.613281" xlink:href="#e"/>
  <use x="117.832031" y="577.613281" xlink:href="#u"/>
  <use x="121.328125" y="577.613281" xlink:href="#a"/>
  <use x="126.175781" y="577.613281" xlink:href="#t"/>
  <use x="130.40625" y="577.613281" xlink:href="#a"/>
  <use x="133.210938" y="577.613281" xlink:href="#g"/>
  <use x="137.390625" y="577.613281" xlink:href="#f"/>
  <use x="141.59375" y="577.613281" xlink:href="#s"/>
  <use x="143.605469" y="577.613281" xlink:href="#c"/>
  <use x="54.125" y="583.480469" xlink:href="#r"/>
  <use x="56.679688" y="583.480469" xlink:href="#d"/>
  <use x="59.574219" y="583.480469" xlink:href="#c"/>
  <use x="63.609375" y="583.480469" xlink:href="#i"/>
  <use x="71.769531" y="583.480469" xlink:href="#a"/>
  <use x="74.574219" y="583.480469" xlink:href="#h"/>
  <use x="78.753906" y="583.480469" xlink:href="#b"/>
  <use x="84.78125" y="583.480469" xlink:href="#q"/>
  <use x="89.691406" y="583.480469" xlink:href="#c"/>
  <use x="93.726562" y="583.480469" xlink:href="#g"/>
  <use x="97.90625" y="583.480469" xlink:href="#p"/>
  <use x="104.128906" y="583.480469" xlink:href="#o"/>
  <use x="108.429688" y="583.480469" xlink:href="#d"/>
  <use x="111.324219" y="583.480469" xlink:href="#c"/>
  <use x="115.359375" y="583.480469" xlink:href="#n"/>
  <use x="117.371094" y="583.480469" xlink:href="#b"/>
  <use x="121.351562" y="583.480469" xlink:href="#m"/>
  <use x="124.832031" y="583.480469" xlink:href="#a"/>
 </g>
</svg>
