<?xml version="1.0" encoding="UTF-8"?>
<svg width="700pt" height="700pt" version="1.1" viewBox="0 0 700 700" xmlns="http://www.w3.org/2000/svg" xmlns:xlink="http://www.w3.org/1999/xlink">
 <defs>
  <symbol id="u" overflow="visible">
   <path d="m18.766-1.125c-0.96875 0.5-1.9805 0.875-3.0312 1.125-1.043 0.25781-2.1367 0.39062-3.2812 0.39062-3.3984 0-6.0898-0.94531-8.0781-2.8438-1.9922-1.9062-2.9844-4.4844-2.9844-7.7344 0-3.2578 0.99219-5.8359 2.9844-7.7344 1.9883-1.9062 4.6797-2.8594 8.0781-2.8594 1.1445 0 2.2383 0.13281 3.2812 0.39062 1.0508 0.25 2.0625 0.625 3.0312 1.125v4.2188c-0.98047-0.65625-1.9453-1.1406-2.8906-1.4531-0.94922-0.3125-1.9492-0.46875-3-0.46875-1.875 0-3.3516 0.60547-4.4219 1.8125-1.0742 1.1992-1.6094 2.8555-1.6094 4.9688 0 2.1055 0.53516 3.7617 1.6094 4.9688 1.0703 1.1992 2.5469 1.7969 4.4219 1.7969 1.0508 0 2.0508-0.14844 3-0.45312 0.94531-0.3125 1.9102-0.80078 2.8906-1.4688z"/>
  </symbol>
  <symbol id="c" overflow="visible">
   <path d="m13.734-11.141c-0.4375-0.19531-0.87109-0.34375-1.2969-0.4375-0.41797-0.10156-0.83984-0.15625-1.2656-0.15625-1.2617 0-2.2305 0.40625-2.9062 1.2188-0.67969 0.80469-1.0156 1.9531-1.0156 3.4531v7.0625h-4.8906v-15.312h4.8906v2.5156c0.625-1 1.3438-1.7266 2.1562-2.1875 0.82031-0.46875 1.8008-0.70312 2.9375-0.70312 0.16406 0 0.34375 0.011719 0.53125 0.03125 0.19531 0.011719 0.47656 0.039062 0.84375 0.078125z"/>
  </symbol>
  <symbol id="a" overflow="visible">
   <path d="m17.641-7.7031v1.4062h-11.453c0.125 1.1484 0.53906 2.0078 1.25 2.5781 0.70703 0.57422 1.7031 0.85938 2.9844 0.85938 1.0312 0 2.082-0.14844 3.1562-0.45312 1.082-0.3125 2.1914-0.77344 3.3281-1.3906v3.7656c-1.1562 0.4375-2.3125 0.76562-3.4688 0.98438-1.1562 0.22656-2.3125 0.34375-3.4688 0.34375-2.7734 0-4.9297-0.70312-6.4688-2.1094-1.5312-1.4062-2.2969-3.3789-2.2969-5.9219 0-2.5 0.75391-4.4609 2.2656-5.8906 1.5078-1.4375 3.582-2.1562 6.2188-2.1562 2.4062 0 4.332 0.73047 5.7812 2.1875 1.4453 1.4492 2.1719 3.3828 2.1719 5.7969zm-5.0312-1.625c0-0.92578-0.27344-1.6719-0.8125-2.2344-0.54297-0.57031-1.25-0.85938-2.125-0.85938-0.94922 0-1.7188 0.26562-2.3125 0.79688s-0.96484 1.2969-1.1094 2.2969z"/>
  </symbol>
  <symbol id="f" overflow="visible">
   <path d="m9.2188-6.8906c-1.0234 0-1.793 0.17188-2.3125 0.51562-0.51172 0.34375-0.76562 0.85547-0.76562 1.5312 0 0.625 0.20703 1.1172 0.625 1.4688 0.41406 0.34375 0.98828 0.51562 1.7188 0.51562 0.92578 0 1.7031-0.32812 2.3281-0.98438 0.63281-0.66406 0.95312-1.4922 0.95312-2.4844v-0.5625zm7.4688-1.8438v8.7344h-4.9219v-2.2656c-0.65625 0.92969-1.3984 1.6055-2.2188 2.0312-0.82422 0.41406-1.8242 0.625-3 0.625-1.5859 0-2.8711-0.45703-3.8594-1.375-0.99219-0.92578-1.4844-2.1289-1.4844-3.6094 0-1.7891 0.61328-3.1016 1.8438-3.9375 1.2383-0.84375 3.1797-1.2656 5.8281-1.2656h2.8906v-0.39062c0-0.76953-0.30859-1.332-0.92188-1.6875-0.61719-0.36328-1.5703-0.54688-2.8594-0.54688-1.0547 0-2.0312 0.10547-2.9375 0.3125-0.89844 0.21094-1.7305 0.52344-2.5 0.9375v-3.7344c1.0391-0.25 2.0859-0.44141 3.1406-0.57812 1.0625-0.13281 2.125-0.20312 3.1875-0.20312 2.7578 0 4.75 0.54688 5.9688 1.6406 1.2266 1.0859 1.8438 2.8555 1.8438 5.3125z"/>
  </symbol>
  <symbol id="b" overflow="visible">
   <path d="m7.7031-19.656v4.3438h5.0469v3.5h-5.0469v6.5c0 0.71094 0.14062 1.1875 0.42188 1.4375s0.83594 0.375 1.6719 0.375h2.5156v3.5h-4.1875c-1.9375 0-3.3125-0.39844-4.125-1.2031-0.80469-0.8125-1.2031-2.1797-1.2031-4.1094v-6.5h-2.4219v-3.5h2.4219v-4.3438z"/>
  </symbol>
  <symbol id="j" overflow="visible">
   <path d="m12.766-13.078v-8.2031h4.9219v21.281h-4.9219v-2.2188c-0.66797 0.90625-1.4062 1.5703-2.2188 1.9844s-1.7578 0.625-2.8281 0.625c-1.8867 0-3.4336-0.75-4.6406-2.25-1.2109-1.5-1.8125-3.4258-1.8125-5.7812 0-2.3633 0.60156-4.2969 1.8125-5.7969 1.207-1.5 2.7539-2.25 4.6406-2.25 1.0625 0 2 0.21484 2.8125 0.64062 0.82031 0.42969 1.5664 1.0859 2.2344 1.9688zm-3.2188 9.9219c1.0391 0 1.8359-0.37891 2.3906-1.1406 0.55078-0.76953 0.82812-1.8828 0.82812-3.3438 0-1.457-0.27734-2.5664-0.82812-3.3281-0.55469-0.76953-1.3516-1.1562-2.3906-1.1562-1.043 0-1.8398 0.38672-2.3906 1.1562-0.55469 0.76172-0.82812 1.8711-0.82812 3.3281 0 1.4609 0.27344 2.5742 0.82812 3.3438 0.55078 0.76172 1.3477 1.1406 2.3906 1.1406z"/>
  </symbol>
  <symbol id="i" overflow="visible">
   <path d="m10.5-3.1562c1.0508 0 1.8516-0.37891 2.4062-1.1406 0.55078-0.76953 0.82812-1.8828 0.82812-3.3438 0-1.457-0.27734-2.5664-0.82812-3.3281-0.55469-0.76953-1.3555-1.1562-2.4062-1.1562-1.0547 0-1.8594 0.38672-2.4219 1.1562-0.55469 0.77344-0.82812 1.8828-0.82812 3.3281 0 1.4492 0.27344 2.5586 0.82812 3.3281 0.5625 0.77344 1.3672 1.1562 2.4219 1.1562zm-3.25-9.9219c0.67578-0.88281 1.4219-1.5391 2.2344-1.9688 0.82031-0.42578 1.7656-0.64062 2.8281-0.64062 1.8945 0 3.4453 0.75 4.6562 2.25 1.207 1.5 1.8125 3.4336 1.8125 5.7969 0 2.3555-0.60547 4.2812-1.8125 5.7812-1.2109 1.5-2.7617 2.25-4.6562 2.25-1.0625 0-2.0078-0.21094-2.8281-0.625-0.8125-0.42578-1.5586-1.0859-2.2344-1.9844v2.2188h-4.8906v-21.281h4.8906z"/>
  </symbol>
  <symbol id="e" overflow="visible">
   <path d="m0.34375-15.312h4.8906l4.125 10.391 3.5-10.391h4.8906l-6.4375 16.766c-0.64844 1.6953-1.4023 2.8828-2.2656 3.5625-0.86719 0.6875-2 1.0312-3.4062 1.0312h-2.8438v-3.2188h1.5312c0.83203 0 1.4375-0.13672 1.8125-0.40625 0.38281-0.26172 0.67969-0.73047 0.89062-1.4062l0.14062-0.42188z"/>
  </symbol>
  <symbol id="h" overflow="visible">
   <path d="m2.5781-20.406h5.25v16.422h9.25v3.9844h-14.5z"/>
  </symbol>
  <symbol id="g" overflow="visible">
   <path d="m16.547-12.766c0.61328-0.94531 1.3477-1.6719 2.2031-2.1719 0.85156-0.5 1.7891-0.75 2.8125-0.75 1.7578 0 3.0977 0.54688 4.0156 1.6406 0.92578 1.0859 1.3906 2.6562 1.3906 4.7188v9.3281h-4.9219v-7.9844-0.35938c0.007813-0.13281 0.015625-0.32031 0.015625-0.5625 0-1.082-0.16406-1.8633-0.48438-2.3438-0.3125-0.48828-0.82422-0.73438-1.5312-0.73438-0.92969 0-1.6484 0.38672-2.1562 1.1562-0.51172 0.76172-0.77344 1.8672-0.78125 3.3125v7.5156h-4.9219v-7.9844c0-1.6953-0.14844-2.7852-0.4375-3.2656-0.29297-0.48828-0.8125-0.73438-1.5625-0.73438-0.9375 0-1.6641 0.38672-2.1719 1.1562-0.51172 0.76172-0.76562 1.8594-0.76562 3.2969v7.5312h-4.9219v-15.312h4.9219v2.2344c0.60156-0.86328 1.2891-1.5156 2.0625-1.9531 0.78125-0.4375 1.6406-0.65625 2.5781-0.65625 1.0625 0 2 0.25781 2.8125 0.76562 0.8125 0.51172 1.4258 1.2305 1.8438 2.1562z"/>
  </symbol>
  <symbol id="t" overflow="visible">
   <path d="m2.3594-15.312h4.8906v15.312h-4.8906zm0-5.9688h4.8906v4h-4.8906z"/>
  </symbol>
  <symbol id="s" overflow="visible">
   <path d="m2.3594-21.281h4.8906v11.594l5.625-5.625h5.6875l-7.4688 7.0312 8.0625 8.2812h-5.9375l-5.9688-6.3906v6.3906h-4.8906z"/>
  </symbol>
  <symbol id="r" overflow="visible">
   <path d="m12.422-21.281v3.2188h-2.7031c-0.6875 0-1.1719 0.125-1.4531 0.375-0.27344 0.25-0.40625 0.6875-0.40625 1.3125v1.0625h4.1875v3.5h-4.1875v11.812h-4.8906v-11.812h-2.4375v-3.5h2.4375v-1.0625c0-1.6641 0.46094-2.8984 1.3906-3.7031 0.92578-0.80078 2.3672-1.2031 4.3281-1.2031z"/>
  </symbol>
  <symbol id="d" overflow="visible">
   <path d="m9.6406-12.188c-1.0859 0-1.9141 0.39062-2.4844 1.1719-0.57422 0.78125-0.85938 1.9062-0.85938 3.375s0.28516 2.5938 0.85938 3.375c0.57031 0.77344 1.3984 1.1562 2.4844 1.1562 1.0625 0 1.875-0.38281 2.4375-1.1562 0.57031-0.78125 0.85938-1.9062 0.85938-3.375s-0.28906-2.5938-0.85938-3.375c-0.5625-0.78125-1.375-1.1719-2.4375-1.1719zm0-3.5c2.6328 0 4.6914 0.71484 6.1719 2.1406 1.4766 1.418 2.2188 3.3867 2.2188 5.9062 0 2.5117-0.74219 4.4805-2.2188 5.9062-1.4805 1.418-3.5391 2.125-6.1719 2.125-2.6484 0-4.7148-0.70703-6.2031-2.125-1.4922-1.4258-2.2344-3.3945-2.2344-5.9062 0-2.5195 0.74219-4.4883 2.2344-5.9062 1.4883-1.4258 3.5547-2.1406 6.2031-2.1406z"/>
  </symbol>
  <symbol id="q" overflow="visible">
   <path d="m17.75-9.3281v9.3281h-4.9219v-7.1094c0-1.3438-0.03125-2.2656-0.09375-2.7656s-0.16797-0.86719-0.3125-1.1094c-0.1875-0.3125-0.44922-0.55469-0.78125-0.73438-0.32422-0.17578-0.69531-0.26562-1.1094-0.26562-1.0234 0-1.8242 0.39844-2.4062 1.1875-0.58594 0.78125-0.875 1.8711-0.875 3.2656v7.5312h-4.8906v-21.281h4.8906v8.2031c0.73828-0.88281 1.5195-1.5391 2.3438-1.9688 0.83203-0.42578 1.75-0.64062 2.75-0.64062 1.7695 0 3.1133 0.54688 4.0312 1.6406 0.91406 1.0859 1.375 2.6562 1.375 4.7188z"/>
  </symbol>
  <symbol id="p" overflow="visible">
   <path d="m2.5781-20.406h5.875l7.4219 14v-14h4.9844v20.406h-5.875l-7.4219-14v14h-4.9844z"/>
  </symbol>
  <symbol id="o" overflow="visible">
   <path d="m2.1875-5.9688v-9.3438h4.9219v1.5312c0 0.83594-0.007813 1.875-0.015625 3.125-0.011719 1.25-0.015625 2.0859-0.015625 2.5 0 1.2422 0.03125 2.1328 0.09375 2.6719 0.070313 0.54297 0.17969 0.93359 0.32812 1.1719 0.20703 0.32422 0.47266 0.57422 0.79688 0.75 0.32031 0.16797 0.69141 0.25 1.1094 0.25 1.0195 0 1.8203-0.39062 2.4062-1.1719 0.58203-0.78125 0.875-1.8672 0.875-3.2656v-7.5625h4.8906v15.312h-4.8906v-2.2188c-0.74219 0.89844-1.5234 1.5586-2.3438 1.9844-0.82422 0.41406-1.7344 0.625-2.7344 0.625-1.7617 0-3.1055-0.53906-4.0312-1.625-0.92969-1.082-1.3906-2.6602-1.3906-4.7344z"/>
  </symbol>
  <symbol id="n" overflow="visible">
   <path d="m17.75-9.3281v9.3281h-4.9219v-7.1406c0-1.3203-0.03125-2.2344-0.09375-2.7344s-0.16797-0.86719-0.3125-1.1094c-0.1875-0.3125-0.44922-0.55469-0.78125-0.73438-0.32422-0.17578-0.69531-0.26562-1.1094-0.26562-1.0234 0-1.8242 0.39844-2.4062 1.1875-0.58594 0.78125-0.875 1.8711-0.875 3.2656v7.5312h-4.8906v-15.312h4.8906v2.2344c0.73828-0.88281 1.5195-1.5391 2.3438-1.9688 0.83203-0.42578 1.75-0.64062 2.75-0.64062 1.7695 0 3.1133 0.54688 4.0312 1.6406 0.91406 1.0859 1.375 2.6562 1.375 4.7188z"/>
  </symbol>
  <symbol id="m" overflow="visible">
   <path d="m2.5781-20.406h8.7344c2.5938 0 4.582 0.57812 5.9688 1.7344 1.3945 1.1484 2.0938 2.7891 2.0938 4.9219 0 2.1367-0.69922 3.7812-2.0938 4.9375-1.3867 1.1562-3.375 1.7344-5.9688 1.7344h-3.4844v7.0781h-5.25zm5.25 3.8125v5.7031h2.9219c1.0195 0 1.8047-0.25 2.3594-0.75 0.5625-0.5 0.84375-1.2031 0.84375-2.1094 0-0.91406-0.28125-1.6172-0.84375-2.1094-0.55469-0.48828-1.3398-0.73438-2.3594-0.73438z"/>
  </symbol>
  <symbol id="l" overflow="visible">
   <path d="m2.3594-15.312h4.8906v15.031c0 2.0508-0.49609 3.6172-1.4844 4.7031-0.98047 1.082-2.4062 1.625-4.2812 1.625h-2.4219v-3.2188h0.85938c0.92578 0 1.5625-0.21094 1.9062-0.625 0.35156-0.41797 0.53125-1.2461 0.53125-2.4844zm0-5.9688h4.8906v4h-4.8906z"/>
  </symbol>
  <symbol id="k" overflow="visible">
   <path d="m14.719-14.828v3.9844c-0.65625-0.45703-1.3242-0.79688-2-1.0156-0.66797-0.21875-1.3594-0.32812-2.0781-0.32812-1.3672 0-2.4336 0.40234-3.2031 1.2031-0.76172 0.79297-1.1406 1.9062-1.1406 3.3438 0 1.4297 0.37891 2.543 1.1406 3.3438 0.76953 0.79297 1.8359 1.1875 3.2031 1.1875 0.75781 0 1.4844-0.10938 2.1719-0.32812 0.6875-0.22656 1.3203-0.56641 1.9062-1.0156v4c-0.76172 0.28125-1.5391 0.48828-2.3281 0.625-0.78125 0.14453-1.5742 0.21875-2.375 0.21875-2.7617 0-4.9219-0.70703-6.4844-2.125-1.5547-1.4141-2.3281-3.3828-2.3281-5.9062 0-2.5312 0.77344-4.5039 2.3281-5.9219 1.5625-1.4141 3.7227-2.125 6.4844-2.125 0.80078 0 1.5938 0.074219 2.375 0.21875 0.78125 0.13672 1.5547 0.35156 2.3281 0.64062z"/>
  </symbol>
 </defs>
 <g>
  <path d="m599.31 190.67c-4.043-13.625-11.305-27.059-20.996-38.848-16.184-19.645-23.363-26.164-38.395-34.883-15.484-8.9727-37.574-17.871-52.535-21.164l-6.25-1.3711 0.33594-2.3672c1.0625-7.6875-3.9375-14.945-11.895-17.266-2.6602-0.77344-3.3203-1.7188-5.875-8.4688-1.7344-4.5312-4.8555-7.2695-8.7812-7.6992-2.832-0.32031-4.0547 0.30859-5.6211 2.8711-0.14453 0.24219-0.24219 0.28125-0.3125 0.29297h-0.027343c-0.52734 0-1.8828-1.4102-4.0391-3.707-4.1719-4.4844-7.3086-6.4023-10.484-6.4023-2.457 0-3.9922 1.0547-4.6914 3.2266-0.28125 0.78906-0.62891 1.2422-1.125 1.4727-1.0859 0.48828-3.0078 0.054687-7.3711-1.6758-5.0078-1.9648-5.8008-1.5859-6.082-1.4688-0.60547 0.30859-1.2773 0.38672-1.5391 0.30078-0.37109-0.14062-2.9102-0.46484-5.1562-0.6875-5.0352-0.54297-5.8086-1.0469-9.1797-5.9805-3.3203-4.8594-5.7344-6.8945-9.2188-7.7734-4.168-1.1094-8.6133-0.10156-10.797 2.4805-1.0078 1.2422-2.1953 1.2305-7.2734-1.4727-4.3438-2.3281-8.5898-3.3477-11.34-2.7266-1.9414 0.46094-4.168 2.8008-4.168 4.3945 0 1.8594-1.6445 2.9922-5.0273 3.4648-3.3945 0.4375-5.4141 1.8047-5.4141 3.6641 0 1.6562 3.4844 4.3281 6.2031 4.7656 5.8203 1.0352 9.1523 3.1992 9.1523 5.9297 0 2.7344 1.6875 5.8477 3.9102 7.2539 1.8867 1.2656 2.6484 1.3438 10.148 0.95703 6.7461-0.23438 8.1133-0.15625 9.0664 0.56641 1.0742 0.86328 1.0742 0.86328-0.23438 3.0977-1.832 3.2188-1.7578 4.2461 0.46484 6.4727 1.5977 1.5273 2.4414 1.8438 5.0117 1.8438 1.6172 0 4.3438-0.42188 6.0859-0.93359 3.8203-1.1406 6.2656-1.1406 7.918 0.039063 0.78516 0.53125 1.1094 0.88672 1.1641 1.2656 0.066407 0.5-0.30859 1.1641-1.3945 2.457-1.9883 2.3672-2.0273 5.0273-0.10547 6.7578 2.0781 1.9531 4.25 2.2227 11.055 1.4102 6.9219-0.90234 9.1836-0.46875 13.41 2.5977l2.2617 1.6914-3.1484 0.41406c-8.5391 1.1211-20.137 4.5703-33.531 9.9727-3.6953 1.4609-6.6094 2.3008-7.2227 2.3008-0.015625 0-0.027343-0.003906-0.042969-0.003906-0.22266-0.50391-0.95312-4.0273-1.6445-8.8203-1.3047-9.6094-1.9375-10.82-6.7695-12.891-2.9219-1.25-4.2852-3.707-4.2852-7.7227 0-3.0898-1.2539-6.2656-3.207-8.0859-1.9648-1.7656-6.418-1.8477-9.1719-0.15234-1.0703 0.63672-1.6875 0.82812-2.2227 0.65625-0.95703-0.29688-1.8359-1.8945-3.2305-4.918-2.6562-5.9258-4.5078-8.3164-7.0742-9.1523-3.0703-1.0117-5.1406-0.035156-7.1445 3.4141-0.89453 1.4766-1.3594 2.1914-1.7461 2.2773-0.22266 0.027343-0.49219-0.089844-0.94141-0.375-0.61719-0.44922-2.1328-2.4297-3.2539-4.4141-2.6445-4.6523-4.2617-6.4102-6.9258-7.5273-1.6875-0.72656-3.4141-0.63672-4.7656 0.25781-1.5078 0.99219-2.3672 2.8047-2.3672 4.9883 0 0.85156-0.12891 1.332-0.38672 1.4453-0.79688 0.32422-3.4766-2.1289-6.2344-4.8555-6.1992-6.1484-7.6172-7.0742-10.785-7.0742-3.2148 0-4.8203 1.7852-5.2031 5.7891-0.14063 1.5117-0.33594 2.4531-0.89063 2.7734-0.81641 0.46484-2.582-0.23438-6.2227-1.9648-5.3594-2.582-8.7734-2.8633-10.762-0.87891-0.65625 0.65625-1.3555 1.8867-1.3555 2.7266l-0.011719 0.24609c-0.39844 6.1484-0.39844 6.1484-4.5859 6.5352l-0.11328 0.011719c-4.207 0.4375-6.6641 1.4297-7.5195 3.0312-0.53125 0.99609-0.41406 2.2109 0.33594 3.625 0.94141 1.8867 2.4414 2.5742 5.7305 2.6445 0.99219 0 2.9336 0.54297 4.3359 1.2031l2.457 1.1133 0.17969 3.7344c0.18359 3.7461 0.24609 4.0586 2.3984 5.1016l1.6445 0.81641-1.0625 0.42578c-0.96875 0.34766-2.2227 1.4688-2.8711 2.3594l-1.1133 1.4922-1.8555-1.0703c-1.2383-0.70703-2.8828-2.7812-4.5234-5.6914-4.4688-7.9414-7.7383-10.219-12.078-8.3945-2.4258 1.0195-3.7422 2.918-4.5547 6.5508-0.33203 1.5742-0.87891 2.9102-1.1094 3.1406-0.066406 0.066407-0.22266 0.10547-0.44141 0.078126-1.6445-0.11719-5.8633-2.6055-7.332-4.6016-1.5078-2.0117-5.6406-4.1992-8.0469-4.2617-2.3125 0-5.2656 3.293-5.2656 5.875 0 1.7344-0.26172 2.7109-0.87891 3.2539-0.66016 0.57813-1.8047 0.71875-3.8477 0.46094-10.461-1.3086-10.941-1.2773-13.027 0.86328-1.793 1.793-1.9727 2.3359-1.7852 5.2695l0.17188 3.0391-3.5938 0.33984c-3.875 0.375-6.8438 1.7578-7.5586 3.5273-0.35156 0.93359-0.19141 1.9258 0.46484 2.8789 1.3203 1.9102 4.2773 3.1992 7.3633 3.1992 3.1992 0 6.4336 1.0078 7.6953 2.3789 0.85547 0.96875 0.92969 1.2891 0.19531 4.0977-1.0117 4.0391-0.11328 6.0977 3.4375 7.875 3.3203 1.625 5.5781 1.043 11.469-3.0312 3.4102-2.3672 5.3477-3.3359 6.6914-3.3359 0.89062 0 1.3828 0.050782 1.5977 0.32422 0.33984 0.42969 0.14453 1.5742-0.46094 4.1367-0.61719 2.5859-0.56641 3.4062 0.33203 5.125 2.2852 4.3789 6.7461 5.5391 12.926 3.3672 5.4922-1.8984 8.6055-2.1797 10.109-0.89453 1.293 1.0547 1.293 1.0547 0.36328 3.6172-1.3281 3.7969-0.76172 5.6562 2.0938 6.8555 3.2188 1.332 6.3242 0.77734 10.703-1.9141 3.7734-2.2734 6.625-2.7617 7.8281-1.332 0.47656 0.53125 0.55469 1.9492 0.24609 4.7422-0.375 3.8086-0.29297 4.1836 1.293 5.7695 1.5195 1.5117 2.0664 1.6562 4.9727 1.3555 1.7969-0.18359 5.1758-1.1602 7.6836-2.2227 4.5938-1.9727 6.4297-2.0234 7.1562-1.6953 0.23438 0.10156 0.39062 0.25391 0.46484 0.44141 0.10156 0.34766-0.23438 1.8867-0.91406 3.293-0.95312 2.2227-1.0703 3.1797-0.55859 4.6484 1.2695 3.6406 4.5195 4.0664 12.383 1.6133 4.7773-1.5273 11.699-2.0781 15.109-1.2305 0.28516 0.085938 0.55859 0.17188 0.58984 0.29297 0.11328 0.37109-1.2227 1.9023-2.9062 3.8359-3.9258 4.457-21.035 26.281-22.332 28.48-0.15234 0.26172-0.24609 0.40234-0.30859 0.48047-0.14453-0.42578-0.25781-1.9648-0.37891-3.5859-0.5-6.3125-1.9805-9.1172-6.3672-12.023-2.8047-1.8594-3.4844-2.625-3.7734-4.3398-0.10156-0.57813-0.21094-1.4062-0.32422-2.2227-0.10156-0.73438-0.20312-1.4609-0.29297-2.0156-0.42578-2.4883-2.9961-6.0195-4.8281-6.0195-0.70703 0-3.0586 0.85547-5.1367 1.8711-2.3242 1.0859-4.1758 1.8203-4.4531 1.8203-0.91797 0-2.6953-2.1797-4.582-7.043-0.98438-2.6445-2.3594-5.0352-3.332-5.8086-2.2891-1.7969-6.5078-1.6875-10.734 0.28125-1.9141 0.89062-3.793 1.5117-4.2656 1.5117-1.4336 0-2.8555-1.8047-3.9023-4.9453-0.98438-2.918-2.7383-4.7539-5.0781-5.3086-2.8711-0.69531-6.3828 0.74609-9.6094 3.9297-1.0117 1.0352-2.25 1.5117-3.6055 1.3203-2.3125-0.29688-4.7227-2.3516-6.6016-5.6328-2.418-4.3398-4.4531-5.9531-7.5078-5.9531-3.6797 0-5.4727 1.8125-6.6094 6.6875-0.53125 2.4531-1.1914 4.3398-1.418 4.5586-0.89062 0.88672-4.1758-0.35938-8.7188-4.4922-3.8516-3.4766-4.2617-3.6836-7.2812-3.6836-2.4297 0-4.3438 0.80469-5.5273 2.3359-1.2383 1.5977-1.5586 3.9023-0.89453 6.4844 0.42969 1.7812 0.44922 2.6992 0.0625 3.0781-0.39844 0.37891-1.3398 0.33594-3.1602-0.15234-6.4609-1.8945-10.496-1.6641-12.699 0.73828-1.668 1.8633-1.5977 3.5234 0.28125 6.5898 0.87891 1.4844 1.3477 2.4062 1.4727 2.7344-0.49219 0.11719-2.4141 0.15625-5.1367-0.054688-5.1797-0.375-5.4883-0.37891-7.5312 1.3438-2.2578 1.9336-2.4883 3.1914-1.1641 6.4023l0.84375 1.9805-2.4297 1.6133c-3.1289 2.1172-4.168 4.4336-3.0859 6.9219 0.75781 1.5742 1.2305 1.6523 3.6133 1.418 1.457-0.19141 3.3438-0.5 4.2656-0.75 1.3477-0.37109 1.5273-0.33594 2.375 1.8984 1.1406 2.8555 3.7188 4.3398 6.5781 3.7578 0.92578-0.17969 3.3047-1.3281 5.4141-2.6055 4.7617-2.8672 6.6484-2.957 7.3984-2.543 0.375 0.21094 0.55859 0.62109 0.55859 1.2422 0 2.918 1.4492 5.9805 3.3672 7.1289 3.2656 2.0117 5.3633 1.6406 8.3281-1.4492 1.418-1.5469 3.1094-3.6836 3.7812-4.7695 1.6445-2.793 4.5469-4.7031 7.043-4.7031 0.14062 0 0.28516 0.003907 0.42578 0.023438l1.9375 0.16406-0.17969 3.8359c-0.24609 3.9375-0.14453 4.2656 1.7969 5.8359 3.2773 2.7812 5.6289 2.1016 11.969-3.5039 3.707-3.3359 6.6289-4.9688 7.9961-4.4336 0.48047 0.19141 0.57812 1.3398 0.34766 4.3867-0.24219 4-0.21875 4.4922 1.3555 6.0664 2.9609 2.9688 5.207 1.8867 10.445-2.8789 2.9219-2.6328 6.2227-4.2227 8.4492-4.0469 0.78906 0.0625 1.3945 0.33594 1.7969 0.82812 0.50781 0.60938 0.54297 1.3203-0.58984 4.1484-1.625 4.3008-1.6172 4.9883 0.027343 7.332 1.2695 1.7812 1.6758 1.9492 4.5078 1.6875 2.2461-0.24609 4.1055-1.0703 7.9648-3.5391 5.4375-3.5781 7.4492-3.5742 8.1602-3.2461 0.37109 0.16797 0.58203 0.5 0.65625 1.0078 0.11328 0.73828-0.3125 2.043-0.94531 2.9102-1.9648 2.8047-2.3398 5.7461-0.98437 7.6602 1.1094 1.5781 3.1484 2.0703 5.582 1.4102 1.2422-0.3125 3.8398-1.7852 5.9141-3.3555 5.4492-3.9492 8.4688-5.3125 12.422-5.6094 1.6367-0.15234 2.8125-0.15625 3.2422-0.11328-0.55859 1.0039-3.625 5.6289-4.9844 7.6875-4.5547 6.6797-20.625 33.801-22.625 38.188-0.4375 0.93359-0.90234 1.4766-1.0234 1.5234-0.49219 0-2.7891-2.8906-2.7891-3.7695 0-0.55859-2.0898-3.1875-3.4961-4.8164-4.7227-5.3984-4.9336-5.7773-5.7227-10.277-0.95312-5.2578-2.0312-7.2109-4.4453-8.0312-2.6133-0.96484-5.2148 0.035156-7.3203 2.7812-0.91406 1.2383-1.7852 1.9648-1.9727 1.9922-0.68359 0-4.0781-5.4141-4.0781-6.9609 0-2.3867-2.4883-8.2617-3.8086-8.9805-1.9258-1.0312-5.4102-0.78516-6.5391 0.47656-0.55859 0.62109-1.4297 2.0391-2 3.1211-0.70703 1.4102-1.3086 1.9102-2.3203 1.9102-1.8125 0-6.0078-3.7539-7.4805-6.7031-0.67188-1.2266-2.0234-3.1406-3.1133-4.2266-1.5117-1.5078-3.5039-2.2109-5.6328-1.9883-2.8672 0.3125-5.6172 2.2109-7.5547 5.2266-0.85156 1.3047-1.8125 2.168-2.082 2.168-0.30078-0.003906-2.1016-1.1094-4.2227-2.8398-4.1055-3.3672-6.7656-4.4688-10.953-4.5352-5.0859 0-8.6406 3.0977-8.6406 7.5312 0 1.1367-0.32422 1.7148-0.53125 1.7422-2 0.20703-4.1758-0.30859-8.6289-1.9531-2.8281-1.0078-6.2344-1.793-7.75-1.793-3.2656 0-6.7383 1.8125-7.582 3.9609-0.57812 1.5977 0.039062 4.5078 1.2656 5.9883 0.42188 0.51562 0.51562 0.86328-0.42188 1.8633-1.0352 1.1484-1.5391 1.2031-7.5 0.84375-6.1094-0.37891-6.625-0.32031-7.8008 0.93359-1.3594 1.5625-1.3945 3.8477-0.10547 7.4141l0.85547 2.4414-2.3984 1.0859c-3.125 1.4336-5.8789 4.1289-6.707 6.5625-0.32031 0.93359-0.30859 1.7656 0.027343 2.4062 1.418 2.582 5.6836 2.4023 12.332-0.51953 2.2227-0.98047 3.5664-1.25 4.2344-0.80469 0.41406 0.26953 0.60938 0.84375 0.60938 1.7734 0 2.4883 1.9883 3.9648 5.3203 3.9648 2.7891 0 5.0898-1.0703 9.4766-4.4023 3.5273-2.6953 6.0547-3.7344 7.6562-3.2266 0.91406 0.30078 1.0117 0.47656 0.70703 4.0039-0.4375 4.7227 0.67188 6.7148 4.3906 7.9141 3.3984 1.1328 5.8789 0.34766 11.508-3.7109 3.293-2.3789 5.5234-3.9297 6.3242-3.4961 0.63672 0.33203 0.6875 2.0117 0.6875 4.1719 0 5.7305 1.3711 7.9688 4.8945 7.9688 2.8281 0 4.043-0.65625 8.6875-4.6602 4.8438-4.1836 6.5898-5.2539 7.75-4.8203 0.73437 0.29688 0.85156 0.63672 0.47656 3.6328-0.80078 5.8516-0.62891 7.0664 1.2422 8.6797 1.3672 1.1094 2.5547 1.4609 4.8711 1.4609 3.9023 0 4.9062-0.51953 9.8008-5.0391 2.2305-2.0703 5.3359-4.7656 6.625-4.1211 0.76172 0.375 1.0039 1.9414 0.73438 4.8047-0.30859 3.9375-0.25781 4.6797 1.0234 6.2266 1.1328 1.5391 2.0508 1.8125 4.0469 1.8125 2.3359 0 2.9844-0.37109 5.8203-3.3281 4.3633-4.6094 7.9648-6.9609 12.422-8.1094 3.2539-0.78516 6.9453-0.75 7.6836-0.16406 0.0625 0.050781 0.089844 0.09375 0.089844 0.11719-0.035156 0.24219-0.95312 2.1289-2.3633 4.6367-1.2695 2.3516-4.1953 8.25-6.5195 13.281-4.6992 10.152-11.02 23.672-11.938 24.434-0.46094-0.125-1.457-2.5078-1.457-4.6797 0-2.3086-0.49219-3.7227-1.5117-4.3438-1.0977-0.67188-2.8242-0.37891-5.2656 0.88672-3.0586 1.5273-3.3672 1.5234-4.0938 0.78906-0.42578-0.48047-1.1641-2.7734-1.5469-5.293-0.8125-5.4883-2.3086-7.6211-5.3203-7.6211-2.1836 0-3.1992 0.76562-7.7227 5.8516-1.4844 1.6445-2.8125 2.3594-3.8359 2.0508-1.1016-0.33203-1.8984-1.8047-2.2852-4.2656-0.16406-1.0938-0.42578-2.7617-0.60547-3.9297l-0.066406-0.4375c-0.44922-2.6992-3.1484-6.0195-4.8906-6.0195-2.543 0-5.1562 1.9766-6.3516 4.8047-0.76563 1.6914-1.6133 2.5586-2.5977 2.6328-0.050781 0.003906-0.10156 0.003906-0.15234 0.003906-1.5508 0-3.5391-1.8633-6.0703-5.6914-4.0156-5.9805-4.8086-6.668-7.7461-6.668-1.25 0-2.8555 0.20703-3.2578 0.53125-1.043 0.72266-2.8633 3.7227-2.8633 4.7305 0 0.39062-0.23047 1.0859-0.51953 1.5391-0.089844 0.14063-0.21094 0.21094-0.39062 0.23438-0.035156 0.003906-0.066406 0.003906-0.10547 0.003906-0.72656 0-2.5938-0.76562-7.2031-5.375-3.9219-4.0391-6.2656-4.8086-9.6602-3.1797-1.7031 0.81641-2.5352 1.8242-3.5508 4.3008-1.6133 3.9883-2.5938 5.9453-3.793 6.2656-0.95703 0.25391-2.1797-0.50781-4.0938-2-2.3203-1.832-3.6172-2.3672-6.3242-2.625-3.0625-0.25391-3.4453-0.11719-5.0469 1.7344-0.90625 1.1094-1.8242 2.9922-2.0117 4.0977-0.53906 2.6641-2.3906 3.4492-8.6406 3.625-5.8086 0.19141-7.9844 1.1641-8.625 3.8516-0.27344 0.96875-0.050782 2.4297 0.32031 3.2305 0.41406 0.90625 0.51562 1.4375 0.35156 1.7812-0.17188 0.36328-0.69531 0.62891-1.7969 0.91406-2.4961 0.59375-4.3242 2.5977-4.582 4.1172-0.14062 0.82812 0.15234 1.5195 0.82422 1.9414 0.42578 0.28516 2.4375 0.78516 4.1953 1.1367 3.1367 0.67578 3.2305 0.82422 3.5742 2.5938 0.33984 1.5859 0.99609 2.6445 2 3.2305 1.4688 0.85547 3.6797 0.77344 7.1914-0.30078 2.3203-0.67578 3.4336-0.78516 4.0938-0.35938 0.50781 0.32422 0.80469 1.0039 1.0312 2.3359 0.29297 1.8594 1.25 3.2148 2.7812 3.9219 2.3594 1.082 5.8359 0.46094 9.2891-1.6758l1.2383-0.76172c1.2891-0.78906 2.6211-1.6055 3.3086-2.0664 2-1.2305 4.8672-1.793 5.9141-1.1719 0.35156 0.21094 0.82812 1.1719 1.0586 4.4961 0.24219 3.2891 0.46094 4.25 1.9258 5.3828 2.2852 1.8477 4.6797 1.6016 7.7656-0.79688 1.1914-0.87891 3.1211-2.3242 4.582-3.4141l0.76172-0.57031c2.2734-1.6367 3.9609-2.2344 4.7031-1.7266 0.59375 0.41016 0.65625 1.5625 0.17188 3.3281-0.82422 2.9844 0.33594 6.293 2.582 7.3867 2.8672 1.3438 6.0312 0.078125 9.9609-3.9688 3.5117-3.5742 5.8203-5.0977 7.707-5.0977 1.2891 0 1.7422 0.78906 1.7422 5.2461 0 4.4453 1.2422 6.4297 4.0312 6.4297 2.6445 0 5.1016-1.6289 9.75-6.4609 2.3398-2.4805 3.9609-3.9102 4.1992-3.9805 0.46094 0 1.3711 0.51953 2.3008 4.0078 0.87891 3.5 2.6133 5.207 5.3125 5.207 2.8047 0 4.3789-1.25 7.0117-5.5781 2.3086-3.832 5.7969-7.3125 8.8828-8.8867l1.332-0.68359-0.66016 1.4453c-0.96875 2.3008-8.5391 18.484-14.676 31.27l-3.8789 8.2422-2.4648 0.41406c-2.6055 0.42188-7.2422-0.39062-9.1953-1.6406-0.60547-0.33203-2.3242-2.4258-3.9141-4.7773-2.5938-3.9648-5.1406-5.9766-7.5898-5.9766-0.078124 0-0.16406 0-0.24219 0.003906-2.2188 0.11719-4.2227 1.9102-5.9531 5.3125-0.75781 1.5078-1.3008 1.9023-2.625 1.9023-1.418 0-2.0312-0.46875-3.6914-2.7891-4.8711-7.0664-8.1758-9.4883-11.387-8.3164-2.582 1.0312-3.5859 3.1211-3.5859 7.4609 0 3.6445-0.15234 3.6445-1.125 3.6445-0.58984 0-2.1914-0.94531-6.4727-5.4609-5.1445-5.3945-5.4492-5.6016-8.2109-5.6016-4.7148 0.066406-6.9141 2.7539-6.9141 8.457 0 1.4609-0.066406 2.8398-0.54688 3.0703-0.55469 0.28516-1.9414-0.74609-4.0039-2.4453-4.3516-3.5391-5.5391-4.1602-7.9453-4.1602-2.6055 0-5.332 2.3281-6.7773 5.7852l-0.35938 0.85547c-1.4492 3.4844-1.4609 3.4609-6.6484 3.293l-7.7109-0.23438-0.11328-0.003906-1.6641 2.0547c-1.3789 1.625-1.7148 2.6758-1.7148 5.3633 0 3.5664-0.039062 3.6133-4.0078 4.5742-2.4531 0.62109-3.9219 1.9336-3.9297 3.5156-0.015625 1.7852 1.7734 3.3828 4.6719 4.168 6.5781 1.7461 8.1875 3.2578 8.1875 7.707 0 1.418 0.60938 2.582 1.7734 3.3828 2.2305 1.5273 6.1758 1.4961 10.328-0.10156 5.0898-1.9219 6.1719-1.6914 7.707 1.5469 1.1094 2.3008 2.4141 3.5742 3.9805 3.8906 1.9766 0.41406 4.2773-0.66016 7.3008-3.3281 3.5898-3.1992 7.6367-5.293 8.2773-4.957 0.16406 0.10156 0.51953 0.83984 0.81641 2.1914 0.56641 3.0234 2.7266 4.9727 5.5039 4.9727 2.8438 0 3.6562-0.61719 7.2461-5.5 2.7734-3.8242 5.2188-5.2539 6.1562-4.6719 0.19531 0.11719 0.81641 1.332 1.4375 3.2031 1.4492 4.3516 3.9141 4.6992 5.7344 4.2617 2.6133-0.62891 5.8477-3.9375 6.9141-7.0898 1.1211-3.2148 2.625-4.9453 3.4727-4.9453 0.19531 0.027343 0.95703 0.89453 1.707 2.4453 0.70703 1.5469 2.0156 3.1602 2.9844 3.6719 1.6367 0.85156 1.9727 0.81641 3.6172-0.38672 0.92578-0.68359 3.457-3.6172 5.7578-6.6758 2.2305-2.9727 4.9609-6.0664 6.1055-6.9062 1.2109-0.95703 3.3672-2.8047 4.8086-4.1289l1.7656-1.6875-3.2266 6.7656c-2.1953 4.5938-6.7656 13.648-9.9531 19.84l-6.082 11.793h-2.0156c-1.3984 0-3.7109-0.8125-6.0352-2.1211-3.7422-2.0625-6.4453-2.5859-8.0742-1.5898-1.293 0.79688-1.8945 2.5586-1.7812 5.2344 0.078125 1.6523-0.066406 2.4805-0.47656 2.6992-0.085937 0.050782-0.18359 0.066407-0.29688 0.066407-0.85156 0-2.5078-1.1367-4.2109-2.3984-3.2656-2.4531-6.4414-3.1992-8.7188-2.0703-1.7812 0.89062-2.7617 2.8672-2.7617 5.5664 0 3.0352-0.44922 4.75-1.3203 5.0664-0.11328 0.042969-0.23047 0.0625-0.35938 0.0625-0.99219 0-2.543-1.2148-4.6211-3.625-3.1094-3.6016-5.9453-5.2422-8.2109-4.793-1.7188 0.35156-3.0117 1.8711-3.8477 4.5039-0.91797 2.8164-1.1406 2.9336-2.8828 3.1016-1.6406 0.20312-2.25-0.16797-4.418-2.4453-1.418-1.5469-3.5156-3.2539-4.6719-3.793-1.8867-0.98438-3.8398-1.0039-5.3594-0.078125-1.5234 0.92969-2.4023 2.6875-2.4023 4.8203 0 1.7539-0.36328 2.4961-0.71875 2.6133-0.33203 0.09375-2.1289-0.40234-4.1758-1.5234-2.0312-1.082-4.4297-1.9258-5.4492-1.9258-2.4922 0-4.8008 1.2617-6.0195 3.2969-1.0859 1.8047-1.1602 3.8789-0.19531 5.6992 0.26172 0.44141 0.28516 0.58203 0.25781 0.62891-0.11328 0.20312-1.4375 0.20312-2.1523 0.20312-2.4141 0-4.4062 0.79688-5.0781 2.0273-0.33984 0.62109-0.30859 1.293 0.09375 1.9258 0.33984 0.62109 0.70703 1.6914 0.70703 2.2891 0 1.6172 3.6406 5.3984 6.0156 6.6406 1.0312 0.55469 3.3047 1.1797 5.1797 1.4453 2.5078 0.29688 3.3867 0.75 4.957 2.5664 4.0703 4.7031 6.8477 4.9688 13.547 1.3398 2.6602-1.457 4.918-2.4258 5.2422-2.4258 0.32422 0 0.83594 0.59766 1.0703 1.4727 0.62109 3.0391 0.83594 3.3828 2.5312 4.0391 2.1094 0.82812 3.2031 0.34766 7.2344-3.2383 2.2344-1.9375 4.1836-2.9531 5.668-2.9531 0.089844 0 0.17969 0 0.26953 0.011719 0.73828 0.066406 1.3594 0.40234 1.8555 1.0117 1.5273 1.8438 4.3906 3.1758 6.0547 2.8398 1.9023-0.37891 5.6094-4.5625 6.6211-7.4648 0.29688-0.97266 0.55859-1.4688 0.86328-1.6133 0.09375-0.039063 0.25391-0.085938 0.55859 0.027343 3.6914 1.5273 5.1445 1.6055 7.4297 0.35938 2.9922-1.5234 4.1758-2.832 8.5-9.3477 1.9102-2.8906 4.2852-5.8672 5.2969-6.6484l1.1016-0.85156-1.4375 2.793c-2.8438 5.6914-9.6328 17.734-13.445 23.883l-3.3828 5.5547-3.457 0.35156c-4.0703 0.5-7.6719-0.32422-10.719-2.4141-3.1094-2.0938-7.1719-2.0625-9.25 0.085937-1.707 1.6445-1.9883 3.1758-1.0352 5.6523 0.29297 0.76172 0.33594 1.6562 0.078126 2.0156-0.10156 0.17188-0.23047 0.26953-0.41406 0.29688-0.039063 0.003906-0.085937 0.003906-0.125 0.003906-0.85156 0-2.4766-1.1211-4.9492-3.4219-3.2656-3.0234-8.3047-4.3789-11.48-3.1133-1.2891 0.54297-2.0156 1.1641-2.2891 1.9727-0.33203 0.98438 0 2.2578 1.0742 4.1289 0.96484 1.6445 1.5391 2.8047 1.5664 2.957 0 0.12891-0.050781 0.15625-0.074219 0.16797-0.23047 0.14063-1.1914 0.15625-5.4922-2.3906-2.3477-1.3281-5.4102-2.6055-6.8359-2.8516-2.8047-0.39062-5.0898 0.28125-6.0703 1.8984-0.82812 1.3711-0.55469 3.1875 0.76172 4.9766 0.81641 1.082 1.125 1.7969 0.92578 2.1172-0.44922 0.71875-3.4258 0.19531-5.9883-0.32422-5.9961-1.1992-8.7305-0.92969-11.238 1.0859-1.0742 0.84375-1.7266 1.6758-1.4336 2.9219 0.28516 1.4766-0.58203 2.4375-3.5742 3.9375-1.4844 0.76562-2.1523 1.5859-2.1523 2.6484 0 2.1328 1.4492 3.1523 5 3.5391 2.6836 0.23438 2.6836 0.23438 2.6836 2.3008 0 2.043 0.3125 2.5078 2.3984 3.5156 2.2891 1.1406 2.3984 1.125 6.1484-0.48828 1.9102-0.8125 3.4336-1.3906 3.8242-1.5 0.11328 0.20703 0.32422 0.80469 0.53906 1.6445 0.50781 2.4297 2.0117 3.2539 5.9375 3.2539 2.5352 0 3.6719-0.42188 6.7578-2.4922 3.9922-2.7148 5.5938-2.9609 7.7852-1.2422 2.0234 1.5898 5.3867 2.1992 7.0664 1.3164 0.74609-0.41016 2.1914-2.2734 3.2188-4.1484 1.2305-2.1406 2.2734-3.1914 3.2891-3.3047 0.71094-0.11328 1.4375 0.3125 2.25 1.1992 0.70703 0.78516 1.5469 1.1992 2.5039 1.2227 0.027343 0.003906 0.0625 0.003906 0.089843 0.003906 2.0664 0 4.7266-1.7188 8.3594-5.3945l0.98437-1.0117-1.2656 1.8359c-1.4688 2.1094-3.7969 5.7578-5.293 8.3047-3.4648 5.9062-5.4141 7.2617-10.438 7.2617-2.2188 0-4.9727-0.46094-6.5508-1.0859-3.5156-1.3984-6.7656-1.4336-8.6914-0.054687-1.1758 0.83594-1.7578 2.1211-1.6914 3.707 0.050781 1.0938-0.074219 1.6562-0.41016 1.8945-0.64844 0.4375-2.4375-0.15234-5.3047-1.3711-4.6797-1.9258-5.7578-1.9141-8.2148 0.10547-1.7188 1.5273-1.9219 2.0508-1.7969 4.6641 0.085938 1.1719 0.13281 2.1523-0.11328 2.375-0.09375 0.089844-0.29297 0.10156-0.67188 0.035156-5.9375-0.95703-8.6445-0.88672-9.9805 0.25391-0.70703 0.59766-1.0312 1.5234-1.0312 2.918 0 2.5586-1.1211 3.6797-4.4336 4.4453-3.1211 0.6875-7.1016 3.2812-8.1992 5.3477-0.51953 1.1133-0.88672 2.8555-0.81641 3.9805 0.125 1.2148-0.375 3.0703-1.2617 4.7305-1.2227 2.3086-1.4336 3.0625-0.65625 3.9922 1.2383 1.4883 3.3164 1.332 6.7305-0.5l2.5156-1.2969v1.7148c0 1.293 0.45312 2.3672 1.3086 3.1016 1.0078 0.86719 2.5312 1.2148 4.3008 0.92578 2.6602-0.44141 4.543-2.082 7.4609-6.4805 1.1406-1.6875 2.7148-3.5117 3.4961-4.0547 1.2383-0.78906 1.3086-0.77344 2.6055 0.57812 0.95703 1.0195 2.0117 1.5352 3.1367 1.5352 0.066406 0 0.14062 0 0.21094-0.003907 2.25-0.12891 4.8164-2.2227 8.0586-6.5898 2.2383-3.0508 2.4453-3.0898 3.5938-2.5742 2.9102 1.3672 7.0859-2.3594 13.984-12.426 1.0195-1.5 2.6836-3.4141 3.5898-4.2578 0.11328-0.10547 0.23047-0.20703 0.34766-0.30859-0.76562 1.1328-2.4688 3.4648-5.2578 7.293l-0.33594 0.46094c-7.3633 10.059-11.34 13.898-17.742 17.137-6.7383 3.4648-8.4766 5.0977-8.4766 7.9414 0 2.7109-0.42188 3.1133-3.7422 3.5898-2.918 0.44141-5.1641 1.9883-5.8672 4.0312-0.52734 1.5352-0.125 3.1133 1.1328 4.4453 0.65625 0.68359 0.90625 1.1367 0.84375 1.5078-0.11328 0.63672-1.1797 1.2891-2.8711 2.1328-3.5039 1.7539-6.6992 4.8945-6.6992 6.5977 0 0.78906 0.58203 1.9648 1.3008 2.6133 0.71875 0.65625 1.1523 1.3828 1.1523 1.5508-0.015625 0.26172-0.85547 2.2188-2.1289 4.6914-2.543 4.9609-2.6445 5.9062-0.78516 7.2344 0.51953 0.35156 1.1602 0.52734 1.8438 0.52734 1.4297 0 3.0508-0.73438 4.2227-2.0391 0.89453-1.0039 0.95312-1.0039 2.2344-0.14453 1.2227 0.78906 2.8008 0.87891 4.4531 0.24609 2.2852-0.87891 4.168-2.957 4.793-5.2812l0.0625-0.23438c1.4688-5.3555 1.4727-5.3477 4.3164-5.0781l0.11328 0.011718c4.5977 0.42969 5.75-0.85547 6.8164-7.7461 0.66016-4.1562 1.1406-5.6094 2.0508-6.2344 1.2305-0.81641 1.332-1.7539 1.332-6.6367 0.0625-8.8242 0.92969-11.406 6.2227-18.426 2.6719-3.5781 6.5312-8.9258 8.6016-11.922 3.7734-5.4414 5.0117-6.793 5.4141-7.0898-0.050782 0.30859-0.30859 1.1484-1.3789 3.4336-2.1094 4.5742-3.543 6.8281-9.6211 15.07-4.7695 6.3828-5.5156 8.2031-5.0195 12.207 0.35938 3.0586 0.27344 3.3672-1.8711 6.4805-1.707 2.4961-2.2969 4.0703-2.0312 5.4375 0.22266 1.1875 1.0938 2.1992 2.8945 3.4141 2.9219 1.9648 3.0859 2.957 1.4492 8.793-0.82422 3.1641-0.86719 4.2188-0.24219 6.2656 0.44922 1.5078 1.125 2.3789 2.0039 2.5859 1.0117 0.24609 2.2344-0.39844 3.6562-1.8945 0.98047-1.043 2.1562-1.7695 2.5977-1.7695 0.62109 0 1.9102-0.82812 2.8633-1.8555 1.5625-1.625 1.7852-2.3242 1.7188-5.3203-0.0625-3.0977 0.054687-3.2266 1.5742-3.9023 1.0117-0.37891 2.5664-1.4844 3.5234-2.5078 1.9219-1.9805 1.9648-3.3203 0.30078-8.9414-0.77734-2.8047-0.77734-2.8047 0.92969-4.582l1.5664-1.6172 0.66016 1.2656c0.45313 0.82812 1.0195 1.3281 1.7266 1.5117 1.0195 0.28516 2.3359-0.10547 4.1211-1.1875 0.89453-0.56641 1.6289-0.89453 1.9648-1.0039-0.19141 0.57031-1.0312 2.25-2.4023 4.5039-2.7227 4.4531-3.4453 7.5078-2.4141 10.215 0.21094 0.53125 0.60547 0.88672 1.1406 1.0117 1.125 0.30859 2.793-0.37891 4.5547-1.8477 1.3555-1.0977 2.0234-1.5273 2.2617-1.6523 0.14453 0.3125 0.50781 1.2812 1.0078 2.7734 0.50781 1.6016 1.3984 3.1016 2.0547 3.5 0.51562 0.33594 1.1094 0.33594 1.7344-0.011719 1.2812-0.69531 2.6641-2.9297 2.6641-5.3359v-2.0117l1.5469 0.56641c1.5391 0.54297 2.2969 0.58984 3.7461-0.26172 1.1484-0.63672 1.832-1.4844 2.0234-2.5312 0.30859-1.6445-0.62109-3.7812-2.7617-6.3516-1.3711-1.6523-1.9766-2.8828-1.9258-3.1016 0.11328-0.19141 1.332-0.62891 3.3711-0.83594 3.2188-0.3125 3.4766-0.38672 4.0664-2.6836 0.87891-3.5938-0.90625-6.625-5.8125-9.8281l-3.625-2.3477 1.3047-0.50781c0.86719-0.29688 2.2578-0.60547 3.125-0.60547 0.86719 0 2.1523-0.57812 2.8633-1.293 0.68359-0.68359 0.98438-1.5352 0.86328-2.4648-0.20312-1.5977-1.6055-3.2656-3.8594-4.5859-1.5469-0.90234-3.7812-2.4922-4.8789-3.4766-1.125-0.98438-1.6953-1.5508-1.7188-1.9414-0.003906-0.18359 0.10156-0.375 0.40234-0.71094 0.37109-0.53906 1.6523-1.3828 2.8516-1.8867 1.0742-0.45312 2.4805-1.2695 2.9844-1.9141 0.125-0.17969 0.38672-0.55469 0.50391-0.55859 0.12891 0 0.44141 0.37109 0.61719 0.57031 1.0977 1.2812 4.0273 1.3438 6.5469 0.11328 0.99609-0.55859 1.9375-0.71875 2.1172-0.61719 0.44922 0.26172-0.042969 2.9727-2.5469 8.1914-2.3633 5.0508-2.4375 8.4062-0.19141 9.4531 1.4062 0.59766 2.1797 0.34766 4.4961-0.99609 1.5469-0.90234 2.7773-1.5273 2.9023-1.5664 0.027344 0 0.089844 0 0.16406 0.11328 0.37891 0.57812 0.19531 2.6719-0.61719 4.4844-1.5508 3.4141-1.5078 5.3984 0.16797 7.0742 1.3555 1.3477 3.3828 1.4453 7.2227 0.30078 0.78516-0.21094 1.0977-0.19141 1.875 2.1328 0.77344 2.2305 2.1953 3.6172 3.8086 3.7188 0.0625 0 0.125 0.003906 0.19141 0.003906 1.4609 0 2.8047-1.0469 3.7227-2.9062 0.71875-1.5664 0.74609-2.4414 0.13281-4.457l-0.26953-0.875c-0.67188-2.168-1.0469-3.3672-0.75781-3.7617 0.23438-0.30859 1.0312-0.29297 2.3125-0.30078l0.70703 0.003907c3.0703 0 3.9805-0.26172 5.1406-1.4766 1.1719-1.2227 1.6758-2.9414 1.418-4.8555-0.36328-2.7422-2.1953-5.4219-4.7773-6.9766-3.7305-2.2695-5.0508-3.832-5.0508-4.4805 0-0.20703 0.71875-0.73438 2.9414-1.0039 3.7734-0.50781 5.5156-1.8242 6.0273-4.5469 0.63672-3.2422-2.5273-6.0703-8.457-7.5703-3.793-0.96875-4.7305-1.8086-4.9609-2.2227-0.27344-0.48828-0.34766-0.78516-0.25781-1.0078 0.21875-0.54687 1.4844-1.0312 3.7617-1.7344 0.56641-0.20703 3.4258-1.2617 3.9688-1.9766 0.21875-0.26953 0.35938-0.37891 0.49219-0.38672h0.011718c0.20703 0 0.52734 0.23047 1.0625 0.77344 1.8945 1.8945 4.5312 1.5391 7.4258-0.96875 1.7266-1.4297 2.8398-2.0938 3.0508-2.1016 0.125 0 0.21875 0.050781 0.28516 0.16406 0.46484 0.75-0.0625 3.6523-1.9609 7.5586-2.168 4.5625-2.6875 7.7227-1.5469 9.3906 0.72266 1.0547 2.0898 1.5117 4.0781 1.3789 0.85547 0 3.125-1.8945 4.3281-3.0117 2.8164-2.6211 3.0742-2.5859 3.6797-1.9766 0.6875 0.74609 0.70703 1.082-0.53906 4.5625-1.2891 3.4961-1.3281 4.0273-0.42188 5.6523 0.64844 1.2305 1.5742 1.8359 3 1.9609 1.9336 0.20703 2.3789-0.25391 4.0195-2.8672 0.73438-1.1133 1.25-1.7148 1.5-1.9336 0.21875 1.7461 4.0312 4.9297 5.9883 4.9297 1.8711 0 3.2656-0.67578 3.9297-1.9102 0.77734-1.4453 0.44141-3.4492-0.91797-5.5039-0.92969-1.3711-1.2773-2.2383-1.0586-2.6445 0.13281-0.25781 0.55469-0.37891 1.2422-0.37891 1.8438 0 4.1562-1.043 4.8477-2.1836 0.89453-1.2812 0.57812-4.4727-0.67188-6.5742-0.69531-1.0742-2.7266-3.1094-4.5352-4.543-4.2891-3.375-5.3984-5.2695-5.0469-5.8594 0.11719-0.19531 1.4062-1.0078 3.1523-1.7461 1.5859-0.67188 3.3203-1.8711 3.7852-2.6055 1.0977-1.7422 0.5-4.5469-1.3281-6.2422-1.3008-1.2305-7.0664-3.707-13.418-5.7578-2.0547-0.64844-2.4961-1.1992-2.5078-1.5352-0.015626-0.38672 0.48828-1.0469 2.957-2.0391 4.4297-1.7461 5.8516-3.1602 5.8516-5.7969 0-3.168-2.1016-4.8984-8.332-6.8477-2.793-0.82812-5.8242-2.0547-6.6133-2.6602-1.3555-1.1406-1.3477-1.6875 1.7578-5.9062 1.2891-1.8047 1.5742-2.8008 1.3281-4.6367-0.44141-3.2891-1.0469-3.8633-7.1914-6.8164-2.8438-1.3281-6.4219-3.4258-7.8164-4.582-2.8242-2.3398-5.0117-6.0742-4.7695-8.1523 0.28516-2.5195 14.309-30.625 16.754-33.734-0.023438 0.51953-0.11328 1.6875-0.37109 4.3164-0.23438 2.4258-0.49219 6.668-0.49219 9.2969-0.0625 2.5977-0.5 6.0195-0.97266 7.6211-1.5898 5.293-1.125 10.031 1.2227 12.371 1.3828 1.3906 3.2695 1.7734 5.4414 1.1211 1.5273-0.39844 2.3281-0.41406 2.4648-0.33594 0.68359 0.44141 0.46484 4.1562-0.77344 7.8516-2.1289 6.3242-1.9648 9.3203 0.66016 12.32 2.7344 3.1133 5.7305 3.1211 9.7031 0.035156l2.6055-1.9805 0.61719 1.2812c0.6875 1.5508 0.67187 1.8555-2.2773 9.5977-1.7695 4.8047-1.6641 7.0664 0.42969 8.9609 1.9375 1.7461 4.8945 1.457 8.5625-0.83594 1.8594-1.1992 3.4375-1.9258 3.7539-1.9258 0.066406 0 0.15625 0.015624 0.24219 0.14453 0.42969 0.66797 0.10156 3.1484-1.1797 5.9805-0.78516 1.6367-1.6641 3.8125-1.9219 4.7812-0.42187 1.7812 0.19141 3.9883 1.5898 5.7578 1.1914 1.5117 2.7109 2.375 4.1562 2.375 0.81641 0 2.8633-1.125 4.5586-2.5078 1.2148-0.94141 2.1953-1.6797 2.6992-1.6797 0.0625 0 0.11328 0.011719 0.16406 0.039062 0.54688 0.26172 0.58984 2.2617 0.58984 5.5156 0 4.1367 0.20312 4.8984 1.6641 6.3047 1.9492 1.9414 3.8984 1.7344 7.1719-0.77734 1.1211-0.85156 1.8633-1.1367 2.3789-0.94141 0.61719 0.25781 1.0234 1.293 1.3203 3.3711 0.51562 3.2656 2.4961 6.0273 4.3398 6.0273 1.6172 0 3.9023-1.1484 4.6133-2.3281 0.24219-0.41406 0.46484-0.62109 0.73438-0.67188 0.039063-0.003906 0.085938-0.011718 0.125-0.011718 0.53125 0 1.3438 0.51953 2.7344 1.7266 2.3359 2.0703 2.6602 2.1602 4.957 1.2695 0.82422-0.30078 1.3672-0.81641 1.6016-1.5469 0.42188-1.293-0.17969-3.1992-1.7344-5.4922-1.3945-2.0547-1.8828-3.2812-1.6875-4.2461 0.16406-0.78516 0.78906-1.4766 2.1094-2.3242 2.0938-1.3945 2.375-1.9141 2.3125-4.3047-0.066406-3.1211-1.7305-5.2266-6.8594-8.6562-3.4141-2.2773-4.8477-3.7188-4.7891-4.8203 0.039063-0.73437 0.77344-1.4453 2.3008-2.2305 3.1797-1.5586 4.793-3.4062 4.793-5.4883 0-3.7461-5.1641-6.7812-13.16-7.7227-3.2969-0.37109-7.1133-2.1523-7.1133-3.0312 0-0.72656 1.8555-2.1523 4.3281-2.9805 2.582-0.80078 4.3398-2.4141 4.832-4.418 0.4375-1.7734-0.17969-3.6133-1.7344-5.168-2.2969-2.2305-5.4922-3.1367-11.031-3.1367-5.1953 0-8.6875-1.0039-8.6875-1.9258 0-1.5586 0.73828-2.5977 2.7227-3.8633 2.3516-1.4609 4.6523-5.2734 4.6523-7.6875 0-0.94141-0.85547-2.3008-1.668-3.1094-1.5625-1.4961-2.168-1.5352-9.6758-1.5352-6.4609 0-7.9453-0.17188-8.8125-1.043-0.83594-0.82812-0.89062-0.87891 1.1719-3 4.1875-4.3242 4.7148-8.1758 1.6016-11.789-2-2.3203-2.2461-2.4062-8.9258-3.2695-7.9648-1.0117-11.598-2.582-13.406-5.7773l-1.1758-2.2344 7.2031-14.762c4.4922-9.1172 6.7578-13.738 7.7344-13.738h0.027344c0.48828 0.042969 0.92578 1.6758 1.3477 3.2539 1.0312 3.8867 0.99219 7.9141-0.11719 11.047-1.3672 3.9102-1.2891 6.7969 0.23047 8.3672 1.3594 1.4062 3.8086 1.6172 7.0547 0.58203 3.3281-1.0469 3.707-1.0078 4.8398-0.21094 1.625 1.1602 1.1758 4.2891-1.3008 9.0547-2.2578 4.3242-2.375 5.8516-0.66797 8.6367 0.85156 1.4219 2.0273 2.2734 3.5 2.543 2.4414 0.45312 5.5508-0.78516 8.9922-3.5234 1.7734-1.4492 3.4961-2.4062 3.8516-2.4062 0.37109 0 0.67578 0.18359 0.91406 0.55469 0.79688 1.2383 0.73438 4.4688-0.75 7.7344-1.4062 3.125-1.668 7.9727-0.54688 9.9688 0.72266 1.3945 1.7266 2.1914 2.9922 2.3594 2.1406 0.3125 4.8477-1.2695 7.8164-4.5117 1.7266-1.8555 2.9102-2.7812 3.2578-2.8945 0.17969 0.50781 0.46484 3.293 0.65625 7.3594 0.24219 6.2773 0.48047 7.4883 1.8242 9.2109 0.8125 1.1328 2.1211 2.3242 2.9727 2.7109 2.418 1.082 6.4062-1.0703 9.0625-4.9219 1.3672-1.9492 2.2734-2.918 2.457-2.9805 0.4375 0 1.4297 2.1836 2.1719 6.8711 1.1094 7.0273 2.4531 10.398 4.6523 11.633 1.4219 0.79688 3.2461 0.6875 5.7305-0.33594 1.5195-0.62891 2.7266-1.8945 3.9258-4.0977 0.99609-1.8594 1.9805-2.9609 2.1914-3.0117 0.20312 0.054687 0.81641 1.0352 1.2656 2.7227 1.7461 6.5469 4.1875 9.0625 7.9531 8.0859 1.8477-0.44922 3.7695-3.7969 4.4688-7.8008 0.32031-2 0.79688-2.2773 0.99219-2.3086 0.20703-0.042968 0.89453 0.15625 2.0938 2.6758 0.83594 1.6758 2.2109 3.5156 3.1367 4.1953 1.4961 1.0977 2.0547 1.1641 3.5391 0.46094 0.91797-0.39062 1.832-1.3086 2.0312-2.0625 0.085937-0.3125 0.16797-0.63281 0.28516-0.6875 0.23047-0.11719 1.0078 0.29688 2.0938 0.82812 3.0234 1.5859 4.7422 1.5664 6.3438-0.039063 1.0625-1.0703 1.1758-1.6562 0.60547-3.1211-0.35156-0.94141-1.1602-2.3594-1.8867-3.0781-0.29297-0.33203-0.82812-0.92969-0.78906-1.082 0.003907-0.023437 0.054688-0.089844 0.40234-0.22266 0.41406-0.16797 0.73438-0.56641 0.92578-1.1602 0.33203-1.0117 0.19531-2.3203-0.33594-3.1758-0.35156-0.49219-2.4453-2.1016-4.4805-3.4336-3.2656-2.1719-4.5469-3.332-4.7227-4.2734-0.078125-0.39062 0.035156-0.78516 0.35938-1.2422 1.9023-2.6719 2.3867-3.9492 1.3047-5.7695-1.6875-2.9961-4.3281-3.9805-11.312-4.2344-3.4844-0.0625-6.7773-0.36328-7.293-0.59375-0.49219-0.19531-0.78516-0.48047-0.875-0.86719-0.22266-0.93359 0.66016-2.5312 2.6133-4.7383 1.1328-1.2656 2.8242-3.3867 2.8242-4.0156 0-2.2344-1.3828-4.0898-4-5.3633l-2.832-1.3828-6.0352 1.2422c-3.9648 0.83594-6.2891 1.0469-7.3008 0.6875-0.79688-0.3125-1.2383-0.64453-1.3203-0.77344 0.14062-0.30078 1.1094-1.6914 2.7031-3.7422 3.457-4.3945 3.6836-6.6602 0.97266-9.6836-1.7188-1.9102-2.1992-2.1289-5.2695-2.043-2.0117 0.0625-5.0508 0.84375-8.125 2.1055-3.9141 1.5625-6.8555 2.0898-8.0625 1.4062-0.30859-0.16797-0.48828-0.41406-0.54297-0.75-0.09375-0.46875 0.66797-2.3672 1.9375-4.4453 2.8125-4.5625 3.3086-6.9453 1.9727-9.4297-0.75-1.4961-1.8633-2.4688-3.3164-2.8945-2.6836-0.75781-6.5 0.3125-11.375 3.2383-2.3789 1.457-4.6875 2.4258-5.3555 2.4258h-1.0742l1.2227-2.9453c2-4.6211 1.8438-7.7109-0.48828-9.7148-1.5117-1.3945-2.3086-1.6172-4.7227-1.2891-1.5781 0.19141-5.1523 1.2656-7.7969 2.3516-6.5078 2.582-11.031 2.9219-15.629 1.1719-1.9648-0.73828-3.1289-1.3047-3.3984-1.5078 0.72266-2.3281 20.797-40.914 22.316-42.891 0.375 0.12891 1.6172 0.97266 3.2188 2.3867 3.3672 2.9336 5.1562 6.9336 6.0078 13.367 0.75 6.0469 1.3789 7.8359 3.5625 10.078 1.1602 1.2383 2.3281 1.8555 3.5742 1.875h0.066406c1.8555 0 3.9648-1.2812 6.8281-4.1445 1.4688-1.4727 2.8516-2.1914 3.7344-1.9883 0.4375 0.10547 0.75 0.42969 0.92969 0.96875 0.16797 0.62891 0.054688 3.207-0.25391 5.7383-0.98438 6.7656-0.86328 9.3672 0.57031 12.117 1.2422 2.4375 2.9453 3.7578 4.8203 3.7578 0.085938 0 0.16797 0 0.25391-0.003906 2.6211-0.16406 5.125-2.8633 6.7031-7.2188 0.64844-1.7578 1.6055-3.543 2.2305-4.1602 0.46484-0.5 0.76562-0.80078 0.96875-0.80078 0.18359 0 0.44141 0.24219 0.85547 0.68359 0.86719 0.86719 1.1094 2.5977 1.4102 10.297 0.37109 10.137 0.56641 11.02 2.9453 13.59 1.2695 1.3945 2.5938 2 3.9219 1.7344 2.0781-0.37109 4.0781-2.8047 5.7891-7.0352 1.3086-3.2383 1.7578-3.668 2.8633-3.668 0.73828 0 1.2383 0.17188 1.6172 0.56641 0.98438 1.0195 1.2656 3.6914 1.0469 9.8281-0.17969 4.1172-0.0625 8.5625 0.25391 9.7148 0.95703 3.3086 3.8359 5.9961 6.4219 5.9961 2.7422 0 3.9648-1.2383 5.6719-5.7305 1.3086-3.3281 2.8047-5.7461 3.7969-6.1758 0.15234-0.066407 0.28125-0.085938 0.39844-0.027344 1.4453 0.57812 2.7734 4.8281 3.2969 10.566 0.32031 3.4336 1.0117 7.0273 1.4336 8.1094 1.293 3.0625 3.5938 5.168 6.0078 5.5039 1.5625 0.18359 2.9531-0.37109 3.9609-1.6406 0.69922-0.89453 1.5742-3.1406 1.9414-5.0117 0.41016-1.9492 0.84375-2.8945 1.4219-3.0586 0.066406-0.015625 0.13281-0.027344 0.20703-0.027344 0.65625 0 1.6406 0.74609 3.2148 2.3984 2.75 2.8711 7.5156 6.1562 8.9414 6.1562 0.62891 0 1.8867-0.99609 2.8047-1.9766 1.6367-1.6875 1.793-1.7422 3.457-1.1641 2.9336 1.0195 4.7148 0.87891 5.957-0.50391 0.94141-1.1367 0.96484-1.6289 0.15625-3.4844-0.5-1.1875-1.625-2.8164-2.5078-3.6328-1.1797-1.1406-1.1641-1.625-1.1016-1.7734 0.09375-0.23437 0.51562-0.35937 1.1914-0.35937 1.5391 0 3.2969-2.2773 3.2969-4.2773 0-2.3633-2.0391-4.0977-6.6016-5.6211l-3.7422-1.2266 1.7305-0.75c2.0312-0.85547 3.5547-2.6133 4.0703-4.7109 0.42578-1.7344 0.074219-3.4648-0.97266-4.7305-1.0977-1.3594-1.8633-1.5508-6.8047-1.7422-5.2188-0.17188-7.9336-0.58984-8.0625-1.2383-0.050781-0.24219 0.29297-0.83984 3.1211-2.1406 3.5391-1.707 6.2031-4.4922 6.2031-6.4688 0-2.2891-2.4648-5.4727-4.8906-6.3008-2.6211-0.82422-8.7305-0.29297-11.891 1.0547-2.1797 0.90625-6.1133 1.0195-6.5586 0.63281 0.23437-0.38672 1.8555-2.082 4.2188-4.3164 4.957-4.6484 5.5664-6.793 2.8398-9.9609-1.418-1.6133-1.9922-1.7969-5.5703-1.7969-2.9688 0-5.0977 0.5-8.7461 2.043-3.6914 1.5-5.8359 2.2461-6.5352 1.7578-0.23438-0.15625-0.33984-0.48828-0.33984-1.0586 0-0.90234 0.92578-2.1055 2.7422-3.5742 3.6055-2.9688 5.4531-5.9453 5.2031-8.3945-0.15625-1.5664-1.1875-2.8945-2.9688-3.8359-2.3125-1.25-5.5898-0.86719-11.305 1.3438-6.4023 2.5195-9.2734 3.1133-10.93 2.2852-0.61719-0.33203-0.95312-0.6875-1.0547-1.1328-0.19531-0.83984 0.39844-2.1523 1.9922-4.3789 2.7539-3.8867 2.8125-6.1367 0.20703-8.2891-1.6406-1.3945-2.582-1.6562-5.918-1.6562-3.2422 0-4.5938 0.36328-8.0312 2.1797-3.7227 1.9609-6.1484 2.5703-7.1953 1.7188-0.77344-0.60547-0.86719-2.0781-0.28516-4.3633 0.74609-2.832 0.76562-3.2891-0.40234-4.8555-1.5273-2.043-4.0586-2.8672-7.5195-2.4258-2.957 0.375-12.473 3.3359-19.957 6.2227-2.7109 1.0352-5.8086 2.1992-6.625 2.4531l-0.91406 0.28125 1.1211-2.2344c0.69922-1.3438 2.8398-5.207 4.8438-8.4688 2.0039-3.3594 4.7539-8.1992 6.1484-10.758 1.5234-2.7891 4.4062-7.6289 6.4414-10.797l3.7305-5.7227 3.1875 0.35156c1.8125 0.17188 3.8711 0.65625 4.582 1.0742 2.5078 1.4102 5.8359 6.1094 9.3672 13.234 4.2109 8.4844 7.375 12.105 10.586 12.105 2.5547 0 4.4336-2 5.7383-6.1133 0.72266-2.0938 1.2812-2.8711 2.1523-2.9805 1.4766-0.19531 2.2227 0.82422 3.1914 7.6758 0.5 3.0352 1.4961 6.7578 2.2344 8.2891 1.6406 3.4844 5.1367 6.6406 7.3242 6.6406 3.3945 0 4.5742-1.6289 7.0352-9.6836 0.83594-2.7383 1.3008-3.5273 2.0625-3.5273 1.8242 0 3.3164 3.5938 4.1992 10.129 0.51562 3.625 1.1797 7.3203 1.4766 8.5078 0.88672 3.2969 4.168 7.8633 6.1602 8.5664 1.3008 0.45313 2.4141 0.42969 3.4141-0.054687 1.875-0.90625 3.4648-3.5273 5.1641-8.4961 1.1484-3.2461 1.8711-4.957 2.6094-5.3047 0.23047-0.11328 0.48828-0.10547 0.84375 0.027344 1.5 0.57812 2.582 2.9805 4.2852 9.4961 1.8438 7.4258 4.0195 11.871 6.8438 14.012 1.6758 1.2695 3.293 1.707 4.7031 1.2227 1.7539-0.59375 3.1211-2.5469 3.9414-5.6445 1.7266-6.7031 1.9375-6.9609 3.1016-6.9609 1.3789 0 3.9297 3.2773 6.5 8.3594 2.0781 4.0938 6.9453 9.1992 9.3008 9.7656 1.5273 0.375 2.957 0.125 4.1172-0.76563 2.1211-1.6289 3.3086-5.207 3.3477-10.086 0-3.0898 0.21875-4.3789 0.77344-4.5859 0.35938-0.14063 2.3984 0.53125 4.6641 1.832 2.1523 1.2383 4.793 2.2383 5.8867 2.2383 2.2617 0 4.0312-1.7695 4.0312-4.0312 0-1.1602 0.17969-1.4453 2.0898-1.8086 3.625-0.63281 4.6719-1.4297 4.6719-3.5352 0-2.4531-3.0195-5.0508-6.4531-5.5625-1.1328-0.19531-1.7812-0.35156-1.9336-0.60547-0.085937-0.14062-0.0625-0.37109 0.085938-0.82422 0.26172-0.78906 0.62891-2.5312 0.74609-3.8516 0.25781-2.1797 0.039062-2.9102-1.2383-4.1289-1.3477-1.2773-1.8438-1.3477-6.6211-0.98438-3.0508 0.19531-4.5234 0.09375-4.8555-0.039063 0.054688-0.37891 0.44922-1.5898 0.95703-2.7266 1.3555-3.3477 0.72656-5.9805-1.9102-8.0586-3.1875-2.5586-5.75-2.7656-10.543-0.82812-3.2422 1.3164-5.7344 1.7188-6.8477 1.0977-0.33203-0.17969-0.51953-0.44141-0.58203-0.80078-0.10156-0.54688 0.41016-2.4805 1.3945-4.6641 1.3672-3.0469 1.5117-3.9258 0.85547-5.168-1.2539-2.4453-2.5469-3.6055-4.4453-3.9883-1.6641-0.37109-2.9453 0.26172-7.3008 3.0391-4.1836 2.7148-6.5703 3.6836-7.9023 3.2969-0.54297-0.16406-0.93359-0.55859-1.2305-1.2383-0.50391-1.1133-0.44141-1.8828 0.91797-4.8008 0.91797-2.1055 1.6172-4.5195 1.6172-5.6172 0-2.6055-1.9609-5.0898-4.7617-6.0469-2.8398-0.94141-4.7656-0.3125-9.8438 3.2891-3.8359 2.6992-6.0195 3.6797-7.1016 3.1211-0.69922-0.36328-1.0234-1.4375-1.0234-3.3711 0-4.7617-1.1016-7.8281-3.8125-10.602-2.2109-2.2188-2.7148-2.4297-5.2812-2.1562-1.6367 0.19141-4.2773 1.2656-6.4219 2.6094-2.0508 1.25-4.457 2.3125-5.3633 2.3633-1.5664 0.09375-1.5586 0.11328-1.9766-3.3047-0.56641-4.2852-1.8047-6.4844-4.1367-7.3633-2.418-0.91797-4.7148-0.19141-8.4375 2.6055-1.9102 1.3828-3.668 2.3516-4.043 2.3516-0.39062 0-2.1016-1.1602-3.7031-3.0469l-0.20312-0.24219c-1.1211-1.3398-2.832-3.3945-6.1562-2.7227-2.2188 0.42188-4.3164 0.92969-7.6328 2.9727-2.2578 1.3672-4.918 3.1914-5.6836 3.8984-0.41016 0.33984-0.69922 0.55469-0.89453 0.67188 1.4219-2.4922 12.355-17.18 16.633-22.109 3.8594-4.4727 4.5938-5.0508 6.0078-4.8984 4.0703 0.47656 8.4219 4.0898 11.934 9.9062 2.6211 4.4727 4.9609 6.8711 7.1562 7.3203 1.0742 0.23047 2.1016-0.035157 3.0508-0.73828 0.64453-0.42578 1.793-2.6133 2.543-4.4648 1.6055-4.25 2.6211-4.8438 4.5938-4.3516 1.0938 0.27344 1.8594 1.3711 3.7188 5.3359 3.6406 8.0117 7.4609 12.293 11.047 12.363h0.09375c2.4023 0 4.5586-1.8594 6.4023-5.5312 1.0547-2.1055 3.0703-3.7461 4.5938-3.7461 0.51953 0 1.8203 0.68359 2.8633 1.668 1.5625 1.3828 1.9023 2.2188 2.2617 5.5703 0.56641 4.4141 1.5781 6.8047 4.168 9.8242 1.1797 1.4297 2.5078 2.0781 3.8203 1.9258 1.7422-0.21875 3.3711-1.8359 4.7266-4.6797 0.99219-2.1094 2.2578-3.3945 3.6562-3.707 1.2422-0.29297 2.582 0.16406 3.9805 1.3203 1.8438 1.5977 2.75 3.6445 4.8438 10.949 1.4492 4.9688 4.6992 9.3633 7.2422 9.8008 2.2188 0.46484 5.0391-1.0586 6.4414-3.4219 1.5469-2.6602 3.5547-4.3672 5.5117-4.6719 1.1797-0.16797 2.2695 0.15625 3.1758 0.97266 0.51953 0.46875 1.7305 3.1133 2.6367 6.1719 1.9609 6.4414 2.8008 8.1133 5.5781 11.199 2.0625 2.2891 4.2656 3.3086 6.2031 2.8672 1.6953-0.38672 3.0117-1.8984 3.7031-4.2383 0.44922-1.3906 1.4297-2.9609 2.1992-3.5117 1.2656-1.0312 1.418-1.0469 3.0703-0.22266 1.0625 0.55859 3.0234 2.25 4.3633 3.7578 5.3828 6.0039 7.1641 7.4883 9.5273 7.9336 2.1289 0.39062 2.5859 0.20312 4.082-1.6758 1.4844-1.7695 1.6016-1.8203 4.2773-1.457 2.8906 0.42188 4.6602 0.28125 5.5391-0.48047 0.44922-0.38672 0.67578-0.94531 0.67578-1.6523 0-2.0781-0.91406-3.8359-3.5-6.7266-1.2539-1.3281-2.0273-2.5703-2.0273-2.8008 0-0.23438 0.53125-1.2148 1.4844-2.375 1.0078-1.1992 1.5859-2.6758 1.5859-4.0703 0-2.8516-2.1094-4.2656-6.8438-4.5938-2.2383-0.15625-4.1719-0.29297-4.375-0.72656-0.12891-0.29688 0.45312-1.0586 0.96875-1.7344 2.3203-3.0352 3.0977-5.6016 2.3125-7.6172-0.91406-2.3477-3.8242-3.9297-8.9023-4.8398-5.8242-1.0312-6.6211-1.875-6.082-6.457 0.28125-2.8633-0.14062-4.8555-1.332-6.2773-1.5664-1.8711-4.4414-2.8398-9.6211-3.2461-3.0352-0.26172-5.332-0.75781-5.5703-0.98047-0.29297-0.28516-0.78516-2.1172-1.043-4.2891-0.8125-6.7461-4.5586-9.1055-13.262-8.4297-5.375 0.41016-6.25 0.015625-6.8281-3.0703-0.19141-1.1523-1.0938-2.8672-1.9648-3.7461-1.8477-1.8477-5.0352-2.1094-11.016-0.91797-4.0898 0.83984-5.6406 0.09375-7.5586-3.6328-1.6367-3.1484-3.5273-4.4531-6.5977-4.4531-0.28125 0-0.56641 0.011719-0.86328 0.035156-3.1367 0.11719-5.7852 0.20312-7.707 0.24609-1.0117 0.14453-3.8203 0.46094-4.6719 0.078125-0.67578-0.29688-2.0234-2.1289-2.5039-2.8242-2.8828-3.2578-4.8711-4.2578-8.5234-4.2578-2.9102 0-7.2422 2.6484-10.07 6.1641-3.457 4.2461-4.3242 4.5938-11.598 4.5938-0.21094-0.015625-5.0664-0.48047-6.6602 0.011719-1.4102 0.42969-4.7266 3.1797-4.8477 3.2812l-2.5938 1.7578 4.2266-4.0547c6.8086-6.5625 12.117-10.734 21.84-17.18l6.4414-4.3164 3.2969 0.35938c3.8906 0.42578 6.5195 2.0312 12.773 7.8008 2.3281 2.1445 4.957 4.1562 5.8477 4.4688 2.8672 1.1211 6.0977 0.69531 9.3516-1.2422 5.1953-3.0898 6.5117-2.625 10.812 3.9258 3.793 5.9062 6.125 7.8398 9.9961 8.2695 2.25 0.23438 3.2188 0 5.1875-1.3281 3.9922-2.7227 5.2734-3.125 6.8164-2.0898 0.70703 0.48828 3.0234 3.5 5.2188 7.0625 3.2969 5.3359 5.5508 8.3047 8.0039 8.6875 1.8594 0.32422 3.6719-0.87891 5.8477-2.7383 1.8828-1.625 3.668-2.7109 4.1562-2.7109 2.9297 0 4.7539 3.5859 4.7539 9.3594 0 3.5898 1.3047 7.2969 3.3164 9.4258 1.8477 2.043 5.8672 2.0039 9.793-0.078125 1.6797-0.90234 3.168-1.5078 3.5156-1.5078 1.2656 0 4.2266 2.9531 5.7578 6.2656 0.89453 1.8555 2.5664 4.1719 3.8008 5.293 2.2383 1.9805 3.2188 2.2109 8.7539 1.9531 2.5977-0.0625 3.3594 0.18359 5.3242 1.7305 2.5742 2.0664 4.9102 2.8906 6.4102 2.2969 0.86328-0.33984 1.4062-1.1484 1.5664-2.3125 0.25391-1.6367-1.2266-5.7305-2.9922-8.2812-0.91406-1.2031-1.0625-2.1016-0.75781-4.5703l0.042969-0.375c0.33594-2.9219 0.25391-2.9961-3.9375-6.7656l-0.54297-0.48828c-1.5273-1.3555-1.5742-1.5586-1.1523-5.4648 0.17969-2.2305 0.25391-4.8906-0.003906-5.7852-0.44141-1.7188-4.082-4.2383-7.9531-5.5039-5.7344-1.8125-6.0547-2.1797-6.8477-7.8672-0.17188-1.5391-1.0195-3.8203-1.875-5.0664-0.78516-1.1992-1.0547-2.0547-0.78516-2.5469 0.21875-0.40234 0.83594-0.60547 1.8242-0.60547 1.6367 0 3.457 2.1016 5.2695 6.0742 2.0938 4.3789 4.9062 7.4375 6.8359 7.4375 0.82422 0 3-0.66016 4.6328-1.3047 3.125-1.3164 3.125-1.3203 5.0195-0.19531 1.1133 0.67188 2.9961 2.9062 4.2891 5.0781 1.2539 2.0547 2.7422 4.1758 3.2148 4.5703 0.55469 0.32031 2.1328 0.30078 3.3359 0.14453 2.0781-0.30859 2.6133-0.13281 3.7969 1.1641 0.92969 0.99609 2.2305 1.5859 3.4961 1.5859h0.10547c0.96484-0.027344 1.7852-0.39844 2.3281-1.043 0.71875-0.86328 0.63281-1.6289 0.039063-3.3555-0.76563-2.0547-0.76563-2.0547 1.5977-4.1758 2.3125-2.082 3.3359-4.0703 3.0508-5.9141-0.33984-2.1953-2.4414-4.1445-6.4297-5.9453-2.7344-1.2031-4.6641-2.4805-4.8008-2.8242-0.12891-0.33984 0.30078-1.6523 1.2539-2.9102 1.5117-1.9023 1.7148-2.6328 1.3398-4.9062-0.0625-0.38672-0.23047-1.5078-0.16797-1.8203 0.035156 0.015625 0.089843 0.054687 0.16797 0.11328 0.42578 0.36328 3.3203 2.4688 6.668 4.8984l0.29297 0.20703c6.2891 4.5859 17.672 14.426 22.148 19.145 6.2227 6.4609 17.137 21.398 20.48 28.023 2.6055 5.1445 4.8906 14.375 4.8906 19.746 0 4.75 1.8125 10.887 3.5938 12.156 1.7031 1.2539 5.9688 1.0312 8.3008-0.42188 4.1641-2.5312 4.2812-6.8633 0.55859-19.289zm-131.16-85.891c0.375-0.27344 0.96484-0.52734 1.4609-0.37891v0.003906l0.16406 0.0625v-0.003906c6.0078 2.1328 17.129 7.1719 22.797 10.355 9.9922 5.6328 24.824 18.082 30.527 25.621 1.875 2.4648 2.8164 4.2852 2.9453 4.8594-0.20312-0.12891-0.66016-0.53125-1.6133-1.6953-9.4531-11.84-26.324-24.562-41.984-31.641-4.2383-1.9102-9.5352-4.043-14.527-5.8633-0.23438-0.09375-0.36328-0.21875-0.37891-0.375-0.035156-0.28125 0.21094-0.64844 0.60938-0.94531zm-73.367 17.66c0.20313-0.29688 0.52734-0.44922 0.93359-0.44922h0.089844c2.1289 0.17188 4.6641 0.34766 6.7969 0.46484 13.926 0.73828 30.016 3.4648 40.98 6.9336 18.859 5.9961 38.242 18.848 50.586 33.539v0.003907c1.9258 2.2227 3.332 4.082 3.9297 5.0195-1.1914-0.99609-4.1211-3.7539-8.332-7.9688-6.9492-6.8828-11.172-10.523-15.578-13.418-22.598-15.188-41.004-20.496-78.77-22.695-0.4375-0.027344-0.63672-0.25781-0.72656-0.44141-0.15234-0.30469-0.11328-0.69531 0.089843-0.98828zm67.582-6.9609c0.86328 2.8242 1.3906 5.0391 1.418 5.5117-0.16406 0.0625-0.78906 0.19531-3.0586 0.28125l-0.11328 0.003907c-1.2656 0.050781-2.0312 0.074218-2.3242-0.25781-0.40234-0.46094-0.17969-1.8477 0.27344-4.6094l0.054688-0.33594c0.42969-2.2852 0.26953-2.7773-1.3086-4.0273-1.2109-0.95703-2.7383-1.4336-4.5742-1.4336-2.2773 0-5.0391 0.73438-8.25 2.207-2.7539 1.2148-5.4648 2.1289-6.3008 2.1289-1.5742 0-3.832-1.7852-3.832-3.0312 0-0.64453-0.70703-1.5898-1.3672-2.1953-1.0352-0.91797-2.0703-1.1719-5.8008-1.1719-0.48828 0-1.0195 0.003906-1.6016 0.011719-5.0273 0.0625-7.1523 0.44141-13.332 2.4023-4.207 1.2695-10.395 3.457-13.715 4.7383-2.6562 1.0195-4.6133 1.6914-5.6602 1.9883 3.3086-1.793 17.031-7.6992 21.969-9.25 21.633-6.8477 29.18-7.8633 36.715-4.918 6.2617 2.4883 8.6836 5.1719 10.809 11.957zm12.84-25.121c-0.12891 0.39062-0.48047 0.72266-0.84375 0.78516-0.29297 0.0625-0.53906-0.078125-0.75-0.35938-2.9609-3.8906-9.2188-9.9688-13.664-13.273-5.5117-4.1562-15.68-9.3008-21.336-10.793-2.0703-0.54297-5.0078-0.86719-7.6602-0.86719-0.23438 0-0.46484 0-0.69531 0.003906-2.0039 0.039063-3.3086-0.074218-3.8477-0.19141 0.62891-0.17969 2.3125-0.41406 5.0273-0.53125 0.42188-0.015625 0.83984-0.023437 1.2539-0.023437 8.2539 0 15.875 2.9102 26.695 10.121 4.3164 2.8438 11.898 9.7617 15.613 14.234 0.32422 0.32812 0.26953 0.69922 0.20703 0.89453zm-40.582-12.75c3.9648 0 5.1914 0.23438 6.5625 1.2422 1.3945 1.043 1.6367 1.6406 1.8125 4.5625 0.14062 2.5977 1.0039 4.582 2.5664 5.875 1.9258 1.6133 4.9219 2.1523 8.8711 1.6523 4.3398-0.55469 6.0273-0.32422 7.8242 1.0547l1.0352 0.82812h-7.6602c-4.7031 0.0625-11.328 0.44922-14.773 0.85547l-6.3242 0.84375-1.2773-1.5664c-1.7266-1.9609-2.4023-4.457-2.8945-10.68l-0.41016-4.7305zm49.301 56.566c-0.25391 0.39062-1.2031 0.42578-2.4258 0.42578-0.83984 0-2.2188-0.44141-2.9414-0.94141-1.2383-0.90234-1.3203-1.0586-0.95312-4.9492 0.11719-1.0195 0.44141-4.3555-0.29297-4.7656-0.22266-0.15234-0.29297-0.62109-0.15234-1.0977 0.10156-0.34766 0.32422-0.69922 0.58984-0.69922 0.125 0.011719 0.63672 0.34766 1.1875 0.96875 0.48047 0.54297 1.8242 2.9922 3.3438 6.0938 1.3828 2.9648 1.9922 4.4219 1.6445 4.9648zm-59.629-51.477c-0.10156 0.32031-0.32031 0.53906-0.57812 0.58203-0.29297 0.042968-0.64453-0.11328-0.95312-0.49219-4.4688-5.2969-9.8398-10.656-13.07-13.027-4.9062-3.6406-14.93-9.5586-20.621-12.188-4.6797-2.1562-18.094-5.9258-21.105-5.9258-0.76562 0-1.1875-0.29297-1.1875-0.38672 0-0.015624 0-0.054687 0.066406-0.10547 0.22266-0.17188 0.76172-0.26953 1.5977-0.26953 1.9805 0 5.6172 0.52734 10.527 1.7539 8.0117 2.0039 17.438 6.5234 28.012 13.422 4.7617 3.1133 8.0977 5.9531 13.234 11.273l3.6055 3.7695c0.45703 0.49609 0.62891 1.0898 0.47266 1.5938zm-95.289 54.93c-0.37109 0.62109-1.3438 1.0078-2.0391 0.59375l-0.003906 0.011719c-0.15234-0.125-0.44141-0.32031-0.95703-0.66016-3.2578-2.1719-13.164-8.7969-17.672-12.504-21.895-17.902-35.984-25.715-53.848-29.836-5.2305-1.1875-8.0234-1.4219-17.555-1.4766-9.5938 0-11.184-0.11719-11.336-0.86719-0.050781-0.25781-0.011718-0.44922 0.125-0.60938 0.75-0.90625 4.7305-1.082 11.82-1.082 13.887 0.0625 24.836 2.7031 39.043 9.4375 9.6133 4.6211 17.188 9.6719 30 20.004 5.5898 4.4961 12.789 9.6641 21.402 15.359 0.33594 0.22266 0.56641 0.37109 0.67187 0.44922l-0.003906 0.011719c0.67578 0.40234 0.51172 0.90625 0.35156 1.168zm2.7422-17.18c1.6172-5.6094 1.6055-9.0508-0.039062-11.137-0.96875-1.2109-2.1797-1.8828-3.5938-1.9922-0.14062-0.011718-0.28516-0.015625-0.42969-0.015625-2.1797 0-4.7266 1.2695-7.4141 3.707-1.9023 1.707-3.2969 2.3594-4.1562 1.9414-1.2266-0.60547-1.6367-3.4102-1.2422-8.5781l0.42969-5.5898 0.003906-0.09375-1.9023-2.1602c-1.7734-1.9609-2.3008-2.1602-5.6328-2.1602-1.9219 0-4.8438 0.42187-6.5117 0.93359-2.6875 0.78516-2.8906 0.69922-3.9648-0.26172-0.59766-0.54687-1.6445-2.5586-2.1445-4.4414-1.5742-5.4141-2.5977-6.9453-5.4648-8.1875-0.40234-0.18359-1.5781-0.72656-1.7734-0.96484 0.042969-0.035156 0.14453-0.089843 0.38672-0.15625 0.6875-0.18359 3.1992-1.1641 5.5547-2.1016 5.0195-2.0781 7.8242-2.1523 8.3828-1.3281 0.17187 0.30859 0.38672 2.0781 0.46094 4.8711 0.0625 4.0664 0.20312 4.4688 2.1602 6.2383 2.5742 2.3359 4.1328 2.3125 8.7344-0.089844 8.8438-4.7305 10.465-5.4414 12.426-5.4414 1.7656 0 2.7617 0.29688 3.2383 0.95703 0.62891 0.87891 0.44141 2.5664-0.62109 5.6289-1.1406 3.4336-0.63281 5.7305 1.5195 6.8438 2.0117 1.0977 3.2578 0.88672 10.387-1.832 5.875-2.2109 9.0625-2.6641 10.645-1.5195 1.1406 0.82812 1.5898 2.5586 1.4609 5.6055-0.125 3.4258 0.0625 4.1094 1.4336 5.2188 2.043 1.6562 5.9062 1.5469 10.605-0.33594 2.1992-0.90625 4.75-1.5195 5.75-1.5195 2.6953 0 7.5273 2.5273 10.344 5.3984l2.1289 2.1797-2.8008 1.457c-11.25 5.6953-25.484 15.625-38.074 26.578l-2.2852 1.9609-0.35938-1.9492c-0.6875-4.3945-2.8438-7.9531-5.7617-9.5039-1.3398-0.75781-2.6094-1.9531-2.7812-2.6211-0.18359-0.66797 0.23047-3.1484 0.90234-5.5391zm-33.246-56.051c8.9766-0.92578 23.285 0.89453 34.809 4.4141 4.9375 1.5234 15.797 6.6406 24.711 11.652 5.293 2.9922 8.3086 5.2539 12.914 9.6758 2.1055 2.0234 4.4297 4.375 6.2227 6.2891 0.35156 0.38672 0.48828 0.77734 0.375 1.1133-0.11719 0.37109-0.51562 0.67578-1.0117 0.78516-0.46875 0.10547-0.90234 0-1.1523-0.28125-3.6641-3.9766-9.7344-9.9844-12.371-12.059-3.7969-2.9805-13.664-8.6758-21.117-12.195-10.008-4.7891-24.02-8.0039-34.871-8.0039-5.2734 0-7.707 0.26172-15.27 1.6641-0.68359 0.10156-1.4102 0.19141-1.6445-0.011719-0.054687-0.042969-0.125-0.14062-0.125-0.44922 0.007813-1.2383 2.3203-1.9453 8.5312-2.5938zm1.1328 108.9c-0.027344 0.36328-0.30859 0.73438-0.6875 0.90625-0.38672 0.17969-0.80078 0.12891-1.1484-0.125l-1.1367-0.73438c-1.3906-0.89062-2.8906-1.8633-4.3164-2.7773-12.062-7.668-30.105-15.602-41.965-18.457-3.2891-0.82422-8.8984-1.707-12.512-1.9727-1.2695-0.074219-2.625-0.10547-4.043-0.10547-11.996 0-28.516 2.4922-38.926 6.0156-4.7031 1.6289-5.2188 1.6172-5.7773 0.92578-0.27344-0.3125-0.375-0.51562-0.33594-0.67188 0.15625-0.56641 2.1016-1.2891 6.1328-2.5859 16.855-5.3711 40.234-7.5781 52.102-4.9102 7.6367 1.6914 18.352 5.4258 27.293 9.5078 9.0234 4.1211 13.074 6.4102 24.113 13.621l0.66797 0.4375c0.375 0.25391 0.55859 0.57422 0.53906 0.92578zm-32.246 51.465c0.035157 0.37891-0.17969 0.80469-0.50391 1.0078-0.20703 0.11719-0.53906 0.21094-0.92969-0.035156l-0.035157-0.015625c-10.332-4.0781-30.051-10.68-39.078-13.094-9.5273-2.4883-22.227-4.4336-30.891-4.7383-1.7188-0.074219-3.3594-0.11328-4.9375-0.11328-7.8359 0-14.324 0.91797-22.398 3.0625-6.1367 1.6055-7.1797 1.3906-7.3398 1.2266-0.30078-0.30078-0.25781-0.46875-0.24219-0.52734 0.19531-0.75781 2.9922-1.668 5.9805-2.543 9.8828-2.7617 16.348-3.5039 27.703-3.125 10.59 0.30078 20.109 1.7148 31.836 4.7266 8.2227 2.1172 30.676 9.6992 40.273 13.441 0.42969 0.1875 0.54688 0.49609 0.5625 0.72656zm-21.848 53.199c-0.11328 0.14453-0.41406 0.48047-0.84375 0.40234l-5.1875-0.19141c-7.6367-0.24219-12.078-0.73828-17.594-1.9531-32.742-7.1445-49.465-10.031-62.867-10.031-5.7461 0-10.887 0.53125-16.406 1.4844-0.68359 0.11719-1.707 0.30859-1.875 0.13281-0.050782-0.054688-0.039063-0.25781 0.042968-0.60938 0.35938-2.1523 9.0391-2.7109 16.559-2.9531 12.465-0.37891 18.562 0.42578 46.641 6.0742 24.941 5.0742 26.73 5.3477 38.309 5.7773l2.7539 0.11719c0.375 0.015624 0.62109 0.15234 0.73828 0.41016 0.16797 0.37109 0.050782 0.93359-0.26953 1.3398zm-0.625 52.863c0.30859-0.37891 0.89453-0.62109 1.293-0.54297 0.23047 0.039062 0.38672 0.16406 0.46484 0.37891 1.1133 3.0391 2.4062 6.293 3.3086 8.2812 5.6445 12.582 18.84 32.676 35.293 53.742 3.9688 5.0859 8.3008 10.938 9.6992 13.008 0.44922 0.65625 2.6953 3.9531 3.2578 4.2383 0.44922 0.29297 0.58203 1.2109 0.39844 1.832-0.042969 0.15625-0.18359 0.52734-0.44922 0.52734-0.29297-0.066406-1.6523-1.5664-3.7578-4.6914-1.6758-2.5156-6.9453-9.5859-11.988-16.105-20.793-26.723-31.516-43.598-37.016-58.25-0.23438-0.58984-0.44922-1.0742-0.64844-1.5469l-0.023438-0.0625c-0.12891-0.33594 0.015625-0.62891 0.16797-0.80859zm-23.199-3.8555c-14.023 3.6836-36.332 5.9688-62.82 6.4414-14.039 0.22266-20.691 0.23047-21.211-0.66797-0.015625-0.039063-0.074218-0.125 0.066406-0.36328 0.69922-0.30859 8.0859-0.72656 19.434-0.91406 26.938-0.55469 49.637-2.7344 62.281-5.9648l0.55469-0.14062c0.51562-0.12891 1.0039-0.25781 1.4688-0.36328 0.36328-0.11328 0.58203 0.15625 0.66797 0.33203 0.21875 0.44531 0.10938 1.1797-0.44141 1.6406zm-2.8281 48.641c-0.34766 1.7461-1.3672 5.6836-2.2695 8.7695-1.125 4.0781-1.4219 6.2227-1.1133 8.2031 0.21875 1.5781 0.59375 2.4688 1.2695 2.9688 0.90234 0.66016 2.3281 0.59766 4.2109 0.29297 1.0938-0.17188 1.8125-0.30078 2.0391-0.11328 0.14453 0.125 0.15625 0.53906 0.15625 1.0547 0 0.86719-0.72266 2.9922-1.5742 4.625l-1.4609 2.8711-1.3789-1.2695c-0.95313-0.89062-3.5117-2.9297-5.4883-4.4414-3.0781-2.2969-3.9219-3.2812-4.4648-5.2734-1.5273-5.8086-1.1016-7.375 5.0781-18.637l5.3242-9.8008 0.15234 3.3164c0.11719 2.1758-0.10156 5.5078-0.48047 7.4336zm-2.2266 38.484c1.3555-0.11328 3.1094-0.46875 3.5742-0.85156 0.17969-0.15625 0.33594-0.24219 0.46484-0.24219 0.011719 0 0.023438 0 0.035157 0.003906 0.11328 0.011719 0.22266 0.10156 0.33594 0.24609 0.63281 0.99609 3.5859 0.86719 5.5234-0.23047 1.1406-0.63672 1.5234-0.55469 1.6523-0.44141 0.4375 0.38672-0.015625 2.2383-1.3477 5.5v0.003906c-1.1211 2.8633-2.207 5.2656-2.3359 5.4414-0.023437 0.011718-0.054687 0.015624-0.09375 0.015624-1.1133 0-8.3594-3.4844-9.6758-4.9102-0.63672-0.69531-0.97266-1.8086-0.86328-2.8281 0.15234-1.418 0.22266-1.5234 2.7305-1.707zm-1.957 44.082c-0.0625 0.085938-0.17969 0.19531-0.45313 0.19531-2.1953 0-8.7266-31.328-9.4805-48.508-0.027344-0.63281-0.0625-1.1484-0.09375-1.6641l-0.035156-0.55859c-0.0625-0.32031 0.18359-0.55859 0.33594-0.68359 0.24609-0.19531 0.55859-0.30859 0.8125-0.30859 0.089844 0 0.17188 0.011718 0.24219 0.042968 0.078126 0.035156 0.18359 0.11328 0.20313 0.33594 0.91406 12.785 4.3047 34.797 7.4922 45.113 0.69531 2.2227 1.5469 5.2578 0.97656 6.0352zm11.242-81c2.6875 12.645 6.2773 21.598 15.992 39.93 3.3477 6.3516 6.0039 11.496 6.3906 12.32-0.078126 0.035157-0.20703 0.066407-0.35156 0.066407-1.5781-0.089844-14.18-22.941-18.469-34.254-1.5078-3.7969-3.6523-10.215-4.7812-14.297-0.68359-2.3242-1.2383-4.0039-1.6914-5.1367-0.22266-0.65625-0.09375-1.3203 0.35156-1.8242 0.30859-0.34766 0.72656-0.55859 1.0938-0.55859 0.0625 0 0.11719 0.003906 0.17188 0.015625 0.30078 0.066406 0.52734 0.29297 0.64844 0.65625 0.20312 0.98438 0.42188 2.0195 0.64453 3.082zm-34.715 47.258c0 2.6836 1.4609 4.2852 3.9102 4.2852 2.168 0 3.4648 0.48828 3.4648 1.3047-0.003906 0.30078-1.1367 2.2227-2.9688 4.6641-2.5703 3.5859-3.4883 5.1562-4.6367 8.6562-0.09375 0.29297-0.16797 0.35938-0.21094 0.37109-0.011719 0-0.023437 0.003906-0.035156 0.003906-0.33984 0-1.4609-1.0938-2.2109-1.8203-2.5938-2.5312-2.8047-3.293-1.7305-6.2734 0.71094-1.8828 0.55859-2.4297-1.6133-5.9062-1.4453-2.457-2.0625-4.1758-1.9531-4.4688 0.15234-0.34766 2.3086-3.832 5.7578-9.3086 2.5586-4.0195 6.4336-10.039 9.2695-14.441l1.4219-2.207c2.1836-3.4258 4.0586-6.1836 4.8906-7.293-0.12891 0.59766-0.37891 1.5742-0.73828 2.7383-0.59375 1.7188-1.6914 4.3633-2.5039 5.7969-1.043 1.7734-1.5078 3.5508-1.5078 5.7578 0 3.9805-0.76172 5.7695-3.8711 9.1211-3.3594 3.5625-4.7344 6.1641-4.7344 9.0195zm8.5312-48.008c-4.8398 1.7422-15.008 4.9609-19.426 6.1445-15.074 3.9492-18.977 4.6016-29.809 4.9688-3.8984 0.12891-15.734 0.54297-17.012-0.96875-0.078126-0.10156-0.10547-0.19141-0.085938-0.29687 0.125-0.57813 2.0039-0.61719 9.9062-0.78516 1.2383-0.027343 2.6328-0.054687 4.1953-0.089843 11.426-0.25391 23.871-2.6836 24.012-2.7109 10.488-2.7344 20.195-5.7227 27.34-8.4219l0.054687-0.015625c0.82422-0.23438 1.1367 0.41016 1.2305 0.6875 0.17969 0.56641 0.046875 1.3164-0.40625 1.4883zm-31.25 70.168c-0.78516 1.9922-1.1133 7.125-0.35156 8.3047 0.24219 0.41016 0.78516 0.68359 1.5195 0.77344 0.87891 0.11719 2.1172-0.078125 2.7656-0.72656 0.23047-0.23437 0.51562-0.35156 0.67578-0.35156 0.015625-0.003906 0.027344-0.011719 0.085938 0.023438 0.003906 0.33984-0.77344 1.9766-2.3359 4.2891-1.6445 2.4961-3.1094 5.2461-3.4102 6.3945-0.63281 2.2734-0.3125 4.1484 0.85156 5.0234 1.0938 0.81641 2.7383 0.63672 4.5195-0.46875 1.3672-0.83594 1.6953-0.875 1.7734-0.83594 0 0 0.035157 0.039063 0.035157 0.21094 0 0.42578-0.41016 1.1016-0.89453 1.4844l-0.011718 0.003906c-1.4297 1.2383-4 5.8867-4.918 8.8828-0.09375 0.30078-0.26953 0.83594-0.42188 1.2383v-0.38672c-0.066406-0.98047-1.0977-3.4453-2.2461-5.3828-2.7383-4.5078-3.9609-7.9922-3.9609-11.312 0-3.4219 5.4883-17.898 6.7539-18.883 0.007812 0.22266-0.09375 0.82812-0.42969 1.7188zm13.57 37.891c-0.28125 0.27344-0.57812 0.28516-0.84375 0.074219-0.5-0.58203-2.957-10.922-3.1992-13.949-0.027344-0.25781-0.0625-0.46094-0.09375-0.60547-0.23047-1.8867-0.63281-5.5547-0.64844-7.3633-0.003907-0.38672-0.027344-0.79688-0.042969-1.2383-0.035157-0.74609-0.066407-1.5781-0.066407-2.4961-0.011718-14.945 1.5195-22.613 1.9141-24.348 0.011719-0.003906 0.023437-0.011719 0.039063-0.015625 1.2109-0.53906 1.5273-0.44922 1.625-0.37109 0.085937 0.074219 0.050781 0.27344 0.023437 0.38672l-0.074219 0.32031c-0.054687 0.24609-0.11328 0.49219-0.16797 0.75781-2.3125 10.887-1.8828 31.086 0.91797 43.23 0.76172 3.3672 0.96875 5.2656 0.61719 5.6172zm-2.7344-68.703c-0.33594 0.17188-0.66016 0.33594-1.0195 0.53125-5.4414 2.8398-19.691 7.9414-29.316 10.484-5.8125 1.5195-18.984 2.6758-21.066 1.8477-0.4375-0.15234-0.54297-0.25781-0.55859-0.32031-0.015625-0.066407 0.027344-0.22266 0.35938-0.61719 0.49219-0.60547 1.9922-0.83984 5.3555-0.83984 2.5664 0 7.1289-0.41406 10.176-0.92578 7.3516-1.2656 25.77-7.4766 33.977-11.445l2.1016-1.0312c0.57812-0.26953 0.83984 0.042968 0.94531 0.26172 0.24609 0.50391 0.125 1.4492-0.70703 1.9375zm-26.746 37.473c0.14062 0.63672-0.27344 1.5391-1.0234 1.7344l-0.035157 0.015625c-0.53125 0.23438-1.1016 0.5-1.7148 0.80078-1.9219 0.93359-8.793 3.6055-15.586 5.9531-11.77 4.0664-17.035 6.3555-21.672 9.4258-1.9258 1.2383-2.3867 1.2891-2.8438 0.83594-0.15625-0.17188-0.21875-0.32031-0.20703-0.46484 0.027344-0.35938 0.48828-0.87891 1.5391-1.7344 3.5898-3.0352 8.6641-5.3203 21.738-9.7812 6.5625-2.1836 14.668-5.332 18.93-7.3242 0.46094-0.10156 0.78125 0.11719 0.875 0.53906zm-13.578 29.395c-1.668 1.7734-5.8906 7.7344-8.2148 11.594-1.9023 3.2773-3.207 4.4297-3.6523 4.4297-0.023437 0-0.042968-0.003906-0.0625-0.011719-0.11328-0.035156-0.21875-0.29688-0.17187-0.90625 0.16797-1.9141 3.4883-6.9062 11.109-16.688 0.10547-0.13281 0.23438-0.20703 0.39063-0.20703 0.027343 0 0.054687 0 0.089843 0.003906 0.3125 0.054688 0.62891 0.35938 0.75781 0.73438 0.074218 0.21094 0.14062 0.63672-0.24609 1.0508zm16.367 9.5117c-0.23438 0-0.3125-0.0625-0.35938-0.11328-0.22266-0.26172-0.11328-1.2031 0.027344-2.1016 0.19531-1.4453 0.68359-5.75 0.98438-9.6562 0.32422-3.5352 0.80078-7.2812 1.2031-9.5312 0.10547-0.53906 0.62109-0.83594 1.1016-0.83594 0.066406 0 0.12891 0.003906 0.19531 0.015625 0.55859 0.10547 0.82422 0.59375 0.70703 1.3164-0.44922 2.25-0.98437 6.293-1.8086 13.531-0.73828 6.6992-1.0508 7.375-2.0508 7.375zm186.15-138.36c-0.55469 0.39844-3.3281-1.0742-5.6602-2.418-18.934-10.641-29.277-18.543-48.121-36.766-9.7891-9.4453-16.195-15.293-20.789-18.973-0.29297-0.19531-0.33594-0.45312-0.32031-0.63281 0.027344-0.35156 0.29688-0.72266 0.64844-0.89062 0.11328-0.050782 0.24609-0.09375 0.41016-0.09375 0.17188 0 0.37109 0.050781 0.57812 0.19141l0.30078 0.24219c0.3125 0.24609 0.63281 0.5 1.0703 0.83594 1.9023 1.457 9.4062 8.4219 16.387 15.211 7.0859 6.9062 16.152 15.293 19.859 18.508 7.8945 6.7969 19.516 14.684 28.914 19.629 4.8398 2.5703 6.7539 4.0938 6.8281 4.4453 0.027344 0.25781 0.050781 0.59766-0.10547 0.71094zm-51.164-110.15c0.027343-0.11328 0.19531-0.59766 0.58984-0.59766 0.042969 0 0.089844 0.003906 0.14063 0.023437 14.656 3.9531 27.848 11.105 47.039 25.496 11.094 8.3164 14.812 11.496 24.859 21.242 4.375 4.1836 10.27 9.7734 13.086 12.348 2.9531 2.7617 4.8828 4.9297 4.9688 5.2461 0 0.17969-0.027343 0.40234-0.15625 0.46094-0.039062 0.015625-0.089843 0.027344-0.14062 0.027344-1.5078-0.003906-7.9141-6.457-10.07-8.6367-27.531-27.719-54.605-46.328-78.301-53.809l-1.5273-0.48047c-0.54297-0.17578-0.61719-0.87891-0.48828-1.3203zm27.598-46.254c0.14062-0.17969 0.41406-0.33984 0.80469-0.30859l0.003907 0.003907c6.6797 0.875 16.855 2.6055 20.789 3.6914 5.0234 1.3828 17.27 5.7383 22.211 7.918 4.2227 1.8438 13.047 7.1289 25.523 15.277 11.496 7.5195 26.84 15.613 32.199 16.984 2.1406 0.54688 3.2969 1.4062 3.3281 1.9609 0.015625 0.30859-0.33984 0.50781-0.64844 0.62891-0.10156 0.035156-0.22266 0.054687-0.38672 0.054687-3.375 0-20.066-7.9141-31.414-15.52-25.73-17.277-42.656-24.535-64.664-27.742-3.2695-0.46484-6.2422-0.92578-7.2188-1.0742-0.44141-0.074219-0.63672-0.35156-0.72266-0.58203-0.16406-0.41406-0.078124-0.96484 0.19531-1.293zm29.074-39.398c-0.16406-0.023438-0.29688-0.10547-0.39844-0.23438-0.23047-0.3125-0.25781-0.85156-0.066406-1.293 0.085938-0.19531 0.29297-0.53906 0.70703-0.57812 13.996-1.4688 45.656 2.8555 61.641 8.3984 18.414 6.2773 34.277 15.566 47.164 27.598 2.2891 2.1016 5.4219 4.5352 6.9766 5.4336 1.7422 1.0469 2.7773 2.0547 2.7773 2.6992 0 0.62891-0.26172 0.74609-0.34766 0.78516-0.61719 0.24609-2.9336-0.003906-11.688-8.1367-13.16-12.297-25.895-19.668-45.422-26.285-14.379-4.8945-39.078-8.6172-55.008-8.6172-2.3125-0.007813-4.4492 0.070312-6.3359 0.23047z"/>
  <use x="70" y="644" xlink:href="#u"/>
  <use x="90.550781" y="644" xlink:href="#c"/>
  <use x="104.359375" y="644" xlink:href="#a"/>
  <use x="123.347656" y="644" xlink:href="#f"/>
  <use x="142.242188" y="644" xlink:href="#b"/>
  <use x="155.628906" y="644" xlink:href="#a"/>
  <use x="174.617188" y="644" xlink:href="#j"/>
  <use x="204.410156" y="644" xlink:href="#i"/>
  <use x="224.453125" y="644" xlink:href="#e"/>
  <use x="252.453125" y="644" xlink:href="#h"/>
  <use x="270.292969" y="644" xlink:href="#f"/>
  <use x="289.1875" y="644" xlink:href="#e"/>
  <use x="307.4375" y="644" xlink:href="#g"/>
  <use x="336.617188" y="644" xlink:href="#t"/>
  <use x="346.210938" y="644" xlink:href="#s"/>
  <use x="70" y="672" xlink:href="#r"/>
  <use x="82.183594" y="672" xlink:href="#c"/>
  <use x="95.992188" y="672" xlink:href="#d"/>
  <use x="115.226562" y="672" xlink:href="#g"/>
  <use x="154.152344" y="672" xlink:href="#b"/>
  <use x="167.535156" y="672" xlink:href="#q"/>
  <use x="187.46875" y="672" xlink:href="#a"/>
  <use x="216.207031" y="672" xlink:href="#p"/>
  <use x="239.640625" y="672" xlink:href="#d"/>
  <use x="258.878906" y="672" xlink:href="#o"/>
  <use x="278.8125" y="672" xlink:href="#n"/>
  <use x="308.492188" y="672" xlink:href="#m"/>
  <use x="329.015625" y="672" xlink:href="#c"/>
  <use x="342.820312" y="672" xlink:href="#d"/>
  <use x="362.058594" y="672" xlink:href="#l"/>
  <use x="371.65625" y="672" xlink:href="#a"/>
  <use x="390.648438" y="672" xlink:href="#k"/>
  <use x="407.242188" y="672" xlink:href="#b"/>
 </g>
</svg>
