<?xml version="1.0" encoding="UTF-8"?>
<svg width="700pt" height="700pt" version="1.1" viewBox="0 0 700 700" xmlns="http://www.w3.org/2000/svg" xmlns:xlink="http://www.w3.org/1999/xlink">
 <defs>
  <symbol id="u" overflow="visible">
   <path d="m26.797-1.6094c-1.375 0.71875-2.8125 1.2617-4.3125 1.625s-3.0625 0.54688-4.6875 0.54688c-4.8555 0-8.7031-1.3516-11.547-4.0625-2.8359-2.7188-4.25-6.3984-4.25-11.047 0-4.6641 1.4141-8.3516 4.25-11.062 2.8438-2.7188 6.6914-4.0781 11.547-4.0781 1.625 0 3.1875 0.18359 4.6875 0.54688 1.5 0.36719 2.9375 0.90625 4.3125 1.625v6.0312c-1.3984-0.94531-2.7734-1.6406-4.125-2.0781-1.3555-0.44531-2.7773-0.67188-4.2656-0.67188-2.6875 0-4.8047 0.85938-6.3438 2.5781-1.5312 1.7188-2.2969 4.0898-2.2969 7.1094 0 3 0.76562 5.3594 2.2969 7.0781 1.5391 1.7188 3.6562 2.5781 6.3438 2.5781 1.4883 0 2.9102-0.21875 4.2656-0.65625 1.3516-0.44531 2.7266-1.1445 4.125-2.0938z"/>
  </symbol>
  <symbol id="d" overflow="visible">
   <path d="m19.609-15.922c-0.61719-0.28125-1.2266-0.48828-1.8281-0.625-0.60547-0.14453-1.2148-0.21875-1.8281-0.21875-1.793 0-3.1719 0.57812-4.1406 1.7344s-1.4531 2.8086-1.4531 4.9531v10.078h-7v-21.875h7v3.5938c0.89453-1.4375 1.9258-2.4844 3.0938-3.1406 1.1641-0.65625 2.5625-0.98438 4.1875-0.98438 0.22656 0 0.47656 0.011719 0.75 0.03125 0.28125 0.023438 0.67969 0.0625 1.2031 0.125z"/>
  </symbol>
  <symbol id="b" overflow="visible">
   <path d="m25.203-11v2h-16.359c0.17578 1.6367 0.76953 2.8672 1.7812 3.6875 1.0195 0.82422 2.4414 1.2344 4.2656 1.2344 1.4688 0 2.9727-0.21875 4.5156-0.65625 1.5391-0.4375 3.125-1.0977 4.75-1.9844v5.3906c-1.6484 0.625-3.2969 1.0938-4.9531 1.4062-1.6562 0.32031-3.3125 0.48438-4.9688 0.48438-3.9609 0-7.0391-1.0039-9.2344-3.0156-2.1875-2.0078-3.2812-4.832-3.2812-8.4688 0-3.5625 1.0781-6.3633 3.2344-8.4062 2.1562-2.0508 5.1172-3.0781 8.8906-3.0781 3.4375 0 6.1875 1.0391 8.25 3.1094 2.0703 2.0742 3.1094 4.8398 3.1094 8.2969zm-7.1875-2.3281c0-1.3203-0.39062-2.3906-1.1719-3.2031-0.77344-0.8125-1.7812-1.2188-3.0312-1.2188-1.3555 0-2.4609 0.38281-3.3125 1.1406-0.84375 0.76172-1.3711 1.8555-1.5781 3.2812z"/>
  </symbol>
  <symbol id="l" overflow="visible">
   <path d="m13.172-9.8438c-1.4609 0-2.5586 0.25-3.2969 0.75-0.74219 0.49219-1.1094 1.2148-1.1094 2.1719 0 0.88672 0.29688 1.5859 0.89062 2.0938 0.59375 0.5 1.4141 0.75 2.4688 0.75 1.3203 0 2.4297-0.47266 3.3281-1.4219 0.89453-0.94531 1.3438-2.1289 1.3438-3.5469v-0.79688zm10.672-2.6406v12.484h-7.0469v-3.25c-0.9375 1.3359-1.9961 2.3047-3.1719 2.9062-1.168 0.60156-2.5898 0.90625-4.2656 0.90625-2.2734 0-4.1172-0.66016-5.5312-1.9844-1.4062-1.3203-2.1094-3.0352-2.1094-5.1406 0-2.5625 0.87891-4.4414 2.6406-5.6406 1.7695-1.1953 4.5391-1.7969 8.3125-1.7969h4.125v-0.54688c0-1.1133-0.4375-1.9258-1.3125-2.4375-0.86719-0.50781-2.2266-0.76562-4.0781-0.76562-1.5 0-2.8984 0.15234-4.1875 0.45312-1.2812 0.29297-2.4766 0.74219-3.5781 1.3438v-5.3438c1.4883-0.36328 2.9883-0.64062 4.5-0.82812 1.5078-0.1875 3.0195-0.28125 4.5312-0.28125 3.9453 0 6.7969 0.78125 8.5469 2.3438 1.75 1.5547 2.625 4.0781 2.625 7.5781z"/>
  </symbol>
  <symbol id="a" overflow="visible">
   <path d="m11-28.094v6.2188h7.2031v5h-7.2031v9.2812c0 1.0117 0.19531 1.6992 0.59375 2.0625 0.40625 0.35547 1.207 0.53125 2.4062 0.53125h3.5938v5h-5.9844c-2.7617 0-4.7188-0.57031-5.875-1.7188-1.1562-1.1562-1.7344-3.1133-1.7344-5.875v-9.2812h-3.4688v-5h3.4688v-6.2188z"/>
  </symbol>
  <symbol id="k" overflow="visible">
   <path d="m18.25-18.672v-11.719h7.0312v30.391h-7.0312v-3.1719c-0.96875 1.293-2.0312 2.2422-3.1875 2.8438-1.1562 0.59375-2.5 0.89062-4.0312 0.89062-2.6875 0-4.9023-1.0664-6.6406-3.2031-1.7305-2.1445-2.5938-4.9062-2.5938-8.2812s0.86328-6.1289 2.5938-8.2656c1.7383-2.1445 3.9531-3.2188 6.6406-3.2188 1.5078 0 2.8477 0.30469 4.0156 0.90625 1.1641 0.60547 2.2344 1.5469 3.2031 2.8281zm-4.6094 14.156c1.4883 0 2.6289-0.54688 3.4219-1.6406 0.78906-1.0938 1.1875-2.6797 1.1875-4.7656 0-2.082-0.39844-3.6719-1.1875-4.7656-0.79297-1.0938-1.9336-1.6406-3.4219-1.6406-1.4922 0-2.6328 0.54688-3.4219 1.6406-0.78125 1.0938-1.1719 2.6836-1.1719 4.7656 0 2.0859 0.39062 3.6719 1.1719 4.7656 0.78906 1.0938 1.9297 1.6406 3.4219 1.6406z"/>
  </symbol>
  <symbol id="j" overflow="visible">
   <path d="m15-4.5156c1.5 0 2.6406-0.54688 3.4219-1.6406 0.78906-1.0938 1.1875-2.6797 1.1875-4.7656 0-2.082-0.39844-3.6719-1.1875-4.7656-0.78125-1.0938-1.9219-1.6406-3.4219-1.6406s-2.6523 0.55469-3.4531 1.6562c-0.79297 1.0938-1.1875 2.6797-1.1875 4.75 0 2.0742 0.39453 3.6641 1.1875 4.7656 0.80078 1.0938 1.9531 1.6406 3.4531 1.6406zm-4.6406-14.156c0.95703-1.2812 2.0195-2.2227 3.1875-2.8281 1.1758-0.60156 2.5234-0.90625 4.0469-0.90625 2.6953 0 4.9102 1.0742 6.6406 3.2188 1.7383 2.1367 2.6094 4.8906 2.6094 8.2656s-0.87109 6.1367-2.6094 8.2812c-1.7305 2.1367-3.9453 3.2031-6.6406 3.2031-1.5234 0-2.8711-0.30469-4.0469-0.90625-1.168-0.60156-2.2305-1.5469-3.1875-2.8281v3.1719h-7v-30.391h7z"/>
  </symbol>
  <symbol id="i" overflow="visible">
   <path d="m0.48438-21.875h7l5.875 14.844 5-14.844h7l-9.2031 23.953c-0.92969 2.4258-2.0078 4.125-3.2344 5.0938-1.2305 0.97656-2.8555 1.4688-4.875 1.4688h-4.0469v-4.5938h2.1875c1.1875 0 2.0508-0.19531 2.5938-0.57812 0.53906-0.375 0.96094-1.0469 1.2656-2.0156l0.1875-0.60938z"/>
  </symbol>
  <symbol id="h" overflow="visible">
   <path d="m0.20312-29.156h7.5469l7.7344 21.516 7.7188-21.516h7.5625l-10.797 29.156h-8.9688z"/>
  </symbol>
  <symbol id="g" overflow="visible">
   <path d="m21.031-21.188v5.7031c-0.94922-0.65625-1.9023-1.1406-2.8594-1.4531-0.96094-0.3125-1.9492-0.46875-2.9688-0.46875-1.9609 0-3.4844 0.57422-4.5781 1.7188-1.0859 1.1367-1.625 2.7266-1.625 4.7656 0 2.043 0.53906 3.6367 1.625 4.7812 1.0938 1.1367 2.6172 1.7031 4.5781 1.7031 1.0938 0 2.1289-0.16016 3.1094-0.48438 0.97656-0.32031 1.8828-0.80469 2.7188-1.4531v5.7344c-1.0938 0.39844-2.2031 0.69141-3.3281 0.89062-1.125 0.20703-2.2578 0.3125-3.3906 0.3125-3.9375 0-7.0234-1.0078-9.25-3.0312-2.2305-2.0312-3.3438-4.8477-3.3438-8.4531 0-3.6016 1.1133-6.4141 3.3438-8.4375 2.2266-2.0312 5.3125-3.0469 9.25-3.0469 1.1445 0 2.2734 0.10547 3.3906 0.3125 1.1133 0.19922 2.2227 0.5 3.3281 0.90625z"/>
  </symbol>
  <symbol id="c" overflow="visible">
   <path d="m13.766-17.406c-1.543 0-2.7266 0.55859-3.5469 1.6719-0.8125 1.1172-1.2188 2.7188-1.2188 4.8125s0.40625 3.6992 1.2188 4.8125c0.82031 1.1172 2.0039 1.6719 3.5469 1.6719 1.5312 0 2.6953-0.55469 3.5-1.6719 0.8125-1.1133 1.2188-2.7188 1.2188-4.8125s-0.40625-3.6953-1.2188-4.8125c-0.80469-1.1133-1.9688-1.6719-3.5-1.6719zm0-5c3.7695 0 6.7109 1.0156 8.8281 3.0469 2.1133 2.0312 3.1719 4.8438 3.1719 8.4375s-1.0586 6.4062-3.1719 8.4375c-2.1172 2.0312-5.0586 3.0469-8.8281 3.0469-3.7734 0-6.7266-1.0156-8.8594-3.0469-2.125-2.0312-3.1875-4.8438-3.1875-8.4375s1.0625-6.4062 3.1875-8.4375c2.1328-2.0312 5.0859-3.0469 8.8594-3.0469z"/>
  </symbol>
  <symbol id="t" overflow="visible">
   <path d="m20.453-21.188v5.3125c-1.5-0.625-2.9492-1.0938-4.3438-1.4062-1.3867-0.3125-2.6992-0.46875-3.9375-0.46875-1.3359 0-2.3242 0.16797-2.9688 0.5-0.63672 0.32422-0.95312 0.83594-0.95312 1.5312 0 0.55469 0.23828 0.98047 0.71875 1.2812 0.48828 0.30469 1.3672 0.52734 2.6406 0.67188l1.2188 0.17188c3.582 0.46094 5.9922 1.2109 7.2344 2.25 1.2383 1.043 1.8594 2.6719 1.8594 4.8906 0 2.3359-0.85938 4.0898-2.5781 5.2656-1.7188 1.168-4.2891 1.75-7.7031 1.75-1.4492 0-2.9453-0.11719-4.4844-0.34375-1.543-0.22656-3.125-0.56641-4.75-1.0156v-5.3125c1.3945 0.67969 2.8203 1.1875 4.2812 1.5312 1.4688 0.33594 2.957 0.5 4.4688 0.5 1.3633 0 2.3906-0.1875 3.0781-0.5625 0.69531-0.38281 1.0469-0.94531 1.0469-1.6875 0-0.625-0.24219-1.0859-0.71875-1.3906-0.48047-0.3125-1.4297-0.55078-2.8438-0.71875l-1.2344-0.15625c-3.1055-0.39453-5.2812-1.1172-6.5312-2.1719-1.25-1.0508-1.875-2.6484-1.875-4.7969 0-2.3203 0.78906-4.0391 2.375-5.1562 1.5938-1.125 4.0312-1.6875 7.3125-1.6875 1.2812 0 2.6289 0.10156 4.0469 0.29688 1.4258 0.19922 2.9727 0.50781 4.6406 0.92188z"/>
  </symbol>
  <symbol id="f" overflow="visible">
   <path d="m3.6719-29.156h12.484c3.707 0 6.5508 0.82422 8.5312 2.4688 1.9883 1.6484 2.9844 3.9922 2.9844 7.0312 0 3.0625-0.99609 5.418-2.9844 7.0625-1.9805 1.6484-4.8242 2.4688-8.5312 2.4688h-4.9688v10.125h-7.5156zm7.5156 5.4375v8.1562h4.1719c1.457 0 2.582-0.35156 3.375-1.0625 0.78906-0.71875 1.1875-1.7266 1.1875-3.0312 0-1.3008-0.39844-2.3008-1.1875-3-0.79297-0.70703-1.918-1.0625-3.375-1.0625z"/>
  </symbol>
  <symbol id="s" overflow="visible">
   <path d="m3.3594-21.875h7v21.875h-7zm0-8.5156h7v5.7031h-7z"/>
  </symbol>
  <symbol id="e" overflow="visible">
   <path d="m25.359-13.328v13.328h-7.0312v-10.203c0-1.8828-0.046875-3.1797-0.14062-3.8906-0.085938-0.71875-0.23047-1.25-0.4375-1.5938-0.27344-0.45703-0.64062-0.8125-1.1094-1.0625s-1-0.375-1.5938-0.375c-1.4609 0-2.6055 0.5625-3.4375 1.6875-0.83594 1.125-1.25 2.6836-1.25 4.6719v10.766h-7v-21.875h7v3.2031c1.0508-1.2812 2.1641-2.2227 3.3438-2.8281 1.1875-0.60156 2.5-0.90625 3.9375-0.90625 2.5195 0 4.4375 0.77734 5.75 2.3281 1.3125 1.5547 1.9688 3.8047 1.9688 6.75z"/>
  </symbol>
  <symbol id="r" overflow="visible">
   <path d="m17.75-30.391v4.5938h-3.8594c-0.99219 0-1.6836 0.17969-2.0781 0.53125-0.38672 0.35547-0.57812 0.97656-0.57812 1.8594v1.5312h5.9688v5h-5.9688v16.875h-7v-16.875h-3.4688v-5h3.4688v-1.5312c0-2.375 0.66016-4.1289 1.9844-5.2656 1.332-1.1445 3.3945-1.7188 6.1875-1.7188z"/>
  </symbol>
  <symbol id="q" overflow="visible">
   <path d="m23.641-18.25c0.88281-1.3516 1.9297-2.3828 3.1406-3.0938 1.2188-0.70703 2.5547-1.0625 4.0156-1.0625 2.5195 0 4.4375 0.77734 5.75 2.3281 1.3125 1.5547 1.9688 3.8047 1.9688 6.75v13.328h-7.0312v-11.406c0.007813-0.16406 0.019531-0.33594 0.03125-0.51562 0.007813-0.1875 0.015625-0.45312 0.015625-0.79688 0-1.5508-0.23047-2.6719-0.6875-3.3594-0.46094-0.69531-1.1953-1.0469-2.2031-1.0469-1.3359 0-2.3672 0.54688-3.0938 1.6406-0.71875 1.0938-1.0898 2.6719-1.1094 4.7344v10.75h-7.0312v-11.406c0-2.4258-0.21094-3.9844-0.625-4.6719-0.41797-0.69531-1.1641-1.0469-2.2344-1.0469-1.3359 0-2.3672 0.55469-3.0938 1.6562-0.73047 1.0938-1.0938 2.6641-1.0938 4.7031v10.766h-7.0312v-21.875h7.0312v3.2031c0.85156-1.2383 1.8359-2.1719 2.9531-2.7969 1.1133-0.625 2.3438-0.9375 3.6875-0.9375 1.5078 0 2.8438 0.36719 4 1.0938 1.1562 0.73047 2.0352 1.75 2.6406 3.0625z"/>
  </symbol>
  <symbol id="p" overflow="visible">
   <path d="m25.359-13.328v13.328h-7.0312v-10.156c0-1.9141-0.046875-3.2266-0.14062-3.9375-0.085938-0.71875-0.23047-1.25-0.4375-1.5938-0.27344-0.45703-0.64062-0.8125-1.1094-1.0625s-1-0.375-1.5938-0.375c-1.4609 0-2.6055 0.5625-3.4375 1.6875-0.83594 1.125-1.25 2.6836-1.25 4.6719v10.766h-7v-30.391h7v11.719c1.0508-1.2812 2.1641-2.2227 3.3438-2.8281 1.1875-0.60156 2.5-0.90625 3.9375-0.90625 2.5195 0 4.4375 0.77734 5.75 2.3281 1.3125 1.5547 1.9688 3.8047 1.9688 6.75z"/>
  </symbol>
  <symbol id="o" overflow="visible">
   <path d="m3.6719-29.156h8.4062l10.594 20v-20h7.1406v29.156h-8.4062l-10.609-20v20h-7.125z"/>
  </symbol>
  <symbol id="n" overflow="visible">
   <path d="m3.125-8.5156v-13.359h7.0312v2.1875c0 1.1875-0.007812 2.6797-0.015625 4.4688-0.011719 1.7812-0.015625 2.9766-0.015625 3.5781 0 1.7617 0.039062 3.0273 0.125 3.7969 0.09375 0.77344 0.25 1.3359 0.46875 1.6875 0.28906 0.46094 0.66406 0.8125 1.125 1.0625 0.46875 0.24219 1 0.35938 1.5938 0.35938 1.457 0 2.6016-0.55469 3.4375-1.6719 0.83203-1.125 1.25-2.6797 1.25-4.6719v-10.797h7v21.875h-7v-3.1719c-1.0547 1.2812-2.168 2.2266-3.3438 2.8281-1.1797 0.60156-2.4805 0.90625-3.9062 0.90625-2.5234 0-4.4453-0.76953-5.7656-2.3125-1.3242-1.5508-1.9844-3.8047-1.9844-6.7656z"/>
  </symbol>
  <symbol id="m" overflow="visible">
   <path d="m3.3594-21.875h7v21.484c0 2.9258-0.70312 5.1602-2.1094 6.7031-1.4062 1.5508-3.4492 2.3281-6.125 2.3281h-3.4531v-4.5938h1.2031c1.332 0 2.2422-0.30469 2.7344-0.90625 0.5-0.59375 0.75-1.7734 0.75-3.5312zm0-8.5156h7v5.7031h-7z"/>
  </symbol>
 </defs>
 <g>
  <path d="m103.33 409.42c-3.1641-0.72656-6.4453 1.2852-7.1797 4.5234-0.73438 3.2305 1.2891 6.4453 4.5234 7.1797 59.906 13.594 108.69 43.246 145 88.133 2.0977 2.5898 5.875 2.9648 8.4375 0.89062 2.5781-2.082 2.9766-5.8633 0.89062-8.4375-38.047-47.027-89.078-78.078-151.67-92.289z"/>
  <path d="m330.91 509.14c2.0156 2.6172 5.7812 3.1172 8.4141 1.0859 2.625-2.0234 3.1094-5.7891 1.0859-8.4141-46.32-60.07-121.7-98.652-237.26-121.42-3.2422-0.64453-6.3984 1.4766-7.0469 4.7266-0.64062 3.25 1.4766 6.4062 4.7344 7.0469 112.52 22.172 185.63 59.344 230.07 116.97z"/>
  <path d="m102.85 354.7c-3.3047-0.49609-6.3203 1.8047-6.7891 5.0859s1.8047 6.3203 5.0859 6.7891c113.16 16.246 236.31 51.477 305.3 142.54 2.0078 2.6484 5.7773 3.1523 8.4062 1.1562 2.6406-2 3.1562-5.7617 1.1562-8.4062-11.52-15.211-25.035-29.398-40.059-42.422 81.348-41.254 173.38-45.18 221.86-43.672 3.1719 0.27734 6.0859-2.5 6.1875-5.8086 0.10156-3.3125-2.5-6.082-5.8125-6.1836-50.609-1.5898-147.44 2.6133-232.3 47.32-8.1328-6.4375-16.809-12.535-25.832-18.355 114.79-59.27 254.12-42.766 255.54-42.594 3.1875 0.39453 6.2734-1.918 6.6953-5.207 0.41406-3.2891-1.9219-6.2891-5.2031-6.6992-1.5117-0.19922-149.4-17.746-268.7 47.125-9.457-5.6992-19.379-11.066-30.066-16.211 116.25-64.215 261.95-46.965 263.46-46.781 3.1797 0.39062 6.2734-1.918 6.6953-5.207 0.41406-3.2891-1.9219-6.2852-5.2031-6.6992-0.71875-0.089844-33.289-3.9414-79.906-1.4727v-41.625c39.082-3.0078 70.586-35.559 70.586-76.289 0-7.9688-10.113-6.2227-18.074-4.9531 11.676-13.746 18.074-31.008 18.074-49.309 0-3.3125-2.6875-6-6-6-4.1172 0-8.1328 0.41797-12.078 1.0469 11.676-13.746 18.078-31.004 18.078-49.312 0-3.3125-2.6875-6-6-6-19.52 0-37.297 7.4023-50.84 19.469 12.746-28.207 7.6289-62.586-15.52-85.734-2.3438-2.3438-6.1406-2.3438-8.4844 0-23.59 23.59-28.125 57.902-15.633 85.605-13.523-11.988-31.246-19.336-50.695-19.336-3.3125 0-6 2.6875-6 6 0 18.312 6.4062 35.578 18.07 49.312-3.9414-0.62891-7.9531-1.0469-12.07-1.0469-3.3125 0-6 2.6875-6 6 0 18.309 6.4062 35.574 18.066 49.309-3.9414-0.62891-7.9531-1.0469-12.066-1.0469-3.3125 0-6 2.6875-6 6 0 40.684 31.457 73.277 70.586 76.289v42.387c-54.648 4.0273-125.02 17.078-186.46 53.266-21.504-9.5-44.867-17.801-70.203-25.047v-43.797c39.012-3.0039 70.578-35.477 70.578-76.289 0-3.3125-2.6875-6-6-6-4.1133 0-8.125 0.41797-12.062 1.0469 11.668-13.75 18.062-31.012 18.062-49.312 0-3.3125-2.6875-6-6-6-4.1133 0-8.1211 0.41797-12.059 1.0469 11.668-13.75 18.059-31.008 18.059-49.305 0-3.3125-2.6875-6-6-6-19.48 0-37.227 7.3711-50.754 19.391 12.965-28.676 7.3164-62.746-15.598-85.664-2.3438-2.3438-6.1406-2.3438-8.4844 0-23.527 23.527-28.176 57.809-15.633 85.609-13.523-11.988-31.246-19.336-50.695-19.336-3.3125 0-6 2.6875-6 6 0 18.309 6.4062 35.574 18.066 49.309-3.9414-0.62891-7.9531-1.0469-12.066-1.0469-3.3125 0-6 2.6875-6 6 0 18.312 6.4062 35.578 18.07 49.312-3.9414-0.62891-7.9531-1.0469-12.07-1.0469-3.3125 0-6 2.6875-6 6 0 40.684 31.457 73.277 70.586 76.289v40.402c-30.309-8.0664-63.434-14.664-99.844-19.887zm386.57-156.59c-4.9375 5.8555-9.0391 12.434-12.059 19.586-3.0234-7.1523-7.1211-13.73-12.059-19.586 8.5859 1.3516 15.328 1.3789 24.117 0zm-12.062 55.285c4.0859 0 8.1016-0.40625 12.059-1.0273-4.9375 5.8555-9.0391 12.434-12.059 19.586-3.0234-7.1523-7.1211-13.73-12.059-19.586 3.957 0.625 7.9727 1.0273 12.059 1.0273zm6.3047 41.965c2.9766-30.59 27.391-55 57.977-57.977-2.9336 30.574-27.363 55.035-57.977 57.977zm0-54.266c2.9766-30.59 27.391-55 57.977-57.977-2.9336 30.57-27.355 55.039-57.977 57.977zm57.977-112.24c-2.8945 30.145-26.98 55.004-57.977 57.98 2.9766-30.594 27.391-55.004 57.977-57.98zm-64.281 34.578c-0.49219-1.1641-1.0859-2.2695-1.6328-3.4023 1.4453 0.40625 1.7344 0.4375 3.2695-0.007813-0.54688 1.1367-1.1445 2.2422-1.6367 3.4102zm-0.015625-99.992c19.523 23.734 19.523 58.258 0 81.992-19.543-23.699-19.562-58.27 0-81.992zm-6.2891 123.4c-30.562-2.9414-55.035-27.355-57.977-57.98 30.586 2.9727 55 27.383 57.977 57.98zm0 54.258c-29.969-2.875-54.984-26.797-57.977-57.977 30.586 2.9766 55 27.387 57.977 57.977zm-57.977-3.7109c30.586 2.9766 55 27.387 57.977 57.977-29.969-2.8789-54.984-26.801-57.977-57.977zm-192.32-12.469c-4.9375 5.8516-9.0352 12.434-12.059 19.586-3.0234-7.1523-7.1211-13.73-12.059-19.586 8.6836 1.3633 15.434 1.3633 24.117 0zm0 54.266c-4.9375 5.8516-9.0352 12.434-12.059 19.586-3.0234-7.1523-7.1211-13.73-12.059-19.586 8.6211 1.3555 15.367 1.375 24.117 0zm-5.7539 42.984c2.9766-30.59 27.383-55 57.969-57.977-2.9336 30.582-27.348 55.039-57.969 57.977zm0-54.258c2.9766-30.594 27.383-55.004 57.969-57.98-2.9336 30.578-27.348 55.031-57.969 57.98zm57.969-112.24c-2.9336 30.578-27.348 55.035-57.969 57.977 2.9766-30.59 27.383-55 57.969-57.977zm-64.273 34.57c-0.49219-1.1641-1.0859-2.2695-1.6328-3.4023 1.4492 0.41016 1.7383 0.4375 3.2695-0.007813-0.54688 1.1367-1.1445 2.2461-1.6367 3.4102zm-0.015624-100c19.488 23.66 19.637 58.16 0 82-19.203-23.281-19.883-57.891 0-82zm-6.2891 123.41c-14.898-1.4297-28.68-7.9219-39.352-18.652-10.711-10.652-17.195-24.43-18.625-39.324 30.586 2.9766 55 27.387 57.977 57.977zm0 54.266c-30.57-2.9336-55.039-27.359-57.977-57.98 30.586 2.9727 55 27.383 57.977 57.98zm-57.977-3.7188c30.586 2.9766 55 27.387 57.977 57.977-29.969-2.875-54.984-26.793-57.977-57.977z"/>
  <use x="70" y="680" xlink:href="#u"/>
  <use x="99.355469" y="680" xlink:href="#d"/>
  <use x="119.082031" y="680" xlink:href="#b"/>
  <use x="146.210938" y="680" xlink:href="#l"/>
  <use x="173.203125" y="680" xlink:href="#a"/>
  <use x="192.324219" y="680" xlink:href="#b"/>
  <use x="219.453125" y="680" xlink:href="#k"/>
  <use x="262.011719" y="680" xlink:href="#j"/>
  <use x="290.644531" y="680" xlink:href="#i"/>
  <use x="330.644531" y="680" xlink:href="#h"/>
  <use x="361.601562" y="680" xlink:href="#b"/>
  <use x="388.730469" y="680" xlink:href="#g"/>
  <use x="412.441406" y="680" xlink:href="#a"/>
  <use x="431.5625" y="680" xlink:href="#c"/>
  <use x="459.042969" y="680" xlink:href="#d"/>
  <use x="478.769531" y="680" xlink:href="#t"/>
  <use x="516.503906" y="680" xlink:href="#f"/>
  <use x="545.820312" y="680" xlink:href="#c"/>
  <use x="573.300781" y="680" xlink:href="#s"/>
  <use x="587.011719" y="680" xlink:href="#e"/>
  <use x="615.488281" y="680" xlink:href="#a"/>
  <use x="70" y="720" xlink:href="#r"/>
  <use x="87.402344" y="720" xlink:href="#d"/>
  <use x="107.128906" y="720" xlink:href="#c"/>
  <use x="134.609375" y="720" xlink:href="#q"/>
  <use x="190.214844" y="720" xlink:href="#a"/>
  <use x="209.335938" y="720" xlink:href="#p"/>
  <use x="237.8125" y="720" xlink:href="#b"/>
  <use x="278.867188" y="720" xlink:href="#o"/>
  <use x="312.34375" y="720" xlink:href="#c"/>
  <use x="339.824219" y="720" xlink:href="#n"/>
  <use x="368.300781" y="720" xlink:href="#e"/>
  <use x="410.703125" y="720" xlink:href="#f"/>
  <use x="440.019531" y="720" xlink:href="#d"/>
  <use x="459.746094" y="720" xlink:href="#c"/>
  <use x="487.226562" y="720" xlink:href="#m"/>
  <use x="500.9375" y="720" xlink:href="#b"/>
  <use x="528.066406" y="720" xlink:href="#g"/>
  <use x="551.777344" y="720" xlink:href="#a"/>
 </g>
</svg>
