<?xml version="1.0" encoding="UTF-8"?>
<svg width="700pt" height="700pt" version="1.1" viewBox="0 0 700 700" xmlns="http://www.w3.org/2000/svg" xmlns:xlink="http://www.w3.org/1999/xlink">
 <defs>
  <symbol id="w" overflow="visible">
   <path d="m18.766-1.125c-0.96875 0.5-1.9805 0.875-3.0312 1.125-1.043 0.25781-2.1367 0.39062-3.2812 0.39062-3.3984 0-6.0898-0.94531-8.0781-2.8438-1.9922-1.9062-2.9844-4.4844-2.9844-7.7344 0-3.2578 0.99219-5.8359 2.9844-7.7344 1.9883-1.9062 4.6797-2.8594 8.0781-2.8594 1.1445 0 2.2383 0.13281 3.2812 0.39062 1.0508 0.25 2.0625 0.625 3.0312 1.125v4.2188c-0.98047-0.65625-1.9453-1.1406-2.8906-1.4531-0.94922-0.3125-1.9492-0.46875-3-0.46875-1.875 0-3.3516 0.60547-4.4219 1.8125-1.0742 1.1992-1.6094 2.8555-1.6094 4.9688 0 2.1055 0.53516 3.7617 1.6094 4.9688 1.0703 1.1992 2.5469 1.7969 4.4219 1.7969 1.0508 0 2.0508-0.14844 3-0.45312 0.94531-0.3125 1.9102-0.80078 2.8906-1.4688z"/>
  </symbol>
  <symbol id="e" overflow="visible">
   <path d="m13.734-11.141c-0.4375-0.19531-0.87109-0.34375-1.2969-0.4375-0.41797-0.10156-0.83984-0.15625-1.2656-0.15625-1.2617 0-2.2305 0.40625-2.9062 1.2188-0.67969 0.80469-1.0156 1.9531-1.0156 3.4531v7.0625h-4.8906v-15.312h4.8906v2.5156c0.625-1 1.3438-1.7266 2.1562-2.1875 0.82031-0.46875 1.8008-0.70312 2.9375-0.70312 0.16406 0 0.34375 0.011719 0.53125 0.03125 0.19531 0.011719 0.47656 0.039062 0.84375 0.078125z"/>
  </symbol>
  <symbol id="b" overflow="visible">
   <path d="m17.641-7.7031v1.4062h-11.453c0.125 1.1484 0.53906 2.0078 1.25 2.5781 0.70703 0.57422 1.7031 0.85938 2.9844 0.85938 1.0312 0 2.082-0.14844 3.1562-0.45312 1.082-0.3125 2.1914-0.77344 3.3281-1.3906v3.7656c-1.1562 0.4375-2.3125 0.76562-3.4688 0.98438-1.1562 0.22656-2.3125 0.34375-3.4688 0.34375-2.7734 0-4.9297-0.70312-6.4688-2.1094-1.5312-1.4062-2.2969-3.3789-2.2969-5.9219 0-2.5 0.75391-4.4609 2.2656-5.8906 1.5078-1.4375 3.582-2.1562 6.2188-2.1562 2.4062 0 4.332 0.73047 5.7812 2.1875 1.4453 1.4492 2.1719 3.3828 2.1719 5.7969zm-5.0312-1.625c0-0.92578-0.27344-1.6719-0.8125-2.2344-0.54297-0.57031-1.25-0.85938-2.125-0.85938-0.94922 0-1.7188 0.26562-2.3125 0.79688s-0.96484 1.2969-1.1094 2.2969z"/>
  </symbol>
  <symbol id="d" overflow="visible">
   <path d="m9.2188-6.8906c-1.0234 0-1.793 0.17188-2.3125 0.51562-0.51172 0.34375-0.76562 0.85547-0.76562 1.5312 0 0.625 0.20703 1.1172 0.625 1.4688 0.41406 0.34375 0.98828 0.51562 1.7188 0.51562 0.92578 0 1.7031-0.32812 2.3281-0.98438 0.63281-0.66406 0.95312-1.4922 0.95312-2.4844v-0.5625zm7.4688-1.8438v8.7344h-4.9219v-2.2656c-0.65625 0.92969-1.3984 1.6055-2.2188 2.0312-0.82422 0.41406-1.8242 0.625-3 0.625-1.5859 0-2.8711-0.45703-3.8594-1.375-0.99219-0.92578-1.4844-2.1289-1.4844-3.6094 0-1.7891 0.61328-3.1016 1.8438-3.9375 1.2383-0.84375 3.1797-1.2656 5.8281-1.2656h2.8906v-0.39062c0-0.76953-0.30859-1.332-0.92188-1.6875-0.61719-0.36328-1.5703-0.54688-2.8594-0.54688-1.0547 0-2.0312 0.10547-2.9375 0.3125-0.89844 0.21094-1.7305 0.52344-2.5 0.9375v-3.7344c1.0391-0.25 2.0859-0.44141 3.1406-0.57812 1.0625-0.13281 2.125-0.20312 3.1875-0.20312 2.7578 0 4.75 0.54688 5.9688 1.6406 1.2266 1.0859 1.8438 2.8555 1.8438 5.3125z"/>
  </symbol>
  <symbol id="a" overflow="visible">
   <path d="m7.7031-19.656v4.3438h5.0469v3.5h-5.0469v6.5c0 0.71094 0.14062 1.1875 0.42188 1.4375s0.83594 0.375 1.6719 0.375h2.5156v3.5h-4.1875c-1.9375 0-3.3125-0.39844-4.125-1.2031-0.80469-0.8125-1.2031-2.1797-1.2031-4.1094v-6.5h-2.4219v-3.5h2.4219v-4.3438z"/>
  </symbol>
  <symbol id="k" overflow="visible">
   <path d="m12.766-13.078v-8.2031h4.9219v21.281h-4.9219v-2.2188c-0.66797 0.90625-1.4062 1.5703-2.2188 1.9844s-1.7578 0.625-2.8281 0.625c-1.8867 0-3.4336-0.75-4.6406-2.25-1.2109-1.5-1.8125-3.4258-1.8125-5.7812 0-2.3633 0.60156-4.2969 1.8125-5.7969 1.207-1.5 2.7539-2.25 4.6406-2.25 1.0625 0 2 0.21484 2.8125 0.64062 0.82031 0.42969 1.5664 1.0859 2.2344 1.9688zm-3.2188 9.9219c1.0391 0 1.8359-0.37891 2.3906-1.1406 0.55078-0.76953 0.82812-1.8828 0.82812-3.3438 0-1.457-0.27734-2.5664-0.82812-3.3281-0.55469-0.76953-1.3516-1.1562-2.3906-1.1562-1.043 0-1.8398 0.38672-2.3906 1.1562-0.55469 0.76172-0.82812 1.8711-0.82812 3.3281 0 1.4609 0.27344 2.5742 0.82812 3.3438 0.55078 0.76172 1.3477 1.1406 2.3906 1.1406z"/>
  </symbol>
  <symbol id="j" overflow="visible">
   <path d="m10.5-3.1562c1.0508 0 1.8516-0.37891 2.4062-1.1406 0.55078-0.76953 0.82812-1.8828 0.82812-3.3438 0-1.457-0.27734-2.5664-0.82812-3.3281-0.55469-0.76953-1.3555-1.1562-2.4062-1.1562-1.0547 0-1.8594 0.38672-2.4219 1.1562-0.55469 0.77344-0.82812 1.8828-0.82812 3.3281 0 1.4492 0.27344 2.5586 0.82812 3.3281 0.5625 0.77344 1.3672 1.1562 2.4219 1.1562zm-3.25-9.9219c0.67578-0.88281 1.4219-1.5391 2.2344-1.9688 0.82031-0.42578 1.7656-0.64062 2.8281-0.64062 1.8945 0 3.4453 0.75 4.6562 2.25 1.207 1.5 1.8125 3.4336 1.8125 5.7969 0 2.3555-0.60547 4.2812-1.8125 5.7812-1.2109 1.5-2.7617 2.25-4.6562 2.25-1.0625 0-2.0078-0.21094-2.8281-0.625-0.8125-0.42578-1.5586-1.0859-2.2344-1.9844v2.2188h-4.8906v-21.281h4.8906z"/>
  </symbol>
  <symbol id="i" overflow="visible">
   <path d="m0.34375-15.312h4.8906l4.125 10.391 3.5-10.391h4.8906l-6.4375 16.766c-0.64844 1.6953-1.4023 2.8828-2.2656 3.5625-0.86719 0.6875-2 1.0312-3.4062 1.0312h-2.8438v-3.2188h1.5312c0.83203 0 1.4375-0.13672 1.8125-0.40625 0.38281-0.26172 0.67969-0.73047 0.89062-1.4062l0.14062-0.42188z"/>
  </symbol>
  <symbol id="h" overflow="visible">
   <path d="m10.75-12.516c0.82031 0 1.4453-0.17969 1.875-0.54688 0.4375-0.36328 0.65625-0.89844 0.65625-1.6094 0-0.69531-0.21875-1.2266-0.65625-1.5938-0.42969-0.375-1.0547-0.5625-1.875-0.5625h-2.9219v4.3125zm0.17188 8.9375c1.0625 0 1.8594-0.22266 2.3906-0.67188 0.53125-0.44531 0.79688-1.125 0.79688-2.0312 0-0.88281-0.26562-1.5469-0.79688-1.9844-0.52344-0.4375-1.3203-0.65625-2.3906-0.65625h-3.0938v5.3438zm4.8906-7.3438c1.1328 0.32422 2.0078 0.92969 2.625 1.8125 0.625 0.88672 0.9375 1.9688 0.9375 3.25 0 1.9688-0.66797 3.4375-2 4.4062-1.3359 0.96875-3.3555 1.4531-6.0625 1.4531h-8.7344v-20.406h7.8906c2.832 0 4.8828 0.42969 6.1562 1.2812 1.2812 0.85547 1.9219 2.2266 1.9219 4.1094 0 1-0.23438 1.8516-0.70312 2.5469-0.46875 0.6875-1.1484 1.2031-2.0312 1.5469z"/>
  </symbol>
  <symbol id="v" overflow="visible">
   <path d="m2.3594-21.281h4.8906v11.594l5.625-5.625h5.6875l-7.4688 7.0312 8.0625 8.2812h-5.9375l-5.9688-6.3906v6.3906h-4.8906z"/>
  </symbol>
  <symbol id="f" overflow="visible">
   <path d="m2.1875-5.9688v-9.3438h4.9219v1.5312c0 0.83594-0.007813 1.875-0.015625 3.125-0.011719 1.25-0.015625 2.0859-0.015625 2.5 0 1.2422 0.03125 2.1328 0.09375 2.6719 0.070313 0.54297 0.17969 0.93359 0.32812 1.1719 0.20703 0.32422 0.47266 0.57422 0.79688 0.75 0.32031 0.16797 0.69141 0.25 1.1094 0.25 1.0195 0 1.8203-0.39062 2.4062-1.1719 0.58203-0.78125 0.875-1.8672 0.875-3.2656v-7.5625h4.8906v15.312h-4.8906v-2.2188c-0.74219 0.89844-1.5234 1.5586-2.3438 1.9844-0.82422 0.41406-1.7344 0.625-2.7344 0.625-1.7617 0-3.1055-0.53906-4.0312-1.625-0.92969-1.082-1.3906-2.6602-1.3906-4.7344z"/>
  </symbol>
  <symbol id="g" overflow="visible">
   <path d="m17.75-9.3281v9.3281h-4.9219v-7.1406c0-1.3203-0.03125-2.2344-0.09375-2.7344s-0.16797-0.86719-0.3125-1.1094c-0.1875-0.3125-0.44922-0.55469-0.78125-0.73438-0.32422-0.17578-0.69531-0.26562-1.1094-0.26562-1.0234 0-1.8242 0.39844-2.4062 1.1875-0.58594 0.78125-0.875 1.8711-0.875 3.2656v7.5312h-4.8906v-15.312h4.8906v2.2344c0.73828-0.88281 1.5195-1.5391 2.3438-1.9688 0.83203-0.42578 1.75-0.64062 2.75-0.64062 1.7695 0 3.1133 0.54688 4.0312 1.6406 0.91406 1.0859 1.375 2.6562 1.375 4.7188z"/>
  </symbol>
  <symbol id="u" overflow="visible">
   <path d="m14.312-14.828v3.7188c-1.043-0.4375-2.0547-0.76562-3.0312-0.98438-0.98047-0.21875-1.9023-0.32812-2.7656-0.32812-0.92969 0-1.6211 0.11719-2.0781 0.34375-0.44922 0.23047-0.67188 0.58984-0.67188 1.0781 0 0.38672 0.17188 0.68359 0.51562 0.89062 0.34375 0.21094 0.95703 0.36719 1.8438 0.46875l0.85938 0.125c2.5078 0.32422 4.1953 0.85156 5.0625 1.5781 0.86328 0.73047 1.2969 1.8711 1.2969 3.4219 0 1.6367-0.60547 2.8672-1.8125 3.6875-1.1992 0.8125-2.9922 1.2188-5.375 1.2188-1.0234 0-2.0742-0.078125-3.1562-0.23438-1.0742-0.15625-2.1797-0.39453-3.3125-0.71875v-3.7188c0.96875 0.48047 1.9609 0.83984 2.9844 1.0781 1.0312 0.23047 2.0781 0.34375 3.1406 0.34375 0.95703 0 1.6758-0.12891 2.1562-0.39062 0.47656-0.26953 0.71875-0.66406 0.71875-1.1875 0-0.4375-0.16797-0.75781-0.5-0.96875-0.33594-0.21875-0.99609-0.38281-1.9844-0.5l-0.85938-0.10938c-2.1797-0.26953-3.7031-0.77344-4.5781-1.5156-0.875-0.73828-1.3125-1.8594-1.3125-3.3594 0-1.625 0.55078-2.8281 1.6562-3.6094 1.1133-0.78906 2.8203-1.1875 5.125-1.1875 0.89453 0 1.8359 0.074219 2.8281 0.21875 1 0.13672 2.082 0.35156 3.25 0.64062z"/>
  </symbol>
  <symbol id="t" overflow="visible">
   <path d="m2.5781-20.406h5.25v7.4375l7.5938-7.4375h6.1094l-9.8281 9.6562 10.844 10.75h-6.5938l-8.125-8.0469v8.0469h-5.25z"/>
  </symbol>
  <symbol id="s" overflow="visible">
   <path d="m2.3594-15.312h4.8906v15.312h-4.8906zm0-5.9688h4.8906v4h-4.8906z"/>
  </symbol>
  <symbol id="c" overflow="visible">
   <path d="m9.6406-12.188c-1.0859 0-1.9141 0.39062-2.4844 1.1719-0.57422 0.78125-0.85938 1.9062-0.85938 3.375s0.28516 2.5938 0.85938 3.375c0.57031 0.77344 1.3984 1.1562 2.4844 1.1562 1.0625 0 1.875-0.38281 2.4375-1.1562 0.57031-0.78125 0.85938-1.9062 0.85938-3.375s-0.28906-2.5938-0.85938-3.375c-0.5625-0.78125-1.375-1.1719-2.4375-1.1719zm0-3.5c2.6328 0 4.6914 0.71484 6.1719 2.1406 1.4766 1.418 2.2188 3.3867 2.2188 5.9062 0 2.5117-0.74219 4.4805-2.2188 5.9062-1.4805 1.418-3.5391 2.125-6.1719 2.125-2.6484 0-4.7148-0.70703-6.2031-2.125-1.4922-1.4258-2.2344-3.3945-2.2344-5.9062 0-2.5195 0.74219-4.4883 2.2344-5.9062 1.4883-1.4258 3.5547-2.1406 6.2031-2.1406z"/>
  </symbol>
  <symbol id="r" overflow="visible">
   <path d="m12.422-21.281v3.2188h-2.7031c-0.6875 0-1.1719 0.125-1.4531 0.375-0.27344 0.25-0.40625 0.6875-0.40625 1.3125v1.0625h4.1875v3.5h-4.1875v11.812h-4.8906v-11.812h-2.4375v-3.5h2.4375v-1.0625c0-1.6641 0.46094-2.8984 1.3906-3.7031 0.92578-0.80078 2.3672-1.2031 4.3281-1.2031z"/>
  </symbol>
  <symbol id="q" overflow="visible">
   <path d="m16.547-12.766c0.61328-0.94531 1.3477-1.6719 2.2031-2.1719 0.85156-0.5 1.7891-0.75 2.8125-0.75 1.7578 0 3.0977 0.54688 4.0156 1.6406 0.92578 1.0859 1.3906 2.6562 1.3906 4.7188v9.3281h-4.9219v-7.9844-0.35938c0.007813-0.13281 0.015625-0.32031 0.015625-0.5625 0-1.082-0.16406-1.8633-0.48438-2.3438-0.3125-0.48828-0.82422-0.73438-1.5312-0.73438-0.92969 0-1.6484 0.38672-2.1562 1.1562-0.51172 0.76172-0.77344 1.8672-0.78125 3.3125v7.5156h-4.9219v-7.9844c0-1.6953-0.14844-2.7852-0.4375-3.2656-0.29297-0.48828-0.8125-0.73438-1.5625-0.73438-0.9375 0-1.6641 0.38672-2.1719 1.1562-0.51172 0.76172-0.76562 1.8594-0.76562 3.2969v7.5312h-4.9219v-15.312h4.9219v2.2344c0.60156-0.86328 1.2891-1.5156 2.0625-1.9531 0.78125-0.4375 1.6406-0.65625 2.5781-0.65625 1.0625 0 2 0.25781 2.8125 0.76562 0.8125 0.51172 1.4258 1.2305 1.8438 2.1562z"/>
  </symbol>
  <symbol id="p" overflow="visible">
   <path d="m17.75-9.3281v9.3281h-4.9219v-7.1094c0-1.3438-0.03125-2.2656-0.09375-2.7656s-0.16797-0.86719-0.3125-1.1094c-0.1875-0.3125-0.44922-0.55469-0.78125-0.73438-0.32422-0.17578-0.69531-0.26562-1.1094-0.26562-1.0234 0-1.8242 0.39844-2.4062 1.1875-0.58594 0.78125-0.875 1.8711-0.875 3.2656v7.5312h-4.8906v-21.281h4.8906v8.2031c0.73828-0.88281 1.5195-1.5391 2.3438-1.9688 0.83203-0.42578 1.75-0.64062 2.75-0.64062 1.7695 0 3.1133 0.54688 4.0312 1.6406 0.91406 1.0859 1.375 2.6562 1.375 4.7188z"/>
  </symbol>
  <symbol id="o" overflow="visible">
   <path d="m2.5781-20.406h5.875l7.4219 14v-14h4.9844v20.406h-5.875l-7.4219-14v14h-4.9844z"/>
  </symbol>
  <symbol id="n" overflow="visible">
   <path d="m2.5781-20.406h8.7344c2.5938 0 4.582 0.57812 5.9688 1.7344 1.3945 1.1484 2.0938 2.7891 2.0938 4.9219 0 2.1367-0.69922 3.7812-2.0938 4.9375-1.3867 1.1562-3.375 1.7344-5.9688 1.7344h-3.4844v7.0781h-5.25zm5.25 3.8125v5.7031h2.9219c1.0195 0 1.8047-0.25 2.3594-0.75 0.5625-0.5 0.84375-1.2031 0.84375-2.1094 0-0.91406-0.28125-1.6172-0.84375-2.1094-0.55469-0.48828-1.3398-0.73438-2.3594-0.73438z"/>
  </symbol>
  <symbol id="m" overflow="visible">
   <path d="m2.3594-15.312h4.8906v15.031c0 2.0508-0.49609 3.6172-1.4844 4.7031-0.98047 1.082-2.4062 1.625-4.2812 1.625h-2.4219v-3.2188h0.85938c0.92578 0 1.5625-0.21094 1.9062-0.625 0.35156-0.41797 0.53125-1.2461 0.53125-2.4844zm0-5.9688h4.8906v4h-4.8906z"/>
  </symbol>
  <symbol id="l" overflow="visible">
   <path d="m14.719-14.828v3.9844c-0.65625-0.45703-1.3242-0.79688-2-1.0156-0.66797-0.21875-1.3594-0.32812-2.0781-0.32812-1.3672 0-2.4336 0.40234-3.2031 1.2031-0.76172 0.79297-1.1406 1.9062-1.1406 3.3438 0 1.4297 0.37891 2.543 1.1406 3.3438 0.76953 0.79297 1.8359 1.1875 3.2031 1.1875 0.75781 0 1.4844-0.10938 2.1719-0.32812 0.6875-0.22656 1.3203-0.56641 1.9062-1.0156v4c-0.76172 0.28125-1.5391 0.48828-2.3281 0.625-0.78125 0.14453-1.5742 0.21875-2.375 0.21875-2.7617 0-4.9219-0.70703-6.4844-2.125-1.5547-1.4141-2.3281-3.3828-2.3281-5.9062 0-2.5312 0.77344-4.5039 2.3281-5.9219 1.5625-1.4141 3.7227-2.125 6.4844-2.125 0.80078 0 1.5938 0.074219 2.375 0.21875 0.78125 0.13672 1.5547 0.35156 2.3281 0.64062z"/>
  </symbol>
 </defs>
 <g>
  <path d="m539.92 346.76c0-54.188-22.004-134.49-54.75-199.85-2.832-5.6523-6.043-11.77-9.6133-18.16l0.011718-0.015625-1.5195-2.6875c-10.695-18.879-24.555-39.961-41.109-58.094-0.23438-0.25781-0.46875-0.50781-0.70703-0.76172-1.0039-1.0859-2.0117-2.1602-3.0352-3.2305-0.58984-0.61719-1.1914-1.2266-1.793-1.8359-0.62891-0.64844-1.2773-1.2891-1.9219-1.9336-0.77344-0.76172-1.5273-1.5195-2.3086-2.2617-0.22266-0.21094-0.44141-0.41016-0.66016-0.61719-16.648-15.82-35.57-28.016-56.391-32.301l-2.0664-0.46875-0.039063 0.078125c-4.5859-0.82031-9.2539-1.2969-14.016-1.2969-63.723 0-112.04 77.438-135.17 123.59-4.6367 9.2578-9.0391 18.84-13.211 28.578l-0.035156 0.011718-0.95313 2.2461c-0.28125 0.67188-0.53906 1.3555-0.81641 2.0312-1.8711 4.4688-3.6953 8.9727-5.4609 13.496-0.32422 0.83594-0.66016 1.6641-0.98047 2.4961-4.3555 11.324-8.3398 22.77-11.945 34.188-0.078126 0.24219-0.15234 0.47656-0.23047 0.71875-2.4141 7.6719-4.6602 15.309-6.6992 22.895l-0.14062 0.51562h0.003906c-9.082 33.918-14.297 66.383-14.297 92.676 0 104.71 85.199 189.92 189.93 189.92 17.406 0 34.242-2.3984 50.27-6.8164l0.035156 0.042968 2.7109-0.78906c0.25781-0.078125 0.51562-0.17188 0.77734-0.25391 2.9844-0.88672 5.9531-1.8359 8.875-2.8672 0.40234-0.14062 0.80469-0.27344 1.2109-0.40234 6.7578-2.4297 13.332-5.2188 19.711-8.3555 0.59766-0.29688 1.1797-0.60938 1.7734-0.91797 2.457-1.2383 4.8945-2.5273 7.293-3.8711 0.95312-0.53906 1.8984-1.082 2.8398-1.6289 1.9805-1.1602 3.9297-2.3516 5.8633-3.5781 1.1328-0.71094 2.25-1.4219 3.3672-2.1562 1.6523-1.1016 3.2695-2.2305 4.8945-3.3828 1.2539-0.89453 2.5273-1.7695 3.7734-2.6875 1.0078-0.75781 1.9766-1.5508 2.9688-2.3203 3.2891-2.5469 6.4922-5.2188 9.6094-7.9844 0.66797-0.58984 1.3555-1.1602 2.0156-1.7695 0.56641-0.50391 1.1523-0.99609 1.7148-1.5117l1.5391-1.4453-0.003906-0.14063c14.598-13.988 26.996-30.262 36.566-48.277l0.09375 0.042969 1.9766-3.9375c0.28125-0.55859 0.51562-1.1133 0.78516-1.6641 0.51953-1.0586 1.0234-2.1445 1.5195-3.2148 0.76562-1.6523 1.5273-3.3164 2.25-4.9766 0.53125-1.2383 1.0352-2.4688 1.5352-3.7188 0.62891-1.5391 1.2539-3.0977 1.8438-4.6484 0.52734-1.4102 1.0234-2.832 1.5195-4.2578 0.48828-1.3984 0.98047-2.8125 1.4297-4.2227 0.53125-1.6289 1.0195-3.2812 1.5078-4.9219 0.34766-1.2031 0.69922-2.4062 1.0234-3.6133 0.51953-1.9141 0.99609-3.8398 1.4609-5.7734 0.21875-0.92969 0.4375-1.8594 0.64453-2.7891 0.49219-2.2188 0.94141-4.4531 1.3477-6.7031 0.11719-0.63281 0.23438-1.2812 0.34766-1.9023 0.4375-2.5273 0.81641-5.0625 1.1523-7.6094 0.050781-0.35937 0.10156-0.72266 0.14062-1.082 0.34766-2.7539 0.62891-5.5312 0.85547-8.3203 0.003906-0.078125 0.015625-0.15234 0.023437-0.24219l0.22266-2.7344-0.015625-0.011718c0.26953-4.1445 0.45312-8.3086 0.45312-12.512zm-168.66-310.78c0.48047 0.14453 0.96875 0.28516 1.4375 0.4375 34.035 11.277 65.605 46.641 91.422 91.23-0.48047 0.36328-0.99609 0.69922-1.5391 0.98047-2.9805 1.5508-6.6289 1.668-9.6836 0.33203l-94.797-41.312c-2.75-1.1992-4.9336-3.4961-6.0039-6.293-1.0703-2.7891-0.98047-5.957 0.25781-8.6875l16.98-37.258c0.64453 0.17969 1.2812 0.375 1.9258 0.57031zm-163.08 147.86c0.035156-0.078125 0.0625-0.15234 0.09375-0.22266l34.547-7.1914c4.457-0.92578 9.6602-0.37109 13.133 1.3828l50.645 25.559c2.3672 1.1914 3.3477 2.6055 3.2695 3.4492-0.089844 0.98438-1.4844 2.5664-4.3359 3.7227l-81.34 32.859c-2.2188 0.89453-4.8281 1.3672-7.5586 1.3672h-29.973c6.0117-20.645 13.238-41.105 21.52-60.926zm249.26 307.98c-1.2617 0.94141-2.5547 1.8359-3.8516 2.7422-1.3555 0.95312-2.7148 1.9023-4.1055 2.8242-1.0938 0.72266-2.207 1.4336-3.3203 2.1328-1.668 1.0547-3.3477 2.0781-5.0508 3.0742-0.94141 0.54688-1.8828 1.1016-2.832 1.6406-1.9766 1.1016-3.9648 2.168-5.9766 3.2031-0.76172 0.39062-1.5195 0.78906-2.2773 1.1719-2.3633 1.1719-4.7422 2.2734-7.1406 3.3359-0.47656 0.20703-0.94141 0.4375-1.418 0.64453-5.9883 2.582-12.113 4.8555-18.336 6.7695l-49.965-52.27c-1.6055-1.6758-2.2109-4.1094-1.5625-6.332 0.63672-2.2383 2.4453-3.9922 4.6992-4.5586l47.113-11.922c0.52734-0.12891 1.0703-0.19531 1.6055-0.19531 1.4062 0 2.7344 0.42578 3.8711 1.2617l20.41 14.953 30.766-23.262c1.9219-1.4453 4.5977-1.7305 6.8047-0.66797 2.2188 1.043 3.6289 3.2266 3.7188 5.6992l1.2031 37.93c-3.7031 3.3867-7.5664 6.5977-11.547 9.6719-0.93359 0.70703-1.8633 1.4531-2.8086 2.1523zm23.379-20.746-0.92969-29.32c-0.19531-5.9688-3.6562-11.266-9.0234-13.816-5.2188-2.4922-11.793-1.8359-16.426 1.6641l-25.246 19.074-14.812-10.84c-3.793-2.7891-8.7188-3.7422-13.281-2.5938l-47.102 11.934c-5.4492 1.3789-9.8047 5.5898-11.367 11.004-1.5469 5.4141-0.09375 11.289 3.7852 15.355l46.48 48.629c-13.758 3.3711-28.117 5.1953-42.906 5.1953-99.59 0-180.61-81.016-180.61-180.6 0-25.855 5.2188-58.398 14.566-92.676h32.688c3.9102 0 7.7266-0.69922 11.043-2.0391l81.34-32.867c5.9883-2.418 9.6836-6.6133 10.129-11.523 0.44141-5.0234-2.6836-9.7344-8.3594-12.602l-50.641-25.555c-5.3242-2.6875-12.738-3.5352-19.227-2.1953l-28.121 5.8633c33.582-75.52 83.316-140.53 137.2-140.53 3.3477 0 6.6875 0.27344 10.008 0.76562l-16.133 35.414c-2.2695 4.9961-2.4414 10.785-0.48047 15.875 1.9492 5.1133 5.9531 9.3008 10.977 11.496l94.797 41.305c2.6055 1.1367 5.3711 1.7188 8.2266 1.7188 3.2891 0 6.5703-0.80078 9.4766-2.3203 0.63672-0.33203 1.2539-0.69922 1.8555-1.0938 37.586 68.285 61.887 155.2 61.887 210.96 0 2.1992-0.089843 4.3867-0.16406 6.5625l-92.215-60.727c-6.1055-4.0156-13.453-5.0117-18.512-2.5039-5.8516 2.8672-8.0039 9.625-5.2266 16.453l38.152 93.688c1.5078 3.6953 4.3164 7.1836 7.9336 9.832 1.5508 1.1367 3.207 2.0898 4.9375 2.8438l43.719 18.969c-7.6914 14.336-17.285 27.504-28.418 39.207zm48.016-99.301c-0.30859 2.2188-0.67188 4.418-1.0547 6.6094-0.11328 0.62109-0.21875 1.2383-0.33203 1.8477-0.35156 1.8828-0.74609 3.7539-1.1523 5.6094-0.20703 0.97266-0.42969 1.9258-0.66016 2.8789-0.37891 1.6055-0.78516 3.2148-1.2031 4.8086-0.34766 1.2891-0.72266 2.5586-1.0859 3.8398-0.37891 1.3008-0.75781 2.6055-1.1602 3.9023-0.61328 1.9258-1.2773 3.8203-1.9492 5.7109-0.23438 0.66797-0.44922 1.3438-0.69531 2.0117-0.97266 2.6484-2.0117 5.2695-3.1133 7.875-0.11719 0.29688-0.26953 0.58984-0.39063 0.88672-0.82812 1.9492-1.7148 3.8594-2.6094 5.7734l-44.195-19.176c-1.0859-0.48047-2.1523-1.0938-3.1523-1.8125-2.2109-1.6172-3.9648-3.7539-4.8086-5.8281l-38.152-93.688c-0.42969-1.0703-1.2266-3.6289 0.70703-4.582 0.59375-0.29687 1.3828-0.44922 2.2852-0.44922 2.1445 0 4.6992 0.86328 6.9961 2.375l96.629 63.645c-0.24609 2.5938-0.54297 5.1641-0.89453 7.7227-0.003906 0.007813-0.003906 0.027344-0.007812 0.039063z"/>
  <path d="m337.48 171.28c4.957 0 9.5664-2.457 12.332-6.5898 3.0234-4.5352 3.332-10.336 0.79688-15.148l-28.309-53.777c-2.4062-4.5703-7.1016-7.5938-12.273-7.8945-5.2305-0.29688-10.16 2.1602-13.074 6.418l-33.02 48.109c-2.9609 4.3164-3.4258 9.9414-1.2031 14.699 2.2305 4.7422 6.8594 7.9805 12.066 8.457l61.324 5.668c0.45312 0.039062 0.90625 0.058594 1.3594 0.058594zm-66.316-18.141c-0.82812-1.7656-0.66016-3.8633 0.44922-5.4727l33.023-48.113c1.0195-1.4961 2.7148-2.3867 4.8398-2.3867h0.027343c1.9141 0.11328 3.6641 1.2383 4.5547 2.9414l28.309 53.777c0.94141 1.793 0.82812 3.9492-0.29297 5.6289-1.125 1.6797-3.0391 2.6133-5.0977 2.4375l-61.332-5.6602c-1.9375-0.1875-3.6562-1.3984-4.4805-3.1523z"/>
  <path d="m424.91 258.93 39.227-37.477c3.5-3.3359 5.0195-8.1602 4.082-12.906-0.94531-4.7422-4.1953-8.6133-8.7031-10.359l-58.406-22.668c-4.8398-1.8633-10.512-0.83984-14.391 2.5742l-26.605 23.543c-3.1211 2.7617-4.832 6.7266-4.7383 10.879 0.11719 4.1484 2.0312 8.0234 5.2734 10.617l45.77 36.605c2.4805 1.9805 5.6016 3.0781 8.7812 3.0781 3.6406 0.007812 7.0898-1.3711 9.7109-3.8867zm-58.441-43.066c-1.0977-0.87891-1.7461-2.1914-1.7734-3.5898-0.042968-1.3984 0.54688-2.7383 1.5977-3.668l26.59-23.531c0.86719-0.76562 1.9805-1.1875 3.1523-1.1875 0.58984 0 1.1719 0.10547 1.7188 0.3125l58.402 22.664c1.5195 0.58984 2.6211 1.8984 2.9297 3.4961 0.32031 1.6055-0.19531 3.2305-1.3789 4.3555l-39.227 37.488c-1.6641 1.5977-4.4297 1.7148-6.2266 0.27344z"/>
  <path d="m377.49 312.03c-0.46484-3.7617-2.7266-7.1016-6.0547-8.9258-3.2578-1.7812-7.3984-1.9023-10.77-0.30859l-26.551 12.668c-2.8438 1.3555-4.9961 3.7422-6.043 6.6797l-8.6289 24.152c-1.4062 3.9609-0.59766 8.3984 2.1055 11.602 0.59375 0.71094 1.2773 1.3438 2.0391 1.9141 2.0117 1.4688 4.4922 2.2734 6.9844 2.2734 0.69531 0 1.3906-0.066406 2.082-0.18359l38.84-6.957c6.1719-1.1016 10.406-6.8477 9.6484-13.07zm-7.6328 33.75-38.836 6.957c-0.67578 0.11719-1.3828-0.054687-1.9023-0.4375-0.17188-0.12891-0.32031-0.26172-0.44922-0.41406-0.57031-0.67578-0.73828-1.6172-0.44141-2.457l8.625-24.152c0.22266-0.60938 0.67578-1.1133 1.2812-1.3984l26.555-12.668c0.33594-0.15234 0.70703-0.24219 1.082-0.24219 0.41406 0 0.82812 0.10156 1.1992 0.30859 0.69922 0.37891 1.1797 1.0938 1.2812 1.8945l3.6562 29.836c0.15234 1.3164-0.74609 2.543-2.0508 2.7734z"/>
  <path d="m292.61 432.6c-2.6211-4.8672-8.5625-7.332-13.875-5.6914l-34.016 10.488c-3.9258 1.1914-6.9883 4.418-7.9922 8.4102-1.0039 3.9805 0.17188 8.2695 3.0508 11.176l26.512 26.84c0.45313 0.44922 0.93359 0.875 1.3945 1.1914 2.0391 1.5 4.4531 2.2852 6.9844 2.2852 1.9258 0 3.8359-0.48047 5.5312-1.3789l21.516-11.406c2.7734-1.457 4.8789-4.0156 5.7773-7.0117 0.91797-3.0391 0.59375-6.2422-0.91406-9.043zm5.9766 32.211c-0.19141 0.63281-0.63672 1.1719-1.2266 1.4883l-21.52 11.406c-0.82812 0.4375-1.8555 0.39062-2.6953-0.23047-0.10547-0.078124-0.20312-0.17187-0.25781-0.21875l-26.477-26.809c-0.61719-0.62109-0.85547-1.5117-0.64453-2.375 0.21094-0.83984 0.85547-1.5195 1.6914-1.7695l34.016-10.488c0.24609-0.066406 0.49219-0.11328 0.74609-0.11328 0.91797 0 1.7539 0.50391 2.1953 1.3086l13.977 25.867c0.32422 0.60938 0.39062 1.2891 0.19531 1.9336z"/>
  <path d="m282.26 404.89c2.7617 0 5.4883-0.92969 7.6758-2.5938 3.5273-2.6719 5.4258-7.0781 4.9492-11.473l-5.5117-51.211c-0.65625-6.0586-5.5312-10.82-11.609-11.301l-17.305-1.3984-0.94141-17.762c-0.24219-4.625-2.9922-8.7578-7.1836-10.785-4.1094-1.9805-9.1836-1.5273-12.898 1.125l-61.273 43.902c-3.793 2.6992-5.7891 7.2539-5.2305 11.879 0.42187 3.457 2.2773 6.6406 5.1016 8.7188 0.88672 0.63281 1.8438 1.1602 2.8164 1.5391l96.711 38.445c1.5078 0.60547 3.0781 0.91406 4.6992 0.91406zm-98.719-48.414c-0.75781-0.55859-1.2539-1.4102-1.3672-2.3281-0.15234-1.2383 0.37891-2.4531 1.3945-3.168l61.285-43.914c0.58203-0.41406 1.2695-0.63281 1.9805-0.63281 0.50781 0 1.0039 0.11328 1.4492 0.33203 1.1406 0.54688 1.8633 1.6289 1.9258 2.8906l1.3711 25.898 25.434 2.043c1.6172 0.14062 2.918 1.3984 3.0898 3.0195l5.5117 51.219c0.125 1.1602-0.375 2.3281-1.3281 3.0508-0.92578 0.69922-2.2109 0.875-3.293 0.44922l-96.738-38.457c-0.24219-0.10547-0.48828-0.24609-0.71484-0.40234z"/>
  <use x="70" y="644" xlink:href="#w"/>
  <use x="90.550781" y="644" xlink:href="#e"/>
  <use x="104.359375" y="644" xlink:href="#b"/>
  <use x="123.347656" y="644" xlink:href="#d"/>
  <use x="142.242188" y="644" xlink:href="#a"/>
  <use x="155.628906" y="644" xlink:href="#b"/>
  <use x="174.617188" y="644" xlink:href="#k"/>
  <use x="204.410156" y="644" xlink:href="#j"/>
  <use x="224.453125" y="644" xlink:href="#i"/>
  <use x="252.453125" y="644" xlink:href="#h"/>
  <use x="273.792969" y="644" xlink:href="#d"/>
  <use x="292.6875" y="644" xlink:href="#v"/>
  <use x="311.308594" y="644" xlink:href="#f"/>
  <use x="331.242188" y="644" xlink:href="#g"/>
  <use x="351.175781" y="644" xlink:href="#b"/>
  <use x="370.164062" y="644" xlink:href="#a"/>
  <use x="383.550781" y="644" xlink:href="#u"/>
  <use x="400.21875" y="644" xlink:href="#f"/>
  <use x="429.898438" y="644" xlink:href="#t"/>
  <use x="451.59375" y="644" xlink:href="#d"/>
  <use x="470.492187" y="644" xlink:href="#s"/>
  <use x="480.085937" y="644" xlink:href="#a"/>
  <use x="493.472656" y="644" xlink:href="#c"/>
  <use x="70" y="672" xlink:href="#r"/>
  <use x="82.183594" y="672" xlink:href="#e"/>
  <use x="95.992188" y="672" xlink:href="#c"/>
  <use x="115.226562" y="672" xlink:href="#q"/>
  <use x="154.152344" y="672" xlink:href="#a"/>
  <use x="167.535156" y="672" xlink:href="#p"/>
  <use x="187.46875" y="672" xlink:href="#b"/>
  <use x="216.207031" y="672" xlink:href="#o"/>
  <use x="239.640625" y="672" xlink:href="#c"/>
  <use x="258.878906" y="672" xlink:href="#f"/>
  <use x="278.8125" y="672" xlink:href="#g"/>
  <use x="308.492188" y="672" xlink:href="#n"/>
  <use x="329.015625" y="672" xlink:href="#e"/>
  <use x="342.820312" y="672" xlink:href="#c"/>
  <use x="362.058594" y="672" xlink:href="#m"/>
  <use x="371.65625" y="672" xlink:href="#b"/>
  <use x="390.648438" y="672" xlink:href="#l"/>
  <use x="407.242188" y="672" xlink:href="#a"/>
 </g>
</svg>
