<?xml version="1.0" encoding="UTF-8"?>
<svg width="700pt" height="700pt" version="1.1" viewBox="0 0 700 700" xmlns="http://www.w3.org/2000/svg" xmlns:xlink="http://www.w3.org/1999/xlink">
 <defs>
  <symbol id="n" overflow="visible">
   <path d="m29.312-1.75c-1.5117 0.78125-3.0898 1.3711-4.7344 1.7656-1.6367 0.40625-3.3398 0.60938-5.1094 0.60938-5.3125 0-9.5273-1.4844-12.641-4.4531-3.1055-2.9688-4.6562-7-4.6562-12.094s1.5508-9.125 4.6562-12.094c3.1133-2.9688 7.3281-4.4531 12.641-4.4531 1.7695 0 3.4727 0.19922 5.1094 0.59375 1.6445 0.39844 3.2227 0.99219 4.7344 1.7812v6.5938c-1.5312-1.0391-3.0391-1.8008-4.5156-2.2812-1.4805-0.48828-3.0391-0.73438-4.6719-0.73438-2.9375 0-5.2461 0.94531-6.9219 2.8281-1.6797 1.875-2.5156 4.4648-2.5156 7.7656 0 3.293 0.83594 5.8828 2.5156 7.7656 1.6758 1.875 3.9844 2.8125 6.9219 2.8125 1.6328 0 3.1914-0.23828 4.6719-0.71875 1.4766-0.48828 2.9844-1.2539 4.5156-2.2969z"/>
  </symbol>
  <symbol id="h" overflow="visible">
   <path d="m21.453-17.406c-0.67969-0.3125-1.3516-0.53906-2.0156-0.6875-0.65625-0.15625-1.3203-0.23438-1.9844-0.23438-1.9688 0-3.4844 0.63281-4.5469 1.8906-1.0547 1.2617-1.5781 3.0703-1.5781 5.4219v11.016h-7.6562v-23.922h7.6562v3.9219c0.97656-1.5625 2.1016-2.7031 3.375-3.4219 1.2812-0.71875 2.8125-1.0781 4.5938-1.0781 0.25 0 0.52344 0.011719 0.82812 0.03125 0.30078 0.023438 0.73438 0.070312 1.2969 0.14062z"/>
  </symbol>
  <symbol id="c" overflow="visible">
   <path d="m27.562-12.031v2.1875h-17.891c0.1875 1.793 0.83203 3.1367 1.9375 4.0312 1.1133 0.89844 2.6719 1.3438 4.6719 1.3438 1.6016 0 3.25-0.23438 4.9375-0.70312 1.6875-0.47656 3.4219-1.2031 5.2031-2.1719v5.8906c-1.8047 0.6875-3.6094 1.2031-5.4219 1.5469-1.8125 0.35156-3.6211 0.53125-5.4219 0.53125-4.3359 0-7.7031-1.0977-10.109-3.2969-2.3984-2.207-3.5938-5.2969-3.5938-9.2656 0-3.9062 1.1758-6.9727 3.5312-9.2031 2.3633-2.2383 5.6094-3.3594 9.7344-3.3594 3.7578 0 6.7695 1.1367 9.0312 3.4062 2.2578 2.2617 3.3906 5.2812 3.3906 9.0625zm-7.8594-2.5312c0-1.457-0.42969-2.6289-1.2812-3.5156-0.84375-0.89453-1.9492-1.3438-3.3125-1.3438-1.4922 0-2.6992 0.41797-3.625 1.25-0.91797 0.83594-1.4922 2.0391-1.7188 3.6094z"/>
  </symbol>
  <symbol id="a" overflow="visible">
   <path d="m14.391-10.766c-1.5938 0-2.793 0.27344-3.5938 0.8125-0.80469 0.54297-1.2031 1.3398-1.2031 2.3906 0 0.96875 0.32031 1.7305 0.96875 2.2812 0.64453 0.54297 1.5469 0.8125 2.7031 0.8125 1.4375 0 2.6445-0.51562 3.625-1.5469 0.98828-1.0312 1.4844-2.3203 1.4844-3.875v-0.875zm11.688-2.8906v13.656h-7.7031v-3.5469c-1.0312 1.4492-2.1875 2.5078-3.4688 3.1719s-2.8398 1-4.6719 1c-2.4805 0-4.4961-0.72266-6.0469-2.1719-1.543-1.4453-2.3125-3.3203-2.3125-5.625 0-2.8125 0.96094-4.8672 2.8906-6.1719 1.9375-1.3125 4.9688-1.9688 9.0938-1.9688h4.5156v-0.60938c0-1.207-0.48047-2.0938-1.4375-2.6562-0.94922-0.5625-2.4375-0.84375-4.4688-0.84375-1.6367 0-3.1562 0.16797-4.5625 0.5-1.4062 0.32422-2.7188 0.8125-3.9375 1.4688v-5.8281c1.6445-0.40625 3.2891-0.70703 4.9375-0.90625 1.6562-0.20703 3.3047-0.3125 4.9531-0.3125 4.3203 0 7.4375 0.85547 9.3438 2.5625 1.9141 1.6992 2.875 4.4609 2.875 8.2812z"/>
  </symbol>
  <symbol id="b" overflow="visible">
   <path d="m12.031-30.719v6.7969h7.875v5.4688h-7.875v10.141c0 1.1172 0.21875 1.8711 0.65625 2.2656 0.4375 0.38672 1.3125 0.57812 2.625 0.57812h3.9375v5.4688h-6.5625c-3.0234 0-5.1641-0.62891-6.4219-1.8906-1.2617-1.2578-1.8906-3.3984-1.8906-6.4219v-10.141h-3.7969v-5.4688h3.7969v-6.7969z"/>
  </symbol>
  <symbol id="g" overflow="visible">
   <path d="m19.953-20.422v-12.812h7.6875v33.234h-7.6875v-3.4531c-1.0547 1.4062-2.2148 2.4375-3.4844 3.0938-1.2734 0.65625-2.7422 0.98438-4.4062 0.98438-2.9492 0-5.3711-1.1719-7.2656-3.5156-1.8867-2.3438-2.8281-5.3594-2.8281-9.0469s0.94141-6.7031 2.8281-9.0469c1.8945-2.3438 4.3164-3.5156 7.2656-3.5156 1.6562 0 3.1172 0.33594 4.3906 1 1.2812 0.65625 2.4453 1.6836 3.5 3.0781zm-5.0469 15.484c1.6445 0 2.8945-0.59766 3.75-1.7969 0.86328-1.1953 1.2969-2.9297 1.2969-5.2031 0-2.2812-0.43359-4.0195-1.2969-5.2188-0.85547-1.1953-2.1055-1.7969-3.75-1.7969-1.625 0-2.8711 0.60156-3.7344 1.7969-0.85547 1.1992-1.2812 2.9375-1.2812 5.2188 0 2.2734 0.42578 4.0078 1.2812 5.2031 0.86328 1.1992 2.1094 1.7969 3.7344 1.7969z"/>
  </symbol>
  <symbol id="f" overflow="visible">
   <path d="m16.406-4.9375c1.6328 0 2.8828-0.59766 3.75-1.7969 0.86328-1.1953 1.2969-2.9297 1.2969-5.2031 0-2.2812-0.43359-4.0195-1.2969-5.2188-0.86719-1.1953-2.1172-1.7969-3.75-1.7969-1.6367 0-2.8906 0.60547-3.7656 1.8125-0.875 1.1992-1.3125 2.9336-1.3125 5.2031 0 2.2617 0.4375 3.9961 1.3125 5.2031 0.875 1.1992 2.1289 1.7969 3.7656 1.7969zm-5.0781-15.484c1.0508-1.3945 2.2188-2.4219 3.5-3.0781 1.2812-0.66406 2.7539-1 4.4219-1 2.9453 0 5.3672 1.1719 7.2656 3.5156 1.8945 2.3438 2.8438 5.3594 2.8438 9.0469s-0.94922 6.7031-2.8438 9.0469c-1.8984 2.3438-4.3203 3.5156-7.2656 3.5156-1.668 0-3.1406-0.33594-4.4219-1s-2.4492-1.6914-3.5-3.0781v3.4531h-7.6562v-33.234h7.6562z"/>
  </symbol>
  <symbol id="e" overflow="visible">
   <path d="m0.53125-23.922h7.6562l6.4219 16.234 5.4688-16.234h7.6562l-10.062 26.188c-1.0117 2.6641-2.1953 4.5234-3.5469 5.5781-1.3438 1.0625-3.1211 1.5938-5.3281 1.5938h-4.4219v-5.0156h2.3906c1.3008 0 2.2422-0.21094 2.8281-0.625 0.59375-0.40625 1.0547-1.1484 1.3906-2.2188l0.20312-0.65625z"/>
  </symbol>
  <symbol id="d" overflow="visible">
   <path d="m26.219-30.891v6.75c-1.7617-0.78125-3.4766-1.3672-5.1406-1.7656-1.668-0.40625-3.2422-0.60938-4.7188-0.60938-1.9609 0-3.4141 0.27344-4.3594 0.8125-0.9375 0.54297-1.4062 1.3867-1.4062 2.5312 0 0.85547 0.31641 1.5234 0.95312 2 0.63281 0.46875 1.7852 0.875 3.4531 1.2188l3.5 0.70312c3.5391 0.71875 6.0625 1.8047 7.5625 3.25 1.5 1.4492 2.25 3.5117 2.25 6.1875 0 3.5234-1.0469 6.1406-3.1406 7.8594-2.0859 1.7188-5.2734 2.5781-9.5625 2.5781-2.0234 0-4.0547-0.19531-6.0938-0.57812-2.0312-0.38281-4.0625-0.95703-6.0938-1.7188v-6.9375c2.0312 1.0859 3.9922 1.9023 5.8906 2.4531 1.9062 0.54297 3.7422 0.8125 5.5156 0.8125 1.7891 0 3.1602-0.29688 4.1094-0.89062 0.95703-0.60156 1.4375-1.457 1.4375-2.5625 0-1-0.32422-1.7695-0.96875-2.3125-0.64844-0.53906-1.9375-1.0234-3.875-1.4531l-3.1875-0.70312c-3.1875-0.6875-5.5234-1.7734-7-3.2656-1.4688-1.5-2.2031-3.5156-2.2031-6.0469 0-3.1758 1.0234-5.6172 3.0781-7.3281 2.0508-1.707 5-2.5625 8.8438-2.5625 1.75 0 3.5508 0.13281 5.4062 0.39062 1.8516 0.26172 3.7695 0.65625 5.75 1.1875z"/>
  </symbol>
  <symbol id="m" overflow="visible">
   <path d="m1.5312-23.922h7.4375l4.0156 16.484 4.0469-16.484h6.375l4.0156 16.312 4.0469-16.312h7.4375l-6.3125 23.922h-8.3438l-4.0469-16.453-4.0156 16.453h-8.3438z"/>
  </symbol>
  <symbol id="l" overflow="visible">
   <path d="m23.375-5.8125h-12.859l-2.0312 5.8125h-8.2656l11.812-31.891h9.7969l11.812 31.891h-8.2656zm-10.812-5.9219h8.7344l-4.3594-12.688z"/>
  </symbol>
  <symbol id="k" overflow="visible">
   <path d="m27.734-14.562v14.562h-7.7031v-11.156c0-2.0625-0.046875-3.4844-0.14062-4.2656-0.085937-0.78125-0.24219-1.3594-0.46875-1.7344-0.30469-0.5-0.71094-0.88281-1.2188-1.1562-0.51172-0.28125-1.0938-0.42188-1.75-0.42188-1.5938 0-2.8516 0.61719-3.7656 1.8438-0.90625 1.2305-1.3594 2.9375-1.3594 5.125v11.766h-7.6562v-23.922h7.6562v3.5c1.1445-1.3945 2.3633-2.4219 3.6562-3.0781 1.3008-0.66406 2.7383-1 4.3125-1 2.7578 0 4.8516 0.85156 6.2812 2.5469 1.4375 1.6875 2.1562 4.1523 2.1562 7.3906z"/>
  </symbol>
  <symbol id="j" overflow="visible">
   <path d="m3.4219-9.3125v-14.609h7.6875v2.3906c0 1.293-0.011719 2.918-0.03125 4.875-0.011719 1.9609-0.015625 3.2656-0.015625 3.9219 0 1.9297 0.046875 3.3125 0.14062 4.1562 0.10156 0.84375 0.28125 1.4609 0.53125 1.8438 0.3125 0.5 0.71875 0.88672 1.2188 1.1562 0.50781 0.27344 1.0938 0.40625 1.75 0.40625 1.5938 0 2.8438-0.60938 3.75-1.8281 0.91406-1.2266 1.375-2.9297 1.375-5.1094v-11.812h7.6406v23.922h-7.6406v-3.4531c-1.1562 1.3867-2.3828 2.4141-3.6719 3.0781-1.2812 0.66406-2.6992 1-4.25 1-2.7734 0-4.8828-0.84766-6.3281-2.5469-1.4375-1.6953-2.1562-4.1602-2.1562-7.3906z"/>
  </symbol>
  <symbol id="i" overflow="visible">
   <path d="m3.6719-33.234h7.6562v18.094l8.7969-8.7812h8.8906l-11.688 10.969 12.594 12.953h-9.2656l-9.3281-9.9688v9.9688h-7.6562z"/>
  </symbol>
 </defs>
 <g>
  <path d="m560 268.62c-0.29297-12.953-4.6875-25.477-12.547-35.777-7.8633-10.297-18.785-17.836-31.203-21.535-1.0508-44.363-34.039-80.062-74.375-80.062-16.891 0.67578-33.078 6.9336-46.031 17.797s-21.938 25.715-25.543 42.227c-6.6758-1.4492-13.57-1.5977-20.301-0.4375-9.6836-4.5-20.207-6.918-30.887-7.0859-18.168-22.238-45.398-35.098-74.113-35-24.387-0.0625-47.891 9.1367-65.754 25.738-17.867 16.598-28.766 39.359-30.496 63.688-25.453 5.7305-46.414 23.699-55.973 47.977-9.5547 24.273-6.4688 51.707 8.2422 73.254 14.711 21.547 39.141 34.41 65.23 34.344h389.38c31.324 0 56.875-28.086 56.875-62.648 0.61328-15.086-4.4336-29.855-14.145-41.41-9.7109-11.559-23.391-19.07-38.355-21.066zm-245 107.62h-148.75c-20.895-0.10156-40.297-10.848-51.465-28.508-11.172-17.656-12.57-39.793-3.707-58.715 8.8594-18.922 26.754-32.023 47.473-34.754 4.4609-0.83984 7.6953-4.7344 7.6992-9.2734 0-20.887 8.2969-40.918 23.066-55.684 14.766-14.77 34.797-23.066 55.684-23.066 24.891-0.078125 48.324 11.723 63.086 31.762 1.7969 2.4141 4.7031 3.7344 7.7031 3.5h2.4492c15.332 0.023437 30.035 6.1055 40.902 16.926 10.867 10.816 17.016 25.492 17.109 40.824v9.1875c-0.023438 3.3984 1.9219 6.5039 4.9883 7.9648 14.391 6.9023 24.863 19.977 28.453 35.527 3.5898 15.555-0.089844 31.895-10.004 44.406-9.9102 12.516-24.977 19.836-40.938 19.902zm113.75-52.5c-0.027344-24.984-13.363-48.059-35-60.551v-3.9375c0.007812-17.625-6.1875-34.695-17.5-48.211 2.2383 0.34766 4.5234-0.24609 6.3125-1.6367 1.7891-1.3906 2.9219-3.457 3.1367-5.7148 4.1992-31.324 28.352-54.949 56.176-54.949 30.102 0 54.773 26.863 56.699 60.637-0.089844-1.7422-0.69922-3.418-1.75-4.8125-3.0039-3.7539-8.4766-4.3789-12.25-1.3984l-29.574 23.625v-51.801c0-4.832-3.918-8.75-8.75-8.75s-8.75 3.918-8.75 8.75v40.164l-20.039-20.125c-3.4297-3.4336-8.9922-3.4336-12.422 0-3.4336 3.4297-3.4336 8.9922 0 12.422l32.461 32.203-8.2266 136.59h-24.41c15.137-13.254 23.84-32.379 23.887-52.5zm126.88 52.5h-61.25l18.727-43.75h38.148c4.832 0 8.75-3.918 8.75-8.75s-3.918-8.75-8.75-8.75h-38.324l-15.137-30.188c-2.3633-3.9258-7.3555-5.3672-11.445-3.2969-4.0898 2.0664-5.8945 6.9414-4.1328 11.172l15.664 31.062-22.398 52.5h-28.703l7.4375-126.44 41.211-32.988h0.003906c1.7734-1.4062 2.9336-3.4453 3.2383-5.6875v2.3633 5.25c-0.023437 4.5117 3.3867 8.3008 7.875 8.75 20.125 1.9258 35.875 21.699 35.875 44.887v4.9023c0 2.3203 0.92188 4.543 2.5625 6.1875 1.6406 1.6406 3.8672 2.5625 6.1875 2.5625h4.375c21.961-0.089843 39.461 20.211 39.461 45.062 0 24.848-17.5 45.148-39.375 45.148z"/>
  <path d="m218.14 364.26-15.398-38.414 22.227-22.137h-0.003906c3.4336-3.4297 3.4336-8.9922 0-12.422-3.4297-3.4336-8.9922-3.4336-12.422 0l-16.801 16.887-12.602-31.414c-1.7891-4.4922-6.8789-6.6875-11.375-4.8984-4.4922 1.7891-6.6875 6.8789-4.8984 11.375l5.6875 14.262h-23.801c-4.832 0-8.75 3.918-8.75 8.75s3.918 8.75 8.75 8.75h30.801l4.8125 12.074 17.5 43.75c1.3555 3.2969 4.5742 5.4453 8.1367 5.4258 1.1094 0.003906 2.207-0.20703 3.2383-0.61328 2.1602-0.85547 3.8906-2.5352 4.8086-4.6719 0.91797-2.1328 0.95312-4.543 0.089844-6.7031z"/>
  <path d="m295.4 227.5-26.25 6.5625 2.1016-14.176c0.62891-4.832-2.7812-9.2578-7.6133-9.8867s-9.2578 2.7812-9.8867 7.6133l-2.3633 18.637-16.887-22.75c-2.8984-3.8672-8.3828-4.6484-12.25-1.75s-4.6484 8.3828-1.75 12.25l26.25 35c0.40234 0.45312 0.875 0.83594 1.3984 1.1367l-11.898 88.727c-0.32031 2.3242 0.30078 4.6797 1.7344 6.5391 1.4297 1.8594 3.5508 3.0664 5.8789 3.3477h1.1367c4.4219 0.039062 8.1758-3.2305 8.75-7.6133l13.125-98.176 32.727-7.9609c4.832-1.1602 7.8086-6.0156 6.6484-10.852-1.1602-4.832-6.0156-7.8086-10.852-6.6484z"/>
  <path d="m323.75 369.77 9.8867-37.273h0.96094l35-8.75h0.003906c4.832-1.1602 7.8086-6.0156 6.6484-10.852-1.1602-4.832-6.0156-7.8086-10.852-6.6484l-26.25 6.6484 10.852-39.375c1.2578-4.832-1.6406-9.7656-6.4766-11.023-4.832-1.2578-9.7656 1.6406-11.023 6.4766l-7.3516 26.688-21.789-21.875h0.003906c-3.4336-3.4336-8.9961-3.4336-12.426 0-3.4297 3.4297-3.4297 8.9922 0 12.422l26.25 26.25c0.83203 0.79687 1.8125 1.4219 2.8867 1.8398l-13.824 50.926c-1.2305 4.6328 1.5039 9.3945 6.125 10.672 0.84375 0.28906 1.7344 0.40625 2.625 0.35156 4.0664 0.14062 7.6953-2.543 8.75-6.4766z"/>
  <use x="70" y="691.25" xlink:href="#n"/>
  <use x="102.109375" y="691.25" xlink:href="#h"/>
  <use x="123.683594" y="691.25" xlink:href="#c"/>
  <use x="153.355469" y="691.25" xlink:href="#a"/>
  <use x="182.878906" y="691.25" xlink:href="#b"/>
  <use x="203.792969" y="691.25" xlink:href="#c"/>
  <use x="233.464844" y="691.25" xlink:href="#g"/>
  <use x="280.011719" y="691.25" xlink:href="#f"/>
  <use x="311.328125" y="691.25" xlink:href="#e"/>
  <use x="355.078125" y="691.25" xlink:href="#d"/>
  <use x="386.589844" y="691.25" xlink:href="#a"/>
  <use x="416.113281" y="691.25" xlink:href="#b"/>
  <use x="437.027344" y="691.25" xlink:href="#a"/>
  <use x="466.546875" y="691.25" xlink:href="#m"/>
  <use x="506.964844" y="691.25" xlink:href="#a"/>
  <use x="536.488281" y="691.25" xlink:href="#b"/>
  <use x="572.632812" y="691.25" xlink:href="#l"/>
  <use x="606.492188" y="691.25" xlink:href="#k"/>
  <use x="637.640625" y="691.25" xlink:href="#j"/>
  <use x="668.785156" y="691.25" xlink:href="#i"/>
 </g>
</svg>
