<?xml version="1.0" encoding="UTF-8"?>
<svg width="700pt" height="700pt" version="1.1" viewBox="0 0 700 700" xmlns="http://www.w3.org/2000/svg" xmlns:xlink="http://www.w3.org/1999/xlink">
 <defs>
  <symbol id="v" overflow="visible">
   <path d="m4.6406-0.28125c-0.24219 0.125-0.49219 0.21875-0.75 0.28125-0.25 0.0625-0.51562 0.09375-0.79688 0.09375-0.84375 0-1.5156-0.23438-2.0156-0.70312-0.49219-0.46875-0.73438-1.1094-0.73438-1.9219 0-0.80078 0.24219-1.4375 0.73438-1.9062 0.5-0.47656 1.1719-0.71875 2.0156-0.71875 0.28125 0 0.54688 0.039062 0.79688 0.10938 0.25781 0.0625 0.50781 0.15625 0.75 0.28125v1.0469c-0.24219-0.16406-0.48047-0.28516-0.71875-0.35938-0.23047-0.082031-0.47656-0.125-0.73438-0.125-0.46094 0-0.82422 0.15234-1.0938 0.45312-0.27344 0.29297-0.40625 0.69922-0.40625 1.2188 0 0.53125 0.13281 0.94922 0.40625 1.25 0.26953 0.29297 0.63281 0.4375 1.0938 0.4375 0.25781 0 0.50391-0.035156 0.73438-0.10938 0.23828-0.082031 0.47656-0.20703 0.71875-0.375z"/>
  </symbol>
  <symbol id="d" overflow="visible">
   <path d="m3.4062-2.7656c-0.11719-0.039063-0.22656-0.070313-0.32812-0.09375-0.10547-0.03125-0.21094-0.046875-0.3125-0.046875-0.3125 0-0.55469 0.10156-0.71875 0.29688-0.16797 0.19922-0.25 0.48438-0.25 0.85938v1.75h-1.2188v-3.7969h1.2188v0.625c0.15625-0.25 0.33203-0.42969 0.53125-0.54688 0.20703-0.11328 0.45312-0.17188 0.73438-0.17188 0.039062 0 0.082031 0.007813 0.125 0.015625 0.050781 0 0.11719 0.007812 0.20312 0.015625z"/>
  </symbol>
  <symbol id="b" overflow="visible">
   <path d="m4.375-1.9062v0.34375h-2.8438c0.03125 0.28125 0.13281 0.49609 0.3125 0.64062 0.17578 0.14844 0.42188 0.21875 0.73438 0.21875 0.25781 0 0.51953-0.035156 0.78125-0.10938 0.26953-0.082031 0.54688-0.20312 0.82812-0.35938v0.9375c-0.28125 0.11719-0.57031 0.19922-0.85938 0.25-0.28125 0.050781-0.57031 0.078125-0.85938 0.078125-0.6875 0-1.2266-0.17188-1.6094-0.51562-0.375-0.35156-0.5625-0.84375-0.5625-1.4688s0.1875-1.1133 0.5625-1.4688c0.375-0.35156 0.89062-0.53125 1.5469-0.53125 0.59375 0 1.0664 0.18359 1.4219 0.54688 0.36328 0.35547 0.54688 0.83594 0.54688 1.4375zm-1.25-0.40625c0-0.22656-0.070312-0.41016-0.20312-0.54688-0.13672-0.14453-0.3125-0.21875-0.53125-0.21875-0.23047 0-0.41797 0.070313-0.5625 0.20312-0.14844 0.125-0.24219 0.3125-0.28125 0.5625z"/>
  </symbol>
  <symbol id="l" overflow="visible">
   <path d="m2.2812-1.7031c-0.25 0-0.44531 0.042969-0.57812 0.125-0.125 0.085937-0.1875 0.21094-0.1875 0.375 0 0.15625 0.050781 0.28125 0.15625 0.375 0.10156 0.085937 0.25 0.125 0.4375 0.125 0.22656 0 0.41406-0.082031 0.5625-0.25 0.15625-0.16406 0.23438-0.36719 0.23438-0.60938v-0.14062zm1.8594-0.46875v2.1719h-1.2344v-0.5625c-0.15625 0.23047-0.33984 0.39844-0.54688 0.5-0.19922 0.10156-0.44531 0.15625-0.73438 0.15625-0.39844 0-0.71875-0.11328-0.96875-0.34375-0.24219-0.22656-0.35938-0.52344-0.35938-0.89062 0-0.44531 0.14844-0.76953 0.45312-0.96875 0.3125-0.20703 0.79688-0.3125 1.4531-0.3125h0.70312v-0.10938c0-0.1875-0.078125-0.32031-0.23438-0.40625-0.14844-0.09375-0.375-0.14062-0.6875-0.14062-0.26172 0-0.50781 0.027344-0.73438 0.078125-0.21875 0.054688-0.42969 0.13281-0.625 0.23438v-0.92188c0.25781-0.0625 0.51953-0.10938 0.78125-0.14062 0.26953-0.039063 0.53516-0.0625 0.79688-0.0625 0.67578 0 1.1641 0.13672 1.4688 0.40625 0.3125 0.27344 0.46875 0.71094 0.46875 1.3125z"/>
  </symbol>
  <symbol id="a" overflow="visible">
   <path d="m1.9062-4.875v1.0781h1.25v0.875h-1.25v1.6094c0 0.17969 0.03125 0.29688 0.09375 0.35938 0.070312 0.054687 0.21094 0.078125 0.42188 0.078125h0.625v0.875h-1.0312c-0.48047 0-0.82422-0.097656-1.0312-0.29688-0.19922-0.19531-0.29688-0.53516-0.29688-1.0156v-1.6094h-0.59375v-0.875h0.59375v-1.0781z"/>
  </symbol>
  <symbol id="f" overflow="visible">
   <path d="m3.1562-3.2344v-2.0312h1.2344v5.2656h-1.2344v-0.54688c-0.16797 0.21875-0.35156 0.38281-0.54688 0.48438-0.19922 0.10156-0.43359 0.15625-0.70312 0.15625-0.46094 0-0.83984-0.17969-1.1406-0.54688-0.30469-0.375-0.45312-0.85156-0.45312-1.4375 0-0.58203 0.14844-1.0625 0.45312-1.4375 0.30078-0.375 0.67969-0.5625 1.1406-0.5625 0.26953 0 0.50391 0.054687 0.70312 0.15625 0.19531 0.10547 0.37891 0.27344 0.54688 0.5zm-0.79688 2.4531c0.25781 0 0.45703-0.09375 0.59375-0.28125 0.13281-0.19531 0.20312-0.47266 0.20312-0.82812 0-0.36328-0.070312-0.64062-0.20312-0.82812-0.13672-0.1875-0.33594-0.28125-0.59375-0.28125-0.25 0-0.44922 0.09375-0.59375 0.28125-0.13672 0.1875-0.20312 0.46484-0.20312 0.82812 0 0.35547 0.066406 0.63281 0.20312 0.82812 0.14453 0.1875 0.34375 0.28125 0.59375 0.28125z"/>
  </symbol>
  <symbol id="k" overflow="visible">
   <path d="m2.6094-0.78125c0.25 0 0.44141-0.09375 0.57812-0.28125 0.14453-0.19531 0.21875-0.47266 0.21875-0.82812 0-0.36328-0.074219-0.64062-0.21875-0.82812-0.13672-0.1875-0.32812-0.28125-0.57812-0.28125-0.26172 0-0.46484 0.09375-0.60938 0.28125-0.13672 0.1875-0.20312 0.46484-0.20312 0.82812 0 0.35547 0.066406 0.63281 0.20312 0.82812 0.14453 0.1875 0.34766 0.28125 0.60938 0.28125zm-0.8125-2.4531c0.16406-0.22656 0.34766-0.39453 0.54688-0.5 0.20703-0.10156 0.44141-0.15625 0.70312-0.15625 0.46875 0 0.85156 0.1875 1.1562 0.5625 0.30078 0.375 0.45312 0.85547 0.45312 1.4375 0 0.58594-0.15234 1.0625-0.45312 1.4375-0.30469 0.36719-0.6875 0.54688-1.1562 0.54688-0.26172 0-0.49609-0.054688-0.70312-0.15625-0.19922-0.10156-0.38281-0.26562-0.54688-0.48438v0.54688h-1.2188v-5.2656h1.2188z"/>
  </symbol>
  <symbol id="e" overflow="visible">
   <path d="m0.078125-3.7969h1.2188l1.0156 2.5781 0.875-2.5781h1.2031l-1.5938 4.1562c-0.15625 0.42578-0.34375 0.72266-0.5625 0.89062-0.21094 0.16406-0.49219 0.25-0.84375 0.25h-0.70312v-0.79688h0.39062c0.19531 0 0.34375-0.039063 0.4375-0.10938 0.09375-0.0625 0.16406-0.17969 0.21875-0.34375l0.046875-0.10938z"/>
  </symbol>
  <symbol id="j" overflow="visible">
   <path d="m3.7031-0.92188h-2.0312l-0.32812 0.92188h-1.3125l1.875-5.0625h1.5625l1.8594 5.0625h-1.2969zm-1.7188-0.9375h1.3906l-0.6875-2.0156z"/>
  </symbol>
  <symbol id="i" overflow="visible">
   <path d="m4.0938-3.1562c0.15625-0.23828 0.33594-0.42188 0.54688-0.54688 0.21875-0.125 0.45312-0.1875 0.70312-0.1875 0.4375 0 0.76953 0.13672 1 0.40625 0.22656 0.27344 0.34375 0.66406 0.34375 1.1719v2.3125h-1.2344v-1.9844c0.007813-0.019531 0.015625-0.046875 0.015625-0.078125v-0.14062c0-0.26953-0.042969-0.46094-0.125-0.57812-0.074219-0.125-0.19922-0.1875-0.375-0.1875-0.23047 0-0.40625 0.09375-0.53125 0.28125s-0.19531 0.46484-0.20312 0.82812v1.8594h-1.2188v-1.9844c0-0.41406-0.039063-0.67969-0.10938-0.79688-0.074219-0.125-0.19922-0.1875-0.375-0.1875-0.24219 0-0.42188 0.10156-0.54688 0.29688-0.125 0.1875-0.1875 0.46094-0.1875 0.8125v1.8594h-1.2188v-3.7969h1.2188v0.5625c0.14453-0.21875 0.3125-0.37891 0.5-0.48438 0.19531-0.11328 0.41406-0.17188 0.65625-0.17188 0.25781 0 0.48828 0.070313 0.6875 0.20312 0.19531 0.125 0.34766 0.30469 0.45312 0.53125z"/>
  </symbol>
  <symbol id="h" overflow="visible">
   <path d="m4.3906-2.3125v2.3125h-1.2188v-1.7656c0-0.33203-0.007813-0.55469-0.015625-0.67188-0.011719-0.125-0.039062-0.21875-0.078125-0.28125-0.042969-0.082031-0.10547-0.14453-0.1875-0.1875-0.085937-0.039062-0.17969-0.0625-0.28125-0.0625-0.25 0-0.44922 0.10156-0.59375 0.29688-0.14844 0.1875-0.21875 0.46094-0.21875 0.8125v1.8594h-1.2188v-5.2656h1.2188v2.0312c0.17578-0.22656 0.36719-0.39453 0.57812-0.5 0.20703-0.10156 0.4375-0.15625 0.6875-0.15625 0.4375 0 0.76562 0.13672 0.98438 0.40625 0.22656 0.27344 0.34375 0.66406 0.34375 1.1719z"/>
  </symbol>
  <symbol id="u" overflow="visible">
   <path d="m3.5469-3.6719v0.92188c-0.26172-0.11328-0.51172-0.19531-0.75-0.25-0.24219-0.050781-0.46875-0.078125-0.6875-0.078125-0.23047 0-0.40234 0.03125-0.51562 0.09375-0.11719 0.054687-0.17188 0.13672-0.17188 0.25 0 0.10547 0.039063 0.18359 0.125 0.23438 0.09375 0.054688 0.25 0.089844 0.46875 0.10938l0.20312 0.03125c0.625 0.085937 1.0391 0.21484 1.25 0.39062 0.21875 0.17969 0.32812 0.46094 0.32812 0.84375 0 0.40625-0.15234 0.71484-0.45312 0.92188-0.29297 0.19922-0.73438 0.29688-1.3281 0.29688-0.25 0-0.51172-0.023438-0.78125-0.0625-0.26172-0.03125-0.53125-0.085938-0.8125-0.17188v-0.92188c0.23828 0.11719 0.48438 0.20312 0.73438 0.26562 0.25781 0.0625 0.51953 0.09375 0.78125 0.09375 0.23828 0 0.41406-0.03125 0.53125-0.09375 0.125-0.070313 0.1875-0.17188 0.1875-0.29688 0-0.11328-0.042969-0.19531-0.125-0.25-0.085938-0.050781-0.25-0.09375-0.5-0.125l-0.21875-0.015625c-0.53125-0.070313-0.90625-0.19531-1.125-0.375-0.21875-0.1875-0.32812-0.46875-0.32812-0.84375 0-0.39453 0.13281-0.69141 0.40625-0.89062 0.28125-0.19531 0.70703-0.29688 1.2812-0.29688 0.21875 0 0.44531 0.023437 0.6875 0.0625 0.25 0.03125 0.51953 0.085937 0.8125 0.15625z"/>
  </symbol>
  <symbol id="t" overflow="visible">
   <path d="m4.1562-4.8906v1.0625c-0.28125-0.125-0.55469-0.21875-0.8125-0.28125-0.26172-0.0625-0.51172-0.09375-0.75-0.09375-0.3125 0-0.54297 0.042969-0.6875 0.125-0.14844 0.085937-0.21875 0.21875-0.21875 0.40625 0 0.13672 0.046875 0.24219 0.14062 0.3125 0.10156 0.074219 0.28516 0.14062 0.54688 0.20312l0.5625 0.10938c0.5625 0.11719 0.95703 0.28906 1.1875 0.51562 0.23828 0.23047 0.35938 0.55469 0.35938 0.96875 0 0.5625-0.16797 0.98047-0.5 1.25-0.32422 0.27344-0.82812 0.40625-1.5156 0.40625-0.3125 0-0.63281-0.03125-0.95312-0.09375-0.32422-0.050781-0.64844-0.14062-0.96875-0.26562v-1.0938c0.32031 0.16797 0.63281 0.29688 0.9375 0.39062 0.30078 0.085938 0.58594 0.125 0.85938 0.125 0.28906 0 0.50781-0.046875 0.65625-0.14062 0.15625-0.09375 0.23438-0.22656 0.23438-0.40625 0-0.15625-0.054687-0.27344-0.15625-0.35938-0.10547-0.09375-0.30859-0.17188-0.60938-0.23438l-0.51562-0.125c-0.5-0.10156-0.87109-0.27344-1.1094-0.51562-0.23047-0.23828-0.34375-0.55469-0.34375-0.95312 0-0.50781 0.16016-0.89844 0.48438-1.1719 0.32031-0.26953 0.78906-0.40625 1.4062-0.40625 0.28125 0 0.56641 0.023438 0.85938 0.0625 0.28906 0.042969 0.59375 0.10938 0.90625 0.20312z"/>
  </symbol>
  <symbol id="g" overflow="visible">
   <path d="m0.54688-1.4844v-2.3125h1.2188v0.375c0 0.21094-0.007813 0.46875-0.015625 0.78125v0.625c0 0.30469 0.003906 0.52344 0.015625 0.65625 0.019531 0.13672 0.050781 0.23438 0.09375 0.29688 0.050781 0.074219 0.11328 0.13672 0.1875 0.1875 0.082031 0.042969 0.17578 0.0625 0.28125 0.0625 0.25 0 0.44531-0.097656 0.59375-0.29688 0.14453-0.19531 0.21875-0.46875 0.21875-0.8125v-1.875h1.2188v3.7969h-1.2188v-0.54688c-0.17969 0.21875-0.37109 0.38281-0.57812 0.48438-0.21094 0.10156-0.43359 0.15625-0.67188 0.15625-0.4375 0-0.77344-0.12891-1-0.39062-0.23047-0.26953-0.34375-0.66406-0.34375-1.1875z"/>
  </symbol>
  <symbol id="s" overflow="visible">
   <path d="m0.57812-3.7969h1.2188v3.7969h-1.2188zm0-1.4688h1.2188v0.98438h-1.2188z"/>
  </symbol>
  <symbol id="c" overflow="visible">
   <path d="m2.3906-3.0156c-0.27344 0-0.48047 0.10156-0.625 0.29688-0.13672 0.1875-0.20312 0.46484-0.20312 0.82812 0 0.36719 0.066406 0.64844 0.20312 0.84375 0.14453 0.1875 0.35156 0.28125 0.625 0.28125 0.25781 0 0.45703-0.09375 0.59375-0.28125 0.14453-0.19531 0.21875-0.47656 0.21875-0.84375 0-0.36328-0.074219-0.64062-0.21875-0.82812-0.13672-0.19531-0.33594-0.29688-0.59375-0.29688zm0-0.875c0.64453 0 1.1484 0.17969 1.5156 0.53125 0.375 0.35547 0.5625 0.84375 0.5625 1.4688s-0.1875 1.1172-0.5625 1.4688c-0.36719 0.34375-0.87109 0.51562-1.5156 0.51562-0.65625 0-1.1719-0.17188-1.5469-0.51562-0.36719-0.35156-0.54688-0.84375-0.54688-1.4688s0.17969-1.1133 0.54688-1.4688c0.375-0.35156 0.89062-0.53125 1.5469-0.53125z"/>
  </symbol>
  <symbol id="r" overflow="visible">
   <path d="m3.0781-5.2656v0.79688h-0.67188c-0.16797 0-0.28906 0.03125-0.35938 0.09375-0.0625 0.0625-0.09375 0.16797-0.09375 0.3125v0.26562h1.0312v0.875h-1.0312v2.9219h-1.2188v-2.9219h-0.60938v-0.875h0.60938v-0.26562c0-0.40625 0.11328-0.70703 0.34375-0.90625 0.22656-0.19531 0.58594-0.29688 1.0781-0.29688z"/>
  </symbol>
  <symbol id="q" overflow="visible">
   <path d="m0.64062-5.0625h1.4531l1.8438 3.4688v-3.4688h1.2344v5.0625h-1.4531l-1.8438-3.4688v3.4688h-1.2344z"/>
  </symbol>
  <symbol id="p" overflow="visible">
   <path d="m4.3906-2.3125v2.3125h-1.2188v-1.7656c0-0.33203-0.007813-0.55469-0.015625-0.67188-0.011719-0.125-0.039062-0.21875-0.078125-0.28125-0.042969-0.082031-0.10547-0.14453-0.1875-0.1875-0.085937-0.039062-0.17969-0.0625-0.28125-0.0625-0.25 0-0.44922 0.10156-0.59375 0.29688-0.14844 0.1875-0.21875 0.46094-0.21875 0.8125v1.8594h-1.2188v-3.7969h1.2188v0.5625c0.17578-0.22656 0.36719-0.39453 0.57812-0.5 0.20703-0.10156 0.4375-0.15625 0.6875-0.15625 0.4375 0 0.76562 0.13672 0.98438 0.40625 0.22656 0.27344 0.34375 0.66406 0.34375 1.1719z"/>
  </symbol>
  <symbol id="o" overflow="visible">
   <path d="m0.64062-5.0625h2.1562c0.64453 0 1.1406 0.14844 1.4844 0.4375 0.34375 0.28125 0.51562 0.6875 0.51562 1.2188s-0.17188 0.94531-0.51562 1.2344c-0.34375 0.28125-0.83984 0.42188-1.4844 0.42188h-0.85938v1.75h-1.2969zm1.2969 0.95312v1.4062h0.71875c0.25781 0 0.45703-0.054687 0.59375-0.17188 0.13281-0.125 0.20312-0.30078 0.20312-0.53125 0-0.22656-0.070313-0.39844-0.20312-0.51562-0.13672-0.125-0.33594-0.1875-0.59375-0.1875z"/>
  </symbol>
  <symbol id="n" overflow="visible">
   <path d="m0.57812-3.7969h1.2188v3.7344c0 0.5-0.125 0.88281-0.375 1.1562-0.24219 0.26953-0.58984 0.40625-1.0469 0.40625h-0.60938v-0.79688h0.21875c0.22656 0 0.38281-0.054687 0.46875-0.15625 0.082031-0.10547 0.125-0.30859 0.125-0.60938zm0-1.4688h1.2188v0.98438h-1.2188z"/>
  </symbol>
  <symbol id="m" overflow="visible">
   <path d="m3.6406-3.6719v0.98438c-0.15625-0.11328-0.32031-0.19531-0.48438-0.25-0.16797-0.050781-0.33984-0.078125-0.51562-0.078125-0.34375 0-0.60938 0.10156-0.79688 0.29688-0.1875 0.19922-0.28125 0.47656-0.28125 0.82812 0 0.35547 0.09375 0.63281 0.28125 0.82812 0.1875 0.19922 0.45312 0.29688 0.79688 0.29688 0.1875 0 0.36328-0.023437 0.53125-0.078125 0.17578-0.0625 0.33203-0.14844 0.46875-0.26562v1c-0.1875 0.074219-0.38281 0.125-0.57812 0.15625-0.1875 0.03125-0.38281 0.046875-0.57812 0.046875-0.6875 0-1.2266-0.17188-1.6094-0.51562-0.38672-0.35156-0.57812-0.84375-0.57812-1.4688s0.19141-1.1133 0.57812-1.4688c0.38281-0.35156 0.92188-0.53125 1.6094-0.53125 0.19531 0 0.39062 0.023437 0.57812 0.0625 0.19531 0.03125 0.39062 0.085937 0.57812 0.15625z"/>
  </symbol>
 </defs>
 <g>
  <path d="m134.19 107.38c-11.418 0-20.703 9.2891-20.703 20.703 0 11.414 9.2891 20.703 20.703 20.703s20.703-9.2891 20.703-20.703c0-11.414-9.2891-20.703-20.703-20.703zm0 30.297c-5.2891 0-9.5938-4.3047-9.5938-9.5938 0-5.2891 4.3047-9.5938 9.5938-9.5938s9.5938 4.3047 9.5938 9.5938c-0.003906 5.293-4.3047 9.5938-9.5938 9.5938zm-71.066-6.7148c1.3125 2.7734 0.12891 6.0859-2.6445 7.3984l-13.242 6.2734c-0.76953 0.36328-1.5781 0.53516-2.375 0.53516-2.082 0-4.0781-1.1719-5.0234-3.1797-1.3125-2.7734-0.12891-6.0859 2.6445-7.3984l13.242-6.2734c2.7734-1.3125 6.0859-0.12891 7.3984 2.6445zm609.4 288.38c-15.457-9.2734-33.816-17.391-45.16-21.32-5.418-1.8789-13.902-3.5352-26.195-5.5273 0.64063-1.4492 1.207-2.9219 1.6836-4.4297 4.2383-13.367 2.9531-27.211-1.9844-40.91 10.875-10.629 16.262-23.656 15.984-38.789-0.039062-2.082-1.2344-3.9648-3.0977-4.8828-12.438-6.1289-24.199-8.875-35.125-8.2305 4.1875-8.4883 5.668-17.711 4.3789-27.559-0.30078-2.2969-1.9961-4.1719-4.2578-4.6914-11.031-2.5508-21.027-2.2031-29.895 0.98438 2.4336-10.133 2.6367-20.031 0.59766-29.562-0.52734-2.4609-2.6406-4.2578-5.1523-4.3867-10.656-0.53906-20.398 1.4023-29.129 5.7539 1.4844-10.809-0.4375-21.641-5.7891-32.367-0.93359-1.8711-2.8359-3.0586-4.9258-3.0781-11.613-0.10547-21.473 2.4766-29.48 7.6797 0.29297-11.336-2.2109-22.277-7.5195-32.684-1.1367-2.2266-3.6094-3.4141-6.0586-2.9219-10.031 2.043-18.539 6.3789-25.461 12.934-0.88281-9.7109-3.7383-19.23-8.5586-28.441-1.3047-2.4883-4.2539-3.6211-6.8906-2.6211-10.832 4.1016-19.996 10.934-27.398 20.371-1.6797-11.43-5.0195-21.758-10.008-30.844-1.4531-2.6445-4.7539-3.6484-7.4297-2.2617-10.387 5.3906-19.086 12.812-26.031 22.156-1.0547-10.312-3.8047-20.449-8.2578-30.312-1.1602-2.5742-4.0664-3.8672-6.7539-3.0078-11.059 3.5352-21.098 9.543-30.02 17.938 1.3125-12.27 0.43359-24.57-2.6523-36.77-0.67969-2.6836-3.2422-4.4531-5.9883-4.1602-9.6016 1.0469-18.586 3.5703-26.871 7.4688 2.4297-10.16 3.5273-21.172 3.2109-32.949-0.046875-1.7109-0.87891-3.3086-2.2578-4.3242-1.3789-1.0156-3.1484-1.3398-4.8008-0.875-11.766 3.3086-22.48 9.6016-32.027 18.75 0.035156-8.4336-1.6094-16.867-4.9492-25.23-1.1367-2.8477-4.3672-4.2305-7.2109-3.1016-13.078 5.2031-24.121 13.938-32.895 26.004-1.5312-1.4297-3.0547-2.918-4.5977-4.4414-9.5312-9.3984-20.336-20.051-40.598-20.051-29.395 0-122.52 38.547-135.78 59.691-12.844 20.496-8.0312 45.734 11.188 58.715 11.719 7.9102 31.879 8.4258 51.379 8.9258 0.89062 0.023438 1.7695 0.046875 2.6484 0.070313 21.148 15.488 38.578 40.395 53.98 62.445 17.191 24.605 32.035 45.852 49.512 52.082 21.855 7.7891 44.43 3.3242 57.727-0.83203-2.7734 5.0156-7.4102 10.953-15.07 15.668-6.8164 4.1953-23.133 3.3711-37.531 2.6367-23.02-1.168-44.773-2.2734-48.125 13.34-0.97266 4.5234 0.074219 8.7695 3.0273 12.277 2.9531 3.5117 7.7969 6.0117 13.426 7.7891-10.715 3.4609-17.461 8.5938-17.461 17.102 0 4.9922 2.0469 9.2656 5.9141 12.367 6.5664 5.2617 18.156 6.3945 29.176 5.9883-12.816 8.7422-26.398 20.371-28.531 31.477-0.99219 5.1641 0.34766 10 3.8672 13.988 3.2656 3.6914 7.8086 5.543 13.688 5.543 5.9648 0 13.309-1.9102 22.074-5.7305 45.633 14.527 104.38 22.094 167.01 22.094 31.383 0 63.746-1.8984 95.914-5.7695 34.98-4.207 86.168-13.133 121.99-31.336 18.918 3.8867 30.648 7.6914 34.844 11.32 9.168 7.9336 8.6602 26.832 8.2188 43.504-0.48828 18.297-0.94922 35.578 12.879 37.742 0.82813 0.12891 1.6484 0.19531 2.457 0.19531 3.5586 0 6.918-1.2422 9.832-3.6562 7.9688-6.5977 11.547-21.734 13.152-33.191 10.066 11.543 25.188 25.125 36.023 18.172 2.6992-1.7305 4.4141-4.4219 4.957-7.7812 1.4219-8.7461-6.2344-22.617-13.332-33.23 7.3203 1.6094 15.406 2.2461 20.961-0.60547 3.5352-1.8164 5.8633-4.8242 6.7305-8.6953 2.0664-9.2031-6.5703-19.25-27.176-31.613zm-66.836-107.37c-0.48047 9.1719-3.6562 17.117-9.6133 24.074-5.0312-10.066-11.785-19.965-19.508-29.438 8.8516-1.1094 18.598 0.67578 29.121 5.3633zm-33.363-38.918c0.29297 7.832-1.7422 14.973-6.1523 21.625-5.8633-6.3242-12.035-12.387-18.262-18.109 6.9922-3.8633 15.051-5.0273 24.414-3.5156zm-35.742-6.5c-0.28906-0.24609-0.57812-0.49609-0.86719-0.73828-6.9492-5.8867-14.02-11.52-21.059-16.855 7.2461-5.0352 15.395-7.6406 24.672-7.8828 1.0625 8.2266 0.13281 16.645-2.7461 25.477zm-35.691-55.027c4.1016 9.668 4.7695 19.16 2.0156 28.777-9.457-6.7773-18.699-12.957-27.359-18.434 6.25-6.4141 14.605-9.8281 25.344-10.344zm-41.477-27.164c4.0977 9.6172 5.3945 19.523 3.9297 30.012-9.9805-5.9414-18.742-10.691-25.602-14.062 5.4375-7.957 12.582-13.223 21.672-15.949zm-39.648-17.652c4.0391 9.2148 5.7891 18.52 5.2969 28.172-8.168-2.8047-17.684-5.0117-27.711-6.8555 5.8789-9.7695 13.273-16.809 22.414-21.316zm-43.906-12.473c4.1016 9.1641 6.4922 19.699 7.1719 31.41-7.9375-1.1992-15.93-2.2461-23.586-3.25-2.582-0.33984-5.1406-0.67188-7.6602-1.0078 5.8086-11.703 13.742-20.664 24.074-27.152zm-42.629-11.512c4.6797 12.047 6.5117 24.184 5.5586 36.828-8.8359-1.3516-16.441-2.8008-21.512-4.5586-4.6875-1.6211-9.8047-4.3125-14.914-7.5117 8.8164-11.656 19.164-19.965 30.867-24.758zm-41.926 17.09c-7.0547-5.3203-13.41-10.863-17.789-15.027-2.1133-6.2422-4.4023-11.719-6.7734-16.043 7.7461-4.8438 16.16-8.0117 25.523-9.6016 2.6875 13.504 2.3555 27.137-0.96094 40.672zm-30.125-69.93c-0.30078 10.051-1.7695 19.383-4.3672 27.906-5.7539-3.3047-13.789-5.3516-22.539-7.1992 8.0312-9.6914 16.918-16.539 26.906-20.707zm-41.324-10.008c2.7695 9.3477 3.0039 18.559 0.73047 27.902-8.3789-1.7852-16.41-3.8203-22.082-6.8398-0.54297-0.28906-1.0664-0.60156-1.5898-0.91797 6.3438-8.8164 14.027-15.57 22.941-20.145zm-75.441 266.63c-0.73438-0.87109-0.91406-1.6289-0.66406-2.7891 1.3672-6.3672 21.789-5.3359 36.699-4.5781 17.566 0.89062 34.16 1.7344 43.918-4.2734 11.746-7.2305 17.891-16.852 21.035-23.98 5.5469 5.4883 14.395 13.422 25.867 21.074-6.3477 3.5156-13.59 7.2422-21.824 11.168-12.746 6.0742-34.672 8.5469-55.879 10.938-1.1992 0.13281-2.3906 0.26953-3.5781 0.40234-15.715 0.59766-40.121-1.4727-45.574-7.9609zm6.2188 88.512c-1.2422-1.4023-1.625-2.7578-1.2852-4.5352 2.207-11.492 29.496-29.156 46.18-37.594 2.5-1.2656 3.668-4.1914 2.7266-6.832-0.94531-2.6367-3.707-4.1562-6.4375-3.5508-15.191 3.3867-39.836 5.5508-47.074-0.25391-1.2461-1-1.7539-2.0703-1.7539-3.6992 0-2.6133 4.8203-5.375 13.223-7.5781 10.133-2.6562 23.961-4.2148 38.598-5.8672 22.117-2.4922 44.984-5.0703 59.414-11.949 44.098-21.016 66.457-39.012 66.457-53.492 0-16.684-22.117-27.574-24.637-28.762-2.7734-1.3047-6.0781-0.11719-7.3867 2.6562-1.3086 2.7695-0.125 6.082 2.6445 7.3945 4.7383 2.2461 18.266 10.508 18.266 18.715 0 4.7773-7.7188 13.789-27.531 26.008-21.32-13.172-34.625-28.832-34.762-28.992-1.6289-1.9414-4.3711-2.5312-6.6562-1.4414-0.32031 0.15234-32.246 15.109-61.008 4.8633-14.133-5.0352-28.707-25.898-44.133-47.98-13-18.609-27.395-39.191-44.578-55.141 1.9023 0.1875 3.7188 0.41406 5.4141 0.69531 10.137 1.6875 20.059 7.0664 29.652 12.27 10.094 5.4727 19.629 10.641 29.367 11.676 18.68 1.9844 35.914-4.4883 36.641-4.7656 2.8633-1.0938 4.2969-4.2969 3.207-7.1641-1.0898-2.8672-4.293-4.3008-7.1641-3.2188-0.15234 0.058594-15.543 5.7969-31.508 4.0977-7.5547-0.80469-16.145-5.4648-25.246-10.395-10.398-5.6367-21.148-11.469-33.121-13.461-8.0391-1.3398-17.789-1.5898-28.113-1.8516-17.07-0.4375-36.418-0.93359-45.445-7.0273-1.3633-0.92187-2.5938-1.9414-3.7578-3.0078 38.32-6.0898 77.086-2.5234 115.37 10.66 0.60156 0.20703 1.2109 0.30469 1.8086 0.30469 2.3047 0 4.4609-1.4453 5.2539-3.7461 1-2.9023-0.54297-6.0625-3.4414-7.0625-41.859-14.414-84.301-17.812-126.22-10.172-4.0977-9.3008-3.3086-20.512 3-30.57 10.215-16.293 98.781-54.48 126.36-54.48 15.707 0 23.625 7.8086 32.797 16.848 5.1992 5.125 10.574 10.422 17.535 14.129 8.7188 4.6406 20.703 7.0625 32.297 9.4023 11.199 2.2617 23.887 4.8242 28.016 8.9531 8.0352 8.0352 20.348 49.453 20.348 85.316 0 23.695-9.4727 47.629-15.117 59.785-1.293 2.7812-0.085937 6.0859 2.6992 7.3789 0.75781 0.35156 1.5547 0.51953 2.3359 0.51953 2.0977 0 4.1016-1.1914 5.043-3.2148 6.0312-12.988 16.152-38.633 16.152-64.465 0-15.859-2.3906-33.969-6.1055-50.16 9.6328 7.7891 22.738 17.102 34.691 21.238 9.8125 3.3945 25.824 5.4922 44.363 7.918 22.484 2.9414 47.965 6.2812 65.238 12.59 15.586 5.6953 64.094 33.383 105.29 68.285 35.504 30.086 75.387 73.66 63.734 110.42-6.875 21.68-40.664 40.297-93.555 52.637-0.92188-12.734-5.5625-23.699-13.852-32.75 11.25-3.4141 20.641-7.1133 27.027-11.082 24.742-15.387 20.445-38.324 14.715-48.297-1.5195-2.6523-4.8945-3.5586-7.5508-2.0547-2.6602 1.5039-3.5938 4.8906-2.1016 7.5586 0.91016 1.6328 7.1484 13.766-1.793 25.367-6.418-1.7734-13.297-4.9688-15.332-8.6562-7.9883-14.461 9.1055-47.582 16.363-59.125 1.6367-2.5977 0.85547-6.0273-1.7422-7.6602-2.5977-1.6328-6.0234-0.85547-7.6602 1.7422-3.0312 4.8125-29.254 47.672-16.688 70.418 3.1016 5.6133 9.4922 9.3242 15.246 11.664-8.2031 4.8906-22.555 9.668-41.301 14.191-25.355-5.3438-33.199-9.7734-35.297-12.559-11.41-15.129-5.0508-73.602-1.6406-94.852 0.48828-3.0312-1.5742-5.8789-4.6016-6.3672-3.0273-0.48047-5.8789 1.5742-6.3672 4.6016-0.69922 4.3516-4.1133 26.59-4.8594 49.879-6.8672 1.4844-21.801 4.3242-39.809 5.4219 15.242-11.809 26.031-25.234 26.031-40.223 0-44.105-80.137-71.359-83.551-72.496-2.9219-0.97656-6.0547 0.60156-7.0273 3.5078-0.97266 2.9102 0.59766 6.0586 3.5078 7.0312 21.129 7.0625 75.957 31.965 75.957 61.957 0 27.105-54.371 52.352-86.855 67.434-11.535 5.3555-20.641 9.582-25.164 12.848-14.68 10.59-25.453 33.715-29.125 42.418-4.2578 0.28906-8.5078 0.56641-12.738 0.82812l9.0195-28.332c0.74609-2.3398-0.13672-4.8945-2.1641-6.2773-2.0312-1.3789-4.7266-1.2695-6.6328 0.28125-33.328 27.086-74.27 50.125-82.102 41.254zm241.56-11.75c7.5117 7.4883 11.391 16.602 11.785 27.68-6.2031 0.46484-12.395 0.85547-18.57 1.1758-1.0039-9.7852-4.7344-18.605-11.148-26.363 1.0273-0.13672 2.0742-0.26953 3.0938-0.41016 4.8242-0.64844 9.793-1.3438 14.84-2.082zm-134.38 3.1016c4.5039-9.625 12.914-25.199 23.051-32.512 3.6641-2.6406 12.785-6.8789 23.344-11.781 15.301-7.1055 33.816-15.703 50.309-25.754 0.87109 0.007813 1.7422 0.023438 2.6055 0.023438 23.371 0 43.781-3.4766 54.02-5.5859 0.19922 17.266 2.3672 33.59 8.7266 42.027 3.2188 4.2695 9.3594 7.793 19.805 11.141-48.867 9.5625-115.98 17.57-181.86 22.441zm70.359 26.621c-6.5234-0.14453-12.984-0.37891-19.387-0.69531-0.47266-6.6328-2.2695-12.832-5.3711-18.551 6.0508-0.57031 12.07-1.1641 18.051-1.7812 4.6445 6.1328 6.8594 13.066 6.707 21.027zm144.3-44.941c9.6836 8.3125 14.684 18.742 15.227 31.695-7.7422 1.6016-15.828 3.0859-24.277 4.4258-1.1211-11.527-5.3984-21.922-12.758-31.059 7.5977-1.5938 14.93-3.2812 21.809-5.0625zm-251.86 20.738c-6.5508 0.36719-13.047 0.69531-19.473 0.99219 9.0898-5.6211 17.676-11.613 24.43-16.562zm70.379 6.0938c3.7305 5.0859 5.8984 10.633 6.5664 16.777-29.859-1.9492-58.102-5.7617-83.531-11.371 25.344-1.3086 51.328-3.1406 76.965-5.4062zm48.281 18.27c0.14062-8.1953-1.6641-15.723-5.4258-22.504 9.043-0.99219 17.961-2.0312 26.711-3.1211 8.0586 7.207 12.578 15.469 13.719 25.094-11.781 0.44141-23.465 0.61328-35.004 0.53125zm100.39-5.6719c-8.1992 0.98438-16.402 1.8359-24.602 2.5625-0.48828-10.918-3.8164-20.527-9.918-28.723 10.941-1.707 22.07-3.6016 32.898-5.6719 8.6602 8.6914 13.387 18.621 14.367 30.164-4.1836 0.58203-8.418 1.1445-12.746 1.668zm249.2 1.043c-0.14453 0.64453-0.37109 0.93359-0.96094 1.2383-4.9727 2.5625-19.84-1.5508-28.312-5.1367-2.3516-0.99609-5.0664-0.26953-6.6016 1.7656-1.5352 2.0312-1.4922 4.8477 0.10156 6.832 0.066406 0.082031 6.7578 8.4258 12.656 17.895 9.6133 15.422 8.7422 20.242 8.5703 20.84-3.4141 1.9219-17.336-9.3477-29.742-26.43-1.3945-1.9219-3.8555-2.7383-6.125-2.0469-2.2695 0.69531-3.8477 2.7539-3.9258 5.1289-0.39844 12.129-3.5781 33.477-10.398 39.125-1.1289 0.93359-2.1719 1.2461-3.4844 1.0391-4.1797-0.65234-3.7812-15.574-3.4922-26.465 0.50781-19.137 1.0859-40.828-12.055-52.203-4.6992-4.0664-13.566-7.6211-28.012-11.156 7.1523-4.8438 13.238-10.223 17.871-16.188 11.285 1.7734 23.031 3.7812 28.766 5.7656 10.797 3.7422 28.309 11.484 43.078 20.348 19.047 11.418 22.395 18.18 22.066 19.648z"/>
  <use y="540.78125" xlink:href="#v"/>
  <use x="5.097656" y="540.78125" xlink:href="#d"/>
  <use x="8.523438" y="540.78125" xlink:href="#b"/>
  <use x="13.230469" y="540.78125" xlink:href="#l"/>
  <use x="17.917969" y="540.78125" xlink:href="#a"/>
  <use x="21.238281" y="540.78125" xlink:href="#b"/>
  <use x="25.949219" y="540.78125" xlink:href="#f"/>
  <use x="33.335938" y="540.78125" xlink:href="#k"/>
  <use x="38.308594" y="540.78125" xlink:href="#e"/>
  <use x="45.253906" y="540.78125" xlink:href="#j"/>
  <use x="50.628906" y="540.78125" xlink:href="#i"/>
  <use x="57.863281" y="540.78125" xlink:href="#b"/>
  <use x="62.574219" y="540.78125" xlink:href="#a"/>
  <use x="65.894531" y="540.78125" xlink:href="#h"/>
  <use x="70.835938" y="540.78125" xlink:href="#e"/>
  <use x="75.363281" y="540.78125" xlink:href="#u"/>
  <use x="79.5" y="540.78125" xlink:href="#a"/>
  <use x="85.234375" y="540.78125" xlink:href="#t"/>
  <use x="90.238281" y="540.78125" xlink:href="#a"/>
  <use x="93.558594" y="540.78125" xlink:href="#g"/>
  <use x="98.5" y="540.78125" xlink:href="#f"/>
  <use x="103.472656" y="540.78125" xlink:href="#s"/>
  <use x="105.851562" y="540.78125" xlink:href="#c"/>
  <use y="547.722656" xlink:href="#r"/>
  <use x="3.019531" y="547.722656" xlink:href="#d"/>
  <use x="6.445312" y="547.722656" xlink:href="#c"/>
  <use x="11.21875" y="547.722656" xlink:href="#i"/>
  <use x="20.871094" y="547.722656" xlink:href="#a"/>
  <use x="24.191406" y="547.722656" xlink:href="#h"/>
  <use x="29.136719" y="547.722656" xlink:href="#b"/>
  <use x="36.261719" y="547.722656" xlink:href="#q"/>
  <use x="42.074219" y="547.722656" xlink:href="#c"/>
  <use x="46.847656" y="547.722656" xlink:href="#g"/>
  <use x="51.789062" y="547.722656" xlink:href="#p"/>
  <use x="59.152344" y="547.722656" xlink:href="#o"/>
  <use x="64.242188" y="547.722656" xlink:href="#d"/>
  <use x="67.667969" y="547.722656" xlink:href="#c"/>
  <use x="72.4375" y="547.722656" xlink:href="#n"/>
  <use x="74.820312" y="547.722656" xlink:href="#b"/>
  <use x="79.527344" y="547.722656" xlink:href="#m"/>
  <use x="83.644531" y="547.722656" xlink:href="#a"/>
 </g>
</svg>
